<svg version="1.1" xmlns="http://www.w3.org/2000/svg" viewBox="0 0 748 545.5" width="748" height="545.5" filter="invert(93%) hue-rotate(180deg)">
  <!-- svg-source:excalidraw -->
  
  <defs>
    <style class="style-fonts">
      @font-face {
        font-family: "Virgil";
        src: url("https://excalidraw.com/Virgil.woff2");
      }
      @font-face {
        font-family: "Cascadia";
        src: url("https://excalidraw.com/Cascadia.woff2");
      }
    </style>
    
  </defs>
  <rect x="0" y="0" width="748" height="545.5" fill="transparent"/><g stroke-linecap="round" transform="translate(10 112.5) rotate(0 209 211.5)"><path d="M248.32 2.91 C266.07 2.88, 285.14 12.88, 301.33 21.1 C317.53 29.33, 331.99 40.11, 345.49 52.27 C358.98 64.42, 372.27 78.9, 382.3 94.02 C392.32 109.14, 399.9 125.87, 405.62 142.99 C411.34 160.11, 415.28 178.79, 416.64 196.74 C417.99 214.7, 416.95 232.81, 413.73 250.71 C410.52 268.62, 405.01 287.76, 397.33 304.18 C389.65 320.6, 379.63 335.48, 367.65 349.24 C355.67 363.01, 340.44 376.43, 325.42 386.79 C310.4 397.16, 294.5 405.33, 277.53 411.42 C260.55 417.51, 241.58 422.04, 223.57 423.33 C205.57 424.62, 187.08 422.76, 169.47 419.17 C151.87 415.57, 134.18 409.81, 117.95 401.77 C101.72 393.72, 85.77 382.71, 72.09 370.9 C58.42 359.08, 45.94 345.82, 35.88 330.85 C25.83 315.88, 17.54 298.61, 11.77 281.08 C6 263.54, 2.45 243.86, 1.26 225.65 C0.08 207.43, 1.25 189.51, 4.65 171.79 C8.04 154.07, 13.88 135.77, 21.65 119.34 C29.43 102.91, 39.46 86.96, 51.31 73.21 C63.16 59.46, 77.77 47.25, 92.75 36.85 C107.74 26.44, 124.18 16.9, 141.2 10.77 C158.22 4.64, 175.25 0.99, 194.88 0.08 C214.52 -0.83, 246.85 3.24, 259.03 5.31 C271.2 7.38, 268.77 8.81, 267.93 12.51 M130.24 15.44 C145.19 5.94, 166.01 3.36, 184.23 1.37 C202.45 -0.61, 221.86 1.16, 239.57 3.55 C257.28 5.93, 274.21 8.59, 290.47 15.68 C306.73 22.77, 322.79 34.63, 337.13 46.09 C351.46 57.55, 365.41 69.95, 376.49 84.44 C387.57 98.93, 396.79 116.15, 403.6 133.02 C410.41 149.89, 415.34 167.65, 417.34 185.65 C419.35 203.65, 418.35 223.02, 415.64 241.02 C412.92 259.01, 408.18 276.93, 401.07 293.63 C393.97 310.33, 383.84 326.55, 373.01 341.24 C362.17 355.92, 350.55 370.52, 336.06 381.75 C321.57 392.99, 303.16 401.8, 286.06 408.64 C268.96 415.48, 251.1 420.59, 233.45 422.77 C215.8 424.95, 197.75 424.6, 180.15 421.72 C162.56 418.84, 144.74 412.82, 127.88 405.49 C111.02 398.15, 93.33 388.75, 78.98 377.7 C64.62 366.66, 52.19 353.97, 41.75 339.19 C31.31 324.42, 23.27 306.23, 16.32 289.04 C9.37 271.85, 2.18 253.94, 0.03 236.07 C-2.12 218.19, 0.64 199.66, 3.42 181.78 C6.19 163.91, 9.95 145.47, 16.68 128.81 C23.41 112.15, 32.55 95.97, 43.8 81.81 C55.06 67.66, 69.68 55.1, 84.19 43.89 C98.71 32.69, 122.58 18.73, 130.87 14.56 C139.17 10.4, 132.81 15.49, 133.97 18.91" stroke="#1e1e1e" stroke-width="2" fill="none"/></g><g stroke-linecap="round" transform="translate(403 61.5) rotate(0 130 136.5)"><path d="M145.77 0.73 C159.23 0.5, 173.85 8.24, 186.48 14.79 C199.12 21.33, 211.63 29.7, 221.6 39.99 C231.57 50.27, 239.95 63.04, 246.32 76.5 C252.69 89.95, 257.99 105.88, 259.81 120.72 C261.62 135.56, 260.09 151.05, 257.2 165.52 C254.31 179.99, 249.65 194.88, 242.47 207.52 C235.3 220.17, 224.92 232.13, 214.14 241.4 C203.36 250.67, 190.9 258, 177.78 263.16 C164.66 268.31, 149.75 271.69, 135.43 272.32 C121.12 272.96, 105.47 271.08, 91.88 266.97 C78.29 262.86, 65.13 256.14, 53.89 247.65 C42.65 239.16, 32.42 228.23, 24.42 216.05 C16.42 203.88, 9.87 188.81, 5.88 174.61 C1.9 160.41, -0.14 145.5, 0.54 130.85 C1.21 116.21, 4.75 100.41, 9.94 86.76 C15.13 73.12, 22.81 60.43, 31.66 48.99 C40.52 37.56, 50.96 25.79, 63.06 18.15 C75.17 10.51, 89.96 6, 104.28 3.14 C118.6 0.27, 141.33 0.8, 148.98 0.93 C156.64 1.07, 150.59 1.54, 150.22 3.92 M164.05 3.88 C177.67 5.6, 192.14 16.64, 204.15 25.5 C216.16 34.35, 227.76 45.28, 236.11 57 C244.47 68.72, 250.42 81.71, 254.27 95.82 C258.11 109.93, 259.38 126.87, 259.2 141.64 C259.01 156.41, 257.89 170.69, 253.14 184.44 C248.4 198.18, 239.91 212.76, 230.74 224.11 C221.56 235.46, 210.35 244.86, 198.09 252.53 C185.84 260.2, 170.92 267.09, 157.2 270.13 C143.47 273.17, 129.56 272.29, 115.74 270.78 C101.92 269.28, 87.08 267.39, 74.29 261.1 C61.49 254.8, 48.9 243.58, 38.97 233.02 C29.03 222.47, 21.19 210.77, 14.66 197.79 C8.12 184.82, 1.6 169.95, -0.26 155.18 C-2.12 140.4, 0.6 123.85, 3.49 109.16 C6.38 94.46, 10.44 79.56, 17.07 67 C23.69 54.44, 32.8 43.54, 43.24 33.79 C53.68 24.05, 66.56 14.2, 79.71 8.54 C92.85 2.88, 107.78 0.56, 122.09 -0.18 C136.4 -0.91, 158.32 2.73, 165.57 4.12 C172.81 5.51, 166.4 5.67, 165.58 8.17" stroke="#1e1e1e" stroke-width="2" fill="none"/></g><g stroke-linecap="round" transform="translate(478 10) rotate(0 130 136.5)"><path d="M141.08 1.22 C154.33 0.15, 169.25 5.53, 182.31 11.52 C195.37 17.5, 208.98 26.88, 219.43 37.14 C229.87 47.4, 238.35 60.14, 244.98 73.07 C251.61 86.01, 257.02 100.22, 259.2 114.75 C261.37 129.28, 260.55 145.79, 258 160.27 C255.46 174.76, 250.63 188.85, 243.92 201.69 C237.2 214.52, 228.2 227.08, 217.74 237.28 C207.27 247.48, 194.08 257.09, 181.11 262.89 C168.14 268.69, 154.01 271.03, 139.94 272.07 C125.87 273.12, 110.41 272.98, 96.67 269.17 C82.94 265.37, 69.19 257.64, 57.53 249.24 C45.88 240.83, 35.37 230.42, 26.74 218.75 C18.11 207.07, 10.28 193.06, 5.78 179.18 C1.27 165.29, -0.44 150.1, -0.27 135.43 C-0.11 120.75, 1.92 105.21, 6.77 91.12 C11.62 77.03, 20.06 62.47, 28.81 50.88 C37.57 39.29, 47.75 29.28, 59.31 21.58 C70.88 13.88, 82.81 8.12, 98.21 4.67 C113.6 1.23, 141.33 0.52, 151.67 0.91 C162.02 1.3, 160.5 4.52, 160.26 7.01 M169.46 5.75 C183.18 7.5, 197.17 16.4, 208.48 25.16 C219.8 33.92, 229.73 46.05, 237.33 58.31 C244.93 70.57, 250.22 84.3, 254.06 98.71 C257.91 113.12, 260.89 129.9, 260.4 144.76 C259.9 159.63, 256.38 174.34, 251.09 187.87 C245.8 201.41, 237.94 214.84, 228.67 225.99 C219.4 237.13, 207.57 247.07, 195.49 254.72 C183.4 262.38, 170.01 269.12, 156.14 271.9 C142.27 274.68, 126.5 273.48, 112.25 271.43 C98.01 269.38, 83.02 266.39, 70.67 259.59 C58.31 252.79, 47.99 241.45, 38.12 230.63 C28.25 219.81, 17.91 207.62, 11.44 194.68 C4.97 181.74, 0.61 167.5, -0.7 153 C-2 138.5, 0.08 122.56, 3.63 107.66 C7.18 92.75, 13.47 76.17, 20.6 63.57 C27.73 50.97, 35.75 41.17, 46.4 32.08 C57.05 22.99, 70.95 14.47, 84.51 9.02 C98.07 3.58, 113.7 0.12, 127.78 -0.59 C141.86 -1.29, 162.27 3.11, 168.98 4.77 C175.69 6.44, 168.78 6.87, 168.05 9.4" stroke="#1e1e1e" stroke-width="2" fill="none"/></g></svg>