<svg version="1.1" xmlns="http://www.w3.org/2000/svg" viewBox="0 0 884 574" width="884" height="574" filter="invert(93%) hue-rotate(180deg)">
  <!-- svg-source:excalidraw -->
  
  <defs>
    <style class="style-fonts">
      @font-face {
        font-family: "Virgil";
        src: url("https://excalidraw.com/Virgil.woff2");
      }
      @font-face {
        font-family: "Cascadia";
        src: url("https://excalidraw.com/Cascadia.woff2");
      }
    </style>
    
  </defs>
  <rect x="0" y="0" width="884" height="574" fill="transparent"/><g stroke-linecap="round" transform="translate(10 28) rotate(0 276 268)"><path d="M369.85 16.39 C390.18 18.7, 408.03 31.53, 425.82 42.66 C443.61 53.79, 462 68.28, 476.6 83.17 C491.21 98.07, 502.9 114.39, 513.47 132.03 C524.03 149.67, 533.57 169.28, 540 189.02 C546.43 208.76, 550.62 229.78, 552.03 250.48 C553.44 271.17, 552.29 292.72, 548.48 313.17 C544.66 333.63, 537.64 354.43, 529.15 373.23 C520.66 392.03, 509.98 409.36, 497.54 425.97 C485.1 442.58, 470.61 459.31, 454.54 472.89 C438.46 486.46, 419.87 498.26, 401.12 507.43 C382.36 516.61, 362.48 523.28, 342.01 527.94 C321.54 532.59, 299.79 535.34, 278.3 535.39 C256.81 535.44, 233.8 532.78, 213.07 528.24 C192.35 523.7, 172.68 517.07, 153.97 508.13 C135.26 499.19, 117.11 487.83, 100.82 474.59 C84.52 461.35, 69.15 445.18, 56.2 428.71 C43.24 412.23, 31.87 394.41, 23.11 375.74 C14.34 357.07, 7.37 336.83, 3.6 316.69 C-0.18 296.55, -0.93 275.43, 0.46 254.91 C1.85 234.39, 6.1 213.35, 11.95 193.59 C17.8 173.83, 25.08 154.49, 35.56 136.34 C46.04 118.2, 60.22 99.98, 74.83 84.72 C89.44 69.46, 105.53 56.13, 123.22 44.79 C140.91 33.44, 160.99 23.93, 180.96 16.65 C200.93 9.37, 222.17 3.68, 243.02 1.12 C263.86 -1.44, 283.44 -1.69, 306.02 1.3 C328.59 4.28, 364.93 14.42, 378.44 19.05 C391.94 23.68, 388.57 24.82, 387.04 29.08 M274.59 -0.48 C294.48 -4.75, 317.49 1.48, 338.49 6.25 C359.48 11.03, 381.59 18.61, 400.57 28.16 C419.55 37.7, 436.29 50.21, 452.35 63.54 C468.42 76.88, 484.38 91.92, 496.98 108.16 C509.57 124.41, 519.38 141.93, 527.93 160.99 C536.48 180.04, 544.21 202.24, 548.28 222.49 C552.34 242.74, 553.4 261.99, 552.3 282.49 C551.2 302.98, 547.72 325.81, 541.66 345.48 C535.61 365.15, 526.78 382.67, 515.97 400.51 C505.17 418.35, 491.61 437.25, 476.84 452.52 C462.08 467.8, 445.16 480.72, 427.39 492.16 C409.62 503.6, 389.8 514.17, 370.2 521.14 C350.6 528.11, 330.74 531.78, 309.78 533.98 C288.82 536.18, 265.94 536.72, 244.43 534.32 C222.92 531.91, 200.57 526.77, 180.7 519.57 C160.83 512.37, 142.81 502.55, 125.22 491.12 C107.63 479.68, 89.84 465.69, 75.14 450.97 C60.44 436.25, 47.67 420.37, 37.03 402.8 C26.39 385.23, 17.61 365.44, 11.3 345.55 C5 325.65, 0.2 303.95, -0.8 283.43 C-1.81 262.91, 1.22 242.62, 5.26 222.43 C9.31 202.25, 15.22 181.37, 23.44 162.32 C31.66 143.27, 42.05 124.83, 54.6 108.14 C67.15 91.44, 82.57 75.28, 98.73 62.17 C114.89 49.07, 132.71 38.69, 151.55 29.51 C170.4 20.32, 191.24 11.78, 211.78 7.04 C232.31 2.3, 264.04 1.31, 274.79 1.07 C285.54 0.83, 276.35 1.22, 276.3 5.6" stroke="#1e1e1e" stroke-width="2" fill="none"/></g><g stroke-linecap="round" transform="translate(322 10) rotate(0 276 268)"><path d="M232.16 4.21 C251.29 -3.05, 274.05 0.32, 295.1 1.67 C316.15 3.03, 338 6.44, 358.46 12.35 C378.91 18.26, 399.67 26.67, 417.82 37.13 C435.97 47.59, 452.38 60.72, 467.36 75.09 C482.33 89.47, 496.1 105.88, 507.65 123.38 C519.2 140.87, 529.34 160.61, 536.63 180.07 C543.91 199.53, 549.32 219.75, 551.36 240.12 C553.4 260.5, 551.78 281.8, 548.87 302.31 C545.97 322.82, 541.45 343.89, 533.91 363.17 C526.37 382.44, 515.4 401.04, 503.63 417.96 C491.87 434.87, 478.76 450.51, 463.32 464.65 C447.88 478.8, 429.7 492.67, 410.97 502.84 C392.24 513, 371.35 520.01, 350.93 525.65 C330.5 531.29, 309.39 535.65, 288.43 536.67 C267.47 537.69, 245.94 535.89, 225.17 531.76 C204.39 527.63, 183.41 520.36, 163.8 511.88 C144.2 503.4, 124.4 493.15, 107.52 480.86 C90.65 468.57, 75.86 454.2, 62.57 438.12 C49.29 422.03, 37.02 403.01, 27.81 384.35 C18.59 365.7, 11.94 346.29, 7.28 326.21 C2.62 306.13, -0.24 284.63, -0.14 263.89 C-0.03 243.15, 2.73 221.75, 7.91 201.77 C13.09 181.79, 21.19 162.11, 30.95 144.01 C40.7 125.9, 52.66 108.53, 66.41 93.15 C80.17 77.76, 96.24 63.76, 113.46 51.71 C130.69 39.67, 148.73 29.01, 169.76 20.86 C190.8 12.72, 226.5 5.05, 239.67 2.84 C252.84 0.63, 248.07 3.21, 248.77 7.62 M378.66 18.15 C399.19 21.54, 419.2 36.52, 436.71 48.41 C454.23 60.3, 469.83 73.92, 483.76 89.47 C497.69 105.03, 510.4 123.14, 520.31 141.74 C530.23 160.35, 537.79 181.12, 543.25 201.1 C548.7 221.08, 552.83 241.33, 553.05 261.6 C553.27 281.88, 549.05 302.49, 544.58 322.77 C540.12 343.05, 534.91 364.37, 526.27 383.3 C517.63 402.22, 505.96 420.51, 492.74 436.34 C479.52 452.17, 463.95 466.02, 446.96 478.27 C429.97 490.53, 409.95 501.25, 390.81 509.89 C371.66 518.53, 352.88 525.57, 332.09 530.13 C311.3 534.69, 287.5 538.03, 266.07 537.25 C244.63 536.47, 223.99 531, 203.47 525.46 C182.95 519.92, 161.35 513.79, 142.95 504 C124.55 494.21, 108.93 480.71, 93.09 466.71 C77.24 452.72, 60.43 437.07, 47.88 420.03 C35.33 403, 25.39 383.73, 17.78 364.49 C10.17 345.25, 5.23 324.97, 2.22 304.62 C-0.79 284.27, -2.16 262.47, -0.28 242.39 C1.6 222.31, 6.68 203.72, 13.5 184.14 C20.31 164.56, 29.41 142.87, 40.63 124.91 C51.84 106.96, 65.64 90.66, 80.77 76.41 C95.91 62.16, 113.1 49.86, 131.42 39.39 C149.74 28.92, 170.49 20.12, 190.69 13.59 C210.89 7.06, 231.72 1.99, 252.61 0.22 C273.5 -1.56, 294.8 -0.1, 316.01 2.94 C337.21 5.97, 369.89 14.8, 379.83 18.41 C389.78 22.02, 377.72 20.53, 375.68 24.61" stroke="#1e1e1e" stroke-width="2" fill="none"/></g></svg>