<svg version="1.1" xmlns="http://www.w3.org/2000/svg" viewBox="0 0 1265.967245970643 973" width="1265.967245970643" height="973" filter="invert(93%) hue-rotate(180deg)">
  <!-- svg-source:excalidraw -->
  
  <defs>
    <style class="style-fonts">
      @font-face {
        font-family: "Virgil";
        src: url("https://excalidraw.com/Virgil.woff2");
      }
      @font-face {
        font-family: "Cascadia";
        src: url("https://excalidraw.com/Cascadia.woff2");
      }
    </style>
    
  </defs>
  <rect x="0" y="0" width="1265.967245970643" height="973" fill="transparent"/><g stroke-linecap="round"><g transform="translate(9.967245970643035 476) rotate(0 597 -7)"><path d="M0.17 0.02 C199.19 -2.27, 995.11 -11.56, 1194.06 -13.92 M0.03 -0.13 C199.04 -2.46, 995 -11.89, 1193.95 -14.21" stroke="#1e1e1e" stroke-width="2" fill="none"/></g></g><mask/><g stroke-linecap="round"><g transform="translate(347.96724597064303 914) rotate(0 238 -445.5)"><path d="M1.01 -1.02 C80.02 -149.79, 395.69 -743.45, 474.92 -891.85 M0.08 1.06 C79.37 -147.65, 397.77 -742.19, 477.07 -890.76" stroke="#1e1e1e" stroke-width="2" fill="none"/></g></g><mask/><g stroke-linecap="round"><g transform="translate(342.96724597064303 36) rotate(0 249.5 437.5)"><path d="M0.02 -1.05 C83.31 144.55, 416.3 727.71, 499.43 873.81 M-1.43 1.01 C81.78 146.7, 415.49 729.32, 498.7 874.72" stroke="#1e1e1e" stroke-width="2" fill="none"/></g></g><mask/><g stroke-linecap="round"><g transform="translate(597.967245970643 896) rotate(0 -8.5 -436)"><path d="M0.09 -0.12 C-2.74 -145.44, -14.25 -726.5, -17.12 -871.84 M-0.09 0.24 C-2.85 -145.14, -13.97 -726.72, -16.74 -872.1" stroke="#1e1e1e" stroke-width="2" fill="none"/></g></g><mask/><g transform="translate(522.967245970643 486) rotate(0 -22 21)" stroke="none"><path fill="#1e1e1e" d="M -0.97,2.43 Q -0.97,2.43 -2.85,2.98 -4.72,3.52 -6.80,4.41 -8.88,5.31 -11.81,7.08 -14.74,8.86 -16.68,9.97 -18.62,11.08 -16.21,12.75 -13.81,14.42 -12.31,16.06 -10.81,17.71 -9.73,19.84 -8.64,21.97 -9.14,25.70 -9.64,29.43 -12.05,32.97 -14.46,36.50 -17.31,39.39 -20.17,42.29 -24.18,44.65 -28.19,47.02 -31.75,47.89 -35.30,48.75 -38.77,48.06 -42.25,47.36 -42.67,47.37 -43.10,47.37 -43.50,47.23 -43.90,47.10 -44.24,46.84 -44.58,46.59 -44.82,46.24 -45.06,45.89 -45.18,45.48 -45.29,45.07 -45.27,44.65 -45.25,44.22 -45.10,43.83 -44.94,43.43 -44.67,43.11 -44.39,42.78 -44.03,42.56 -43.67,42.34 -43.25,42.24 -42.84,42.15 -42.42,42.19 -41.99,42.24 -41.61,42.42 -41.22,42.59 -40.91,42.88 -40.60,43.17 -40.40,43.55 -40.20,43.92 -40.13,44.34 -40.06,44.76 -40.12,45.18 -40.19,45.60 -40.39,45.98 -40.59,46.35 -40.89,46.65 -41.20,46.94 -41.58,47.12 -41.97,47.30 -42.39,47.35 -42.81,47.40 -43.23,47.31 -43.64,47.22 -44.01,47.00 -44.37,46.78 -44.65,46.46 -44.93,46.14 -45.09,45.74 -45.25,45.35 -45.27,44.93 -45.30,44.50 -45.19,44.09 -45.07,43.68 -44.84,43.33 -44.60,42.98 -44.26,42.72 -43.93,42.46 -43.52,42.32 -43.12,42.18 -43.12,42.18 -43.12,42.18 -40.65,40.48 -38.17,38.78 -35.97,37.98 -33.76,37.19 -30.98,35.64 -28.20,34.10 -25.91,31.85 -23.62,29.60 -21.98,25.80 -20.34,22.00 -22.02,20.54 -23.69,19.08 -25.48,16.61 -27.27,14.14 -27.59,11.25 -27.90,8.37 -26.45,5.63 -25.00,2.90 -22.64,1.30 -20.28,-0.29 -17.14,-2.19 -13.99,-4.09 -11.40,-5.29 -8.80,-6.49 -4.91,-6.16 -1.02,-5.82 -0.02,-4.13 0.97,-2.43 1.25,-2.28 1.53,-2.13 1.76,-1.92 1.99,-1.70 2.17,-1.44 2.34,-1.17 2.45,-0.88 2.56,-0.58 2.59,-0.26 2.62,0.04 2.58,0.36 2.53,0.67 2.42,0.96 2.30,1.26 2.11,1.51 1.93,1.77 1.69,1.98 1.45,2.18 1.16,2.33 0.88,2.47 0.57,2.54 0.26,2.61 -0.04,2.60 -0.36,2.60 -0.66,2.52 -0.97,2.43 -0.97,2.43 L -0.97,2.43 Z"/></g><g transform="translate(1220.967245970643 496) rotate(0 -5.5 23.5)" stroke="none"><path fill="#1e1e1e" d="M 0,2.62 Q 0,2.62 -3.70,3.83 -7.40,5.03 -11.10,6.35 -14.80,7.67 -18.60,10.19 -22.41,12.71 -25.31,18.52 -28.22,24.33 -28.80,29.01 -29.38,33.68 -27.79,36.59 -26.21,39.49 -23.63,40.72 -21.05,41.94 -16.34,40.62 -11.63,39.30 -8.39,37.31 -5.14,35.32 -3.30,32.81 -1.46,30.31 -0.85,28.14 -0.24,25.97 -0.80,23.72 -1.35,21.46 -1.99,19.39 -2.63,17.31 -3.42,16.84 -4.21,16.36 -4.53,15.87 -4.84,15.37 -5.03,14.81 -5.22,14.25 -5.27,13.67 -5.32,13.08 -5.23,12.50 -5.14,11.91 -4.91,11.37 -4.69,10.83 -4.33,10.35 -3.98,9.88 -3.53,9.50 -3.07,9.13 -2.54,8.87 -2.01,8.62 -1.43,8.49 -0.85,8.37 -0.26,8.39 0.31,8.42 0.88,8.58 1.45,8.74 1.96,9.03 2.47,9.32 2.90,9.73 3.33,10.13 3.54,12.50 3.74,14.87 6.91,13.91 10.08,12.95 14.85,13.11 19.61,13.27 21.70,13.41 23.79,13.54 24.21,13.59 24.63,13.63 25.02,13.81 25.40,13.99 25.71,14.28 26.02,14.57 26.22,14.95 26.42,15.32 26.49,15.74 26.56,16.16 26.49,16.58 26.42,17.00 26.22,17.38 26.02,17.75 25.71,18.04 25.41,18.34 25.02,18.51 24.63,18.69 24.21,18.74 23.79,18.79 23.37,18.69 22.96,18.60 22.60,18.38 22.23,18.17 21.96,17.84 21.68,17.52 21.52,17.12 21.37,16.73 21.34,16.30 21.32,15.88 21.43,15.47 21.55,15.06 21.78,14.71 22.02,14.36 22.36,14.10 22.70,13.84 23.10,13.71 23.50,13.57 23.93,13.57 24.35,13.57 24.76,13.71 25.16,13.84 25.50,14.10 25.84,14.36 26.08,14.71 26.31,15.06 26.43,15.47 26.54,15.88 26.52,16.30 26.50,16.73 26.34,17.12 26.18,17.52 25.91,17.84 25.63,18.16 25.27,18.38 24.90,18.60 24.49,18.69 24.07,18.79 24.07,18.79 24.07,18.79 22.01,19.15 19.95,19.51 14.96,20.20 9.97,20.90 5.81,20.94 1.65,20.99 -1.27,18.68 -4.21,16.36 -4.53,15.87 -4.84,15.37 -5.03,14.81 -5.22,14.25 -5.27,13.67 -5.32,13.08 -5.23,12.50 -5.14,11.91 -4.91,11.37 -4.69,10.83 -4.33,10.35 -3.98,9.88 -3.53,9.50 -3.07,9.13 -2.54,8.87 -2.01,8.62 -1.43,8.50 -0.85,8.37 -0.27,8.39 0.31,8.42 0.88,8.58 1.45,8.74 1.96,9.03 2.47,9.32 2.90,9.73 3.33,10.13 3.64,10.22 3.95,10.31 5.39,12.25 6.83,14.20 7.69,17.21 8.54,20.22 8.80,24.52 9.05,28.83 7.50,32.61 5.95,36.40 2.72,39.80 -0.51,43.21 -5.15,45.63 -9.79,48.06 -16.88,49.01 -23.97,49.97 -28.85,47.09 -33.73,44.21 -36.16,38.80 -38.60,33.39 -37.82,26.62 -37.03,19.85 -32.68,12.26 -28.32,4.67 -23.16,1.37 -17.99,-1.92 -12.77,-3.47 -7.54,-5.03 -3.77,-3.83 0,-2.62 0.31,-2.58 0.62,-2.55 0.92,-2.43 1.22,-2.32 1.48,-2.14 1.74,-1.96 1.95,-1.72 2.16,-1.49 2.30,-1.21 2.45,-0.93 2.53,-0.62 2.60,-0.31 2.60,0.00 2.60,0.31 2.53,0.62 2.45,0.93 2.30,1.21 2.16,1.49 1.95,1.72 1.74,1.96 1.48,2.14 1.22,2.32 0.92,2.43 0.62,2.55 0.31,2.58 -0.00,2.62 -0.00,2.62 L 0,2.62 Z"/></g><g transform="translate(1232.967245970643 546) rotate(0 5 22)" stroke="none"><path fill="#1e1e1e" d="M -0.56,-2.56 Q -0.56,-2.56 4.51,-4.12 9.59,-5.68 12.43,-6.25 15.27,-6.81 17.28,-7.19 19.29,-7.57 19.77,-7.60 20.24,-7.62 20.71,-7.54 21.18,-7.45 21.61,-7.25 22.04,-7.05 22.41,-6.75 22.79,-6.46 23.08,-6.08 23.37,-5.71 23.56,-5.27 23.75,-4.84 23.83,-4.37 23.92,-3.90 23.89,-3.42 23.85,-2.95 23.71,-2.50 23.56,-2.04 23.31,-1.64 23.07,-1.23 22.73,-0.90 22.39,-0.57 21.98,-0.32 21.57,-0.08 21.12,0.05 20.66,0.19 17.38,2.84 14.11,5.49 12.25,9.57 10.40,13.66 8.50,18.10 6.60,22.54 3.70,27.44 0.79,32.33 -1.89,36.37 -4.59,40.41 -7.18,43.89 -9.76,47.37 -10.01,47.71 -10.25,48.06 -10.60,48.31 -10.94,48.56 -11.35,48.68 -11.75,48.81 -12.18,48.80 -12.60,48.79 -13.00,48.64 -13.40,48.50 -13.73,48.23 -14.07,47.97 -14.30,47.61 -14.53,47.25 -14.63,46.84 -14.73,46.43 -14.70,46.01 -14.67,45.58 -14.50,45.19 -14.33,44.80 -14.05,44.48 -13.77,44.17 -13.40,43.96 -13.03,43.75 -12.61,43.66 -12.19,43.58 -11.77,43.64 -11.35,43.69 -10.97,43.88 -10.59,44.07 -10.29,44.37 -9.99,44.67 -9.80,45.05 -9.61,45.43 -9.55,45.85 -9.49,46.27 -9.57,46.69 -9.65,47.11 -9.86,47.48 -10.06,47.85 -10.38,48.13 -10.69,48.42 -11.08,48.59 -11.47,48.76 -11.90,48.79 -12.32,48.83 -12.73,48.73 -13.15,48.62 -13.51,48.40 -13.86,48.17 -14.13,47.84 -14.40,47.51 -14.55,47.11 -14.69,46.71 -14.71,46.29 -14.72,45.86 -14.60,45.45 -14.47,45.05 -14.47,45.05 -14.47,45.05 -13.07,40.42 -11.66,35.79 -9.12,31.85 -6.59,27.92 -3.94,23.52 -1.29,19.13 0.39,15.23 2.09,11.34 2.97,8.13 3.86,4.93 7.08,1.20 10.30,-2.53 12.26,-3.43 14.21,-4.34 16.75,-5.95 19.29,-7.57 19.77,-7.60 20.24,-7.62 20.71,-7.54 21.18,-7.45 21.61,-7.25 22.04,-7.05 22.41,-6.75 22.79,-6.46 23.08,-6.08 23.37,-5.71 23.56,-5.27 23.75,-4.84 23.83,-4.37 23.92,-3.90 23.89,-3.42 23.85,-2.95 23.71,-2.50 23.56,-2.04 23.32,-1.64 23.07,-1.23 22.73,-0.90 22.39,-0.57 21.98,-0.32 21.57,-0.08 21.12,0.05 20.66,0.19 18.59,0.22 16.52,0.26 13.81,0.67 11.10,1.08 5.83,1.82 0.56,2.56 0.25,2.59 -0.06,2.62 -0.37,2.58 -0.68,2.53 -0.98,2.41 -1.27,2.29 -1.53,2.11 -1.78,1.92 -1.99,1.68 -2.19,1.44 -2.33,1.15 -2.47,0.87 -2.54,0.56 -2.61,0.25 -2.60,-0.06 -2.59,-0.37 -2.51,-0.68 -2.43,-0.98 -2.28,-1.26 -2.12,-1.54 -1.91,-1.77 -1.69,-2.00 -1.43,-2.17 -1.16,-2.35 -0.86,-2.45 -0.56,-2.56 -0.56,-2.56 L -0.56,-2.56 Z"/></g><g transform="translate(631.967245970643 18) rotate(0 -7.5 9.5)" stroke="none"><path fill="#1e1e1e" d="M -2.59,-0.43 Q -2.59,-0.43 -3.09,-1.92 -3.60,-3.42 -5.85,0.34 -8.10,4.11 -11.34,6.36 -14.59,8.60 -16.86,10.41 -19.14,12.21 -18.24,15.70 -17.33,19.18 -13.70,19.43 -10.07,19.68 -7.85,18.71 -5.63,17.74 -4.39,15.29 -3.15,12.84 -1.86,9.90 -0.58,6.95 0.55,3.71 1.69,0.47 5.40,0.84 9.11,1.21 9.53,1.31 9.94,1.41 10.30,1.64 10.65,1.87 10.92,2.20 11.19,2.53 11.33,2.93 11.48,3.33 11.49,3.75 11.50,4.18 11.38,4.59 11.25,4.99 11.01,5.34 10.76,5.68 10.41,5.93 10.07,6.18 9.66,6.30 9.25,6.43 8.83,6.42 8.40,6.40 8.01,6.26 7.61,6.11 7.28,5.84 6.94,5.58 6.72,5.22 6.49,4.86 6.38,4.45 6.28,4.04 6.32,3.61 6.35,3.19 6.52,2.80 6.69,2.41 6.97,2.09 7.26,1.78 7.63,1.57 8.00,1.36 8.41,1.28 8.83,1.20 9.25,1.26 9.67,1.31 10.05,1.50 10.43,1.69 10.73,1.99 11.03,2.29 11.22,2.67 11.41,3.05 11.47,3.48 11.53,3.90 11.45,4.31 11.37,4.73 11.16,5.10 10.95,5.47 10.63,5.75 10.31,6.04 9.92,6.21 9.53,6.37 9.11,6.41 8.69,6.44 8.69,6.44 8.69,6.44 3.22,6.25 -2.24,6.05 -3.72,2.70 -5.19,-0.63 -3.59,-3.59 -1.99,-6.56 3.11,-7.93 8.23,-9.30 10.07,-5.51 11.91,-1.73 11.31,0.96 10.71,3.66 9.42,7.27 8.14,10.89 6.41,14.61 4.69,18.32 1.57,22.08 -1.55,25.84 -5.55,27.31 -9.55,28.77 -14.66,28.47 -19.77,28.17 -22.50,25.70 -25.24,23.22 -26.92,18.72 -28.60,14.21 -26.95,9.93 -25.29,5.64 -22.45,3.30 -19.61,0.96 -16.23,-1.14 -12.85,-3.24 -8.41,-5.94 -3.96,-8.64 -1.76,-8.58 0.43,-8.52 2.59,-5.99 4.75,-3.47 3.67,-1.52 2.59,0.43 2.50,0.73 2.41,1.03 2.25,1.31 2.09,1.58 1.87,1.81 1.65,2.04 1.38,2.20 1.11,2.37 0.81,2.47 0.51,2.57 0.19,2.59 -0.11,2.62 -0.42,2.57 -0.74,2.51 -1.03,2.39 -1.32,2.26 -1.57,2.07 -1.82,1.88 -2.02,1.64 -2.22,1.39 -2.36,1.10 -2.49,0.82 -2.55,0.51 -2.61,0.20 -2.60,-0.11 -2.59,-0.43 -2.59,-0.43 L -2.59,-0.43 Z"/></g><g transform="translate(621.967245970643 66) rotate(0 14.5 8.5)" stroke="none"><path fill="#1e1e1e" d="M -0.77,-2.51 Q -0.77,-2.51 2.83,-4.09 6.43,-5.67 10.34,-6.87 14.25,-8.08 17.99,-8.61 21.73,-9.14 25.49,-5.97 29.26,-2.80 28.57,-0.61 27.88,1.57 24.85,4.87 21.81,8.18 18.99,10.99 16.16,13.81 14.63,15.78 13.11,17.75 15.97,18.24 18.83,18.73 23.03,19.49 27.23,20.25 27.65,20.35 28.06,20.44 28.42,20.66 28.78,20.89 29.06,21.21 29.33,21.54 29.48,21.94 29.64,22.33 29.66,22.76 29.67,23.18 29.56,23.59 29.44,24.00 29.20,24.35 28.96,24.70 28.62,24.95 28.27,25.20 27.87,25.34 27.47,25.47 27.04,25.46 26.62,25.46 26.22,25.32 25.81,25.18 25.48,24.92 25.14,24.66 24.91,24.31 24.67,23.95 24.56,23.54 24.45,23.13 24.48,22.71 24.51,22.28 24.67,21.89 24.83,21.50 25.11,21.18 25.38,20.85 25.75,20.64 26.12,20.42 26.53,20.34 26.95,20.25 27.37,20.30 27.79,20.35 28.18,20.53 28.56,20.71 28.87,21.01 29.17,21.30 29.37,21.68 29.56,22.06 29.63,22.48 29.69,22.90 29.62,23.32 29.55,23.73 29.34,24.11 29.14,24.48 28.83,24.77 28.52,25.06 28.13,25.24 27.74,25.41 27.32,25.45 26.90,25.49 26.90,25.49 26.90,25.49 22.35,25.70 17.80,25.91 13.75,25.31 9.71,24.72 7.78,22.61 5.86,20.51 6.00,16.90 6.14,13.30 8.17,10.57 10.19,7.84 13.03,5.01 15.87,2.19 19.07,0.33 22.28,-1.51 19.26,-1.14 16.24,-0.76 12.38,0.15 8.51,1.07 4.64,1.79 0.77,2.51 0.46,2.56 0.14,2.62 -0.16,2.60 -0.48,2.58 -0.78,2.48 -1.08,2.39 -1.35,2.22 -1.62,2.06 -1.85,1.83 -2.07,1.61 -2.23,1.34 -2.39,1.06 -2.49,0.76 -2.58,0.46 -2.60,0.14 -2.62,-0.16 -2.56,-0.47 -2.50,-0.79 -2.37,-1.07 -2.24,-1.36 -2.04,-1.61 -1.85,-1.86 -1.60,-2.05 -1.35,-2.25 -1.06,-2.38 -0.77,-2.51 -0.77,-2.51 L -0.77,-2.51 Z"/></g><g stroke-linecap="round"><g transform="translate(401.96724597064303 479) rotate(0 0 -163.5)"><path d="M0.01 -0.09 C0 -54.61, -0.13 -272.65, -0.12 -327.11 M-0.16 0.17 C-0.13 -54.32, 0.12 -272.43, 0.15 -326.98" stroke="#1e1e1e" stroke-width="2" fill="none"/></g></g><mask/><g stroke-linecap="round"><g transform="translate(399.96724597064303 154) rotate(0 177 -1)"><path d="M0.03 0.03 C59.01 -0.33, 295.03 -1.77, 354.03 -2.08 M-0.14 -0.08 C58.81 -0.43, 294.92 -1.6, 353.93 -1.93" stroke="#1e1e1e" stroke-width="2" fill="none"/></g></g><mask/><g stroke-linecap="round"><g transform="translate(757.967245970643 145) rotate(0 3 166.5)"><path d="M0.14 0.01 C1.12 55.5, 5.02 277.33, 6 332.85 M0.02 -0.12 C0.97 55.39, 4.88 277.48, 5.88 332.98" stroke="#1e1e1e" stroke-width="2" fill="none"/></g></g><mask/><g transform="translate(407.96724597064303 419) rotate(0 16 27.5)" stroke="none"><path fill="#1e1e1e" d="M -0.97,2.43 Q -0.97,2.43 -2.67,2.47 -4.37,2.50 -5.52,-0.96 -6.66,-4.43 -2.60,-5.13 1.45,-5.84 4.60,-4.33 7.75,-2.82 11.26,-0.34 14.76,2.14 19.18,6.15 23.60,10.16 26.71,13.69 29.83,17.22 32.27,20.14 34.71,23.06 36.29,26.13 37.87,29.20 38.84,32.41 39.82,35.62 39.95,39.96 40.09,44.30 39.67,47.83 39.26,51.36 38.04,54.31 36.82,57.25 36.67,57.65 36.52,58.05 36.25,58.38 35.98,58.71 35.63,58.94 35.27,59.16 34.85,59.26 34.44,59.36 34.02,59.32 33.59,59.29 33.20,59.12 32.81,58.95 32.50,58.66 32.19,58.37 31.98,58.00 31.77,57.63 31.70,57.21 31.62,56.79 31.68,56.37 31.74,55.95 31.93,55.57 32.12,55.19 32.42,54.90 32.73,54.60 33.11,54.41 33.49,54.23 33.91,54.17 34.33,54.12 34.75,54.20 35.17,54.28 35.54,54.49 35.90,54.71 36.19,55.02 36.47,55.34 36.63,55.73 36.80,56.13 36.83,56.55 36.86,56.97 36.76,57.39 36.65,57.80 36.42,58.15 36.19,58.51 35.85,58.77 35.52,59.04 35.12,59.18 34.72,59.32 34.30,59.33 33.87,59.34 33.47,59.21 33.06,59.09 32.72,58.84 32.37,58.59 32.13,58.24 31.88,57.89 31.76,57.49 31.64,57.08 31.65,56.65 31.67,56.23 31.67,56.23 31.67,56.23 31.58,53.49 31.49,50.75 31.59,47.60 31.69,44.45 31.68,41.20 31.68,37.94 30.97,35.44 30.25,32.93 29.21,30.70 28.18,28.46 25.81,25.64 23.44,22.82 20.66,19.63 17.87,16.44 13.83,12.74 9.78,9.03 6.89,6.91 4.00,4.79 1.53,2.19 -0.92,-0.41 -1.14,-2.60 -1.37,-4.80 -0.19,-3.62 0.97,-2.43 1.25,-2.28 1.53,-2.13 1.76,-1.92 1.99,-1.70 2.17,-1.44 2.34,-1.17 2.45,-0.88 2.56,-0.58 2.59,-0.26 2.62,0.04 2.58,0.36 2.53,0.67 2.42,0.96 2.30,1.26 2.11,1.51 1.93,1.77 1.69,1.98 1.45,2.18 1.16,2.33 0.88,2.47 0.57,2.54 0.26,2.61 -0.04,2.60 -0.36,2.60 -0.66,2.52 -0.97,2.43 -0.97,2.43 L -0.97,2.43 Z"/></g><g transform="translate(413.96724597064303 450) rotate(0 0.5 -1)" stroke="none"><path fill="#1e1e1e" d="M 2.50,-0.78 Q 2.50,-0.78 2.54,-0.15 2.58,0.47 2.32,1.04 2.06,1.61 1.57,2.00 1.07,2.39 0.45,2.50 -0.15,2.62 -0.75,2.43 -1.35,2.24 -1.80,1.80 -2.24,1.35 -2.43,0.75 -2.62,0.15 -2.50,-0.46 -2.39,-1.07 -2.00,-1.57 -1.61,-2.06 -1.04,-2.32 -0.47,-2.58 0.15,-2.54 0.78,-2.50 1.31,-2.18 1.85,-1.85 2.18,-1.31 L 2.50,-0.78 Z"/></g><g transform="translate(732.967245970643 466) rotate(0 16 -17)" stroke="none"><path fill="#1e1e1e" d="M -1.85,1.85 Q -1.85,1.85 -3.53,1.23 -5.20,0.60 -7.62,-1.54 -10.05,-3.68 -10.79,-7.56 -11.54,-11.45 -10.15,-14.75 -8.76,-18.06 -6.84,-20.68 -4.92,-23.30 -1.76,-25.77 1.40,-28.24 5.23,-30.13 9.05,-32.02 14.29,-33.67 19.52,-35.32 23.62,-35.95 27.71,-36.58 30.94,-36.69 34.17,-36.80 36.48,-36.67 38.79,-36.54 39.22,-36.50 39.64,-36.46 40.03,-36.29 40.42,-36.13 40.74,-35.84 41.05,-35.56 41.26,-35.18 41.47,-34.81 41.54,-34.40 41.62,-33.98 41.56,-33.56 41.51,-33.14 41.32,-32.76 41.13,-32.38 40.82,-32.08 40.52,-31.78 40.14,-31.59 39.76,-31.40 39.34,-31.35 38.92,-31.29 38.50,-31.37 38.08,-31.46 37.71,-31.67 37.34,-31.88 37.06,-32.19 36.78,-32.51 36.61,-32.90 36.45,-33.29 36.41,-33.72 36.38,-34.14 36.48,-34.55 36.59,-34.96 36.82,-35.32 37.05,-35.68 37.38,-35.94 37.71,-36.21 38.11,-36.35 38.51,-36.50 38.94,-36.51 39.36,-36.52 39.77,-36.39 40.17,-36.27 40.52,-36.02 40.86,-35.77 41.11,-35.42 41.36,-35.08 41.48,-34.67 41.60,-34.26 41.59,-33.84 41.58,-33.41 41.43,-33.01 41.28,-32.62 41.01,-32.29 40.74,-31.96 40.39,-31.73 40.03,-31.50 39.61,-31.40 39.20,-31.30 39.20,-31.30 39.20,-31.30 36.99,-30.81 34.78,-30.33 31.89,-29.86 29.00,-29.39 25.46,-28.65 21.93,-27.91 17.33,-26.34 12.72,-24.78 9.64,-23.15 6.56,-21.53 4.29,-19.79 2.02,-18.06 0.63,-16.19 -0.75,-14.32 -1.93,-11.47 -3.12,-8.63 -1.25,-6.91 0.60,-5.20 1.23,-3.53 1.85,-1.85 2.05,-1.60 2.24,-1.35 2.37,-1.07 2.50,-0.78 2.56,-0.46 2.62,-0.15 2.60,0.15 2.58,0.47 2.48,0.77 2.39,1.07 2.23,1.34 2.06,1.61 1.84,1.84 1.61,2.06 1.34,2.23 1.07,2.39 0.77,2.48 0.47,2.58 0.15,2.60 -0.15,2.62 -0.47,2.56 -0.78,2.50 -1.07,2.37 -1.35,2.24 -1.60,2.05 -1.85,1.85 -1.85,1.85 L -1.85,1.85 Z"/></g><g transform="translate(758.967245970643 452) rotate(0 -0.5 0)" stroke="none"><path fill="#1e1e1e" d="M 2.50,-0.78 Q 2.50,-0.78 2.54,-0.15 2.58,0.47 2.32,1.04 2.06,1.61 1.57,2.00 1.07,2.39 0.45,2.50 -0.15,2.62 -0.75,2.43 -1.35,2.24 -1.80,1.80 -2.24,1.35 -2.43,0.75 -2.62,0.15 -2.50,-0.46 -2.39,-1.07 -2.00,-1.57 -1.61,-2.06 -1.04,-2.32 -0.47,-2.58 0.15,-2.54 0.78,-2.50 1.31,-2.18 1.85,-1.85 2.18,-1.31 L 2.50,-0.78 Z"/></g><g transform="translate(717.967245970643 158) rotate(0 18.5 26)" stroke="none"><path fill="#1e1e1e" d="M 2.46,0.89 Q 2.46,0.89 2.08,4.28 1.70,7.66 1.90,9.98 2.10,12.30 2.91,14.80 3.72,17.29 5.37,20.18 7.02,23.06 9.31,25.89 11.61,28.73 14.50,31.61 17.39,34.50 21.46,37.42 25.53,40.35 28.88,42.24 32.23,44.14 36.22,46.44 40.22,48.75 40.57,48.99 40.92,49.22 41.18,49.56 41.44,49.90 41.58,50.30 41.71,50.70 41.72,51.13 41.72,51.55 41.58,51.96 41.45,52.36 41.19,52.70 40.94,53.04 40.59,53.28 40.23,53.52 39.83,53.63 39.42,53.75 38.99,53.73 38.57,53.70 38.17,53.55 37.78,53.39 37.45,53.12 37.13,52.84 36.91,52.48 36.69,52.12 36.59,51.70 36.50,51.29 36.55,50.87 36.59,50.44 36.77,50.06 36.95,49.67 37.24,49.36 37.53,49.05 37.90,48.85 38.28,48.65 38.70,48.58 39.12,48.51 39.54,48.58 39.95,48.65 40.33,48.84 40.71,49.04 41.00,49.35 41.29,49.66 41.47,50.04 41.65,50.43 41.70,50.85 41.75,51.27 41.66,51.69 41.57,52.10 41.35,52.47 41.13,52.83 40.81,53.11 40.49,53.38 40.09,53.54 39.70,53.70 39.27,53.72 38.85,53.75 38.44,53.64 38.03,53.52 38.03,53.52 38.03,53.52 33.54,51.94 29.04,50.35 25.14,48.53 21.24,46.70 16.38,43.58 11.51,40.46 8.25,37.24 5.00,34.02 2.30,30.60 -0.40,27.17 -2.39,23.46 -4.38,19.74 -5.36,16.18 -6.35,12.61 -6.33,8.80 -6.30,4.98 -4.38,2.04 -2.46,-0.89 -2.32,-1.17 -2.18,-1.46 -1.97,-1.70 -1.76,-1.94 -1.51,-2.12 -1.25,-2.30 -0.95,-2.42 -0.66,-2.54 -0.34,-2.58 -0.03,-2.62 0.27,-2.59 0.59,-2.55 0.89,-2.45 1.18,-2.34 1.45,-2.16 1.71,-1.98 1.92,-1.75 2.14,-1.52 2.29,-1.24 2.44,-0.96 2.52,-0.65 2.60,-0.35 2.60,-0.03 2.61,0.28 2.53,0.58 2.46,0.89 2.46,0.89 L 2.46,0.89 Z"/></g><g transform="translate(737.967245970643 175) rotate(0 0.5 -0.5)" stroke="none"><path fill="#1e1e1e" d="M 2.50,-0.78 Q 2.50,-0.78 2.54,-0.15 2.58,0.47 2.32,1.04 2.06,1.61 1.57,2.00 1.07,2.39 0.45,2.50 -0.15,2.62 -0.75,2.43 -1.35,2.24 -1.80,1.80 -2.24,1.35 -2.43,0.75 -2.62,0.15 -2.50,-0.46 -2.39,-1.07 -2.00,-1.57 -1.61,-2.06 -1.04,-2.32 -0.47,-2.58 0.15,-2.54 0.78,-2.50 1.31,-2.18 1.85,-1.85 2.18,-1.31 L 2.50,-0.78 Z"/></g><g transform="translate(390.96724597064303 504) rotate(0 -17.5 27)" stroke="none"><path fill="#1e1e1e" d="M 2.06,1.62 Q 2.06,1.62 -0.24,6.31 -2.54,11.01 -5.90,15.30 -9.25,19.60 -12.57,24.70 -15.89,29.81 -20.30,36.08 -24.71,42.34 -26.96,45.98 -29.22,49.61 -30.31,51.16 -31.39,52.72 -31.65,53.06 -31.90,53.40 -32.25,53.64 -32.59,53.89 -33.00,54.01 -33.41,54.13 -33.83,54.11 -34.26,54.10 -34.65,53.94 -35.05,53.79 -35.38,53.52 -35.71,53.25 -35.93,52.89 -36.16,52.53 -36.26,52.12 -36.35,51.71 -36.31,51.28 -36.27,50.86 -36.10,50.47 -35.93,50.08 -35.64,49.77 -35.36,49.46 -34.98,49.25 -34.61,49.05 -34.19,48.97 -33.77,48.90 -33.35,48.96 -32.93,49.02 -32.55,49.21 -32.18,49.41 -31.88,49.71 -31.58,50.01 -31.40,50.40 -31.21,50.78 -31.16,51.20 -31.11,51.62 -31.19,52.04 -31.28,52.46 -31.49,52.82 -31.71,53.19 -32.02,53.47 -32.34,53.75 -32.74,53.92 -33.13,54.08 -33.55,54.11 -33.98,54.14 -34.39,54.03 -34.80,53.92 -35.15,53.69 -35.51,53.46 -35.77,53.12 -36.03,52.79 -36.18,52.39 -36.32,51.99 -36.32,51.56 -36.33,51.14 -36.20,50.73 -36.07,50.33 -36.07,50.33 -36.07,50.33 -35.45,48.54 -34.83,46.74 -33.07,42.51 -31.31,38.27 -27.62,31.42 -23.93,24.58 -20.37,19.13 -16.82,13.69 -13.46,9.38 -10.10,5.08 -6.08,1.73 -2.06,-1.62 -1.84,-1.84 -1.61,-2.06 -1.34,-2.23 -1.07,-2.39 -0.77,-2.49 -0.46,-2.58 -0.15,-2.60 0.16,-2.62 0.47,-2.56 0.78,-2.50 1.07,-2.37 1.36,-2.24 1.61,-2.05 1.86,-1.85 2.05,-1.60 2.24,-1.35 2.37,-1.06 2.50,-0.77 2.56,-0.46 2.62,-0.15 2.60,0.16 2.58,0.47 2.48,0.77 2.39,1.08 2.22,1.35 2.06,1.62 2.06,1.62 L 2.06,1.62 Z"/></g><g transform="translate(385.96724597064303 513) rotate(0 4 24.5)" stroke="none"><path fill="#1e1e1e" d="M 2.40,-1.05 Q 2.40,-1.05 4.72,3.41 7.03,7.88 8.24,11.42 9.45,14.96 9.75,20.01 10.04,25.06 9.20,30.76 8.35,36.47 6.87,40.39 5.38,44.31 4.81,45.88 4.25,47.45 4.05,47.83 3.86,48.20 3.56,48.50 3.25,48.80 2.87,48.98 2.49,49.17 2.07,49.22 1.64,49.27 1.23,49.19 0.81,49.10 0.44,48.89 0.08,48.68 -0.19,48.36 -0.47,48.04 -0.64,47.65 -0.80,47.25 -0.83,46.83 -0.86,46.41 -0.75,45.99 -0.65,45.58 -0.41,45.23 -0.18,44.87 0.14,44.61 0.48,44.35 0.88,44.21 1.28,44.06 1.70,44.06 2.13,44.05 2.53,44.18 2.94,44.31 3.28,44.56 3.62,44.81 3.87,45.16 4.11,45.51 4.23,45.92 4.35,46.32 4.33,46.75 4.32,47.17 4.17,47.57 4.02,47.97 3.75,48.30 3.48,48.62 3.12,48.85 2.75,49.07 2.34,49.17 1.93,49.27 1.50,49.23 1.08,49.19 0.69,49.02 0.30,48.84 -0.00,48.56 -0.31,48.27 -0.52,47.90 -0.72,47.53 -0.80,47.11 -0.87,46.69 -0.81,46.27 -0.75,45.85 -0.75,45.85 -0.75,45.85 -0.30,44.24 0.14,42.64 1.04,39.08 1.94,35.53 2.65,30.43 3.36,25.32 3.26,21.16 3.16,17.00 2.08,13.76 1.01,10.51 -0.69,5.78 -2.40,1.05 -2.49,0.74 -2.58,0.44 -2.60,0.13 -2.62,-0.18 -2.55,-0.49 -2.49,-0.80 -2.36,-1.09 -2.23,-1.38 -2.03,-1.62 -1.83,-1.87 -1.58,-2.06 -1.33,-2.26 -1.04,-2.38 -0.75,-2.51 -0.44,-2.56 -0.13,-2.62 0.18,-2.60 0.50,-2.57 0.80,-2.48 1.10,-2.38 1.37,-2.21 1.64,-2.05 1.86,-1.82 2.08,-1.59 2.24,-1.32 2.40,-1.05 2.40,-1.05 L 2.40,-1.05 Z"/></g><g transform="translate(363.96724597064303 552) rotate(0 20.5 -7.5)" stroke="none"><path fill="#1e1e1e" d="M -2.13,-1.52 Q -2.13,-1.52 -1.13,-3.89 -0.12,-6.26 3.19,-8.76 6.51,-11.26 11.63,-13.19 16.74,-15.12 23.75,-15.88 30.76,-16.64 33.61,-16.80 36.45,-16.95 36.88,-16.95 37.30,-16.94 37.70,-16.80 38.11,-16.67 38.44,-16.40 38.78,-16.14 39.01,-15.79 39.25,-15.44 39.36,-15.03 39.47,-14.62 39.44,-14.19 39.41,-13.77 39.25,-13.37 39.09,-12.98 38.81,-12.66 38.53,-12.34 38.17,-12.12 37.80,-11.91 37.39,-11.82 36.97,-11.73 36.55,-11.78 36.13,-11.83 35.74,-12.01 35.36,-12.20 35.05,-12.49 34.75,-12.79 34.55,-13.16 34.36,-13.54 34.29,-13.96 34.23,-14.38 34.30,-14.80 34.37,-15.22 34.58,-15.59 34.78,-15.97 35.09,-16.26 35.40,-16.54 35.79,-16.72 36.18,-16.89 36.60,-16.94 37.02,-16.98 37.44,-16.88 37.85,-16.79 38.21,-16.56 38.57,-16.34 38.85,-16.02 39.12,-15.69 39.27,-15.29 39.42,-14.90 39.44,-14.47 39.46,-14.05 39.34,-13.64 39.23,-13.23 38.98,-12.88 38.74,-12.53 38.40,-12.28 38.06,-12.02 37.66,-11.89 37.25,-11.76 37.25,-11.76 37.25,-11.76 34.49,-11.05 31.74,-10.34 25.56,-9.07 19.39,-7.80 15.13,-6.30 10.88,-4.80 8.37,-3.29 5.87,-1.78 4.00,-0.13 2.13,1.52 1.92,1.76 1.70,1.99 1.44,2.16 1.18,2.34 0.88,2.45 0.58,2.56 0.27,2.59 -0.04,2.62 -0.35,2.58 -0.66,2.53 -0.96,2.42 -1.25,2.30 -1.51,2.12 -1.77,1.93 -1.97,1.69 -2.18,1.45 -2.32,1.17 -2.47,0.89 -2.54,0.58 -2.61,0.27 -2.60,-0.04 -2.60,-0.35 -2.52,-0.66 -2.44,-0.97 -2.28,-1.24 -2.13,-1.52 -2.13,-1.52 L -2.13,-1.52 Z"/></g><g transform="translate(799.967245970643 514) rotate(0 -7 19.5)" stroke="none"><path fill="#1e1e1e" d="M 2.43,0.97 Q 2.43,0.97 0.79,6.98 -0.84,13.00 -2.95,18.83 -5.05,24.65 -6.81,29.53 -8.56,34.41 -9.55,36.47 -10.54,38.53 -10.73,38.91 -10.91,39.30 -11.21,39.60 -11.50,39.91 -11.88,40.10 -12.26,40.29 -12.68,40.36 -13.10,40.42 -13.52,40.35 -13.93,40.27 -14.31,40.07 -14.68,39.87 -14.97,39.56 -15.26,39.24 -15.43,38.86 -15.60,38.47 -15.65,38.05 -15.69,37.62 -15.59,37.21 -15.49,36.79 -15.27,36.43 -15.05,36.07 -14.72,35.80 -14.39,35.53 -14.00,35.38 -13.60,35.22 -13.17,35.21 -12.75,35.19 -12.34,35.31 -11.93,35.43 -11.59,35.67 -11.24,35.91 -10.98,36.25 -10.73,36.59 -10.60,37.00 -10.47,37.40 -10.47,37.83 -10.48,38.25 -10.62,38.65 -10.76,39.05 -11.02,39.39 -11.28,39.72 -11.64,39.96 -11.99,40.19 -12.40,40.30 -12.81,40.41 -13.24,40.38 -13.66,40.35 -14.05,40.19 -14.45,40.03 -14.77,39.75 -15.09,39.47 -15.30,39.10 -15.52,38.74 -15.60,38.32 -15.69,37.91 -15.64,37.48 -15.59,37.06 -15.59,37.06 -15.59,37.06 -15.32,34.79 -15.05,32.52 -13.85,27.22 -12.65,21.91 -10.50,15.95 -8.35,9.99 -5.39,4.51 -2.43,-0.97 -2.28,-1.25 -2.13,-1.53 -1.92,-1.76 -1.70,-1.99 -1.44,-2.17 -1.17,-2.34 -0.88,-2.45 -0.58,-2.56 -0.26,-2.59 0.04,-2.62 0.36,-2.58 0.67,-2.53 0.96,-2.42 1.26,-2.30 1.51,-2.11 1.77,-1.93 1.98,-1.69 2.18,-1.45 2.33,-1.16 2.47,-0.88 2.54,-0.57 2.61,-0.26 2.60,0.04 2.60,0.36 2.52,0.66 2.43,0.97 2.43,0.97 L 2.43,0.97 Z"/></g><g transform="translate(789.967245970643 516) rotate(0 15.5 15)" stroke="none"><path fill="#1e1e1e" d="M -2.40,-1.06 Q -2.40,-1.06 -1.66,-3.88 -0.92,-6.69 1.33,-9.21 3.59,-11.73 7.26,-13.52 10.94,-15.30 15.80,-15.77 20.66,-16.23 24.20,-15.08 27.73,-13.92 30.02,-10.92 32.32,-7.92 31.94,-4.51 31.56,-1.11 28.88,2.03 26.20,5.18 27.36,8.77 28.52,12.36 28.37,15.43 28.21,18.51 26.81,21.67 25.41,24.83 23.67,27.84 21.93,30.84 18.61,34.75 15.30,38.65 11.29,41.61 7.28,44.57 6.92,44.80 6.56,45.03 6.15,45.14 5.74,45.24 5.32,45.20 4.89,45.17 4.50,45.00 4.11,44.83 3.80,44.55 3.48,44.27 3.27,43.90 3.06,43.53 2.98,43.11 2.90,42.69 2.96,42.27 3.01,41.85 3.20,41.47 3.39,41.09 3.69,40.79 3.99,40.49 4.37,40.30 4.75,40.11 5.17,40.05 5.59,39.99 6.01,40.07 6.43,40.15 6.80,40.36 7.17,40.57 7.45,40.89 7.74,41.20 7.91,41.59 8.07,41.98 8.11,42.41 8.14,42.83 8.04,43.24 7.94,43.66 7.71,44.01 7.48,44.37 7.15,44.64 6.82,44.91 6.42,45.05 6.02,45.20 5.60,45.21 5.17,45.22 4.77,45.10 4.36,44.97 4.01,44.73 3.67,44.48 3.42,44.13 3.17,43.79 3.05,43.38 2.92,42.98 2.93,42.55 2.95,42.13 3.09,41.73 3.24,41.33 3.50,41.00 3.77,40.67 3.77,40.67 3.77,40.67 6.70,37.39 9.63,34.11 12.37,30.43 15.10,26.74 16.77,24.06 18.44,21.38 20.25,17.80 22.06,14.23 19.65,11.48 17.24,8.74 17.52,6.13 17.80,3.52 19.12,1.63 20.43,-0.24 22.96,-2.92 25.49,-5.60 23.20,-7.22 20.91,-8.84 17.37,-8.68 13.83,-8.52 9.68,-6.09 5.52,-3.65 3.96,-1.29 2.40,1.06 2.23,1.33 2.07,1.61 1.85,1.83 1.62,2.06 1.35,2.22 1.08,2.39 0.78,2.48 0.48,2.58 0.16,2.60 -0.14,2.62 -0.45,2.56 -0.76,2.51 -1.05,2.38 -1.34,2.25 -1.59,2.05 -1.84,1.86 -2.04,1.61 -2.24,1.36 -2.37,1.08 -2.50,0.79 -2.56,0.48 -2.62,0.17 -2.60,-0.14 -2.58,-0.46 -2.49,-0.76 -2.40,-1.06 -2.40,-1.06 L -2.40,-1.06 Z"/></g><g transform="translate(618.967245970643 107) rotate(0 -8 12)" stroke="none"><path fill="#1e1e1e" d="M 0.63,2.54 Q 0.63,2.54 -1.41,4.11 -3.46,5.68 -7.00,7.48 -10.55,9.29 -12.80,10.72 -15.06,12.15 -12.16,14.42 -9.27,16.68 -6.69,17.52 -4.11,18.35 -1.79,19.01 0.52,19.66 2.83,20.47 5.15,21.28 5.56,21.39 5.97,21.49 6.33,21.73 6.68,21.96 6.95,22.29 7.21,22.62 7.35,23.02 7.50,23.42 7.51,23.85 7.52,24.27 7.39,24.68 7.26,25.08 7.01,25.43 6.76,25.77 6.41,26.02 6.07,26.26 5.66,26.38 5.25,26.50 4.83,26.49 4.40,26.48 4.00,26.33 3.61,26.18 3.28,25.91 2.95,25.64 2.72,25.28 2.50,24.92 2.40,24.51 2.30,24.09 2.33,23.67 2.37,23.25 2.54,22.86 2.71,22.47 3.00,22.16 3.28,21.84 3.66,21.63 4.03,21.43 4.44,21.35 4.86,21.27 5.28,21.33 5.70,21.39 6.08,21.59 6.46,21.78 6.76,22.08 7.06,22.38 7.25,22.76 7.43,23.15 7.49,23.57 7.54,23.99 7.46,24.41 7.37,24.82 7.16,25.19 6.95,25.56 6.63,25.84 6.31,26.12 5.92,26.29 5.53,26.45 5.11,26.48 4.68,26.52 4.68,26.52 4.68,26.52 2.10,26.89 -0.48,27.27 -3.54,27.21 -6.60,27.15 -9.91,26.31 -13.23,25.46 -16.66,23.85 -20.10,22.23 -22.76,19.32 -25.42,16.41 -25.53,13.47 -25.63,10.52 -24.56,8.64 -23.49,6.76 -21.80,5.26 -20.10,3.77 -17.74,2.44 -15.37,1.12 -12.96,-0.25 -10.56,-1.62 -8.15,-2.50 -5.73,-3.38 -3.18,-2.96 -0.63,-2.54 -0.32,-2.58 -0.00,-2.62 0.30,-2.58 0.62,-2.55 0.91,-2.44 1.21,-2.32 1.47,-2.15 1.73,-1.97 1.94,-1.73 2.15,-1.49 2.30,-1.21 2.45,-0.93 2.52,-0.63 2.60,-0.32 2.60,-0.00 2.60,0.30 2.53,0.61 2.45,0.92 2.31,1.20 2.16,1.48 1.95,1.72 1.74,1.96 1.48,2.14 1.22,2.32 0.93,2.43 0.63,2.54 0.63,2.54 L 0.63,2.54 Z"/></g><g transform="translate(625.967245970643 894) rotate(0 0 34)" stroke="none"><path fill="#1e1e1e" d="M 2.62,0.16 Q 2.62,0.16 3.61,4.84 4.60,9.52 4.50,15.39 4.40,21.26 4.34,28.37 4.29,35.48 4.06,42.52 3.83,49.57 3.52,55.06 3.22,60.55 2.83,62.95 2.44,65.35 2.40,65.78 2.35,66.20 2.17,66.58 1.99,66.97 1.69,67.28 1.40,67.58 1.02,67.78 0.65,67.98 0.23,68.04 -0.18,68.11 -0.60,68.04 -1.02,67.97 -1.39,67.77 -1.77,67.57 -2.06,67.26 -2.35,66.95 -2.53,66.56 -2.70,66.18 -2.75,65.75 -2.79,65.33 -2.70,64.92 -2.61,64.50 -2.38,64.14 -2.16,63.77 -1.84,63.50 -1.51,63.23 -1.12,63.07 -0.72,62.92 -0.30,62.90 0.12,62.87 0.53,62.99 0.93,63.11 1.28,63.35 1.64,63.59 1.89,63.93 2.15,64.26 2.28,64.67 2.41,65.07 2.41,65.50 2.41,65.92 2.27,66.32 2.14,66.73 1.88,67.06 1.62,67.40 1.26,67.64 0.91,67.87 0.50,67.99 0.09,68.10 -0.32,68.07 -0.75,68.05 -1.14,67.89 -1.53,67.73 -1.86,67.45 -2.18,67.18 -2.40,66.81 -2.61,66.44 -2.70,66.03 -2.79,65.61 -2.79,65.61 -2.79,65.61 -3.42,63.27 -4.04,60.92 -4.90,55.23 -5.76,49.54 -5.95,42.47 -6.13,35.40 -6.08,28.22 -6.04,21.05 -5.89,14.96 -5.75,8.87 -4.18,4.35 -2.62,-0.16 -2.56,-0.47 -2.50,-0.78 -2.37,-1.07 -2.24,-1.36 -2.04,-1.61 -1.85,-1.86 -1.60,-2.05 -1.35,-2.25 -1.06,-2.37 -0.77,-2.50 -0.46,-2.56 -0.15,-2.62 0.16,-2.60 0.47,-2.58 0.78,-2.48 1.08,-2.39 1.35,-2.22 1.62,-2.06 1.84,-1.83 2.07,-1.61 2.23,-1.34 2.39,-1.07 2.49,-0.77 2.58,-0.46 2.60,-0.15 2.62,0.16 2.62,0.16 L 2.62,0.16 Z"/></g><g transform="translate(624.967245970643 906) rotate(0 13 22)" stroke="none"><path fill="#1e1e1e" d="M -2.40,-1.06 Q -2.40,-1.06 -2.00,-3.99 -1.61,-6.92 -0.41,-8.87 0.79,-10.83 3.15,-13.17 5.51,-15.52 11.02,-13.40 16.54,-11.29 19.26,-7.83 21.98,-4.37 24.62,-0.31 27.26,3.75 29.22,8.06 31.19,12.37 31.56,17.52 31.94,22.67 29.55,29.71 27.17,36.75 23.49,42.10 19.81,47.45 15.11,51.08 10.41,54.71 5.25,56.57 0.09,58.42 -0.30,58.54 -0.71,58.66 -1.14,58.64 -1.56,58.63 -1.96,58.48 -2.36,58.32 -2.68,58.05 -3.01,57.78 -3.23,57.42 -3.46,57.06 -3.56,56.65 -3.65,56.23 -3.61,55.81 -3.57,55.39 -3.40,55.00 -3.22,54.61 -2.94,54.30 -2.65,53.98 -2.28,53.78 -1.90,53.58 -1.48,53.50 -1.07,53.43 -0.65,53.49 -0.23,53.55 0.14,53.75 0.52,53.94 0.82,54.25 1.11,54.55 1.30,54.94 1.48,55.32 1.53,55.74 1.58,56.16 1.50,56.58 1.41,56.99 1.20,57.36 0.98,57.73 0.66,58.01 0.34,58.29 -0.04,58.45 -0.43,58.61 -0.86,58.64 -1.28,58.67 -1.69,58.56 -2.10,58.45 -2.46,58.22 -2.81,57.98 -3.07,57.65 -3.34,57.32 -3.48,56.91 -3.62,56.51 -3.62,56.09 -3.63,55.66 -3.50,55.26 -3.37,54.85 -3.12,54.51 -2.86,54.17 -2.51,53.93 -2.17,53.69 -2.17,53.69 -2.17,53.69 1.58,51.27 5.33,48.86 8.57,45.45 11.81,42.04 14.64,37.58 17.48,33.12 19.60,27.90 21.71,22.68 21.86,19.28 22.01,15.88 20.73,12.25 19.44,8.63 17.16,4.84 14.87,1.05 12.11,-3.43 9.34,-7.92 7.78,-5.67 6.21,-3.42 4.30,-1.17 2.40,1.06 2.23,1.33 2.07,1.61 1.85,1.83 1.62,2.06 1.35,2.22 1.08,2.39 0.78,2.48 0.48,2.58 0.16,2.60 -0.14,2.62 -0.45,2.56 -0.76,2.51 -1.05,2.38 -1.34,2.25 -1.59,2.05 -1.84,1.86 -2.04,1.61 -2.24,1.36 -2.37,1.08 -2.50,0.79 -2.56,0.48 -2.62,0.17 -2.60,-0.14 -2.58,-0.46 -2.49,-0.76 -2.40,-1.06 -2.40,-1.06 L -2.40,-1.06 Z"/></g><g stroke-linecap="round"><g transform="translate(396.96724597064303 463) rotate(0 -4.5 184)"><path d="M0.13 0.15 C-1.38 61.5, -7.47 306.87, -9.02 368.16 M-0.01 0.08 C-1.55 61.38, -7.69 306.62, -9.16 367.94" stroke="#1e1e1e" stroke-width="2" fill="none"/></g></g><mask/><g stroke-linecap="round"><g transform="translate(387.96724597064303 828) rotate(0 195.5 -5.5)"><path d="M0.08 0.04 C65.29 -1.8, 325.95 -9.2, 391.09 -11.03 M-0.09 -0.09 C65.12 -1.91, 325.77 -8.97, 390.99 -10.82" stroke="#1e1e1e" stroke-width="2" fill="none"/></g></g><mask/><g stroke-linecap="round"><g transform="translate(782.967245970643 814) rotate(0 -6.5 -172)"><path d="M-0.12 0.05 C-2.28 -57.27, -11.02 -286.7, -13.14 -344.04 M0.16 -0.09 C-1.95 -57.36, -10.63 -286.54, -12.81 -343.83" stroke="#1e1e1e" stroke-width="2" fill="none"/></g></g><mask/><g transform="translate(268.96724597064303 79) rotate(0 34.5 422)" stroke="none"><path fill="#1e1e1e" d="M -0.43,-2.57 Q -0.43,-2.57 1.19,-3.37 2.83,-4.18 5.85,-4.32 8.86,-4.45 11.63,-3.47 14.39,-2.48 19.94,0.10 25.49,2.70 31.20,6.20 36.90,9.71 42.88,15.58 48.86,21.45 54.69,29.68 60.52,37.92 67.96,51.11 75.40,64.30 81.51,77.92 87.63,91.54 92.88,106.81 98.13,122.09 101.87,139.02 105.60,155.96 108.08,174.95 110.55,193.95 111.63,219.70 112.71,245.44 113.17,268.02 113.62,290.59 113.56,311.62 113.50,332.65 112.32,353.12 111.14,373.58 108.35,398.73 105.55,423.88 102.64,444.80 99.73,465.73 95.88,484.43 92.03,503.13 87.20,521.38 82.38,539.63 76.85,557.10 71.33,574.57 65.53,591.36 59.73,608.15 53.27,627.76 46.81,647.37 41.17,663.66 35.52,679.94 29.93,694.54 24.34,709.13 18.77,722.12 13.20,735.12 7.40,748.75 1.60,762.39 -2.58,772.27 -6.77,782.15 -9.99,789.84 -13.21,797.53 -15.73,803.69 -18.24,809.85 -20.42,816.11 -22.60,822.37 -24.17,826.60 -25.73,830.82 -26.99,834.41 -28.24,837.99 -29.37,840.50 -30.51,843.00 -32.59,845.71 -34.67,848.42 -34.10,847.94 -33.53,847.45 -34.02,848.02 -34.52,848.58 -35.13,849.01 -35.75,849.44 -36.45,849.71 -37.15,849.99 -37.89,850.08 -38.64,850.18 -39.38,850.09 -40.13,850.01 -40.83,849.75 -41.54,849.48 -42.16,849.06 -42.78,848.64 -43.28,848.08 -43.78,847.52 -44.14,846.86 -44.49,846.20 -44.67,845.47 -44.86,844.74 -44.86,843.99 -44.87,843.24 -44.69,842.51 -44.52,841.78 -44.18,841.11 -43.83,840.44 -42.22,840.53 -40.61,840.62 -40.47,840.21 -40.33,839.81 -40.07,839.47 -39.81,839.14 -39.46,838.90 -39.11,838.66 -38.70,838.55 -38.29,838.44 -37.87,838.46 -37.44,838.49 -37.05,838.64 -36.65,838.80 -36.33,839.08 -36.01,839.36 -35.79,839.72 -35.57,840.08 -35.48,840.50 -35.39,840.92 -35.44,841.34 -35.49,841.76 -35.67,842.15 -35.85,842.53 -36.14,842.84 -36.43,843.15 -36.81,843.34 -37.18,843.54 -37.60,843.61 -38.02,843.68 -38.44,843.61 -38.86,843.54 -39.24,843.34 -39.61,843.13 -39.90,842.83 -40.19,842.52 -40.37,842.13 -40.55,841.74 -40.59,841.32 -40.64,840.90 -40.54,840.48 -40.45,840.07 -40.23,839.71 -40.01,839.34 -39.69,839.07 -39.36,838.79 -38.97,838.64 -38.57,838.48 -38.15,838.46 -37.72,838.44 -37.31,838.55 -36.90,838.67 -36.55,838.91 -36.20,839.15 -35.95,839.49 -35.69,839.83 -35.56,840.23 -35.42,840.63 -35.42,841.06 -35.42,841.48 -35.42,841.48 -35.42,841.48 -34.48,844.47 -33.53,847.45 -34.02,848.02 -34.52,848.58 -35.13,849.01 -35.75,849.44 -36.45,849.71 -37.15,849.99 -37.89,850.08 -38.64,850.18 -39.38,850.09 -40.13,850.01 -40.83,849.75 -41.54,849.48 -42.16,849.06 -42.78,848.64 -43.28,848.08 -43.78,847.52 -44.14,846.86 -44.49,846.20 -44.67,845.47 -44.86,844.74 -44.86,843.99 -44.87,843.24 -44.70,842.51 -44.52,841.78 -44.18,841.11 -43.83,840.44 -43.39,840.06 -42.95,839.68 -41.99,837.64 -41.03,835.60 -40.07,833.25 -39.12,830.90 -38.45,828.68 -37.77,826.46 -36.30,822.30 -34.83,818.15 -32.57,811.55 -30.30,804.95 -27.79,798.72 -25.27,792.49 -22.05,784.77 -18.84,777.04 -14.65,767.15 -10.46,757.26 -4.67,743.60 1.12,729.94 6.59,717.18 12.07,704.42 17.59,690.03 23.11,675.64 28.73,659.45 34.35,643.26 40.85,623.57 47.36,603.87 53.12,587.25 58.88,570.63 64.33,553.46 69.77,536.29 74.52,518.39 79.27,500.49 83.08,482.21 86.89,463.93 89.81,443.18 92.74,422.44 95.56,397.64 98.38,372.83 99.59,352.71 100.80,332.59 100.94,311.71 101.09,290.83 100.68,268.39 100.27,245.94 99.31,220.72 98.35,195.50 96.03,177.02 93.71,158.54 90.23,142.24 86.74,125.95 81.77,111.14 76.79,96.33 71.02,83.13 65.25,69.93 58.26,57.13 51.26,44.32 46.13,36.72 40.99,29.11 36.05,23.83 31.10,18.55 26.00,15.04 20.89,11.53 15.88,8.62 10.87,5.72 7.46,4.38 4.06,3.04 2.25,2.82 0.43,2.60 0.12,2.62 -0.19,2.63 -0.50,2.57 -0.81,2.51 -1.10,2.37 -1.38,2.24 -1.63,2.04 -1.88,1.84 -2.07,1.59 -2.26,1.34 -2.39,1.05 -2.51,0.76 -2.57,0.45 -2.62,0.13 -2.60,-0.17 -2.57,-0.49 -2.47,-0.79 -2.38,-1.09 -2.21,-1.36 -2.04,-1.63 -1.81,-1.85 -1.59,-2.07 -1.31,-2.23 -1.04,-2.39 -0.74,-2.48 -0.43,-2.57 -0.43,-2.57 L -0.43,-2.57 Z"/></g><g transform="translate(819.467245970643 22) rotate(180 34.5 422)" stroke="none"><path fill="#1e1e1e" d="M -0.43,-2.57 Q -0.43,-2.57 1.19,-3.37 2.83,-4.18 5.85,-4.32 8.86,-4.45 11.63,-3.47 14.39,-2.48 19.94,0.10 25.49,2.70 31.20,6.20 36.90,9.71 42.88,15.58 48.86,21.45 54.69,29.68 60.52,37.92 67.96,51.11 75.40,64.30 81.51,77.92 87.63,91.54 92.88,106.81 98.13,122.09 101.87,139.02 105.60,155.96 108.08,174.95 110.55,193.95 111.63,219.70 112.71,245.44 113.17,268.02 113.62,290.59 113.56,311.62 113.50,332.65 112.32,353.12 111.14,373.58 108.35,398.73 105.55,423.88 102.64,444.80 99.73,465.73 95.88,484.43 92.03,503.13 87.20,521.38 82.38,539.63 76.85,557.10 71.33,574.57 65.53,591.36 59.73,608.15 53.27,627.76 46.81,647.37 41.17,663.66 35.52,679.94 29.93,694.54 24.34,709.13 18.77,722.12 13.20,735.12 7.40,748.75 1.60,762.39 -2.58,772.27 -6.77,782.15 -9.99,789.84 -13.21,797.53 -15.73,803.69 -18.24,809.85 -20.42,816.11 -22.60,822.37 -24.17,826.60 -25.73,830.82 -26.99,834.41 -28.24,837.99 -29.37,840.50 -30.51,843.00 -32.59,845.71 -34.67,848.42 -34.10,847.94 -33.53,847.45 -34.02,848.02 -34.52,848.58 -35.13,849.01 -35.75,849.44 -36.45,849.71 -37.15,849.99 -37.89,850.08 -38.64,850.18 -39.38,850.09 -40.13,850.01 -40.83,849.75 -41.54,849.48 -42.16,849.06 -42.78,848.64 -43.28,848.08 -43.78,847.52 -44.14,846.86 -44.49,846.20 -44.67,845.47 -44.86,844.74 -44.86,843.99 -44.87,843.24 -44.69,842.51 -44.52,841.78 -44.18,841.11 -43.83,840.44 -42.22,840.53 -40.61,840.62 -40.47,840.21 -40.33,839.81 -40.07,839.47 -39.81,839.14 -39.46,838.90 -39.11,838.66 -38.70,838.55 -38.29,838.44 -37.87,838.46 -37.44,838.49 -37.05,838.64 -36.65,838.80 -36.33,839.08 -36.01,839.36 -35.79,839.72 -35.57,840.08 -35.48,840.50 -35.39,840.92 -35.44,841.34 -35.49,841.76 -35.67,842.15 -35.85,842.53 -36.14,842.84 -36.43,843.15 -36.81,843.34 -37.18,843.54 -37.60,843.61 -38.02,843.68 -38.44,843.61 -38.86,843.54 -39.24,843.34 -39.61,843.13 -39.90,842.83 -40.19,842.52 -40.37,842.13 -40.55,841.74 -40.59,841.32 -40.64,840.90 -40.54,840.48 -40.45,840.07 -40.23,839.71 -40.01,839.34 -39.69,839.07 -39.36,838.79 -38.97,838.64 -38.57,838.48 -38.15,838.46 -37.72,838.44 -37.31,838.55 -36.90,838.67 -36.55,838.91 -36.20,839.15 -35.95,839.49 -35.69,839.83 -35.56,840.23 -35.42,840.63 -35.42,841.06 -35.42,841.48 -35.42,841.48 -35.42,841.48 -34.48,844.47 -33.53,847.45 -34.02,848.02 -34.52,848.58 -35.13,849.01 -35.75,849.44 -36.45,849.71 -37.15,849.99 -37.89,850.08 -38.64,850.18 -39.38,850.09 -40.13,850.01 -40.83,849.75 -41.54,849.48 -42.16,849.06 -42.78,848.64 -43.28,848.08 -43.78,847.52 -44.14,846.86 -44.49,846.20 -44.67,845.47 -44.86,844.74 -44.86,843.99 -44.87,843.24 -44.70,842.51 -44.52,841.78 -44.18,841.11 -43.83,840.44 -43.39,840.06 -42.95,839.68 -41.99,837.64 -41.03,835.60 -40.07,833.25 -39.12,830.90 -38.45,828.68 -37.77,826.46 -36.30,822.30 -34.83,818.15 -32.57,811.55 -30.30,804.95 -27.79,798.72 -25.27,792.49 -22.05,784.77 -18.84,777.04 -14.65,767.15 -10.46,757.26 -4.67,743.60 1.12,729.94 6.59,717.18 12.07,704.42 17.59,690.03 23.11,675.64 28.73,659.45 34.35,643.26 40.85,623.57 47.36,603.87 53.12,587.25 58.88,570.63 64.33,553.46 69.77,536.29 74.52,518.39 79.27,500.49 83.08,482.21 86.89,463.93 89.81,443.18 92.74,422.44 95.56,397.64 98.38,372.83 99.59,352.71 100.80,332.59 100.94,311.71 101.09,290.83 100.68,268.39 100.27,245.94 99.31,220.72 98.35,195.50 96.03,177.02 93.71,158.54 90.23,142.24 86.74,125.95 81.77,111.14 76.79,96.33 71.02,83.13 65.25,69.93 58.26,57.13 51.26,44.32 46.13,36.72 40.99,29.11 36.05,23.83 31.10,18.55 26.00,15.04 20.89,11.53 15.88,8.62 10.87,5.72 7.46,4.38 4.06,3.04 2.25,2.82 0.43,2.60 0.12,2.62 -0.19,2.63 -0.50,2.57 -0.81,2.51 -1.10,2.37 -1.38,2.24 -1.63,2.04 -1.88,1.84 -2.07,1.59 -2.26,1.34 -2.39,1.05 -2.51,0.76 -2.57,0.45 -2.62,0.13 -2.60,-0.17 -2.57,-0.49 -2.47,-0.79 -2.38,-1.09 -2.21,-1.36 -2.04,-1.63 -1.81,-1.85 -1.59,-2.07 -1.31,-2.23 -1.04,-2.39 -0.74,-2.48 -0.43,-2.57 -0.43,-2.57 L -0.43,-2.57 Z"/></g><g transform="translate(404.96724597064303 470) rotate(0 93 3.5)" stroke="none"><path fill="#e03131" d="M 0.26,-2.61 Q 0.26,-2.61 3.25,-3.49 6.24,-4.36 9.54,-3.99 12.85,-3.61 17.05,-3.16 21.26,-2.72 26.75,-2.28 32.25,-1.84 40.38,-1.07 48.51,-0.31 55.11,0.30 61.71,0.91 67.84,1.17 73.96,1.42 80.30,1.53 86.63,1.64 92.94,1.39 99.26,1.15 105.97,0.76 112.69,0.37 117.19,-0.07 121.69,-0.51 125.13,-0.43 128.56,-0.35 131.00,-0.31 133.43,-0.27 136.71,0.03 139.99,0.34 142.59,0.46 145.19,0.57 147.43,0.34 149.68,0.11 152.06,0.00 154.43,-0.09 156.58,-0.40 158.74,-0.70 162.22,-0.92 165.71,-1.14 168.28,-1.26 170.86,-1.37 173.46,-1.31 176.07,-1.24 179.24,-1.24 182.40,-1.23 185.01,0.34 187.62,1.93 187.89,2.25 188.16,2.58 188.31,2.98 188.45,3.38 188.47,3.81 188.48,4.23 188.36,4.64 188.24,5.04 187.99,5.39 187.75,5.74 187.40,5.99 187.06,6.24 186.65,6.36 186.25,6.49 185.82,6.48 185.40,6.47 185.00,6.33 184.60,6.19 184.27,5.92 183.93,5.66 183.70,5.30 183.47,4.94 183.37,4.53 183.26,4.12 183.29,3.70 183.33,3.27 183.49,2.88 183.66,2.49 183.94,2.17 184.22,1.85 184.59,1.64 184.96,1.43 185.37,1.35 185.79,1.27 186.21,1.32 186.63,1.38 187.02,1.56 187.40,1.75 187.70,2.05 188.00,2.35 188.19,2.73 188.38,3.11 188.44,3.53 188.50,3.95 188.43,4.36 188.35,4.78 188.14,5.15 187.93,5.52 187.62,5.81 187.31,6.10 186.92,6.27 186.53,6.44 186.10,6.47 185.68,6.51 185.27,6.41 184.85,6.31 184.49,6.08 184.14,5.86 184.14,5.86 184.14,5.86 182.19,7.55 180.25,9.24 178.12,9.23 175.99,9.23 173.63,9.18 171.28,9.13 168.75,9.22 166.22,9.32 163.19,9.50 160.17,9.68 157.53,10.03 154.89,10.38 152.75,10.48 150.62,10.57 147.66,10.80 144.71,11.03 141.83,10.89 138.95,10.75 136.10,10.45 133.26,10.15 130.75,10.11 128.24,10.07 125.47,9.96 122.70,9.85 117.99,10.31 113.29,10.77 106.47,11.16 99.64,11.54 93.05,11.78 86.45,12.02 79.99,11.91 73.53,11.79 67.13,11.52 60.74,11.25 54.13,10.62 47.52,10.00 39.43,9.20 31.35,8.41 25.76,7.88 20.17,7.35 15.87,6.87 11.58,6.40 8.42,5.95 5.25,5.51 2.49,4.06 -0.26,2.61 -0.57,2.54 -0.87,2.47 -1.16,2.33 -1.44,2.19 -1.68,1.98 -1.92,1.78 -2.11,1.52 -2.29,1.26 -2.41,0.97 -2.53,0.68 -2.58,0.36 -2.62,0.05 -2.59,-0.25 -2.56,-0.57 -2.45,-0.87 -2.35,-1.17 -2.17,-1.43 -2.00,-1.69 -1.76,-1.91 -1.53,-2.12 -1.26,-2.28 -0.98,-2.43 -0.67,-2.51 -0.37,-2.60 -0.05,-2.60 0.26,-2.61 0.26,-2.61 L 0.26,-2.61 Z"/></g><g transform="translate(587.967245970643 160) rotate(0 -1 144)" stroke="none"><path fill="#2f9e44" d="M 2.62,-0.15 Q 2.62,-0.15 3.52,4.69 4.43,9.54 5.18,15.53 5.92,21.52 6.64,31.11 7.35,40.70 7.70,49.11 8.04,57.52 8.51,65.04 8.97,72.56 9.16,80.16 9.35,87.76 9.70,95.51 10.06,103.25 10.22,113.25 10.38,123.25 9.87,131.39 9.35,139.53 8.85,146.10 8.34,152.68 7.84,158.64 7.34,164.60 6.54,171.23 5.75,177.86 5.12,182.95 4.50,188.04 4.25,192.64 4.00,197.23 3.89,201.48 3.78,205.73 3.44,210.55 3.11,215.36 2.67,219.19 2.23,223.02 1.75,226.39 1.27,229.75 0.78,232.92 0.29,236.08 -0.20,239.15 -0.70,242.22 -1.49,246.45 -2.29,250.68 -2.60,253.70 -2.91,256.72 -3.05,259.13 -3.18,261.54 -3.08,265.66 -2.97,269.78 -2.87,272.13 -2.78,274.47 -2.45,278.58 -2.12,282.68 -1.61,285.80 -1.09,288.91 -0.97,289.32 -0.84,289.73 -0.86,290.15 -0.87,290.58 -1.02,290.97 -1.17,291.37 -1.44,291.70 -1.70,292.03 -2.06,292.26 -2.42,292.49 -2.84,292.59 -3.25,292.69 -3.67,292.65 -4.10,292.61 -4.49,292.44 -4.87,292.27 -5.19,291.99 -5.50,291.70 -5.71,291.33 -5.92,290.96 -6.00,290.54 -6.08,290.13 -6.02,289.71 -5.96,289.28 -5.77,288.90 -5.57,288.52 -5.27,288.23 -4.97,287.93 -4.59,287.74 -4.21,287.55 -3.79,287.50 -3.36,287.44 -2.95,287.52 -2.53,287.61 -2.16,287.82 -1.79,288.03 -1.51,288.35 -1.23,288.66 -1.06,289.06 -0.90,289.45 -0.86,289.87 -0.83,290.29 -0.94,290.71 -1.04,291.12 -1.27,291.48 -1.50,291.83 -1.84,292.10 -2.17,292.36 -2.57,292.51 -2.97,292.65 -3.39,292.66 -3.82,292.67 -4.22,292.54 -4.63,292.41 -4.97,292.17 -5.32,291.92 -5.56,291.57 -5.81,291.22 -5.81,291.22 -5.81,291.22 -7.49,288.99 -9.17,286.77 -9.96,283.17 -10.75,279.57 -11.27,275.13 -11.79,270.68 -12.09,265.85 -12.39,261.02 -12.24,258.39 -12.09,255.77 -11.73,252.37 -11.38,248.97 -10.60,244.86 -9.83,240.74 -9.34,237.70 -8.85,234.65 -8.36,231.55 -7.88,228.45 -7.42,225.20 -6.96,221.96 -6.54,218.33 -6.12,214.70 -5.78,210.10 -5.45,205.49 -5.33,201.11 -5.21,196.72 -4.94,191.82 -4.66,186.92 -4.04,181.84 -3.41,176.76 -2.63,170.29 -1.85,163.82 -1.35,157.89 -0.85,151.97 -0.35,145.45 0.14,138.94 0.65,131.16 1.16,123.39 1.01,113.53 0.87,103.67 0.51,95.82 0.15,87.96 0.00,80.50 -0.13,73.04 -0.46,65.41 -0.78,57.79 -0.93,49.50 -1.08,41.22 -1.53,31.82 -1.98,22.43 -2.63,16.21 -3.28,10.00 -2.95,5.07 -2.62,0.15 -2.60,-0.16 -2.58,-0.47 -2.48,-0.77 -2.39,-1.08 -2.22,-1.35 -2.06,-1.62 -1.84,-1.84 -1.61,-2.07 -1.34,-2.23 -1.07,-2.39 -0.77,-2.49 -0.46,-2.58 -0.15,-2.60 0.16,-2.62 0.47,-2.56 0.78,-2.50 1.07,-2.37 1.36,-2.24 1.61,-2.04 1.86,-1.85 2.05,-1.60 2.25,-1.35 2.37,-1.06 2.50,-0.77 2.56,-0.46 2.62,-0.15 2.62,-0.15 L 2.62,-0.15 Z"/></g><g transform="translate(621.967245970643 303) rotate(0 19.5 -52)" stroke="none"><path fill="#2f9e44" d="M -1.85,-1.85 Q -1.85,-1.85 1.91,-6.70 5.69,-11.55 9.35,-16.14 13.01,-20.72 16.17,-25.97 19.33,-31.21 22.93,-39.05 26.54,-46.89 28.92,-54.10 31.29,-61.31 32.34,-68.11 33.39,-74.92 32.69,-82.10 31.99,-89.28 31.38,-92.57 30.77,-95.85 29.32,-92.75 27.88,-89.65 26.25,-82.79 24.63,-75.93 23.32,-66.95 22.00,-57.97 22.02,-47.47 22.03,-36.96 22.88,-30.62 23.72,-24.28 24.60,-20.85 25.47,-17.41 26.47,-15.19 27.47,-12.97 27.57,-12.55 27.67,-12.14 27.66,-11.71 27.66,-11.28 27.56,-10.87 27.45,-10.45 27.25,-10.07 27.05,-9.69 26.76,-9.38 26.48,-9.06 26.12,-8.82 25.77,-8.57 25.37,-8.43 24.97,-8.28 24.54,-8.23 24.12,-8.18 23.69,-8.23 23.27,-8.29 22.87,-8.44 22.47,-8.60 22.12,-8.84 21.77,-9.09 21.48,-9.41 21.20,-9.73 21.01,-10.11 20.81,-10.49 21.97,-14.43 23.12,-18.37 23.65,-22.35 24.19,-26.33 24.23,-29.44 24.27,-32.55 24.06,-34.20 23.85,-35.85 23.93,-36.25 24.02,-36.66 24.20,-37.03 24.37,-37.40 24.64,-37.72 24.90,-38.03 25.23,-38.28 25.56,-38.53 25.94,-38.69 26.31,-38.84 26.72,-38.91 27.13,-38.97 27.54,-38.94 27.95,-38.90 28.34,-38.77 28.72,-38.64 29.07,-38.42 29.42,-38.20 29.70,-37.90 29.99,-37.60 30.19,-37.25 30.39,-36.89 30.51,-36.49 30.62,-36.10 30.63,-35.69 30.65,-35.28 30.57,-32.90 30.49,-30.53 31.10,-28.33 31.70,-26.13 31.89,-25.75 32.07,-25.37 32.13,-24.94 32.19,-24.52 32.10,-24.11 32.02,-23.69 31.81,-23.32 31.60,-22.95 31.28,-22.67 30.97,-22.39 30.58,-22.22 30.18,-22.05 29.76,-22.02 29.34,-21.99 28.93,-22.09 28.51,-22.20 28.16,-22.43 27.80,-22.66 27.53,-22.99 27.27,-23.32 27.12,-23.72 26.98,-24.12 26.97,-24.54 26.96,-24.97 27.09,-25.38 27.21,-25.78 27.46,-26.13 27.71,-26.47 28.06,-26.72 28.40,-26.96 28.81,-27.09 29.22,-27.21 29.64,-27.20 30.07,-27.18 30.46,-27.03 30.86,-26.89 31.19,-26.62 31.52,-26.35 31.75,-25.99 31.98,-25.63 32.08,-25.22 32.18,-24.81 32.14,-24.38 32.11,-23.96 31.94,-23.57 31.77,-23.18 31.48,-22.87 31.20,-22.55 30.83,-22.34 30.46,-22.14 30.04,-22.06 29.62,-21.98 29.20,-22.04 28.78,-22.10 28.40,-22.29 28.02,-22.48 27.72,-22.78 27.42,-23.08 27.42,-23.08 27.42,-23.08 25.51,-26.86 23.59,-30.63 23.72,-33.24 23.85,-35.85 23.93,-36.25 24.02,-36.66 24.20,-37.03 24.37,-37.40 24.64,-37.72 24.90,-38.03 25.23,-38.28 25.56,-38.53 25.93,-38.69 26.31,-38.84 26.72,-38.91 27.13,-38.97 27.54,-38.94 27.95,-38.90 28.34,-38.77 28.72,-38.64 29.07,-38.42 29.42,-38.20 29.70,-37.90 29.99,-37.60 30.19,-37.25 30.39,-36.89 30.51,-36.49 30.62,-36.10 30.63,-35.69 30.65,-35.28 30.78,-33.64 30.92,-32.01 30.42,-28.73 29.92,-25.45 28.69,-19.21 27.47,-12.97 27.57,-12.55 27.67,-12.14 27.66,-11.71 27.66,-11.28 27.56,-10.87 27.45,-10.45 27.25,-10.07 27.05,-9.69 26.76,-9.38 26.48,-9.06 26.12,-8.82 25.77,-8.57 25.37,-8.43 24.97,-8.28 24.54,-8.23 24.12,-8.18 23.69,-8.23 23.27,-8.29 22.87,-8.44 22.47,-8.59 22.12,-8.84 21.77,-9.09 21.48,-9.41 21.20,-9.73 21.01,-10.11 20.81,-10.49 20.24,-10.88 19.68,-11.26 18.71,-13.34 17.73,-15.42 16.73,-19.33 15.72,-23.23 14.84,-30.09 13.97,-36.96 13.99,-48.05 14.01,-59.14 15.41,-68.51 16.81,-77.88 18.88,-85.79 20.94,-93.70 23.96,-97.87 26.98,-102.04 31.25,-101.58 35.51,-101.11 37.80,-95.59 40.09,-90.07 40.81,-81.94 41.53,-73.80 40.50,-66.22 39.46,-58.65 36.94,-50.95 34.43,-43.25 30.58,-34.96 26.73,-26.66 23.17,-21.00 19.61,-15.35 15.58,-10.52 11.55,-5.69 6.70,-1.92 1.85,1.85 1.60,2.05 1.35,2.24 1.07,2.37 0.78,2.50 0.46,2.56 0.15,2.62 -0.15,2.60 -0.47,2.58 -0.77,2.48 -1.07,2.39 -1.34,2.23 -1.61,2.06 -1.84,1.84 -2.06,1.61 -2.23,1.34 -2.39,1.07 -2.48,0.77 -2.58,0.47 -2.60,0.15 -2.62,-0.15 -2.56,-0.47 -2.50,-0.78 -2.37,-1.07 -2.24,-1.35 -2.05,-1.60 -1.85,-1.85 -1.85,-1.85 L -1.85,-1.85 Z"/></g><g transform="translate(510.96724597064303 419) rotate(0 -3 13)" stroke="none"><path fill="#e03131" d="M -1.85,1.85 Q -1.85,1.85 -3.83,1.54 -5.81,1.22 -8.08,3.08 -10.35,4.95 -11.86,7.29 -13.37,9.64 -14.58,12.34 -15.79,15.05 -15.72,19.10 -15.65,23.14 -13.38,23.20 -11.10,23.26 -9.62,21.35 -8.14,19.45 -5.62,16.48 -3.10,13.51 -1.50,11.46 0.09,9.42 2.51,7.55 4.93,5.69 7.07,5.50 9.21,5.31 11.25,6.46 13.29,7.60 14.96,9.88 16.63,12.16 16.92,12.47 17.20,12.78 17.38,13.17 17.56,13.56 17.60,13.98 17.64,14.40 17.55,14.82 17.45,15.23 17.23,15.60 17.01,15.96 16.68,16.23 16.36,16.50 15.96,16.66 15.56,16.81 15.14,16.83 14.71,16.85 14.31,16.73 13.90,16.62 13.55,16.38 13.20,16.13 12.94,15.79 12.69,15.45 12.56,15.05 12.42,14.65 12.43,14.22 12.43,13.80 12.57,13.39 12.71,12.99 12.97,12.66 13.23,12.32 13.58,12.08 13.94,11.85 14.35,11.74 14.76,11.63 15.18,11.65 15.60,11.68 16.00,11.84 16.39,12.00 16.71,12.28 17.03,12.56 17.25,12.92 17.47,13.29 17.56,13.70 17.64,14.12 17.59,14.54 17.54,14.96 17.36,15.35 17.18,15.73 16.89,16.04 16.59,16.35 16.22,16.54 15.84,16.74 15.42,16.80 15.00,16.87 14.58,16.80 14.16,16.72 13.79,16.52 13.41,16.32 13.41,16.32 13.41,16.32 10.20,15.58 6.98,14.85 5.25,17.05 3.52,19.24 0.92,22.20 -1.68,25.15 -4.14,27.72 -6.61,30.29 -9.69,31.62 -12.77,32.96 -15.97,31.90 -19.17,30.84 -21.43,27.98 -23.70,25.11 -24.34,21.81 -24.99,18.51 -24.66,15.07 -24.33,11.62 -22.92,8.02 -21.51,4.42 -19.55,1.41 -17.60,-1.60 -14.74,-4.43 -11.88,-7.27 -9.47,-8.06 -7.05,-8.85 -2.92,-7.34 1.21,-5.82 1.53,-3.84 1.85,-1.85 2.05,-1.60 2.24,-1.35 2.37,-1.07 2.50,-0.78 2.56,-0.46 2.62,-0.15 2.60,0.15 2.58,0.47 2.48,0.77 2.39,1.07 2.23,1.34 2.06,1.61 1.84,1.84 1.61,2.06 1.34,2.23 1.07,2.39 0.77,2.48 0.47,2.58 0.15,2.60 -0.15,2.62 -0.47,2.56 -0.78,2.50 -1.07,2.37 -1.35,2.24 -1.60,2.05 -1.85,1.85 -1.85,1.85 L -1.85,1.85 Z"/></g><g transform="translate(407.96724597064303 173) rotate(0 90.5 144)" stroke="none"><path fill="#1971c2" d="M 1.35,-2.25 Q 1.35,-2.25 3.57,-2.64 5.80,-3.04 8.22,-0.73 10.64,1.58 12.51,3.90 14.39,6.22 15.89,9.10 17.40,11.99 19.69,14.77 21.98,17.56 23.53,19.61 25.07,21.65 26.81,24.26 28.55,26.87 30.85,30.11 33.14,33.35 35.22,36.44 37.30,39.52 38.43,41.51 39.56,43.50 40.97,45.43 42.37,47.36 45.19,50.50 48.00,53.64 49.63,55.62 51.26,57.60 53.16,60.26 55.07,62.92 56.53,65.32 57.99,67.73 59.33,69.68 60.67,71.64 62.04,74.28 63.41,76.93 64.64,78.82 65.86,80.71 67.34,83.10 68.81,85.49 70.95,89.52 73.09,93.55 75.09,97.16 77.09,100.78 79.10,104.32 81.10,107.86 83.07,110.98 85.03,114.10 87.93,117.41 90.83,120.71 93.81,123.90 96.80,127.09 99.51,129.89 102.21,132.68 104.53,135.00 106.84,137.32 109.12,139.87 111.39,142.42 114.01,146.38 116.64,150.33 118.66,154.12 120.68,157.90 122.59,161.36 124.51,164.82 127.04,169.12 129.58,173.41 131.77,176.91 133.96,180.42 135.85,183.79 137.75,187.16 139.60,190.15 141.45,193.13 143.21,196.31 144.97,199.49 146.30,201.98 147.62,204.47 149.29,207.45 150.96,210.44 152.52,213.12 154.08,215.81 155.52,217.96 156.96,220.10 158.60,223.02 160.24,225.93 161.56,228.71 162.88,231.49 163.75,233.60 164.62,235.71 165.82,238.18 167.02,240.65 168.29,242.71 169.55,244.76 171.64,247.98 173.72,251.20 174.86,253.22 175.99,255.23 177.25,257.39 178.51,259.55 180.62,262.86 182.72,266.18 183.66,268.10 184.60,270.03 185.39,272.99 186.18,275.94 186.36,279.63 186.54,283.32 184.58,285.92 182.61,288.52 182.39,288.88 182.18,289.25 181.86,289.53 181.53,289.80 181.14,289.96 180.75,290.12 180.32,290.15 179.90,290.18 179.49,290.07 179.08,289.96 178.72,289.72 178.37,289.48 178.11,289.15 177.85,288.81 177.71,288.41 177.57,288.01 177.57,287.58 177.57,287.16 177.70,286.75 177.83,286.35 178.09,286.01 178.34,285.67 178.69,285.43 179.04,285.19 179.45,285.07 179.86,284.95 180.28,284.97 180.71,284.99 181.10,285.15 181.50,285.30 181.83,285.58 182.15,285.85 182.37,286.21 182.60,286.57 182.69,286.99 182.79,287.40 182.74,287.82 182.70,288.25 182.52,288.63 182.35,289.02 182.06,289.33 181.77,289.64 181.39,289.84 181.02,290.05 180.60,290.12 180.18,290.19 179.76,290.12 179.34,290.06 178.97,289.86 178.59,289.67 178.29,289.36 178.00,289.05 177.82,288.67 177.64,288.28 177.59,287.86 177.54,287.44 177.63,287.02 177.72,286.61 177.72,286.61 177.72,286.61 176.11,284.12 174.51,281.62 173.86,278.49 173.21,275.36 171.60,272.51 169.99,269.66 168.82,267.78 167.65,265.90 165.42,262.00 163.19,258.09 161.01,254.72 158.83,251.35 157.65,249.43 156.47,247.51 155.33,245.61 154.19,243.70 152.85,240.28 151.51,236.85 150.39,234.45 149.27,232.06 147.88,229.55 146.49,227.05 144.86,224.57 143.22,222.10 141.62,219.32 140.01,216.53 138.28,213.41 136.56,210.30 135.31,207.90 134.06,205.50 132.46,202.59 130.86,199.68 128.87,196.45 126.89,193.22 125.16,190.10 123.43,186.98 121.15,183.32 118.88,179.65 116.31,175.20 113.74,170.75 111.78,167.17 109.82,163.58 108.12,160.26 106.42,156.94 104.36,153.65 102.29,150.36 100.30,148.03 98.30,145.71 95.99,143.32 93.68,140.93 90.90,138.05 88.13,135.18 84.99,131.79 81.85,128.41 78.44,124.36 75.04,120.31 72.99,116.94 70.95,113.58 68.93,109.99 66.92,106.40 64.88,102.69 62.83,98.99 60.88,95.28 58.92,91.57 57.50,89.26 56.09,86.95 54.59,84.57 53.08,82.18 52.09,80.18 51.09,78.17 49.57,75.94 48.06,73.71 46.84,71.68 45.63,69.66 43.95,67.30 42.28,64.95 40.89,63.24 39.51,61.54 37.91,59.82 36.32,58.10 34.63,56.11 32.95,54.12 31.20,51.65 29.45,49.18 27.55,46.08 25.66,42.98 23.57,39.92 21.48,36.87 19.31,33.75 17.14,30.63 15.56,28.53 13.98,26.42 12.50,24.37 11.02,22.31 8.74,19.15 6.47,15.98 5.24,13.78 4.02,11.58 1.98,9.04 -0.05,6.49 -0.70,4.37 -1.35,2.25 -1.60,2.05 -1.85,1.86 -2.04,1.61 -2.24,1.36 -2.37,1.07 -2.50,0.78 -2.56,0.47 -2.62,0.16 -2.60,-0.14 -2.58,-0.46 -2.49,-0.76 -2.39,-1.07 -2.23,-1.34 -2.07,-1.61 -1.84,-1.83 -1.62,-2.06 -1.35,-2.22 -1.08,-2.39 -0.78,-2.48 -0.48,-2.58 -0.16,-2.60 0.15,-2.62 0.46,-2.56 0.77,-2.51 1.06,-2.38 1.35,-2.25 1.35,-2.25 L 1.35,-2.25 Z"/></g><g transform="translate(485.96724597064303 237) rotate(0 21 -21.5)" stroke="none"><path fill="#1971c2" d="M 0.72,-2.52 Q 0.72,-2.52 2.89,-2.83 5.05,-3.14 7.88,-3.85 10.70,-4.56 14.06,-6.11 17.41,-7.67 20.46,-9.67 23.52,-11.67 26.06,-14.05 28.60,-16.44 30.28,-19.37 31.96,-22.31 32.64,-24.39 33.31,-26.47 32.46,-30.28 31.60,-34.09 30.46,-36.04 29.32,-37.99 27.30,-39.21 25.29,-40.42 23.46,-38.25 21.63,-36.08 20.81,-32.79 20.00,-29.50 19.52,-27.01 19.05,-24.52 20.23,-20.47 21.40,-16.42 23.81,-13.00 26.22,-9.58 29.82,-7.28 33.41,-4.98 36.55,-3.28 39.69,-1.58 41.20,-0.95 42.70,-0.32 43.07,-0.10 43.43,0.10 43.71,0.43 43.99,0.75 44.15,1.14 44.31,1.54 44.33,1.96 44.36,2.38 44.25,2.79 44.14,3.20 43.90,3.56 43.67,3.91 43.33,4.17 42.99,4.43 42.59,4.57 42.19,4.71 41.77,4.71 41.34,4.71 40.94,4.58 40.53,4.45 40.19,4.19 39.85,3.94 39.61,3.59 39.37,3.24 39.25,2.83 39.14,2.42 39.16,1.99 39.18,1.57 39.33,1.17 39.49,0.78 39.76,0.45 40.03,0.13 40.40,-0.08 40.76,-0.31 41.17,-0.40 41.59,-0.49 42.01,-0.45 42.43,-0.41 42.82,-0.23 43.21,-0.06 43.52,0.22 43.83,0.51 44.03,0.89 44.23,1.26 44.30,1.68 44.37,2.10 44.31,2.52 44.24,2.94 44.05,3.32 43.85,3.69 43.54,3.99 43.24,4.28 42.85,4.46 42.47,4.64 42.04,4.69 41.62,4.74 41.21,4.65 40.79,4.56 40.79,4.56 40.79,4.56 39.26,4.01 37.72,3.45 33.71,2.36 29.69,1.26 24.57,-1.65 19.46,-4.57 16.24,-9.37 13.02,-14.17 11.79,-20.00 10.55,-25.83 11.17,-29.00 11.78,-32.16 13.53,-36.78 15.28,-41.39 17.54,-43.73 19.80,-46.07 22.81,-47.22 25.82,-48.36 28.66,-47.65 31.49,-46.93 34.20,-44.76 36.90,-42.58 38.62,-39.52 40.34,-36.46 41.08,-33.53 41.83,-30.60 41.94,-27.21 42.06,-23.81 40.96,-20.69 39.87,-17.56 37.38,-13.65 34.90,-9.74 31.69,-6.84 28.49,-3.94 24.79,-1.61 21.09,0.70 16.68,2.54 12.26,4.38 7.62,4.91 2.99,5.44 1.13,3.98 -0.72,2.52 -1.01,2.40 -1.30,2.27 -1.55,2.09 -1.81,1.90 -2.01,1.65 -2.21,1.41 -2.35,1.12 -2.48,0.84 -2.55,0.53 -2.61,0.22 -2.60,-0.09 -2.59,-0.41 -2.50,-0.71 -2.42,-1.02 -2.26,-1.29 -2.10,-1.57 -1.88,-1.79 -1.66,-2.02 -1.40,-2.19 -1.13,-2.36 -0.83,-2.47 -0.53,-2.57 -0.21,-2.59 0.09,-2.62 0.40,-2.57 0.72,-2.52 0.72,-2.52 L 0.72,-2.52 Z"/></g><g transform="translate(421.96724597064303 165) rotate(0 -69 151)" stroke="none"><path fill="#1971c2" d="M 0.29,2.61 Q 0.29,2.61 -2.17,3.99 -4.63,5.37 -6.82,6.44 -9.00,7.51 -11.39,9.10 -13.77,10.68 -15.72,12.34 -17.67,14.01 -19.65,15.85 -21.63,17.70 -24.19,20.20 -26.75,22.71 -29.20,25.41 -31.64,28.11 -34.95,32.10 -38.26,36.09 -41.44,39.84 -44.61,43.60 -47.69,47.21 -50.76,50.82 -53.43,54.27 -56.10,57.73 -59.54,62.36 -62.97,66.98 -64.89,70.21 -66.81,73.43 -70.30,78.73 -73.80,84.04 -76.93,89.30 -80.06,94.57 -82.76,100.12 -85.46,105.67 -88.36,111.82 -91.26,117.96 -93.00,122.44 -94.75,126.93 -96.36,131.42 -97.97,135.91 -99.50,140.65 -101.04,145.39 -102.53,150.78 -104.02,156.18 -105.51,162.45 -107.00,168.72 -108.20,174.26 -109.41,179.79 -110.50,184.76 -111.60,189.72 -112.63,194.67 -113.66,199.63 -114.67,205.14 -115.68,210.64 -116.39,214.98 -117.10,219.32 -117.69,222.65 -118.29,225.99 -118.83,229.10 -119.36,232.21 -119.89,234.77 -120.42,237.33 -120.92,240.05 -121.42,242.77 -122.25,245.88 -123.09,248.99 -124.02,252.03 -124.95,255.06 -125.59,257.64 -126.23,260.21 -127.48,263.39 -128.73,266.58 -129.49,268.61 -130.24,270.63 -130.98,273.75 -131.73,276.87 -132.14,279.19 -132.55,281.51 -132.35,284.47 -132.16,287.43 -132.13,290.28 -132.10,293.13 -133.23,297.30 -134.37,301.47 -134.44,301.89 -134.51,302.31 -134.70,302.68 -134.90,303.06 -135.21,303.35 -135.52,303.64 -135.91,303.82 -136.29,304.00 -136.71,304.05 -137.14,304.09 -137.55,304.00 -137.97,303.91 -138.33,303.69 -138.69,303.47 -138.97,303.15 -139.25,302.83 -139.40,302.43 -139.56,302.04 -139.58,301.61 -139.61,301.19 -139.49,300.78 -139.38,300.37 -139.14,300.02 -138.90,299.67 -138.57,299.41 -138.23,299.15 -137.82,299.01 -137.42,298.88 -137.00,298.88 -136.57,298.88 -136.17,299.01 -135.77,299.15 -135.43,299.41 -135.09,299.66 -134.85,300.01 -134.61,300.37 -134.50,300.78 -134.38,301.19 -134.41,301.61 -134.43,302.03 -134.59,302.43 -134.74,302.82 -135.02,303.15 -135.29,303.47 -135.66,303.69 -136.02,303.91 -136.44,304.00 -136.85,304.09 -137.27,304.05 -137.70,304.00 -138.08,303.82 -138.47,303.65 -138.78,303.35 -139.09,303.06 -139.28,302.69 -139.48,302.31 -139.55,301.89 -139.62,301.47 -139.62,301.47 -139.62,301.47 -140.76,299.00 -141.89,296.53 -141.91,293.64 -141.94,290.76 -142.01,287.70 -142.09,284.63 -142.17,282.24 -142.26,279.85 -141.87,277.69 -141.49,275.52 -140.47,271.36 -139.45,267.20 -138.66,265.06 -137.86,262.92 -136.81,260.37 -135.76,257.81 -135.06,254.99 -134.35,252.17 -133.46,249.29 -132.57,246.41 -131.82,243.71 -131.07,241.00 -130.56,238.17 -130.04,235.33 -129.54,232.93 -129.04,230.54 -128.49,227.39 -127.94,224.25 -127.35,220.99 -126.77,217.73 -126.04,213.31 -125.31,208.89 -124.28,203.26 -123.26,197.63 -122.21,192.62 -121.17,187.61 -120.07,182.66 -118.98,177.70 -117.76,172.08 -116.53,166.46 -115.00,160.01 -113.46,153.56 -111.91,147.97 -110.35,142.37 -108.77,137.49 -107.19,132.60 -105.54,127.98 -103.88,123.36 -102.00,118.57 -100.12,113.78 -97.20,107.58 -94.27,101.37 -91.38,95.46 -88.49,89.55 -85.23,84.08 -81.97,78.60 -78.55,73.52 -75.13,68.45 -72.95,64.82 -70.77,61.20 -67.28,56.49 -63.78,51.79 -60.97,48.15 -58.15,44.52 -55.09,40.93 -52.03,37.33 -48.88,33.60 -45.73,29.88 -42.28,25.73 -38.83,21.59 -36.18,18.68 -33.53,15.76 -30.88,13.18 -28.24,10.60 -26.08,8.59 -23.92,6.59 -21.53,4.60 -19.14,2.61 -16.74,1.01 -14.33,-0.58 -10.02,-2.40 -5.71,-4.22 -3.00,-3.41 -0.29,-2.61 0.02,-2.60 0.34,-2.60 0.64,-2.52 0.95,-2.44 1.23,-2.29 1.51,-2.14 1.74,-1.93 1.98,-1.72 2.16,-1.45 2.33,-1.19 2.44,-0.89 2.55,-0.60 2.59,-0.28 2.62,0.02 2.58,0.34 2.54,0.65 2.42,0.94 2.31,1.24 2.13,1.50 1.94,1.76 1.70,1.96 1.46,2.17 1.18,2.32 0.90,2.46 0.59,2.53 0.28,2.61 0.28,2.61 L 0.29,2.61 Z"/></g><g transform="translate(263.96724597064303 497) rotate(0 -4.5 15.5)" stroke="none"><path fill="#1971c2" d="M 2.05,1.64 Q 2.05,1.64 1.94,3.85 1.84,6.06 0.86,9.12 -0.10,12.17 -0.99,14.80 -1.87,17.43 -2.89,21.05 -3.91,24.67 -4.64,28.43 -5.37,32.18 -5.44,32.60 -5.51,33.02 -5.71,33.40 -5.90,33.77 -6.21,34.07 -6.52,34.36 -6.90,34.54 -7.29,34.72 -7.71,34.77 -8.13,34.82 -8.55,34.73 -8.97,34.64 -9.33,34.42 -9.69,34.20 -9.97,33.88 -10.25,33.55 -10.41,33.16 -10.56,32.77 -10.59,32.34 -10.61,31.92 -10.50,31.51 -10.39,31.10 -10.15,30.74 -9.91,30.39 -9.58,30.13 -9.24,29.88 -8.84,29.74 -8.43,29.60 -8.01,29.60 -7.58,29.60 -7.18,29.73 -6.78,29.87 -6.44,30.12 -6.10,30.38 -5.86,30.73 -5.62,31.08 -5.51,31.49 -5.39,31.90 -5.41,32.32 -5.43,32.75 -5.59,33.14 -5.75,33.54 -6.02,33.86 -6.29,34.19 -6.66,34.41 -7.02,34.63 -7.44,34.72 -7.85,34.81 -8.27,34.77 -8.70,34.73 -9.08,34.55 -9.47,34.37 -9.78,34.08 -10.09,33.79 -10.29,33.41 -10.49,33.04 -10.56,32.62 -10.63,32.20 -10.63,32.20 -10.63,32.20 -11.39,27.78 -12.15,23.36 -11.86,18.89 -11.57,14.41 -10.73,11.54 -9.89,8.66 -8.16,4.17 -6.44,-0.31 -4.24,-0.98 -2.05,-1.64 -1.82,-1.86 -1.59,-2.08 -1.32,-2.24 -1.05,-2.40 -0.75,-2.49 -0.44,-2.58 -0.13,-2.60 0.18,-2.62 0.49,-2.55 0.80,-2.49 1.09,-2.36 1.38,-2.23 1.62,-2.03 1.87,-1.83 2.06,-1.58 2.26,-1.33 2.38,-1.04 2.51,-0.75 2.56,-0.44 2.62,-0.13 2.60,0.18 2.57,0.49 2.48,0.80 2.38,1.10 2.21,1.37 2.05,1.64 2.05,1.64 L 2.05,1.64 Z"/></g><g transform="translate(262.96724597064303 493) rotate(0 -1.5 28.5)" stroke="none"><path fill="#1971c2" d="M 2.61,0.21 Q 2.61,0.21 3.50,3.76 4.38,7.31 4.01,13.06 3.63,18.81 3.50,24.05 3.37,29.28 3.02,34.24 2.66,39.20 2.51,43.18 2.36,47.16 2.30,50.01 2.24,52.85 1.80,55.03 1.37,57.21 1.32,57.52 1.28,57.84 1.16,58.13 1.04,58.43 0.85,58.68 0.67,58.94 0.43,59.14 0.18,59.35 -0.09,59.49 -0.37,59.63 -0.68,59.70 -0.99,59.77 -1.31,59.76 -1.62,59.75 -1.93,59.67 -2.24,59.59 -2.51,59.43 -2.79,59.28 -3.02,59.06 -3.25,58.85 -3.43,58.58 -3.60,58.32 -3.71,58.02 -3.81,57.72 -3.84,57.41 -3.88,57.09 -2.86,55.84 -1.84,54.59 -1.42,54.57 -1.00,54.54 -0.58,54.65 -0.17,54.76 0.17,54.99 0.52,55.22 0.79,55.56 1.05,55.90 1.19,56.30 1.33,56.70 1.33,57.12 1.34,57.55 1.21,57.95 1.08,58.36 0.82,58.70 0.57,59.04 0.22,59.28 -0.12,59.52 -0.53,59.64 -0.94,59.76 -1.36,59.74 -1.78,59.72 -2.18,59.57 -2.58,59.42 -2.90,59.15 -3.23,58.88 -3.45,58.51 -3.68,58.15 -3.77,57.74 -3.87,57.32 -3.83,56.90 -3.79,56.48 -3.61,56.09 -3.44,55.70 -3.15,55.39 -2.86,55.08 -2.49,54.88 -2.12,54.67 -1.70,54.60 -1.28,54.53 -0.86,54.59 -0.44,54.65 -0.06,54.85 0.31,55.04 0.60,55.35 0.90,55.65 1.08,56.04 1.26,56.42 1.31,56.84 1.36,57.26 1.28,57.68 1.19,58.10 0.98,58.46 0.76,58.83 0.44,59.11 0.12,59.39 0.74,58.30 1.37,57.21 1.32,57.52 1.28,57.84 1.16,58.13 1.04,58.42 0.85,58.68 0.67,58.94 0.43,59.14 0.18,59.35 -0.09,59.49 -0.37,59.63 -0.68,59.70 -0.99,59.77 -1.31,59.76 -1.62,59.75 -1.93,59.67 -2.24,59.59 -2.51,59.43 -2.79,59.28 -3.02,59.06 -3.25,58.85 -3.43,58.58 -3.60,58.32 -3.71,58.02 -3.81,57.72 -3.84,57.41 -3.88,57.09 -5.96,54.86 -8.04,52.62 -7.98,49.70 -7.91,46.78 -7.75,42.61 -7.59,38.44 -7.22,33.69 -6.85,28.95 -6.64,23.52 -6.42,18.10 -5.98,12.29 -5.53,6.48 -4.07,3.13 -2.61,-0.21 -2.55,-0.52 -2.48,-0.83 -2.35,-1.12 -2.21,-1.40 -2.01,-1.65 -1.81,-1.89 -1.56,-2.08 -1.30,-2.27 -1.01,-2.40 -0.72,-2.52 -0.41,-2.57 -0.09,-2.62 0.21,-2.59 0.53,-2.57 0.83,-2.47 1.13,-2.37 1.39,-2.20 1.66,-2.03 1.88,-1.80 2.10,-1.57 2.26,-1.29 2.41,-1.02 2.50,-0.71 2.59,-0.41 2.60,-0.09 2.61,0.21 2.61,0.21 L 2.61,0.21 Z"/></g><g transform="translate(259.96724597064303 495) rotate(0 16.5 -2)" stroke="none"><path fill="#1971c2" d="M -0.63,-2.54 Q -0.63,-2.54 2.61,-4.20 5.86,-5.86 10.09,-6.54 14.33,-7.23 18.26,-7.37 22.19,-7.51 26.71,-6.62 31.24,-5.72 31.66,-5.63 32.07,-5.54 32.43,-5.32 32.80,-5.10 33.07,-4.78 33.35,-4.45 33.50,-4.06 33.66,-3.66 33.68,-3.24 33.71,-2.81 33.59,-2.40 33.48,-1.99 33.24,-1.64 33.00,-1.29 32.66,-1.04 32.32,-0.78 31.92,-0.64 31.51,-0.51 31.09,-0.51 30.66,-0.51 30.26,-0.65 29.86,-0.78 29.52,-1.04 29.18,-1.30 28.95,-1.65 28.71,-2.00 28.60,-2.41 28.48,-2.82 28.51,-3.25 28.53,-3.67 28.69,-4.07 28.85,-4.46 29.12,-4.78 29.40,-5.11 29.76,-5.33 30.13,-5.54 30.54,-5.63 30.96,-5.72 31.38,-5.68 31.80,-5.63 32.19,-5.45 32.57,-5.27 32.88,-4.98 33.19,-4.69 33.39,-4.31 33.59,-3.94 33.65,-3.52 33.72,-3.10 33.65,-2.68 33.58,-2.26 33.38,-1.88 33.18,-1.51 32.87,-1.22 32.56,-0.92 32.18,-0.75 31.79,-0.57 31.37,-0.52 30.95,-0.48 30.95,-0.48 30.95,-0.48 26.85,-0.07 22.76,0.33 19.22,0.75 15.68,1.16 11.80,1.79 7.93,2.41 4.28,2.48 0.63,2.54 0.32,2.58 0.00,2.62 -0.30,2.58 -0.62,2.55 -0.91,2.44 -1.21,2.32 -1.47,2.15 -1.73,1.97 -1.94,1.73 -2.15,1.49 -2.30,1.21 -2.45,0.93 -2.52,0.63 -2.60,0.32 -2.60,0.00 -2.60,-0.30 -2.53,-0.61 -2.45,-0.92 -2.31,-1.20 -2.16,-1.48 -1.95,-1.72 -1.74,-1.96 -1.48,-2.14 -1.22,-2.32 -0.93,-2.43 -0.63,-2.54 -0.63,-2.54 L -0.63,-2.54 Z"/></g><g transform="translate(259.96724597064303 525) rotate(0 9 -2)" stroke="none"><path fill="#1971c2" d="M -0.74,-2.51 Q -0.74,-2.51 4.06,-4.25 8.86,-5.98 12.35,-6.56 15.85,-7.15 16.28,-7.19 16.70,-7.23 17.11,-7.13 17.53,-7.03 17.89,-6.81 18.25,-6.58 18.51,-6.25 18.78,-5.92 18.93,-5.53 19.08,-5.13 19.10,-4.70 19.12,-4.28 18.99,-3.87 18.87,-3.47 18.63,-3.12 18.38,-2.77 18.04,-2.52 17.70,-2.27 17.29,-2.14 16.89,-2.01 16.46,-2.02 16.04,-2.03 15.64,-2.17 15.24,-2.31 14.90,-2.58 14.57,-2.84 14.34,-3.20 14.11,-3.55 14.00,-3.96 13.89,-4.37 13.92,-4.80 13.95,-5.22 14.12,-5.61 14.28,-6.01 14.56,-6.32 14.85,-6.64 15.21,-6.86 15.58,-7.07 16.00,-7.15 16.41,-7.24 16.84,-7.18 17.26,-7.13 17.64,-6.94 18.02,-6.76 18.33,-6.46 18.63,-6.16 18.82,-5.78 19.01,-5.40 19.07,-4.98 19.14,-4.56 19.06,-4.15 18.98,-3.73 18.78,-3.36 18.57,-2.98 18.26,-2.70 17.94,-2.41 17.55,-2.24 17.17,-2.07 17.17,-2.07 17.17,-2.07 13.92,-0.92 10.68,0.23 5.71,1.37 0.74,2.51 0.42,2.57 0.11,2.62 -0.19,2.59 -0.51,2.57 -0.81,2.47 -1.11,2.37 -1.38,2.20 -1.65,2.04 -1.87,1.81 -2.09,1.58 -2.25,1.31 -2.41,1.03 -2.50,0.73 -2.59,0.43 -2.60,0.11 -2.61,-0.20 -2.55,-0.51 -2.49,-0.82 -2.36,-1.10 -2.22,-1.39 -2.02,-1.64 -1.82,-1.88 -1.57,-2.07 -1.32,-2.26 -1.03,-2.39 -0.74,-2.51 -0.74,-2.51 L -0.74,-2.51 Z"/></g><g transform="translate(255.96724597064303 547) rotate(0 13.5 -2)" stroke="none"><path fill="#1971c2" d="M -0.77,-2.51 Q -0.77,-2.51 2.76,-4.33 6.30,-6.15 11.45,-6.51 16.61,-6.86 20.93,-6.27 25.26,-5.67 25.67,-5.59 26.09,-5.51 26.46,-5.30 26.83,-5.09 27.12,-4.77 27.40,-4.46 27.57,-4.07 27.73,-3.68 27.77,-3.25 27.80,-2.83 27.70,-2.42 27.60,-2.01 27.37,-1.65 27.14,-1.29 26.81,-1.02 26.48,-0.76 26.08,-0.61 25.68,-0.47 25.25,-0.45 24.83,-0.44 24.42,-0.57 24.02,-0.69 23.67,-0.94 23.33,-1.19 23.08,-1.53 22.83,-1.88 22.71,-2.29 22.58,-2.69 22.59,-3.12 22.61,-3.54 22.75,-3.94 22.90,-4.34 23.17,-4.67 23.43,-5.00 23.79,-5.23 24.15,-5.46 24.56,-5.56 24.97,-5.66 25.40,-5.63 25.82,-5.59 26.21,-5.43 26.60,-5.26 26.92,-4.97 27.23,-4.69 27.44,-4.32 27.65,-3.95 27.73,-3.53 27.81,-3.11 27.75,-2.69 27.69,-2.27 27.51,-1.89 27.32,-1.51 27.02,-1.21 26.72,-0.91 26.33,-0.72 25.95,-0.53 25.53,-0.48 25.11,-0.42 25.11,-0.42 25.11,-0.42 21.22,-0.05 17.34,0.30 12.99,0.93 8.64,1.55 4.70,2.03 0.77,2.51 0.46,2.56 0.14,2.62 -0.16,2.60 -0.48,2.58 -0.78,2.48 -1.08,2.39 -1.35,2.22 -1.62,2.06 -1.85,1.83 -2.07,1.61 -2.23,1.34 -2.39,1.06 -2.49,0.76 -2.58,0.46 -2.60,0.14 -2.62,-0.16 -2.56,-0.47 -2.50,-0.79 -2.37,-1.07 -2.24,-1.36 -2.04,-1.61 -1.85,-1.86 -1.60,-2.05 -1.35,-2.25 -1.06,-2.38 -0.77,-2.51 -0.77,-2.51 L -0.77,-2.51 Z"/></g><g transform="translate(753.967245970643 161) rotate(0 64.5 151.5)" stroke="none"><path fill="#1971c2" d="M -2.62,0 Q -2.62,0 -3.25,-2.01 -3.87,-4.02 -3.92,-4.59 -3.98,-5.16 -3.92,-5.63 -3.86,-6.11 -3.69,-6.56 -3.52,-7.01 -3.25,-7.40 -2.97,-7.80 -2.62,-8.11 -2.26,-8.43 -1.83,-8.65 -1.41,-8.88 -0.94,-8.99 -0.47,-9.11 0.00,-9.11 0.48,-9.11 0.94,-8.99 1.41,-8.88 1.83,-8.65 2.26,-8.43 2.62,-8.11 2.97,-7.80 3.25,-7.40 3.52,-7.01 3.69,-6.56 3.86,-6.11 3.92,-5.63 3.98,-5.16 2.75,-7.10 1.53,-9.05 5.78,-5.47 10.03,-1.89 13.10,1.45 16.18,4.80 19.96,8.36 23.73,11.91 27.79,16.13 31.85,20.35 35.96,25.05 40.06,29.75 45.56,36.32 51.07,42.89 55.82,49.57 60.57,56.25 64.91,62.82 69.26,69.39 73.69,76.18 78.11,82.96 83.74,91.58 89.38,100.20 93.83,107.36 98.28,114.52 101.99,121.77 105.71,129.01 108.76,136.21 111.82,143.42 114.56,150.18 117.29,156.94 119.63,162.99 121.97,169.05 124.21,176.40 126.44,183.76 127.71,190.24 128.98,196.72 129.82,202.67 130.66,208.62 131.04,214.47 131.42,220.32 131.87,227.31 132.32,234.29 132.79,239.78 133.27,245.27 133.77,250.48 134.28,255.69 134.50,259.17 134.72,262.64 134.54,266.17 134.35,269.71 134.29,273.79 134.23,277.88 133.91,281.89 133.59,285.89 133.17,289.36 132.74,292.83 132.27,296.04 131.80,299.25 131.63,301.79 131.46,304.34 129.55,306.93 127.64,309.53 127.56,309.94 127.47,310.36 127.26,310.73 127.04,311.09 126.72,311.37 126.40,311.65 126.01,311.82 125.62,311.98 125.20,312.01 124.77,312.04 124.36,311.93 123.95,311.82 123.59,311.59 123.24,311.36 122.98,311.02 122.72,310.69 122.57,310.29 122.43,309.89 122.43,309.46 122.42,309.04 122.55,308.63 122.68,308.23 122.93,307.88 123.18,307.54 123.53,307.30 123.88,307.06 124.29,306.94 124.70,306.82 125.12,306.83 125.54,306.85 125.94,307.00 126.34,307.15 126.67,307.42 126.99,307.69 127.22,308.05 127.44,308.42 127.54,308.83 127.64,309.24 127.60,309.67 127.56,310.09 127.39,310.48 127.21,310.87 126.93,311.18 126.64,311.49 126.26,311.70 125.89,311.90 125.47,311.97 125.06,312.05 124.64,311.99 124.21,311.92 123.84,311.73 123.46,311.54 123.16,311.23 122.87,310.93 122.68,310.55 122.50,310.16 122.45,309.74 122.39,309.32 122.39,309.32 122.39,309.32 120.76,306.39 119.12,303.45 119.35,300.44 119.58,297.44 120.04,294.36 120.50,291.28 120.93,288.06 121.35,284.85 121.68,281.24 122.01,277.64 122.12,273.29 122.23,268.94 122.44,266.16 122.66,263.37 122.46,260.09 122.27,256.81 121.80,251.55 121.33,246.28 120.86,240.65 120.40,235.03 119.99,228.03 119.57,221.03 119.28,215.63 118.98,210.22 118.24,204.57 117.49,198.92 116.38,193.00 115.27,187.07 113.25,180.11 111.23,173.15 108.98,167.16 106.72,161.18 104.06,154.50 101.40,147.81 98.53,140.97 95.66,134.13 92.19,127.27 88.72,120.42 84.38,113.34 80.04,106.26 74.46,97.60 68.88,88.94 64.51,82.14 60.14,75.35 55.97,68.89 51.80,62.43 47.34,56.04 42.88,49.65 37.53,43.07 32.18,36.49 28.33,31.89 24.49,27.30 20.67,23.16 16.85,19.02 12.90,15.10 8.96,11.18 6.05,7.76 3.13,4.34 1.37,1.63 -0.38,-1.08 -2.18,-3.12 -3.98,-5.16 -3.92,-5.63 -3.86,-6.11 -3.69,-6.56 -3.52,-7.01 -3.25,-7.40 -2.97,-7.80 -2.62,-8.11 -2.26,-8.43 -1.83,-8.65 -1.41,-8.88 -0.94,-8.99 -0.48,-9.11 -0.00,-9.11 0.47,-9.11 0.94,-8.99 1.41,-8.88 1.83,-8.65 2.26,-8.43 2.62,-8.11 2.97,-7.80 3.25,-7.40 3.52,-7.01 3.69,-6.56 3.86,-6.11 3.92,-5.63 3.98,-5.16 3.92,-4.59 3.87,-4.02 3.25,-2.01 2.62,0 2.58,0.31 2.55,0.62 2.43,0.92 2.32,1.22 2.14,1.48 1.96,1.74 1.72,1.95 1.49,2.16 1.21,2.30 0.93,2.45 0.62,2.53 0.31,2.60 -0.00,2.60 -0.31,2.60 -0.62,2.53 -0.93,2.45 -1.21,2.30 -1.49,2.16 -1.72,1.95 -1.96,1.74 -2.14,1.48 -2.32,1.22 -2.43,0.92 -2.55,0.62 -2.58,0.31 -2.62,-0.00 -2.62,-0.00 L -2.62,0 Z"/></g><g transform="translate(880.967245970643 502) rotate(0 -5 23)" stroke="none"><path fill="#1971c2" d="M 2.51,0.74 Q 2.51,0.74 1.63,5.79 0.74,10.84 -0.60,15.83 -1.95,20.82 -3.11,25.70 -4.26,30.58 -4.48,34.06 -4.70,37.55 -5.13,39.97 -5.55,42.40 -5.57,43.57 -5.59,44.73 -5.56,45.16 -5.54,45.58 -5.64,45.99 -5.75,46.40 -5.99,46.76 -6.22,47.11 -6.56,47.37 -6.89,47.63 -7.29,47.77 -7.69,47.92 -8.12,47.92 -8.54,47.93 -8.95,47.80 -9.35,47.66 -9.69,47.41 -10.03,47.16 -10.28,46.81 -10.52,46.46 -10.64,46.05 -10.76,45.64 -10.74,45.22 -10.72,44.80 -10.57,44.40 -10.42,44.00 -10.15,43.68 -9.88,43.35 -9.51,43.12 -9.15,42.90 -8.74,42.80 -8.32,42.71 -7.90,42.75 -7.48,42.79 -7.09,42.96 -6.70,43.14 -6.39,43.43 -6.08,43.71 -5.88,44.09 -5.67,44.46 -5.60,44.88 -5.52,45.30 -5.59,45.72 -5.65,46.14 -5.85,46.51 -6.04,46.89 -6.35,47.19 -6.65,47.48 -7.03,47.67 -7.42,47.85 -7.84,47.90 -8.26,47.95 -8.68,47.87 -9.09,47.78 -9.46,47.57 -9.83,47.35 -10.11,47.03 -10.38,46.71 -10.55,46.32 -10.71,45.92 -10.71,45.92 -10.71,45.93 -11.43,44.07 -12.16,42.21 -12.39,39.65 -12.63,37.09 -12.40,32.89 -12.18,28.69 -10.93,23.61 -9.68,18.52 -8.09,13.61 -6.49,8.70 -4.50,3.98 -2.51,-0.74 -2.39,-1.03 -2.26,-1.32 -2.07,-1.57 -1.88,-1.82 -1.64,-2.02 -1.39,-2.22 -1.10,-2.36 -0.82,-2.49 -0.51,-2.55 -0.20,-2.61 0.11,-2.60 0.43,-2.59 0.73,-2.50 1.03,-2.41 1.31,-2.25 1.58,-2.09 1.81,-1.87 2.04,-1.65 2.20,-1.38 2.37,-1.11 2.47,-0.81 2.57,-0.51 2.59,-0.19 2.62,0.11 2.57,0.42 2.51,0.74 2.51,0.74 L 2.51,0.74 Z"/></g><g transform="translate(876.967245970643 510) rotate(0 14.5 -4)" stroke="none"><path fill="#1971c2" d="M -1.52,-2.13 Q -1.52,-2.13 -0.05,-4.35 1.42,-6.58 5.08,-8.05 8.73,-9.52 12.72,-10.29 16.71,-11.05 21.81,-10.32 26.90,-9.59 27.32,-9.53 27.74,-9.47 28.12,-9.27 28.50,-9.08 28.79,-8.77 29.09,-8.47 29.28,-8.09 29.46,-7.70 29.51,-7.28 29.56,-6.86 29.48,-6.44 29.39,-6.03 29.18,-5.66 28.97,-5.29 28.65,-5.01 28.33,-4.73 27.93,-4.57 27.54,-4.41 27.12,-4.38 26.69,-4.35 26.28,-4.46 25.87,-4.56 25.52,-4.80 25.16,-5.03 24.90,-5.37 24.64,-5.70 24.50,-6.10 24.35,-6.50 24.35,-6.93 24.34,-7.35 24.47,-7.76 24.60,-8.16 24.85,-8.50 25.10,-8.84 25.45,-9.09 25.80,-9.33 26.21,-9.45 26.62,-9.57 27.04,-9.55 27.47,-9.54 27.86,-9.39 28.26,-9.23 28.59,-8.96 28.92,-8.69 29.14,-8.33 29.36,-7.97 29.46,-7.56 29.56,-7.15 29.52,-6.72 29.48,-6.30 29.31,-5.91 29.13,-5.52 28.85,-5.21 28.56,-4.90 28.19,-4.69 27.81,-4.49 27.40,-4.41 26.98,-4.34 26.98,-4.34 26.98,-4.34 22.75,-3.47 18.51,-2.60 15.22,-1.78 11.93,-0.96 9.28,-0.06 6.62,0.83 4.07,1.48 1.52,2.13 1.24,2.28 0.97,2.44 0.66,2.52 0.35,2.60 0.04,2.60 -0.27,2.61 -0.58,2.54 -0.89,2.47 -1.17,2.32 -1.45,2.18 -1.69,1.97 -1.93,1.77 -2.12,1.51 -2.30,1.25 -2.42,0.96 -2.53,0.66 -2.58,0.35 -2.62,0.04 -2.59,-0.27 -2.56,-0.58 -2.45,-0.88 -2.34,-1.18 -2.16,-1.44 -1.99,-1.71 -1.76,-1.92 -1.52,-2.13 -1.52,-2.13 L -1.52,-2.13 Z"/></g><g transform="translate(872.967245970643 527) rotate(0 11 1)" stroke="none"><path fill="#1971c2" d="M 0.46,-2.58 Q 0.46,-2.58 3.72,-2.55 6.97,-2.51 11.14,-2.53 15.30,-2.55 17.22,-2.07 19.14,-1.59 19.56,-1.53 19.98,-1.46 20.36,-1.27 20.73,-1.07 21.03,-0.77 21.32,-0.46 21.51,-0.08 21.69,0.30 21.74,0.72 21.79,1.14 21.70,1.56 21.61,1.97 21.40,2.34 21.18,2.70 20.86,2.98 20.54,3.26 20.15,3.42 19.75,3.58 19.33,3.61 18.90,3.64 18.49,3.53 18.08,3.42 17.73,3.18 17.38,2.95 17.12,2.61 16.85,2.27 16.72,1.87 16.58,1.47 16.57,1.05 16.57,0.62 16.70,0.22 16.83,-0.18 17.09,-0.52 17.34,-0.86 17.69,-1.10 18.04,-1.34 18.45,-1.46 18.86,-1.58 19.28,-1.56 19.70,-1.54 20.10,-1.38 20.50,-1.23 20.82,-0.96 21.15,-0.69 21.37,-0.32 21.59,0.03 21.69,0.44 21.79,0.86 21.74,1.28 21.70,1.70 21.53,2.09 21.35,2.48 21.06,2.79 20.77,3.10 20.40,3.30 20.03,3.50 19.61,3.58 19.19,3.65 19.19,3.65 19.19,3.65 17.28,4.16 15.37,4.68 10.52,4.75 5.67,4.81 2.60,3.70 -0.46,2.58 -0.77,2.49 -1.07,2.39 -1.34,2.23 -1.61,2.06 -1.84,1.84 -2.06,1.62 -2.22,1.35 -2.39,1.08 -2.48,0.77 -2.58,0.47 -2.60,0.16 -2.62,-0.15 -2.56,-0.46 -2.50,-0.77 -2.37,-1.06 -2.24,-1.35 -2.05,-1.60 -1.85,-1.85 -1.61,-2.05 -1.36,-2.24 -1.07,-2.37 -0.78,-2.50 -0.47,-2.56 -0.16,-2.62 0.15,-2.60 0.47,-2.58 0.46,-2.58 L 0.46,-2.58 Z"/></g></svg>