<svg version="1.1" xmlns="http://www.w3.org/2000/svg" viewBox="0 0 1238.9615179403327 1006" width="1238.9615179403327" height="1006" filter="invert(93%) hue-rotate(180deg)">
  <!-- svg-source:excalidraw -->
  
  <defs>
    <style class="style-fonts">
      @font-face {
        font-family: "Virgil";
        src: url("https://excalidraw.com/Virgil.woff2");
      }
      @font-face {
        font-family: "Cascadia";
        src: url("https://excalidraw.com/Cascadia.woff2");
      }
    </style>
    
  </defs>
  <rect x="0" y="0" width="1238.9615179403327" height="1006" fill="transparent"/><g stroke-linecap="round"><g transform="translate(53 436) rotate(0 588 8.5)"><path d="M-0.13 -0.08 C195.89 2.79, 979.93 14.3, 1175.96 17.18 M0.16 -0.28 C196.16 2.54, 979.82 14.06, 1175.79 16.92" stroke="#1e1e1e" stroke-width="2" fill="none"/></g></g><mask/><g stroke-linecap="round"><g transform="translate(209 45) rotate(0 -13 421.5)"><path d="M-0.08 0.06 C-4.4 140.58, -21.6 702.59, -25.92 843.07 M0.31 -0.12 C-4.03 140.34, -21.65 702.14, -26.06 842.69" stroke="#1e1e1e" stroke-width="2" fill="none"/></g></g><mask/><g transform="translate(179 38) rotate(0 -5.5 19.5)" stroke="none"><path fill="#1e1e1e" d="M 2.51,0.77 Q 2.51,0.77 2.51,4.86 2.51,8.95 1.89,11.89 1.28,14.84 0.41,17.97 -0.45,21.11 -1.41,24.16 -2.37,27.21 -3.13,29.97 -3.89,32.73 -5.99,35.54 -8.09,38.34 -8.27,38.73 -8.45,39.12 -8.74,39.43 -9.03,39.74 -9.40,39.94 -9.78,40.14 -10.20,40.21 -10.62,40.28 -11.04,40.21 -11.46,40.14 -11.83,39.95 -12.21,39.75 -12.50,39.44 -12.80,39.14 -12.98,38.75 -13.16,38.37 -13.20,37.94 -13.25,37.52 -13.16,37.11 -13.07,36.69 -12.86,36.33 -12.64,35.96 -12.32,35.68 -11.99,35.41 -11.60,35.25 -11.20,35.09 -10.78,35.06 -10.36,35.04 -9.95,35.15 -9.54,35.26 -9.18,35.50 -8.83,35.74 -8.57,36.07 -8.31,36.41 -8.18,36.81 -8.04,37.22 -8.04,37.64 -8.03,38.06 -8.17,38.47 -8.30,38.87 -8.56,39.21 -8.81,39.55 -9.16,39.79 -9.52,40.03 -9.92,40.15 -10.33,40.26 -10.76,40.24 -11.18,40.22 -11.58,40.06 -11.97,39.91 -12.30,39.63 -12.62,39.36 -12.84,39.00 -13.06,38.63 -13.16,38.22 -13.25,37.81 -13.21,37.38 -13.16,36.96 -13.16,36.96 -13.16,36.96 -13.60,33.67 -14.05,30.38 -13.42,27.14 -12.78,23.89 -11.82,20.94 -10.86,17.98 -9.92,15.09 -8.98,12.20 -8.04,9.10 -7.11,5.99 -4.81,2.61 -2.51,-0.77 -2.38,-1.06 -2.25,-1.35 -2.05,-1.60 -1.86,-1.85 -1.61,-2.04 -1.36,-2.24 -1.07,-2.37 -0.79,-2.50 -0.47,-2.56 -0.16,-2.62 0.14,-2.60 0.46,-2.58 0.76,-2.49 1.06,-2.39 1.34,-2.23 1.61,-2.07 1.83,-1.85 2.06,-1.62 2.22,-1.35 2.39,-1.08 2.48,-0.78 2.58,-0.48 2.60,-0.16 2.62,0.14 2.56,0.46 2.51,0.77 2.51,0.77 L 2.51,0.77 Z"/></g><g transform="translate(171 14) rotate(0 20.5 11.5)" stroke="none"><path fill="#1e1e1e" d="M 2.62,0 Q 2.62,0 3.46,2.87 4.29,5.75 4.37,9.27 4.45,12.79 4.74,15.80 5.03,18.81 7.35,16.36 9.67,13.92 14.07,9.80 18.48,5.69 22.81,2.38 27.13,-0.91 31.07,-2.70 35.01,-4.49 36.77,-4.79 38.54,-5.09 38.94,-5.23 39.34,-5.37 39.76,-5.38 40.19,-5.39 40.59,-5.26 41.00,-5.13 41.34,-4.88 41.68,-4.63 41.93,-4.28 42.17,-3.93 42.29,-3.52 42.41,-3.11 42.39,-2.69 42.38,-2.26 42.23,-1.87 42.08,-1.47 41.81,-1.14 41.54,-0.81 41.17,-0.59 40.81,-0.36 40.40,-0.27 39.99,-0.17 39.56,-0.21 39.14,-0.25 38.75,-0.42 38.36,-0.59 38.05,-0.88 37.74,-1.17 37.53,-1.54 37.33,-1.91 37.25,-2.33 37.18,-2.75 37.24,-3.17 37.30,-3.59 37.50,-3.97 37.69,-4.35 37.99,-4.64 38.30,-4.94 38.68,-5.12 39.06,-5.31 39.48,-5.36 39.91,-5.41 40.32,-5.33 40.74,-5.24 41.11,-5.03 41.47,-4.82 41.75,-4.50 42.03,-4.18 42.20,-3.79 42.36,-3.39 42.39,-2.97 42.42,-2.55 42.31,-2.13 42.20,-1.72 41.97,-1.37 41.74,-1.01 41.40,-0.75 41.07,-0.49 41.07,-0.49 41.07,-0.49 39.87,0.83 38.67,2.16 35.64,4.21 32.60,6.26 28.63,9.29 24.67,12.31 20.38,16.32 16.10,20.33 12.95,23.42 9.79,26.52 7.07,27.63 4.36,28.75 1.17,27.10 -2.01,25.45 -2.94,22.55 -3.88,19.65 -4.16,16.22 -4.45,12.79 -4.37,9.27 -4.29,5.75 -3.46,2.87 -2.62,0 -2.58,-0.31 -2.55,-0.62 -2.43,-0.92 -2.32,-1.22 -2.14,-1.48 -1.96,-1.74 -1.72,-1.95 -1.49,-2.16 -1.21,-2.30 -0.93,-2.45 -0.62,-2.53 -0.31,-2.60 0.00,-2.60 0.31,-2.60 0.62,-2.53 0.93,-2.45 1.21,-2.30 1.49,-2.16 1.72,-1.95 1.96,-1.74 2.14,-1.48 2.32,-1.22 2.43,-0.92 2.55,-0.62 2.58,-0.31 2.62,0.00 2.62,0.00 L 2.62,0 Z"/></g><g transform="translate(59 408) rotate(0 14 -13)" stroke="none"><path fill="#1e1e1e" d="M -1.74,-1.96 Q -1.74,-1.96 -0.11,-5.33 1.52,-8.70 4.84,-11.91 8.15,-15.11 12.05,-18.47 15.95,-21.82 20.30,-24.14 24.65,-26.46 25.01,-26.69 25.36,-26.93 25.77,-27.04 26.18,-27.16 26.60,-27.13 27.03,-27.11 27.42,-26.95 27.81,-26.79 28.14,-26.51 28.46,-26.24 28.68,-25.87 28.90,-25.51 28.99,-25.09 29.08,-24.68 29.03,-24.26 28.98,-23.83 28.80,-23.45 28.62,-23.06 28.33,-22.76 28.04,-22.45 27.66,-22.25 27.28,-22.05 26.86,-21.98 26.44,-21.92 26.03,-21.99 25.61,-22.06 25.23,-22.26 24.86,-22.46 24.57,-22.77 24.27,-23.08 24.10,-23.46 23.92,-23.85 23.88,-24.27 23.83,-24.69 23.92,-25.11 24.02,-25.52 24.24,-25.89 24.46,-26.25 24.78,-26.53 25.11,-26.80 25.50,-26.96 25.90,-27.11 26.32,-27.13 26.75,-27.15 27.16,-27.04 27.56,-26.92 27.92,-26.68 28.27,-26.44 28.52,-26.11 28.78,-25.77 28.91,-25.36 29.05,-24.96 29.05,-24.53 29.04,-24.11 28.91,-23.71 28.77,-23.31 28.51,-22.97 28.25,-22.63 28.25,-22.63 28.25,-22.63 25.61,-18.36 22.97,-14.10 19.38,-10.64 15.79,-7.19 12.30,-3.84 8.82,-0.49 5.28,0.73 1.74,1.96 1.48,2.14 1.22,2.32 0.92,2.43 0.63,2.54 0.31,2.58 0.00,2.62 -0.31,2.58 -0.62,2.55 -0.92,2.43 -1.21,2.32 -1.47,2.14 -1.73,1.96 -1.94,1.73 -2.15,1.49 -2.30,1.21 -2.45,0.93 -2.53,0.62 -2.60,0.32 -2.60,0.00 -2.60,-0.31 -2.53,-0.62 -2.45,-0.92 -2.31,-1.20 -2.16,-1.48 -1.95,-1.72 -1.74,-1.96 -1.74,-1.96 L -1.74,-1.96 Z"/></g><g transform="translate(61 386) rotate(0 10.5 10.5)" stroke="none"><path fill="#1e1e1e" d="M 1.06,-2.40 Q 1.06,-2.40 4.14,-2.27 7.22,-2.15 10.36,0.42 13.49,3.01 16.17,6.30 18.85,9.59 20.49,13.80 22.13,18.00 22.31,18.39 22.49,18.77 22.54,19.19 22.59,19.62 22.50,20.03 22.41,20.45 22.19,20.81 21.97,21.18 21.65,21.45 21.32,21.73 20.93,21.89 20.54,22.05 20.11,22.07 19.69,22.10 19.28,21.98 18.87,21.87 18.52,21.63 18.16,21.40 17.90,21.06 17.65,20.72 17.51,20.32 17.37,19.92 17.37,19.49 17.37,19.07 17.50,18.67 17.64,18.26 17.89,17.92 18.15,17.58 18.50,17.34 18.85,17.10 19.26,16.99 19.67,16.87 20.09,16.90 20.52,16.92 20.91,17.07 21.31,17.23 21.63,17.50 21.96,17.78 22.18,18.14 22.40,18.50 22.49,18.92 22.58,19.33 22.54,19.75 22.50,20.18 22.32,20.56 22.14,20.95 21.85,21.26 21.56,21.57 21.18,21.77 20.81,21.97 20.39,22.04 19.97,22.11 19.55,22.04 19.13,21.98 18.76,21.78 18.38,21.58 18.09,21.27 17.79,20.97 17.79,20.97 17.79,20.97 14.75,18.32 11.71,15.67 9.35,13.05 7.00,10.43 5.06,8.59 3.12,6.75 1.02,4.57 -1.06,2.40 -1.33,2.23 -1.61,2.07 -1.83,1.85 -2.06,1.62 -2.22,1.35 -2.39,1.08 -2.48,0.78 -2.58,0.48 -2.60,0.16 -2.62,-0.14 -2.56,-0.45 -2.51,-0.76 -2.38,-1.05 -2.25,-1.34 -2.05,-1.59 -1.86,-1.84 -1.61,-2.04 -1.36,-2.24 -1.08,-2.37 -0.79,-2.50 -0.48,-2.56 -0.17,-2.62 0.14,-2.60 0.46,-2.58 0.76,-2.49 1.06,-2.40 1.06,-2.40 L 1.06,-2.40 Z"/></g><g transform="translate(171 454) rotate(0 -5 7.5)" stroke="none"><path fill="#1e1e1e" d="M -0.92,2.45 Q -0.92,2.45 -3.23,2.82 -5.55,3.18 -7.69,5.67 -9.83,8.16 -10.98,10.29 -12.14,12.41 -8.18,11.36 -4.22,10.31 -1.75,7.54 0.71,4.77 1.31,2.36 1.91,-0.05 -0.52,0.08 -2.95,0.21 -3.09,-0.07 -3.23,-0.35 -3.30,-0.66 -3.37,-0.97 -3.36,-1.28 -3.35,-1.60 -3.27,-1.91 -3.19,-2.21 -3.03,-2.49 -2.88,-2.76 -2.66,-3.00 -2.45,-3.23 -2.18,-3.40 -1.92,-3.57 -1.62,-3.68 -1.32,-3.78 -1.00,-3.81 -0.69,-3.84 -0.37,-3.80 -0.06,-3.75 0.22,-3.63 0.51,-3.51 0.77,-3.33 1.03,-3.14 1.23,-2.90 1.43,-2.66 1.61,-2.24 1.79,-1.82 1.82,-1.39 1.85,-0.97 1.74,-0.56 1.63,-0.15 1.40,0.20 1.17,0.55 0.83,0.81 0.50,1.08 0.10,1.22 -0.29,1.36 -0.72,1.36 -1.14,1.37 -1.55,1.24 -1.95,1.11 -2.29,0.86 -2.64,0.60 -2.88,0.25 -3.12,-0.08 -3.24,-0.49 -3.36,-0.90 -3.34,-1.32 -3.33,-1.75 -3.17,-2.15 -3.02,-2.54 -2.75,-2.87 -2.48,-3.20 -2.12,-3.42 -1.76,-3.65 -1.34,-3.74 -0.93,-3.84 -0.51,-3.80 -0.08,-3.76 0.29,-3.59 0.68,-3.41 0.99,-3.12 1.31,-2.84 1.51,-2.46 1.71,-2.09 1.79,-1.67 1.86,-1.25 1.80,-0.83 1.74,-0.41 1.54,-0.03 1.35,0.33 1.04,0.63 0.74,0.93 0.36,1.11 -0.02,1.29 -0.44,1.34 -0.86,1.40 -1.28,1.31 -1.69,1.22 -2.06,1.01 -2.43,0.80 -2.71,0.48 -2.99,0.15 -2.97,0.18 -2.95,0.21 -3.09,-0.07 -3.23,-0.35 -3.30,-0.66 -3.37,-0.97 -3.36,-1.28 -3.35,-1.60 -3.27,-1.91 -3.19,-2.21 -3.03,-2.49 -2.88,-2.76 -2.66,-3.00 -2.45,-3.23 -2.18,-3.40 -1.92,-3.57 -1.62,-3.68 -1.32,-3.78 -1.00,-3.81 -0.69,-3.84 -0.37,-3.80 -0.06,-3.75 0.22,-3.63 0.51,-3.51 0.77,-3.33 1.03,-3.14 1.23,-2.90 1.43,-2.66 3.06,-5.19 4.69,-7.73 7.90,-3.94 11.10,-0.15 9.68,5.40 8.26,10.96 4.63,14.78 1.00,18.60 -3.85,21.27 -8.71,23.94 -12.86,23.53 -17.02,23.12 -19.63,19.57 -22.25,16.03 -21.73,11.78 -21.21,7.53 -19.22,4.21 -17.24,0.89 -14.04,-2.02 -10.83,-4.94 -7.24,-5.79 -3.64,-6.63 -1.36,-4.54 0.92,-2.45 1.20,-2.31 1.48,-2.16 1.72,-1.95 1.95,-1.74 2.14,-1.48 2.32,-1.22 2.43,-0.93 2.54,-0.63 2.58,-0.32 2.62,-0.00 2.58,0.30 2.55,0.61 2.44,0.91 2.33,1.21 2.15,1.47 1.97,1.73 1.73,1.94 1.49,2.15 1.22,2.30 0.94,2.45 0.63,2.52 0.32,2.60 0.00,2.60 -0.30,2.60 -0.61,2.53 -0.92,2.45 -0.92,2.45 L -0.92,2.45 Z"/></g><g transform="translate(288 422) rotate(0 -3.5 21)" stroke="none"><path fill="#1e1e1e" d="M 2.58,0.48 Q 2.58,0.48 2.95,5.31 3.33,10.14 2.70,14.58 2.06,19.02 0.68,24.52 -0.69,30.02 -1.78,33.75 -2.87,37.48 -3.47,39.13 -4.08,40.79 -4.20,41.20 -4.32,41.61 -4.56,41.95 -4.81,42.30 -5.15,42.56 -5.49,42.81 -5.89,42.94 -6.30,43.07 -6.72,43.07 -7.15,43.06 -7.55,42.92 -7.95,42.78 -8.28,42.52 -8.62,42.26 -8.85,41.90 -9.09,41.55 -9.20,41.14 -9.30,40.73 -9.28,40.30 -9.25,39.88 -9.09,39.49 -8.92,39.09 -8.65,38.77 -8.37,38.45 -8.00,38.24 -7.63,38.02 -7.22,37.94 -6.80,37.85 -6.38,37.90 -5.96,37.95 -5.57,38.14 -5.19,38.32 -4.89,38.61 -4.58,38.91 -4.39,39.29 -4.19,39.67 -4.13,40.09 -4.06,40.51 -4.14,40.92 -4.21,41.34 -4.42,41.72 -4.62,42.09 -4.93,42.38 -5.24,42.67 -5.63,42.84 -6.02,43.01 -6.44,43.05 -6.86,43.10 -7.28,43.00 -7.69,42.90 -8.05,42.68 -8.42,42.46 -8.69,42.13 -8.96,41.80 -9.11,41.40 -9.26,41.01 -9.28,40.58 -9.30,40.16 -9.30,40.16 -9.30,40.16 -9.49,38.41 -9.69,36.65 -9.81,32.36 -9.92,28.06 -9.03,22.80 -8.13,17.54 -7.45,12.90 -6.78,8.25 -4.68,3.88 -2.58,-0.48 -2.48,-0.78 -2.39,-1.08 -2.22,-1.35 -2.06,-1.62 -1.83,-1.85 -1.61,-2.07 -1.33,-2.23 -1.06,-2.39 -0.76,-2.49 -0.46,-2.58 -0.14,-2.60 0.16,-2.62 0.48,-2.56 0.79,-2.50 1.08,-2.37 1.36,-2.24 1.61,-2.04 1.86,-1.84 2.05,-1.59 2.25,-1.34 2.38,-1.06 2.51,-0.77 2.56,-0.45 2.62,-0.14 2.60,0.16 2.58,0.48 2.58,0.48 L 2.58,0.48 Z"/></g><g transform="translate(392 429) rotate(0 -2.5 12)" stroke="none"><path fill="#1e1e1e" d="M 2.45,0.92 Q 2.45,0.92 2.62,3.60 2.78,6.28 1.69,9.80 0.60,13.32 -0.24,17.19 -1.09,21.06 -1.61,22.83 -2.13,24.59 -2.24,25.00 -2.34,25.41 -2.58,25.77 -2.81,26.12 -3.15,26.38 -3.48,26.64 -3.88,26.79 -4.28,26.93 -4.71,26.93 -5.13,26.94 -5.54,26.81 -5.94,26.68 -6.28,26.43 -6.63,26.17 -6.87,25.82 -7.11,25.48 -7.23,25.07 -7.35,24.66 -7.33,24.24 -7.32,23.81 -7.16,23.41 -7.01,23.02 -6.74,22.69 -6.47,22.36 -6.11,22.14 -5.75,21.91 -5.34,21.82 -4.92,21.72 -4.50,21.76 -4.08,21.80 -3.69,21.97 -3.30,22.15 -2.99,22.43 -2.67,22.72 -2.47,23.10 -2.27,23.47 -2.19,23.89 -2.12,24.30 -2.18,24.72 -2.24,25.15 -2.44,25.52 -2.63,25.90 -2.94,26.20 -3.24,26.49 -3.62,26.68 -4.01,26.86 -4.43,26.91 -4.85,26.97 -5.27,26.88 -5.68,26.79 -6.05,26.58 -6.42,26.37 -6.70,26.05 -6.98,25.73 -7.14,25.33 -7.30,24.94 -7.33,24.52 -7.36,24.09 -7.36,24.09 -7.36,24.09 -7.54,22.26 -7.72,20.44 -7.77,15.86 -7.82,11.28 -7.02,7.09 -6.23,2.91 -4.34,0.99 -2.45,-0.92 -2.31,-1.20 -2.16,-1.48 -1.95,-1.72 -1.74,-1.95 -1.48,-2.14 -1.22,-2.32 -0.93,-2.43 -0.63,-2.54 -0.32,-2.58 -0.00,-2.62 0.30,-2.58 0.61,-2.55 0.91,-2.44 1.21,-2.33 1.47,-2.15 1.73,-1.97 1.94,-1.73 2.15,-1.49 2.30,-1.22 2.45,-0.94 2.52,-0.63 2.60,-0.32 2.60,-0.00 2.60,0.30 2.53,0.61 2.45,0.92 2.45,0.92 L 2.45,0.92 Z"/></g><g transform="translate(485 425) rotate(0 0 10.5)" stroke="none"><path fill="#1e1e1e" d="M 2.62,0 Q 2.62,0 3.69,3.73 4.76,7.47 3.67,12.04 2.59,16.60 2.19,18.48 1.80,20.36 1.70,20.77 1.61,21.19 1.38,21.55 1.16,21.91 0.83,22.18 0.51,22.46 0.11,22.61 -0.28,22.76 -0.70,22.78 -1.13,22.80 -1.53,22.68 -1.94,22.56 -2.29,22.32 -2.64,22.08 -2.89,21.74 -3.15,21.40 -3.28,20.99 -3.41,20.59 -3.41,20.16 -3.40,19.74 -3.26,19.34 -3.12,18.94 -2.86,18.60 -2.60,18.27 -2.25,18.03 -1.89,17.80 -1.48,17.69 -1.07,17.58 -0.65,17.60 -0.22,17.63 0.16,17.79 0.55,17.95 0.87,18.23 1.20,18.51 1.41,18.88 1.63,19.24 1.71,19.66 1.80,20.08 1.75,20.50 1.70,20.92 1.52,21.30 1.33,21.69 1.04,21.99 0.74,22.30 0.37,22.49 -0.00,22.69 -0.42,22.75 -0.84,22.82 -1.26,22.74 -1.68,22.67 -2.05,22.47 -2.43,22.27 -2.71,21.95 -3.00,21.64 -3.18,21.25 -3.35,20.87 -3.39,20.44 -3.44,20.02 -3.44,20.02 -3.44,20.02 -3.59,18.11 -3.74,16.19 -4.25,11.83 -4.76,7.47 -3.69,3.73 -2.62,0 -2.58,-0.31 -2.55,-0.62 -2.43,-0.92 -2.32,-1.22 -2.14,-1.48 -1.96,-1.74 -1.72,-1.95 -1.49,-2.16 -1.21,-2.30 -0.93,-2.45 -0.62,-2.53 -0.31,-2.60 0.00,-2.60 0.31,-2.60 0.62,-2.53 0.93,-2.45 1.21,-2.30 1.49,-2.16 1.72,-1.95 1.96,-1.74 2.14,-1.48 2.32,-1.22 2.43,-0.92 2.55,-0.62 2.58,-0.31 2.62,0.00 2.62,0.00 L 2.62,0 Z"/></g><g transform="translate(584 428) rotate(0 -2.5 18.5)" stroke="none"><path fill="#1e1e1e" d="M 2.61,0.26 Q 2.61,0.26 3.60,3.26 4.59,6.26 3.78,11.31 2.96,16.36 1.97,21.51 0.97,26.66 -0.05,30.34 -1.08,34.01 -1.57,35.54 -2.06,37.06 -2.19,37.47 -2.32,37.87 -2.57,38.22 -2.82,38.56 -3.17,38.80 -3.51,39.05 -3.92,39.17 -4.33,39.29 -4.75,39.27 -5.18,39.26 -5.57,39.11 -5.97,38.96 -6.30,38.69 -6.63,38.42 -6.86,38.06 -7.08,37.70 -7.18,37.29 -7.28,36.87 -7.24,36.45 -7.20,36.03 -7.03,35.64 -6.86,35.25 -6.57,34.94 -6.28,34.62 -5.91,34.42 -5.54,34.21 -5.12,34.13 -4.71,34.06 -4.28,34.12 -3.86,34.18 -3.49,34.37 -3.11,34.57 -2.81,34.87 -2.51,35.17 -2.33,35.55 -2.14,35.94 -2.09,36.36 -2.03,36.78 -2.12,37.20 -2.20,37.61 -2.41,37.98 -2.63,38.35 -2.95,38.63 -3.26,38.91 -3.66,39.08 -4.05,39.24 -4.47,39.27 -4.90,39.30 -5.31,39.19 -5.72,39.09 -6.08,38.86 -6.43,38.62 -6.69,38.29 -6.96,37.96 -7.10,37.56 -7.24,37.16 -7.25,36.73 -7.26,36.31 -7.26,36.31 -7.26,36.31 -7.29,34.71 -7.33,33.10 -7.29,29.43 -7.25,25.75 -7.07,20.36 -6.90,14.97 -6.32,10.10 -5.74,5.23 -4.18,2.48 -2.61,-0.26 -2.54,-0.57 -2.47,-0.87 -2.33,-1.16 -2.19,-1.44 -1.98,-1.68 -1.78,-1.92 -1.52,-2.11 -1.26,-2.29 -0.97,-2.41 -0.68,-2.53 -0.36,-2.58 -0.05,-2.62 0.25,-2.59 0.57,-2.56 0.87,-2.45 1.17,-2.35 1.43,-2.17 1.69,-2.00 1.91,-1.76 2.12,-1.53 2.28,-1.26 2.43,-0.98 2.51,-0.67 2.60,-0.37 2.60,-0.05 2.61,0.26 2.61,0.26 L 2.61,0.26 Z"/></g><g transform="translate(180 514) rotate(0 18 2.5)" stroke="none"><path fill="#1e1e1e" d="M 1.08,-2.39 Q 1.08,-2.39 4.68,-1.96 8.29,-1.53 11.09,-1.10 13.88,-0.66 18.90,-0.42 23.91,-0.17 27.54,-0.13 31.16,-0.08 32.80,0.24 34.43,0.56 34.85,0.60 35.27,0.64 35.66,0.80 36.05,0.97 36.37,1.26 36.69,1.54 36.89,1.91 37.10,2.28 37.18,2.70 37.26,3.12 37.20,3.54 37.15,3.96 36.96,4.34 36.77,4.72 36.47,5.02 36.16,5.32 35.78,5.51 35.40,5.70 34.98,5.75 34.56,5.81 34.14,5.73 33.73,5.65 33.36,5.44 32.99,5.23 32.70,4.91 32.42,4.59 32.25,4.20 32.09,3.81 32.05,3.39 32.02,2.97 32.12,2.55 32.23,2.14 32.45,1.78 32.68,1.43 33.02,1.16 33.35,0.89 33.75,0.75 34.15,0.60 34.57,0.59 35.00,0.58 35.40,0.71 35.81,0.83 36.15,1.08 36.50,1.33 36.74,1.67 36.99,2.02 37.12,2.43 37.24,2.83 37.23,3.26 37.21,3.68 37.07,4.08 36.92,4.48 36.65,4.81 36.39,5.14 36.03,5.37 35.67,5.60 35.26,5.70 34.84,5.80 34.84,5.80 34.85,5.80 33.29,6.38 31.73,6.97 27.84,7.61 23.96,8.25 18.07,8.55 12.18,8.86 8.27,8.07 4.35,7.28 1.63,4.83 -1.08,2.39 -1.35,2.22 -1.62,2.06 -1.85,1.83 -2.07,1.61 -2.23,1.34 -2.39,1.06 -2.49,0.76 -2.58,0.46 -2.60,0.14 -2.62,-0.16 -2.56,-0.47 -2.50,-0.79 -2.37,-1.07 -2.24,-1.36 -2.04,-1.61 -1.85,-1.86 -1.60,-2.05 -1.35,-2.25 -1.06,-2.38 -0.77,-2.51 -0.46,-2.56 -0.14,-2.62 0.16,-2.60 0.48,-2.58 0.78,-2.48 1.08,-2.39 1.08,-2.39 L 1.08,-2.39 Z"/></g><g transform="translate(185 596) rotate(0 10.5 -1.5)" stroke="none"><path fill="#1e1e1e" d="M -0.46,-2.58 Q -0.46,-2.58 2.47,-4.34 5.42,-6.10 9.52,-6.24 13.62,-6.38 18.12,-6.32 22.61,-6.26 23.04,-6.26 23.46,-6.26 23.87,-6.13 24.27,-5.99 24.61,-5.74 24.95,-5.48 25.19,-5.13 25.42,-4.78 25.54,-4.37 25.65,-3.96 25.63,-3.54 25.61,-3.11 25.45,-2.72 25.29,-2.32 25.02,-2.00 24.74,-1.67 24.38,-1.45 24.02,-1.23 23.60,-1.14 23.19,-1.05 22.76,-1.10 22.34,-1.14 21.96,-1.32 21.57,-1.50 21.26,-1.79 20.95,-2.08 20.75,-2.46 20.55,-2.83 20.48,-3.25 20.42,-3.67 20.48,-4.09 20.55,-4.51 20.75,-4.88 20.95,-5.26 21.26,-5.55 21.57,-5.84 21.95,-6.02 22.34,-6.20 22.76,-6.25 23.18,-6.30 23.60,-6.20 24.01,-6.11 24.38,-5.89 24.74,-5.68 25.02,-5.35 25.29,-5.03 25.45,-4.63 25.61,-4.24 25.63,-3.82 25.65,-3.39 25.54,-2.98 25.43,-2.57 25.19,-2.22 24.95,-1.87 24.61,-1.61 24.27,-1.35 23.87,-1.22 23.47,-1.08 23.47,-1.08 23.47,-1.08 19.11,0.43 14.75,1.95 10.98,2.87 7.22,3.80 3.84,3.19 0.46,2.58 0.15,2.60 -0.16,2.62 -0.47,2.56 -0.78,2.50 -1.07,2.37 -1.36,2.24 -1.61,2.05 -1.85,1.85 -2.05,1.60 -2.24,1.35 -2.37,1.06 -2.50,0.77 -2.56,0.46 -2.62,0.15 -2.60,-0.16 -2.58,-0.47 -2.48,-0.77 -2.39,-1.08 -2.22,-1.35 -2.06,-1.62 -1.84,-1.84 -1.61,-2.07 -1.34,-2.23 -1.07,-2.39 -0.77,-2.49 -0.46,-2.58 -0.46,-2.58 L -0.46,-2.58 Z"/></g><g transform="translate(183 686) rotate(0 19 1)" stroke="none"><path fill="#1e1e1e" d="M 0.46,-2.58 Q 0.46,-2.58 3.81,-3.05 7.15,-3.52 9.48,-3.61 11.81,-3.70 16.18,-3.55 20.55,-3.41 25.57,-2.86 30.59,-2.32 32.71,-1.97 34.84,-1.62 35.26,-1.55 35.68,-1.48 36.06,-1.28 36.43,-1.08 36.73,-0.78 37.02,-0.47 37.20,-0.08 37.38,0.29 37.42,0.72 37.47,1.14 37.38,1.55 37.29,1.97 37.07,2.33 36.85,2.70 36.53,2.97 36.21,3.25 35.81,3.41 35.42,3.56 34.99,3.59 34.57,3.61 34.16,3.50 33.75,3.39 33.40,3.15 33.04,2.91 32.79,2.57 32.53,2.23 32.39,1.83 32.26,1.43 32.26,1.00 32.26,0.58 32.39,0.18 32.53,-0.22 32.78,-0.56 33.04,-0.89 33.39,-1.13 33.74,-1.37 34.15,-1.49 34.56,-1.60 34.98,-1.58 35.41,-1.56 35.80,-1.40 36.20,-1.24 36.52,-0.97 36.85,-0.69 37.07,-0.33 37.29,0.02 37.38,0.44 37.47,0.85 37.43,1.28 37.38,1.70 37.20,2.09 37.02,2.47 36.73,2.78 36.44,3.09 36.07,3.29 35.69,3.49 35.27,3.56 34.85,3.63 34.85,3.63 34.85,3.63 32.72,3.99 30.60,4.35 25.59,4.90 20.59,5.46 16.27,5.64 11.96,5.82 8.72,5.82 5.49,5.82 2.51,4.20 -0.46,2.58 -0.77,2.49 -1.07,2.39 -1.34,2.23 -1.61,2.06 -1.84,1.84 -2.06,1.62 -2.22,1.35 -2.39,1.08 -2.48,0.77 -2.58,0.47 -2.60,0.16 -2.62,-0.15 -2.56,-0.46 -2.50,-0.77 -2.37,-1.06 -2.24,-1.35 -2.05,-1.60 -1.85,-1.85 -1.61,-2.05 -1.36,-2.24 -1.07,-2.37 -0.78,-2.50 -0.47,-2.56 -0.16,-2.62 0.15,-2.60 0.47,-2.58 0.46,-2.58 L 0.46,-2.58 Z"/></g><g transform="translate(124 428) rotate(0 -4 8.5)" stroke="none"><path fill="#1e1e1e" d="M -2.59,0.43 Q -2.59,0.43 -3.40,-1.25 -4.21,-2.94 -4.39,-4.68 -4.58,-6.42 -4.42,-6.87 -4.26,-7.32 -3.99,-7.73 -3.72,-8.13 -3.37,-8.46 -3.01,-8.78 -2.59,-9.02 -2.17,-9.25 -1.70,-9.38 -1.24,-9.50 -0.75,-9.51 -0.27,-9.52 0.19,-9.41 0.66,-9.31 1.09,-9.09 1.53,-8.88 1.89,-8.56 2.26,-8.25 2.54,-7.86 2.83,-7.47 3.01,-7.02 3.19,-6.57 3.25,-6.09 3.32,-5.61 3.27,-5.13 3.22,-4.65 2.47,0.80 1.73,6.25 0.72,9.98 -0.27,13.70 -2.58,17.81 -4.90,21.92 -5.09,22.30 -5.28,22.68 -5.59,22.97 -5.89,23.27 -6.27,23.46 -6.65,23.64 -7.08,23.69 -7.50,23.75 -7.91,23.66 -8.33,23.58 -8.70,23.37 -9.07,23.15 -9.35,22.83 -9.63,22.51 -9.79,22.12 -9.95,21.73 -9.98,21.31 -10.01,20.88 -9.91,20.47 -9.80,20.06 -9.57,19.70 -9.34,19.35 -9.00,19.09 -8.67,18.82 -8.27,18.68 -7.87,18.54 -7.44,18.53 -7.02,18.52 -6.61,18.65 -6.21,18.78 -5.87,19.03 -5.52,19.29 -5.28,19.63 -5.03,19.98 -4.91,20.39 -4.79,20.80 -4.81,21.22 -4.82,21.64 -4.98,22.04 -5.13,22.44 -5.40,22.77 -5.67,23.10 -6.03,23.32 -6.39,23.55 -6.80,23.64 -7.21,23.74 -7.64,23.70 -8.06,23.67 -8.45,23.49 -8.84,23.32 -9.15,23.03 -9.46,22.75 -9.67,22.38 -9.87,22.00 -9.95,21.58 -10.03,21.17 -9.96,20.75 -9.90,20.33 -9.90,20.33 -9.90,20.33 -9.51,15.94 -9.12,11.56 -8.37,8.03 -7.61,4.50 -6.10,-0.95 -4.58,-6.42 -4.42,-6.87 -4.26,-7.32 -3.99,-7.73 -3.72,-8.13 -3.37,-8.46 -3.01,-8.78 -2.59,-9.02 -2.17,-9.25 -1.70,-9.38 -1.24,-9.50 -0.75,-9.51 -0.27,-9.52 0.19,-9.41 0.66,-9.31 1.09,-9.09 1.53,-8.88 1.89,-8.56 2.26,-8.25 2.54,-7.86 2.82,-7.47 3.01,-7.02 3.19,-6.57 3.25,-6.09 3.32,-5.61 3.27,-5.13 3.22,-4.65 3.14,-4.30 3.06,-3.95 2.82,-2.19 2.59,-0.43 2.60,-0.11 2.61,0.20 2.55,0.51 2.49,0.82 2.36,1.10 2.22,1.39 2.02,1.64 1.82,1.88 1.57,2.07 1.32,2.26 1.03,2.39 0.74,2.51 0.42,2.57 0.11,2.62 -0.19,2.59 -0.51,2.57 -0.81,2.47 -1.11,2.37 -1.38,2.20 -1.65,2.04 -1.87,1.81 -2.09,1.58 -2.25,1.31 -2.41,1.03 -2.50,0.73 -2.59,0.43 -2.59,0.43 L -2.59,0.43 Z"/></g><g transform="translate(52 426) rotate(0 -7.5 17)" stroke="none"><path fill="#1e1e1e" d="M 2.32,1.22 Q 2.32,1.22 0.51,7.24 -1.30,13.26 -3.75,18.74 -6.20,24.22 -7.78,27.85 -9.36,31.48 -10.52,32.93 -11.69,34.38 -11.89,34.76 -12.08,35.13 -12.39,35.43 -12.70,35.72 -13.08,35.90 -13.47,36.08 -13.89,36.13 -14.31,36.17 -14.73,36.08 -15.14,35.99 -15.51,35.78 -15.87,35.56 -16.15,35.24 -16.43,34.91 -16.59,34.52 -16.74,34.12 -16.77,33.70 -16.79,33.28 -16.68,32.87 -16.57,32.46 -16.33,32.10 -16.09,31.75 -15.76,31.49 -15.42,31.23 -15.02,31.10 -14.61,30.96 -14.19,30.96 -13.76,30.96 -13.36,31.09 -12.96,31.23 -12.62,31.48 -12.28,31.74 -12.04,32.09 -11.80,32.44 -11.69,32.85 -11.57,33.26 -11.59,33.68 -11.61,34.11 -11.77,34.50 -11.93,34.90 -12.20,35.22 -12.47,35.55 -12.84,35.77 -13.20,35.99 -13.62,36.08 -14.03,36.17 -14.45,36.13 -14.88,36.08 -15.26,35.91 -15.65,35.73 -15.96,35.44 -16.27,35.15 -16.47,34.77 -16.67,34.40 -16.74,33.98 -16.81,33.56 -16.74,33.14 -16.67,32.72 -16.67,32.72 -16.67,32.72 -16.74,30.86 -16.80,29.01 -15.79,24.85 -14.77,20.70 -12.48,14.64 -10.19,8.58 -6.26,3.68 -2.32,-1.22 -2.14,-1.48 -1.96,-1.74 -1.72,-1.95 -1.48,-2.16 -1.20,-2.31 -0.92,-2.45 -0.62,-2.53 -0.31,-2.60 0.00,-2.60 0.31,-2.60 0.62,-2.53 0.93,-2.45 1.21,-2.30 1.49,-2.15 1.73,-1.94 1.96,-1.73 2.14,-1.47 2.32,-1.21 2.43,-0.92 2.55,-0.62 2.58,-0.31 2.62,0.00 2.58,0.31 2.54,0.63 2.43,0.92 2.32,1.22 2.32,1.22 L 2.32,1.22 Z"/></g><g transform="translate(40 675) rotate(0 -5 20.5)" stroke="none"><path fill="#1e1e1e" d="M -0.83,2.49 Q -0.83,2.49 1.47,1.94 3.77,1.40 2.33,6.87 0.90,12.35 -0.67,18.24 -2.24,24.14 -3.68,28.79 -5.12,33.44 -6.14,37.85 -7.17,42.26 -7.28,42.67 -7.39,43.08 -7.63,43.43 -7.87,43.78 -8.21,44.04 -8.54,44.30 -8.95,44.43 -9.35,44.57 -9.77,44.57 -10.20,44.57 -10.60,44.44 -11.01,44.30 -11.34,44.04 -11.68,43.79 -11.92,43.44 -12.16,43.08 -12.28,42.68 -12.39,42.27 -12.37,41.84 -12.35,41.42 -12.19,41.02 -12.03,40.63 -11.76,40.30 -11.48,39.98 -11.12,39.76 -10.76,39.54 -10.34,39.45 -9.93,39.36 -9.50,39.40 -9.08,39.45 -8.69,39.62 -8.31,39.80 -8.00,40.09 -7.69,40.38 -7.49,40.76 -7.29,41.14 -7.22,41.55 -7.15,41.97 -7.22,42.39 -7.29,42.81 -7.49,43.19 -7.69,43.56 -7.99,43.86 -8.30,44.15 -8.69,44.33 -9.07,44.51 -9.50,44.55 -9.92,44.60 -10.33,44.51 -10.75,44.42 -11.11,44.20 -11.48,43.98 -11.75,43.66 -12.03,43.34 -12.19,42.94 -12.34,42.55 -12.37,42.12 -12.39,41.70 -12.39,41.70 -12.39,41.70 -12.44,36.96 -12.48,32.21 -12.31,27.17 -12.13,22.12 -11.25,16.02 -10.37,9.92 -8.80,3.68 -7.22,-2.55 -3.19,-2.52 0.83,-2.49 1.11,-2.35 1.40,-2.22 1.64,-2.02 1.89,-1.82 2.08,-1.56 2.27,-1.31 2.39,-1.02 2.52,-0.73 2.57,-0.41 2.62,-0.10 2.59,0.20 2.57,0.52 2.47,0.82 2.37,1.12 2.20,1.39 2.03,1.66 1.80,1.87 1.57,2.09 1.30,2.25 1.03,2.41 0.72,2.50 0.42,2.59 0.10,2.60 -0.21,2.61 -0.52,2.55 -0.83,2.49 -0.83,2.49 L -0.83,2.49 Z"/></g><g transform="translate(19 700) rotate(0 21.5 -9)" stroke="none"><path fill="#1e1e1e" d="M -1.49,-2.15 Q -1.49,-2.15 1.75,-5.45 5.00,-8.75 10.63,-11.46 16.25,-14.18 22.17,-16.32 28.09,-18.45 32.31,-19.07 36.52,-19.69 38.23,-19.82 39.94,-19.95 40.36,-19.98 40.79,-20.02 41.20,-19.91 41.61,-19.81 41.97,-19.58 42.33,-19.35 42.59,-19.02 42.86,-18.68 43.00,-18.29 43.15,-17.89 43.16,-17.46 43.17,-17.04 43.04,-16.63 42.92,-16.22 42.67,-15.88 42.42,-15.54 42.07,-15.29 41.72,-15.04 41.32,-14.92 40.91,-14.80 40.49,-14.81 40.06,-14.82 39.66,-14.97 39.27,-15.12 38.94,-15.39 38.60,-15.65 38.38,-16.01 38.15,-16.37 38.05,-16.78 37.95,-17.20 37.98,-17.62 38.02,-18.04 38.19,-18.43 38.36,-18.82 38.64,-19.14 38.93,-19.45 39.30,-19.66 39.67,-19.87 40.09,-19.95 40.50,-20.03 40.93,-19.97 41.35,-19.91 41.73,-19.72 42.11,-19.53 42.41,-19.23 42.71,-18.92 42.89,-18.54 43.08,-18.16 43.14,-17.74 43.19,-17.32 43.11,-16.90 43.03,-16.48 42.82,-16.12 42.61,-15.75 42.29,-15.46 41.97,-15.18 41.58,-15.02 41.19,-14.85 41.19,-14.85 41.19,-14.85 39.61,-14.18 38.04,-13.50 34.52,-12.23 31.01,-10.95 25.50,-8.63 20.00,-6.31 14.97,-3.95 9.94,-1.59 5.71,0.28 1.49,2.15 1.21,2.30 0.93,2.45 0.62,2.53 0.32,2.60 0.00,2.60 -0.31,2.60 -0.62,2.53 -0.92,2.45 -1.20,2.31 -1.48,2.16 -1.72,1.95 -1.96,1.74 -2.14,1.48 -2.32,1.22 -2.43,0.92 -2.54,0.63 -2.58,0.31 -2.62,0.00 -2.58,-0.31 -2.55,-0.62 -2.43,-0.92 -2.32,-1.21 -2.14,-1.47 -1.96,-1.73 -1.73,-1.94 -1.49,-2.15 -1.49,-2.15 L -1.49,-2.15 Z"/></g><g transform="translate(66 702) rotate(0 -1 18)" stroke="none"><path fill="#1e1e1e" d="M 2.62,0.17 Q 2.62,0.17 3.54,4.56 4.46,8.96 3.84,13.97 3.22,18.99 1.78,24.77 0.34,30.54 0.12,33.03 -0.09,35.52 -0.19,35.93 -0.29,36.34 -0.52,36.70 -0.75,37.06 -1.08,37.33 -1.41,37.60 -1.80,37.74 -2.20,37.89 -2.63,37.90 -3.05,37.92 -3.46,37.79 -3.87,37.67 -4.21,37.42 -4.56,37.18 -4.81,36.83 -5.06,36.49 -5.18,36.08 -5.31,35.67 -5.30,35.25 -5.29,34.82 -5.14,34.43 -4.99,34.03 -4.73,33.69 -4.46,33.36 -4.11,33.13 -3.75,32.90 -3.34,32.80 -2.92,32.70 -2.50,32.73 -2.08,32.76 -1.69,32.93 -1.30,33.10 -0.98,33.38 -0.66,33.66 -0.45,34.03 -0.24,34.40 -0.16,34.82 -0.08,35.24 -0.14,35.66 -0.19,36.08 -0.38,36.46 -0.57,36.84 -0.87,37.14 -1.17,37.44 -1.55,37.63 -1.93,37.82 -2.35,37.88 -2.77,37.94 -3.19,37.86 -3.60,37.78 -3.98,37.57 -4.35,37.36 -4.63,37.05 -4.91,36.73 -5.08,36.34 -5.25,35.95 -5.29,35.53 -5.32,35.11 -5.32,35.11 -5.32,35.11 -5.15,32.61 -4.98,30.12 -5.49,24.18 -6.01,18.23 -5.81,13.26 -5.61,8.28 -4.11,4.05 -2.62,-0.17 -2.56,-0.48 -2.50,-0.79 -2.37,-1.08 -2.23,-1.37 -2.04,-1.62 -1.84,-1.86 -1.59,-2.06 -1.34,-2.25 -1.05,-2.38 -0.76,-2.51 -0.45,-2.56 -0.14,-2.62 0.17,-2.60 0.48,-2.58 0.79,-2.48 1.09,-2.38 1.36,-2.22 1.63,-2.05 1.85,-1.83 2.07,-1.60 2.23,-1.33 2.40,-1.06 2.49,-0.76 2.58,-0.45 2.60,-0.14 2.62,0.17 2.62,0.17 L 2.62,0.17 Z"/></g><g transform="translate(64 708) rotate(0 17.5 -3)" stroke="none"><path fill="#1e1e1e" d="M -1.78,-1.93 Q -1.78,-1.93 1.50,-5.88 4.79,-9.84 9.93,-12.74 15.08,-15.64 20.37,-16.91 25.66,-18.18 30.28,-15.54 34.91,-12.91 34.95,-9.50 34.99,-6.09 32.16,-1.94 29.33,2.20 26.35,5.21 23.38,8.22 18.65,9.79 13.92,11.36 13.53,11.51 13.13,11.65 12.70,11.66 12.28,11.67 11.87,11.55 11.46,11.42 11.12,11.17 10.78,10.92 10.53,10.58 10.28,10.23 10.16,9.83 10.03,9.42 10.05,9.00 10.06,8.57 10.21,8.17 10.35,7.77 10.62,7.44 10.89,7.11 11.25,6.88 11.60,6.66 12.02,6.55 12.43,6.45 12.85,6.49 13.28,6.52 13.67,6.69 14.06,6.86 14.37,7.15 14.69,7.43 14.90,7.80 15.10,8.17 15.18,8.59 15.26,9.01 15.20,9.43 15.15,9.85 14.96,10.23 14.77,10.61 14.47,10.91 14.16,11.21 13.78,11.40 13.40,11.58 12.98,11.64 12.56,11.70 12.14,11.62 11.73,11.53 11.36,11.32 10.99,11.11 10.70,10.80 10.42,10.48 10.25,10.09 10.09,9.70 10.05,9.28 10.02,8.85 10.12,8.44 10.23,8.03 10.46,7.67 10.69,7.31 11.02,7.05 11.35,6.78 11.35,6.78 11.35,6.78 14.07,4.16 16.80,1.54 19.35,-1.00 21.91,-3.55 24.31,-7.04 26.71,-10.52 22.78,-9.57 18.86,-8.62 14.51,-6.28 10.15,-3.95 5.97,-1.01 1.78,1.93 1.52,2.11 1.26,2.30 0.97,2.41 0.68,2.53 0.36,2.58 0.05,2.62 -0.26,2.59 -0.57,2.56 -0.87,2.45 -1.17,2.35 -1.43,2.17 -1.70,2.00 -1.91,1.76 -2.13,1.53 -2.28,1.25 -2.43,0.98 -2.51,0.67 -2.60,0.36 -2.60,0.05 -2.61,-0.26 -2.54,-0.57 -2.47,-0.88 -2.33,-1.16 -2.19,-1.44 -1.98,-1.68 -1.78,-1.93 -1.78,-1.93 L -1.78,-1.93 Z"/></g><g transform="translate(676 427) rotate(0 -2.5 20)" stroke="none"><path fill="#1e1e1e" d="M 2.61,0.23 Q 2.61,0.23 3.48,3.50 4.35,6.77 3.95,11.28 3.55,15.78 2.59,21.51 1.63,27.24 0.61,31.34 -0.40,35.44 -1.21,37.11 -2.02,38.78 -2.14,39.19 -2.27,39.59 -2.52,39.94 -2.78,40.28 -3.12,40.52 -3.47,40.77 -3.88,40.89 -4.29,41.01 -4.71,40.99 -5.14,40.98 -5.53,40.83 -5.93,40.67 -6.26,40.41 -6.59,40.14 -6.81,39.78 -7.04,39.41 -7.14,39.00 -7.23,38.59 -7.20,38.16 -7.16,37.74 -6.98,37.35 -6.81,36.96 -6.53,36.65 -6.24,36.34 -5.87,36.13 -5.49,35.93 -5.08,35.85 -4.66,35.78 -4.24,35.84 -3.82,35.90 -3.44,36.09 -3.06,36.28 -2.76,36.59 -2.47,36.89 -2.28,37.27 -2.10,37.66 -2.04,38.08 -1.99,38.50 -2.07,38.92 -2.16,39.33 -2.37,39.70 -2.58,40.07 -2.90,40.35 -3.22,40.63 -3.62,40.79 -4.01,40.96 -4.43,40.99 -4.86,41.02 -5.27,40.91 -5.68,40.80 -6.03,40.57 -6.39,40.34 -6.65,40.00 -6.91,39.67 -7.06,39.27 -7.20,38.87 -7.21,38.44 -7.21,38.02 -7.21,38.02 -7.21,38.02 -7.51,36.19 -7.80,34.35 -7.61,30.19 -7.41,26.04 -6.88,20.46 -6.34,14.88 -5.92,10.38 -5.50,5.87 -4.06,2.81 -2.61,-0.23 -2.54,-0.54 -2.48,-0.85 -2.34,-1.14 -2.20,-1.42 -2.00,-1.66 -1.80,-1.91 -1.54,-2.10 -1.29,-2.28 -0.99,-2.40 -0.70,-2.53 -0.39,-2.57 -0.07,-2.62 0.23,-2.59 0.55,-2.56 0.85,-2.46 1.15,-2.36 1.41,-2.18 1.68,-2.01 1.89,-1.78 2.11,-1.55 2.27,-1.28 2.42,-1.00 2.51,-0.69 2.59,-0.39 2.60,-0.07 2.61,0.23 2.61,0.23 L 2.61,0.23 Z"/></g><g transform="translate(764 430) rotate(0 -5 10.5)" stroke="none"><path fill="#1e1e1e" d="M 0,2.62 Q 0,2.62 0.02,3.17 0.04,3.71 -0.55,7.16 -1.15,10.61 -3.03,14.66 -4.91,18.70 -5.79,20.40 -6.68,22.09 -6.86,22.47 -7.05,22.86 -7.35,23.16 -7.65,23.46 -8.03,23.65 -8.41,23.84 -8.83,23.90 -9.25,23.96 -9.67,23.88 -10.09,23.80 -10.46,23.60 -10.83,23.39 -11.11,23.08 -11.40,22.76 -11.57,22.37 -11.74,21.98 -11.78,21.56 -11.81,21.13 -11.71,20.72 -11.61,20.31 -11.38,19.95 -11.16,19.59 -10.83,19.32 -10.50,19.05 -10.10,18.91 -9.70,18.76 -9.28,18.74 -8.85,18.73 -8.44,18.85 -8.04,18.98 -7.69,19.22 -7.34,19.47 -7.09,19.81 -6.85,20.16 -6.72,20.56 -6.59,20.97 -6.60,21.39 -6.61,21.82 -6.76,22.22 -6.90,22.62 -7.16,22.95 -7.43,23.28 -7.79,23.51 -8.14,23.74 -8.56,23.85 -8.97,23.95 -9.39,23.92 -9.81,23.89 -10.21,23.72 -10.60,23.55 -10.91,23.27 -11.23,22.99 -11.44,22.62 -11.65,22.25 -11.74,21.84 -11.82,21.42 -11.76,21.00 -11.71,20.58 -11.71,20.58 -11.71,20.58 -11.51,18.67 -11.31,16.77 -10.63,12.35 -9.96,7.92 -8.77,4.13 -7.57,0.33 -5.53,-1.69 -3.49,-3.71 -1.74,-3.17 0,-2.62 0.31,-2.58 0.62,-2.55 0.92,-2.43 1.22,-2.32 1.48,-2.14 1.74,-1.96 1.95,-1.72 2.16,-1.49 2.30,-1.21 2.45,-0.93 2.53,-0.62 2.60,-0.31 2.60,0.00 2.60,0.31 2.53,0.62 2.45,0.93 2.30,1.21 2.16,1.49 1.95,1.72 1.74,1.96 1.48,2.14 1.22,2.32 0.92,2.43 0.62,2.55 0.31,2.58 -0.00,2.62 -0.00,2.62 L 0,2.62 Z"/></g><g transform="translate(850 433) rotate(0 -0.5 0)" stroke="none"><path fill="#1e1e1e" d="M 2.50,-0.78 Q 2.50,-0.78 2.54,-0.15 2.58,0.47 2.32,1.04 2.06,1.61 1.57,2.00 1.07,2.39 0.45,2.50 -0.15,2.62 -0.75,2.43 -1.35,2.24 -1.80,1.80 -2.24,1.35 -2.43,0.75 -2.62,0.15 -2.50,-0.46 -2.39,-1.07 -2.00,-1.57 -1.61,-2.06 -1.04,-2.32 -0.47,-2.58 0.15,-2.54 0.78,-2.50 1.31,-2.18 1.85,-1.85 2.18,-1.31 L 2.50,-0.78 Z"/></g><g transform="translate(849 433) rotate(0 -2.5 15.5)" stroke="none"><path fill="#1e1e1e" d="M 2.57,0.51 Q 2.57,0.51 2.54,6.48 2.52,12.46 1.22,17.84 -0.07,23.23 -0.99,25.53 -1.91,27.83 -2.03,28.24 -2.16,28.64 -2.41,28.99 -2.65,29.33 -3.00,29.58 -3.35,29.83 -3.75,29.95 -4.16,30.08 -4.58,30.06 -5.01,30.05 -5.41,29.90 -5.81,29.76 -6.14,29.49 -6.47,29.22 -6.69,28.86 -6.92,28.51 -7.02,28.09 -7.13,27.68 -7.09,27.26 -7.05,26.83 -6.89,26.44 -6.72,26.05 -6.43,25.74 -6.15,25.42 -5.78,25.21 -5.41,25.01 -4.99,24.93 -4.57,24.85 -4.15,24.91 -3.73,24.96 -3.35,25.15 -2.97,25.34 -2.67,25.64 -2.37,25.95 -2.18,26.33 -1.99,26.71 -1.94,27.13 -1.88,27.55 -1.96,27.97 -2.04,28.38 -2.25,28.75 -2.46,29.12 -2.78,29.41 -3.10,29.69 -3.49,29.86 -3.88,30.02 -4.30,30.06 -4.73,30.09 -5.14,29.99 -5.55,29.88 -5.91,29.65 -6.27,29.42 -6.53,29.09 -6.80,28.76 -6.94,28.36 -7.09,27.96 -7.10,27.54 -7.11,27.11 -7.11,27.11 -7.11,27.11 -7.37,24.65 -7.62,22.18 -7.37,16.36 -7.12,10.53 -4.84,5.01 -2.57,-0.51 -2.47,-0.81 -2.37,-1.11 -2.20,-1.38 -2.04,-1.65 -1.81,-1.87 -1.58,-2.09 -1.31,-2.25 -1.03,-2.41 -0.73,-2.50 -0.43,-2.59 -0.11,-2.60 0.20,-2.61 0.51,-2.55 0.82,-2.49 1.10,-2.36 1.39,-2.22 1.64,-2.02 1.88,-1.82 2.07,-1.57 2.26,-1.32 2.39,-1.03 2.52,-0.74 2.57,-0.42 2.62,-0.11 2.59,0.19 2.57,0.51 2.57,0.51 L 2.57,0.51 Z"/></g><g transform="translate(271 379) rotate(0 7.5 11.5)" stroke="none"><path fill="#1e1e1e" d="M -0.32,-2.60 Q -0.32,-2.60 1.85,-3.87 4.02,-5.15 6.30,-5.28 8.59,-5.42 11.05,-5.36 13.51,-5.30 16.45,-3.16 19.39,-1.02 20.05,2.09 20.72,5.21 19.44,8.91 18.15,12.61 16.66,15.60 15.17,18.59 13.07,21.13 10.97,23.66 10.74,24.03 10.52,24.39 10.20,24.66 9.87,24.93 9.47,25.09 9.08,25.24 8.65,25.26 8.23,25.28 7.82,25.16 7.41,25.05 7.06,24.81 6.71,24.56 6.46,24.22 6.20,23.88 6.07,23.48 5.94,23.08 5.94,22.65 5.95,22.23 6.08,21.82 6.22,21.42 6.48,21.09 6.74,20.75 7.10,20.51 7.45,20.28 7.86,20.17 8.27,20.06 8.70,20.08 9.12,20.11 9.51,20.27 9.91,20.43 10.23,20.71 10.55,20.99 10.77,21.35 10.98,21.72 11.07,22.14 11.16,22.55 11.11,22.97 11.06,23.39 10.88,23.78 10.70,24.16 10.40,24.47 10.11,24.78 9.73,24.97 9.35,25.17 8.93,25.23 8.51,25.30 8.09,25.23 7.68,25.15 7.30,24.95 6.93,24.75 6.64,24.44 6.35,24.13 6.17,23.74 6.00,23.35 5.96,22.93 5.91,22.51 6.01,22.09 6.10,21.68 6.10,21.68 6.10,21.68 6.45,18.21 6.80,14.75 7.99,11.88 9.18,9.02 10.80,6.24 12.41,3.45 8.79,3.72 5.17,4.00 2.74,3.30 0.32,2.60 0.00,2.60 -0.30,2.60 -0.61,2.53 -0.92,2.45 -1.20,2.31 -1.48,2.16 -1.72,1.95 -1.95,1.74 -2.14,1.48 -2.32,1.22 -2.43,0.93 -2.54,0.63 -2.58,0.32 -2.62,0.00 -2.58,-0.30 -2.55,-0.61 -2.44,-0.91 -2.32,-1.21 -2.15,-1.47 -1.97,-1.73 -1.73,-1.94 -1.49,-2.15 -1.21,-2.30 -0.93,-2.45 -0.63,-2.52 -0.32,-2.60 -0.32,-2.60 L -0.32,-2.60 Z"/></g><g transform="translate(386 389) rotate(0 9 0)" stroke="none"><path fill="#1e1e1e" d="M -2.05,1.64 Q -2.05,1.64 -3.83,0.59 -5.61,-0.45 -5.46,-4.85 -5.31,-9.25 -2.07,-11.58 1.16,-13.92 4.89,-14.74 8.61,-15.56 11.47,-15.48 14.33,-15.40 17.12,-12.88 19.92,-10.36 19.94,-7.54 19.97,-4.72 17.51,-0.41 15.05,3.90 13.53,6.34 12.02,8.79 9.62,7.86 7.22,6.94 10.77,7.58 14.31,8.22 17.31,8.38 20.30,8.53 20.73,8.56 21.15,8.58 21.55,8.74 21.94,8.90 22.26,9.17 22.59,9.45 22.80,9.82 23.02,10.18 23.11,10.60 23.20,11.01 23.15,11.43 23.10,11.86 22.92,12.24 22.74,12.63 22.45,12.93 22.16,13.24 21.78,13.44 21.40,13.64 20.98,13.70 20.57,13.77 20.15,13.70 19.73,13.63 19.35,13.43 18.98,13.23 18.69,12.92 18.40,12.61 18.22,12.22 18.04,11.83 18.00,11.41 17.95,10.99 18.05,10.57 18.14,10.16 18.36,9.80 18.58,9.43 18.91,9.16 19.23,8.89 19.63,8.73 20.02,8.58 20.45,8.55 20.87,8.53 21.28,8.65 21.69,8.76 22.04,9.00 22.39,9.24 22.65,9.58 22.90,9.92 23.04,10.33 23.17,10.73 23.17,11.16 23.17,11.58 23.03,11.98 22.89,12.38 22.63,12.72 22.37,13.06 22.02,13.30 21.67,13.53 21.26,13.64 20.85,13.76 20.85,13.76 20.85,13.76 17.42,14.58 13.98,15.40 9.53,15.22 5.07,15.04 4.73,9.56 4.39,4.07 5.86,1.69 7.33,-0.67 8.80,-3.67 10.28,-6.68 7.85,-6.32 5.42,-5.96 3.21,-5.62 1.01,-5.29 1.53,-3.46 2.05,-1.64 2.21,-1.37 2.38,-1.10 2.48,-0.80 2.57,-0.49 2.60,-0.18 2.62,0.13 2.56,0.44 2.51,0.75 2.38,1.04 2.26,1.33 2.06,1.58 1.87,1.83 1.62,2.03 1.38,2.23 1.09,2.36 0.80,2.49 0.49,2.55 0.18,2.62 -0.13,2.60 -0.44,2.58 -0.75,2.49 -1.05,2.40 -1.32,2.24 -1.59,2.08 -1.82,1.86 -2.05,1.64 -2.05,1.64 L -2.05,1.64 Z"/></g><g transform="translate(467 372) rotate(0 22 9)" stroke="none"><path fill="#1e1e1e" d="M -0.83,-2.49 Q -0.83,-2.49 1.60,-3.80 4.04,-5.11 7.35,-5.83 10.66,-6.56 14.81,-6.88 18.96,-7.20 22.70,-7.36 26.45,-7.52 30.01,-6.86 33.58,-6.20 33.92,-2.71 34.25,0.77 38.47,1.01 42.70,1.25 44.61,3.93 46.52,6.61 46.32,9.70 46.12,12.78 44.04,15.56 41.97,18.33 38.98,20.18 35.98,22.03 34.23,22.64 32.47,23.26 32.12,23.50 31.77,23.74 31.36,23.86 30.95,23.98 30.53,23.96 30.10,23.94 29.71,23.79 29.31,23.64 28.98,23.37 28.66,23.09 28.43,22.73 28.21,22.37 28.11,21.96 28.02,21.54 28.06,21.12 28.10,20.70 28.27,20.31 28.45,19.92 28.74,19.61 29.03,19.30 29.40,19.09 29.77,18.89 30.19,18.82 30.61,18.74 31.03,18.81 31.45,18.87 31.83,19.07 32.20,19.26 32.50,19.57 32.80,19.87 32.98,20.25 33.16,20.64 33.21,21.06 33.26,21.48 33.18,21.90 33.09,22.31 32.88,22.68 32.66,23.05 32.34,23.33 32.02,23.60 31.63,23.77 31.23,23.93 30.81,23.96 30.39,23.98 29.97,23.88 29.56,23.77 29.21,23.53 28.86,23.30 28.59,22.96 28.33,22.63 28.19,22.23 28.05,21.82 28.05,21.40 28.04,20.97 28.17,20.57 28.30,20.17 28.56,19.83 28.81,19.48 28.81,19.48 28.81,19.48 29.98,17.26 31.14,15.04 32.98,13.56 34.81,12.08 36.51,10.64 38.22,9.20 36.17,8.23 34.12,7.26 31.77,6.44 29.42,5.61 26.77,2.95 24.11,0.29 26.68,-2.81 29.24,-5.92 27.96,-3.02 26.68,-0.12 23.07,-0.05 19.47,0.02 15.80,0.25 12.13,0.49 9.21,1.08 6.30,1.66 3.56,2.07 0.83,2.49 0.52,2.55 0.21,2.61 -0.10,2.60 -0.42,2.59 -0.72,2.50 -1.03,2.41 -1.30,2.25 -1.57,2.09 -1.80,1.87 -2.03,1.66 -2.20,1.39 -2.37,1.12 -2.47,0.82 -2.57,0.52 -2.59,0.20 -2.62,-0.10 -2.57,-0.41 -2.52,-0.73 -2.39,-1.02 -2.27,-1.31 -2.08,-1.56 -1.89,-1.82 -1.64,-2.02 -1.40,-2.22 -1.11,-2.35 -0.83,-2.49 -0.83,-2.49 L -0.83,-2.49 Z"/></g><g transform="translate(598 377) rotate(0 3 3.5)" stroke="none"><path fill="#1e1e1e" d="M -2.34,-1.17 Q -2.34,-1.17 -1.74,-0.17 -1.15,0.81 -1.95,3.29 -2.75,5.77 0.32,6.73 3.41,7.68 7.77,8.48 12.13,9.29 12.55,9.37 12.96,9.46 13.33,9.67 13.69,9.89 13.97,10.21 14.25,10.53 14.41,10.92 14.57,11.32 14.60,11.74 14.63,12.16 14.52,12.58 14.41,12.99 14.18,13.34 13.94,13.69 13.61,13.96 13.27,14.22 12.87,14.36 12.47,14.50 12.04,14.50 11.62,14.51 11.21,14.37 10.81,14.24 10.47,13.99 10.13,13.74 9.89,13.39 9.64,13.04 9.53,12.63 9.41,12.22 9.43,11.80 9.44,11.37 9.60,10.98 9.75,10.58 10.02,10.25 10.29,9.93 10.66,9.70 11.02,9.48 11.43,9.38 11.85,9.29 12.27,9.33 12.69,9.37 13.08,9.55 13.47,9.72 13.78,10.01 14.09,10.30 14.29,10.67 14.50,11.04 14.57,11.46 14.64,11.88 14.58,12.30 14.51,12.72 14.32,13.10 14.12,13.48 13.82,13.77 13.51,14.07 13.13,14.25 12.75,14.43 12.32,14.48 11.90,14.53 11.90,14.53 11.90,14.53 7.29,14.95 2.67,15.36 -1.57,14.96 -5.83,14.56 -7.76,12.90 -9.69,11.24 -10.45,8.09 -11.22,4.94 -10.21,2.46 -9.20,-0.02 -7.49,-1.75 -5.78,-3.48 -1.16,-4.44 3.45,-5.41 2.89,-2.12 2.34,1.17 2.17,1.43 1.99,1.70 1.76,1.91 1.53,2.13 1.25,2.28 0.97,2.43 0.67,2.51 0.36,2.60 0.05,2.60 -0.26,2.61 -0.57,2.54 -0.88,2.47 -1.16,2.33 -1.44,2.19 -1.69,1.98 -1.93,1.78 -2.11,1.52 -2.30,1.26 -2.41,0.97 -2.53,0.67 -2.58,0.36 -2.62,0.05 -2.59,-0.26 -2.56,-0.57 -2.45,-0.87 -2.34,-1.17 -2.34,-1.17 L -2.34,-1.17 Z"/></g><g transform="translate(608 386) rotate(0 -6.5 9.5)" stroke="none"><path fill="#1e1e1e" d="M 1.50,2.15 Q 1.50,2.15 -1.06,4.51 -3.64,6.87 -5.32,9.55 -7.00,12.23 -8.48,15.27 -9.96,18.31 -10.17,18.68 -10.37,19.05 -10.69,19.34 -11.00,19.63 -11.39,19.80 -11.78,19.97 -12.20,20.01 -12.62,20.05 -13.04,19.95 -13.45,19.85 -13.81,19.63 -14.17,19.40 -14.44,19.07 -14.71,18.75 -14.86,18.35 -15.01,17.95 -15.03,17.53 -15.04,17.10 -14.92,16.69 -14.80,16.29 -14.56,15.94 -14.31,15.59 -13.97,15.34 -13.63,15.09 -13.22,14.96 -12.82,14.83 -12.39,14.84 -11.97,14.85 -11.57,14.99 -11.17,15.13 -10.84,15.39 -10.50,15.66 -10.27,16.01 -10.04,16.37 -9.93,16.78 -9.82,17.19 -9.85,17.61 -9.88,18.04 -10.05,18.43 -10.21,18.82 -10.49,19.14 -10.77,19.46 -11.14,19.67 -11.51,19.89 -11.92,19.97 -12.34,20.05 -12.76,20.00 -13.18,19.95 -13.57,19.76 -13.95,19.58 -14.25,19.28 -14.56,18.98 -14.75,18.61 -14.94,18.23 -15.00,17.81 -15.06,17.39 -14.99,16.97 -14.91,16.55 -14.91,16.55 -14.91,16.55 -13.87,12.49 -12.83,8.43 -10.34,4.80 -7.85,1.17 -4.68,-0.48 -1.50,-2.15 -1.22,-2.30 -0.94,-2.44 -0.64,-2.52 -0.33,-2.60 -0.01,-2.60 0.29,-2.60 0.60,-2.53 0.91,-2.46 1.19,-2.31 1.47,-2.17 1.71,-1.96 1.95,-1.75 2.13,-1.49 2.31,-1.23 2.43,-0.94 2.54,-0.64 2.58,-0.33 2.62,-0.01 2.59,0.29 2.55,0.61 2.44,0.90 2.33,1.20 2.15,1.46 1.97,1.72 1.74,1.94 1.50,2.15 1.50,2.15 L 1.50,2.15 Z"/></g><g transform="translate(685 379) rotate(0 -6.5 15.5)" stroke="none"><path fill="#1e1e1e" d="M 2.31,1.24 Q 2.31,1.24 0.94,5.32 -0.42,9.41 -1.80,12.34 -3.18,15.27 -2.10,18.18 -1.02,21.09 0.02,23.21 1.08,25.34 -1.02,28.11 -3.13,30.88 -6.85,31.86 -10.58,32.85 -10.99,32.94 -11.41,33.04 -11.83,32.99 -12.25,32.95 -12.64,32.77 -13.03,32.60 -13.34,32.31 -13.65,32.02 -13.85,31.64 -14.05,31.27 -14.12,30.85 -14.19,30.43 -14.13,30.01 -14.06,29.59 -13.86,29.22 -13.67,28.84 -13.36,28.54 -13.05,28.25 -12.67,28.07 -12.28,27.89 -11.86,27.84 -11.44,27.79 -11.02,27.88 -10.61,27.97 -10.24,28.18 -9.88,28.40 -9.60,28.72 -9.32,29.05 -9.16,29.44 -9.00,29.83 -8.98,30.26 -8.95,30.68 -9.06,31.09 -9.17,31.50 -9.41,31.86 -9.65,32.21 -9.98,32.47 -10.32,32.73 -10.72,32.87 -11.12,33.00 -11.55,33.01 -11.97,33.01 -12.38,32.88 -12.78,32.74 -13.12,32.49 -13.46,32.23 -13.70,31.88 -13.94,31.53 -14.06,31.12 -14.17,30.71 -14.15,30.29 -14.13,29.87 -13.98,29.47 -13.82,29.07 -13.55,28.75 -13.28,28.42 -12.92,28.20 -12.55,27.98 -12.55,27.98 -12.55,27.98 -10.08,26.07 -7.60,24.16 -9.24,22.68 -10.87,21.19 -11.41,18.75 -11.95,16.30 -11.26,14.04 -10.58,11.78 -9.10,8.66 -7.62,5.53 -4.96,2.14 -2.31,-1.24 -2.13,-1.50 -1.94,-1.76 -1.70,-1.97 -1.46,-2.17 -1.18,-2.32 -0.90,-2.46 -0.59,-2.53 -0.28,-2.61 0.02,-2.60 0.34,-2.60 0.65,-2.52 0.95,-2.44 1.23,-2.29 1.51,-2.14 1.74,-1.93 1.98,-1.72 2.16,-1.45 2.33,-1.19 2.44,-0.89 2.55,-0.60 2.59,-0.28 2.62,0.02 2.58,0.34 2.54,0.65 2.42,0.95 2.31,1.24 2.31,1.24 L 2.31,1.24 Z"/></g><g transform="translate(670 377) rotate(0 19 -5)" stroke="none"><path fill="#1e1e1e" d="M -0.66,-2.54 Q -0.66,-2.54 4.61,-4.65 9.90,-6.76 13.57,-7.90 17.24,-9.05 23.14,-9.84 29.04,-10.63 31.44,-11.16 33.84,-11.69 34.27,-11.72 34.69,-11.75 35.10,-11.65 35.51,-11.54 35.87,-11.31 36.23,-11.08 36.49,-10.75 36.76,-10.42 36.90,-10.02 37.04,-9.62 37.05,-9.19 37.06,-8.77 36.94,-8.36 36.81,-7.96 36.56,-7.61 36.31,-7.27 35.96,-7.02 35.62,-6.78 35.21,-6.65 34.80,-6.53 34.38,-6.55 33.95,-6.56 33.56,-6.71 33.16,-6.86 32.83,-7.13 32.50,-7.39 32.27,-7.75 32.04,-8.11 31.94,-8.52 31.84,-8.94 31.88,-9.36 31.92,-9.78 32.09,-10.17 32.26,-10.56 32.54,-10.88 32.83,-11.19 33.20,-11.40 33.57,-11.61 33.99,-11.68 34.41,-11.76 34.83,-11.70 35.25,-11.64 35.63,-11.45 36.01,-11.26 36.31,-10.96 36.60,-10.66 36.79,-10.28 36.98,-9.89 37.03,-9.47 37.09,-9.05 37.01,-8.63 36.92,-8.22 36.71,-7.85 36.50,-7.48 36.18,-7.20 35.86,-6.92 35.47,-6.75 35.08,-6.58 35.08,-6.58 35.08,-6.58 32.71,-5.95 30.33,-5.32 24.98,-3.38 19.64,-1.44 15.79,-0.21 11.94,1.01 6.30,1.77 0.66,2.54 0.35,2.58 0.04,2.62 -0.27,2.59 -0.58,2.55 -0.88,2.45 -1.18,2.34 -1.44,2.16 -1.71,1.99 -1.92,1.75 -2.13,1.52 -2.28,1.24 -2.44,0.96 -2.52,0.66 -2.60,0.35 -2.60,0.04 -2.61,-0.27 -2.54,-0.58 -2.47,-0.89 -2.32,-1.17 -2.18,-1.45 -1.97,-1.69 -1.77,-1.93 -1.51,-2.12 -1.25,-2.30 -0.96,-2.42 -0.66,-2.54 -0.66,-2.54 L -0.66,-2.54 Z"/></g><g transform="translate(782 381) rotate(0 -11.5 13)" stroke="none"><path fill="#1e1e1e" d="M 0.89,2.46 Q 0.89,2.46 -1.96,4.43 -4.83,6.39 -7.35,7.75 -9.86,9.10 -12.36,11.13 -14.85,13.16 -16.27,16.02 -17.68,18.89 -15.60,20.07 -13.52,21.25 -13.49,19.47 -13.46,17.70 -13.81,17.45 -14.15,17.20 -14.40,16.85 -14.64,16.51 -14.77,16.10 -14.89,15.69 -14.87,15.27 -14.86,14.84 -14.71,14.44 -14.56,14.05 -14.29,13.72 -14.03,13.39 -13.67,13.16 -13.31,12.93 -12.89,12.83 -12.48,12.73 -12.06,12.77 -11.63,12.81 -11.25,12.98 -10.86,13.15 -10.54,13.43 -10.23,13.72 -10.02,14.09 -9.81,14.46 -9.74,14.88 -9.66,15.30 -9.72,15.72 -9.78,16.14 -9.97,16.52 -10.16,16.90 -10.46,17.20 -10.76,17.50 -11.15,17.68 -11.53,17.87 -11.95,17.92 -12.37,17.98 -12.79,17.90 -13.20,17.81 -13.57,17.60 -13.94,17.39 -14.22,17.07 -14.51,16.75 -14.67,16.36 -14.84,15.97 -14.87,15.55 -14.90,15.12 -14.80,14.71 -14.69,14.30 -14.46,13.94 -14.23,13.59 -13.90,13.32 -13.56,13.06 -13.16,12.91 -12.76,12.77 -12.34,12.76 -11.91,12.75 -11.51,12.88 -11.10,13.01 -11.10,13.01 -11.10,13.01 -8.84,13.74 -6.58,14.47 -4.78,16.63 -2.97,18.80 -3.46,21.75 -3.95,24.70 -6.38,26.60 -8.80,28.50 -12.58,28.80 -16.37,29.11 -20.05,27.05 -23.74,24.99 -25.07,21.34 -26.39,17.69 -25.36,14.12 -24.33,10.54 -22.44,8.29 -20.54,6.03 -17.22,3.46 -13.90,0.89 -10.86,-0.44 -7.81,-1.79 -4.35,-2.13 -0.89,-2.46 -0.58,-2.54 -0.28,-2.61 0.03,-2.60 0.35,-2.60 0.65,-2.52 0.96,-2.44 1.24,-2.29 1.52,-2.14 1.75,-1.92 1.98,-1.71 2.16,-1.45 2.34,-1.18 2.45,-0.89 2.55,-0.59 2.59,-0.27 2.62,0.03 2.58,0.34 2.54,0.66 2.42,0.95 2.30,1.25 2.12,1.51 1.94,1.76 1.70,1.97 1.46,2.18 1.17,2.32 0.89,2.46 0.89,2.46 L 0.89,2.46 Z"/></g><g transform="translate(848 384) rotate(0 10.5 12.5)" stroke="none"><path fill="#1e1e1e" d="M -0.51,-2.57 Q -0.51,-2.57 2.21,-3.87 4.94,-5.16 8.07,-5.98 11.20,-6.79 13.93,-7.42 16.66,-8.04 20.48,-5.67 24.30,-3.30 24.29,0.64 24.27,4.60 22.21,9.78 20.14,14.97 17.98,19.24 15.81,23.50 12.98,26.67 10.14,29.83 9.87,30.16 9.60,30.48 9.23,30.71 8.87,30.93 8.46,31.02 8.04,31.12 7.62,31.08 7.20,31.03 6.81,30.86 6.42,30.68 6.11,30.39 5.80,30.10 5.60,29.73 5.40,29.35 5.33,28.94 5.25,28.52 5.32,28.10 5.39,27.68 5.58,27.30 5.78,26.92 6.08,26.63 6.39,26.33 6.77,26.15 7.16,25.97 7.58,25.92 8.00,25.87 8.42,25.96 8.83,26.05 9.20,26.26 9.57,26.48 9.84,26.80 10.12,27.12 10.28,27.52 10.44,27.91 10.47,28.34 10.49,28.76 10.38,29.17 10.27,29.58 10.04,29.93 9.80,30.29 9.47,30.55 9.13,30.81 8.73,30.95 8.33,31.08 7.90,31.09 7.48,31.09 7.07,30.96 6.67,30.83 6.33,30.57 5.99,30.32 5.75,29.97 5.51,29.62 5.39,29.21 5.27,28.80 5.29,28.38 5.31,27.95 5.47,27.56 5.62,27.16 5.62,27.16 5.62,27.16 6.80,23.52 7.98,19.89 9.75,15.64 11.51,11.38 13.28,7.34 15.05,3.30 16.46,1.61 17.86,-0.07 15.55,0.57 13.23,1.21 9.89,2.04 6.55,2.86 3.53,2.72 0.51,2.57 0.19,2.59 -0.11,2.62 -0.42,2.57 -0.74,2.51 -1.03,2.39 -1.32,2.26 -1.57,2.07 -1.82,1.88 -2.02,1.64 -2.22,1.39 -2.36,1.10 -2.49,0.82 -2.55,0.51 -2.61,0.20 -2.60,-0.11 -2.59,-0.43 -2.50,-0.73 -2.41,-1.03 -2.25,-1.31 -2.09,-1.58 -1.87,-1.81 -1.65,-2.04 -1.38,-2.20 -1.11,-2.37 -0.81,-2.47 -0.51,-2.57 -0.51,-2.57 L -0.51,-2.57 Z"/></g><g transform="translate(843 398) rotate(0 17.5 -5)" stroke="none"><path fill="#1e1e1e" d="M -1.17,-2.34 Q -1.17,-2.34 1.85,-4.92 4.88,-7.50 10.78,-9.13 16.68,-10.76 21.89,-11.23 27.11,-11.70 29.25,-11.83 31.40,-11.97 31.82,-11.98 32.25,-11.99 32.65,-11.87 33.06,-11.75 33.41,-11.50 33.75,-11.25 34.00,-10.91 34.25,-10.57 34.38,-10.16 34.50,-9.75 34.49,-9.33 34.48,-8.90 34.34,-8.50 34.19,-8.10 33.93,-7.77 33.67,-7.44 33.31,-7.21 32.95,-6.98 32.54,-6.88 32.13,-6.77 31.70,-6.80 31.28,-6.84 30.89,-7.00 30.50,-7.17 30.18,-7.45 29.86,-7.73 29.65,-8.10 29.44,-8.47 29.36,-8.89 29.28,-9.31 29.33,-9.73 29.39,-10.15 29.58,-10.53 29.76,-10.91 30.06,-11.21 30.36,-11.52 30.74,-11.71 31.12,-11.90 31.54,-11.96 31.96,-12.01 32.38,-11.94 32.80,-11.86 33.17,-11.65 33.54,-11.44 33.83,-11.13 34.11,-10.81 34.28,-10.42 34.45,-10.03 34.49,-9.61 34.52,-9.19 34.42,-8.77 34.32,-8.36 34.09,-8.00 33.87,-7.64 33.53,-7.37 33.20,-7.11 32.81,-6.96 32.41,-6.81 32.41,-6.81 32.41,-6.81 30.37,-6.12 28.33,-5.44 23.70,-3.97 19.08,-2.51 13.99,-0.95 8.91,0.60 5.04,1.47 1.17,2.34 0.87,2.45 0.57,2.56 0.26,2.59 -0.05,2.62 -0.36,2.58 -0.67,2.53 -0.97,2.41 -1.26,2.30 -1.52,2.11 -1.78,1.93 -1.98,1.69 -2.19,1.44 -2.33,1.16 -2.47,0.88 -2.54,0.57 -2.61,0.26 -2.60,-0.05 -2.60,-0.36 -2.51,-0.67 -2.43,-0.97 -2.28,-1.25 -2.13,-1.53 -1.91,-1.76 -1.70,-2.00 -1.43,-2.17 -1.17,-2.34 -1.17,-2.34 L -1.17,-2.34 Z"/></g><g transform="translate(124 511) rotate(0 6.5 -2)" stroke="none"><path fill="#1e1e1e" d="M -0.89,-2.46 Q -0.89,-2.46 1.96,-4.44 4.82,-6.42 7.98,-6.33 11.14,-6.23 11.56,-6.27 11.99,-6.31 12.40,-6.21 12.81,-6.11 13.17,-5.88 13.53,-5.65 13.80,-5.32 14.07,-4.99 14.22,-4.60 14.37,-4.20 14.38,-3.77 14.39,-3.35 14.27,-2.94 14.15,-2.53 13.90,-2.19 13.66,-1.84 13.31,-1.59 12.97,-1.34 12.56,-1.21 12.16,-1.09 11.73,-1.10 11.31,-1.11 10.91,-1.25 10.51,-1.39 10.18,-1.66 9.84,-1.92 9.61,-2.28 9.38,-2.64 9.28,-3.05 9.17,-3.46 9.20,-3.88 9.24,-4.31 9.40,-4.70 9.57,-5.09 9.85,-5.41 10.13,-5.73 10.50,-5.94 10.87,-6.15 11.29,-6.23 11.70,-6.31 12.13,-6.26 12.55,-6.20 12.93,-6.02 13.31,-5.83 13.61,-5.53 13.91,-5.23 14.11,-4.85 14.30,-4.47 14.36,-4.05 14.42,-3.63 14.34,-3.21 14.26,-2.80 14.05,-2.42 13.85,-2.05 13.53,-1.77 13.22,-1.48 12.83,-1.31 12.44,-1.14 12.44,-1.14 12.44,-1.14 10.13,0.33 7.82,1.82 4.35,2.14 0.89,2.46 0.58,2.54 0.28,2.61 -0.03,2.60 -0.35,2.60 -0.65,2.52 -0.96,2.44 -1.24,2.29 -1.52,2.14 -1.75,1.92 -1.98,1.71 -2.16,1.45 -2.34,1.18 -2.45,0.89 -2.55,0.59 -2.59,0.27 -2.62,-0.03 -2.58,-0.34 -2.54,-0.66 -2.42,-0.95 -2.30,-1.25 -2.12,-1.51 -1.94,-1.76 -1.70,-1.97 -1.46,-2.18 -1.17,-2.32 -0.89,-2.46 -0.89,-2.46 L -0.89,-2.46 Z"/></g><g transform="translate(152 500) rotate(0 8.5 8.5)" stroke="none"><path fill="#1e1e1e" d="M -0.43,-2.59 Q -0.43,-2.59 1.19,-3.46 2.82,-4.33 5.12,-4.74 7.43,-5.14 9.74,-6.67 12.05,-8.20 12.82,-8.83 13.59,-9.46 14.02,-9.68 14.46,-9.90 14.94,-10.01 15.41,-10.12 15.90,-10.12 16.39,-10.11 16.87,-9.98 17.34,-9.86 17.77,-9.63 18.20,-9.39 18.56,-9.06 18.92,-8.73 19.20,-8.32 19.47,-7.92 19.63,-7.46 19.80,-7.00 19.85,-6.51 19.90,-6.02 19.84,-5.54 19.77,-5.05 19.59,-4.60 19.41,-4.14 19.13,-3.74 18.84,-3.35 18.47,-3.03 18.10,-2.71 17.83,-0.34 17.56,2.02 15.82,5.48 14.07,8.95 12.78,12.12 11.49,15.30 9.76,19.10 8.04,22.90 7.86,23.29 7.68,23.67 7.38,23.98 7.09,24.28 6.71,24.48 6.33,24.68 5.91,24.74 5.49,24.81 5.07,24.74 4.66,24.66 4.28,24.46 3.91,24.26 3.62,23.95 3.33,23.64 3.15,23.25 2.98,22.86 2.94,22.44 2.89,22.02 2.99,21.60 3.08,21.19 3.30,20.83 3.53,20.46 3.85,20.19 4.18,19.92 4.57,19.77 4.97,19.61 5.39,19.59 5.82,19.57 6.23,19.69 6.64,19.81 6.99,20.05 7.34,20.29 7.59,20.63 7.84,20.97 7.98,21.37 8.11,21.78 8.11,22.20 8.10,22.63 7.96,23.03 7.82,23.43 7.56,23.77 7.30,24.10 6.95,24.34 6.60,24.57 6.19,24.68 5.78,24.79 5.35,24.77 4.93,24.74 4.54,24.58 4.14,24.42 3.82,24.14 3.50,23.86 3.28,23.50 3.07,23.13 2.98,22.72 2.89,22.30 2.94,21.88 2.99,21.46 2.99,21.46 2.99,21.46 3.62,17.03 4.25,12.61 5.50,8.96 6.74,5.32 8.26,2.20 9.77,-0.91 10.79,-3.02 11.80,-5.13 12.69,-7.30 13.59,-9.46 14.02,-9.68 14.46,-9.90 14.94,-10.01 15.41,-10.12 15.90,-10.12 16.39,-10.11 16.87,-9.98 17.34,-9.86 17.77,-9.63 18.20,-9.39 18.56,-9.06 18.92,-8.73 19.19,-8.32 19.47,-7.92 19.63,-7.46 19.80,-7.00 19.85,-6.51 19.90,-6.02 19.84,-5.54 19.77,-5.05 19.59,-4.60 19.41,-4.14 19.13,-3.75 18.84,-3.35 18.47,-3.03 18.10,-2.71 16.11,-1.41 14.13,-0.11 12.04,0.96 9.96,2.05 7.01,2.62 4.07,3.18 2.25,2.88 0.43,2.59 0.11,2.60 -0.20,2.61 -0.51,2.55 -0.82,2.49 -1.10,2.36 -1.39,2.22 -1.64,2.02 -1.88,1.82 -2.07,1.57 -2.26,1.32 -2.39,1.03 -2.51,0.74 -2.57,0.42 -2.62,0.11 -2.59,-0.19 -2.57,-0.51 -2.47,-0.81 -2.37,-1.11 -2.20,-1.38 -2.04,-1.65 -1.81,-1.87 -1.58,-2.09 -1.31,-2.25 -1.03,-2.41 -0.73,-2.50 -0.43,-2.59 -0.43,-2.59 L -0.43,-2.59 Z"/></g><g transform="translate(125 583) rotate(0 2.5 0.5)" stroke="none"><path fill="#1e1e1e" d="M 2.50,-0.78 Q 2.50,-0.78 2.54,-0.15 2.58,0.47 2.32,1.04 2.06,1.61 1.57,2.00 1.07,2.39 0.45,2.50 -0.15,2.62 -0.75,2.43 -1.35,2.24 -1.80,1.80 -2.24,1.35 -2.43,0.75 -2.62,0.15 -2.50,-0.46 -2.39,-1.07 -2.00,-1.57 -1.61,-2.06 -1.04,-2.32 -0.47,-2.58 0.15,-2.54 0.78,-2.50 1.31,-2.18 1.85,-1.85 2.18,-1.31 L 2.50,-0.78 Z"/></g><g transform="translate(144 563) rotate(0 6.5 12)" stroke="none"><path fill="#1e1e1e" d="M -0.83,-2.49 Q -0.83,-2.49 1.70,-3.66 4.24,-4.82 7.57,-4.65 10.90,-4.47 13.03,-2.69 15.15,-0.91 15.38,1.87 15.61,4.67 13.90,7.87 12.20,11.08 9.07,14.69 5.95,18.30 4.20,20.49 2.44,22.69 6.21,21.91 9.97,21.13 11.56,21.04 13.15,20.94 13.58,20.92 14.00,20.89 14.41,21.01 14.82,21.12 15.17,21.35 15.53,21.59 15.79,21.93 16.04,22.26 16.18,22.67 16.32,23.07 16.32,23.49 16.32,23.92 16.19,24.32 16.06,24.72 15.80,25.06 15.55,25.40 15.20,25.64 14.85,25.88 14.44,26.00 14.03,26.12 13.60,26.10 13.18,26.07 12.78,25.92 12.39,25.76 12.06,25.49 11.74,25.22 11.52,24.85 11.30,24.49 11.20,24.08 11.11,23.66 11.15,23.24 11.20,22.82 11.37,22.43 11.55,22.04 11.84,21.73 12.13,21.42 12.50,21.22 12.88,21.02 13.30,20.95 13.72,20.88 14.14,20.95 14.56,21.01 14.93,21.21 15.31,21.41 15.60,21.71 15.90,22.02 16.08,22.41 16.26,22.79 16.31,23.21 16.35,23.64 16.26,24.05 16.18,24.47 15.96,24.83 15.74,25.20 15.42,25.47 15.10,25.75 14.70,25.91 14.31,26.07 14.31,26.07 14.31,26.07 12.83,26.67 11.36,27.27 7.30,28.50 3.24,29.72 0.60,29.07 -2.04,28.41 -3.28,26.12 -4.53,23.84 -3.79,21.18 -3.06,18.52 -1.17,16.13 0.71,13.74 3.45,10.62 6.19,7.50 6.14,4.43 6.10,1.37 3.46,1.93 0.83,2.49 0.52,2.55 0.21,2.61 -0.10,2.60 -0.42,2.59 -0.72,2.50 -1.03,2.41 -1.30,2.25 -1.57,2.09 -1.80,1.87 -2.03,1.66 -2.20,1.39 -2.37,1.12 -2.47,0.82 -2.57,0.52 -2.59,0.20 -2.62,-0.10 -2.57,-0.41 -2.52,-0.73 -2.39,-1.02 -2.27,-1.31 -2.08,-1.56 -1.89,-1.82 -1.64,-2.02 -1.40,-2.22 -1.11,-2.35 -0.83,-2.49 -0.83,-2.49 L -0.83,-2.49 Z"/></g><g transform="translate(134 668) rotate(0 4 0.5)" stroke="none"><path fill="#1e1e1e" d="M 0.43,-2.59 Q 0.43,-2.59 2.22,-2.83 4.02,-3.08 5.87,-2.79 7.72,-2.50 8.15,-2.48 8.57,-2.45 8.96,-2.29 9.36,-2.13 9.68,-1.86 10.00,-1.58 10.22,-1.22 10.44,-0.85 10.53,-0.44 10.62,-0.02 10.57,0.39 10.52,0.81 10.34,1.20 10.16,1.58 9.87,1.89 9.57,2.20 9.19,2.40 8.82,2.59 8.40,2.66 7.98,2.73 7.56,2.65 7.14,2.58 6.77,2.38 6.39,2.18 6.10,1.87 5.81,1.56 5.63,1.17 5.46,0.79 5.41,0.37 5.37,-0.05 5.46,-0.46 5.56,-0.88 5.78,-1.24 6.00,-1.60 6.32,-1.88 6.65,-2.15 7.05,-2.30 7.44,-2.46 7.87,-2.48 8.29,-2.50 8.70,-2.38 9.11,-2.27 9.46,-2.03 9.81,-1.79 10.06,-1.45 10.32,-1.11 10.45,-0.71 10.59,-0.30 10.58,0.11 10.58,0.54 10.44,0.94 10.31,1.34 10.05,1.68 9.79,2.02 9.44,2.25 9.08,2.49 8.67,2.60 8.26,2.71 8.26,2.71 8.26,2.71 5.57,3.47 2.87,4.23 1.22,3.41 -0.43,2.59 -0.73,2.50 -1.03,2.41 -1.31,2.25 -1.58,2.09 -1.81,1.87 -2.04,1.65 -2.20,1.38 -2.37,1.11 -2.47,0.81 -2.57,0.51 -2.59,0.19 -2.62,-0.11 -2.57,-0.42 -2.51,-0.74 -2.39,-1.03 -2.26,-1.32 -2.07,-1.57 -1.88,-1.82 -1.64,-2.02 -1.39,-2.22 -1.10,-2.36 -0.82,-2.49 -0.51,-2.55 -0.20,-2.61 0.11,-2.60 0.43,-2.59 0.43,-2.59 L 0.43,-2.59 Z"/></g><g transform="translate(149 654) rotate(0 14 15)" stroke="none"><path fill="#1e1e1e" d="M -1.52,-2.13 Q -1.52,-2.13 0.15,-4.04 1.82,-5.95 3.76,-7.03 5.69,-8.10 7.87,-8.64 10.06,-9.17 12.40,-8.61 14.75,-8.04 16.18,-6.43 17.60,-4.82 19.49,-2.80 21.37,-0.78 23.55,0.19 25.73,1.17 27.73,3.40 29.73,5.63 29.83,9.40 29.93,13.17 25.71,19.23 21.48,25.29 17.92,28.88 14.36,32.46 12.68,33.82 11.00,35.18 10.68,35.47 10.37,35.75 9.98,35.92 9.59,36.09 9.16,36.13 8.74,36.17 8.33,36.07 7.91,35.97 7.56,35.74 7.20,35.51 6.93,35.18 6.66,34.85 6.51,34.46 6.36,34.06 6.35,33.63 6.33,33.21 6.46,32.80 6.58,32.39 6.83,32.05 7.07,31.70 7.42,31.45 7.76,31.20 8.16,31.07 8.57,30.95 8.99,30.96 9.42,30.97 9.82,31.11 10.22,31.25 10.55,31.52 10.88,31.78 11.12,32.14 11.35,32.50 11.45,32.91 11.56,33.32 11.52,33.74 11.49,34.17 11.33,34.56 11.16,34.95 10.88,35.27 10.60,35.59 10.23,35.80 9.86,36.01 9.44,36.09 9.02,36.17 8.60,36.12 8.18,36.06 7.80,35.88 7.42,35.69 7.12,35.39 6.81,35.09 6.62,34.71 6.43,34.33 6.37,33.91 6.31,33.49 6.39,33.07 6.47,32.66 6.68,32.28 6.88,31.91 6.88,31.91 6.88,31.91 7.83,29.97 8.77,28.02 11.40,23.81 14.03,19.60 18.46,14.15 22.88,8.69 20.76,7.63 18.65,6.57 15.23,4.95 11.81,3.33 11.52,0.82 11.23,-1.69 8.72,-0.74 6.22,0.20 3.87,1.17 1.52,2.13 1.24,2.28 0.97,2.44 0.66,2.52 0.35,2.60 0.04,2.60 -0.27,2.61 -0.58,2.54 -0.89,2.47 -1.17,2.32 -1.45,2.18 -1.69,1.97 -1.93,1.77 -2.12,1.51 -2.30,1.25 -2.42,0.96 -2.53,0.66 -2.58,0.35 -2.62,0.04 -2.59,-0.27 -2.56,-0.58 -2.45,-0.88 -2.34,-1.18 -2.16,-1.44 -1.99,-1.71 -1.76,-1.92 -1.52,-2.13 -1.52,-2.13 L -1.52,-2.13 Z"/></g><g transform="translate(101 384) rotate(0 6.5 -0.5)" stroke="none"><path fill="#1e1e1e" d="M -0.26,-2.61 Q -0.26,-2.61 2.52,-3.81 5.30,-5.01 8.42,-4.27 11.53,-3.54 11.95,-3.50 12.38,-3.45 12.76,-3.28 13.15,-3.10 13.46,-2.81 13.77,-2.52 13.97,-2.14 14.17,-1.77 14.24,-1.35 14.31,-0.93 14.25,-0.51 14.18,-0.09 13.98,0.28 13.78,0.65 13.48,0.95 13.17,1.24 12.78,1.42 12.40,1.60 11.98,1.65 11.55,1.70 11.14,1.61 10.72,1.52 10.36,1.30 9.99,1.08 9.72,0.76 9.44,0.44 9.28,0.04 9.12,-0.34 9.10,-0.77 9.07,-1.19 9.18,-1.60 9.30,-2.01 9.53,-2.36 9.77,-2.72 10.11,-2.98 10.45,-3.23 10.85,-3.37 11.25,-3.51 11.67,-3.51 12.10,-3.51 12.50,-3.38 12.91,-3.24 13.25,-2.99 13.58,-2.73 13.82,-2.38 14.06,-2.03 14.18,-1.62 14.30,-1.21 14.27,-0.79 14.25,-0.36 14.10,0.02 13.94,0.42 13.67,0.74 13.39,1.07 13.03,1.29 12.67,1.51 12.25,1.60 11.84,1.69 11.84,1.69 11.84,1.69 9.01,2.77 6.19,3.86 3.22,3.23 0.26,2.61 -0.05,2.60 -0.37,2.60 -0.67,2.51 -0.98,2.43 -1.26,2.28 -1.53,2.12 -1.77,1.91 -2.00,1.69 -2.17,1.43 -2.35,1.17 -2.45,0.87 -2.56,0.57 -2.59,0.25 -2.62,-0.05 -2.58,-0.36 -2.53,-0.68 -2.41,-0.97 -2.29,-1.26 -2.11,-1.52 -1.92,-1.78 -1.68,-1.98 -1.44,-2.19 -1.16,-2.33 -0.87,-2.47 -0.57,-2.54 -0.26,-2.61 -0.26,-2.61 L -0.26,-2.61 Z"/></g><g transform="translate(128 384) rotate(0 10 -2)" stroke="none"><path fill="#1e1e1e" d="M -2.07,-1.61 Q -2.07,-1.61 -0.68,-4.68 0.70,-7.76 3.37,-10.60 6.05,-13.43 8.90,-16.07 11.76,-18.71 13.62,-20.22 15.47,-21.73 15.37,-21.63 15.27,-21.52 15.74,-21.85 16.20,-22.19 16.74,-22.40 17.27,-22.61 17.85,-22.69 18.42,-22.77 18.99,-22.71 19.56,-22.65 20.10,-22.45 20.64,-22.25 21.12,-21.93 21.60,-21.61 21.99,-21.19 22.38,-20.76 22.65,-20.26 22.93,-19.75 23.07,-19.19 23.22,-18.64 23.23,-18.06 23.24,-17.49 23.11,-16.93 22.98,-16.36 22.72,-15.85 22.46,-15.34 22.08,-14.90 21.71,-14.46 20.63,-9.50 19.56,-4.53 18.71,-0.46 17.87,3.60 16.85,7.13 15.84,10.65 15.34,12.24 14.84,13.84 14.73,14.25 14.62,14.66 14.39,15.02 14.15,15.37 13.82,15.63 13.49,15.89 13.08,16.04 12.68,16.18 12.26,16.18 11.83,16.19 11.43,16.06 11.02,15.93 10.68,15.68 10.34,15.42 10.10,15.07 9.85,14.73 9.74,14.32 9.62,13.91 9.63,13.49 9.65,13.06 9.80,12.66 9.95,12.27 10.22,11.94 10.50,11.61 10.86,11.39 11.22,11.16 11.63,11.07 12.04,10.97 12.47,11.01 12.89,11.05 13.28,11.22 13.67,11.40 13.98,11.68 14.29,11.97 14.50,12.35 14.70,12.72 14.77,13.14 14.85,13.55 14.79,13.97 14.72,14.40 14.53,14.77 14.34,15.15 14.03,15.45 13.73,15.74 13.34,15.93 12.96,16.11 12.54,16.16 12.12,16.21 11.70,16.13 11.28,16.04 10.92,15.83 10.55,15.62 10.27,15.30 9.99,14.97 9.83,14.58 9.67,14.19 9.64,13.77 9.61,13.34 9.61,13.34 9.61,13.34 9.41,11.68 9.22,10.02 8.93,5.89 8.65,1.76 9.51,-2.70 10.37,-7.17 11.71,-11.83 13.05,-16.49 14.16,-19.00 15.27,-21.52 15.73,-21.85 16.20,-22.19 16.74,-22.40 17.27,-22.61 17.84,-22.69 18.42,-22.77 18.99,-22.71 19.56,-22.65 20.10,-22.45 20.64,-22.25 21.12,-21.93 21.60,-21.61 21.99,-21.19 22.38,-20.76 22.65,-20.26 22.93,-19.75 23.07,-19.20 23.22,-18.64 23.23,-18.06 23.24,-17.49 23.11,-16.93 22.98,-16.37 22.72,-15.85 22.46,-15.34 22.08,-14.90 21.71,-14.46 19.80,-13.15 17.89,-11.84 15.10,-9.45 12.31,-7.06 9.83,-4.82 7.34,-2.58 4.71,-0.48 2.07,1.61 1.85,1.83 1.62,2.06 1.35,2.22 1.08,2.39 0.78,2.48 0.48,2.58 0.16,2.60 -0.14,2.62 -0.46,2.56 -0.77,2.51 -1.06,2.38 -1.35,2.25 -1.60,2.05 -1.85,1.86 -2.04,1.61 -2.24,1.36 -2.37,1.07 -2.50,0.79 -2.56,0.47 -2.62,0.16 -2.60,-0.14 -2.58,-0.46 -2.49,-0.76 -2.39,-1.06 -2.23,-1.34 -2.07,-1.61 -2.07,-1.61 L -2.07,-1.61 Z"/></g><g transform="translate(12 401) rotate(0 6 0)" stroke="none"><path fill="#1e1e1e" d="M 0,-2.62 Q 0,-2.62 3.44,-3.19 6.89,-3.75 9.62,-3.58 12.35,-3.42 12.77,-3.41 13.20,-3.40 13.60,-3.25 14.00,-3.11 14.33,-2.84 14.66,-2.58 14.89,-2.22 15.12,-1.86 15.23,-1.45 15.33,-1.04 15.30,-0.62 15.26,-0.19 15.10,0.19 14.93,0.58 14.65,0.90 14.37,1.22 14.00,1.43 13.63,1.64 13.21,1.72 12.80,1.80 12.37,1.75 11.95,1.69 11.57,1.50 11.19,1.32 10.89,1.02 10.59,0.72 10.40,0.34 10.21,-0.03 10.15,-0.45 10.09,-0.87 10.16,-1.29 10.24,-1.71 10.45,-2.08 10.66,-2.45 10.97,-2.74 11.29,-3.02 11.68,-3.19 12.07,-3.36 12.49,-3.40 12.91,-3.43 13.33,-3.33 13.74,-3.23 14.10,-3.00 14.46,-2.78 14.73,-2.45 14.99,-2.12 15.14,-1.72 15.29,-1.32 15.30,-0.90 15.32,-0.47 15.19,-0.06 15.07,0.33 14.82,0.68 14.58,1.03 14.23,1.27 13.89,1.52 13.48,1.65 13.08,1.78 13.08,1.78 13.08,1.78 9.99,2.77 6.90,3.75 3.45,3.19 0,2.62 -0.31,2.58 -0.62,2.55 -0.92,2.43 -1.22,2.32 -1.48,2.14 -1.74,1.96 -1.95,1.72 -2.16,1.49 -2.30,1.21 -2.45,0.93 -2.53,0.62 -2.60,0.31 -2.60,-0.00 -2.60,-0.31 -2.53,-0.62 -2.45,-0.93 -2.30,-1.21 -2.16,-1.49 -1.95,-1.72 -1.74,-1.96 -1.48,-2.14 -1.22,-2.32 -0.92,-2.43 -0.62,-2.55 -0.31,-2.58 0.00,-2.62 0.00,-2.62 L 0,-2.62 Z"/></g><g transform="translate(25 387) rotate(0 12 5.5)" stroke="none"><path fill="#1e1e1e" d="M -1.41,-2.21 Q -1.41,-2.21 1.45,-4.69 4.32,-7.17 7.57,-8.80 10.82,-10.43 13.20,-11.17 15.59,-11.92 16.07,-12.08 16.55,-12.23 17.06,-12.27 17.57,-12.31 18.07,-12.22 18.57,-12.14 19.03,-11.94 19.50,-11.73 19.90,-11.42 20.31,-11.12 20.63,-10.72 20.95,-10.32 21.16,-9.86 21.38,-9.40 21.47,-8.90 21.57,-8.41 21.55,-7.90 21.52,-7.39 21.38,-6.90 21.23,-6.42 20.98,-5.98 20.72,-5.54 20.37,-5.18 20.01,-4.81 19.58,-4.54 19.15,-4.27 18.75,-1.41 18.34,1.45 15.53,5.14 12.72,8.84 11.25,10.88 9.77,12.93 12.16,13.73 14.55,14.54 18.49,15.83 22.43,17.12 22.83,17.25 23.24,17.38 23.58,17.63 23.93,17.87 24.17,18.22 24.42,18.57 24.54,18.97 24.67,19.38 24.65,19.80 24.64,20.23 24.49,20.63 24.35,21.03 24.08,21.36 23.81,21.69 23.45,21.91 23.09,22.14 22.68,22.24 22.27,22.34 21.84,22.31 21.42,22.27 21.03,22.10 20.64,21.93 20.33,21.65 20.01,21.36 19.80,20.99 19.59,20.62 19.52,20.20 19.44,19.79 19.50,19.36 19.56,18.94 19.75,18.56 19.94,18.18 20.24,17.88 20.54,17.59 20.92,17.40 21.30,17.21 21.72,17.16 22.15,17.10 22.56,17.18 22.98,17.26 23.35,17.47 23.72,17.68 24.00,18.00 24.28,18.32 24.45,18.71 24.62,19.10 24.65,19.52 24.68,19.95 24.58,20.36 24.47,20.77 24.24,21.13 24.01,21.49 23.68,21.75 23.35,22.02 22.95,22.16 22.55,22.31 22.12,22.32 21.70,22.33 21.70,22.33 21.70,22.33 16.88,22.39 12.05,22.46 7.91,20.83 3.77,19.21 2.55,14.85 1.33,10.49 3.31,6.74 5.29,2.98 9.37,-1.65 13.46,-6.30 14.52,-9.11 15.59,-11.92 16.07,-12.08 16.55,-12.23 17.06,-12.27 17.57,-12.31 18.07,-12.22 18.57,-12.14 19.03,-11.94 19.50,-11.73 19.90,-11.43 20.31,-11.12 20.63,-10.72 20.95,-10.33 21.16,-9.86 21.38,-9.40 21.47,-8.91 21.57,-8.41 21.55,-7.90 21.52,-7.39 21.38,-6.90 21.23,-6.42 20.98,-5.98 20.72,-5.54 20.37,-5.18 20.01,-4.81 19.58,-4.54 19.15,-4.27 16.62,-3.80 14.10,-3.33 11.21,-2.10 8.32,-0.87 4.86,0.67 1.41,2.21 1.12,2.35 0.83,2.48 0.52,2.55 0.21,2.61 -0.09,2.60 -0.41,2.59 -0.71,2.50 -1.02,2.41 -1.29,2.26 -1.57,2.10 -1.80,1.88 -2.02,1.66 -2.19,1.39 -2.36,1.13 -2.47,0.83 -2.57,0.53 -2.59,0.21 -2.62,-0.09 -2.57,-0.41 -2.52,-0.72 -2.40,-1.01 -2.27,-1.30 -2.08,-1.56 -1.89,-1.81 -1.65,-2.01 -1.40,-2.21 -1.41,-2.21 L -1.41,-2.21 Z"/></g><g transform="translate(738 580) rotate(0 -3 19.5)" stroke="none"><path fill="#1e1e1e" d="M 2.59,0.43 Q 2.59,0.43 3.19,5.85 3.80,11.27 2.32,17.79 0.84,24.32 -0.74,28.92 -2.32,33.52 -3.11,35.47 -3.90,37.43 -4.03,37.83 -4.17,38.23 -4.43,38.57 -4.69,38.91 -5.04,39.15 -5.40,39.38 -5.81,39.49 -6.22,39.60 -6.64,39.58 -7.06,39.55 -7.46,39.39 -7.85,39.24 -8.17,38.96 -8.50,38.68 -8.71,38.32 -8.93,37.95 -9.02,37.54 -9.11,37.12 -9.06,36.70 -9.01,36.28 -8.83,35.89 -8.65,35.51 -8.36,35.20 -8.06,34.89 -7.69,34.70 -7.31,34.50 -6.89,34.43 -6.47,34.37 -6.05,34.44 -5.63,34.51 -5.26,34.71 -4.89,34.91 -4.59,35.22 -4.30,35.53 -4.13,35.92 -3.95,36.30 -3.91,36.73 -3.86,37.15 -3.96,37.56 -4.05,37.98 -4.27,38.34 -4.49,38.70 -4.82,38.98 -5.14,39.25 -5.54,39.41 -5.94,39.56 -6.36,39.58 -6.78,39.60 -7.19,39.49 -7.60,39.37 -7.95,39.13 -8.30,38.89 -8.56,38.55 -8.81,38.21 -8.95,37.81 -9.08,37.40 -9.08,36.98 -9.08,36.55 -9.08,36.55 -9.08,36.55 -9.17,34.45 -9.27,32.34 -9.24,27.38 -9.21,22.42 -8.23,15.92 -7.25,9.42 -4.92,4.49 -2.59,-0.43 -2.50,-0.73 -2.41,-1.03 -2.25,-1.31 -2.09,-1.58 -1.87,-1.81 -1.65,-2.04 -1.38,-2.20 -1.11,-2.37 -0.81,-2.47 -0.51,-2.57 -0.19,-2.59 0.11,-2.62 0.42,-2.57 0.74,-2.51 1.03,-2.39 1.32,-2.26 1.57,-2.07 1.82,-1.88 2.02,-1.64 2.22,-1.39 2.36,-1.10 2.49,-0.82 2.55,-0.51 2.61,-0.20 2.60,0.11 2.59,0.43 2.59,0.43 L 2.59,0.43 Z"/></g><g transform="translate(718 598) rotate(0 17 -4.5)" stroke="none"><path fill="#1e1e1e" d="M -0.83,-2.49 Q -0.83,-2.49 4.85,-5.56 10.53,-8.64 15.61,-9.84 20.69,-11.04 24.32,-11.41 27.95,-11.78 29.59,-11.43 31.23,-11.07 31.65,-11.10 32.08,-11.12 32.49,-11.01 32.89,-10.89 33.25,-10.66 33.60,-10.42 33.86,-10.08 34.11,-9.74 34.25,-9.34 34.38,-8.94 34.38,-8.51 34.38,-8.09 34.25,-7.68 34.11,-7.28 33.86,-6.94 33.60,-6.60 33.25,-6.36 32.90,-6.13 32.49,-6.01 32.08,-5.90 31.65,-5.92 31.23,-5.94 30.83,-6.10 30.44,-6.26 30.12,-6.53 29.79,-6.81 29.57,-7.17 29.35,-7.54 29.26,-7.95 29.17,-8.37 29.22,-8.79 29.26,-9.21 29.44,-9.60 29.62,-9.98 29.91,-10.29 30.20,-10.60 30.58,-10.80 30.95,-11.00 31.37,-11.07 31.79,-11.14 32.21,-11.07 32.63,-11.00 33.01,-10.80 33.38,-10.60 33.67,-10.29 33.97,-9.98 34.14,-9.60 34.32,-9.21 34.37,-8.79 34.42,-8.37 34.32,-7.95 34.23,-7.54 34.01,-7.17 33.79,-6.81 33.47,-6.53 33.15,-6.26 32.75,-6.10 32.36,-5.94 32.36,-5.94 32.36,-5.94 31.02,-4.93 29.68,-3.92 26.30,-2.75 22.91,-1.57 18.26,-0.49 13.61,0.59 7.22,1.54 0.83,2.49 0.52,2.55 0.21,2.61 -0.10,2.60 -0.42,2.59 -0.72,2.50 -1.03,2.41 -1.30,2.25 -1.57,2.09 -1.80,1.87 -2.03,1.66 -2.20,1.39 -2.37,1.12 -2.47,0.82 -2.57,0.52 -2.59,0.20 -2.62,-0.10 -2.57,-0.41 -2.52,-0.73 -2.39,-1.02 -2.27,-1.31 -2.08,-1.56 -1.89,-1.82 -1.64,-2.02 -1.40,-2.22 -1.11,-2.35 -0.83,-2.49 -0.83,-2.49 L -0.83,-2.49 Z"/></g><g transform="translate(773 601) rotate(0 -11.5 23)" stroke="none"><path fill="#1e1e1e" d="M 1.85,1.85 Q 1.85,1.85 0.78,3.65 -0.28,5.46 -2.14,7.70 -4.01,9.94 -6.93,12.32 -9.84,14.70 -6.66,14.21 -3.48,13.72 -1.16,15.14 1.15,16.56 2.45,19.28 3.76,22.00 3.18,25.07 2.59,28.13 0.23,31.31 -2.12,34.48 -7.02,38.15 -11.92,41.81 -16.30,44.27 -20.68,46.72 -21.05,46.93 -21.42,47.13 -21.84,47.21 -22.26,47.29 -22.68,47.23 -23.10,47.16 -23.48,46.97 -23.86,46.78 -24.15,46.48 -24.45,46.17 -24.64,45.79 -24.82,45.41 -24.88,44.99 -24.93,44.57 -24.84,44.15 -24.76,43.73 -24.55,43.36 -24.34,43.00 -24.02,42.72 -23.70,42.43 -23.31,42.27 -22.91,42.11 -22.49,42.07 -22.07,42.04 -21.66,42.15 -21.24,42.26 -20.89,42.49 -20.53,42.72 -20.27,43.05 -20.01,43.39 -19.86,43.79 -19.72,44.19 -19.71,44.61 -19.70,45.04 -19.83,45.44 -19.96,45.85 -20.21,46.19 -20.46,46.53 -20.81,46.78 -21.16,47.02 -21.57,47.14 -21.97,47.27 -22.40,47.25 -22.82,47.24 -23.22,47.08 -23.62,46.93 -23.95,46.67 -24.27,46.40 -24.50,46.04 -24.73,45.68 -24.82,45.26 -24.92,44.85 -24.89,44.43 -24.85,44.00 -24.68,43.61 -24.50,43.23 -24.22,42.91 -23.93,42.60 -23.93,42.60 -23.93,42.60 -20.64,39.00 -17.35,35.40 -13.63,31.77 -9.92,28.15 -8.25,25.07 -6.59,22.00 -8.90,21.12 -11.22,20.24 -14.46,16.37 -17.69,12.50 -16.42,10.05 -15.15,7.60 -12.15,5.65 -9.16,3.71 -7.31,2.00 -5.46,0.28 -3.66,-0.78 -1.85,-1.85 -1.60,-2.05 -1.35,-2.24 -1.07,-2.37 -0.78,-2.50 -0.46,-2.56 -0.15,-2.62 0.15,-2.60 0.47,-2.58 0.77,-2.48 1.07,-2.39 1.34,-2.23 1.61,-2.06 1.84,-1.84 2.06,-1.61 2.23,-1.34 2.39,-1.07 2.48,-0.77 2.58,-0.47 2.60,-0.15 2.62,0.15 2.56,0.47 2.50,0.78 2.37,1.07 2.24,1.35 2.05,1.60 1.85,1.85 1.85,1.85 L 1.85,1.85 Z"/></g><g transform="translate(931 432) rotate(0 -6 19)" stroke="none"><path fill="#1e1e1e" d="M 2.18,1.45 Q 2.18,1.45 0.83,5.49 -0.51,9.53 -1.75,14.37 -2.98,19.21 -4.14,23.62 -5.29,28.02 -7.15,32.31 -9.00,36.60 -9.15,37.00 -9.31,37.39 -9.59,37.72 -9.86,38.04 -10.23,38.26 -10.59,38.48 -11.01,38.57 -11.42,38.66 -11.84,38.61 -12.27,38.57 -12.65,38.39 -13.04,38.21 -13.35,37.92 -13.65,37.62 -13.85,37.25 -14.05,36.87 -14.12,36.45 -14.19,36.03 -14.12,35.61 -14.05,35.19 -13.85,34.82 -13.65,34.44 -13.34,34.15 -13.03,33.86 -12.65,33.68 -12.26,33.50 -11.84,33.46 -11.42,33.41 -11.00,33.50 -10.59,33.60 -10.22,33.82 -9.86,34.04 -9.58,34.36 -9.31,34.68 -9.15,35.08 -9.00,35.47 -8.97,35.90 -8.95,36.32 -9.06,36.73 -9.18,37.14 -9.42,37.49 -9.66,37.84 -10.00,38.10 -10.33,38.36 -10.74,38.49 -11.14,38.63 -11.56,38.63 -11.99,38.63 -12.39,38.49 -12.79,38.35 -13.13,38.10 -13.47,37.84 -13.71,37.49 -13.95,37.13 -14.06,36.73 -14.17,36.32 -14.15,35.89 -14.13,35.47 -14.13,35.47 -14.13,35.47 -14.01,30.87 -13.90,26.27 -13.16,21.41 -12.42,16.55 -10.55,10.40 -8.68,4.26 -5.43,1.40 -2.18,-1.45 -1.97,-1.69 -1.77,-1.93 -1.51,-2.12 -1.25,-2.30 -0.96,-2.42 -0.66,-2.53 -0.35,-2.58 -0.04,-2.62 0.27,-2.59 0.58,-2.56 0.88,-2.45 1.18,-2.34 1.44,-2.16 1.70,-1.99 1.92,-1.76 2.13,-1.52 2.28,-1.24 2.44,-0.97 2.52,-0.66 2.60,-0.35 2.60,-0.04 2.61,0.27 2.54,0.58 2.47,0.89 2.32,1.17 2.18,1.45 2.18,1.45 L 2.18,1.45 Z"/></g><g transform="translate(1013 433) rotate(0 -3.5 14)" stroke="none"><path fill="#1e1e1e" d="M 2.51,0.75 Q 2.51,0.75 2.73,3.95 2.95,7.15 2.00,10.14 1.06,13.13 0.41,15.91 -0.23,18.69 -1.05,21.30 -1.88,23.91 -3.06,26.10 -4.24,28.28 -4.37,28.69 -4.49,29.09 -4.74,29.44 -5.00,29.78 -5.34,30.03 -5.69,30.27 -6.10,30.39 -6.50,30.52 -6.93,30.50 -7.35,30.49 -7.75,30.34 -8.15,30.19 -8.48,29.92 -8.81,29.65 -9.03,29.29 -9.26,28.93 -9.36,28.52 -9.46,28.11 -9.42,27.68 -9.38,27.26 -9.21,26.87 -9.04,26.48 -8.76,26.17 -8.47,25.85 -8.10,25.65 -7.73,25.44 -7.31,25.36 -6.89,25.29 -6.47,25.35 -6.05,25.41 -5.67,25.60 -5.29,25.79 -5.00,26.09 -4.70,26.39 -4.51,26.78 -4.32,27.16 -4.27,27.58 -4.22,28.00 -4.30,28.42 -4.38,28.83 -4.59,29.20 -4.80,29.57 -5.12,29.85 -5.44,30.13 -5.83,30.30 -6.22,30.47 -6.65,30.50 -7.07,30.53 -7.48,30.42 -7.89,30.32 -8.25,30.09 -8.61,29.86 -8.87,29.52 -9.14,29.19 -9.28,28.79 -9.42,28.39 -9.43,27.96 -9.44,27.54 -9.44,27.54 -9.44,27.54 -9.92,24.81 -10.40,22.09 -10.06,19.29 -9.72,16.50 -9.00,13.32 -8.28,10.15 -7.34,7.24 -6.40,4.34 -4.45,1.79 -2.51,-0.75 -2.38,-1.04 -2.26,-1.33 -2.06,-1.58 -1.87,-1.83 -1.62,-2.03 -1.38,-2.23 -1.09,-2.36 -0.80,-2.49 -0.49,-2.55 -0.18,-2.62 0.12,-2.60 0.44,-2.58 0.74,-2.49 1.05,-2.40 1.32,-2.24 1.59,-2.08 1.82,-1.86 2.05,-1.64 2.21,-1.37 2.38,-1.10 2.48,-0.80 2.57,-0.50 2.60,-0.18 2.62,0.13 2.56,0.44 2.51,0.75 2.51,0.75 L 2.51,0.75 Z"/></g><g transform="translate(942 396) rotate(0 0.5 -2)" stroke="none"><path fill="#1e1e1e" d="M -2.18,1.45 Q -2.18,1.45 -4.35,0.40 -6.52,-0.64 -8.23,-5.08 -9.94,-9.52 -9.98,-12.57 -10.02,-15.62 -9.28,-18.70 -8.54,-21.77 -6.66,-24.16 -4.78,-26.54 -0.77,-26.75 3.23,-26.95 5.03,-25.09 6.83,-23.22 7.22,-20.75 7.61,-18.27 6.32,-13.53 5.02,-8.79 3.84,-4.07 2.65,0.64 2.40,4.93 2.15,9.22 2.40,12.02 2.65,14.82 2.23,12.57 1.81,10.32 1.74,7.87 1.67,5.43 1.45,2.63 1.24,-0.16 1.46,-2.72 1.68,-5.27 1.66,-5.70 1.64,-6.12 1.75,-6.53 1.87,-6.94 2.11,-7.29 2.35,-7.64 2.69,-7.90 3.03,-8.15 3.43,-8.29 3.83,-8.42 4.26,-8.42 4.68,-8.42 5.08,-8.28 5.49,-8.14 5.82,-7.89 6.16,-7.63 6.40,-7.28 6.64,-6.92 6.75,-6.51 6.86,-6.10 6.84,-5.68 6.81,-5.25 6.65,-4.86 6.49,-4.47 6.22,-4.14 5.94,-3.82 5.58,-3.60 5.21,-3.38 4.80,-3.29 4.38,-3.21 3.96,-3.25 3.54,-3.30 3.15,-3.48 2.77,-3.66 2.46,-3.95 2.15,-4.25 1.95,-4.62 1.76,-5.00 1.69,-5.42 1.62,-5.84 1.69,-6.26 1.76,-6.68 1.96,-7.05 2.16,-7.43 2.47,-7.72 2.78,-8.01 3.17,-8.18 3.55,-8.36 3.98,-8.41 4.40,-8.45 4.81,-8.36 5.23,-8.26 5.59,-8.04 5.96,-7.82 6.23,-7.50 6.50,-7.17 6.66,-6.78 6.81,-6.38 6.81,-6.38 6.81,-6.38 8.18,-3.65 9.54,-0.91 9.87,2.31 10.19,5.54 10.04,9.18 9.88,12.81 6.72,17.07 3.57,21.32 -0.29,19.19 -4.15,17.06 -4.92,13.02 -5.68,8.98 -5.62,3.94 -5.55,-1.09 -4.63,-6.14 -3.71,-11.19 -1.45,-15.11 0.81,-19.03 0.29,-15.63 -0.23,-12.22 0.84,-9.24 1.92,-6.25 2.05,-3.85 2.18,-1.45 2.32,-1.17 2.47,-0.89 2.54,-0.58 2.61,-0.27 2.60,0.04 2.60,0.35 2.52,0.66 2.44,0.97 2.28,1.24 2.13,1.52 1.92,1.76 1.70,1.99 1.44,2.16 1.18,2.34 0.88,2.45 0.58,2.56 0.27,2.59 -0.04,2.62 -0.35,2.58 -0.66,2.53 -0.96,2.42 -1.25,2.30 -1.51,2.12 -1.77,1.93 -1.97,1.69 -2.18,1.45 -2.18,1.45 L -2.18,1.45 Z"/></g><g transform="translate(1030 379) rotate(0 -4 16)" stroke="none"><path fill="#1e1e1e" d="M 0,2.62 Q 0,2.62 -1.04,3.21 -2.09,3.81 -4.42,6.53 -6.74,9.26 -8.11,10.96 -9.47,12.67 -7.03,9.90 -4.58,7.13 -1.59,5.15 1.39,3.16 4.34,2.84 7.29,2.51 8.84,6.25 10.40,9.98 9.71,12.74 9.02,15.50 8.52,18.99 8.02,22.48 7.42,26.07 6.82,29.65 6.76,31.21 6.69,32.77 6.61,33.19 6.53,33.61 6.32,33.97 6.11,34.34 5.79,34.63 5.47,34.91 5.08,35.08 4.69,35.24 4.27,35.27 3.84,35.31 3.43,35.20 3.02,35.10 2.66,34.87 2.30,34.64 2.04,34.31 1.77,33.97 1.63,33.57 1.48,33.17 1.48,32.75 1.47,32.32 1.59,31.92 1.72,31.51 1.97,31.17 2.22,30.83 2.56,30.58 2.91,30.33 3.32,30.21 3.72,30.09 4.15,30.10 4.57,30.11 4.97,30.26 5.37,30.41 5.70,30.68 6.03,30.94 6.26,31.30 6.48,31.66 6.58,32.07 6.69,32.49 6.65,32.91 6.61,33.33 6.44,33.72 6.27,34.11 5.99,34.43 5.70,34.74 5.33,34.95 4.96,35.16 4.54,35.24 4.13,35.32 3.71,35.26 3.29,35.20 2.91,35.01 2.53,34.82 2.23,34.52 1.93,34.21 1.74,33.83 1.55,33.45 1.50,33.03 1.44,32.61 1.44,32.61 1.44,32.61 1.47,31.05 1.51,29.49 1.14,25.74 0.76,21.98 2.07,17.15 3.37,12.31 1.40,13.49 -0.57,14.67 -3.65,16.18 -6.74,17.68 -10.21,17.69 -13.68,17.70 -15.20,16.05 -16.73,14.41 -16.43,11.09 -16.14,7.78 -14.54,5.74 -12.94,3.70 -10.22,0.97 -7.50,-1.75 -5.00,-2.78 -2.50,-3.81 -1.25,-3.21 0,-2.62 0.31,-2.58 0.62,-2.55 0.92,-2.43 1.22,-2.32 1.48,-2.14 1.74,-1.96 1.95,-1.72 2.16,-1.49 2.30,-1.21 2.45,-0.93 2.53,-0.62 2.60,-0.31 2.60,0.00 2.60,0.31 2.53,0.62 2.45,0.93 2.30,1.21 2.16,1.49 1.95,1.72 1.74,1.96 1.48,2.14 1.22,2.32 0.92,2.43 0.62,2.55 0.31,2.58 -0.00,2.62 -0.00,2.62 L 0,2.62 Z"/></g><g transform="translate(994 670) rotate(0 1 20)" stroke="none"><path fill="#1e1e1e" d="M 2.10,-1.57 Q 2.10,-1.57 3.33,-0.69 4.57,0.18 6.14,2.55 7.70,4.92 7.25,8.51 6.81,12.11 6.35,14.33 5.90,16.55 5.11,19.87 4.33,23.18 3.23,28.27 2.13,33.37 1.56,35.63 0.99,37.89 0.88,38.30 0.76,38.71 0.52,39.06 0.28,39.41 -0.05,39.67 -0.39,39.93 -0.79,40.06 -1.20,40.19 -1.62,40.19 -2.05,40.19 -2.45,40.05 -2.85,39.91 -3.19,39.65 -3.52,39.40 -3.76,39.04 -4.00,38.69 -4.11,38.28 -4.22,37.87 -4.20,37.45 -4.17,37.02 -4.01,36.63 -3.85,36.23 -3.58,35.91 -3.30,35.59 -2.93,35.37 -2.57,35.15 -2.15,35.06 -1.74,34.97 -1.32,35.02 -0.89,35.07 -0.51,35.25 -0.12,35.43 0.17,35.73 0.48,36.02 0.68,36.40 0.87,36.77 0.94,37.19 1.01,37.61 0.94,38.03 0.87,38.45 0.66,38.82 0.46,39.20 0.15,39.49 -0.15,39.78 -0.53,39.96 -0.92,40.13 -1.34,40.18 -1.76,40.22 -2.18,40.13 -2.59,40.03 -2.96,39.81 -3.32,39.59 -3.59,39.27 -3.87,38.94 -4.02,38.55 -4.18,38.15 -4.20,37.73 -4.22,37.30 -4.22,37.30 -4.22,37.30 -4.26,34.97 -4.31,32.64 -4.18,26.92 -4.05,21.20 -3.30,18.01 -2.55,14.83 -2.09,12.57 -1.63,10.32 -1.37,7.37 -1.12,4.41 -1.61,2.99 -2.10,1.57 -2.25,1.30 -2.41,1.02 -2.50,0.72 -2.59,0.41 -2.60,0.10 -2.61,-0.21 -2.55,-0.52 -2.49,-0.83 -2.35,-1.12 -2.21,-1.40 -2.01,-1.65 -1.81,-1.89 -1.56,-2.08 -1.31,-2.27 -1.01,-2.39 -0.72,-2.52 -0.41,-2.57 -0.10,-2.62 0.21,-2.59 0.52,-2.57 0.82,-2.47 1.12,-2.37 1.39,-2.20 1.66,-2.03 1.88,-1.80 2.10,-1.57 2.10,-1.57 L 2.10,-1.57 Z"/></g><g transform="translate(972 703) rotate(0 26.5 -10.5)" stroke="none"><path fill="#1e1e1e" d="M -1.60,-2.08 Q -1.60,-2.08 1.49,-5.81 4.59,-9.54 11.83,-12.80 19.08,-16.06 26.64,-17.96 34.20,-19.86 39.40,-20.90 44.60,-21.94 46.84,-22.27 49.08,-22.59 49.50,-22.64 49.92,-22.69 50.34,-22.61 50.75,-22.52 51.12,-22.31 51.49,-22.09 51.77,-21.77 52.05,-21.45 52.21,-21.06 52.37,-20.66 52.40,-20.24 52.43,-19.82 52.32,-19.41 52.21,-19.00 51.97,-18.64 51.74,-18.29 51.41,-18.02 51.07,-17.76 50.67,-17.62 50.27,-17.48 49.84,-17.48 49.42,-17.47 49.01,-17.60 48.61,-17.73 48.27,-17.99 47.93,-18.24 47.68,-18.59 47.44,-18.94 47.32,-19.35 47.20,-19.75 47.22,-20.18 47.24,-20.60 47.39,-21.00 47.54,-21.40 47.82,-21.72 48.09,-22.05 48.45,-22.27 48.81,-22.50 49.22,-22.59 49.64,-22.69 50.06,-22.65 50.48,-22.61 50.87,-22.43 51.26,-22.26 51.57,-21.97 51.88,-21.68 52.09,-21.31 52.29,-20.94 52.36,-20.52 52.44,-20.10 52.37,-19.68 52.31,-19.26 52.12,-18.88 51.92,-18.50 51.62,-18.21 51.31,-17.91 50.93,-17.73 50.54,-17.55 50.54,-17.55 50.55,-17.55 48.48,-16.62 46.41,-15.69 41.48,-13.78 36.55,-11.88 29.73,-9.55 22.92,-7.22 16.63,-4.58 10.35,-1.95 5.97,0.06 1.60,2.08 1.32,2.24 1.05,2.40 0.75,2.49 0.45,2.58 0.13,2.60 -0.18,2.62 -0.49,2.56 -0.80,2.50 -1.09,2.36 -1.37,2.23 -1.62,2.03 -1.87,1.84 -2.06,1.58 -2.25,1.33 -2.38,1.04 -2.51,0.75 -2.56,0.44 -2.62,0.13 -2.60,-0.18 -2.57,-0.49 -2.48,-0.79 -2.38,-1.09 -2.21,-1.36 -2.05,-1.63 -1.82,-1.86 -1.60,-2.08 -1.60,-2.08 L -1.60,-2.08 Z"/></g><g transform="translate(1047 698) rotate(0 -18 28)" stroke="none"><path fill="#1e1e1e" d="M 2.18,1.45 Q 2.18,1.45 1.13,4.49 0.07,7.52 -1.89,11.39 -3.87,15.26 -6.71,20.50 -9.55,25.74 -13.10,31.72 -16.65,37.70 -20.70,43.14 -24.75,48.58 -27.29,51.29 -29.83,53.99 -31.18,54.89 -32.53,55.79 -32.84,56.08 -33.15,56.37 -33.54,56.55 -33.92,56.73 -34.34,56.77 -34.77,56.82 -35.18,56.72 -35.60,56.63 -35.96,56.41 -36.32,56.19 -36.60,55.87 -36.87,55.54 -37.03,55.15 -37.18,54.75 -37.21,54.33 -37.23,53.90 -37.11,53.49 -37.00,53.08 -36.76,52.73 -36.52,52.38 -36.18,52.13 -35.84,51.87 -35.44,51.74 -35.03,51.60 -34.61,51.60 -34.18,51.60 -33.78,51.74 -33.38,51.88 -33.04,52.14 -32.70,52.39 -32.47,52.75 -32.23,53.10 -32.12,53.51 -32.00,53.92 -32.03,54.34 -32.05,54.77 -32.21,55.16 -32.37,55.56 -32.65,55.88 -32.92,56.20 -33.29,56.42 -33.65,56.64 -34.07,56.73 -34.48,56.82 -34.91,56.77 -35.33,56.72 -35.71,56.54 -36.10,56.36 -36.41,56.07 -36.71,55.78 -36.91,55.40 -37.11,55.02 -37.18,54.60 -37.24,54.19 -37.17,53.77 -37.10,53.35 -36.90,52.97 -36.70,52.60 -36.70,52.60 -36.70,52.60 -36.19,51.06 -35.67,49.52 -33.83,46.50 -31.99,43.47 -28.42,38.13 -24.85,32.78 -21.30,26.92 -17.76,21.06 -14.73,16.02 -11.70,10.98 -9.34,6.90 -6.97,2.82 -4.58,0.68 -2.18,-1.45 -1.97,-1.69 -1.77,-1.93 -1.51,-2.12 -1.25,-2.30 -0.96,-2.42 -0.66,-2.53 -0.35,-2.58 -0.04,-2.62 0.27,-2.59 0.58,-2.56 0.88,-2.45 1.18,-2.34 1.44,-2.16 1.70,-1.99 1.92,-1.76 2.13,-1.52 2.28,-1.24 2.44,-0.97 2.52,-0.66 2.60,-0.35 2.60,-0.04 2.61,0.27 2.54,0.58 2.47,0.89 2.32,1.17 2.18,1.45 2.18,1.45 L 2.18,1.45 Z"/></g><g transform="translate(1058 701) rotate(0 -6 22)" stroke="none"><path fill="#1e1e1e" d="M 2.62,0 Q 2.62,0 3.11,4.33 3.61,8.66 2.10,14.13 0.59,19.61 -1.30,24.67 -3.21,29.73 -4.94,33.63 -6.67,37.54 -8.33,40.60 -9.98,43.66 -10.21,44.02 -10.44,44.38 -10.78,44.64 -11.11,44.90 -11.51,45.05 -11.91,45.19 -12.33,45.20 -12.76,45.21 -13.17,45.08 -13.57,44.95 -13.91,44.70 -14.26,44.45 -14.50,44.10 -14.75,43.75 -14.87,43.35 -14.99,42.94 -14.97,42.51 -14.96,42.09 -14.81,41.69 -14.66,41.29 -14.39,40.97 -14.12,40.64 -13.76,40.41 -13.40,40.18 -12.99,40.09 -12.58,39.99 -12.15,40.02 -11.73,40.06 -11.34,40.23 -10.95,40.40 -10.64,40.69 -10.32,40.98 -10.12,41.35 -9.91,41.72 -9.83,42.14 -9.76,42.56 -9.82,42.98 -9.88,43.40 -10.07,43.78 -10.26,44.16 -10.57,44.45 -10.87,44.75 -11.25,44.94 -11.63,45.12 -12.06,45.18 -12.48,45.23 -12.89,45.15 -13.31,45.06 -13.68,44.85 -14.05,44.64 -14.33,44.32 -14.61,44.00 -14.77,43.61 -14.94,43.22 -14.97,42.79 -15.00,42.37 -14.89,41.96 -14.79,41.55 -14.79,41.55 -14.79,41.55 -13.67,38.31 -12.56,35.07 -11.07,31.28 -9.58,27.48 -7.96,22.55 -6.34,17.61 -4.97,13.10 -3.61,8.58 -3.11,4.29 -2.62,0 -2.58,-0.31 -2.55,-0.62 -2.43,-0.92 -2.32,-1.22 -2.14,-1.48 -1.96,-1.74 -1.72,-1.95 -1.49,-2.16 -1.21,-2.30 -0.93,-2.45 -0.62,-2.53 -0.31,-2.60 0.00,-2.60 0.31,-2.60 0.62,-2.53 0.93,-2.45 1.21,-2.30 1.49,-2.16 1.72,-1.95 1.96,-1.74 2.14,-1.48 2.32,-1.22 2.43,-0.92 2.55,-0.62 2.58,-0.31 2.62,0.00 2.62,0.00 L 2.62,0 Z"/></g><g transform="translate(1024 730) rotate(0 15.5 -7)" stroke="none"><path fill="#1e1e1e" d="M -1.21,-2.32 Q -1.21,-2.32 4.46,-6.15 10.15,-9.99 15.87,-12.04 21.59,-14.09 24.09,-14.57 26.59,-15.04 27.00,-15.14 27.42,-15.23 27.84,-15.19 28.26,-15.14 28.65,-14.97 29.04,-14.79 29.35,-14.50 29.66,-14.21 29.86,-13.84 30.06,-13.46 30.13,-13.04 30.20,-12.62 30.14,-12.20 30.07,-11.79 29.87,-11.41 29.68,-11.03 29.37,-10.74 29.06,-10.44 28.68,-10.26 28.29,-10.08 27.87,-10.03 27.45,-9.99 27.03,-10.07 26.62,-10.16 26.25,-10.38 25.89,-10.60 25.61,-10.92 25.33,-11.24 25.17,-11.63 25.01,-12.03 24.99,-12.45 24.96,-12.88 25.08,-13.29 25.19,-13.70 25.42,-14.05 25.66,-14.40 26.00,-14.66 26.33,-14.92 26.73,-15.06 27.14,-15.20 27.56,-15.20 27.99,-15.20 28.39,-15.07 28.79,-14.94 29.13,-14.68 29.47,-14.43 29.71,-14.08 29.95,-13.73 30.07,-13.32 30.19,-12.91 30.17,-12.48 30.15,-12.06 29.99,-11.66 29.84,-11.27 29.56,-10.94 29.29,-10.62 28.93,-10.40 28.56,-10.17 28.56,-10.17 28.56,-10.17 26.44,-8.77 24.31,-7.38 19.15,-5.01 13.99,-2.65 7.60,-0.16 1.21,2.32 0.92,2.43 0.62,2.55 0.31,2.58 -0.00,2.62 -0.31,2.58 -0.63,2.54 -0.92,2.43 -1.22,2.32 -1.48,2.14 -1.74,1.96 -1.95,1.72 -2.16,1.49 -2.30,1.20 -2.45,0.92 -2.53,0.62 -2.60,0.31 -2.60,-0.00 -2.60,-0.31 -2.53,-0.62 -2.45,-0.93 -2.30,-1.21 -2.16,-1.49 -1.95,-1.73 -1.74,-1.96 -1.47,-2.14 -1.21,-2.32 -1.21,-2.32 L -1.21,-2.32 Z"/></g><g stroke-linecap="round" transform="translate(474 339) rotate(0 267 263.85265225933205)"><path d="M183.54 13.29 C201.5 2.91, 226.48 2.23, 247.71 0.78 C268.94 -0.68, 290.15 1.15, 310.92 4.56 C331.7 7.97, 352.77 12.98, 372.38 21.25 C391.99 29.52, 411.64 41.23, 428.6 54.17 C445.56 67.12, 460.85 82.45, 474.13 98.91 C487.4 115.36, 498.99 133.87, 508.23 152.91 C517.47 171.94, 525.47 192.66, 529.55 213.14 C533.63 233.61, 533.82 254.64, 532.72 275.77 C531.62 296.89, 528.97 319.65, 522.93 339.88 C516.88 360.12, 507.08 379.21, 496.43 397.17 C485.78 415.14, 473.68 432.62, 459.02 447.67 C444.36 462.71, 426.49 476.33, 408.45 487.42 C390.41 498.51, 371.07 507.59, 350.79 514.2 C330.5 520.81, 308.2 525.43, 286.73 527.08 C265.26 528.73, 242.86 527.65, 221.96 524.09 C201.07 520.53, 180.8 514, 161.38 505.71 C141.95 497.43, 122.58 487.01, 105.39 474.39 C88.21 461.76, 71.77 446.51, 58.26 429.95 C44.75 413.38, 33.3 394.28, 24.33 375.01 C15.36 355.75, 8.45 334.82, 4.44 314.35 C0.43 293.88, -0.78 272.99, 0.28 252.17 C1.34 231.35, 4.73 209.61, 10.82 189.44 C16.91 169.28, 26.06 149.46, 36.8 131.17 C47.55 112.87, 60.38 94.88, 75.28 79.67 C90.18 64.45, 106.4 51.51, 126.21 39.9 C146.02 28.29, 181.2 14.53, 194.15 10.01 C207.1 5.48, 202.76 8.41, 203.91 12.74 M215.45 4.12 C234.07 -4, 258.06 -2.15, 279.65 -1 C301.25 0.16, 324.49 4.83, 345.02 11.03 C365.54 17.23, 384.58 25.26, 402.81 36.2 C421.05 47.14, 438.93 61.61, 454.44 76.67 C469.95 91.74, 484.93 109.05, 495.87 126.6 C506.82 144.15, 513.66 162.32, 520.1 182 C526.53 201.68, 532.81 223.65, 534.48 244.68 C536.14 265.72, 534 287.18, 530.1 308.2 C526.2 329.22, 519.63 351.44, 511.07 370.8 C502.51 390.17, 491.6 407.77, 478.75 424.39 C465.9 441, 450.57 457.36, 433.95 470.49 C417.34 483.62, 398.53 494.59, 379.06 503.18 C359.59 511.76, 337.98 518.05, 317.13 521.98 C296.28 525.91, 275.47 527.84, 253.98 526.76 C232.49 525.68, 208.66 521.44, 188.2 515.49 C167.74 509.53, 149.36 501.47, 131.21 491.04 C113.06 480.62, 94.55 467.95, 79.28 452.92 C64.01 437.89, 50.92 418.94, 39.59 400.88 C28.26 382.83, 17.95 364.21, 11.29 344.59 C4.64 324.97, 1.01 304.3, -0.34 283.17 C-1.69 262.03, -0.5 238.61, 3.21 217.78 C6.92 196.95, 13.04 177.43, 21.92 158.16 C30.81 138.89, 43.22 118.97, 56.52 102.14 C69.83 85.32, 85.38 70.39, 101.77 57.21 C118.15 44.03, 135.5 31.89, 154.81 23.06 C174.12 14.22, 207.06 6.18, 217.63 4.19 C228.19 2.19, 217.56 6.86, 218.21 11.09" stroke="#1e1e1e" stroke-width="2" fill="none"/></g><g stroke-linecap="round"><g transform="translate(31 693) rotate(0 354.5 -49)"><path d="M-0.39 -0.33 C117.82 -16.52, 590.39 -81.3, 708.43 -97.73 M1.61 -1.55 C119.67 -18.06, 589.1 -83.63, 707.19 -99.71" stroke="#1e1e1e" stroke-width="2" fill="none"/></g></g><mask/><g stroke-linecap="round"><g transform="translate(388 628) rotate(0 0.5 19)"><path d="M0.14 -0.13 C0.32 6.21, 0.78 31.7, 0.94 38.03 M0.04 0.12 C0.2 6.42, 0.63 31.48, 0.79 37.78" stroke="#1e1e1e" stroke-width="2" fill="none"/></g></g><mask/><g stroke-linecap="round" transform="translate(39 310) rotate(0 343 343)"><path d="M375.14 2.4 C398.08 -1.21, 422.82 8.09, 445.77 15.25 C468.71 22.41, 492.15 33.44, 512.81 45.36 C533.47 57.28, 552.13 71.3, 569.72 86.77 C587.32 102.23, 604.22 119.05, 618.38 138.15 C632.54 157.24, 644.72 179.7, 654.67 201.33 C664.61 222.96, 672.97 244.83, 678.06 267.94 C683.16 291.05, 684.98 316.23, 685.23 340 C685.47 363.77, 684.31 387.17, 679.54 410.56 C674.77 433.95, 666.24 458.37, 656.61 480.34 C646.98 502.31, 635.29 522.99, 621.77 542.37 C608.26 561.74, 592.99 580.57, 575.53 596.59 C558.07 612.62, 537.71 626.65, 517.01 638.52 C496.32 650.39, 474 660.42, 451.35 667.82 C428.7 675.21, 404.73 679.95, 381.11 682.88 C357.49 685.81, 333.08 687.39, 309.62 685.39 C286.16 683.39, 262.91 678.25, 240.37 670.88 C217.83 663.51, 195.19 653.17, 174.38 641.18 C153.57 629.19, 133.26 614.46, 115.52 598.92 C97.78 583.39, 81.95 566.82, 67.94 547.99 C53.92 529.15, 41.28 507.86, 31.42 485.92 C21.57 463.97, 14.14 439.76, 8.81 416.3 C3.48 392.85, -0.19 368.68, -0.58 345.2 C-0.96 321.73, 1.63 298.48, 6.52 275.47 C11.41 252.45, 19.23 229.08, 28.78 207.13 C38.33 185.18, 49.99 163.15, 63.82 143.78 C77.64 124.4, 94.26 106.81, 111.73 90.89 C129.21 74.97, 148.22 60.34, 168.66 48.25 C189.1 36.16, 211.84 25.92, 234.38 18.32 C256.92 10.73, 279.13 5.19, 303.91 2.69 C328.69 0.19, 368.54 1.9, 383.07 3.32 C397.59 4.74, 391.53 5.51, 391.06 11.19 M184.35 40.46 C201.39 24.87, 226.11 19.04, 249.06 12.26 C272.01 5.48, 297.94 1.33, 322.06 -0.24 C346.17 -1.8, 370.63 -0.79, 393.73 2.86 C416.84 6.51, 438.54 13.35, 460.69 21.66 C482.84 29.97, 506.37 40.11, 526.63 52.74 C546.89 65.36, 565.5 80.86, 582.24 97.42 C598.98 113.98, 613.88 132.24, 627.08 152.1 C640.27 171.95, 652.41 194.52, 661.4 216.56 C670.39 238.6, 676.73 260.92, 681.01 284.35 C685.3 307.78, 688.11 333.52, 687.11 357.14 C686.11 380.77, 681.21 403.08, 675.02 426.1 C668.83 449.13, 660.34 473.97, 649.99 495.3 C639.64 516.63, 627.74 535.55, 612.91 554.08 C598.08 572.6, 579.24 591.05, 561.02 606.44 C542.8 621.83, 524.49 635.42, 503.57 646.42 C482.65 657.41, 458.59 665.72, 435.5 672.4 C412.42 679.08, 388.74 684.92, 365.06 686.48 C341.38 688.04, 316.88 685.24, 293.42 681.76 C269.97 678.27, 246.79 673.91, 224.33 665.59 C201.87 657.27, 178.7 644.92, 158.66 631.85 C138.63 618.78, 120.93 603.79, 104.12 587.16 C87.3 570.52, 71 551.71, 57.77 532.03 C44.54 512.36, 33.73 490.74, 24.76 469.1 C15.78 447.47, 7.96 425.47, 3.93 402.21 C-0.11 378.96, -0.8 353.63, 0.53 329.57 C1.86 305.51, 6.29 280.73, 11.92 257.86 C17.55 234.99, 24.21 213.66, 34.32 192.36 C44.43 171.06, 57.8 148.82, 72.56 130.05 C87.32 111.28, 104.52 94.72, 122.9 79.75 C141.28 64.78, 172.39 46.18, 182.83 40.22 C193.27 34.26, 182.76 39.29, 185.54 43.98" stroke="#1e1e1e" stroke-width="2" fill="none"/></g><g stroke-linecap="round"><g transform="translate(21 697) rotate(0 471 -257.5)"><path d="M0.58 0.78 C157.83 -84.99, 785.41 -428.24, 942.41 -514.21 M-0.58 0.15 C156.65 -86, 784.56 -430.27, 941.68 -515.92" stroke="#1e1e1e" stroke-width="2" fill="none"/></g></g><mask/><g stroke-linecap="round"><g transform="translate(32 690) rotate(0 563 148)"><path d="M-0.53 0.7 C187.4 50.02, 939.21 246.9, 1126.97 296.17 M1.39 0.03 C189.31 49.55, 939.21 248.17, 1126.54 297.8" stroke="#1e1e1e" stroke-width="2" fill="none"/></g></g><mask/><g transform="translate(1060 587) rotate(0 28.5 -30)" stroke="none"><path fill="#1e1e1e" d="M -2.49,-0.83 Q -2.49,-0.83 -2.55,-4.69 -2.62,-8.55 0.52,-15.00 3.68,-21.45 6.30,-27.63 8.92,-33.82 10.14,-40.03 11.37,-46.24 11.41,-50.75 11.46,-55.25 9.34,-58.23 7.21,-61.20 7.30,-61.88 7.39,-62.57 7.64,-63.21 7.89,-63.86 8.29,-64.42 8.68,-64.99 9.20,-65.44 9.72,-65.90 10.34,-66.21 10.95,-66.53 11.63,-66.69 12.30,-66.85 12.99,-66.84 13.68,-66.84 14.35,-66.67 15.02,-66.50 15.63,-66.17 16.24,-65.84 16.75,-65.38 17.26,-64.92 17.65,-64.35 18.04,-63.78 18.28,-63.13 18.52,-62.48 18.60,-61.79 18.67,-61.11 16.27,-57.68 13.87,-54.25 13.65,-50.83 13.42,-47.42 14.58,-43.01 15.75,-38.61 19.48,-34.55 23.20,-30.49 26.71,-27.83 30.23,-25.18 33.12,-22.20 36.01,-19.22 36.67,-14.96 37.33,-10.69 35.27,-7.03 33.20,-3.37 28.46,-0.78 23.73,1.80 19.69,2.20 15.65,2.60 12.69,1.57 9.73,0.54 7.89,-2.18 6.05,-4.91 6.89,-7.48 7.72,-10.05 10.19,-11.15 12.67,-12.25 15.57,-11.41 18.48,-10.56 20.98,-9.77 23.48,-8.97 27.24,-7.72 30.99,-6.47 38.55,-3.82 46.10,-1.16 49.38,0.02 52.65,1.21 53.04,1.38 53.43,1.55 53.75,1.83 54.07,2.11 54.28,2.48 54.49,2.85 54.57,3.27 54.65,3.69 54.59,4.11 54.53,4.53 54.34,4.91 54.15,5.29 53.85,5.59 53.55,5.89 53.17,6.08 52.79,6.27 52.37,6.33 51.95,6.39 51.53,6.31 51.12,6.23 50.75,6.02 50.38,5.81 50.09,5.49 49.81,5.18 49.64,4.79 49.47,4.40 49.44,3.97 49.40,3.55 49.51,3.14 49.61,2.72 49.84,2.37 50.07,2.01 50.40,1.74 50.73,1.47 51.13,1.33 51.53,1.18 51.95,1.17 52.37,1.16 52.78,1.28 53.19,1.41 53.53,1.65 53.88,1.90 54.13,2.25 54.37,2.59 54.50,3.00 54.62,3.41 54.61,3.83 54.60,4.25 54.45,4.65 54.31,5.05 54.04,5.38 53.78,5.72 53.42,5.94 53.06,6.17 52.65,6.28 52.23,6.38 51.81,6.34 51.39,6.31 51.39,6.31 51.39,6.31 47.93,5.83 44.48,5.36 36.20,4.08 27.92,2.80 24.18,1.57 20.44,0.34 17.01,-1.80 13.58,-3.95 13.70,-6.10 13.83,-8.26 16.75,-7.76 19.67,-7.26 22.65,-8.37 25.64,-9.47 27.11,-11.67 28.58,-13.88 26.47,-15.71 24.36,-17.53 20.16,-20.79 15.96,-24.04 11.01,-29.81 6.05,-35.58 4.39,-42.14 2.72,-48.70 4.97,-54.95 7.21,-61.20 7.30,-61.88 7.39,-62.57 7.64,-63.21 7.89,-63.86 8.29,-64.42 8.68,-64.99 9.20,-65.44 9.72,-65.89 10.34,-66.21 10.95,-66.53 11.62,-66.69 12.30,-66.85 12.99,-66.84 13.68,-66.84 14.35,-66.67 15.02,-66.50 15.63,-66.17 16.24,-65.84 16.75,-65.38 17.26,-64.92 17.65,-64.35 18.04,-63.78 18.28,-63.13 18.52,-62.48 18.60,-61.79 18.67,-61.11 20.54,-58.88 22.40,-56.66 22.36,-50.28 22.33,-43.91 20.64,-36.71 18.95,-29.50 16.09,-23.06 13.22,-16.61 10.22,-10.93 7.22,-5.24 4.85,-2.20 2.49,0.83 2.35,1.11 2.22,1.40 2.02,1.64 1.82,1.89 1.56,2.08 1.31,2.27 1.02,2.39 0.73,2.52 0.41,2.57 0.10,2.62 -0.20,2.59 -0.52,2.57 -0.82,2.47 -1.12,2.37 -1.39,2.20 -1.66,2.03 -1.87,1.80 -2.09,1.57 -2.25,1.30 -2.41,1.03 -2.50,0.72 -2.59,0.42 -2.60,0.10 -2.61,-0.21 -2.55,-0.52 -2.49,-0.83 -2.49,-0.83 L -2.49,-0.83 Z"/></g></svg>