<svg version="1.1" xmlns="http://www.w3.org/2000/svg" viewBox="0 0 633.0602029659691 649.2981991406333" width="633.0602029659691" height="649.2981991406333" filter="invert(93%) hue-rotate(180deg)">
  <!-- svg-source:excalidraw -->
  
  <defs>
    <style class="style-fonts">
      @font-face {
        font-family: "Virgil";
        src: url("https://excalidraw.com/Virgil.woff2");
      }
      @font-face {
        font-family: "Cascadia";
        src: url("https://excalidraw.com/Cascadia.woff2");
      }
    </style>
    
  </defs>
  <rect x="0" y="0" width="633.0602029659691" height="649.2981991406333" fill="transparent"/><g stroke-linecap="round"><g transform="translate(203.00860944303918 639.2068280947918) rotate(0 -6.5 -314.5)"><path d="M-0.12 0.09 C-2.28 -104.71, -10.84 -524.05, -12.99 -628.93 M0.14 -0.02 C-2.04 -104.86, -10.91 -524.37, -13.13 -629.21" stroke="#1e1e1e" stroke-width="2" fill="none"/></g><g transform="translate(203.00860944303918 639.2068280947918) rotate(0 -6.5 -314.5)"><path d="M-2.27 -601.24 C-5.14 -609.17, -8.26 -617.18, -13.13 -629.21 M-2.27 -601.24 C-4.59 -607.16, -6.99 -612.94, -13.13 -629.21" stroke="#1e1e1e" stroke-width="2" fill="none"/></g><g transform="translate(203.00860944303918 639.2068280947918) rotate(0 -6.5 -314.5)"><path d="M-22.79 -600.81 C-19.83 -608.84, -17.12 -616.97, -13.13 -629.21 M-22.79 -600.81 C-20.8 -606.82, -18.9 -612.69, -13.13 -629.21" stroke="#1e1e1e" stroke-width="2" fill="none"/></g></g><mask/><g stroke-linecap="round"><g transform="translate(10.008609443039177 474.20682809479183) rotate(0 306.5 0.5)"><path d="M0.11 -0.01 C102.27 0.17, 510.91 0.84, 613.05 1.03 M-0.01 -0.14 C102.13 -0.01, 510.81 0.6, 612.96 0.78" stroke="#1e1e1e" stroke-width="2" fill="none"/></g><g transform="translate(10.008609443039177 474.20682809479183) rotate(0 306.5 0.5)"><path d="M584.75 11 C594.94 7.37, 605.21 3.56, 612.96 0.78 M584.75 11 C595.7 7.13, 607 2.94, 612.96 0.78" stroke="#1e1e1e" stroke-width="2" fill="none"/></g><g transform="translate(10.008609443039177 474.20682809479183) rotate(0 306.5 0.5)"><path d="M584.79 -9.52 C594.96 -5.73, 605.21 -2.12, 612.96 0.78 M584.79 -9.52 C595.72 -5.33, 607 -1.45, 612.96 0.78" stroke="#1e1e1e" stroke-width="2" fill="none"/></g></g><mask/><g transform="translate(145.2869264079959 499.46964434388667) rotate(0 -3.603217329248764 16.532408922435593)" stroke="none"><path fill="#1e1e1e" d="M -1.31,0 Q -1.31,0 -1.74,-0.97 -2.16,-1.94 -4.19,-0.81 -6.22,0.32 -7.54,1.50 -8.86,2.69 -9.90,4.03 -10.95,5.37 -12.30,8.09 -13.65,10.81 -14.46,13.23 -15.27,15.65 -15.60,17.86 -15.93,20.08 -15.88,23.21 -15.84,26.34 -15.49,28.57 -15.13,30.79 -14.59,32.29 -14.05,33.79 -12.86,34.90 -11.66,36.00 -9.69,36.12 -7.73,36.24 -6.29,35.53 -4.85,34.82 -2.43,32.46 -0.01,30.11 1.75,27.91 3.53,25.71 4.72,23.75 5.91,21.79 6.74,20.01 7.57,18.24 8.12,16.50 8.67,14.75 8.86,13.17 9.04,11.60 8.88,10.14 8.72,8.68 8.41,7.23 8.10,5.78 7.64,4.42 7.18,3.05 6.58,2.03 5.99,1.00 4.77,-0.25 3.56,-1.52 2.54,-2.24 1.52,-2.97 0.08,-3.46 -1.35,-3.96 -2.60,-3.95 -3.86,-3.94 -4.84,-3.41 -5.82,-2.87 -6.61,-2.03 -7.39,-1.18 -7.32,-0.98 -7.25,-0.78 -7.25,-0.57 -7.25,-0.36 -7.31,-0.15 -7.38,0.04 -7.51,0.21 -7.63,0.38 -7.81,0.50 -7.98,0.62 -8.19,0.68 -8.39,0.74 -8.60,0.73 -8.81,0.72 -9.01,0.65 -9.21,0.57 -9.37,0.43 -9.54,0.30 -9.65,0.12 -9.76,-0.05 -9.81,-0.26 -9.86,-0.47 -9.84,-0.68 -9.82,-0.89 -9.73,-1.08 -9.64,-1.28 -9.50,-1.43 -9.35,-1.59 -9.17,-1.69 -8.98,-1.79 -8.77,-1.83 -8.56,-1.87 -8.35,-1.83 -8.14,-1.80 -7.95,-1.70 -7.76,-1.61 -7.62,-1.45 -7.47,-1.30 -7.38,-1.11 -7.28,-0.92 -7.26,-0.71 -7.23,-0.50 -7.28,-0.29 -7.32,-0.08 -7.43,0.09 -7.54,0.28 -7.70,0.42 -7.86,0.55 -8.05,0.64 -8.25,0.72 -8.46,0.73 -8.67,0.74 -8.88,0.69 -9.08,0.63 -9.26,0.52 -9.44,0.40 -9.57,0.23 -9.70,0.06 -9.70,0.06 -9.70,0.06 -9.77,-2.54 -9.84,-5.16 -9.16,-6.08 -8.49,-6.99 -7.45,-7.61 -6.42,-8.22 -5.41,-8.62 -4.40,-9.01 -2.29,-8.99 -0.19,-8.97 0.99,-8.66 2.18,-8.35 3.37,-7.74 4.57,-7.12 5.95,-6.07 7.33,-5.03 8.91,-3.27 10.48,-1.52 11.27,-0.02 12.07,1.46 12.59,3.15 13.12,4.84 13.41,6.57 13.70,8.30 13.79,10.30 13.89,12.30 13.54,14.27 13.19,16.25 12.48,18.28 11.77,20.30 10.77,22.24 9.78,24.18 8.40,26.37 7.02,28.56 5.04,30.96 3.06,33.36 0.08,36.10 -2.89,38.83 -4.96,39.77 -7.04,40.71 -9.14,40.87 -11.25,41.03 -13.03,40.18 -14.80,39.33 -16.60,37.48 -18.40,35.63 -19.18,33.62 -19.96,31.62 -20.41,29.05 -20.86,26.47 -20.99,22.89 -21.11,19.31 -20.70,16.64 -20.29,13.97 -19.35,11.20 -18.41,8.42 -16.79,5.23 -15.17,2.04 -13.82,0.37 -12.47,-1.29 -11.03,-2.60 -9.58,-3.91 -7.70,-5.33 -5.82,-6.74 -3.79,-7.19 -1.77,-7.64 -0.58,-7.21 0.59,-6.78 1.31,-5.69 2.03,-4.59 2.09,-3.27 2.16,-1.95 1.74,-0.97 1.31,0 1.29,0.15 1.27,0.31 1.21,0.46 1.16,0.61 1.07,0.74 0.98,0.87 0.86,0.97 0.74,1.08 0.60,1.15 0.46,1.22 0.31,1.26 0.15,1.30 -0.00,1.30 -0.15,1.30 -0.31,1.26 -0.46,1.22 -0.60,1.15 -0.74,1.08 -0.86,0.97 -0.98,0.87 -1.07,0.74 -1.16,0.61 -1.21,0.46 -1.27,0.31 -1.29,0.15 -1.31,-0.00 -1.31,-0.00 L -1.31,0 Z"/></g><g transform="translate(130.0262412488246 76.83344701905833) rotate(0 28.613784673446276 -5.2988490136011706)" stroke="none"><path fill="#1e1e1e" d="M -1.11,-0.69 Q -1.11,-0.69 -0.89,-1.91 -0.67,-3.13 0.69,-5.84 2.06,-8.54 3.41,-11.06 4.75,-13.57 5.92,-15.83 7.09,-18.10 8.05,-20.14 9.02,-22.17 9.78,-23.98 10.54,-25.78 11.09,-27.26 11.64,-28.74 11.97,-29.90 12.29,-31.07 12.77,-32.91 13.25,-34.75 13.57,-35.85 13.90,-36.96 13.97,-37.26 14.04,-37.56 14.15,-37.84 14.26,-38.12 14.43,-38.37 14.61,-38.62 14.84,-38.82 15.06,-39.02 15.33,-39.16 15.60,-39.30 15.90,-39.37 16.19,-39.44 16.50,-39.44 16.80,-39.44 17.09,-39.37 17.39,-39.29 17.66,-39.15 17.92,-39.01 18.15,-38.81 18.38,-38.60 18.55,-38.35 18.72,-38.10 18.82,-37.82 18.93,-37.53 18.97,-37.23 19.00,-36.93 18.96,-36.63 18.92,-36.33 18.43,-34.70 17.93,-33.08 17.73,-31.89 17.54,-30.69 17.21,-28.13 16.89,-25.58 16.62,-23.61 16.36,-21.64 16.11,-20.06 15.87,-18.48 15.75,-16.72 15.62,-14.95 15.57,-13.80 15.52,-12.66 15.69,-11.30 15.86,-9.95 16.41,-11.00 16.95,-12.06 17.91,-13.52 18.86,-14.97 19.45,-16.00 20.05,-17.03 21.12,-19.03 22.19,-21.03 22.90,-22.74 23.61,-24.46 24.29,-25.78 24.98,-27.10 25.59,-28.36 26.19,-29.62 28.14,-30.11 30.08,-30.61 30.58,-29.61 31.09,-28.61 31.11,-27.43 31.13,-26.25 31.17,-24.96 31.20,-23.68 31.23,-22.22 31.25,-20.77 31.26,-18.52 31.27,-16.28 31.15,-14.67 31.02,-13.06 30.60,-10.14 30.18,-7.22 29.89,-4.94 29.60,-2.65 29.08,-0.45 28.57,1.74 27.97,3.68 27.37,5.61 26.75,7.42 26.13,9.22 25.50,10.96 24.87,12.70 24.07,14.40 23.27,16.09 22.54,17.42 21.81,18.75 20.40,20.54 18.99,22.32 18.07,23.49 17.16,24.65 15.32,26.18 13.48,27.71 11.50,27.89 9.51,28.07 8.59,27.13 7.66,26.20 7.33,24.80 7.00,23.41 7.26,21.40 7.52,19.39 9.39,15.22 11.27,11.06 13.29,7.50 15.32,3.93 17.81,0.41 20.30,-3.11 25.08,-8.33 29.87,-13.56 33.60,-17.34 37.34,-21.13 40.44,-23.95 43.54,-26.77 46.87,-29.16 50.20,-31.56 53.16,-33.28 56.11,-35.01 56.31,-35.10 56.50,-35.19 56.71,-35.21 56.92,-35.24 57.13,-35.19 57.34,-35.15 57.52,-35.04 57.70,-34.93 57.84,-34.77 57.98,-34.61 58.06,-34.41 58.14,-34.21 58.15,-34.00 58.16,-33.79 58.11,-33.58 58.05,-33.38 57.93,-33.20 57.81,-33.03 57.64,-32.90 57.47,-32.77 57.27,-32.70 57.07,-32.63 56.86,-32.63 56.65,-32.63 56.45,-32.70 56.24,-32.76 56.07,-32.89 55.90,-33.02 55.78,-33.19 55.67,-33.37 55.61,-33.57 55.55,-33.78 55.56,-33.99 55.57,-34.20 55.65,-34.40 55.73,-34.60 55.86,-34.76 56.00,-34.92 56.18,-35.03 56.36,-35.14 56.57,-35.19 56.78,-35.24 56.99,-35.21 57.20,-35.19 57.40,-35.10 57.59,-35.01 57.74,-34.87 57.90,-34.72 58.00,-34.54 58.10,-34.35 58.13,-34.14 58.17,-33.93 58.13,-33.72 58.10,-33.51 58.00,-33.32 57.90,-33.13 57.75,-32.99 57.60,-32.84 57.60,-32.84 57.60,-32.84 55.04,-30.80 52.48,-28.75 49.58,-26.07 46.67,-23.40 43.70,-20.59 40.74,-17.78 37.07,-14.05 33.41,-10.32 28.81,-5.32 24.21,-0.32 21.84,2.99 19.46,6.32 17.49,9.70 15.53,13.08 13.74,16.65 11.95,20.22 11.55,22.12 11.14,24.03 12.31,22.94 13.48,21.85 14.37,20.65 15.26,19.44 16.39,17.94 17.51,16.44 18.15,15.21 18.80,13.97 19.50,12.49 20.21,11.01 20.82,9.31 21.44,7.60 22.04,5.87 22.64,4.15 23.20,2.37 23.75,0.59 24.22,-1.35 24.69,-3.30 25.00,-5.62 25.30,-7.94 25.72,-10.70 26.13,-13.45 26.25,-14.87 26.37,-16.28 26.37,-17.55 26.38,-18.82 26.39,-20.65 26.40,-22.49 26.44,-24.01 26.49,-25.53 26.80,-26.56 27.11,-27.59 28.40,-26.90 29.70,-26.21 29.11,-24.92 28.52,-23.63 27.80,-22.33 27.07,-21.03 26.08,-19.00 25.08,-16.98 24.55,-15.86 24.01,-14.75 23.44,-13.77 22.87,-12.79 21.58,-10.87 20.29,-8.95 18.93,-7.78 17.56,-6.61 15.95,-6.28 14.34,-5.95 13.29,-6.63 12.24,-7.31 11.70,-8.50 11.17,-9.69 11.02,-11.26 10.88,-12.82 10.91,-14.01 10.94,-15.20 11.02,-17.19 11.09,-19.19 11.32,-20.74 11.54,-22.29 11.80,-24.24 12.06,-26.19 12.39,-28.84 12.73,-31.48 12.94,-32.78 13.16,-34.08 13.60,-35.82 14.04,-37.56 14.15,-37.84 14.26,-38.12 14.43,-38.37 14.61,-38.62 14.84,-38.82 15.06,-39.02 15.33,-39.16 15.60,-39.30 15.90,-39.37 16.19,-39.44 16.50,-39.44 16.80,-39.44 17.09,-39.37 17.39,-39.29 17.66,-39.15 17.92,-39.01 18.15,-38.81 18.38,-38.60 18.55,-38.35 18.72,-38.10 18.82,-37.82 18.93,-37.53 18.97,-37.23 19.00,-36.93 18.96,-36.63 18.92,-36.33 18.72,-35.51 18.52,-34.70 18.13,-33.21 17.74,-31.72 17.44,-30.69 17.13,-29.65 16.72,-28.30 16.31,-26.96 15.71,-25.40 15.10,-23.84 14.29,-21.94 13.47,-20.03 12.46,-17.94 11.44,-15.84 10.23,-13.54 9.02,-11.25 7.65,-8.76 6.28,-6.26 4.69,-3.51 3.10,-0.76 2.11,-0.03 1.11,0.69 1.01,0.81 0.91,0.94 0.78,1.03 0.66,1.13 0.51,1.19 0.37,1.25 0.21,1.28 0.05,1.31 -0.09,1.30 -0.25,1.28 -0.40,1.23 -0.55,1.18 -0.69,1.10 -0.82,1.02 -0.93,0.90 -1.04,0.79 -1.12,0.65 -1.20,0.52 -1.25,0.36 -1.29,0.21 -1.30,0.05 -1.30,-0.09 -1.27,-0.25 -1.24,-0.40 -1.18,-0.55 -1.11,-0.69 -1.11,-0.69 L -1.11,-0.69 Z"/></g><g transform="translate(545.0320959940673 516.4259611874104) rotate(0 12.081375751010626 -13.565053474818995)" stroke="none"><path fill="#1e1e1e" d="M -1.03,-0.80 Q -1.03,-0.80 1.18,-4.36 3.40,-7.91 5.07,-10.07 6.75,-12.24 9.06,-15.10 11.37,-17.96 13.29,-19.94 15.21,-21.92 16.68,-23.29 18.16,-24.67 20.32,-26.06 22.49,-27.45 22.67,-27.55 22.85,-27.66 23.06,-27.70 23.27,-27.75 23.48,-27.72 23.69,-27.70 23.88,-27.61 24.08,-27.51 24.23,-27.37 24.38,-27.22 24.48,-27.03 24.58,-26.84 24.61,-26.63 24.64,-26.42 24.60,-26.21 24.57,-26.00 24.47,-25.82 24.36,-25.63 24.21,-25.48 24.05,-25.34 23.86,-25.25 23.66,-25.17 23.45,-25.15 23.24,-25.12 23.04,-25.17 22.83,-25.22 22.65,-25.33 22.47,-25.44 22.33,-25.61 22.19,-25.77 22.12,-25.97 22.04,-26.17 22.03,-26.38 22.02,-26.59 22.08,-26.80 22.14,-27.00 22.26,-27.17 22.38,-27.35 22.55,-27.48 22.73,-27.60 22.93,-27.67 23.13,-27.73 23.34,-27.73 23.55,-27.73 23.76,-27.66 23.96,-27.59 24.12,-27.46 24.29,-27.33 24.41,-27.15 24.53,-26.97 24.58,-26.77 24.63,-26.56 24.62,-26.35 24.61,-26.14 24.53,-25.94 24.45,-25.75 24.31,-25.59 24.17,-25.43 24.17,-25.43 24.17,-25.43 22.57,-23.69 20.97,-21.95 19.66,-20.45 18.36,-18.95 16.61,-17.04 14.86,-15.14 12.57,-12.28 10.27,-9.43 8.55,-7.34 6.83,-5.24 3.93,-2.22 1.03,0.80 0.92,0.91 0.81,1.03 0.67,1.11 0.54,1.19 0.39,1.24 0.24,1.29 0.08,1.30 -0.07,1.31 -0.23,1.28 -0.38,1.25 -0.53,1.19 -0.67,1.12 -0.80,1.02 -0.92,0.93 -1.02,0.80 -1.12,0.68 -1.18,0.53 -1.25,0.39 -1.28,0.23 -1.31,0.08 -1.30,-0.07 -1.29,-0.23 -1.24,-0.38 -1.19,-0.53 -1.11,-0.67 -1.03,-0.80 -1.03,-0.80 L -1.03,-0.80 Z"/></g><g transform="translate(550.1189910471244 484.6328671058034) rotate(0 6.146664855777374 12.293329711554662)" stroke="none"><path fill="#1e1e1e" d="M 1.19,-0.55 Q 1.19,-0.55 2.47,0.77 3.76,2.10 4.66,3.81 5.57,5.52 6.57,7.51 7.58,9.49 8.49,11.46 9.41,13.44 10.32,15.35 11.23,17.26 12.22,20.22 13.22,23.18 13.29,23.38 13.36,23.58 13.36,23.79 13.36,24.01 13.29,24.21 13.23,24.41 13.10,24.58 12.97,24.75 12.80,24.87 12.62,24.99 12.42,25.05 12.22,25.11 12.00,25.10 11.79,25.09 11.59,25.01 11.39,24.93 11.23,24.80 11.07,24.66 10.96,24.48 10.85,24.30 10.80,24.09 10.75,23.89 10.77,23.67 10.79,23.46 10.88,23.27 10.97,23.08 11.12,22.92 11.26,22.76 11.45,22.66 11.63,22.56 11.84,22.53 12.05,22.49 12.26,22.52 12.47,22.56 12.66,22.65 12.85,22.75 13.00,22.91 13.14,23.06 13.24,23.25 13.33,23.44 13.35,23.65 13.38,23.87 13.33,24.07 13.29,24.28 13.18,24.46 13.07,24.65 12.91,24.79 12.75,24.92 12.55,25.00 12.36,25.08 12.14,25.10 11.93,25.11 11.73,25.06 11.52,25.00 11.34,24.88 11.17,24.76 11.04,24.60 10.91,24.43 10.91,24.43 10.91,24.43 8.96,21.94 7.01,19.45 5.92,17.52 4.84,15.59 3.93,13.70 3.02,11.80 2.02,9.84 1.03,7.88 0.09,6.06 -0.84,4.23 -1.01,2.39 -1.19,0.55 -1.24,0.39 -1.28,0.24 -1.30,0.09 -1.31,-0.06 -1.28,-0.22 -1.25,-0.37 -1.19,-0.52 -1.13,-0.66 -1.03,-0.79 -0.93,-0.91 -0.81,-1.01 -0.69,-1.11 -0.54,-1.18 -0.40,-1.25 -0.24,-1.28 -0.09,-1.31 0.06,-1.30 0.22,-1.29 0.37,-1.24 0.52,-1.20 0.66,-1.12 0.80,-1.04 0.91,-0.93 1.02,-0.81 1.10,-0.68 1.19,-0.55 1.19,-0.55 L 1.19,-0.55 Z"/></g><g transform="translate(398.35995529758725 504.13263147585565) rotate(0 -3.179309408160691 4.874941092513097)" stroke="none"><path fill="#1e1e1e" d="M -1.28,-0.28 Q -1.28,-0.28 -1.41,-1.46 -1.54,-2.64 -1.52,-4.35 -1.50,-6.05 -1.48,-6.38 -1.47,-6.71 -1.33,-7.02 -1.19,-7.32 -0.99,-7.59 -0.78,-7.85 -0.52,-8.06 -0.25,-8.26 0.04,-8.40 0.35,-8.54 0.68,-8.60 1.01,-8.66 1.34,-8.64 1.68,-8.62 2.00,-8.52 2.31,-8.42 2.60,-8.25 2.89,-8.08 3.13,-7.84 3.36,-7.61 3.54,-7.32 3.71,-7.03 3.81,-6.71 3.91,-6.39 3.93,-6.06 3.95,-5.72 3.89,-5.40 3.83,-5.07 2.85,-3.12 1.86,-1.18 1.23,0.20 0.59,1.60 0.11,2.95 -0.36,4.30 -0.99,5.81 -1.62,7.33 -2.15,8.55 -2.69,9.77 -3.57,11.74 -4.45,13.72 -5.36,14.92 -6.28,16.12 -6.36,16.32 -6.44,16.51 -6.59,16.67 -6.73,16.83 -6.91,16.93 -7.10,17.03 -7.31,17.07 -7.52,17.11 -7.73,17.08 -7.94,17.05 -8.13,16.96 -8.32,16.87 -8.47,16.71 -8.62,16.56 -8.71,16.37 -8.81,16.18 -8.83,15.97 -8.86,15.76 -8.82,15.55 -8.78,15.34 -8.68,15.16 -8.57,14.97 -8.41,14.83 -8.25,14.69 -8.06,14.61 -7.86,14.53 -7.65,14.51 -7.44,14.49 -7.23,14.54 -7.03,14.60 -6.85,14.71 -6.67,14.83 -6.54,14.99 -6.40,15.16 -6.33,15.36 -6.26,15.56 -6.25,15.77 -6.25,15.98 -6.31,16.18 -6.37,16.39 -6.50,16.56 -6.62,16.73 -6.80,16.86 -6.97,16.98 -7.17,17.04 -7.38,17.10 -7.59,17.10 -7.80,17.09 -8.00,17.02 -8.20,16.94 -8.36,16.81 -8.53,16.67 -8.64,16.50 -8.76,16.32 -8.81,16.11 -8.86,15.90 -8.84,15.69 -8.82,15.48 -8.82,15.48 -8.82,15.48 -8.58,12.89 -8.34,10.31 -8.03,9.04 -7.71,7.76 -7.26,6.51 -6.81,5.26 -6.27,3.82 -5.72,2.39 -5.16,0.81 -4.60,-0.76 -3.92,-2.24 -3.25,-3.71 -2.36,-5.21 -1.47,-6.71 -1.33,-7.02 -1.19,-7.32 -0.99,-7.59 -0.78,-7.85 -0.52,-8.06 -0.25,-8.26 0.04,-8.40 0.35,-8.54 0.68,-8.60 1.01,-8.66 1.34,-8.64 1.67,-8.62 1.99,-8.52 2.31,-8.42 2.60,-8.25 2.89,-8.08 3.13,-7.84 3.36,-7.61 3.54,-7.32 3.71,-7.03 3.81,-6.71 3.91,-6.39 3.93,-6.06 3.95,-5.72 3.89,-5.40 3.83,-5.07 3.50,-4.60 3.17,-4.13 2.84,-2.93 2.52,-1.74 1.90,-0.72 1.28,0.28 1.22,0.43 1.17,0.58 1.08,0.71 1.00,0.84 0.88,0.95 0.77,1.06 0.63,1.14 0.49,1.21 0.34,1.25 0.18,1.29 0.02,1.30 -0.12,1.30 -0.28,1.27 -0.43,1.23 -0.57,1.16 -0.72,1.09 -0.84,0.99 -0.96,0.89 -1.05,0.76 -1.14,0.63 -1.20,0.49 -1.26,0.34 -1.29,0.18 -1.31,0.03 -1.29,-0.12 -1.28,-0.28 -1.28,-0.28 L -1.28,-0.28 Z"/></g><g transform="translate(387.7622572703849 502.86090771259137) rotate(0 5.086895053057134 2.755401487072646)" stroke="none"><path fill="#1e1e1e" d="M -1.30,-0.18 Q -1.30,-0.18 -1.63,-1.10 -1.96,-2.02 -1.58,-3.28 -1.20,-4.55 -0.06,-5.02 1.07,-5.48 3.01,-4.43 4.95,-3.38 5.69,-2.41 6.42,-1.43 7.53,0.11 8.64,1.65 9.47,3.05 10.30,4.44 10.65,6.12 11.00,7.80 11.09,7.99 11.19,8.18 11.22,8.39 11.25,8.60 11.21,8.81 11.17,9.02 11.06,9.21 10.96,9.39 10.80,9.53 10.65,9.68 10.45,9.76 10.26,9.85 10.04,9.86 9.83,9.88 9.63,9.83 9.42,9.78 9.24,9.67 9.06,9.55 8.93,9.39 8.79,9.22 8.72,9.02 8.64,8.83 8.64,8.61 8.63,8.40 8.69,8.20 8.75,7.99 8.88,7.82 9.00,7.65 9.17,7.52 9.34,7.40 9.55,7.34 9.75,7.27 9.96,7.28 10.18,7.28 10.38,7.35 10.57,7.43 10.74,7.56 10.91,7.69 11.02,7.87 11.14,8.05 11.19,8.25 11.24,8.46 11.23,8.67 11.21,8.88 11.13,9.08 11.04,9.28 10.90,9.43 10.76,9.59 10.58,9.70 10.39,9.80 10.18,9.84 9.97,9.89 9.76,9.86 9.55,9.83 9.36,9.74 9.17,9.64 9.02,9.49 8.87,9.34 8.87,9.34 8.87,9.34 7.54,8.27 6.20,7.19 5.24,5.95 4.28,4.70 3.19,3.18 2.09,1.66 1.16,0.49 0.23,-0.67 1.34,-1.03 2.45,-1.39 1.87,-0.60 1.30,0.18 1.25,0.33 1.21,0.49 1.14,0.63 1.06,0.76 0.95,0.88 0.84,1.00 0.71,1.08 0.58,1.17 0.43,1.22 0.28,1.28 0.12,1.29 -0.02,1.31 -0.18,1.29 -0.34,1.26 -0.48,1.20 -0.63,1.14 -0.76,1.05 -0.89,0.96 -0.99,0.84 -1.09,0.72 -1.16,0.58 -1.23,0.43 -1.27,0.28 -1.30,0.13 -1.30,-0.02 -1.30,-0.18 -1.30,-0.18 L -1.30,-0.18 Z"/></g><g transform="translate(416.1640879832871 516.8498691084984) rotate(0 -2.967355447616626 13.777007435363032)" stroke="none"><path fill="#1e1e1e" d="M 0.41,1.24 Q 0.41,1.24 -0.09,2.06 -0.60,2.89 -1.15,3.84 -1.69,4.79 -1.03,5.66 -0.36,6.54 0.43,8.00 1.22,9.46 1.43,10.52 1.65,11.58 1.75,12.78 1.84,13.98 1.75,15.34 1.65,16.71 1.48,17.91 1.30,19.11 0.95,20.46 0.61,21.81 0.16,22.94 -0.28,24.07 -0.78,25.02 -1.28,25.98 -3.26,27.57 -5.23,29.15 -5.41,29.27 -5.59,29.38 -5.79,29.44 -6.00,29.49 -6.21,29.48 -6.42,29.46 -6.62,29.38 -6.82,29.30 -6.98,29.16 -7.14,29.02 -7.24,28.83 -7.35,28.65 -7.39,28.44 -7.43,28.23 -7.41,28.02 -7.38,27.81 -7.29,27.62 -7.20,27.43 -7.05,27.28 -6.90,27.12 -6.71,27.03 -6.52,26.93 -6.31,26.90 -6.10,26.87 -5.89,26.91 -5.68,26.95 -5.49,27.05 -5.31,27.15 -5.17,27.31 -5.02,27.46 -4.94,27.66 -4.85,27.85 -4.83,28.07 -4.81,28.28 -4.86,28.48 -4.91,28.69 -5.02,28.87 -5.13,29.05 -5.30,29.19 -5.46,29.32 -5.66,29.40 -5.86,29.47 -6.07,29.48 -6.28,29.49 -6.49,29.43 -6.69,29.37 -6.87,29.24 -7.04,29.12 -7.17,28.95 -7.29,28.78 -7.36,28.58 -7.42,28.37 -7.42,28.16 -7.41,27.95 -7.34,27.75 -7.27,27.55 -7.14,27.38 -7.01,27.21 -7.01,27.22 -7.01,27.22 -6.50,25.55 -5.99,23.88 -5.38,22.14 -4.77,20.40 -4.49,19.34 -4.21,18.29 -3.94,16.26 -3.68,14.22 -3.70,12.76 -3.72,11.30 -4.17,10.24 -4.63,9.18 -5.26,8.24 -5.89,7.29 -6.27,6.05 -6.65,4.82 -6.45,3.69 -6.25,2.57 -5.58,1.34 -4.91,0.10 -3.61,-0.90 -2.32,-1.91 -1.36,-1.58 -0.41,-1.24 -0.26,-1.27 -0.10,-1.30 0.05,-1.30 0.21,-1.29 0.36,-1.25 0.51,-1.20 0.65,-1.12 0.78,-1.04 0.90,-0.93 1.01,-0.83 1.10,-0.69 1.18,-0.56 1.23,-0.41 1.28,-0.26 1.29,-0.10 1.31,0.05 1.28,0.20 1.26,0.36 1.19,0.51 1.13,0.65 1.04,0.78 0.94,0.91 0.82,1.01 0.70,1.11 0.55,1.17 0.41,1.24 0.41,1.24 L 0.41,1.24 Z"/></g><g transform="translate(130.45014916991272 232.4076540583883) rotate(0 16.532408922435593 9.32597426393805)" stroke="none"><path fill="#1e1e1e" d="M 1.31,0 Q 1.31,0 1.72,1.21 2.13,2.43 2.45,3.63 2.76,4.83 2.73,5.14 2.69,5.44 2.58,5.72 2.47,6.01 2.30,6.26 2.13,6.51 1.90,6.71 1.67,6.91 1.40,7.05 1.13,7.20 0.84,7.27 0.54,7.34 0.24,7.34 -0.06,7.34 -0.35,7.27 -0.65,7.20 -0.92,7.05 -1.19,6.91 -1.41,6.71 -1.64,6.51 -1.81,6.26 -1.99,6.01 -2.10,5.72 -2.20,5.44 -2.24,5.14 -2.28,4.83 -1.60,3.62 -0.91,2.41 -0.21,1.33 0.47,0.25 1.66,-1.65 2.84,-3.57 3.69,-5.08 4.53,-6.58 5.25,-7.95 5.98,-9.31 6.50,-10.45 7.03,-11.59 7.55,-12.54 8.07,-13.49 9.15,-15.22 10.23,-16.94 11.53,-17.08 12.83,-17.22 13.73,-15.96 14.62,-14.71 14.76,-13.58 14.90,-12.45 15.06,-11.31 15.21,-10.17 17.02,-9.75 18.82,-9.33 20.21,-6.62 21.60,-3.91 21.94,-1.95 22.28,0.00 22.41,1.95 22.55,3.91 22.48,6.02 22.41,8.14 22.26,10.26 22.10,12.38 21.63,14.51 21.17,16.65 20.57,18.65 19.98,20.65 19.33,22.59 18.69,24.53 17.62,26.90 16.55,29.27 15.84,30.64 15.13,32.02 14.53,32.92 13.93,33.82 12.38,34.83 10.83,35.84 9.29,34.86 7.76,33.87 7.48,32.71 7.20,31.55 7.24,30.26 7.27,28.96 7.42,27.70 7.56,26.45 7.87,24.96 8.19,23.47 9.41,21.22 10.63,18.97 11.93,17.28 13.22,15.59 14.72,14.18 16.22,12.77 18.89,10.86 21.57,8.95 23.72,7.62 25.88,6.29 28.58,5.05 31.28,3.80 31.47,3.72 31.67,3.64 31.88,3.62 32.09,3.61 32.30,3.66 32.50,3.71 32.68,3.83 32.86,3.94 32.99,4.11 33.12,4.28 33.20,4.48 33.27,4.68 33.27,4.89 33.28,5.10 33.21,5.31 33.15,5.51 33.02,5.68 32.90,5.85 32.73,5.97 32.55,6.10 32.35,6.16 32.14,6.22 31.93,6.21 31.72,6.20 31.52,6.13 31.32,6.06 31.16,5.92 30.99,5.79 30.88,5.61 30.77,5.43 30.72,5.22 30.67,5.01 30.69,4.80 30.70,4.59 30.79,4.40 30.87,4.20 31.02,4.04 31.16,3.89 31.35,3.78 31.53,3.68 31.74,3.64 31.95,3.60 32.16,3.63 32.37,3.66 32.56,3.76 32.75,3.85 32.90,4.01 33.05,4.16 33.14,4.35 33.23,4.54 33.26,4.75 33.29,4.96 33.25,5.17 33.21,5.38 33.10,5.56 32.99,5.75 32.84,5.89 32.68,6.03 32.68,6.03 32.68,6.03 30.46,7.88 28.24,9.73 26.30,11.22 24.35,12.70 21.97,14.55 19.59,16.40 18.36,17.52 17.13,18.64 16.02,20.05 14.91,21.45 13.92,23.03 12.93,24.62 12.63,25.84 12.32,27.07 12.04,29.02 11.75,30.98 10.86,31.67 9.96,32.36 10.68,31.26 11.40,30.16 12.02,28.87 12.63,27.57 13.54,25.39 14.44,23.20 14.99,21.30 15.55,19.40 16.05,17.52 16.55,15.65 16.94,13.83 17.34,12.02 17.49,10.00 17.64,7.97 17.71,6.09 17.79,4.21 17.68,2.49 17.58,0.76 17.35,-0.76 17.13,-2.29 16.40,-4.52 15.67,-6.75 14.42,-6.79 13.18,-6.84 12.17,-7.73 11.16,-8.62 10.79,-9.88 10.43,-11.13 10.79,-12.18 11.15,-13.23 12.18,-12.78 13.20,-12.33 12.43,-10.88 11.66,-9.44 11.08,-8.18 10.49,-6.92 9.74,-5.50 8.98,-4.08 8.08,-2.48 7.18,-0.89 5.97,1.04 4.77,2.99 3.77,3.91 2.76,4.83 2.73,5.14 2.69,5.44 2.58,5.72 2.47,6.01 2.30,6.26 2.13,6.51 1.90,6.71 1.67,6.91 1.40,7.05 1.13,7.20 0.84,7.27 0.54,7.34 0.24,7.34 -0.06,7.34 -0.35,7.27 -0.65,7.20 -0.92,7.05 -1.19,6.91 -1.41,6.71 -1.64,6.51 -1.81,6.26 -1.99,6.01 -2.10,5.72 -2.20,5.44 -2.24,5.14 -2.28,4.83 -2.21,4.79 -2.14,4.75 -2.14,3.59 -2.13,2.43 -1.72,1.21 -1.31,0 -1.29,-0.15 -1.27,-0.31 -1.21,-0.46 -1.16,-0.61 -1.07,-0.74 -0.98,-0.87 -0.86,-0.97 -0.74,-1.08 -0.60,-1.15 -0.46,-1.22 -0.31,-1.26 -0.15,-1.30 0.00,-1.30 0.15,-1.30 0.31,-1.26 0.46,-1.22 0.60,-1.15 0.74,-1.08 0.86,-0.97 0.98,-0.87 1.07,-0.74 1.16,-0.61 1.21,-0.46 1.27,-0.31 1.29,-0.15 1.31,0.00 1.31,0.00 L 1.31,0 Z"/></g><g transform="translate(165.2105986991363 253.17914219170484) rotate(0 1.0597698027202114 10.173790106114211)" stroke="none"><path fill="#1e1e1e" d="M 1.17,0.58 Q 1.17,0.58 1.35,1.31 1.53,2.04 2.48,2.65 3.44,3.27 4.22,4.74 5.00,6.21 5.42,7.94 5.83,9.67 5.76,10.75 5.69,11.84 5.51,13.57 5.32,15.31 4.92,16.31 4.53,17.31 2.70,19.45 0.86,21.59 0.73,21.75 0.59,21.91 0.41,22.02 0.22,22.13 0.02,22.18 -0.18,22.22 -0.39,22.20 -0.60,22.18 -0.80,22.09 -0.99,22.00 -1.14,21.85 -1.30,21.71 -1.40,21.52 -1.50,21.33 -1.53,21.12 -1.56,20.91 -1.53,20.70 -1.50,20.49 -1.40,20.30 -1.30,20.12 -1.14,19.97 -0.99,19.82 -0.80,19.74 -0.60,19.65 -0.39,19.62 -0.18,19.60 0.02,19.65 0.23,19.69 0.41,19.80 0.59,19.91 0.73,20.07 0.86,20.24 0.94,20.43 1.02,20.63 1.03,20.84 1.04,21.05 0.99,21.26 0.93,21.46 0.81,21.64 0.69,21.82 0.52,21.94 0.35,22.07 0.15,22.14 -0.04,22.21 -0.25,22.21 -0.46,22.21 -0.67,22.14 -0.87,22.07 -1.04,21.94 -1.21,21.81 -1.32,21.64 -1.44,21.46 -1.50,21.26 -1.56,21.05 -1.55,20.84 -1.53,20.63 -1.46,20.43 -1.38,20.23 -1.38,20.23 -1.38,20.23 -0.81,17.77 -0.24,15.31 0.07,14.20 0.40,13.09 0.53,11.72 0.66,10.35 0.44,9.25 0.22,8.14 -0.37,6.81 -0.97,5.48 -2.04,4.28 -3.10,3.07 -2.80,1.49 -2.50,-0.09 -1.84,-0.34 -1.17,-0.58 -1.08,-0.71 -0.99,-0.85 -0.88,-0.95 -0.76,-1.06 -0.62,-1.14 -0.48,-1.21 -0.33,-1.25 -0.18,-1.30 -0.02,-1.30 0.13,-1.30 0.28,-1.27 0.44,-1.23 0.58,-1.16 0.72,-1.09 0.84,-0.99 0.96,-0.89 1.05,-0.76 1.15,-0.63 1.20,-0.48 1.26,-0.33 1.29,-0.18 1.31,-0.02 1.29,0.13 1.28,0.28 1.22,0.43 1.17,0.58 1.17,0.58 L 1.17,0.58 Z"/></g><g transform="translate(184.7103630691886 215.8752451359527) rotate(0 5.086895053057077 0.6358618816321382)" stroke="none"><path fill="#1e1e1e" d="M 0.48,-1.21 Q 0.48,-1.21 1.33,-1.58 2.17,-1.95 3.26,-1.93 4.35,-1.90 5.43,-1.78 6.50,-1.65 8.10,-1.43 9.71,-1.21 9.92,-1.20 10.14,-1.19 10.33,-1.12 10.53,-1.04 10.70,-0.90 10.86,-0.77 10.97,-0.59 11.08,-0.41 11.13,-0.20 11.18,0.00 11.15,0.21 11.13,0.42 11.05,0.61 10.96,0.81 10.81,0.96 10.67,1.12 10.48,1.22 10.30,1.32 10.09,1.36 9.88,1.39 9.67,1.36 9.46,1.33 9.27,1.23 9.08,1.13 8.93,0.98 8.78,0.83 8.69,0.63 8.60,0.44 8.58,0.23 8.55,0.02 8.60,-0.18 8.64,-0.39 8.75,-0.57 8.86,-0.75 9.02,-0.89 9.18,-1.03 9.38,-1.11 9.57,-1.19 9.78,-1.20 10.00,-1.22 10.20,-1.16 10.41,-1.11 10.58,-0.99 10.76,-0.87 10.89,-0.70 11.02,-0.53 11.09,-0.33 11.16,-0.13 11.16,0.07 11.16,0.28 11.10,0.48 11.03,0.69 10.90,0.86 10.78,1.03 10.60,1.15 10.43,1.27 10.22,1.33 10.02,1.38 10.02,1.38 10.02,1.38 7.39,2.18 4.76,2.98 3.56,3.12 2.36,3.27 1.31,3.10 0.26,2.93 -0.11,2.07 -0.48,1.21 -0.62,1.14 -0.76,1.06 -0.88,0.96 -0.99,0.85 -1.08,0.72 -1.17,0.58 -1.22,0.44 -1.28,0.29 -1.29,0.13 -1.31,-0.02 -1.29,-0.18 -1.26,-0.33 -1.21,-0.48 -1.15,-0.63 -1.05,-0.75 -0.96,-0.88 -0.84,-0.99 -0.72,-1.09 -0.58,-1.16 -0.44,-1.23 -0.28,-1.27 -0.13,-1.30 0.02,-1.30 0.18,-1.30 0.33,-1.26 0.48,-1.21 0.48,-1.21 L 0.48,-1.21 Z"/></g><g transform="translate(216.07954922970742 215.0274292937765) rotate(0 7.842296540129723 0.2119539605440508)" stroke="none"><path fill="#1e1e1e" d="M 0.51,-1.20 Q 0.51,-1.20 1.53,-1.30 2.55,-1.41 4.67,-1.52 6.79,-1.63 8.30,-1.71 9.81,-1.78 12.11,-1.86 14.41,-1.93 14.62,-1.94 14.83,-1.95 15.04,-1.88 15.24,-1.82 15.41,-1.70 15.59,-1.58 15.71,-1.40 15.83,-1.23 15.90,-1.03 15.96,-0.82 15.95,-0.61 15.95,-0.40 15.88,-0.20 15.80,-0.00 15.67,0.16 15.54,0.32 15.36,0.44 15.18,0.55 14.97,0.60 14.77,0.65 14.56,0.64 14.34,0.62 14.15,0.54 13.95,0.45 13.80,0.31 13.64,0.17 13.53,-0.00 13.43,-0.19 13.39,-0.40 13.35,-0.61 13.37,-0.82 13.40,-1.03 13.50,-1.22 13.59,-1.41 13.74,-1.56 13.89,-1.71 14.08,-1.80 14.27,-1.90 14.48,-1.93 14.69,-1.96 14.90,-1.92 15.11,-1.88 15.30,-1.77 15.48,-1.67 15.62,-1.51 15.76,-1.35 15.85,-1.16 15.93,-0.96 15.95,-0.75 15.97,-0.54 15.92,-0.33 15.87,-0.13 15.75,0.04 15.64,0.22 15.47,0.35 15.31,0.49 15.11,0.56 14.91,0.63 14.91,0.63 14.91,0.63 12.58,1.46 10.25,2.28 8.71,2.54 7.16,2.80 5.74,2.94 4.32,3.08 2.58,2.98 0.85,2.87 0.16,2.04 -0.51,1.20 -0.65,1.12 -0.79,1.04 -0.90,0.93 -1.01,0.82 -1.10,0.69 -1.18,0.56 -1.23,0.41 -1.28,0.25 -1.29,0.10 -1.31,-0.05 -1.28,-0.21 -1.26,-0.36 -1.19,-0.51 -1.13,-0.65 -1.04,-0.78 -0.94,-0.91 -0.82,-1.01 -0.69,-1.11 -0.55,-1.17 -0.41,-1.24 -0.25,-1.27 -0.10,-1.30 0.05,-1.30 0.21,-1.29 0.36,-1.25 0.51,-1.20 0.51,-1.20 L 0.51,-1.20 Z"/></g><g transform="translate(251.68781460110722 212.06007384615984) rotate(0 14.412869316995142 -2.7554014870726036)" stroke="none"><path fill="#1e1e1e" d="M 0.28,-1.28 Q 0.28,-1.28 1.50,-1.72 2.72,-2.17 4.31,-2.80 5.90,-3.43 7.78,-4.02 9.66,-4.62 12.79,-5.47 15.92,-6.31 18.48,-6.76 21.03,-7.21 24.15,-7.52 27.26,-7.84 27.47,-7.84 27.69,-7.84 27.89,-7.78 28.09,-7.71 28.26,-7.58 28.43,-7.46 28.55,-7.28 28.68,-7.11 28.73,-6.90 28.79,-6.70 28.79,-6.49 28.78,-6.28 28.70,-6.08 28.62,-5.88 28.49,-5.72 28.35,-5.55 28.17,-5.44 27.99,-5.33 27.78,-5.28 27.58,-5.23 27.37,-5.25 27.15,-5.27 26.96,-5.36 26.77,-5.45 26.61,-5.59 26.45,-5.74 26.35,-5.92 26.25,-6.11 26.21,-6.32 26.18,-6.53 26.21,-6.74 26.24,-6.95 26.34,-7.14 26.44,-7.32 26.59,-7.47 26.74,-7.62 26.93,-7.71 27.12,-7.80 27.33,-7.83 27.55,-7.85 27.75,-7.81 27.96,-7.77 28.15,-7.66 28.33,-7.55 28.47,-7.39 28.61,-7.23 28.69,-7.04 28.77,-6.84 28.78,-6.63 28.80,-6.42 28.74,-6.21 28.69,-6.01 28.57,-5.83 28.45,-5.65 28.29,-5.52 28.12,-5.39 27.92,-5.32 27.72,-5.25 27.72,-5.25 27.72,-5.25 24.80,-4.50 21.88,-3.75 19.63,-3.01 17.38,-2.27 14.37,-0.91 11.37,0.45 9.70,1.05 8.02,1.66 6.37,2.30 4.72,2.94 3.19,3.04 1.65,3.15 0.68,2.21 -0.28,1.28 -0.43,1.22 -0.58,1.17 -0.71,1.08 -0.84,1.00 -0.95,0.88 -1.06,0.77 -1.14,0.63 -1.21,0.49 -1.25,0.34 -1.29,0.18 -1.30,0.02 -1.30,-0.12 -1.27,-0.28 -1.23,-0.43 -1.16,-0.57 -1.09,-0.72 -0.99,-0.84 -0.89,-0.96 -0.76,-1.05 -0.63,-1.14 -0.49,-1.20 -0.34,-1.26 -0.18,-1.29 -0.03,-1.31 0.12,-1.29 0.28,-1.28 0.28,-1.28 L 0.28,-1.28 Z"/></g><g transform="translate(293.23079086774027 206.12536295092656) rotate(0 6.358618816321382 -1.4210854715202004e-14)" stroke="none"><path fill="#1e1e1e" d="M 0.23,-1.29 Q 0.23,-1.29 1.64,-1.46 3.06,-1.64 4.54,-1.74 6.02,-1.85 8.86,-1.93 11.71,-2.02 11.92,-2.01 12.14,-2.01 12.34,-1.94 12.54,-1.87 12.71,-1.74 12.87,-1.61 12.99,-1.44 13.11,-1.26 13.16,-1.05 13.22,-0.85 13.21,-0.64 13.19,-0.43 13.11,-0.23 13.03,-0.03 12.89,0.12 12.75,0.28 12.57,0.39 12.39,0.50 12.18,0.54 11.97,0.58 11.76,0.56 11.55,0.53 11.36,0.44 11.17,0.35 11.01,0.20 10.86,0.06 10.76,-0.12 10.66,-0.31 10.63,-0.52 10.60,-0.73 10.64,-0.94 10.67,-1.15 10.77,-1.34 10.87,-1.52 11.03,-1.67 11.19,-1.81 11.38,-1.90 11.57,-1.99 11.78,-2.01 12.00,-2.03 12.20,-1.98 12.41,-1.93 12.59,-1.82 12.77,-1.71 12.91,-1.55 13.04,-1.39 13.12,-1.19 13.20,-0.99 13.21,-0.78 13.22,-0.57 13.16,-0.36 13.10,-0.16 12.98,0.01 12.86,0.18 12.69,0.31 12.52,0.44 12.32,0.50 12.11,0.57 12.11,0.57 12.11,0.57 10.36,1.11 8.61,1.65 6.60,2.13 4.59,2.60 3.44,2.61 2.30,2.62 1.03,1.95 -0.23,1.29 -0.38,1.24 -0.53,1.19 -0.67,1.11 -0.80,1.03 -0.92,0.92 -1.03,0.81 -1.11,0.67 -1.19,0.54 -1.24,0.38 -1.29,0.23 -1.30,0.08 -1.31,-0.07 -1.28,-0.23 -1.25,-0.38 -1.18,-0.53 -1.12,-0.67 -1.02,-0.80 -0.92,-0.92 -0.80,-1.02 -0.68,-1.12 -0.53,-1.18 -0.39,-1.25 -0.23,-1.28 -0.08,-1.31 0.07,-1.30 0.23,-1.29 0.23,-1.29 L 0.23,-1.29 Z"/></g><g transform="translate(333.07813545002097 202.7340995822218) rotate(0 11.021605948290414 1.4210854715202004e-14)" stroke="none"><path fill="#1e1e1e" d="M 0.25,-1.28 Q 0.25,-1.28 1.56,-1.47 2.86,-1.66 5.16,-1.81 7.46,-1.95 9.13,-2.10 10.80,-2.25 12.74,-2.42 14.68,-2.60 17.65,-2.31 20.62,-2.02 20.84,-2.01 21.05,-2.00 21.24,-1.92 21.44,-1.83 21.60,-1.70 21.76,-1.56 21.87,-1.37 21.98,-1.19 22.02,-0.98 22.06,-0.77 22.04,-0.56 22.01,-0.35 21.92,-0.16 21.83,0.02 21.68,0.17 21.54,0.33 21.35,0.43 21.16,0.52 20.95,0.55 20.74,0.59 20.53,0.55 20.32,0.51 20.13,0.41 19.95,0.31 19.80,0.16 19.66,0.00 19.57,-0.18 19.48,-0.38 19.46,-0.59 19.44,-0.80 19.49,-1.01 19.54,-1.21 19.65,-1.40 19.76,-1.58 19.92,-1.71 20.09,-1.85 20.29,-1.92 20.48,-2.00 20.70,-2.01 20.91,-2.02 21.11,-1.96 21.32,-1.90 21.49,-1.78 21.67,-1.66 21.79,-1.49 21.92,-1.32 21.98,-1.12 22.05,-0.92 22.05,-0.70 22.05,-0.49 21.98,-0.29 21.91,-0.09 21.78,0.07 21.65,0.24 21.47,0.35 21.29,0.47 21.09,0.53 20.88,0.58 20.88,0.58 20.88,0.58 18.02,1.44 15.16,2.30 13.20,2.51 11.25,2.71 9.49,2.87 7.73,3.03 6.10,3.01 4.48,3.00 3.24,2.82 2.00,2.64 0.87,1.96 -0.25,1.28 -0.40,1.23 -0.55,1.18 -0.69,1.10 -0.82,1.02 -0.93,0.90 -1.04,0.79 -1.12,0.65 -1.20,0.51 -1.25,0.36 -1.29,0.21 -1.30,0.05 -1.30,-0.10 -1.27,-0.25 -1.24,-0.41 -1.18,-0.55 -1.11,-0.69 -1.01,-0.82 -0.91,-0.94 -0.78,-1.03 -0.66,-1.13 -0.51,-1.19 -0.37,-1.26 -0.21,-1.28 -0.05,-1.31 0.09,-1.29 0.25,-1.28 0.25,-1.28 L 0.25,-1.28 Z"/></g><g transform="translate(380.97973053297545 212.06007384615984) rotate(0 0.6358618816321382 2.331493565984516)" stroke="none"><path fill="#1e1e1e" d="M 1.09,-0.72 Q 1.09,-0.72 1.74,-0.59 2.39,-0.45 2.27,2.47 2.14,5.40 2.11,5.61 2.09,5.82 1.99,6.01 1.90,6.20 1.74,6.35 1.59,6.50 1.40,6.60 1.21,6.69 1.00,6.72 0.79,6.75 0.58,6.71 0.37,6.67 0.19,6.56 0.00,6.45 -0.13,6.30 -0.27,6.14 -0.35,5.94 -0.43,5.75 -0.45,5.53 -0.47,5.32 -0.42,5.12 -0.36,4.91 -0.25,4.73 -0.13,4.55 0.02,4.42 0.19,4.29 0.39,4.22 0.59,4.14 0.80,4.14 1.01,4.13 1.22,4.20 1.42,4.26 1.59,4.38 1.76,4.51 1.89,4.68 2.01,4.85 2.07,5.06 2.13,5.26 2.13,5.47 2.12,5.69 2.05,5.89 1.97,6.08 1.84,6.25 1.70,6.41 1.53,6.53 1.35,6.64 1.14,6.69 0.93,6.74 0.72,6.73 0.51,6.71 0.31,6.62 0.12,6.54 -0.03,6.40 -0.19,6.25 -0.29,6.07 -0.39,5.88 -0.43,5.67 -0.47,5.46 -0.47,5.47 -0.47,5.47 -0.94,3.69 -1.41,1.92 -1.25,1.32 -1.09,0.72 -1.16,0.58 -1.23,0.44 -1.27,0.29 -1.30,0.13 -1.30,-0.02 -1.30,-0.17 -1.26,-0.33 -1.22,-0.48 -1.14,-0.62 -1.06,-0.76 -0.96,-0.88 -0.85,-0.99 -0.72,-1.08 -0.59,-1.17 -0.44,-1.22 -0.29,-1.28 -0.13,-1.29 0.02,-1.31 0.17,-1.29 0.33,-1.26 0.48,-1.21 0.62,-1.15 0.75,-1.06 0.88,-0.96 0.98,-0.84 1.09,-0.72 1.09,-0.72 L 1.09,-0.72 Z"/></g><g transform="translate(384.3709939016802 254.87477387605722) rotate(0 0.4239079210880732 8.902066342849949)" stroke="none"><path fill="#1e1e1e" d="M 1.31,0 Q 1.31,0 1.49,2.92 1.67,5.84 1.71,7.45 1.75,9.06 1.87,10.14 1.99,11.22 2.02,14.17 2.05,17.11 2.06,17.33 2.06,17.54 2.00,17.74 1.93,17.94 1.81,18.12 1.68,18.29 1.51,18.41 1.34,18.53 1.13,18.59 0.93,18.66 0.72,18.65 0.50,18.64 0.30,18.57 0.11,18.49 -0.05,18.36 -0.21,18.22 -0.33,18.04 -0.44,17.86 -0.49,17.66 -0.54,17.45 -0.52,17.24 -0.50,17.03 -0.42,16.83 -0.33,16.64 -0.19,16.48 -0.05,16.32 0.13,16.22 0.32,16.12 0.53,16.08 0.73,16.04 0.94,16.07 1.15,16.10 1.34,16.20 1.53,16.29 1.68,16.44 1.83,16.59 1.93,16.79 2.02,16.98 2.05,17.19 2.07,17.40 2.03,17.61 1.99,17.81 1.88,18.00 1.78,18.18 1.62,18.32 1.46,18.46 1.26,18.55 1.07,18.63 0.86,18.65 0.64,18.66 0.44,18.61 0.23,18.56 0.05,18.44 -0.11,18.32 -0.25,18.16 -0.38,17.99 -0.45,17.79 -0.52,17.59 -0.52,17.59 -0.52,17.59 -1.01,14.59 -1.50,11.59 -1.62,10.32 -1.75,9.06 -1.71,7.45 -1.67,5.84 -1.49,2.92 -1.31,0 -1.29,-0.15 -1.27,-0.31 -1.21,-0.46 -1.16,-0.61 -1.07,-0.74 -0.98,-0.87 -0.86,-0.97 -0.74,-1.08 -0.60,-1.15 -0.46,-1.22 -0.31,-1.26 -0.15,-1.30 0.00,-1.30 0.15,-1.30 0.31,-1.26 0.46,-1.22 0.60,-1.15 0.74,-1.08 0.86,-0.97 0.98,-0.87 1.07,-0.74 1.16,-0.61 1.21,-0.46 1.27,-0.31 1.29,-0.15 1.31,0.00 1.31,0.00 L 1.31,0 Z"/></g><g transform="translate(389.8817968758254 323.54785709232823) rotate(0 0.2119539605440366 7.206434658497557)" stroke="none"><path fill="#1e1e1e" d="M 1.31,0 Q 1.31,0 1.49,2.07 1.67,4.14 1.67,5.99 1.68,7.85 1.79,9.18 1.89,10.50 1.80,12.08 1.70,13.67 1.67,13.88 1.65,14.09 1.56,14.28 1.47,14.47 1.32,14.63 1.17,14.78 0.99,14.88 0.80,14.98 0.59,15.01 0.38,15.04 0.17,15.01 -0.03,14.97 -0.22,14.87 -0.41,14.77 -0.55,14.61 -0.70,14.46 -0.78,14.26 -0.87,14.07 -0.89,13.86 -0.91,13.65 -0.87,13.44 -0.82,13.23 -0.71,13.05 -0.60,12.87 -0.44,12.74 -0.27,12.60 -0.08,12.52 0.11,12.44 0.32,12.43 0.54,12.42 0.74,12.48 0.95,12.54 1.12,12.66 1.30,12.78 1.42,12.95 1.55,13.12 1.62,13.32 1.68,13.52 1.68,13.74 1.68,13.95 1.61,14.15 1.54,14.35 1.41,14.52 1.28,14.69 1.11,14.81 0.93,14.92 0.72,14.98 0.52,15.03 0.31,15.02 0.10,15.01 -0.09,14.93 -0.29,14.85 -0.45,14.71 -0.61,14.57 -0.72,14.39 -0.83,14.21 -0.87,14.00 -0.92,13.79 -0.92,13.79 -0.92,13.79 -1.16,12.29 -1.41,10.79 -1.54,9.32 -1.68,7.85 -1.67,5.99 -1.67,4.14 -1.49,2.07 -1.31,0 -1.29,-0.15 -1.27,-0.31 -1.21,-0.46 -1.16,-0.61 -1.07,-0.74 -0.98,-0.87 -0.86,-0.97 -0.74,-1.08 -0.60,-1.15 -0.46,-1.22 -0.31,-1.26 -0.15,-1.30 0.00,-1.30 0.15,-1.30 0.31,-1.26 0.46,-1.22 0.60,-1.15 0.74,-1.08 0.86,-0.97 0.98,-0.87 1.07,-0.74 1.16,-0.61 1.21,-0.46 1.27,-0.31 1.29,-0.15 1.31,0.00 1.31,0.00 L 1.31,0 Z"/></g><g transform="translate(390.30570479691346 357.4604907793756) rotate(0 0.6358618816321382 14.624823277539207)" stroke="none"><path fill="#1e1e1e" d="M 1.31,-0.07 Q 1.31,-0.07 1.64,2.10 1.98,4.29 2.14,5.84 2.29,7.40 2.31,8.93 2.34,10.45 2.36,12.69 2.39,14.92 2.39,16.60 2.40,18.28 2.51,19.51 2.63,20.75 2.63,21.97 2.63,23.19 2.56,25.62 2.48,28.06 2.47,28.27 2.45,28.48 2.37,28.68 2.28,28.87 2.14,29.03 2.00,29.19 1.82,29.29 1.63,29.40 1.42,29.44 1.21,29.48 1.00,29.45 0.79,29.42 0.60,29.33 0.41,29.23 0.26,29.08 0.11,28.94 0.02,28.74 -0.07,28.55 -0.10,28.34 -0.13,28.13 -0.09,27.93 -0.05,27.72 0.05,27.53 0.15,27.35 0.31,27.20 0.47,27.06 0.66,26.98 0.86,26.89 1.07,26.87 1.28,26.86 1.49,26.91 1.69,26.96 1.87,27.07 2.05,27.19 2.18,27.35 2.32,27.52 2.39,27.72 2.47,27.92 2.47,28.13 2.48,28.34 2.42,28.54 2.35,28.75 2.23,28.92 2.11,29.09 1.93,29.22 1.76,29.34 1.56,29.40 1.36,29.47 1.14,29.46 0.93,29.46 0.73,29.38 0.53,29.31 0.37,29.18 0.20,29.05 0.09,28.87 -0.02,28.69 -0.07,28.48 -0.12,28.28 -0.12,28.28 -0.12,28.28 -0.60,25.82 -1.09,23.36 -1.19,22.24 -1.30,21.12 -1.43,19.70 -1.56,18.29 -1.57,16.62 -1.57,14.94 -1.56,12.73 -1.56,10.51 -1.58,9.02 -1.59,7.53 -1.54,6.01 -1.49,4.48 -1.40,2.27 -1.31,0.07 -1.30,-0.08 -1.29,-0.24 -1.24,-0.39 -1.19,-0.54 -1.11,-0.67 -1.02,-0.81 -0.91,-0.92 -0.80,-1.03 -0.66,-1.11 -0.53,-1.20 -0.38,-1.24 -0.23,-1.29 -0.07,-1.30 0.08,-1.31 0.24,-1.28 0.39,-1.25 0.54,-1.18 0.68,-1.12 0.80,-1.02 0.93,-0.92 1.03,-0.79 1.12,-0.67 1.19,-0.52 1.25,-0.38 1.28,-0.22 1.31,-0.07 1.31,-0.07 L 1.31,-0.07 Z"/></g><g transform="translate(392.00133648126587 417.23150765279667) rotate(0 -0.8478158421762032 13.35309951427493)" stroke="none"><path fill="#1e1e1e" d="M 1.30,0.14 Q 1.30,0.14 1.32,2.36 1.33,4.59 1.30,5.86 1.28,7.14 1.19,8.27 1.10,9.40 0.94,11.14 0.77,12.88 0.73,14.23 0.68,15.57 0.66,16.97 0.63,18.37 0.44,20.38 0.25,22.39 -0.06,24.31 -0.38,26.24 -0.41,26.45 -0.45,26.66 -0.55,26.85 -0.65,27.03 -0.80,27.18 -0.95,27.32 -1.15,27.41 -1.34,27.50 -1.55,27.53 -1.76,27.55 -1.97,27.50 -2.18,27.46 -2.36,27.35 -2.54,27.24 -2.68,27.08 -2.82,26.91 -2.89,26.72 -2.97,26.52 -2.98,26.31 -3.00,26.10 -2.94,25.89 -2.88,25.69 -2.76,25.51 -2.64,25.33 -2.47,25.21 -2.31,25.08 -2.10,25.01 -1.90,24.94 -1.69,24.94 -1.48,24.94 -1.28,25.01 -1.07,25.08 -0.91,25.21 -0.74,25.33 -0.62,25.51 -0.50,25.69 -0.44,25.89 -0.38,26.10 -0.40,26.31 -0.41,26.52 -0.49,26.72 -0.57,26.92 -0.70,27.08 -0.84,27.24 -1.02,27.35 -1.20,27.46 -1.41,27.50 -1.62,27.55 -1.83,27.53 -2.04,27.50 -2.24,27.41 -2.43,27.32 -2.58,27.18 -2.74,27.03 -2.84,26.84 -2.94,26.66 -2.97,26.45 -3.00,26.24 -3.00,26.24 -3.00,26.24 -3.32,24.31 -3.64,22.38 -3.77,21.18 -3.90,19.98 -3.96,18.38 -4.01,16.77 -3.96,15.32 -3.91,13.87 -3.66,12.31 -3.41,10.74 -3.04,8.78 -2.66,6.82 -2.49,5.50 -2.31,4.18 -1.80,2.01 -1.30,-0.14 -1.26,-0.29 -1.23,-0.45 -1.16,-0.59 -1.08,-0.73 -0.98,-0.85 -0.88,-0.97 -0.75,-1.06 -0.62,-1.15 -0.47,-1.21 -0.32,-1.27 -0.17,-1.29 -0.01,-1.31 0.14,-1.29 0.30,-1.27 0.44,-1.22 0.59,-1.16 0.72,-1.08 0.86,-0.99 0.96,-0.87 1.07,-0.75 1.14,-0.61 1.22,-0.47 1.26,-0.32 1.30,-0.17 1.30,-0.01 1.30,0.14 1.30,0.14 L 1.30,0.14 Z"/></g><g transform="translate(389.0339810336492 454.11149678746074) rotate(0 0.4239079210881016 7.630342579585658)" stroke="none"><path fill="#1e1e1e" d="M 1.30,-0.11 Q 1.30,-0.11 1.86,1.18 2.41,2.48 2.46,4.58 2.52,6.69 2.60,8.34 2.68,10.00 2.40,12.14 2.12,14.28 2.09,14.49 2.07,14.70 1.97,14.90 1.88,15.09 1.73,15.24 1.59,15.39 1.40,15.49 1.21,15.59 1.00,15.62 0.79,15.65 0.58,15.61 0.37,15.58 0.18,15.48 0.00,15.37 -0.14,15.22 -0.28,15.06 -0.37,14.87 -0.46,14.67 -0.48,14.46 -0.50,14.25 -0.45,14.04 -0.40,13.84 -0.29,13.66 -0.18,13.48 -0.01,13.34 0.14,13.20 0.34,13.13 0.54,13.05 0.75,13.04 0.96,13.03 1.17,13.09 1.37,13.15 1.55,13.27 1.72,13.40 1.85,13.57 1.97,13.74 2.04,13.94 2.10,14.14 2.10,14.35 2.10,14.57 2.03,14.77 1.96,14.97 1.83,15.14 1.70,15.30 1.52,15.42 1.34,15.54 1.14,15.59 0.93,15.65 0.72,15.63 0.51,15.62 0.31,15.54 0.11,15.45 -0.04,15.31 -0.20,15.18 -0.30,14.99 -0.41,14.81 -0.45,14.60 -0.50,14.39 -0.50,14.39 -0.50,14.39 -0.96,12.37 -1.41,10.35 -1.62,8.57 -1.82,6.80 -1.87,4.83 -1.92,2.87 -1.61,1.49 -1.30,0.11 -1.30,-0.03 -1.29,-0.19 -1.25,-0.35 -1.21,-0.50 -1.13,-0.64 -1.05,-0.77 -0.94,-0.89 -0.84,-1.00 -0.70,-1.09 -0.57,-1.18 -0.42,-1.23 -0.27,-1.28 -0.11,-1.29 0.03,-1.31 0.19,-1.28 0.35,-1.26 0.49,-1.20 0.64,-1.14 0.77,-1.05 0.90,-0.95 1.00,-0.83 1.10,-0.71 1.17,-0.57 1.24,-0.42 1.27,-0.27 1.30,-0.11 1.30,-0.11 L 1.30,-0.11 Z"/></g><g transform="translate(389.0339810336492 186.62559858087428) rotate(0 -4.027125250336837 15.684593080259432)" stroke="none"><path fill="#1e1e1e" d="M -1.24,-0.41 Q -1.24,-0.41 -1.41,-1.30 -1.59,-2.18 0.94,-3.48 3.48,-4.78 3.91,-3.77 4.35,-2.75 4.10,-0.44 3.85,1.85 3.53,3.68 3.20,5.51 2.55,7.85 1.90,10.20 1.14,12.74 0.38,15.29 -0.31,17.68 -1.00,20.07 -1.84,22.38 -2.68,24.68 -3.78,27.09 -4.88,29.50 -6.59,32.11 -8.30,34.73 -8.41,34.91 -8.53,35.09 -8.70,35.22 -8.86,35.35 -9.07,35.42 -9.27,35.49 -9.48,35.49 -9.69,35.50 -9.89,35.43 -10.10,35.37 -10.27,35.24 -10.44,35.11 -10.56,34.94 -10.68,34.77 -10.74,34.56 -10.80,34.36 -10.79,34.15 -10.78,33.93 -10.71,33.74 -10.63,33.54 -10.50,33.37 -10.36,33.21 -10.18,33.10 -10.00,32.98 -9.79,32.94 -9.59,32.89 -9.37,32.91 -9.16,32.93 -8.97,33.01 -8.77,33.10 -8.62,33.24 -8.46,33.39 -8.36,33.57 -8.26,33.76 -8.22,33.97 -8.18,34.18 -8.21,34.39 -8.25,34.60 -8.34,34.79 -8.44,34.98 -8.59,35.13 -8.74,35.27 -8.94,35.37 -9.13,35.46 -9.34,35.48 -9.55,35.51 -9.76,35.47 -9.97,35.42 -10.15,35.32 -10.33,35.21 -10.47,35.05 -10.61,34.89 -10.69,34.69 -10.78,34.50 -10.79,34.29 -10.80,34.07 -10.75,33.87 -10.70,33.66 -10.70,33.66 -10.70,33.66 -9.99,30.72 -9.28,27.78 -8.50,25.36 -7.73,22.93 -7.01,20.75 -6.29,18.57 -5.61,16.13 -4.94,13.70 -4.20,11.19 -3.45,8.69 -2.86,6.61 -2.27,4.53 -1.96,2.83 -1.65,1.12 -1.08,-0.28 -0.50,-1.70 1.02,-1.22 2.56,-0.73 1.90,-0.16 1.24,0.41 1.17,0.55 1.11,0.70 1.01,0.82 0.91,0.94 0.78,1.04 0.65,1.13 0.51,1.19 0.36,1.26 0.20,1.28 0.05,1.31 -0.10,1.29 -0.26,1.28 -0.41,1.23 -0.56,1.18 -0.69,1.10 -0.83,1.01 -0.93,0.90 -1.04,0.78 -1.12,0.65 -1.20,0.51 -1.25,0.36 -1.29,0.21 -1.30,0.05 -1.30,-0.10 -1.27,-0.26 -1.24,-0.41 -1.24,-0.41 L -1.24,-0.41 Z"/></g><g transform="translate(368.68640082142076 194.25594116045997) rotate(0 15.684593080259447 6.358618816321382)" stroke="none"><path fill="#1e1e1e" d="M -1.09,-0.72 Q -1.09,-0.72 -0.24,-1.75 0.60,-2.77 3.70,-1.34 6.79,0.07 8.50,1.34 10.21,2.61 11.85,3.73 13.49,4.84 15.19,5.74 16.88,6.64 18.52,7.55 20.16,8.47 21.63,9.05 23.09,9.63 24.46,10.24 25.84,10.86 27.02,11.37 28.20,11.88 29.77,12.63 31.34,13.38 31.53,13.46 31.73,13.54 31.89,13.68 32.05,13.82 32.16,14.00 32.27,14.18 32.31,14.39 32.36,14.60 32.33,14.81 32.31,15.02 32.22,15.21 32.13,15.41 31.98,15.56 31.84,15.71 31.65,15.81 31.46,15.91 31.25,15.94 31.04,15.98 30.83,15.94 30.62,15.91 30.43,15.81 30.25,15.71 30.10,15.55 29.96,15.40 29.87,15.20 29.78,15.01 29.76,14.80 29.74,14.59 29.78,14.38 29.83,14.17 29.94,13.99 30.05,13.81 30.21,13.67 30.38,13.54 30.57,13.46 30.77,13.38 30.98,13.37 31.20,13.36 31.40,13.42 31.60,13.48 31.78,13.60 31.95,13.72 32.08,13.89 32.21,14.06 32.28,14.26 32.34,14.46 32.34,14.67 32.34,14.88 32.27,15.08 32.20,15.29 32.07,15.45 31.94,15.62 31.77,15.74 31.59,15.86 31.39,15.92 31.18,15.97 30.97,15.96 30.76,15.95 30.76,15.95 30.76,15.95 28.96,15.94 27.17,15.94 25.66,15.77 24.16,15.60 22.65,15.19 21.15,14.79 19.28,14.11 17.41,13.44 15.80,12.54 14.19,11.65 12.24,10.59 10.30,9.54 8.54,8.34 6.79,7.14 5.09,5.83 3.39,4.53 1.87,2.92 0.36,1.30 0.72,1.01 1.09,0.72 0.98,0.84 0.88,0.96 0.75,1.06 0.62,1.15 0.48,1.21 0.33,1.26 0.17,1.29 0.02,1.31 -0.13,1.29 -0.29,1.28 -0.44,1.22 -0.59,1.17 -0.72,1.08 -0.85,0.99 -0.96,0.88 -1.06,0.76 -1.14,0.62 -1.22,0.48 -1.26,0.33 -1.30,0.17 -1.30,0.02 -1.30,-0.13 -1.27,-0.29 -1.23,-0.44 -1.16,-0.58 -1.09,-0.72 -1.09,-0.72 L -1.09,-0.72 Z"/></g><g transform="translate(426.3378780894014 142.96308270880075) rotate(0 0.8478158421761464 18.439994567332022)" stroke="none"><path fill="#1e1e1e" d="M -0.82,-1.02 Q -0.82,-1.02 -0.39,-1.74 0.03,-2.46 0.86,-1.38 1.70,-0.30 0.61,-0.06 -0.47,0.17 -1.58,0.82 -2.69,1.48 -3.55,2.09 -4.42,2.71 -2.14,3.16 0.12,3.61 1.34,4.36 2.55,5.11 3.76,6.19 4.98,7.26 5.93,8.15 6.89,9.04 7.75,10.25 8.60,11.46 9.24,12.78 9.87,14.11 10.31,15.52 10.74,16.92 10.96,18.39 11.17,19.86 11.14,21.25 11.10,22.63 10.97,23.95 10.85,25.28 10.50,26.54 10.15,27.81 9.58,29.06 9.01,30.31 8.35,31.39 7.70,32.47 6.98,33.38 6.26,34.29 5.44,35.17 4.62,36.06 3.77,36.89 2.91,37.73 1.75,38.56 0.60,39.39 -0.44,39.94 -1.49,40.49 -3.42,40.84 -5.34,41.20 -5.54,41.27 -5.74,41.35 -5.95,41.36 -6.17,41.37 -6.37,41.31 -6.57,41.24 -6.75,41.12 -6.92,41.00 -7.05,40.83 -7.17,40.66 -7.24,40.46 -7.30,40.25 -7.30,40.04 -7.29,39.83 -7.22,39.63 -7.15,39.43 -7.02,39.26 -6.89,39.09 -6.71,38.98 -6.53,38.86 -6.33,38.81 -6.12,38.75 -5.91,38.77 -5.70,38.78 -5.50,38.87 -5.31,38.95 -5.15,39.09 -4.99,39.23 -4.88,39.41 -4.77,39.60 -4.73,39.80 -4.69,40.01 -4.72,40.22 -4.74,40.43 -4.83,40.63 -4.93,40.82 -5.08,40.97 -5.22,41.12 -5.41,41.22 -5.60,41.31 -5.81,41.34 -6.02,41.38 -6.23,41.34 -6.44,41.30 -6.63,41.20 -6.81,41.09 -6.96,40.94 -7.10,40.78 -7.19,40.59 -7.27,40.39 -7.29,40.18 -7.31,39.97 -7.26,39.76 -7.21,39.56 -7.10,39.38 -6.99,39.20 -6.82,39.06 -6.66,38.93 -6.66,38.93 -6.66,38.93 -5.50,37.40 -4.34,35.87 -2.86,34.72 -1.38,33.56 0.04,31.99 1.47,30.43 2.47,29.04 3.47,27.66 4.15,26.09 4.84,24.53 5.10,22.53 5.35,20.52 5.03,18.46 4.71,16.40 3.91,14.66 3.11,12.92 2.23,12.04 1.36,11.17 0.55,10.37 -0.24,9.58 -1.48,8.80 -2.72,8.03 -4.71,6.62 -6.70,5.21 -7.54,4.44 -8.38,3.67 -8.60,2.02 -8.81,0.37 -7.77,-0.92 -6.74,-2.22 -5.86,-2.89 -4.98,-3.57 -3.58,-4.25 -2.17,-4.94 -0.67,-5.32 0.81,-5.70 1.91,-5.61 3.02,-5.52 4.01,-4.53 5.01,-3.54 4.95,-2.23 4.90,-0.92 3.65,-0.20 2.40,0.51 1.61,0.76 0.82,1.02 0.68,1.10 0.55,1.19 0.40,1.24 0.24,1.28 0.09,1.30 -0.06,1.31 -0.22,1.28 -0.37,1.25 -0.52,1.19 -0.66,1.13 -0.79,1.03 -0.91,0.93 -1.01,0.81 -1.11,0.69 -1.18,0.54 -1.24,0.40 -1.27,0.24 -1.31,0.09 -1.30,-0.06 -1.29,-0.22 -1.24,-0.37 -1.20,-0.52 -1.12,-0.66 -1.04,-0.79 -0.93,-0.91 -0.82,-1.02 -0.82,-1.02 L -0.82,-1.02 Z"/></g><g transform="translate(446.26155038054173 198.0711124502528) rotate(0 7.206434658497528 -9.961836145570174)" stroke="none"><path fill="#1e1e1e" d="M 0.41,1.24 Q 0.41,1.24 0.25,1.97 0.08,2.70 -0.21,2.76 -0.52,2.82 -0.83,2.81 -1.14,2.80 -1.44,2.71 -1.74,2.62 -2.01,2.47 -2.29,2.31 -2.51,2.09 -2.74,1.88 -2.90,1.61 -3.07,1.35 -3.17,1.05 -3.27,0.76 -3.29,0.44 -3.32,0.13 -3.27,-0.17 -3.22,-0.47 -3.09,-0.76 -2.97,-1.05 -2.78,-1.30 -2.60,-1.55 -2.35,-1.75 -2.11,-1.94 -1.83,-2.08 -1.55,-2.21 -2.46,-1.20 -3.37,-0.19 -3.10,-1.41 -2.83,-2.64 -2.50,-3.79 -2.16,-4.94 -1.62,-6.38 -1.08,-7.83 -0.49,-9.29 0.09,-10.75 0.56,-12.05 1.03,-13.34 1.50,-14.46 1.98,-15.59 2.48,-17.33 2.99,-19.08 3.37,-20.19 3.74,-21.29 3.81,-21.28 3.88,-21.27 3.98,-21.55 4.09,-21.83 4.25,-22.08 4.42,-22.33 4.65,-22.53 4.87,-22.73 5.13,-22.87 5.40,-23.01 5.69,-23.08 5.98,-23.15 6.28,-23.16 6.58,-23.16 6.87,-23.09 7.16,-23.02 7.43,-22.88 7.69,-22.74 7.92,-22.55 8.14,-22.35 8.31,-22.10 8.48,-21.86 8.59,-21.58 8.70,-21.30 8.74,-21.00 8.78,-20.70 8.74,-20.41 8.71,-20.11 7.57,-20.00 6.43,-19.89 7.71,-20.70 9.00,-21.51 10.13,-21.51 11.27,-21.50 12.45,-20.01 13.64,-18.51 13.71,-16.85 13.79,-15.19 13.80,-13.34 13.81,-11.49 13.91,-10.27 14.01,-9.05 14.12,-7.56 14.22,-6.08 15.12,-4.99 16.02,-3.89 16.21,-3.82 16.41,-3.75 16.58,-3.61 16.75,-3.48 16.86,-3.30 16.98,-3.12 17.03,-2.92 17.08,-2.71 17.06,-2.50 17.05,-2.29 16.96,-2.09 16.88,-1.90 16.74,-1.74 16.60,-1.58 16.41,-1.47 16.23,-1.37 16.02,-1.33 15.81,-1.29 15.60,-1.32 15.39,-1.34 15.20,-1.44 15.01,-1.53 14.86,-1.68 14.71,-1.83 14.61,-2.02 14.52,-2.21 14.49,-2.42 14.46,-2.63 14.50,-2.84 14.54,-3.05 14.64,-3.24 14.75,-3.42 14.90,-3.56 15.06,-3.71 15.26,-3.79 15.45,-3.87 15.66,-3.89 15.87,-3.91 16.08,-3.86 16.29,-3.81 16.47,-3.70 16.65,-3.58 16.78,-3.42 16.91,-3.25 16.99,-3.05 17.06,-2.85 17.07,-2.64 17.07,-2.43 17.01,-2.22 16.95,-2.02 16.83,-1.85 16.70,-1.68 16.53,-1.55 16.36,-1.43 16.16,-1.36 15.95,-1.30 15.74,-1.31 15.53,-1.31 15.53,-1.31 15.53,-1.31 13.35,-2.08 11.17,-2.85 10.55,-3.97 9.93,-5.09 9.64,-6.65 9.36,-8.22 9.21,-9.84 9.06,-11.47 9.05,-13.28 9.04,-15.09 9.68,-15.99 10.32,-16.89 9.10,-16.15 7.89,-15.41 6.25,-15.63 4.62,-15.84 4.12,-17.17 3.62,-18.50 3.75,-19.88 3.88,-21.27 3.98,-21.55 4.09,-21.83 4.25,-22.08 4.42,-22.33 4.65,-22.53 4.87,-22.73 5.13,-22.87 5.40,-23.01 5.69,-23.08 5.98,-23.15 6.28,-23.16 6.58,-23.16 6.87,-23.09 7.16,-23.02 7.43,-22.88 7.69,-22.74 7.92,-22.55 8.14,-22.35 8.31,-22.10 8.48,-21.86 8.59,-21.58 8.70,-21.30 8.74,-21.00 8.78,-20.71 8.74,-20.41 8.71,-20.11 8.69,-20.00 8.68,-19.88 8.39,-18.83 8.11,-17.78 7.83,-16.68 7.55,-15.57 7.20,-14.54 6.85,-13.50 6.42,-12.51 5.99,-11.52 5.47,-10.14 4.96,-8.76 4.39,-7.37 3.81,-5.97 3.33,-4.72 2.85,-3.47 2.31,-2.02 1.77,-0.57 0.93,1.06 0.08,2.70 -0.21,2.76 -0.52,2.82 -0.83,2.81 -1.14,2.80 -1.44,2.71 -1.74,2.62 -2.01,2.47 -2.28,2.31 -2.51,2.09 -2.74,1.88 -2.90,1.61 -3.07,1.35 -3.17,1.05 -3.27,0.76 -3.29,0.44 -3.32,0.13 -3.27,-0.17 -3.22,-0.47 -3.09,-0.76 -2.97,-1.05 -2.78,-1.30 -2.60,-1.55 -2.35,-1.75 -2.11,-1.94 -1.83,-2.08 -1.55,-2.21 -0.98,-1.73 -0.41,-1.24 -0.26,-1.27 -0.10,-1.30 0.05,-1.30 0.21,-1.29 0.36,-1.25 0.51,-1.20 0.65,-1.12 0.78,-1.04 0.90,-0.93 1.01,-0.83 1.10,-0.69 1.18,-0.56 1.23,-0.41 1.28,-0.26 1.29,-0.10 1.31,0.05 1.28,0.20 1.26,0.36 1.19,0.51 1.13,0.65 1.04,0.78 0.94,0.91 0.82,1.01 0.70,1.11 0.55,1.17 0.41,1.24 0.41,1.24 L 0.41,1.24 Z"/></g><g stroke-linecap="round" transform="translate(266.94849976027854 70.05092028164881) rotate(0 122.50938919445878 130.98754761622064)"><path d="M121.03 -0.18 C134.44 -2.17, 150.68 2.94, 164 8.09 C177.31 13.23, 190.4 21.29, 200.95 30.68 C211.5 40.06, 220.39 51.72, 227.3 64.39 C234.21 77.06, 239.67 91.93, 242.43 106.7 C245.18 121.47, 245.87 138.3, 243.82 153.02 C241.77 167.73, 236.95 182.18, 230.13 195 C223.31 207.81, 213.72 220.24, 202.9 229.92 C192.08 239.6, 178.52 247.56, 165.19 253.05 C151.86 258.54, 136.94 262.53, 122.94 262.86 C108.95 263.2, 94.14 260.3, 81.22 255.08 C68.3 249.86, 56.05 241.09, 45.41 231.54 C34.77 221.99, 24.49 210.46, 17.37 197.78 C10.24 185.1, 5.4 170.16, 2.67 155.45 C-0.07 140.74, -1.19 124.37, 0.98 109.53 C3.14 94.69, 8.73 79.5, 15.63 66.41 C22.54 53.31, 31.76 40.58, 42.41 30.95 C53.05 21.32, 65.63 13.66, 79.49 8.62 C93.34 3.57, 116.9 1.47, 125.52 0.67 C134.14 -0.13, 131.3 1.89, 131.2 3.83 M166.12 9.58 C179.05 12.85, 191.83 23.51, 202.32 33.13 C212.81 42.76, 221.97 54.27, 229.05 67.32 C236.13 80.38, 242.63 96.66, 244.82 111.45 C247 126.24, 245.14 141.35, 242.16 156.08 C239.19 170.82, 233.99 187.23, 226.95 199.85 C219.9 212.47, 210.97 222.75, 199.89 231.79 C188.8 240.83, 173.59 249.17, 160.42 254.11 C147.26 259.04, 134.79 261.39, 120.9 261.38 C107.01 261.37, 90.05 259.41, 77.09 254.03 C64.13 248.65, 53.31 239.22, 43.15 229.09 C32.99 218.97, 22.99 206.41, 16.12 193.27 C9.24 180.12, 4.42 165.06, 1.93 150.24 C-0.56 135.42, -1.41 118.95, 1.15 104.34 C3.71 89.74, 9.83 75.12, 17.31 62.61 C24.79 50.09, 34.95 38.39, 46.04 29.25 C57.12 20.1, 70.4 12.37, 83.82 7.75 C97.23 3.12, 112.74 1.1, 126.53 1.51 C140.31 1.93, 159.92 8.36, 166.51 10.24 C173.09 12.13, 166.9 11.18, 166.04 12.81" stroke="#f08c00" stroke-width="1" fill="none"/></g><g stroke-linecap="round"><g transform="translate(388.6100731125611 204.00582334548608) rotate(0 60.61883271559722 2.7554014870726036)"><path d="M-0.08 -0.04 C20.12 0.88, 101.05 4.74, 121.28 5.64 M0.17 -0.2 C20.34 0.67, 101 4.48, 121.18 5.43" stroke="#1e1e1e" stroke-width="1" fill="none"/></g></g><mask/><g transform="translate(511.11946230701983 143.38699062988883) rotate(0 18.439994567332064 -33.27677180541525)" stroke="none"><path fill="#f08c00" d="M -0.82,-1.02 Q -0.82,-1.02 0.19,-2.25 1.21,-3.47 2.18,-4.66 3.15,-5.85 4.42,-7.47 5.70,-9.10 7.08,-10.98 8.46,-12.86 9.90,-14.88 11.35,-16.90 12.65,-19.04 13.95,-21.19 15.24,-23.34 16.54,-25.50 17.81,-27.64 19.09,-29.77 20.09,-31.71 21.08,-33.66 21.98,-35.67 22.87,-37.69 23.75,-39.67 24.63,-41.64 25.20,-43.47 25.78,-45.29 26.27,-47.05 26.77,-48.81 27.09,-50.35 27.42,-51.89 27.67,-53.40 27.93,-54.90 28.17,-56.18 28.41,-57.45 28.50,-58.95 28.58,-60.45 28.62,-61.61 28.66,-62.76 27.78,-61.38 26.89,-59.99 26.18,-58.76 25.47,-57.53 24.85,-56.12 24.23,-54.72 23.62,-53.04 23.00,-51.37 22.38,-49.45 21.77,-47.53 21.15,-45.39 20.52,-43.25 19.89,-41.11 19.25,-38.96 18.75,-36.78 18.26,-34.60 17.80,-32.34 17.34,-30.07 17.03,-28.05 16.72,-26.03 16.32,-24.12 15.92,-22.21 15.78,-20.57 15.64,-18.93 15.44,-17.41 15.25,-15.88 15.04,-14.61 14.83,-13.33 14.45,-10.87 14.07,-8.41 13.74,-6.74 13.41,-5.06 13.13,-3.88 12.84,-2.71 10.63,-1.57 8.41,-0.43 7.80,-1.40 7.19,-2.37 7.30,-3.61 7.42,-4.84 7.93,-6.72 8.44,-8.60 8.68,-9.64 8.91,-10.67 9.45,-11.96 9.99,-13.25 10.43,-14.30 10.86,-15.36 11.32,-16.34 11.77,-17.32 12.38,-18.33 13.00,-19.34 14.05,-20.60 15.11,-21.86 16.81,-22.68 18.51,-23.51 20.26,-22.97 22.01,-22.44 23.00,-21.03 23.98,-19.62 24.44,-17.60 24.91,-15.58 24.84,-14.49 24.77,-13.39 24.40,-11.62 24.02,-9.85 23.20,-8.24 22.37,-6.64 21.49,-5.57 20.60,-4.51 19.48,-3.89 18.36,-3.28 16.77,-3.37 15.19,-3.46 13.92,-4.10 12.66,-4.74 11.76,-5.70 10.86,-6.66 10.26,-7.63 9.65,-8.60 9.53,-8.80 9.41,-9.00 9.33,-9.22 9.26,-9.44 9.25,-9.67 9.23,-9.91 9.27,-10.13 9.31,-10.36 9.40,-10.58 9.50,-10.79 9.64,-10.98 9.78,-11.16 9.96,-11.31 10.14,-11.45 10.35,-11.55 10.57,-11.65 10.79,-11.69 11.02,-11.74 11.26,-11.73 11.49,-11.71 11.71,-11.65 11.94,-11.58 12.14,-11.46 12.34,-11.34 12.50,-11.18 12.67,-11.02 13.84,-10.69 15.02,-10.37 16.16,-9.79 17.29,-9.21 18.58,-8.43 19.87,-7.65 21.19,-6.87 22.51,-6.09 23.40,-5.51 24.29,-4.92 26.01,-4.28 27.73,-3.63 29.41,-3.33 31.09,-3.02 33.42,-2.78 35.76,-2.55 35.97,-2.52 36.18,-2.49 36.37,-2.40 36.56,-2.30 36.71,-2.15 36.87,-2.00 36.96,-1.81 37.06,-1.62 37.08,-1.41 37.11,-1.20 37.07,-0.99 37.03,-0.79 36.93,-0.60 36.83,-0.41 36.67,-0.27 36.51,-0.13 36.32,-0.05 36.12,0.03 35.91,0.05 35.70,0.06 35.49,0.01 35.28,-0.03 35.11,-0.14 34.93,-0.26 34.79,-0.42 34.66,-0.59 34.59,-0.78 34.51,-0.98 34.51,-1.20 34.50,-1.41 34.56,-1.61 34.62,-1.82 34.75,-1.99 34.87,-2.16 35.04,-2.29 35.21,-2.41 35.42,-2.47 35.62,-2.54 35.83,-2.53 36.05,-2.53 36.24,-2.45 36.44,-2.38 36.61,-2.25 36.78,-2.11 36.89,-1.94 37.01,-1.76 37.06,-1.55 37.11,-1.34 37.09,-1.13 37.08,-0.92 36.99,-0.73 36.91,-0.53 36.77,-0.37 36.63,-0.21 36.44,-0.11 36.26,-0.00 36.05,0.03 35.84,0.07 35.84,0.07 35.84,0.07 33.30,0.45 30.77,0.83 28.42,0.80 26.07,0.77 25.05,0.40 24.03,0.03 22.83,-0.44 21.63,-0.92 20.08,-1.89 18.52,-2.87 17.30,-3.71 16.08,-4.56 15.04,-5.26 14.01,-5.95 12.87,-6.85 11.73,-7.76 10.69,-8.18 9.65,-8.60 9.53,-8.80 9.41,-9.00 9.34,-9.22 9.26,-9.44 9.25,-9.67 9.23,-9.91 9.27,-10.13 9.31,-10.36 9.40,-10.58 9.50,-10.79 9.64,-10.98 9.78,-11.16 9.96,-11.31 10.14,-11.45 10.35,-11.55 10.57,-11.65 10.79,-11.69 11.02,-11.74 11.26,-11.73 11.49,-11.71 11.71,-11.65 11.93,-11.58 12.14,-11.46 12.34,-11.34 12.50,-11.18 12.67,-11.02 13.22,-10.16 13.77,-9.30 14.57,-8.37 15.37,-7.44 16.71,-7.60 18.06,-7.75 18.66,-8.87 19.26,-10.00 19.68,-11.13 20.10,-12.26 20.33,-13.68 20.55,-15.11 20.32,-16.38 20.10,-17.66 19.21,-18.34 18.32,-19.02 17.53,-18.02 16.73,-17.03 15.84,-15.35 14.94,-13.67 14.08,-11.68 13.22,-9.69 12.65,-7.61 12.08,-5.53 11.80,-4.39 11.52,-3.24 10.03,-3.64 8.53,-4.04 8.83,-5.11 9.13,-6.19 9.39,-7.74 9.64,-9.30 9.90,-10.58 10.16,-11.86 10.25,-12.96 10.35,-14.06 10.55,-15.26 10.74,-16.46 10.93,-17.90 11.11,-19.34 11.29,-21.23 11.47,-23.12 11.83,-24.92 12.19,-26.72 12.52,-28.85 12.84,-30.97 13.31,-33.30 13.78,-35.63 14.31,-37.95 14.84,-40.27 15.48,-42.41 16.12,-44.55 16.78,-46.76 17.43,-48.96 18.11,-50.96 18.78,-52.96 19.48,-54.76 20.17,-56.56 20.92,-58.18 21.68,-59.79 22.47,-61.07 23.26,-62.36 23.93,-63.36 24.61,-64.36 25.38,-65.34 26.16,-66.31 27.81,-67.26 29.46,-68.21 30.94,-67.24 32.43,-66.26 32.76,-64.43 33.09,-62.60 33.05,-61.39 33.00,-60.18 32.89,-58.41 32.78,-56.65 32.55,-55.40 32.32,-54.14 32.04,-52.57 31.77,-50.99 31.42,-49.29 31.07,-47.60 30.56,-45.76 30.04,-43.93 29.38,-41.88 28.71,-39.83 27.83,-37.85 26.94,-35.87 25.98,-33.75 25.02,-31.63 23.95,-29.56 22.88,-27.49 21.58,-25.36 20.29,-23.23 18.97,-21.07 17.66,-18.92 16.26,-16.65 14.86,-14.39 13.39,-12.34 11.92,-10.30 10.46,-8.35 9.00,-6.40 7.62,-4.76 6.23,-3.11 4.94,-1.76 3.66,-0.42 2.24,0.30 0.82,1.02 0.68,1.10 0.55,1.19 0.40,1.24 0.24,1.28 0.09,1.30 -0.06,1.31 -0.22,1.28 -0.37,1.25 -0.52,1.19 -0.66,1.13 -0.79,1.03 -0.91,0.93 -1.01,0.81 -1.11,0.69 -1.18,0.54 -1.24,0.40 -1.27,0.24 -1.31,0.09 -1.30,-0.06 -1.29,-0.22 -1.24,-0.37 -1.20,-0.52 -1.12,-0.66 -1.04,-0.79 -0.93,-0.91 -0.82,-1.02 -0.82,-1.02 L -0.82,-1.02 Z"/></g><g transform="translate(508.9999227015794 276.49407785154995) rotate(0 -5.934710895233309 14.412869316995113)" stroke="none"><path fill="#f08c00" d="M 1.28,0.25 Q 1.28,0.25 1.90,1.01 2.52,1.77 2.04,3.10 1.57,4.43 1.03,5.88 0.48,7.33 -0.24,9.09 -0.98,10.86 -1.63,12.62 -2.27,14.39 -3.08,16.22 -3.90,18.05 -4.59,19.64 -5.29,21.22 -5.98,22.66 -6.67,24.10 -7.24,25.19 -7.81,26.27 -8.42,27.29 -9.03,28.32 -10.26,29.68 -11.49,31.03 -11.63,31.19 -11.77,31.35 -11.95,31.46 -12.13,31.56 -12.34,31.61 -12.55,31.65 -12.76,31.62 -12.97,31.60 -13.16,31.50 -13.36,31.41 -13.51,31.26 -13.66,31.11 -13.75,30.92 -13.85,30.73 -13.88,30.52 -13.91,30.31 -13.87,30.10 -13.84,29.89 -13.73,29.71 -13.63,29.52 -13.47,29.38 -13.32,29.24 -13.12,29.15 -12.93,29.06 -12.72,29.05 -12.51,29.03 -12.30,29.08 -12.09,29.12 -11.91,29.24 -11.73,29.35 -11.60,29.51 -11.46,29.68 -11.39,29.88 -11.31,30.08 -11.30,30.29 -11.30,30.50 -11.36,30.70 -11.42,30.91 -11.54,31.08 -11.66,31.26 -11.83,31.38 -12.00,31.51 -12.21,31.57 -12.41,31.64 -12.62,31.63 -12.83,31.63 -13.03,31.56 -13.23,31.49 -13.40,31.35 -13.57,31.22 -13.68,31.04 -13.80,30.87 -13.85,30.66 -13.91,30.45 -13.89,30.24 -13.88,30.03 -13.79,29.84 -13.71,29.64 -13.71,29.64 -13.71,29.64 -13.52,28.14 -13.32,26.64 -13.00,25.28 -12.67,23.92 -12.19,22.83 -11.72,21.74 -11.08,20.36 -10.45,18.98 -9.76,17.37 -9.07,15.76 -8.34,14.10 -7.60,12.43 -6.91,10.54 -6.21,8.66 -5.51,7.00 -4.81,5.34 -3.91,3.00 -3.00,0.65 -2.14,0.20 -1.28,-0.25 -1.23,-0.40 -1.18,-0.55 -1.10,-0.69 -1.02,-0.82 -0.90,-0.93 -0.79,-1.04 -0.65,-1.12 -0.51,-1.20 -0.36,-1.25 -0.21,-1.29 -0.05,-1.30 0.10,-1.30 0.25,-1.27 0.41,-1.24 0.55,-1.18 0.69,-1.11 0.82,-1.01 0.94,-0.91 1.03,-0.78 1.13,-0.66 1.19,-0.51 1.26,-0.37 1.28,-0.21 1.31,-0.05 1.29,0.09 1.28,0.25 1.28,0.25 L 1.28,0.25 Z"/></g><g transform="translate(496.7065929900248 295.146026379426) rotate(0 4.239079210880902 0.8478158421761748)" stroke="none"><path fill="#f08c00" d="M -1.26,0.36 Q -1.26,0.36 -1.56,-0.47 -1.86,-1.31 -2.48,-2.56 -3.11,-3.82 -1.76,-5.30 -0.41,-6.79 1.29,-5.83 2.99,-4.87 4.79,-2.75 6.59,-0.64 7.43,0.47 8.26,1.59 9.22,3.42 10.18,5.26 10.29,5.44 10.40,5.63 10.45,5.83 10.49,6.04 10.47,6.25 10.44,6.46 10.35,6.66 10.26,6.85 10.12,7.00 9.97,7.16 9.78,7.25 9.59,7.35 9.38,7.39 9.17,7.42 8.97,7.39 8.76,7.35 8.57,7.25 8.38,7.15 8.24,6.99 8.09,6.84 8.00,6.65 7.91,6.45 7.89,6.24 7.87,6.03 7.92,5.82 7.96,5.62 8.07,5.43 8.18,5.25 8.34,5.12 8.51,4.98 8.71,4.90 8.90,4.82 9.11,4.81 9.33,4.80 9.53,4.86 9.74,4.92 9.91,5.04 10.09,5.16 10.21,5.33 10.34,5.50 10.41,5.70 10.48,5.90 10.48,6.11 10.48,6.32 10.41,6.53 10.34,6.73 10.21,6.90 10.08,7.06 9.90,7.18 9.73,7.30 9.52,7.36 9.32,7.41 9.10,7.40 8.89,7.39 8.70,7.31 8.50,7.23 8.34,7.09 8.18,6.95 8.18,6.95 8.18,6.95 6.57,5.75 4.97,4.55 3.87,3.51 2.77,2.47 1.68,1.19 0.60,-0.09 -0.50,-1.60 -1.61,-3.10 -0.52,-3.90 0.56,-4.71 0.72,-3.40 0.89,-2.10 1.07,-1.23 1.26,-0.36 1.28,-0.20 1.31,-0.04 1.29,0.10 1.28,0.26 1.23,0.41 1.18,0.56 1.09,0.70 1.01,0.83 0.89,0.94 0.78,1.05 0.64,1.13 0.51,1.21 0.35,1.25 0.20,1.29 0.04,1.30 -0.11,1.30 -0.26,1.27 -0.42,1.24 -0.56,1.17 -0.70,1.10 -0.82,1.00 -0.95,0.90 -1.04,0.77 -1.13,0.65 -1.20,0.50 -1.26,0.36 -1.26,0.36 L -1.26,0.36 Z"/></g></svg>