<svg version="1.1" xmlns="http://www.w3.org/2000/svg" viewBox="0 0 2106 886" width="2106" height="886" filter="invert(93%) hue-rotate(180deg)">
  <!-- svg-source:excalidraw -->
  
  <defs>
    <style class="style-fonts">
      @font-face {
        font-family: "Virgil";
        src: url("https://excalidraw.com/Virgil.woff2");
      }
      @font-face {
        font-family: "Cascadia";
        src: url("https://excalidraw.com/Cascadia.woff2");
      }
    </style>
    
  </defs>
  <rect x="0" y="0" width="2106" height="886" fill="transparent"/><g stroke-linecap="round" transform="translate(10 217) rotate(0 253.5 255)"><path d="M237.64 -0.19 C256.83 -5.29, 280.08 0.66, 300.23 4.56 C320.39 8.46, 340.45 14.91, 358.56 23.21 C376.67 31.52, 393.13 42.04, 408.91 54.37 C424.69 66.69, 440.6 81.14, 453.25 97.15 C465.9 113.17, 476.57 131.79, 484.81 150.47 C493.04 169.14, 498.92 189.36, 502.64 209.21 C506.36 229.05, 508.16 249.2, 507.13 269.53 C506.1 289.86, 502.64 311.64, 496.45 331.16 C490.27 350.69, 480.62 369.24, 470.01 386.69 C459.4 404.13, 447.01 421.49, 432.78 435.85 C418.55 450.21, 402 462.39, 384.65 472.84 C367.31 483.28, 348.07 492.38, 328.7 498.54 C309.34 504.69, 288.56 508.61, 268.44 509.76 C248.33 510.9, 227.85 509.1, 208.02 505.41 C188.19 501.73, 167.99 495.89, 149.45 487.64 C130.9 479.39, 112.79 468.51, 96.77 455.9 C80.75 443.29, 65.8 427.96, 53.32 411.98 C40.84 396, 30.11 378.45, 21.9 360.02 C13.68 341.6, 7.64 321.64, 4.06 301.43 C0.48 281.23, -0.91 259.24, 0.41 238.82 C1.73 218.39, 5.95 198.29, 11.97 178.86 C17.98 159.43, 26.16 139.63, 36.51 122.23 C46.87 104.83, 59.6 88.86, 74.08 74.47 C88.56 60.08, 106.17 46.21, 123.4 35.88 C140.64 25.54, 155.8 18.53, 177.5 12.46 C199.2 6.38, 238.31 0.52, 253.6 -0.58 C268.89 -1.68, 269.25 1.38, 269.23 5.87 M165.28 15.31 C181.96 5.05, 203.93 4.19, 224.29 2.07 C244.65 -0.04, 267.37 0.18, 287.42 2.61 C307.47 5.04, 325.9 9.42, 344.6 16.65 C363.29 23.87, 382.88 33.9, 399.58 45.97 C416.29 58.03, 431.46 73.82, 444.83 89.02 C458.2 104.22, 470.49 119.27, 479.8 137.18 C489.12 155.08, 496.21 176.52, 500.74 196.45 C505.26 216.38, 507.16 236.72, 506.95 256.78 C506.74 276.85, 504.26 297.25, 499.51 316.86 C494.75 336.46, 488.13 356.04, 478.41 374.4 C468.69 392.76, 455.1 411.84, 441.21 427.01 C427.31 442.19, 411.88 454.05, 395.05 465.46 C378.22 476.87, 359.05 488.55, 340.23 495.46 C321.41 502.37, 302.05 504.88, 282.14 506.91 C262.24 508.94, 240.7 510.03, 220.77 507.62 C200.85 505.22, 181.56 499.58, 162.61 492.46 C143.66 485.35, 123.93 476.81, 107.09 464.95 C90.24 453.1, 74.78 436.82, 61.53 421.34 C48.28 405.86, 36.65 390, 27.62 372.1 C18.58 354.19, 12.18 333.58, 7.35 313.91 C2.51 294.25, -1.37 274.5, -1.4 254.11 C-1.44 233.71, 1.86 211.39, 7.15 191.55 C12.44 171.72, 20.5 152.95, 30.36 135.09 C40.21 117.23, 52.6 99.84, 66.26 84.41 C79.93 68.97, 95.76 54.13, 112.35 42.48 C128.94 30.83, 156.59 18.03, 165.79 14.51 C174.99 10.98, 166.27 16.89, 167.53 21.34" stroke="#1e1e1e" stroke-width="2" fill="none"/></g><g transform="translate(266 451) rotate(0 -3.5 17.5)" stroke="none"><path fill="#1e1e1e" d="M 0.97,2.43 Q 0.97,2.43 0.68,3.55 0.39,4.66 0.44,6.99 0.48,9.31 -0.23,13.61 -0.95,17.91 -1.52,22.23 -2.09,26.55 -2.84,30.41 -3.58,34.26 -3.94,35.93 -4.29,37.60 -4.38,38.01 -4.46,38.43 -4.67,38.80 -4.88,39.17 -5.20,39.45 -5.51,39.73 -5.90,39.90 -6.29,40.07 -6.72,40.10 -7.14,40.13 -7.55,40.03 -7.97,39.93 -8.32,39.70 -8.68,39.47 -8.95,39.13 -9.21,38.80 -9.36,38.40 -9.50,38.00 -9.51,37.58 -9.52,37.15 -9.39,36.75 -9.27,36.34 -9.02,36.00 -8.77,35.65 -8.42,35.41 -8.08,35.16 -7.67,35.04 -7.26,34.91 -6.84,34.93 -6.41,34.94 -6.02,35.09 -5.62,35.23 -5.29,35.50 -4.96,35.77 -4.73,36.13 -4.50,36.49 -4.40,36.90 -4.30,37.31 -4.34,37.74 -4.37,38.16 -4.54,38.55 -4.71,38.94 -5.00,39.25 -5.28,39.57 -5.65,39.78 -6.02,39.99 -6.44,40.06 -6.86,40.14 -7.28,40.08 -7.70,40.02 -8.08,39.83 -8.46,39.64 -8.76,39.34 -9.06,39.04 -9.25,38.66 -9.43,38.28 -9.49,37.86 -9.54,37.44 -9.54,37.44 -9.54,37.44 -9.80,35.75 -10.05,34.06 -10.55,30.03 -11.06,25.99 -11.06,21.22 -11.06,16.45 -10.44,11.53 -9.82,6.60 -7.98,2.12 -6.14,-2.36 -3.56,-2.40 -0.97,-2.43 -0.66,-2.52 -0.36,-2.60 -0.04,-2.60 0.26,-2.61 0.57,-2.54 0.88,-2.47 1.17,-2.33 1.45,-2.18 1.69,-1.98 1.93,-1.77 2.11,-1.51 2.30,-1.26 2.42,-0.96 2.53,-0.67 2.58,-0.36 2.62,-0.04 2.59,0.26 2.56,0.58 2.45,0.88 2.34,1.17 2.17,1.44 1.99,1.70 1.76,1.92 1.53,2.13 1.25,2.28 0.97,2.43 0.97,2.43 L 0.97,2.43 Z"/></g><g transform="translate(244 476) rotate(0 19 -1.5)" stroke="none"><path fill="#1e1e1e" d="M -0.40,-2.59 Q -0.40,-2.59 4.84,-4.80 10.09,-7.01 15.51,-7.40 20.94,-7.80 25.98,-7.17 31.02,-6.54 33.04,-5.62 35.05,-4.70 35.47,-4.62 35.89,-4.54 36.26,-4.33 36.63,-4.12 36.91,-3.81 37.20,-3.49 37.36,-3.10 37.53,-2.71 37.57,-2.29 37.60,-1.86 37.50,-1.45 37.39,-1.04 37.17,-0.68 36.94,-0.32 36.60,-0.06 36.27,0.20 35.87,0.35 35.48,0.49 35.05,0.50 34.63,0.51 34.22,0.39 33.81,0.26 33.47,0.02 33.12,-0.22 32.88,-0.57 32.63,-0.91 32.50,-1.32 32.38,-1.72 32.39,-2.15 32.40,-2.57 32.55,-2.97 32.70,-3.37 32.96,-3.70 33.23,-4.03 33.59,-4.26 33.95,-4.49 34.36,-4.59 34.77,-4.70 35.19,-4.66 35.62,-4.63 36.01,-4.46 36.40,-4.29 36.71,-4.01 37.03,-3.72 37.24,-3.35 37.45,-2.98 37.53,-2.56 37.61,-2.15 37.55,-1.73 37.49,-1.31 37.30,-0.92 37.11,-0.54 36.81,-0.24 36.51,0.05 36.13,0.24 35.75,0.42 35.33,0.48 34.91,0.54 34.91,0.54 34.91,0.54 32.85,1.34 30.79,2.15 26.24,2.52 21.69,2.88 16.72,3.22 11.75,3.56 6.08,3.07 0.40,2.59 0.09,2.60 -0.22,2.61 -0.53,2.55 -0.84,2.48 -1.12,2.35 -1.41,2.21 -1.65,2.01 -1.90,1.81 -2.09,1.55 -2.28,1.30 -2.40,1.01 -2.52,0.71 -2.57,0.40 -2.62,0.09 -2.59,-0.22 -2.57,-0.53 -2.46,-0.83 -2.36,-1.13 -2.19,-1.40 -2.02,-1.67 -1.79,-1.88 -1.56,-2.10 -1.29,-2.26 -1.01,-2.42 -0.71,-2.50 -0.40,-2.59 -0.40,-2.59 L -0.40,-2.59 Z"/></g><g transform="translate(305 491) rotate(0 -8 29)" stroke="none"><path fill="#1e1e1e" d="M 0,2.62 Q 0,2.62 -2.22,3.77 -4.44,4.91 -8.42,7.42 -12.40,9.92 -8.26,12.16 -4.12,14.40 -0.37,17.38 3.36,20.36 5.74,24.32 8.12,28.29 8.37,33.38 8.63,38.47 7.01,43.57 5.39,48.66 2.00,53.00 -1.38,57.34 -4.00,59.27 -6.63,61.19 -9.23,61.46 -11.83,61.73 -12.22,61.90 -12.61,62.07 -13.04,62.10 -13.46,62.14 -13.87,62.03 -14.28,61.93 -14.64,61.70 -15.00,61.48 -15.27,61.14 -15.53,60.81 -15.68,60.42 -15.83,60.02 -15.84,59.59 -15.85,59.17 -15.73,58.76 -15.61,58.35 -15.36,58.01 -15.11,57.66 -14.77,57.41 -14.42,57.17 -14.02,57.04 -13.61,56.92 -13.19,56.93 -12.76,56.94 -12.36,57.08 -11.96,57.23 -11.63,57.49 -11.30,57.76 -11.07,58.12 -10.84,58.48 -10.74,58.89 -10.63,59.30 -10.67,59.72 -10.70,60.15 -10.87,60.54 -11.04,60.93 -11.32,61.24 -11.60,61.56 -11.97,61.77 -12.34,61.98 -12.76,62.06 -13.18,62.14 -13.60,62.09 -14.02,62.03 -14.40,61.84 -14.78,61.65 -15.08,61.35 -15.38,61.05 -15.57,60.67 -15.76,60.29 -15.82,59.87 -15.88,59.45 -15.80,59.03 -15.72,58.62 -15.51,58.25 -15.30,57.87 -14.98,57.59 -14.67,57.31 -14.67,57.31 -14.67,57.31 -13.90,55.41 -13.12,53.51 -11.52,51.85 -9.93,50.20 -7.44,47.47 -4.96,44.75 -3.57,41.33 -2.19,37.91 -1.63,35.16 -1.08,32.40 -2.05,30.07 -3.03,27.75 -5.82,25.39 -8.61,23.04 -13.01,20.79 -17.40,18.53 -20.07,16.32 -22.74,14.12 -22.90,10.48 -23.06,6.85 -20.50,4.04 -17.95,1.22 -14.98,-0.59 -12.02,-2.41 -8.38,-3.66 -4.75,-4.91 -2.37,-3.77 0,-2.62 0.31,-2.58 0.62,-2.55 0.92,-2.43 1.22,-2.32 1.48,-2.14 1.74,-1.96 1.95,-1.72 2.16,-1.49 2.30,-1.21 2.45,-0.93 2.53,-0.62 2.60,-0.31 2.60,0.00 2.60,0.31 2.53,0.62 2.45,0.93 2.30,1.21 2.16,1.49 1.95,1.72 1.74,1.96 1.48,2.14 1.22,2.32 0.92,2.43 0.62,2.55 0.31,2.58 -0.00,2.62 -0.00,2.62 L 0,2.62 Z"/></g><g transform="translate(348 346) rotate(0 -3 27.5)" stroke="none"><path fill="#1e1e1e" d="M 2.58,0.49 Q 2.58,0.49 2.35,6.70 2.12,12.91 1.37,19.35 0.63,25.78 -0.39,33.35 -1.42,40.92 -2.05,45.28 -2.68,49.64 -2.94,51.51 -3.21,53.38 -3.30,53.79 -3.40,54.20 -3.62,54.57 -3.84,54.93 -4.16,55.20 -4.49,55.48 -4.88,55.63 -5.28,55.79 -5.70,55.81 -6.13,55.83 -6.54,55.71 -6.95,55.60 -7.30,55.36 -7.65,55.12 -7.90,54.78 -8.16,54.44 -8.29,54.03 -8.42,53.63 -8.42,53.21 -8.42,52.78 -8.28,52.38 -8.14,51.98 -7.89,51.64 -7.63,51.30 -7.27,51.07 -6.92,50.83 -6.51,50.72 -6.10,50.61 -5.68,50.63 -5.25,50.66 -4.86,50.82 -4.46,50.98 -4.14,51.25 -3.82,51.53 -3.60,51.90 -3.38,52.26 -3.30,52.68 -3.21,53.09 -3.25,53.51 -3.30,53.94 -3.48,54.32 -3.66,54.71 -3.96,55.01 -4.25,55.32 -4.63,55.52 -5.00,55.71 -5.42,55.78 -5.84,55.85 -6.26,55.78 -6.68,55.70 -7.06,55.50 -7.43,55.30 -7.72,54.99 -8.01,54.68 -8.19,54.30 -8.36,53.91 -8.41,53.49 -8.45,53.06 -8.45,53.06 -8.45,53.06 -8.49,51.18 -8.53,49.29 -8.64,44.81 -8.74,40.34 -8.54,32.53 -8.33,24.72 -7.53,17.98 -6.72,11.23 -4.65,5.37 -2.58,-0.49 -2.48,-0.79 -2.38,-1.09 -2.22,-1.36 -2.05,-1.63 -1.83,-1.85 -1.60,-2.07 -1.33,-2.24 -1.06,-2.40 -0.75,-2.49 -0.45,-2.58 -0.13,-2.60 0.17,-2.62 0.48,-2.56 0.79,-2.50 1.08,-2.37 1.37,-2.23 1.62,-2.04 1.87,-1.84 2.06,-1.59 2.25,-1.34 2.38,-1.05 2.51,-0.76 2.56,-0.45 2.62,-0.14 2.60,0.17 2.58,0.49 2.58,0.49 L 2.58,0.49 Z"/></g><g transform="translate(320 370) rotate(0 23.5 0.5)" stroke="none"><path fill="#1e1e1e" d="M 0,-2.62 Q 0,-2.62 6.03,-3.94 12.07,-5.26 18.09,-5.30 24.10,-5.35 29.66,-4.82 35.22,-4.29 40.18,-2.57 45.13,-0.86 45.54,-0.74 45.95,-0.63 46.30,-0.38 46.65,-0.14 46.90,0.19 47.15,0.53 47.29,0.93 47.42,1.34 47.41,1.76 47.41,2.19 47.27,2.59 47.13,2.99 46.87,3.33 46.61,3.66 46.26,3.90 45.90,4.13 45.49,4.24 45.08,4.35 44.66,4.32 44.23,4.30 43.84,4.14 43.45,3.98 43.13,3.70 42.80,3.42 42.59,3.05 42.37,2.69 42.29,2.27 42.20,1.85 42.25,1.43 42.30,1.01 42.48,0.63 42.66,0.24 42.96,-0.05 43.25,-0.36 43.63,-0.55 44.01,-0.75 44.43,-0.81 44.85,-0.88 45.27,-0.81 45.69,-0.73 46.06,-0.53 46.43,-0.33 46.72,-0.02 47.01,0.28 47.19,0.67 47.36,1.06 47.40,1.48 47.44,1.91 47.35,2.32 47.25,2.73 47.03,3.10 46.81,3.46 46.48,3.73 46.15,4.00 45.76,4.15 45.36,4.31 44.94,4.33 44.51,4.35 44.51,4.35 44.51,4.35 39.61,4.89 34.71,5.44 29.40,5.39 24.10,5.35 18.09,5.30 12.07,5.26 6.03,3.94 0,2.62 -0.31,2.58 -0.62,2.55 -0.92,2.43 -1.22,2.32 -1.48,2.14 -1.74,1.96 -1.95,1.72 -2.16,1.49 -2.30,1.21 -2.45,0.93 -2.53,0.62 -2.60,0.31 -2.60,-0.00 -2.60,-0.31 -2.53,-0.62 -2.45,-0.93 -2.30,-1.21 -2.16,-1.49 -1.95,-1.72 -1.74,-1.96 -1.48,-2.14 -1.22,-2.32 -0.92,-2.43 -0.62,-2.55 -0.31,-2.58 0.00,-2.62 0.00,-2.62 L 0,-2.62 Z"/></g><g transform="translate(381 390) rotate(0 -3.5 15)" stroke="none"><path fill="#1e1e1e" d="M 2.45,0.94 Q 2.45,0.94 2.04,5.07 1.63,9.20 0.82,12.52 0.00,15.84 -1.08,19.42 -2.17,22.99 -2.77,25.80 -3.37,28.61 -3.44,29.03 -3.51,29.45 -3.71,29.82 -3.90,30.20 -4.21,30.49 -4.52,30.78 -4.91,30.96 -5.29,31.14 -5.71,31.19 -6.14,31.23 -6.55,31.14 -6.97,31.05 -7.33,30.83 -7.69,30.62 -7.97,30.29 -8.25,29.97 -8.40,29.57 -8.56,29.18 -8.58,28.75 -8.61,28.33 -8.50,27.92 -8.38,27.51 -8.14,27.16 -7.91,26.81 -7.57,26.55 -7.23,26.29 -6.83,26.16 -6.43,26.02 -6.00,26.02 -5.58,26.02 -5.17,26.15 -4.77,26.29 -4.43,26.55 -4.09,26.80 -3.85,27.15 -3.61,27.51 -3.50,27.91 -3.39,28.32 -3.41,28.75 -3.43,29.17 -3.59,29.57 -3.74,29.96 -4.02,30.29 -4.29,30.61 -4.66,30.83 -5.02,31.05 -5.44,31.14 -5.85,31.23 -6.27,31.19 -6.70,31.14 -7.08,30.96 -7.47,30.79 -7.78,30.49 -8.09,30.20 -8.29,29.83 -8.49,29.45 -8.55,29.03 -8.62,28.61 -8.62,28.61 -8.62,28.61 -9.23,25.14 -9.84,21.67 -9.60,17.59 -9.35,13.50 -8.37,9.62 -7.38,5.74 -4.92,2.40 -2.45,-0.94 -2.30,-1.22 -2.15,-1.50 -1.94,-1.73 -1.73,-1.97 -1.47,-2.15 -1.20,-2.33 -0.91,-2.44 -0.61,-2.55 -0.30,-2.58 0.01,-2.62 0.32,-2.58 0.64,-2.54 0.93,-2.43 1.23,-2.31 1.49,-2.13 1.75,-1.95 1.95,-1.71 2.16,-1.48 2.31,-1.20 2.46,-0.91 2.53,-0.61 2.60,-0.30 2.60,0.01 2.60,0.32 2.52,0.63 2.45,0.94 2.45,0.94 L 2.45,0.94 Z"/></g><g transform="translate(373 384) rotate(0 13.5 10)" stroke="none"><path fill="#1e1e1e" d="M -0.59,-2.55 Q -0.59,-2.55 3.02,-4.18 6.64,-5.80 10.80,-5.37 14.96,-4.94 19.30,-2.13 23.64,0.67 26.23,3.67 28.82,6.66 29.54,10.25 30.25,13.83 28.50,17.31 26.74,20.79 21.92,22.81 17.10,24.84 12.75,25.45 8.40,26.06 7.98,26.11 7.56,26.15 7.14,26.06 6.73,25.96 6.36,25.74 6.00,25.52 5.73,25.20 5.45,24.87 5.30,24.48 5.14,24.08 5.12,23.66 5.10,23.23 5.22,22.82 5.33,22.41 5.57,22.06 5.81,21.71 6.15,21.46 6.49,21.20 6.90,21.07 7.30,20.93 7.72,20.94 8.15,20.94 8.55,21.08 8.95,21.21 9.29,21.47 9.63,21.73 9.86,22.08 10.10,22.44 10.21,22.85 10.32,23.26 10.30,23.68 10.27,24.10 10.11,24.50 9.96,24.89 9.68,25.22 9.40,25.54 9.04,25.76 8.67,25.97 8.26,26.06 7.84,26.15 7.42,26.10 7.00,26.05 6.61,25.87 6.23,25.69 5.92,25.40 5.61,25.11 5.41,24.73 5.22,24.35 5.15,23.93 5.08,23.51 5.16,23.10 5.23,22.68 5.43,22.30 5.63,21.93 5.94,21.64 6.25,21.35 6.63,21.17 7.02,20.99 7.02,20.99 7.02,20.99 10.46,19.48 13.89,17.98 17.53,14.95 21.17,11.92 19.70,9.91 18.24,7.90 15.73,5.69 13.23,3.48 10.77,2.91 8.30,2.35 4.44,2.45 0.59,2.55 0.27,2.59 -0.03,2.62 -0.35,2.58 -0.66,2.54 -0.96,2.42 -1.25,2.30 -1.51,2.12 -1.77,1.93 -1.97,1.69 -2.18,1.45 -2.32,1.17 -2.46,0.89 -2.54,0.58 -2.61,0.27 -2.60,-0.03 -2.60,-0.35 -2.52,-0.66 -2.44,-0.96 -2.29,-1.24 -2.13,-1.52 -1.92,-1.75 -1.71,-1.99 -1.44,-2.16 -1.18,-2.34 -0.88,-2.45 -0.59,-2.55 -0.59,-2.55 L -0.59,-2.55 Z"/></g><g stroke-linecap="round" transform="translate(614.5 197) rotate(0 253.5 255)"><path d="M273.3 0.77 C292.71 -1.67, 315.05 7.56, 334.36 14.1 C353.67 20.64, 372.06 29.39, 389.16 40.01 C406.26 50.63, 423.09 63.28, 436.98 77.83 C450.87 92.37, 462.48 109.41, 472.5 127.28 C482.52 145.14, 491.34 165.52, 497.1 185 C502.85 204.48, 506.1 223.82, 507.02 244.14 C507.93 264.46, 506.71 286.89, 502.6 306.92 C498.49 326.94, 491.11 346.01, 482.37 364.27 C473.62 382.52, 463.02 400.72, 450.12 416.44 C437.22 432.17, 421.27 446.45, 404.97 458.61 C388.66 470.78, 370.83 481.43, 352.29 489.44 C333.75 497.45, 313.76 503.31, 293.7 506.65 C273.65 510, 252.1 511.25, 231.97 509.53 C211.83 507.82, 191.85 502.82, 172.89 496.39 C153.92 489.96, 135.1 481.72, 118.19 470.96 C101.28 460.2, 85.31 446.53, 71.42 431.81 C57.53 417.08, 45.19 400.33, 34.85 382.59 C24.52 364.86, 15.29 345.01, 9.43 325.39 C3.57 305.78, 0.29 285.19, -0.3 264.91 C-0.89 244.63, 1.69 223.46, 5.89 203.7 C10.08 183.94, 16.47 164.86, 24.89 146.37 C33.32 127.88, 43.55 108.8, 56.45 92.78 C69.34 76.75, 85.96 62.24, 102.25 50.24 C118.54 38.25, 135.63 28.6, 154.18 20.79 C172.73 12.97, 192.59 6.53, 213.53 3.37 C234.48 0.22, 267.78 1.03, 279.86 1.85 C291.95 2.67, 286.33 4.06, 286.03 8.31 M274.7 0.41 C294.07 -1.68, 315.83 7.99, 334.78 14.37 C353.73 20.75, 371.4 28.13, 388.4 38.72 C405.41 49.31, 422.69 62.79, 436.81 77.92 C450.93 93.06, 462.9 111.78, 473.14 129.54 C483.37 147.29, 492.44 164.92, 498.21 184.46 C503.97 204, 507.1 226.34, 507.75 246.76 C508.39 267.18, 506.33 287.27, 502.09 306.99 C497.85 326.7, 490.86 346.96, 482.31 365.05 C473.77 383.13, 463.81 399.94, 450.82 415.51 C437.84 431.09, 420.76 445.92, 404.41 458.49 C388.06 471.06, 371.25 483.11, 352.74 490.93 C334.22 498.75, 313.28 502.5, 293.31 505.39 C273.33 508.29, 253.2 509.6, 232.89 508.32 C212.57 507.03, 190.67 504.21, 171.43 497.7 C152.19 491.18, 134.53 480.53, 117.46 469.25 C100.38 457.96, 82.74 444.31, 68.99 429.99 C55.24 415.67, 44.77 400.9, 34.96 383.31 C25.16 365.73, 16.04 344.26, 10.16 324.48 C4.29 304.69, 0.39 284.99, -0.27 264.58 C-0.93 244.18, 2.14 221.72, 6.18 202.03 C10.22 182.35, 15.56 164.61, 23.98 146.46 C32.4 128.31, 43.58 109.23, 56.68 93.15 C69.78 77.08, 86.37 62.04, 102.59 50.02 C118.8 38, 135.6 28.83, 153.98 21.04 C172.36 13.24, 192.65 6.7, 212.87 3.25 C233.09 -0.2, 264.97 -0.17, 275.3 0.33 C285.63 0.82, 275.37 1.74, 274.87 6.22" stroke="#1e1e1e" stroke-width="2" fill="none"/></g><g stroke-linecap="round" transform="translate(1296.5 173) rotate(0 253.5 255)"><path d="M205.15 4.63 C223.13 -3.23, 245.59 -1.53, 265.63 -0.38 C285.68 0.77, 305.92 5.51, 325.44 11.52 C344.96 17.54, 365.44 25.71, 382.78 35.68 C400.11 45.65, 415.22 57.27, 429.44 71.35 C443.66 85.44, 457.24 102.79, 468.09 120.2 C478.93 137.6, 488.05 156.45, 494.51 175.8 C500.97 195.14, 505.3 215.93, 506.84 236.26 C508.38 256.58, 507.3 277.6, 503.75 297.75 C500.21 317.91, 493.8 338.52, 485.56 357.18 C477.33 375.85, 466.45 393.69, 454.36 409.76 C442.26 425.83, 428.54 441.01, 412.99 453.62 C397.45 466.23, 379.6 476.87, 361.1 485.41 C342.61 493.94, 322.09 500.7, 302.03 504.83 C281.98 508.96, 260.97 511.19, 240.78 510.18 C220.59 509.18, 200.29 504.75, 180.87 498.8 C161.46 492.85, 141.71 484.65, 124.27 474.5 C106.83 464.36, 90.4 452.04, 76.23 437.95 C62.06 423.86, 49.96 407.32, 39.26 389.96 C28.55 372.61, 18.33 353.07, 11.98 333.82 C5.63 314.57, 2.71 294.65, 1.16 274.48 C-0.39 254.32, -0.73 233.1, 2.67 212.83 C6.07 192.56, 13.47 171.69, 21.55 152.86 C29.63 134.03, 38.87 116.06, 51.14 99.86 C63.41 83.66, 79.2 68.16, 95.19 55.66 C111.18 43.15, 127.74 33.66, 147.09 24.82 C166.43 15.98, 199.33 5.58, 211.27 2.61 C223.21 -0.37, 217.85 2.56, 218.73 6.98 M276.47 1.82 C296.13 -0.59, 315.72 8.1, 334.73 14.72 C353.74 21.34, 373.68 30.81, 390.53 41.53 C407.39 52.24, 421.77 64.34, 435.85 79.01 C449.92 93.68, 464.57 111.64, 474.99 129.55 C485.42 147.46, 493.26 167.26, 498.41 186.48 C503.56 205.69, 505.42 224.62, 505.89 244.83 C506.37 265.04, 505.15 287.83, 501.26 307.71 C497.36 327.59, 491.32 346.02, 482.52 364.12 C473.72 382.22, 461.6 400.23, 448.45 416.32 C435.31 432.41, 419.56 448.22, 403.65 460.64 C387.75 473.06, 371.68 483.31, 353.03 490.84 C334.38 498.38, 311.81 502.65, 291.76 505.85 C271.72 509.04, 252.62 511.52, 232.74 510.02 C212.85 508.52, 192 503.5, 172.45 496.85 C152.89 490.19, 132.47 481.17, 115.4 470.1 C98.34 459.03, 83.59 445.21, 70.05 430.42 C56.51 415.63, 44.37 398.95, 34.17 381.37 C23.97 363.79, 14.71 344.41, 8.84 324.94 C2.97 305.47, -0.61 284.79, -1.06 264.54 C-1.52 244.29, 1.54 223.41, 6.13 203.43 C10.73 183.45, 17.76 163.14, 26.51 144.65 C35.26 126.16, 46.17 108.37, 58.64 92.49 C71.12 76.61, 85.14 61.39, 101.33 49.37 C117.51 37.36, 136.93 27.92, 155.76 20.4 C174.59 12.88, 194.46 7.52, 214.3 4.26 C234.14 1, 264.66 0.44, 274.8 0.85 C284.93 1.27, 275.3 2.61, 275.1 6.76" stroke="#1e1e1e" stroke-width="2" fill="none"/></g><g transform="translate(860 437) rotate(0 20 -2.5)" stroke="none"><path fill="#1e1e1e" d="M -0.16,-2.62 Q -0.16,-2.62 4.35,-4.24 8.86,-5.85 13.03,-6.26 17.20,-6.67 21.43,-7.22 25.66,-7.78 29.72,-7.47 33.78,-7.16 35.47,-7.18 37.15,-7.21 37.58,-7.21 38.00,-7.20 38.40,-7.06 38.80,-6.93 39.14,-6.67 39.48,-6.41 39.71,-6.05 39.95,-5.70 40.06,-5.29 40.17,-4.88 40.14,-4.45 40.12,-4.03 39.96,-3.64 39.80,-3.24 39.52,-2.92 39.24,-2.60 38.88,-2.38 38.51,-2.17 38.09,-2.08 37.68,-1.99 37.26,-2.04 36.83,-2.09 36.45,-2.27 36.07,-2.45 35.76,-2.75 35.45,-3.04 35.26,-3.42 35.06,-3.80 35.00,-4.21 34.93,-4.63 35.00,-5.05 35.07,-5.47 35.28,-5.85 35.48,-6.22 35.79,-6.51 36.10,-6.80 36.49,-6.98 36.87,-7.15 37.30,-7.19 37.72,-7.24 38.13,-7.14 38.55,-7.05 38.91,-6.82 39.27,-6.60 39.55,-6.28 39.82,-5.95 39.97,-5.55 40.13,-5.16 40.15,-4.73 40.17,-4.31 40.05,-3.90 39.93,-3.49 39.69,-3.14 39.45,-2.79 39.11,-2.54 38.77,-2.28 38.37,-2.15 37.96,-2.02 37.96,-2.02 37.96,-2.02 36.35,-1.53 34.74,-1.04 31.03,0.47 27.33,1.99 22.77,2.94 18.21,3.88 13.87,4.29 9.53,4.70 4.84,3.66 0.16,2.62 -0.15,2.60 -0.46,2.58 -0.77,2.49 -1.07,2.39 -1.34,2.23 -1.61,2.07 -1.84,1.84 -2.06,1.62 -2.22,1.35 -2.39,1.08 -2.48,0.78 -2.58,0.47 -2.60,0.16 -2.62,-0.15 -2.56,-0.46 -2.50,-0.77 -2.37,-1.06 -2.25,-1.35 -2.05,-1.60 -1.86,-1.85 -1.61,-2.04 -1.36,-2.24 -1.07,-2.37 -0.78,-2.50 -0.47,-2.56 -0.16,-2.62 -0.16,-2.62 L -0.16,-2.62 Z"/></g><g transform="translate(878 422) rotate(0 -1.5 12.5)" stroke="none"><path fill="#1e1e1e" d="M 2.61,0.18 Q 2.61,0.18 3.53,4.29 4.44,8.41 3.30,12.60 2.17,16.78 0.98,21.03 -0.19,25.27 -0.30,25.68 -0.41,26.09 -0.64,26.44 -0.88,26.80 -1.21,27.06 -1.55,27.32 -1.95,27.47 -2.35,27.61 -2.77,27.61 -3.20,27.62 -3.60,27.49 -4.01,27.36 -4.35,27.11 -4.69,26.85 -4.93,26.51 -5.18,26.16 -5.30,25.75 -5.42,25.34 -5.40,24.92 -5.38,24.49 -5.23,24.10 -5.08,23.70 -4.81,23.37 -4.54,23.04 -4.18,22.82 -3.82,22.59 -3.40,22.50 -2.99,22.40 -2.57,22.44 -2.14,22.48 -1.75,22.65 -1.37,22.83 -1.05,23.11 -0.74,23.40 -0.54,23.77 -0.33,24.15 -0.26,24.57 -0.18,24.98 -0.25,25.40 -0.31,25.82 -0.50,26.20 -0.70,26.58 -1.00,26.88 -1.30,27.17 -1.69,27.36 -2.07,27.54 -2.49,27.59 -2.91,27.65 -3.33,27.56 -3.75,27.47 -4.11,27.26 -4.48,27.05 -4.76,26.73 -5.04,26.41 -5.20,26.01 -5.37,25.62 -5.39,25.20 -5.42,24.77 -5.42,24.77 -5.42,24.77 -5.76,20.06 -6.10,15.35 -5.85,11.52 -5.59,7.68 -4.10,3.75 -2.61,-0.18 -2.55,-0.49 -2.49,-0.80 -2.36,-1.09 -2.23,-1.38 -2.03,-1.63 -1.83,-1.87 -1.58,-2.07 -1.33,-2.26 -1.04,-2.38 -0.75,-2.51 -0.44,-2.56 -0.12,-2.62 0.18,-2.60 0.50,-2.57 0.80,-2.48 1.10,-2.38 1.37,-2.21 1.64,-2.04 1.86,-1.82 2.08,-1.59 2.24,-1.32 2.40,-1.05 2.49,-0.74 2.58,-0.44 2.60,-0.12 2.61,0.18 2.61,0.18 L 2.61,0.18 Z"/></g><g transform="translate(936 437) rotate(0 -14 20.5)" stroke="none"><path fill="#1e1e1e" d="M 0.46,2.58 Q 0.46,2.58 -2.52,4.02 -5.52,5.46 -8.22,6.49 -10.92,7.51 -13.15,9.15 -15.39,10.78 -12.04,11.96 -8.69,13.15 -5.96,14.94 -3.22,16.73 -1.54,20.52 0.13,24.32 -0.73,28.25 -1.61,32.17 -3.93,35.04 -6.25,37.91 -8.41,39.82 -10.57,41.74 -13.98,42.98 -17.40,44.22 -21.69,43.77 -25.97,43.32 -26.40,43.32 -26.82,43.32 -27.23,43.19 -27.63,43.05 -27.97,42.80 -28.31,42.54 -28.55,42.19 -28.79,41.84 -28.91,41.43 -29.02,41.03 -29.00,40.60 -28.98,40.18 -28.83,39.78 -28.67,39.38 -28.40,39.06 -28.13,38.73 -27.76,38.51 -27.40,38.29 -26.98,38.20 -26.57,38.10 -26.15,38.15 -25.73,38.19 -25.34,38.37 -24.95,38.54 -24.64,38.83 -24.33,39.13 -24.13,39.50 -23.93,39.87 -23.86,40.29 -23.79,40.71 -23.85,41.13 -23.92,41.55 -24.12,41.93 -24.31,42.30 -24.62,42.60 -24.93,42.89 -25.31,43.07 -25.70,43.25 -26.12,43.30 -26.54,43.35 -26.96,43.26 -27.37,43.17 -27.74,42.95 -28.10,42.74 -28.38,42.42 -28.66,42.09 -28.82,41.70 -28.98,41.31 -29.00,40.88 -29.03,40.46 -28.91,40.05 -28.80,39.64 -28.57,39.28 -28.33,38.93 -27.99,38.67 -27.66,38.41 -27.25,38.27 -26.85,38.14 -26.85,38.14 -26.85,38.14 -22.30,35.69 -17.75,33.25 -16.07,31.79 -14.40,30.33 -12.23,28.13 -10.07,25.93 -11.42,23.44 -12.76,20.95 -15.35,19.58 -17.94,18.22 -20.56,16.24 -23.17,14.25 -23.59,11.65 -24.00,9.05 -22.25,6.31 -20.50,3.57 -17.25,1.39 -14.00,-0.79 -10.56,-1.98 -7.12,-3.16 -3.79,-2.87 -0.46,-2.58 -0.15,-2.60 0.16,-2.62 0.47,-2.56 0.78,-2.50 1.07,-2.37 1.36,-2.24 1.61,-2.05 1.85,-1.85 2.05,-1.60 2.24,-1.35 2.37,-1.06 2.50,-0.77 2.56,-0.46 2.62,-0.15 2.60,0.16 2.58,0.47 2.48,0.77 2.39,1.08 2.22,1.35 2.06,1.62 1.84,1.84 1.61,2.07 1.34,2.23 1.07,2.39 0.77,2.49 0.46,2.58 0.46,2.58 L 0.46,2.58 Z"/></g><g transform="translate(1045 306) rotate(0 24 -18.5)" stroke="none"><path fill="#1e1e1e" d="M -1.90,-1.81 Q -1.90,-1.81 2.95,-8.70 7.81,-15.59 15.17,-21.26 22.52,-26.92 29.14,-30.44 35.76,-33.95 39.26,-35.37 42.76,-36.80 44.21,-37.44 45.66,-38.08 46.05,-38.23 46.45,-38.38 46.87,-38.40 47.30,-38.42 47.71,-38.30 48.11,-38.19 48.46,-37.95 48.81,-37.70 49.07,-37.36 49.32,-37.02 49.45,-36.62 49.59,-36.21 49.58,-35.79 49.58,-35.36 49.44,-34.96 49.30,-34.56 49.04,-34.23 48.78,-33.89 48.43,-33.65 48.07,-33.42 47.66,-33.31 47.25,-33.20 46.83,-33.23 46.40,-33.25 46.01,-33.41 45.62,-33.57 45.29,-33.85 44.97,-34.13 44.76,-34.50 44.54,-34.86 44.45,-35.28 44.37,-35.69 44.42,-36.12 44.47,-36.54 44.65,-36.92 44.83,-37.31 45.12,-37.61 45.42,-37.92 45.80,-38.11 46.17,-38.31 46.59,-38.37 47.01,-38.44 47.43,-38.37 47.85,-38.29 48.23,-38.09 48.60,-37.89 48.89,-37.58 49.18,-37.27 49.35,-36.88 49.53,-36.49 49.57,-36.07 49.61,-35.65 49.52,-35.23 49.42,-34.82 49.20,-34.46 48.98,-34.09 48.65,-33.82 48.32,-33.55 48.32,-33.55 48.32,-33.55 47.06,-32.59 45.80,-31.63 42.91,-29.29 40.03,-26.95 34.34,-22.97 28.65,-18.98 21.91,-13.77 15.18,-8.55 8.54,-3.37 1.90,1.81 1.65,2.01 1.41,2.21 1.12,2.35 0.84,2.48 0.53,2.55 0.22,2.61 -0.09,2.60 -0.41,2.59 -0.71,2.50 -1.01,2.42 -1.29,2.26 -1.56,2.10 -1.79,1.88 -2.02,1.66 -2.19,1.40 -2.36,1.13 -2.46,0.83 -2.57,0.53 -2.59,0.22 -2.62,-0.09 -2.57,-0.40 -2.52,-0.72 -2.40,-1.01 -2.28,-1.30 -2.09,-1.55 -1.90,-1.81 -1.90,-1.81 L -1.90,-1.81 Z"/></g><g transform="translate(1032 335) rotate(0 -4.5 16.5)" stroke="none"><path fill="#1e1e1e" d="M 2.51,0.75 Q 2.51,0.75 2.66,3.93 2.81,7.11 1.22,13.08 -0.36,19.06 -2.22,24.06 -4.09,29.06 -4.88,31.20 -5.67,33.34 -5.83,33.73 -6.00,34.12 -6.28,34.44 -6.56,34.76 -6.92,34.98 -7.29,35.19 -7.71,35.28 -8.12,35.36 -8.55,35.31 -8.97,35.26 -9.35,35.07 -9.73,34.89 -10.04,34.59 -10.34,34.30 -10.54,33.92 -10.73,33.54 -10.79,33.12 -10.86,32.70 -10.78,32.28 -10.71,31.86 -10.50,31.49 -10.30,31.12 -9.98,30.83 -9.67,30.54 -9.28,30.37 -8.89,30.20 -8.47,30.16 -8.05,30.12 -7.63,30.22 -7.22,30.31 -6.86,30.54 -6.50,30.76 -6.23,31.09 -5.96,31.42 -5.81,31.81 -5.66,32.21 -5.64,32.64 -5.62,33.06 -5.74,33.47 -5.86,33.88 -6.10,34.22 -6.35,34.57 -6.69,34.82 -7.03,35.08 -7.44,35.21 -7.84,35.34 -8.27,35.33 -8.69,35.32 -9.09,35.18 -9.49,35.04 -9.83,34.78 -10.16,34.52 -10.40,34.16 -10.63,33.81 -10.74,33.39 -10.84,32.98 -10.81,32.56 -10.79,32.14 -10.79,32.14 -10.79,32.14 -10.54,29.87 -10.29,27.60 -9.72,22.24 -9.15,16.87 -7.70,10.63 -6.26,4.38 -4.38,1.81 -2.51,-0.75 -2.38,-1.04 -2.26,-1.33 -2.06,-1.58 -1.87,-1.83 -1.62,-2.03 -1.38,-2.23 -1.09,-2.36 -0.80,-2.49 -0.49,-2.55 -0.18,-2.62 0.12,-2.60 0.44,-2.58 0.74,-2.49 1.05,-2.40 1.32,-2.24 1.59,-2.08 1.82,-1.86 2.05,-1.64 2.21,-1.37 2.38,-1.10 2.48,-0.80 2.57,-0.50 2.60,-0.18 2.62,0.13 2.56,0.44 2.51,0.75 2.51,0.75 L 2.51,0.75 Z"/></g><g transform="translate(1031 335) rotate(0 11.5 4)" stroke="none"><path fill="#1e1e1e" d="M -1.75,-1.95 Q -1.75,-1.95 0.68,-5.07 3.12,-8.20 6.39,-9.69 9.66,-11.17 13.14,-11.20 16.62,-11.23 19.71,-9.56 22.80,-7.89 24.54,-4.13 26.27,-0.36 25.18,3.45 24.09,7.27 21.87,10.30 19.66,13.34 16.52,15.51 13.38,17.67 10.69,18.56 8.01,19.45 5.33,19.36 2.65,19.26 2.22,19.31 1.80,19.35 1.39,19.26 0.97,19.17 0.61,18.95 0.25,18.73 -0.02,18.41 -0.29,18.08 -0.45,17.69 -0.61,17.29 -0.63,16.87 -0.65,16.44 -0.54,16.03 -0.42,15.62 -0.18,15.27 0.05,14.92 0.39,14.66 0.73,14.41 1.13,14.27 1.53,14.14 1.96,14.14 2.38,14.14 2.78,14.28 3.19,14.41 3.52,14.67 3.86,14.93 4.10,15.28 4.34,15.64 4.45,16.05 4.56,16.46 4.54,16.88 4.51,17.30 4.36,17.70 4.20,18.09 3.92,18.42 3.65,18.74 3.28,18.96 2.92,19.17 2.50,19.27 2.09,19.36 1.66,19.31 1.24,19.26 0.86,19.08 0.47,18.90 0.16,18.61 -0.13,18.32 -0.33,17.94 -0.53,17.56 -0.60,17.14 -0.67,16.73 -0.60,16.31 -0.53,15.89 -0.33,15.51 -0.13,15.14 0.17,14.85 0.48,14.55 0.87,14.38 1.25,14.20 1.25,14.20 1.25,14.20 4.68,11.84 8.10,9.48 10.02,8.36 11.95,7.24 13.53,5.28 15.11,3.31 16.26,0.83 17.42,-1.63 14.94,-2.60 12.46,-3.57 10.42,-2.85 8.37,-2.14 5.06,-0.09 1.75,1.95 1.49,2.13 1.23,2.31 0.94,2.43 0.64,2.54 0.33,2.58 0.02,2.62 -0.29,2.59 -0.60,2.55 -0.90,2.44 -1.20,2.33 -1.46,2.15 -1.72,1.97 -1.93,1.74 -2.15,1.50 -2.29,1.22 -2.44,0.95 -2.52,0.64 -2.60,0.33 -2.60,0.02 -2.60,-0.29 -2.53,-0.60 -2.46,-0.91 -2.31,-1.19 -2.17,-1.47 -1.96,-1.71 -1.75,-1.95 -1.75,-1.95 L -1.75,-1.95 Z"/></g><g stroke-linecap="round"><g transform="translate(858 81) rotate(0 207.5 210)"><path d="M1.19 -1.04 C70.26 69.1, 345.02 350.21, 413.9 420.53 M0.36 1.03 C69.83 70.83, 347.19 349.02, 416.03 418.68" stroke="#1e1e1e" stroke-width="2" fill="none"/></g></g><mask/><g transform="translate(2031 378) rotate(0 -11 32)" stroke="none"><path fill="#1e1e1e" d="M 2.58,0.46 Q 2.58,0.46 3.23,3.85 3.87,7.24 2.52,12.56 1.16,17.88 -0.29,22.96 -1.76,28.03 -4.28,33.87 -6.79,39.72 -10.00,45.19 -13.21,50.66 -15.90,54.66 -18.60,58.65 -19.47,60.50 -20.34,62.35 -20.58,62.71 -20.82,63.06 -21.16,63.32 -21.50,63.57 -21.90,63.71 -22.30,63.84 -22.73,63.84 -23.15,63.84 -23.55,63.71 -23.96,63.57 -24.29,63.32 -24.63,63.06 -24.87,62.71 -25.11,62.36 -25.22,61.95 -25.34,61.54 -25.31,61.11 -25.29,60.69 -25.13,60.29 -24.98,59.90 -24.70,59.57 -24.43,59.25 -24.06,59.03 -23.70,58.81 -23.28,58.72 -22.87,58.63 -22.45,58.68 -22.02,58.72 -21.64,58.90 -21.25,59.08 -20.94,59.37 -20.64,59.66 -20.44,60.04 -20.24,60.41 -20.17,60.83 -20.10,61.25 -20.17,61.67 -20.24,62.09 -20.44,62.47 -20.64,62.84 -20.94,63.13 -21.25,63.43 -21.64,63.60 -22.02,63.78 -22.45,63.83 -22.87,63.87 -23.28,63.78 -23.70,63.69 -24.06,63.47 -24.43,63.25 -24.70,62.93 -24.98,62.61 -25.13,62.21 -25.29,61.82 -25.31,61.39 -25.34,60.97 -25.22,60.56 -25.11,60.15 -25.11,60.15 -25.11,60.15 -24.27,58.29 -23.42,56.43 -22.08,51.69 -20.74,46.96 -18.50,41.35 -16.27,35.75 -14.10,30.41 -11.93,25.08 -10.48,20.08 -9.04,15.08 -7.60,10.24 -6.17,5.40 -4.38,2.46 -2.58,-0.46 -2.49,-0.77 -2.39,-1.07 -2.23,-1.34 -2.06,-1.61 -1.84,-1.84 -1.62,-2.06 -1.35,-2.22 -1.08,-2.39 -0.77,-2.48 -0.47,-2.58 -0.16,-2.60 0.15,-2.62 0.46,-2.56 0.77,-2.50 1.06,-2.37 1.35,-2.24 1.60,-2.05 1.85,-1.85 2.05,-1.61 2.24,-1.36 2.37,-1.07 2.50,-0.78 2.56,-0.47 2.62,-0.16 2.60,0.15 2.58,0.47 2.58,0.46 L 2.58,0.46 Z"/></g><g transform="translate(1995 412) rotate(0 26.5 -2)" stroke="none"><path fill="#1e1e1e" d="M -0.18,-2.61 Q -0.18,-2.61 3.76,-3.93 7.71,-5.25 12.54,-5.81 17.37,-6.37 22.59,-6.87 27.81,-7.36 32.61,-7.68 37.41,-8.01 41.91,-7.60 46.41,-7.20 48.27,-6.84 50.14,-6.49 50.56,-6.44 50.99,-6.39 51.37,-6.21 51.75,-6.03 52.06,-5.74 52.37,-5.44 52.56,-5.06 52.76,-4.69 52.83,-4.27 52.89,-3.85 52.82,-3.43 52.75,-3.01 52.55,-2.64 52.35,-2.26 52.03,-1.97 51.72,-1.68 51.34,-1.51 50.95,-1.33 50.53,-1.29 50.10,-1.24 49.69,-1.34 49.28,-1.43 48.91,-1.65 48.55,-1.88 48.28,-2.20 48.01,-2.53 47.85,-2.92 47.70,-3.32 47.68,-3.74 47.66,-4.17 47.77,-4.58 47.89,-4.99 48.13,-5.34 48.37,-5.69 48.71,-5.94 49.05,-6.20 49.45,-6.33 49.86,-6.46 50.28,-6.46 50.71,-6.45 51.11,-6.32 51.51,-6.18 51.85,-5.92 52.18,-5.66 52.42,-5.31 52.66,-4.95 52.77,-4.54 52.88,-4.13 52.85,-3.71 52.83,-3.28 52.67,-2.89 52.51,-2.50 52.23,-2.17 51.95,-1.85 51.59,-1.64 51.22,-1.42 50.80,-1.33 50.39,-1.24 50.39,-1.24 50.39,-1.24 48.56,-0.71 46.74,-0.19 42.55,0.62 38.36,1.44 33.53,2.08 28.70,2.72 23.46,3.15 18.21,3.59 13.29,3.84 8.38,4.10 4.28,3.36 0.18,2.61 -0.12,2.60 -0.44,2.58 -0.74,2.49 -1.05,2.40 -1.32,2.24 -1.59,2.08 -1.82,1.86 -2.04,1.64 -2.21,1.37 -2.38,1.10 -2.48,0.80 -2.57,0.50 -2.60,0.18 -2.62,-0.13 -2.56,-0.44 -2.51,-0.75 -2.38,-1.04 -2.26,-1.33 -2.06,-1.58 -1.87,-1.83 -1.63,-2.03 -1.38,-2.23 -1.09,-2.36 -0.80,-2.49 -0.49,-2.55 -0.18,-2.61 -0.18,-2.61 L -0.18,-2.61 Z"/></g><g transform="translate(2066 432) rotate(0 -7 25.5)" stroke="none"><path fill="#1e1e1e" d="M 2.62,0.15 Q 2.62,0.15 3.28,5.12 3.94,10.09 1.77,16.56 -0.39,23.03 -3.38,29.93 -6.38,36.82 -8.67,41.16 -10.95,45.51 -12.18,47.28 -13.41,49.06 -13.63,49.43 -13.85,49.79 -14.17,50.07 -14.49,50.35 -14.89,50.50 -15.28,50.66 -15.70,50.69 -16.13,50.71 -16.54,50.60 -16.95,50.49 -17.30,50.25 -17.65,50.01 -17.91,49.68 -18.17,49.34 -18.31,48.94 -18.44,48.53 -18.45,48.11 -18.45,47.68 -18.31,47.28 -18.18,46.88 -17.92,46.54 -17.67,46.20 -17.32,45.96 -16.97,45.72 -16.56,45.60 -16.15,45.49 -15.72,45.51 -15.30,45.53 -14.90,45.69 -14.51,45.84 -14.18,46.12 -13.86,46.39 -13.64,46.76 -13.42,47.12 -13.32,47.53 -13.23,47.95 -13.28,48.37 -13.32,48.79 -13.50,49.18 -13.67,49.57 -13.97,49.88 -14.26,50.19 -14.63,50.39 -15.01,50.59 -15.43,50.66 -15.84,50.73 -16.26,50.66 -16.68,50.59 -17.06,50.39 -17.44,50.20 -17.73,49.89 -18.02,49.58 -18.20,49.20 -18.38,48.81 -18.43,48.39 -18.48,47.97 -18.39,47.55 -18.30,47.14 -18.30,47.14 -18.30,47.14 -17.98,45.00 -17.67,42.86 -16.32,37.99 -14.98,33.12 -12.14,26.44 -9.29,19.76 -7.19,14.61 -5.09,9.45 -3.85,4.64 -2.62,-0.15 -2.56,-0.46 -2.50,-0.77 -2.37,-1.06 -2.25,-1.35 -2.05,-1.60 -1.86,-1.85 -1.61,-2.04 -1.36,-2.24 -1.07,-2.37 -0.78,-2.50 -0.47,-2.56 -0.16,-2.62 0.15,-2.60 0.46,-2.58 0.77,-2.49 1.07,-2.39 1.34,-2.23 1.61,-2.07 1.84,-1.84 2.06,-1.62 2.22,-1.35 2.39,-1.08 2.48,-0.77 2.58,-0.47 2.60,-0.16 2.62,0.15 2.62,0.15 L 2.62,0.15 Z"/></g><g transform="translate(2060 435) rotate(0 18 11)" stroke="none"><path fill="#1e1e1e" d="M -0.43,-2.59 Q -0.43,-2.59 2.95,-3.74 6.33,-4.88 10.99,-4.39 15.65,-3.89 21.37,-1.56 27.09,0.76 30.73,3.48 34.37,6.21 36.00,10.30 37.64,14.40 35.83,18.29 34.02,22.18 30.08,24.24 26.14,26.30 21.41,25.89 16.68,25.48 15.05,25.05 13.41,24.62 12.99,24.56 12.57,24.49 12.20,24.29 11.82,24.09 11.53,23.78 11.24,23.47 11.06,23.08 10.88,22.70 10.84,22.27 10.79,21.85 10.88,21.44 10.98,21.02 11.19,20.66 11.41,20.29 11.74,20.02 12.06,19.75 12.46,19.59 12.85,19.43 13.28,19.41 13.70,19.39 14.11,19.50 14.52,19.62 14.87,19.85 15.22,20.09 15.48,20.43 15.74,20.77 15.87,21.17 16.01,21.58 16.01,22.00 16.01,22.43 15.87,22.83 15.73,23.23 15.48,23.57 15.22,23.91 14.87,24.15 14.51,24.38 14.10,24.50 13.69,24.61 13.27,24.59 12.85,24.56 12.45,24.40 12.06,24.25 11.73,23.97 11.41,23.70 11.19,23.33 10.97,22.97 10.88,22.55 10.79,22.14 10.84,21.71 10.88,21.29 11.06,20.91 11.24,20.52 11.53,20.21 11.83,19.90 12.20,19.71 12.58,19.51 13.00,19.44 13.42,19.37 13.42,19.37 13.42,19.37 15.05,18.95 16.69,18.52 21.67,17.50 26.64,16.47 27.61,14.57 28.57,12.68 26.09,10.59 23.61,8.50 18.98,6.28 14.36,4.06 10.91,3.32 7.46,2.58 3.94,2.59 0.43,2.59 0.11,2.60 -0.20,2.61 -0.51,2.55 -0.82,2.49 -1.10,2.36 -1.39,2.22 -1.64,2.02 -1.88,1.82 -2.07,1.57 -2.26,1.32 -2.39,1.03 -2.51,0.74 -2.57,0.42 -2.62,0.11 -2.59,-0.19 -2.57,-0.51 -2.47,-0.81 -2.37,-1.11 -2.20,-1.38 -2.04,-1.65 -1.81,-1.87 -1.58,-2.09 -1.31,-2.25 -1.03,-2.41 -0.73,-2.50 -0.43,-2.59 -0.43,-2.59 L -0.43,-2.59 Z"/></g><g transform="translate(1562 385) rotate(0 -2 18)" stroke="none"><path fill="#1e1e1e" d="M 2.61,0.21 Q 2.61,0.21 3.08,7.20 3.55,14.19 2.53,20.10 1.52,26.02 0.24,29.79 -1.03,33.57 -1.95,34.97 -2.87,36.37 -3.04,36.76 -3.21,37.15 -3.50,37.46 -3.78,37.78 -4.15,37.99 -4.52,38.19 -4.94,38.27 -5.36,38.35 -5.78,38.29 -6.20,38.23 -6.58,38.04 -6.96,37.85 -7.26,37.54 -7.56,37.24 -7.74,36.86 -7.93,36.48 -7.99,36.06 -8.04,35.63 -7.96,35.22 -7.87,34.80 -7.66,34.43 -7.45,34.06 -7.13,33.78 -6.82,33.50 -6.42,33.33 -6.03,33.17 -5.61,33.14 -5.19,33.11 -4.77,33.21 -4.36,33.32 -4.01,33.55 -3.65,33.78 -3.38,34.11 -3.12,34.44 -2.98,34.84 -2.83,35.24 -2.82,35.67 -2.81,36.09 -2.94,36.50 -3.07,36.90 -3.32,37.25 -3.57,37.59 -3.92,37.84 -4.26,38.08 -4.67,38.20 -5.08,38.33 -5.50,38.31 -5.93,38.30 -6.32,38.15 -6.72,38.00 -7.05,37.73 -7.38,37.46 -7.61,37.10 -7.83,36.74 -7.93,36.33 -8.03,35.92 -8.00,35.49 -7.96,35.07 -7.96,35.07 -7.96,35.07 -8.10,33.40 -8.23,31.73 -7.67,28.26 -7.10,24.80 -6.47,19.10 -5.85,13.40 -4.23,6.59 -2.61,-0.21 -2.55,-0.52 -2.48,-0.83 -2.35,-1.12 -2.21,-1.40 -2.01,-1.65 -1.81,-1.89 -1.56,-2.08 -1.30,-2.27 -1.01,-2.40 -0.72,-2.52 -0.41,-2.57 -0.09,-2.62 0.21,-2.59 0.53,-2.57 0.83,-2.47 1.13,-2.37 1.39,-2.20 1.66,-2.03 1.88,-1.80 2.10,-1.57 2.26,-1.29 2.41,-1.02 2.50,-0.71 2.59,-0.41 2.60,-0.09 2.61,0.21 2.61,0.21 L 2.61,0.21 Z"/></g><g transform="translate(1540 407) rotate(0 22 -5.5)" stroke="none"><path fill="#1e1e1e" d="M -1.85,-1.85 Q -1.85,-1.85 -0.33,-4.42 1.18,-6.99 5.41,-9.24 9.65,-11.49 15.18,-12.64 20.71,-13.79 27.61,-12.86 34.52,-11.93 37.26,-11.82 40.00,-11.71 40.42,-11.63 40.83,-11.55 41.21,-11.35 41.58,-11.14 41.86,-10.83 42.15,-10.51 42.32,-10.12 42.49,-9.73 42.52,-9.31 42.56,-8.88 42.46,-8.47 42.36,-8.06 42.13,-7.70 41.90,-7.34 41.57,-7.07 41.25,-6.80 40.85,-6.66 40.45,-6.51 40.02,-6.49 39.60,-6.48 39.19,-6.60 38.79,-6.73 38.44,-6.97 38.09,-7.22 37.84,-7.56 37.59,-7.91 37.47,-8.31 37.34,-8.72 37.35,-9.14 37.36,-9.57 37.50,-9.97 37.65,-10.37 37.91,-10.70 38.18,-11.03 38.53,-11.26 38.89,-11.49 39.30,-11.60 39.72,-11.70 40.14,-11.67 40.56,-11.64 40.95,-11.47 41.35,-11.30 41.66,-11.02 41.98,-10.74 42.19,-10.37 42.40,-10.00 42.48,-9.59 42.57,-9.17 42.51,-8.75 42.46,-8.33 42.27,-7.94 42.08,-7.56 41.78,-7.26 41.48,-6.96 41.10,-6.77 40.72,-6.58 40.30,-6.52 39.88,-6.46 39.88,-6.46 39.88,-6.46 37.14,-6.47 34.40,-6.48 28.40,-5.83 22.40,-5.19 17.85,-4.31 13.31,-3.42 10.09,-2.24 6.86,-1.05 4.36,0.40 1.85,1.85 1.60,2.05 1.35,2.24 1.07,2.37 0.78,2.50 0.46,2.56 0.15,2.62 -0.15,2.60 -0.47,2.58 -0.77,2.48 -1.07,2.39 -1.34,2.23 -1.61,2.06 -1.84,1.84 -2.06,1.61 -2.23,1.34 -2.39,1.07 -2.48,0.77 -2.58,0.47 -2.60,0.15 -2.62,-0.15 -2.56,-0.47 -2.50,-0.78 -2.37,-1.07 -2.24,-1.35 -2.05,-1.60 -1.85,-1.85 -1.85,-1.85 L -1.85,-1.85 Z"/></g><g transform="translate(1601 418) rotate(0 -13.5 21.5)" stroke="none"><path fill="#1e1e1e" d="M 0.94,2.45 Q 0.94,2.45 -2.51,4.61 -5.96,6.77 -8.68,8.37 -11.39,9.98 -8.13,11.62 -4.87,13.25 -1.06,16.13 2.73,19.01 3.33,23.16 3.92,27.32 0.74,32.01 -2.43,36.70 -9.23,40.35 -16.02,43.99 -20.25,44.91 -24.47,45.84 -26.19,45.84 -27.92,45.84 -28.34,45.89 -28.76,45.94 -29.18,45.85 -29.59,45.77 -29.96,45.55 -30.32,45.34 -30.60,45.01 -30.88,44.69 -31.04,44.30 -31.20,43.91 -31.23,43.48 -31.26,43.06 -31.15,42.65 -31.04,42.24 -30.81,41.88 -30.57,41.53 -30.24,41.27 -29.90,41.01 -29.50,40.87 -29.10,40.73 -28.67,40.72 -28.25,40.72 -27.84,40.85 -27.44,40.98 -27.10,41.24 -26.76,41.49 -26.52,41.84 -26.27,42.19 -26.16,42.60 -26.04,43.01 -26.06,43.43 -26.07,43.85 -26.23,44.25 -26.38,44.65 -26.65,44.97 -26.92,45.30 -27.29,45.52 -27.65,45.75 -28.06,45.84 -28.48,45.94 -28.90,45.90 -29.32,45.85 -29.71,45.68 -30.10,45.51 -30.41,45.22 -30.72,44.93 -30.92,44.55 -31.13,44.18 -31.20,43.76 -31.27,43.34 -31.21,42.92 -31.14,42.50 -30.95,42.13 -30.75,41.75 -30.45,41.45 -30.14,41.16 -29.76,40.97 -29.37,40.79 -29.37,40.79 -29.37,40.79 -27.92,39.88 -26.46,38.96 -23.20,37.72 -19.95,36.48 -14.56,33.69 -9.17,30.89 -6.26,26.99 -3.34,23.09 -5.36,21.99 -7.37,20.88 -11.96,19.38 -16.54,17.87 -18.52,16.07 -20.50,14.26 -20.42,10.96 -20.35,7.66 -18.00,5.23 -15.66,2.81 -12.32,0.89 -8.98,-1.02 -4.96,-1.73 -0.94,-2.45 -0.63,-2.52 -0.32,-2.60 -0.01,-2.60 0.30,-2.60 0.61,-2.53 0.91,-2.46 1.20,-2.31 1.48,-2.16 1.71,-1.95 1.95,-1.75 2.13,-1.49 2.32,-1.23 2.43,-0.93 2.54,-0.64 2.58,-0.32 2.62,-0.01 2.58,0.30 2.55,0.61 2.44,0.91 2.33,1.20 2.15,1.47 1.97,1.73 1.73,1.94 1.50,2.15 1.22,2.30 0.94,2.45 0.94,2.45 L 0.94,2.45 Z"/></g><g stroke-linecap="round"><g transform="translate(1380 33) rotate(0 320.5 188.5)"><path d="M0.93 -0.29 C107.85 62.72, 535.14 315.42, 641.73 378.18 M-0.05 -1.49 C106.76 61.21, 534.58 313.55, 641.17 376.68" stroke="#1e1e1e" stroke-width="2" fill="none"/></g></g><mask/><g stroke-linecap="round"><g transform="translate(2024 409) rotate(0 -309.5 213.5)"><path d="M0.84 -0.21 C-102.1 70.68, -514.73 355.1, -618.04 426.2 M-0.18 -1.36 C-103.16 69.58, -515.22 355.86, -618.49 427.31" stroke="#1e1e1e" stroke-width="2" fill="none"/></g></g><mask/><g transform="translate(1659 213) rotate(0 23 -23.5)" stroke="none"><path fill="#1e1e1e" d="M -2.10,-1.57 Q -2.10,-1.57 0.40,-6.88 2.90,-12.19 7.91,-18.03 12.92,-23.87 18.91,-29.62 24.90,-35.38 29.65,-39.28 34.41,-43.17 38.59,-45.46 42.77,-47.75 43.14,-47.97 43.51,-48.18 43.93,-48.26 44.34,-48.35 44.76,-48.29 45.19,-48.24 45.57,-48.05 45.95,-47.87 46.25,-47.57 46.56,-47.27 46.75,-46.89 46.94,-46.51 47.00,-46.09 47.06,-45.67 46.98,-45.25 46.91,-44.83 46.70,-44.46 46.50,-44.09 46.18,-43.80 45.87,-43.52 45.48,-43.35 45.09,-43.18 44.67,-43.14 44.24,-43.10 43.83,-43.20 43.42,-43.30 43.06,-43.53 42.70,-43.75 42.43,-44.08 42.16,-44.41 42.01,-44.81 41.86,-45.21 41.84,-45.63 41.83,-46.05 41.95,-46.46 42.07,-46.87 42.32,-47.22 42.56,-47.56 42.91,-47.81 43.25,-48.06 43.65,-48.19 44.06,-48.32 44.49,-48.31 44.91,-48.30 45.31,-48.16 45.71,-48.02 46.04,-47.75 46.38,-47.49 46.61,-47.13 46.84,-46.78 46.95,-46.37 47.05,-45.95 47.02,-45.53 46.99,-45.11 46.82,-44.71 46.66,-44.32 46.38,-44.00 46.10,-43.69 46.10,-43.69 46.10,-43.69 43.20,-40.19 40.31,-36.70 36.09,-32.41 31.86,-28.11 26.20,-22.70 20.53,-17.29 15.71,-11.75 10.89,-6.20 6.49,-2.31 2.10,1.57 1.88,1.80 1.66,2.03 1.39,2.20 1.12,2.37 0.82,2.47 0.52,2.57 0.21,2.59 -0.10,2.62 -0.41,2.57 -0.72,2.52 -1.01,2.39 -1.31,2.27 -1.56,2.08 -1.81,1.89 -2.01,1.65 -2.21,1.40 -2.35,1.11 -2.49,0.83 -2.55,0.52 -2.61,0.21 -2.60,-0.10 -2.59,-0.41 -2.50,-0.72 -2.41,-1.02 -2.25,-1.30 -2.10,-1.57 -2.10,-1.57 L -2.10,-1.57 Z"/></g><g transform="translate(1673 623) rotate(0 20 24.5)" stroke="none"><path fill="#1e1e1e" d="M 0.75,-2.51 Q 0.75,-2.51 3.98,-2.79 7.21,-3.07 11.07,-1.19 14.92,0.69 19.66,5.64 24.40,10.60 27.50,15.46 30.60,20.32 33.05,25.04 35.50,29.75 37.25,35.09 39.00,40.42 39.85,42.59 40.70,44.75 40.84,45.15 40.98,45.55 40.98,45.98 40.98,46.40 40.85,46.81 40.71,47.21 40.46,47.55 40.20,47.89 39.85,48.13 39.50,48.37 39.09,48.48 38.68,48.60 38.26,48.58 37.83,48.55 37.44,48.40 37.04,48.24 36.72,47.97 36.39,47.69 36.17,47.33 35.95,46.97 35.86,46.55 35.76,46.14 35.81,45.72 35.85,45.29 36.03,44.91 36.21,44.52 36.50,44.21 36.79,43.90 37.16,43.70 37.54,43.50 37.96,43.43 38.38,43.36 38.80,43.43 39.22,43.50 39.59,43.69 39.97,43.89 40.26,44.20 40.56,44.51 40.74,44.89 40.91,45.28 40.96,45.70 41.01,46.12 40.92,46.54 40.83,46.95 40.61,47.32 40.39,47.68 40.07,47.96 39.75,48.23 39.35,48.39 38.96,48.55 38.54,48.57 38.11,48.60 37.70,48.49 37.29,48.37 36.94,48.14 36.59,47.90 36.33,47.56 36.07,47.22 36.07,47.23 36.07,47.23 34.74,45.32 33.42,43.41 30.05,39.17 26.68,34.93 23.85,30.64 21.01,26.36 18.44,22.21 15.88,18.07 12.69,14.02 9.51,9.97 6.89,8.24 4.28,6.52 1.76,4.52 -0.75,2.51 -1.04,2.38 -1.33,2.26 -1.58,2.06 -1.83,1.87 -2.03,1.62 -2.23,1.38 -2.36,1.09 -2.49,0.80 -2.55,0.49 -2.62,0.18 -2.60,-0.12 -2.58,-0.44 -2.49,-0.74 -2.40,-1.05 -2.24,-1.32 -2.08,-1.59 -1.86,-1.82 -1.64,-2.05 -1.37,-2.21 -1.10,-2.38 -0.80,-2.48 -0.50,-2.57 -0.18,-2.60 0.13,-2.62 0.44,-2.56 0.75,-2.51 0.75,-2.51 L 0.75,-2.51 Z"/></g><g transform="translate(1735 117) rotate(0 -3.5 23.5)" stroke="none"><path fill="#1e1e1e" d="M -2.41,1.03 Q -2.41,1.03 -2.65,0.65 -2.90,0.28 -4.83,-0.81 -6.77,-1.91 -6.95,-2.52 -7.13,-3.14 -7.16,-3.78 -7.18,-4.42 -7.06,-5.05 -6.93,-5.68 -6.66,-6.26 -6.38,-6.84 -5.98,-7.34 -5.57,-7.84 -5.06,-8.22 -4.55,-8.61 -3.96,-8.86 -3.37,-9.12 -2.74,-9.22 -2.10,-9.32 -1.46,-9.27 -0.82,-9.22 -0.22,-9.02 0.38,-8.82 0.93,-8.48 1.47,-8.14 1.92,-7.67 2.36,-7.21 2.68,-6.66 3.00,-6.10 3.50,-3.04 3.99,0.01 3.53,6.94 3.08,13.87 1.82,20.29 0.56,26.70 -0.58,32.33 -1.73,37.96 -2.35,42.47 -2.97,46.97 -3.16,49.00 -3.35,51.02 -3.42,51.44 -3.49,51.86 -3.70,52.23 -3.90,52.60 -4.21,52.90 -4.52,53.19 -4.90,53.36 -5.29,53.54 -5.71,53.58 -6.14,53.63 -6.55,53.53 -6.96,53.44 -7.33,53.22 -7.69,53.00 -7.96,52.67 -8.24,52.34 -8.39,51.95 -8.55,51.55 -8.57,51.13 -8.59,50.70 -8.47,50.30 -8.36,49.89 -8.12,49.54 -7.88,49.19 -7.54,48.93 -7.20,48.68 -6.79,48.54 -6.39,48.41 -5.96,48.41 -5.54,48.41 -5.14,48.55 -4.73,48.69 -4.40,48.95 -4.06,49.21 -3.82,49.56 -3.59,49.91 -3.48,50.32 -3.37,50.73 -3.39,51.16 -3.42,51.58 -3.58,51.98 -3.74,52.37 -4.01,52.69 -4.29,53.02 -4.65,53.23 -5.02,53.45 -5.44,53.54 -5.85,53.63 -6.27,53.58 -6.70,53.53 -7.08,53.35 -7.47,53.17 -7.77,52.87 -8.08,52.58 -8.28,52.20 -8.47,51.83 -8.54,51.41 -8.61,50.99 -8.61,50.99 -8.61,50.99 -8.78,48.96 -8.95,46.94 -9.51,41.92 -10.08,36.90 -9.75,30.95 -9.42,24.99 -8.56,19.04 -7.70,13.08 -7.23,5.58 -6.77,-1.91 -6.95,-2.52 -7.13,-3.14 -7.16,-3.78 -7.18,-4.42 -7.06,-5.05 -6.93,-5.68 -6.66,-6.26 -6.38,-6.84 -5.98,-7.34 -5.57,-7.84 -5.06,-8.22 -4.55,-8.61 -3.96,-8.86 -3.37,-9.12 -2.74,-9.22 -2.10,-9.32 -1.46,-9.27 -0.82,-9.22 -0.22,-9.02 0.38,-8.82 0.93,-8.48 1.47,-8.14 1.91,-7.67 2.36,-7.21 2.68,-6.66 3.00,-6.10 1.23,-7.21 -0.54,-8.33 0.93,-4.68 2.41,-1.03 2.50,-0.73 2.59,-0.42 2.60,-0.11 2.61,0.20 2.55,0.51 2.49,0.82 2.35,1.11 2.22,1.39 2.02,1.64 1.82,1.89 1.57,2.08 1.31,2.27 1.02,2.39 0.73,2.52 0.42,2.57 0.11,2.62 -0.20,2.59 -0.52,2.57 -0.82,2.47 -1.12,2.37 -1.38,2.20 -1.65,2.03 -1.87,1.81 -2.09,1.58 -2.25,1.30 -2.41,1.03 -2.41,1.03 L -2.41,1.03 Z"/></g><g transform="translate(1715 122) rotate(0 21 -5)" stroke="none"><path fill="#1e1e1e" d="M -1.06,-2.40 Q -1.06,-2.40 1.17,-4.33 3.40,-6.27 7.19,-7.77 10.98,-9.27 16.16,-10.74 21.35,-12.20 27.36,-12.37 33.36,-12.55 35.78,-12.39 38.20,-12.22 38.63,-12.20 39.05,-12.18 39.45,-12.02 39.84,-11.86 40.16,-11.59 40.49,-11.31 40.71,-10.95 40.93,-10.59 41.02,-10.17 41.11,-9.76 41.06,-9.33 41.02,-8.91 40.84,-8.52 40.66,-8.14 40.37,-7.83 40.08,-7.52 39.70,-7.32 39.33,-7.12 38.91,-7.05 38.49,-6.98 38.07,-7.05 37.65,-7.12 37.27,-7.32 36.90,-7.52 36.61,-7.83 36.31,-8.14 36.14,-8.52 35.96,-8.91 35.91,-9.33 35.87,-9.75 35.96,-10.17 36.05,-10.58 36.27,-10.95 36.49,-11.31 36.81,-11.59 37.13,-11.86 37.53,-12.02 37.92,-12.18 38.35,-12.20 38.77,-12.22 39.18,-12.11 39.59,-12.00 39.94,-11.76 40.29,-11.52 40.55,-11.18 40.81,-10.84 40.94,-10.44 41.08,-10.04 41.08,-9.61 41.08,-9.19 40.94,-8.78 40.81,-8.38 40.55,-8.04 40.29,-7.71 39.94,-7.47 39.59,-7.23 39.18,-7.11 38.77,-7.00 38.77,-7.00 38.77,-7.00 36.45,-6.32 34.12,-5.64 28.96,-4.59 23.81,-3.54 18.96,-2.13 14.11,-0.72 10.52,0.47 6.94,1.67 4.00,2.03 1.06,2.40 0.76,2.49 0.46,2.58 0.14,2.60 -0.17,2.62 -0.48,2.56 -0.79,2.50 -1.08,2.37 -1.36,2.24 -1.61,2.04 -1.86,1.84 -2.06,1.59 -2.25,1.34 -2.38,1.05 -2.51,0.76 -2.56,0.45 -2.62,0.14 -2.60,-0.16 -2.58,-0.48 -2.48,-0.78 -2.39,-1.08 -2.22,-1.35 -2.05,-1.62 -1.83,-1.85 -1.61,-2.07 -1.33,-2.23 -1.06,-2.40 -1.06,-2.40 L -1.06,-2.40 Z"/></g><g transform="translate(1754 177) rotate(0 10 11)" stroke="none"><path fill="#1e1e1e" d="M -0.97,-2.43 Q -0.97,-2.43 2.92,-5.20 6.81,-7.96 10.08,-9.27 13.35,-10.58 17.41,-10.34 21.46,-10.09 22.90,-8.41 24.34,-6.72 24.36,-2.68 24.39,1.35 22.74,6.78 21.08,12.21 19.58,16.45 18.07,20.69 16.49,24.62 14.91,28.55 14.77,28.95 14.63,29.35 14.37,29.69 14.11,30.02 13.76,30.26 13.40,30.49 12.99,30.60 12.58,30.71 12.16,30.69 11.74,30.66 11.34,30.50 10.95,30.34 10.63,30.06 10.31,29.78 10.09,29.41 9.88,29.05 9.79,28.63 9.70,28.22 9.75,27.79 9.80,27.37 9.98,26.99 10.17,26.60 10.46,26.30 10.76,25.99 11.13,25.80 11.51,25.60 11.93,25.54 12.35,25.47 12.77,25.55 13.19,25.62 13.56,25.82 13.93,26.02 14.22,26.33 14.51,26.65 14.69,27.03 14.86,27.42 14.90,27.84 14.95,28.27 14.85,28.68 14.76,29.10 14.53,29.46 14.31,29.82 13.98,30.09 13.66,30.36 13.26,30.52 12.86,30.67 12.44,30.69 12.01,30.71 11.61,30.59 11.20,30.47 10.85,30.23 10.50,29.99 10.25,29.65 9.99,29.31 9.86,28.90 9.73,28.50 9.73,28.07 9.74,27.65 9.74,27.65 9.74,27.65 9.65,22.98 9.57,18.30 10.53,13.75 11.50,9.20 14.23,3.82 16.97,-1.54 13.70,-0.23 10.43,1.06 5.70,1.75 0.97,2.43 0.66,2.52 0.36,2.60 0.04,2.60 -0.26,2.61 -0.57,2.54 -0.88,2.47 -1.17,2.33 -1.45,2.18 -1.69,1.98 -1.93,1.77 -2.11,1.51 -2.30,1.26 -2.42,0.96 -2.53,0.67 -2.58,0.36 -2.62,0.04 -2.59,-0.26 -2.56,-0.58 -2.45,-0.88 -2.34,-1.17 -2.17,-1.44 -1.99,-1.70 -1.76,-1.92 -1.53,-2.13 -1.25,-2.28 -0.97,-2.43 -0.97,-2.43 L -0.97,-2.43 Z"/></g><g transform="translate(1764 681) rotate(0 -7.5 21.5)" stroke="none"><path fill="#1e1e1e" d="M 2.38,1.10 Q 2.38,1.10 1.86,5.39 1.34,9.68 -0.17,13.92 -1.69,18.17 -3.43,23.03 -5.18,27.90 -7.27,32.75 -9.36,37.59 -10.44,39.59 -11.53,41.60 -11.71,41.98 -11.90,42.36 -12.20,42.66 -12.50,42.96 -12.88,43.15 -13.26,43.35 -13.68,43.40 -14.10,43.46 -14.52,43.39 -14.94,43.31 -15.31,43.10 -15.68,42.89 -15.96,42.58 -16.25,42.26 -16.42,41.87 -16.59,41.48 -16.62,41.06 -16.66,40.64 -16.56,40.22 -16.46,39.81 -16.23,39.45 -16.00,39.09 -15.67,38.82 -15.34,38.56 -14.95,38.41 -14.55,38.26 -14.12,38.25 -13.70,38.23 -13.29,38.36 -12.89,38.48 -12.54,38.73 -12.19,38.97 -11.94,39.32 -11.69,39.66 -11.57,40.07 -11.44,40.47 -11.45,40.90 -11.46,41.32 -11.60,41.72 -11.75,42.12 -12.01,42.45 -12.28,42.79 -12.64,43.02 -12.99,43.25 -13.41,43.35 -13.82,43.45 -14.24,43.42 -14.66,43.39 -15.06,43.22 -15.45,43.06 -15.76,42.77 -16.08,42.49 -16.29,42.12 -16.50,41.75 -16.59,41.34 -16.67,40.92 -16.61,40.50 -16.56,40.08 -16.56,40.08 -16.56,40.08 -16.35,37.81 -16.15,35.54 -15.20,30.34 -14.26,25.13 -12.92,19.88 -11.58,14.63 -9.91,9.94 -8.24,5.26 -5.31,2.08 -2.38,-1.10 -2.21,-1.37 -2.05,-1.63 -1.82,-1.86 -1.60,-2.08 -1.32,-2.24 -1.05,-2.40 -0.75,-2.49 -0.44,-2.58 -0.13,-2.60 0.18,-2.62 0.49,-2.56 0.80,-2.50 1.09,-2.36 1.38,-2.23 1.62,-2.03 1.87,-1.83 2.06,-1.58 2.26,-1.33 2.38,-1.04 2.51,-0.75 2.56,-0.44 2.62,-0.13 2.60,0.18 2.57,0.49 2.48,0.79 2.38,1.10 2.38,1.10 L 2.38,1.10 Z"/></g><g transform="translate(1727 686) rotate(0 26 -9.5)" stroke="none"><path fill="#1e1e1e" d="M -1.50,-2.15 Q -1.50,-2.15 3.62,-7.07 8.75,-11.99 15.31,-15.05 21.86,-18.12 28.45,-19.42 35.04,-20.72 40.01,-20.58 44.98,-20.43 46.94,-20.41 48.91,-20.39 49.33,-20.36 49.75,-20.32 50.14,-20.15 50.53,-19.98 50.85,-19.70 51.16,-19.41 51.37,-19.04 51.58,-18.67 51.66,-18.25 51.73,-17.83 51.67,-17.41 51.62,-16.99 51.42,-16.61 51.23,-16.23 50.93,-15.93 50.63,-15.63 50.25,-15.45 49.87,-15.26 49.45,-15.20 49.02,-15.15 48.61,-15.23 48.19,-15.31 47.82,-15.52 47.45,-15.74 47.17,-16.05 46.89,-16.37 46.72,-16.76 46.56,-17.15 46.52,-17.58 46.49,-18.00 46.60,-18.41 46.70,-18.82 46.93,-19.18 47.16,-19.54 47.49,-19.80 47.83,-20.07 48.23,-20.21 48.63,-20.36 49.05,-20.37 49.48,-20.37 49.88,-20.25 50.29,-20.12 50.63,-19.87 50.97,-19.62 51.22,-19.28 51.47,-18.93 51.59,-18.52 51.71,-18.12 51.70,-17.69 51.68,-17.27 51.54,-16.87 51.39,-16.47 51.12,-16.14 50.85,-15.81 50.49,-15.58 50.13,-15.36 49.72,-15.26 49.31,-15.16 49.31,-15.16 49.31,-15.16 47.37,-14.84 45.43,-14.52 41.20,-13.67 36.98,-12.82 31.42,-11.12 25.85,-9.42 20.05,-6.76 14.24,-4.10 7.87,-0.97 1.50,2.15 1.22,2.30 0.94,2.44 0.64,2.52 0.33,2.60 0.01,2.60 -0.29,2.60 -0.60,2.53 -0.91,2.46 -1.19,2.31 -1.47,2.17 -1.71,1.96 -1.95,1.75 -2.13,1.49 -2.31,1.23 -2.43,0.94 -2.54,0.64 -2.58,0.33 -2.62,0.01 -2.59,-0.29 -2.55,-0.61 -2.44,-0.90 -2.33,-1.20 -2.15,-1.46 -1.97,-1.72 -1.74,-1.94 -1.50,-2.15 -1.50,-2.15 L -1.50,-2.15 Z"/></g><g transform="translate(1777 727) rotate(0 14.5 15)" stroke="none"><path fill="#1e1e1e" d="M -0.55,-2.56 Q -0.55,-2.56 3.30,-4.21 7.16,-5.86 11.13,-6.28 15.10,-6.70 18.92,-6.27 22.74,-5.84 26.25,-2.94 29.76,-0.04 29.50,3.77 29.23,7.59 26.29,11.74 23.35,15.89 19.78,19.51 16.20,23.12 14.00,25.56 11.80,27.99 15.65,28.41 19.51,28.84 21.41,29.04 23.30,29.25 23.72,29.34 24.13,29.42 24.50,29.64 24.86,29.85 25.14,30.17 25.42,30.50 25.58,30.89 25.75,31.28 25.77,31.71 25.80,32.13 25.69,32.54 25.58,32.95 25.35,33.31 25.12,33.66 24.78,33.92 24.44,34.18 24.04,34.32 23.64,34.46 23.22,34.47 22.79,34.47 22.39,34.34 21.98,34.21 21.64,33.96 21.30,33.70 21.06,33.35 20.82,33.01 20.70,32.60 20.58,32.19 20.60,31.76 20.62,31.34 20.77,30.94 20.92,30.55 21.19,30.22 21.46,29.89 21.83,29.67 22.19,29.45 22.60,29.35 23.02,29.25 23.44,29.30 23.86,29.34 24.25,29.51 24.64,29.68 24.95,29.97 25.26,30.26 25.46,30.64 25.67,31.01 25.74,31.43 25.81,31.85 25.75,32.27 25.69,32.69 25.49,33.06 25.30,33.44 24.99,33.74 24.69,34.03 24.30,34.22 23.92,34.40 23.50,34.45 23.08,34.50 23.08,34.50 23.08,34.50 21.17,34.55 19.27,34.59 13.85,34.79 8.43,34.99 6.33,33.25 4.23,31.51 4.61,26.91 5.00,22.31 7.40,19.54 9.80,16.77 12.99,13.56 16.19,10.34 18.83,6.47 21.47,2.60 18.68,2.19 15.89,1.78 12.41,2.10 8.93,2.41 4.74,2.49 0.55,2.56 0.23,2.59 -0.08,2.62 -0.39,2.57 -0.70,2.52 -0.99,2.40 -1.29,2.28 -1.54,2.09 -1.80,1.91 -2.00,1.66 -2.20,1.42 -2.34,1.14 -2.48,0.85 -2.54,0.54 -2.61,0.23 -2.60,-0.07 -2.59,-0.39 -2.51,-0.70 -2.42,-1.00 -2.27,-1.28 -2.11,-1.55 -1.89,-1.78 -1.68,-2.01 -1.41,-2.19 -1.14,-2.36 -0.84,-2.46 -0.55,-2.56 -0.55,-2.56 L -0.55,-2.56 Z"/></g><g transform="translate(1511 854) rotate(0 23.5 -32)" stroke="none"><path fill="#1e1e1e" d="M -2.39,-1.08 Q -2.39,-1.08 -1.85,-4.66 -1.32,-8.24 1.40,-12.54 4.12,-16.85 7.54,-21.76 10.96,-26.67 14.74,-31.68 18.53,-36.69 22.27,-42.89 26.02,-49.09 28.49,-53.47 30.96,-57.86 32.30,-60.31 33.64,-62.75 34.24,-63.50 34.84,-64.24 35.19,-64.72 35.53,-65.20 35.98,-65.58 36.43,-65.97 36.96,-66.23 37.49,-66.50 38.07,-66.63 38.65,-66.76 39.24,-66.74 39.83,-66.73 40.40,-66.58 40.97,-66.43 41.49,-66.14 42.01,-65.85 42.45,-65.45 42.88,-65.05 43.21,-64.56 43.53,-64.06 43.73,-63.51 43.93,-62.95 43.99,-62.36 44.05,-61.77 43.97,-61.19 43.88,-60.60 43.66,-60.05 43.44,-59.50 43.09,-57.08 42.74,-54.66 41.92,-49.67 41.10,-44.68 40.48,-39.47 39.87,-34.26 39.31,-29.96 38.74,-25.67 38.78,-23.07 38.81,-20.46 38.65,-19.77 38.48,-19.08 38.43,-18.54 38.37,-18.00 38.19,-17.49 38.00,-16.97 37.70,-16.52 37.40,-16.07 37.00,-15.70 36.59,-15.33 36.12,-15.07 35.64,-14.81 35.11,-14.67 34.58,-14.53 34.04,-14.52 33.49,-14.51 32.96,-14.63 32.43,-14.75 31.94,-15.00 31.46,-15.25 31.04,-15.60 30.63,-15.95 30.31,-16.40 30.00,-16.84 29.79,-17.35 29.59,-17.85 29.52,-18.39 29.44,-18.93 27.21,-19.49 24.98,-20.06 23.39,-18.45 21.80,-16.84 24.97,-18.73 28.13,-20.62 31.55,-21.44 34.97,-22.27 38.53,-22.86 42.08,-23.46 43.60,-23.67 45.11,-23.88 45.53,-23.94 45.95,-23.99 46.37,-23.90 46.79,-23.82 47.15,-23.61 47.52,-23.39 47.80,-23.07 48.08,-22.75 48.24,-22.36 48.41,-21.97 48.44,-21.54 48.47,-21.12 48.36,-20.71 48.25,-20.30 48.02,-19.94 47.79,-19.59 47.45,-19.32 47.12,-19.06 46.72,-18.92 46.32,-18.78 45.89,-18.77 45.47,-18.76 45.06,-18.89 44.66,-19.02 44.32,-19.28 43.97,-19.53 43.73,-19.88 43.49,-20.22 43.37,-20.63 43.25,-21.04 43.26,-21.46 43.28,-21.89 43.43,-22.28 43.58,-22.68 43.85,-23.01 44.12,-23.34 44.48,-23.56 44.84,-23.79 45.26,-23.89 45.67,-23.98 46.09,-23.94 46.52,-23.90 46.90,-23.73 47.29,-23.56 47.61,-23.27 47.92,-22.99 48.12,-22.61 48.33,-22.24 48.40,-21.82 48.48,-21.40 48.42,-20.98 48.35,-20.56 48.16,-20.19 47.97,-19.81 47.66,-19.51 47.36,-19.21 46.98,-19.03 46.59,-18.84 46.59,-18.84 46.60,-18.84 45.21,-18.20 43.82,-17.56 40.56,-16.14 37.29,-14.73 34.14,-13.53 30.98,-12.33 27.65,-11.11 24.32,-9.90 21.06,-9.57 17.80,-9.23 15.88,-10.29 13.96,-11.34 13.32,-14.98 12.68,-18.62 14.38,-20.71 16.09,-22.80 18.49,-25.01 20.90,-27.22 24.02,-28.43 27.14,-29.64 30.60,-28.35 34.06,-27.06 36.27,-23.07 38.48,-19.08 38.43,-18.54 38.37,-18.00 38.19,-17.49 38.00,-16.97 37.70,-16.52 37.40,-16.07 37.00,-15.70 36.59,-15.33 36.12,-15.07 35.64,-14.81 35.11,-14.67 34.58,-14.53 34.04,-14.52 33.49,-14.51 32.96,-14.63 32.43,-14.75 31.94,-15.00 31.46,-15.24 31.04,-15.60 30.63,-15.95 30.31,-16.40 30.00,-16.84 29.79,-17.35 29.59,-17.85 29.52,-18.39 29.44,-18.93 29.24,-19.62 29.03,-20.30 28.97,-23.62 28.91,-26.95 29.46,-31.20 30.02,-35.45 30.70,-40.87 31.37,-46.29 32.22,-51.43 33.08,-56.57 33.96,-60.40 34.84,-64.24 35.19,-64.72 35.53,-65.20 35.98,-65.58 36.43,-65.97 36.96,-66.23 37.49,-66.50 38.07,-66.63 38.65,-66.76 39.24,-66.74 39.83,-66.73 40.40,-66.58 40.97,-66.43 41.49,-66.14 42.01,-65.86 42.45,-65.45 42.88,-65.05 43.21,-64.56 43.53,-64.07 43.73,-63.51 43.93,-62.95 43.99,-62.36 44.05,-61.77 43.97,-61.19 43.88,-60.60 43.66,-60.05 43.44,-59.50 42.89,-58.72 42.34,-57.95 40.96,-55.46 39.59,-52.98 37.02,-48.47 34.46,-43.96 30.41,-37.34 26.37,-30.73 22.65,-25.88 18.94,-21.03 15.52,-16.27 12.11,-11.52 9.59,-7.96 7.07,-4.40 4.73,-1.65 2.39,1.08 2.22,1.35 2.06,1.62 1.83,1.85 1.61,2.07 1.34,2.23 1.06,2.39 0.76,2.49 0.46,2.58 0.14,2.60 -0.16,2.62 -0.47,2.56 -0.79,2.50 -1.07,2.37 -1.36,2.24 -1.61,2.04 -1.86,1.85 -2.05,1.60 -2.25,1.35 -2.38,1.06 -2.51,0.77 -2.56,0.46 -2.62,0.14 -2.60,-0.16 -2.58,-0.48 -2.48,-0.78 -2.39,-1.08 -2.39,-1.08 L -2.39,-1.08 Z"/></g><g transform="translate(1563 846) rotate(0 10.5 13.5)" stroke="none"><path fill="#1e1e1e" d="M -1.03,-2.41 Q -1.03,-2.41 0.90,-3.76 2.83,-5.11 5.57,-4.94 8.30,-4.77 10.31,-3.12 12.32,-1.47 12.89,1.33 13.47,4.15 11.70,9.13 9.93,14.11 7.64,17.92 5.35,21.72 9.04,23.59 12.73,25.46 16.81,25.51 20.89,25.56 21.31,25.59 21.73,25.62 22.13,25.78 22.52,25.94 22.84,26.22 23.16,26.50 23.38,26.86 23.59,27.23 23.68,27.65 23.77,28.06 23.72,28.48 23.66,28.91 23.48,29.29 23.30,29.67 23.00,29.98 22.71,30.28 22.33,30.48 21.95,30.67 21.53,30.74 21.11,30.80 20.69,30.73 20.28,30.66 19.90,30.45 19.53,30.25 19.24,29.94 18.95,29.63 18.78,29.24 18.60,28.85 18.56,28.43 18.52,28.01 18.62,27.59 18.71,27.18 18.94,26.82 19.16,26.45 19.49,26.18 19.81,25.91 20.21,25.76 20.61,25.60 21.03,25.59 21.45,25.57 21.86,25.69 22.27,25.80 22.62,26.05 22.97,26.29 23.22,26.63 23.48,26.97 23.61,27.38 23.74,27.78 23.73,28.20 23.73,28.63 23.59,29.03 23.45,29.43 23.19,29.77 22.93,30.10 22.57,30.34 22.22,30.57 21.81,30.68 21.40,30.79 21.40,30.79 21.40,30.79 17.07,31.66 12.74,32.53 8.66,32.60 4.59,32.66 1.53,31.28 -1.51,29.91 -2.54,26.90 -3.57,23.89 -2.29,20.87 -1.01,17.85 0.98,14.61 2.98,11.36 4.09,6.51 5.21,1.66 3.12,2.04 1.03,2.41 0.73,2.50 0.42,2.59 0.11,2.60 -0.20,2.61 -0.51,2.55 -0.82,2.49 -1.11,2.35 -1.39,2.22 -1.64,2.02 -1.89,1.82 -2.08,1.57 -2.27,1.31 -2.39,1.02 -2.52,0.73 -2.57,0.42 -2.62,0.11 -2.59,-0.20 -2.57,-0.52 -2.47,-0.82 -2.37,-1.12 -2.20,-1.38 -2.03,-1.65 -1.81,-1.87 -1.58,-2.09 -1.30,-2.25 -1.03,-2.41 -1.03,-2.41 L -1.03,-2.41 Z"/></g><g transform="translate(1498 75) rotate(0 24.5 -32)" stroke="none"><path fill="#1e1e1e" d="M -1.75,-1.95 Q -1.75,-1.95 0.35,-5.38 2.46,-8.81 6.55,-13.59 10.63,-18.37 17.58,-26.46 24.53,-34.56 29.05,-41.21 33.57,-47.86 36.68,-52.73 39.78,-57.60 43.61,-61.39 47.43,-65.19 50.42,-62.91 53.40,-60.62 53.41,-57.25 53.41,-53.87 52.07,-48.76 50.72,-43.64 49.31,-38.48 47.91,-33.31 46.44,-27.96 44.97,-22.60 44.37,-19.39 43.77,-16.18 42.12,-12.10 40.48,-8.02 35.92,-8.38 31.37,-8.74 28.96,-9.54 26.55,-10.33 30.16,-11.84 33.77,-13.35 37.01,-13.06 40.25,-12.77 43.98,-11.77 47.70,-10.78 48.11,-10.66 48.52,-10.55 48.88,-10.31 49.23,-10.07 49.49,-9.73 49.74,-9.40 49.88,-8.99 50.02,-8.59 50.02,-8.17 50.02,-7.74 49.88,-7.34 49.75,-6.94 49.49,-6.60 49.23,-6.26 48.88,-6.02 48.53,-5.78 48.12,-5.67 47.71,-5.55 47.29,-5.58 46.86,-5.60 46.47,-5.76 46.07,-5.91 45.75,-6.19 45.42,-6.46 45.20,-6.83 44.98,-7.19 44.89,-7.60 44.80,-8.02 44.85,-8.44 44.89,-8.86 45.07,-9.25 45.25,-9.64 45.54,-9.94 45.83,-10.25 46.21,-10.45 46.58,-10.65 47.00,-10.72 47.42,-10.79 47.84,-10.72 48.26,-10.65 48.64,-10.46 49.01,-10.26 49.30,-9.95 49.60,-9.64 49.78,-9.25 49.95,-8.87 50.00,-8.45 50.05,-8.02 49.96,-7.61 49.86,-7.19 49.65,-6.83 49.43,-6.47 49.10,-6.19 48.78,-5.91 48.39,-5.76 47.99,-5.60 47.57,-5.58 47.14,-5.55 47.14,-5.55 47.14,-5.55 43.74,-5.32 40.35,-5.09 37.23,-4.71 34.11,-4.34 30.75,-4.29 27.40,-4.24 24.69,-5.41 21.98,-6.58 20.95,-9.02 19.91,-11.46 21.18,-14.29 22.45,-17.11 26.81,-17.69 31.18,-18.27 32.36,-15.98 33.55,-13.69 33.80,-15.82 34.05,-17.94 34.69,-21.58 35.33,-25.22 36.78,-30.58 38.23,-35.94 39.63,-41.10 41.03,-46.26 42.22,-50.55 43.41,-54.85 43.98,-57.37 44.55,-59.90 46.15,-57.97 47.74,-56.04 48.31,-53.91 48.89,-51.78 45.68,-46.77 42.47,-41.76 37.56,-34.63 32.65,-27.50 25.53,-19.41 18.40,-11.32 13.71,-6.42 9.03,-1.53 5.39,0.20 1.75,1.95 1.49,2.13 1.23,2.31 0.94,2.43 0.64,2.54 0.33,2.58 0.02,2.62 -0.29,2.59 -0.60,2.55 -0.90,2.44 -1.20,2.33 -1.46,2.15 -1.72,1.97 -1.93,1.74 -2.15,1.50 -2.29,1.22 -2.44,0.95 -2.52,0.64 -2.60,0.33 -2.60,0.02 -2.60,-0.29 -2.53,-0.60 -2.46,-0.91 -2.31,-1.19 -2.17,-1.47 -1.96,-1.71 -1.75,-1.95 -1.75,-1.95 L -1.75,-1.95 Z"/></g><g transform="translate(1547 88) rotate(0 6 8.5)" stroke="none"><path fill="#1e1e1e" d="M -1.72,-1.97 Q -1.72,-1.97 -0.21,-4.89 1.29,-7.80 4.26,-8.86 7.22,-9.93 10.21,-8.35 13.19,-6.78 14.20,-3.07 15.21,0.62 14.46,5.03 13.71,9.43 12.67,13.08 11.63,16.74 10.65,19.67 9.68,22.59 9.59,23.01 9.51,23.43 9.29,23.79 9.08,24.16 8.76,24.44 8.44,24.72 8.05,24.89 7.66,25.05 7.23,25.08 6.81,25.11 6.40,25.00 5.99,24.90 5.63,24.66 5.28,24.43 5.01,24.10 4.75,23.76 4.61,23.36 4.47,22.96 4.46,22.54 4.45,22.11 4.58,21.71 4.71,21.30 4.96,20.96 5.21,20.62 5.56,20.37 5.91,20.13 6.32,20.01 6.72,19.89 7.15,19.90 7.57,19.92 7.97,20.07 8.37,20.22 8.70,20.49 9.02,20.76 9.25,21.12 9.47,21.48 9.57,21.90 9.67,22.31 9.63,22.73 9.59,23.16 9.42,23.54 9.25,23.93 8.96,24.25 8.68,24.56 8.30,24.76 7.93,24.97 7.51,25.05 7.09,25.12 6.67,25.06 6.25,25.00 5.88,24.81 5.50,24.61 5.20,24.31 4.90,24.01 4.72,23.62 4.53,23.24 4.48,22.82 4.43,22.40 4.43,22.40 4.43,22.40 3.70,18.52 2.98,14.64 3.71,11.12 4.45,7.60 6.17,3.68 7.90,-0.24 4.81,0.86 1.72,1.97 1.46,2.15 1.20,2.33 0.90,2.44 0.61,2.55 0.29,2.59 -0.01,2.62 -0.33,2.58 -0.64,2.54 -0.93,2.43 -1.23,2.31 -1.49,2.13 -1.75,1.95 -1.96,1.71 -2.17,1.47 -2.31,1.19 -2.46,0.91 -2.53,0.60 -2.60,0.30 -2.60,-0.01 -2.60,-0.33 -2.52,-0.63 -2.45,-0.94 -2.30,-1.22 -2.15,-1.50 -1.94,-1.74 -1.72,-1.97 -1.72,-1.97 L -1.72,-1.97 Z"/></g></svg>