<svg version="1.1" xmlns="http://www.w3.org/2000/svg" viewBox="0 0 576 459" width="576" height="459" filter="invert(93%) hue-rotate(180deg)">
  <!-- svg-source:excalidraw -->
  
  <defs>
    <style class="style-fonts">
      @font-face {
        font-family: "Virgil";
        src: url("https://excalidraw.com/Virgil.woff2");
      }
      @font-face {
        font-family: "Cascadia";
        src: url("https://excalidraw.com/Cascadia.woff2");
      }
    </style>
    
  </defs>
  <rect x="0" y="0" width="576" height="459" fill="transparent"/><g transform="translate(24 11) rotate(0 264 218.5)" stroke="none"><path fill="#1e1e1e" d="M 0.18,2.61 Q 0.18,2.61 -3.78,3.59 -7.76,4.57 -9.18,4.72 -10.60,4.88 -11.09,4.85 -11.58,4.83 -12.05,4.69 -12.52,4.54 -12.94,4.30 -13.37,4.05 -13.72,3.70 -14.07,3.36 -14.33,2.94 -14.59,2.53 -14.74,2.06 -14.89,1.59 -14.92,1.10 -14.96,0.61 -14.87,0.13 -14.79,-0.34 -14.59,-0.79 -14.40,-1.24 -14.10,-1.63 -13.80,-2.02 -13.42,-2.33 -13.04,-2.64 -12.59,-2.84 -12.14,-3.05 -11.66,-3.14 -11.18,-3.24 -5.07,-3.75 1.04,-4.27 6.97,-4.63 12.89,-5.00 21.85,-5.15 30.81,-5.30 42.71,-5.08 54.61,-4.86 68.90,-4.19 83.18,-3.52 99.95,-2.08 116.72,-0.64 135.37,1.40 154.01,3.45 174.06,6.35 194.11,9.24 215.30,12.77 236.49,16.30 269.48,23.86 302.46,31.42 327.44,38.39 352.43,45.35 373.16,52.07 393.89,58.78 412.00,66.00 430.10,73.22 445.90,80.66 461.69,88.10 475.14,95.92 488.59,103.75 499.90,112.06 511.21,120.36 519.65,129.31 528.10,138.25 533.33,147.57 538.56,156.89 540.28,167.14 541.99,177.38 539.71,187.96 537.42,198.54 531.05,209.07 524.67,219.60 515.21,229.88 505.75,240.17 493.90,250.34 482.05,260.51 468.40,270.91 454.74,281.31 439.09,291.56 423.44,301.81 405.82,311.97 388.20,322.12 369.46,331.92 350.73,341.71 330.93,351.06 311.12,360.42 291.49,369.27 271.86,378.13 253.10,385.90 234.35,393.67 217.14,400.17 199.93,406.66 184.24,412.02 168.55,417.38 154.66,421.69 140.77,425.99 128.79,429.27 116.80,432.55 106.44,434.78 96.08,437.01 87.24,438.19 78.40,439.36 71.50,440.09 64.59,440.82 59.87,441.14 55.14,441.46 51.03,440.99 46.91,440.53 46.49,440.48 46.07,440.43 45.68,440.25 45.30,440.07 44.99,439.78 44.68,439.49 44.48,439.11 44.28,438.74 44.22,438.32 44.15,437.90 44.22,437.48 44.29,437.06 44.49,436.68 44.69,436.31 45.00,436.02 45.31,435.73 45.69,435.55 46.08,435.37 46.50,435.32 46.92,435.28 47.34,435.37 47.75,435.46 48.12,435.68 48.48,435.90 48.75,436.23 49.03,436.55 49.18,436.95 49.34,437.34 49.36,437.77 49.38,438.19 49.27,438.60 49.16,439.01 48.92,439.36 48.68,439.71 48.34,439.97 48.00,440.23 47.60,440.36 47.19,440.50 46.77,440.49 46.34,440.49 45.94,440.36 45.54,440.22 45.20,439.96 44.86,439.70 44.63,439.35 44.39,439.00 44.27,438.59 44.16,438.18 44.19,437.76 44.21,437.33 44.37,436.94 44.53,436.54 44.80,436.22 45.08,435.90 45.44,435.68 45.81,435.46 46.22,435.37 46.64,435.28 46.64,435.28 46.64,435.28 50.59,434.39 54.55,433.50 59.09,433.13 63.63,432.76 70.42,431.86 77.20,430.96 85.69,429.65 94.18,428.34 104.30,426.07 114.41,423.81 126.25,420.58 138.09,417.34 151.86,413.08 165.63,408.83 181.18,403.51 196.73,398.20 213.80,391.75 230.86,385.31 249.46,377.51 268.06,369.71 287.61,360.88 307.17,352.04 326.81,342.77 346.44,333.50 365.04,323.83 383.63,314.15 401.08,304.21 418.52,294.26 433.97,284.27 449.43,274.29 462.95,264.13 476.46,253.97 487.97,244.17 499.48,234.37 508.46,224.73 517.43,215.09 523.30,205.80 529.17,196.50 531.35,187.50 533.53,178.49 532.22,169.71 530.92,160.93 526.32,152.55 521.73,144.17 513.84,135.82 505.95,127.47 495.04,119.44 484.13,111.40 471.03,103.78 457.92,96.15 442.34,88.89 426.75,81.62 408.92,74.53 391.08,67.44 370.53,60.78 349.99,54.12 325.20,47.21 300.42,40.29 267.71,32.78 235.00,25.27 213.91,21.75 192.82,18.23 172.92,15.36 153.02,12.48 134.48,10.44 115.94,8.39 99.35,6.97 82.76,5.54 68.60,4.86 54.44,4.19 42.70,3.95 30.96,3.72 22.18,3.85 13.40,3.99 7.34,4.29 1.29,4.60 -2.39,4.64 -6.09,4.68 -8.35,4.78 -10.60,4.88 -11.09,4.85 -11.58,4.83 -12.05,4.69 -12.52,4.55 -12.94,4.30 -13.37,4.05 -13.72,3.70 -14.07,3.36 -14.33,2.94 -14.59,2.53 -14.74,2.06 -14.89,1.59 -14.92,1.10 -14.96,0.61 -14.87,0.13 -14.79,-0.34 -14.59,-0.79 -14.40,-1.24 -14.10,-1.63 -13.80,-2.02 -13.42,-2.33 -13.04,-2.64 -12.59,-2.84 -12.14,-3.05 -11.66,-3.14 -11.18,-3.24 -9.76,-3.33 -8.33,-3.42 -4.26,-3.02 -0.18,-2.61 0.12,-2.60 0.44,-2.58 0.74,-2.49 1.05,-2.40 1.32,-2.24 1.59,-2.08 1.82,-1.86 2.04,-1.64 2.21,-1.37 2.38,-1.10 2.48,-0.80 2.57,-0.50 2.60,-0.18 2.62,0.13 2.56,0.44 2.51,0.75 2.38,1.04 2.26,1.33 2.06,1.58 1.87,1.83 1.63,2.03 1.38,2.23 1.09,2.36 0.80,2.49 0.49,2.55 0.18,2.61 0.18,2.61 L 0.18,2.61 Z"/></g></svg>