<svg version="1.1" xmlns="http://www.w3.org/2000/svg" viewBox="0 0 563 339" width="563" height="339" filter="invert(93%) hue-rotate(180deg)">
  <!-- svg-source:excalidraw -->
  
  <defs>
    <style class="style-fonts">
      @font-face {
        font-family: "Virgil";
        src: url("https://excalidraw.com/Virgil.woff2");
      }
      @font-face {
        font-family: "Cascadia";
        src: url("https://excalidraw.com/Cascadia.woff2");
      }
    </style>
    
  </defs>
  <rect x="0" y="0" width="563" height="339" fill="transparent"/><g stroke-linecap="round" transform="translate(10 10) rotate(0 271.5 159.5)"><path d="M376.61 12.58 C399.09 14.99, 419.23 24.17, 437.79 32.54 C456.35 40.92, 473.82 51.89, 487.98 62.82 C502.15 73.75, 514.04 85.42, 522.77 98.14 C531.5 110.86, 537.24 125.28, 540.36 139.12 C543.49 152.97, 544.51 167.64, 541.54 181.19 C538.57 194.75, 531.66 207.88, 522.54 220.46 C513.41 233.03, 501.27 245.55, 486.8 256.63 C472.33 267.7, 454.49 278.54, 435.72 286.93 C416.96 295.33, 395.62 302.04, 374.2 307 C352.79 311.96, 330.38 315.04, 307.25 316.7 C284.13 318.37, 258.76 318.5, 235.45 317 C212.15 315.49, 189.12 312.82, 167.42 307.66 C145.73 302.5, 124.01 294.53, 105.3 286.03 C86.59 277.53, 69.28 267.68, 55.16 256.68 C41.04 245.67, 29.24 232.81, 20.55 220 C11.86 207.2, 6.15 193.51, 3.02 179.85 C-0.12 166.19, -1.13 151.7, 1.73 138.04 C4.59 124.38, 11.15 110.44, 20.18 97.89 C29.22 85.35, 41.72 73.49, 55.97 62.77 C70.21 52.06, 86.85 42.16, 105.63 33.61 C124.41 25.06, 146.86 16.89, 168.66 11.47 C190.46 6.04, 213.49 2.74, 236.44 1.09 C259.39 -0.57, 279.83 -1.2, 306.37 1.55 C332.91 4.3, 377.7 13.16, 395.67 17.6 C413.63 22.04, 416.13 25.87, 414.17 28.2 M342.15 6.12 C364.45 6.74, 386.24 13.89, 406.4 20.55 C426.55 27.2, 446.52 36.12, 463.09 46.06 C479.66 56, 494.21 68.05, 505.83 80.18 C517.45 92.3, 526.77 105.41, 532.82 118.83 C538.88 132.25, 541.88 146.99, 542.16 160.68 C542.44 174.37, 540.16 187.94, 534.52 200.98 C528.88 214.01, 519.87 227.16, 508.31 238.91 C496.74 250.65, 481.88 261.65, 465.15 271.47 C448.42 281.29, 428.26 290.89, 407.9 297.83 C387.53 304.78, 365.59 309.64, 342.97 313.14 C320.34 316.64, 295.83 318.79, 272.17 318.82 C248.51 318.85, 223.63 317.07, 200.99 313.31 C178.36 309.56, 156.54 303.29, 136.34 296.29 C116.15 289.28, 96.29 280.53, 79.8 271.28 C63.31 262.03, 49.04 252.7, 37.39 240.79 C25.74 228.88, 16.17 213.13, 9.9 199.82 C3.63 186.52, -0.33 174.63, -0.23 160.95 C-0.13 147.27, 4.51 131.44, 10.52 117.75 C16.52 104.06, 24.21 90.73, 35.79 78.82 C47.37 66.9, 63.38 55.61, 80 46.25 C96.61 36.88, 115.43 29.57, 135.48 22.61 C155.54 15.66, 177.8 8.51, 200.33 4.5 C222.86 0.48, 247.3 -1.72, 270.68 -1.47 C294.07 -1.22, 329.13 4.38, 340.64 5.99 C352.15 7.61, 340.58 5.98, 339.74 8.21" stroke="#1e1e1e" stroke-width="2" fill="none"/></g></svg>