<svg version="1.1" xmlns="http://www.w3.org/2000/svg" viewBox="0 0 795.5484797067597 391" width="795.5484797067597" height="391" filter="invert(93%) hue-rotate(180deg)">
  <!-- svg-source:excalidraw -->
  
  <defs>
    <style class="style-fonts">
      @font-face {
        font-family: "Virgil";
        src: url("https://excalidraw.com/Virgil.woff2");
      }
      @font-face {
        font-family: "Cascadia";
        src: url("https://excalidraw.com/Cascadia.woff2");
      }
    </style>
    
  </defs>
  <rect x="0" y="0" width="795.5484797067597" height="391" fill="transparent"/><g stroke-linecap="round" transform="translate(10 17.2421875) rotate(0 178 178)"><path d="M202.76 2.46 C218.81 1.95, 236.35 8.63, 251.77 15.6 C267.19 22.57, 282.58 33.23, 295.28 44.27 C307.98 55.31, 319.03 68.03, 327.97 81.86 C336.9 95.69, 344.29 111.26, 348.87 127.22 C353.46 143.19, 355.53 160.71, 355.47 177.66 C355.41 194.6, 353.1 212.81, 348.51 228.92 C343.92 245.02, 337.09 260.33, 327.92 274.27 C318.75 288.21, 306.06 301.74, 293.5 312.56 C280.93 323.37, 267.71 332.25, 252.54 339.17 C237.37 346.09, 219.17 351.48, 202.45 354.06 C185.73 356.64, 168.48 357.06, 152.21 354.65 C135.95 352.23, 120.07 346.77, 104.85 339.57 C89.63 332.38, 73.56 322.31, 60.89 311.49 C48.21 300.66, 37.86 288.65, 28.8 274.63 C19.74 260.61, 11.33 243.52, 6.54 227.37 C1.74 211.22, -0.02 194.33, 0.05 177.71 C0.12 161.1, 2.09 143.84, 6.98 127.67 C11.86 111.49, 20.27 94.61, 29.35 80.65 C38.42 66.69, 48.88 54.7, 61.42 43.91 C73.96 33.11, 89.27 22.74, 104.61 15.88 C119.95 9.01, 134.99 4.67, 153.47 2.7 C171.95 0.73, 203.2 2.71, 215.5 4.06 C227.79 5.42, 227.79 8.06, 227.24 10.86 M136.87 5.48 C151.96 -1.03, 171.1 -0.73, 187.85 -0.07 C204.61 0.59, 221.71 3.8, 237.41 9.44 C253.11 15.09, 268.5 23.75, 282.07 33.8 C295.63 43.86, 308.57 56.68, 318.8 69.79 C329.02 82.9, 337.14 97.25, 343.39 112.48 C349.64 127.71, 354.89 144.61, 356.29 161.18 C357.69 177.74, 355.22 195.35, 351.8 211.85 C348.39 228.35, 343.47 244.98, 335.79 260.15 C328.1 275.33, 317.48 290.92, 305.69 302.9 C293.89 314.89, 279.59 324.02, 265.02 332.08 C250.44 340.15, 234.56 347.53, 218.23 351.28 C201.91 355.02, 183.39 355.47, 167.06 354.55 C150.73 353.62, 135.62 350.96, 120.26 345.73 C104.89 340.49, 88.58 332.98, 74.86 323.13 C61.14 313.28, 48.1 299.95, 37.93 286.64 C27.76 273.33, 19.81 258.86, 13.85 243.25 C7.89 227.64, 3.98 209.64, 2.16 192.98 C0.34 176.32, -0.17 159.64, 2.96 143.29 C6.08 126.94, 13.09 109.92, 20.91 94.9 C28.73 79.87, 38.51 65.15, 49.85 53.13 C61.2 41.12, 74.52 30.9, 88.98 22.81 C103.43 14.71, 128.28 7.22, 136.59 4.58 C144.9 1.95, 137.98 4.26, 138.83 6.98" stroke="#1e1e1e" stroke-width="2" fill="none"/></g><g stroke-linecap="round"><g transform="translate(473.125 23.5) rotate(0 57 168.25)"><path d="M-0.55 0.94 C18.17 56.83, 93.74 280.33, 112.97 336.12 M1.36 0.38 C20.38 56.38, 96.29 281.43, 115.14 337.45" stroke="#1e1e1e" stroke-width="2" fill="none"/></g></g><mask/><g stroke-linecap="round"><g transform="translate(450.625 375) rotate(0 69.5 -177.75)"><path d="M0.15 -0.49 C23.1 -59.74, 115.46 -296.96, 138.53 -355.99 M-1.22 -1.79 C21.45 -60.83, 114.21 -295.58, 137.34 -354.72" stroke="#1e1e1e" stroke-width="2" fill="none"/></g></g><mask/><g stroke-linecap="round"><g transform="translate(472.625 72) rotate(0 63 0.5)"><path d="M-0.08 -0.02 C20.92 0.18, 104.91 0.93, 125.94 1.09 M0.15 -0.16 C21.13 0.01, 104.82 0.66, 125.79 0.88" stroke="#e03131" stroke-width="1" fill="none"/></g></g><mask/><g transform="translate(602.625 89) rotate(0 -9 14)" stroke="none"><path fill="#e03131" d="M -1.29,0.21 Q -1.29,0.21 -1.85,-0.57 -2.41,-1.35 -3.24,-2.13 -4.07,-2.91 -5.75,-1.32 -7.43,0.26 -8.63,1.71 -9.82,3.16 -11.01,5.00 -12.20,6.85 -13.25,9.00 -14.30,11.15 -15.33,13.50 -16.35,15.86 -17.05,17.94 -17.75,20.01 -18.19,21.83 -18.62,23.65 -18.66,25.67 -18.71,27.70 -18.49,28.82 -18.27,29.94 -16.71,30.00 -15.14,30.07 -13.80,29.61 -12.45,29.16 -10.99,28.31 -9.53,27.47 -8.29,26.34 -7.05,25.21 -5.80,23.88 -4.55,22.55 -3.51,21.07 -2.48,19.59 -1.81,18.08 -1.15,16.57 -0.57,14.94 0.00,13.30 0.32,11.03 0.64,8.76 0.64,7.16 0.64,5.57 0.34,3.90 0.05,2.23 -0.82,3.50 -1.70,4.78 -1.22,6.17 -0.75,7.57 0.52,8.33 1.80,9.09 1.99,9.17 2.19,9.26 2.34,9.40 2.50,9.55 2.60,9.73 2.71,9.92 2.74,10.13 2.78,10.33 2.75,10.54 2.72,10.75 2.63,10.94 2.53,11.13 2.38,11.28 2.23,11.43 2.04,11.53 1.85,11.62 1.64,11.65 1.42,11.67 1.22,11.63 1.01,11.59 0.82,11.48 0.64,11.38 0.50,11.22 0.36,11.06 0.28,10.86 0.19,10.67 0.18,10.46 0.16,10.24 0.21,10.04 0.27,9.83 0.38,9.65 0.50,9.48 0.67,9.34 0.83,9.21 1.03,9.14 1.23,9.07 1.44,9.06 1.66,9.06 1.86,9.12 2.06,9.19 2.23,9.31 2.41,9.44 2.53,9.61 2.65,9.79 2.71,9.99 2.77,10.19 2.77,10.41 2.76,10.62 2.68,10.82 2.61,11.02 2.47,11.18 2.34,11.34 2.16,11.46 1.98,11.57 1.77,11.62 1.57,11.67 1.35,11.65 1.14,11.63 1.14,11.63 1.14,11.63 -1.18,10.77 -3.51,9.91 -4.55,8.51 -5.58,7.10 -5.66,5.47 -5.74,3.83 -5.49,2.79 -5.25,1.75 -4.65,0.59 -4.05,-0.56 -2.70,-1.48 -1.35,-2.41 -0.21,-2.49 0.92,-2.57 2.38,-1.57 3.84,-0.57 4.42,1.20 4.99,2.98 5.13,4.31 5.27,5.64 5.21,7.57 5.15,9.50 4.66,12.14 4.17,14.78 3.52,16.59 2.87,18.41 1.99,20.27 1.11,22.13 -0.12,23.85 -1.36,25.57 -2.76,27.03 -4.15,28.49 -5.77,29.88 -7.38,31.27 -9.24,32.29 -11.10,33.30 -12.85,33.84 -14.60,34.38 -16.29,34.50 -17.99,34.61 -19.42,33.98 -20.85,33.35 -21.68,32.14 -22.50,30.94 -22.82,29.28 -23.14,27.62 -23.08,25.13 -23.02,22.63 -22.55,20.60 -22.07,18.56 -21.30,16.30 -20.54,14.03 -19.47,11.58 -18.40,9.13 -17.22,6.75 -16.04,4.36 -14.69,2.30 -13.34,0.24 -11.95,-1.41 -10.56,-3.07 -9.47,-4.08 -8.38,-5.10 -7.44,-5.79 -6.49,-6.48 -5.37,-6.84 -4.25,-7.19 -2.72,-6.79 -1.19,-6.40 -0.25,-5.57 0.68,-4.75 1.26,-3.42 1.83,-2.09 1.56,-1.15 1.29,-0.21 1.30,-0.05 1.30,0.10 1.27,0.25 1.24,0.41 1.18,0.55 1.11,0.69 1.01,0.82 0.91,0.94 0.78,1.03 0.66,1.13 0.51,1.19 0.37,1.25 0.21,1.28 0.05,1.31 -0.09,1.29 -0.25,1.28 -0.40,1.23 -0.55,1.18 -0.69,1.10 -0.82,1.02 -0.93,0.90 -1.04,0.79 -1.12,0.65 -1.20,0.51 -1.25,0.36 -1.29,0.21 -1.29,0.21 L -1.29,0.21 Z"/></g><g transform="translate(533.125 348.5) rotate(0 -6.75 15)" stroke="none"><path fill="#1e1e1e" d="M 0.99,0.85 Q 0.99,0.85 0.42,2.10 -0.15,3.36 -0.90,4.35 -1.65,5.33 -2.35,6.43 -3.05,7.52 -3.96,8.78 -4.88,10.05 -5.99,11.46 -7.10,12.88 -8.29,14.34 -9.48,15.80 -10.86,17.43 -12.23,19.07 -13.89,20.70 -15.56,22.33 -17.27,23.88 -18.98,25.43 -20.58,26.82 -22.17,28.20 -23.58,29.37 -24.98,30.55 -26.44,31.43 -27.89,32.31 -28.87,32.90 -29.85,33.49 -31.82,33.85 -33.78,34.21 -35.39,32.79 -36.99,31.36 -37.21,30.22 -37.42,29.08 -37.47,27.74 -37.52,26.40 -37.39,25.01 -37.26,23.62 -37.05,22.32 -36.84,21.01 -36.43,19.74 -36.01,18.47 -35.16,16.66 -34.30,14.86 -33.43,14.17 -32.56,13.47 -30.75,12.84 -28.94,12.21 -27.75,12.47 -26.57,12.72 -25.46,13.13 -24.35,13.54 -23.08,14.20 -21.81,14.86 -20.51,15.77 -19.20,16.67 -17.78,17.79 -16.37,18.92 -15.07,19.97 -13.78,21.02 -12.41,22.02 -11.03,23.02 -9.10,24.16 -7.16,25.29 -5.63,26.07 -4.10,26.84 -2.82,27.30 -1.53,27.75 -0.24,27.93 1.05,28.11 2.16,27.92 3.28,27.72 4.72,27.24 6.17,26.75 7.57,25.98 8.96,25.21 11.14,23.29 13.31,21.38 14.77,19.77 16.24,18.15 17.05,16.72 17.87,15.29 18.30,13.93 18.74,12.56 19.05,11.14 19.36,9.73 19.31,8.61 19.26,7.48 19.11,6.32 18.97,5.16 18.25,3.83 17.54,2.50 16.37,1.56 15.19,0.62 13.86,0.30 12.54,-0.02 10.78,0.21 9.02,0.45 6.94,0.93 4.87,1.41 3.85,1.78 2.84,2.15 1.72,2.67 0.59,3.20 -0.45,3.78 -1.51,4.35 -3.05,5.23 -4.59,6.11 -4.78,6.20 -4.97,6.30 -5.18,6.32 -5.39,6.35 -5.60,6.31 -5.81,6.27 -6.00,6.16 -6.18,6.05 -6.32,5.90 -6.46,5.74 -6.54,5.54 -6.62,5.34 -6.64,5.13 -6.65,4.92 -6.60,4.71 -6.55,4.51 -6.43,4.33 -6.32,4.15 -6.15,4.02 -5.98,3.89 -5.78,3.82 -5.58,3.75 -5.37,3.74 -5.16,3.74 -4.96,3.80 -4.75,3.87 -4.58,3.99 -4.41,4.12 -4.29,4.29 -4.17,4.47 -4.10,4.67 -4.04,4.87 -4.05,5.09 -4.06,5.30 -4.13,5.50 -4.21,5.70 -4.34,5.86 -4.48,6.02 -4.66,6.14 -4.84,6.25 -5.05,6.30 -5.25,6.35 -5.46,6.33 -5.68,6.31 -5.87,6.22 -6.06,6.14 -6.22,5.99 -6.38,5.85 -6.48,5.67 -6.58,5.48 -6.62,5.27 -6.66,5.06 -6.63,4.85 -6.60,4.64 -6.50,4.45 -6.41,4.26 -6.25,4.11 -6.10,3.96 -6.10,3.96 -6.10,3.96 -4.70,2.77 -3.30,1.58 -2.21,0.77 -1.12,-0.04 0.09,-0.76 1.32,-1.47 2.45,-2.00 3.58,-2.53 4.84,-3.00 6.11,-3.47 7.22,-3.72 8.33,-3.97 9.55,-4.17 10.77,-4.36 12.01,-4.43 13.26,-4.50 14.47,-4.27 15.68,-4.03 17.60,-2.90 19.52,-1.78 20.34,-1.01 21.16,-0.24 21.91,0.85 22.66,1.95 23.04,3.31 23.43,4.67 23.55,6.10 23.68,7.53 23.59,9.14 23.51,10.74 23.06,12.35 22.62,13.96 21.95,15.66 21.28,17.35 20.17,19.08 19.07,20.80 17.36,22.54 15.66,24.28 13.08,26.21 10.50,28.13 8.83,28.95 7.17,29.77 5.46,30.32 3.76,30.86 2.20,31.07 0.64,31.28 -0.96,31.06 -2.57,30.84 -4.07,30.35 -5.57,29.85 -7.22,29.08 -8.86,28.30 -11.00,27.14 -13.14,25.98 -14.61,24.95 -16.07,23.92 -17.38,22.92 -18.70,21.91 -20.04,20.89 -21.38,19.87 -22.50,19.12 -23.62,18.37 -24.68,17.84 -25.74,17.31 -27.52,16.77 -29.31,16.23 -30.40,17.11 -31.48,17.99 -32.10,19.83 -32.72,21.66 -32.91,22.85 -33.09,24.03 -33.20,25.12 -33.30,26.21 -32.76,27.94 -32.22,29.67 -31.22,29.03 -30.23,28.38 -29.06,27.70 -27.90,27.03 -26.53,25.89 -25.16,24.75 -23.60,23.40 -22.04,22.06 -20.39,20.56 -18.74,19.07 -17.23,17.60 -15.71,16.13 -14.35,14.52 -13.00,12.92 -11.81,11.48 -10.63,10.05 -9.54,8.71 -8.45,7.38 -7.56,6.23 -6.67,5.08 -5.82,3.89 -4.98,2.69 -4.14,1.68 -3.29,0.66 -2.14,-0.09 -0.99,-0.85 -0.88,-0.96 -0.76,-1.06 -0.62,-1.14 -0.48,-1.22 -0.33,-1.26 -0.17,-1.30 -0.02,-1.30 0.13,-1.30 0.29,-1.27 0.44,-1.23 0.58,-1.16 0.72,-1.09 0.84,-0.98 0.96,-0.88 1.06,-0.75 1.15,-0.62 1.21,-0.48 1.26,-0.33 1.29,-0.17 1.31,-0.02 1.29,0.13 1.28,0.29 1.22,0.44 1.17,0.59 1.08,0.72 0.99,0.85 0.99,0.85 L 0.99,0.85 Z"/></g><g transform="translate(541.625 19) rotate(0 -4.25 8.25)" stroke="none"><path fill="#1e1e1e" d="M 1.13,0.66 Q 1.13,0.66 0.50,2.60 -0.11,4.55 -1.15,6.08 -2.18,7.61 -3.21,8.99 -4.23,10.36 -5.24,11.66 -6.25,12.97 -7.25,14.24 -8.26,15.51 -9.45,16.83 -10.65,18.15 -12.06,19.47 -13.48,20.79 -14.86,21.82 -16.25,22.86 -17.38,23.70 -18.50,24.54 -19.65,25.22 -20.79,25.91 -22.63,26.53 -24.47,27.15 -25.58,26.67 -26.70,26.18 -27.21,25.08 -27.72,23.97 -27.82,22.49 -27.93,21.01 -27.66,19.10 -27.39,17.20 -26.99,15.14 -26.59,13.08 -26.13,10.91 -25.68,8.75 -25.20,6.79 -24.73,4.83 -24.22,3.23 -23.72,1.62 -23.20,0.32 -22.67,-0.97 -22.00,-2.46 -21.32,-3.95 -20.20,-5.11 -19.07,-6.27 -17.47,-6.15 -15.87,-6.02 -14.62,-4.37 -13.37,-2.71 -12.84,-1.57 -12.31,-0.42 -11.74,0.47 -11.16,1.38 -10.55,2.63 -9.94,3.88 -9.40,5.13 -8.86,6.38 -8.35,7.63 -7.84,8.88 -7.27,9.86 -6.70,10.84 -5.41,12.40 -4.11,13.97 -2.80,14.79 -1.50,15.62 0.28,15.99 2.06,16.37 3.95,15.98 5.83,15.59 6.95,15.18 8.07,14.76 8.99,14.21 9.91,13.66 11.19,12.41 12.48,11.16 13.47,9.79 14.46,8.42 14.73,6.29 14.99,4.17 14.93,3.07 14.87,1.98 14.59,0.93 14.31,-0.11 13.39,-1.97 12.47,-3.83 11.31,-4.82 10.15,-5.82 8.44,-6.05 6.74,-6.27 4.72,-5.56 2.70,-4.85 1.49,-4.29 0.28,-3.73 -0.75,-3.06 -1.79,-2.39 -3.14,-1.28 -4.48,-0.18 -4.65,-0.05 -4.82,0.07 -5.02,0.14 -5.22,0.20 -5.44,0.20 -5.65,0.20 -5.85,0.13 -6.05,0.06 -6.22,-0.06 -6.39,-0.19 -6.51,-0.36 -6.62,-0.54 -6.68,-0.75 -6.74,-0.95 -6.72,-1.16 -6.71,-1.38 -6.63,-1.57 -6.55,-1.77 -6.41,-1.93 -6.27,-2.09 -6.09,-2.20 -5.91,-2.31 -5.70,-2.35 -5.49,-2.40 -5.28,-2.37 -5.07,-2.35 -4.88,-2.26 -4.69,-2.17 -4.53,-2.02 -4.38,-1.87 -4.28,-1.69 -4.18,-1.50 -4.15,-1.29 -4.12,-1.08 -4.15,-0.87 -4.19,-0.66 -4.29,-0.47 -4.39,-0.28 -4.54,-0.14 -4.70,0.00 -4.89,0.08 -5.09,0.17 -5.30,0.19 -5.51,0.22 -5.72,0.17 -5.92,0.12 -6.10,0.01 -6.29,-0.09 -6.42,-0.25 -6.56,-0.42 -6.64,-0.61 -6.71,-0.81 -6.72,-1.02 -6.73,-1.24 -6.68,-1.44 -6.62,-1.64 -6.50,-1.82 -6.38,-1.99 -6.38,-1.99 -6.38,-1.99 -5.16,-3.56 -3.93,-5.14 -2.76,-6.18 -1.60,-7.23 -0.32,-8.00 0.95,-8.77 2.37,-9.41 3.80,-10.05 5.27,-10.37 6.75,-10.69 8.26,-10.62 9.77,-10.56 11.09,-10.10 12.40,-9.64 13.56,-8.88 14.72,-8.11 15.52,-7.09 16.32,-6.07 17.00,-4.85 17.68,-3.63 18.13,-2.39 18.58,-1.14 18.91,0.33 19.24,1.82 19.27,3.29 19.29,4.77 19.01,6.55 18.73,8.33 18.34,9.55 17.96,10.78 16.75,12.37 15.55,13.97 14.74,14.80 13.94,15.63 12.92,16.38 11.90,17.14 10.66,17.81 9.43,18.49 8.19,18.92 6.96,19.35 5.67,19.71 4.38,20.06 2.99,20.14 1.61,20.22 0.29,20.04 -1.01,19.87 -2.07,19.51 -3.13,19.15 -4.24,18.60 -5.35,18.06 -6.20,17.34 -7.05,16.62 -7.83,15.76 -8.61,14.90 -9.41,13.90 -10.20,12.91 -10.93,11.69 -11.66,10.47 -12.17,9.25 -12.68,8.04 -13.19,6.87 -13.70,5.70 -14.20,4.64 -14.71,3.59 -15.41,2.45 -16.11,1.31 -16.82,-0.43 -17.54,-2.18 -18.16,-0.79 -18.79,0.60 -19.26,1.75 -19.73,2.90 -20.21,4.37 -20.69,5.84 -21.17,7.72 -21.66,9.60 -22.12,11.73 -22.57,13.87 -22.96,15.84 -23.36,17.81 -23.22,19.99 -23.08,22.17 -22.13,21.57 -21.17,20.97 -20.04,20.12 -18.92,19.28 -17.72,18.39 -16.53,17.50 -15.24,16.31 -13.96,15.13 -12.87,13.93 -11.78,12.73 -10.78,11.48 -9.78,10.22 -8.79,8.95 -7.80,7.68 -6.82,6.38 -5.84,5.09 -4.87,3.71 -3.90,2.34 -2.52,0.84 -1.13,-0.66 -1.03,-0.78 -0.94,-0.91 -0.82,-1.01 -0.69,-1.11 -0.55,-1.18 -0.41,-1.24 -0.25,-1.27 -0.09,-1.30 0.05,-1.30 0.21,-1.29 0.36,-1.25 0.52,-1.20 0.65,-1.12 0.79,-1.04 0.90,-0.93 1.02,-0.82 1.10,-0.69 1.18,-0.55 1.23,-0.40 1.28,-0.25 1.29,-0.09 1.31,0.05 1.28,0.21 1.25,0.37 1.19,0.51 1.13,0.66 1.13,0.66 L 1.13,0.66 Z"/></g><g stroke-linecap="round"><g transform="translate(714.125 26) rotate(0 1.25 172.5)"><path d="M0.14 0.15 C0.52 57.61, 1.96 287.38, 2.37 344.85 M0.03 0.09 C0.45 57.56, 2.22 287.46, 2.65 344.97" stroke="#1e1e1e" stroke-width="2" fill="none"/></g></g><mask/><g stroke-linecap="round"><g transform="translate(780.125 31) rotate(0 2.75 172)"><path d="M-0.07 -0.12 C0.84 57.22, 4.48 286.66, 5.42 344.01 M0.19 0.17 C1.07 57.53, 4.38 286.89, 5.26 344.22" stroke="#1e1e1e" stroke-width="2" fill="none"/></g></g><mask/><g stroke-linecap="round"><g transform="translate(634.1948474778175 78.03527242170162) rotate(0 63 0.5)"><path d="M0.09 0.06 C21.07 0.22, 105.03 0.91, 126.02 1.06 M-0.04 -0.04 C20.91 0.07, 104.92 0.64, 125.92 0.82" stroke="#e03131" stroke-width="1" fill="none"/></g></g><mask/></svg>