<?xml version="1.0" encoding="UTF-8"?>
<!-- 2022-01-28 13:15:56 Generated by QCAD 3.27.1 SVG Exporter -->
<svg width="73.1252mm" height="69.375mm" viewBox="-13.1252 -48.125 73.1252 69.375" version="1.1" xmlns="http://www.w3.org/2000/svg" style="stroke-linecap:round;stroke-linejoin:round;fill:none">
    <g transform="scale(1,-1)">
        <!-- Line -->
        <path d="M0,20 L30,20 " style="stroke:#000000;stroke-width:0.25;"/>
        <!-- Line -->
        <path d="M30,20 L30,30 " style="stroke:#000000;stroke-width:0.25;"/>
        <!-- Line -->
        <path d="M30,30 L0,30 " style="stroke:#000000;stroke-width:0.25;"/>
        <!-- Line -->
        <path d="M0,30 L0,20 " style="stroke:#000000;stroke-width:0.25;"/>
        <!-- Line -->
        <path d="M5,40 L10,40 " style="stroke:#000000;stroke-width:0.25;"/>
        <!-- Line -->
        <path d="M10,40 L10,30 " style="stroke:#000000;stroke-width:0.25;"/>
        <!-- Line -->
        <path d="M10,30 L5,30 " style="stroke:#000000;stroke-width:0.25;"/>
        <!-- Line -->
        <path d="M5,30 L5,40 " style="stroke:#000000;stroke-width:0.25;"/>
        <!-- Line -->
        <path d="M20,40 L25,40 " style="stroke:#000000;stroke-width:0.25;"/>
        <!-- Line -->
        <path d="M25,40 L25,30 " style="stroke:#000000;stroke-width:0.25;"/>
        <!-- Line -->
        <path d="M25,30 L20,30 " style="stroke:#000000;stroke-width:0.25;"/>
        <!-- Line -->
        <path d="M20,30 L20,40 " style="stroke:#000000;stroke-width:0.25;"/>
        <!-- Line -->
        <path d="M13,20 L17,20 " style="stroke:#000000;stroke-width:0.25;"/>
        <!-- Line -->
        <path d="M17,20 L17,10 " style="stroke:#000000;stroke-width:0.25;"/>
        <!-- Line -->
        <path d="M17,10 L13,10 " style="stroke:#000000;stroke-width:0.25;"/>
        <!-- Line -->
        <path d="M13,10 L13,20 " style="stroke:#000000;stroke-width:0.25;"/>
        <!-- Line -->
        <path d="M40,20 L60,20 " style="stroke:#000000;stroke-width:0.25;"/>
        <!-- Line -->
        <path d="M60,20 L60,30 " style="stroke:#000000;stroke-width:0.25;"/>
        <!-- Line -->
        <path d="M60,30 L40,30 " style="stroke:#000000;stroke-width:0.25;"/>
        <!-- Line -->
        <path d="M40,30 L40,20 " style="stroke:#000000;stroke-width:0.25;"/>
        <!-- Line -->
        <path d="M48,40 L52,40 " style="stroke:#000000;stroke-width:0.25;"/>
        <!-- Line -->
        <path d="M52,40 L52,30 " style="stroke:#000000;stroke-width:0.25;"/>
        <!-- Line -->
        <path d="M52,30 L48,30 " style="stroke:#000000;stroke-width:0.25;"/>
        <!-- Line -->
        <path d="M48,30 L48,40 " style="stroke:#000000;stroke-width:0.25;"/>
        <!-- Line -->
        <path d="M48,20 L52,20 " style="stroke:#000000;stroke-width:0.25;"/>
        <!-- Line -->
        <path d="M52,20 L52,10 " style="stroke:#000000;stroke-width:0.25;"/>
        <!-- Line -->
        <path d="M52,10 L48,10 " style="stroke:#000000;stroke-width:0.25;"/>
        <!-- Line -->
        <path d="M48,10 L48,20 " style="stroke:#000000;stroke-width:0.25;"/>
        <!-- Line -->
        <path d="M0,0 L30,0 " style="stroke:#000000;stroke-width:0.25;"/>
        <!-- Line -->
        <path d="M30,0 L30,-10 " style="stroke:#000000;stroke-width:0.25;"/>
        <!-- Line -->
        <path d="M30,-10 L0,-10 " style="stroke:#000000;stroke-width:0.25;"/>
        <!-- Line -->
        <path d="M0,-10 L0,0 " style="stroke:#000000;stroke-width:0.25;"/>
        <!-- Line -->
        <path d="M-3,-5 L-2.4,-5 M-2.25,-5 L-2.25,-5 M-2.1,-5 L-0.9,-5 M-0.75,-5 L-0.75,-5 M-0.6,-5 L0.6,-5 M0.75,-5 L0.75,-5 M0.9,-5 L2.1,-5 M2.25,-5 L2.25,-5 M2.4,-5 L3.6,-5 M3.75,-5 L3.75,-5 M3.9,-5 L5.1,-5 M5.25,-5 L5.25,-5 M5.4,-5 L6.6,-5 M6.75,-5 L6.75,-5 M6.9,-5 L8.1,-5 M8.25,-5 L8.25,-5 M8.4,-5 L9.6,-5 M9.75,-5 L9.75,-5 M9.9,-5 L11.1,-5 M11.25,-5 L11.25,-5 M11.4,-5 L12.6,-5 M12.75,-5 L12.75,-5 M12.9,-5 L14.1,-5 M14.25,-5 L14.25,-5 M14.4,-5 L15.6,-5 M15.75,-5 L15.75,-5 M15.9,-5 L17.1,-5 M17.25,-5 L17.25,-5 M17.4,-5 L18.6,-5 M18.75,-5 L18.75,-5 M18.9,-5 L20.1,-5 M20.25,-5 L20.25,-5 M20.4,-5 L21.6,-5 M21.75,-5 L21.75,-5 M21.9,-5 L23.1,-5 M23.25,-5 L23.25,-5 M23.4,-5 L24.6,-5 M24.75,-5 L24.75,-5 M24.9,-5 L26.1,-5 M26.25,-5 L26.25,-5 M26.4,-5 L27.6,-5 M27.75,-5 L27.75,-5 M27.9,-5 L29.1,-5 M29.25,-5 L29.25,-5 M29.4,-5 L30.6,-5 M30.75,-5 L30.75,-5 M30.9,-5 L32.1,-5 M32.25,-5 L32.25,-5 M32.4,-5 L33,-5 " style="stroke:#000000;stroke-width:0.05;"/>
        <!-- Line -->
        <path d="M7.5723,28.486 L7.5738,29.4277 M7.5741,29.5777 L7.5741,29.5777 M7.5743,29.7277 L7.5762,30.9277 M7.5765,31.0777 L7.5765,31.0777 M7.5767,31.2277 L7.5786,32.4277 M7.5789,32.5777 L7.5789,32.5777 M7.5791,32.7277 L7.581,33.9277 M7.5813,34.0777 L7.5813,34.0777 M7.5815,34.2277 L7.5834,35.4277 M7.5837,35.5777 L7.5837,35.5777 M7.5839,35.7277 L7.5858,36.9277 M7.5861,37.0777 L7.5861,37.0777 M7.5863,37.2277 L7.5882,38.4277 M7.5885,38.5777 L7.5885,38.5777 M7.5887,38.7277 L7.5906,39.9277 M7.5909,40.0777 L7.5909,40.0777 M7.5911,40.2277 L7.5926,41.1693 " style="stroke:#000000;stroke-width:0.05;"/>
        <!-- Line -->
        <path d="M22.5399,28.3693 L22.5414,29.3109 M22.5417,29.4609 L22.5417,29.4609 M22.5419,29.6109 L22.5438,30.8109 M22.5441,30.9609 L22.5441,30.9609 M22.5443,31.1109 L22.5462,32.3109 M22.5465,32.4609 L22.5465,32.4609 M22.5467,32.6109 L22.5486,33.8109 M22.5489,33.9609 L22.5489,33.9609 M22.5491,34.1109 L22.551,35.3109 M22.5513,35.4609 L22.5513,35.4609 M22.5515,35.6109 L22.5534,36.8109 M22.5537,36.9609 L22.5537,36.9609 M22.5539,37.1109 L22.5558,38.3109 M22.5561,38.4609 L22.5561,38.4609 M22.5563,38.6109 L22.5582,39.8109 M22.5585,39.9609 L22.5585,39.9609 M22.5587,40.1109 L22.5602,41.0525 " style="stroke:#000000;stroke-width:0.05;"/>
        <!-- Line -->
        <path d="M49.9898,28.6584 L49.9913,29.6 M49.9916,29.75 L49.9916,29.75 M49.9918,29.9 L49.9938,31.1 M49.994,31.25 L49.994,31.25 M49.9942,31.4 L49.9962,32.6 M49.9964,32.75 L49.9964,32.75 M49.9966,32.9 L49.9986,34.1 M49.9988,34.25 L49.9988,34.25 M49.999,34.4 L50.001,35.6 M50.0012,35.75 L50.0012,35.75 M50.0014,35.9 L50.0034,37.1 M50.0036,37.25 L50.0036,37.25 M50.0038,37.4 L50.0058,38.6 M50.006,38.75 L50.006,38.75 M50.0062,38.9 L50.0082,40.1 M50.0084,40.25 L50.0084,40.25 M50.0087,40.4 L50.0102,41.3416 " style="stroke:#000000;stroke-width:0.05;"/>
        <!-- Line -->
        <path d="M49.9898,8.6584 L49.9913,9.6 M49.9916,9.75 L49.9916,9.75 M49.9918,9.9 L49.9938,11.1 M49.994,11.25 L49.994,11.25 M49.9942,11.4 L49.9962,12.6 M49.9964,12.75 L49.9964,12.75 M49.9966,12.9 L49.9986,14.1 M49.9988,14.25 L49.9988,14.25 M49.999,14.4 L50.001,15.6 M50.0012,15.75 L50.0012,15.75 M50.0014,15.9 L50.0034,17.1 M50.0036,17.25 L50.0036,17.25 M50.0038,17.4 L50.0058,18.6 M50.006,18.75 L50.006,18.75 M50.0062,18.9 L50.0082,20.1 M50.0084,20.25 L50.0084,20.25 M50.0087,20.4 L50.0102,21.3416 " style="stroke:#000000;stroke-width:0.05;"/>
        <!-- Line -->
        <path d="M14.9898,8.6584 L14.9913,9.6 M14.9916,9.75 L14.9916,9.75 M14.9918,9.9 L14.9938,11.1 M14.994,11.25 L14.994,11.25 M14.9942,11.4 L14.9962,12.6 M14.9964,12.75 L14.9964,12.75 M14.9966,12.9 L14.9986,14.1 M14.9988,14.25 L14.9988,14.25 M14.999,14.4 L15.001,15.6 M15.0012,15.75 L15.0012,15.75 M15.0014,15.9 L15.0034,17.1 M15.0036,17.25 L15.0036,17.25 M15.0038,17.4 L15.0058,18.6 M15.006,18.75 L15.006,18.75 M15.0062,18.9 L15.0082,20.1 M15.0084,20.25 L15.0084,20.25 M15.0087,20.4 L15.0102,21.3416 " style="stroke:#000000;stroke-width:0.05;"/>
        <!-- Rotated Dimension -->
        <g>
            <g>
                <path d="M-12.5694,23.75 L-13.125,24.3056 L-10.625,24.3056 M-12.9869,25.4402 C-12.9345,25.401 -12.8224,25.3332 -12.7634,25.305 C-12.7043,25.2767 -12.5812,25.2321 -12.5178,25.2159 C-12.4963,25.2105 -12.453,25.201 -12.4312,25.1969 C-12.3059,25.17 -12.0512,25.1411 -11.9231,25.1392 C-11.9112,25.139 -11.8874,25.1389 -11.8755,25.1389 C-11.7473,25.1384 -11.492,25.1625 -11.3661,25.187 C-11.3545,25.1893 -11.3311,25.1941 -11.3195,25.1965 C-11.2551,25.2085 -11.1293,25.2448 -11.0685,25.2691 C-11.0076,25.2934 -10.8913,25.3536 -10.8364,25.3893 C-10.8178,25.4013 -10.7815,25.4267 -10.7637,25.44 C-10.7512,25.448 -10.7279,25.4664 -10.7172,25.4768 C-10.7065,25.4871 -10.6873,25.5097 -10.6788,25.5219 C-10.6703,25.5341 -10.6558,25.5601 -10.6499,25.5737 C-10.644,25.5874 -10.6348,25.6156 -10.6317,25.6302 C-10.6285,25.6447 -10.6251,25.6742 -10.6248,25.6891 C-10.6245,25.7039 -10.6269,25.7336 -10.6296,25.7482 C-10.6322,25.7628 -10.6403,25.7914 -10.6458,25.8053 C-10.6512,25.8191 -10.6647,25.8456 -10.6728,25.8581 C-10.6808,25.8706 -10.6993,25.8939 -10.7096,25.9046 C-10.7199,25.9153 -10.7425,25.9345 -10.7548,25.943 C-10.7568,25.9444 -10.761,25.9472 -10.7631,25.9486 C-10.8155,25.9878 -10.9275,26.0556 -10.9866,26.0839 C-11.0457,26.1121 -11.1688,26.1568 -11.2322,26.173 C-11.2537,26.1784 -11.297,26.1879 -11.3187,26.192 C-11.4441,26.2189 -11.6987,26.2478 -11.8269,26.2497 C-11.8388,26.2499 -11.8626,26.25 -11.8745,26.25 C-12.0028,26.2505 -12.2582,26.2263 -12.384,26.2018 C-12.3957,26.1995 -12.4191,26.1947 -12.4307,26.1922 C-12.4952,26.1803 -12.6211,26.1438 -12.682,26.1195 C-12.7428,26.0952 -12.8592,26.0349 -12.9142,25.9992 C-12.9326,25.9873 -12.9685,25.9622 -12.986,25.9491 C-12.9986,25.941 -13.0219,25.9226 -13.0326,25.9123 C-13.0433,25.902 -13.0626,25.8793 -13.0711,25.8671 C-13.0796,25.8549 -13.0941,25.829 -13.1,25.8153 C-13.106,25.8017 -13.1151,25.7734 -13.1183,25.7589 C-13.1215,25.7444 -13.1249,25.7148 -13.1252,25.7 C-13.1255,25.6851 -13.1231,25.6555 -13.1205,25.6408 C-13.1178,25.6262 -13.1097,25.5976 -13.1043,25.5838 C-13.0989,25.5699 -13.0853,25.5434 -13.0773,25.5309 C-13.0693,25.5184 -13.0509,25.4951 -13.0405,25.4844 C-13.0302,25.4737 -13.0076,25.4544 -12.9954,25.4459 C-12.9933,25.4444 -12.9891,25.4416 -12.9869,25.4402" style="stroke:#000000;stroke-width:0.05;"/>
            </g>
            <path d="M-10,20 L-10.4163,22.5 L-9.5837,22.5 Z" style="stroke:#000000;stroke-width:0.05;fill:#000000;fill-rule:evenodd;"/>
            <path d="M-10,30 L-9.5837,27.5 L-10.4163,27.5 Z" style="stroke:#000000;stroke-width:0.05;fill:#000000;fill-rule:evenodd;"/>
        </g>
        <path d="M-10,20 L-10,30 M-0.625,20 L-11.25,20 M-0.625,30 L-11.25,30 " style="stroke:#000000;stroke-width:0.05;"/>
        <!-- Rotated Dimension -->
        <g>
            <g>
                <path d="M13.4722,-16.875 L14.0278,-16.875 C14.0551,-16.875 14.1094,-16.8804 14.1362,-16.8857 C14.1629,-16.891 14.2152,-16.9069 14.2404,-16.9173 C14.2656,-16.9277 14.3137,-16.9535 14.3364,-16.9686 C14.3591,-16.9838 14.4013,-17.0184 14.4206,-17.0377 C14.4399,-17.057 14.4746,-17.0992 14.4897,-17.1219 C14.5049,-17.1446 14.5306,-17.1927 14.5411,-17.218 C14.5515,-17.2432 14.5673,-17.2954 14.5727,-17.3222 C14.578,-17.3489 14.5833,-17.4033 14.5833,-17.4306 C14.5833,-17.4579 14.578,-17.5122 14.5727,-17.5389 C14.5673,-17.5657 14.5515,-17.6179 14.5411,-17.6432 C14.5306,-17.6684 14.5049,-17.7165 14.4897,-17.7392 C14.4746,-17.7619 14.4399,-17.8041 14.4206,-17.8234 C14.4013,-17.8427 14.3591,-17.8773 14.3364,-17.8925 C14.3137,-17.9077 14.2656,-17.9334 14.2404,-17.9438 C14.2152,-17.9543 14.1629,-17.9701 14.1362,-17.9754 C14.1094,-17.9808 14.0551,-17.9861 14.0278,-17.9861 C14.0551,-17.9861 14.1094,-17.9915 14.1361,-17.9968 C14.1629,-18.0021 14.2152,-18.018 14.2404,-18.0284 C14.2656,-18.0388 14.3137,-18.0646 14.3364,-18.0797 C14.3591,-18.0949 14.4013,-18.1295 14.4206,-18.1488 C14.4399,-18.1681 14.4745,-18.2103 14.4897,-18.233 C14.5049,-18.2557 14.5306,-18.3039 14.541,-18.3291 C14.5515,-18.3543 14.5673,-18.4065 14.5727,-18.4333 C14.578,-18.4601 14.5833,-18.5144 14.5833,-18.5417 L14.5833,-18.8195 C14.5833,-18.8467 14.578,-18.901 14.5727,-18.9278 C14.5673,-18.9546 14.5515,-19.0068 14.5411,-19.032 C14.5306,-19.0572 14.5049,-19.1054 14.4897,-19.1281 C14.4746,-19.1508 14.4399,-19.193 14.4206,-19.2123 C14.4013,-19.2316 14.3591,-19.2662 14.3364,-19.2814 C14.3137,-19.2965 14.2656,-19.3223 14.2404,-19.3327 C14.2152,-19.3432 14.1629,-19.359 14.1362,-19.3643 C14.1094,-19.3697 14.0551,-19.375 14.0278,-19.375 L13.4722,-19.375 M14.0278,-17.9861 L13.75,-17.9861 M15.718,-17.0131 C15.6788,-17.0655 15.611,-17.1776 15.5827,-17.2366 C15.5545,-17.2957 15.5099,-17.4188 15.4937,-17.4822 C15.4882,-17.5037 15.4787,-17.547 15.4747,-17.5688 C15.4478,-17.6941 15.4189,-17.9488 15.417,-18.0769 C15.4168,-18.0888 15.4167,-18.1126 15.4167,-18.1245 C15.4162,-18.2527 15.4403,-18.508 15.4648,-18.6339 C15.4671,-18.6455 15.4718,-18.6689 15.4743,-18.6805 C15.4862,-18.7449 15.5226,-18.8707 15.5469,-18.9315 C15.5712,-18.9924 15.6314,-19.1087 15.667,-19.1636 C15.6791,-19.1822 15.7045,-19.2185 15.7177,-19.2363 C15.7258,-19.2488 15.7442,-19.2721 15.7545,-19.2828 C15.7649,-19.2935 15.7875,-19.3127 15.7997,-19.3212 C15.8119,-19.3297 15.8379,-19.3442 15.8515,-19.3501 C15.8651,-19.356 15.8934,-19.3652 15.9079,-19.3683 C15.9225,-19.3715 15.952,-19.3749 15.9669,-19.3752 C15.9817,-19.3755 16.0114,-19.3731 16.026,-19.3704 C16.0406,-19.3678 16.0692,-19.3597 16.083,-19.3542 C16.0969,-19.3488 16.1233,-19.3353 16.1358,-19.3272 C16.1483,-19.3192 16.1717,-19.3007 16.1824,-19.2904 C16.1931,-19.2801 16.2123,-19.2575 16.2208,-19.2452 C16.2222,-19.2432 16.225,-19.239 16.2264,-19.2369 C16.2656,-19.1845 16.3334,-19.0725 16.3617,-19.0134 C16.3899,-18.9543 16.4346,-18.8312 16.4507,-18.7678 C16.4562,-18.7463 16.4657,-18.703 16.4698,-18.6813 C16.4966,-18.5559 16.5256,-18.3013 16.5275,-18.1731 C16.5277,-18.1612 16.5278,-18.1374 16.5278,-18.1255 C16.5283,-17.9972 16.5041,-17.7418 16.4795,-17.616 C16.4773,-17.6043 16.4725,-17.5809 16.47,-17.5693 C16.458,-17.5048 16.4216,-17.3789 16.3973,-17.318 C16.373,-17.2572 16.3127,-17.1408 16.277,-17.0858 C16.265,-17.0674 16.24,-17.0315 16.2268,-17.014 C16.2188,-17.0014 16.2004,-16.9781 16.1901,-16.9674 C16.1797,-16.9567 16.1571,-16.9374 16.1449,-16.9289 C16.1327,-16.9204 16.1067,-16.9059 16.0931,-16.9 C16.0795,-16.894 16.0512,-16.8849 16.0367,-16.8817 C16.0221,-16.8785 15.9926,-16.8751 15.9778,-16.8748 C15.9629,-16.8745 15.9332,-16.8769 15.9186,-16.8795 C15.904,-16.8822 15.8754,-16.8903 15.8615,-16.8957 C15.8477,-16.9011 15.8212,-16.9147 15.8087,-16.9227 C15.7962,-16.9307 15.7729,-16.9491 15.7621,-16.9595 C15.7514,-16.9698 15.7322,-16.9924 15.7237,-17.0046 C15.7222,-17.0067 15.7194,-17.0109 15.718,-17.0131" style="stroke:#000000;stroke-width:0.05;"/>
            </g>
            <path d="M0,-20 L2.5,-19.5837 L2.5,-20.4163 Z" style="stroke:#000000;stroke-width:0.05;fill:#000000;fill-rule:evenodd;"/>
            <path d="M30,-20 L27.5,-20.4163 L27.5,-19.5837 Z" style="stroke:#000000;stroke-width:0.05;fill:#000000;fill-rule:evenodd;"/>
        </g>
        <path d="M0,-20 L30,-20 M0,-10.625 L0,-21.25 M30,-10.625 L30,-21.25 " style="stroke:#000000;stroke-width:0.05;"/>
        <!-- Rotated Dimension -->
        <g>
            <g>
                <path d="M8.0556,47.5647 L6.9444,47.5647 L6.9444,46.4536 L7.5,46.4536 C7.5273,46.4536 7.5816,46.4483 7.6084,46.443 C7.6351,46.4376 7.6874,46.4218 7.7126,46.4113 C7.7378,46.4009 7.7859,46.3752 7.8086,46.36 C7.8313,46.3448 7.8735,46.3102 7.8928,46.2909 C7.9121,46.2716 7.9468,46.2294 7.9619,46.2067 C7.9771,46.184 8.0028,46.1359 8.0133,46.1107 C8.0237,46.0855 8.0396,46.0332 8.0449,46.0065 C8.0502,45.9797 8.0556,45.9254 8.0556,45.8981 L8.0556,45.6203 C8.0556,45.593 8.0502,45.5387 8.0449,45.5119 C8.0396,45.4852 8.0237,45.4329 8.0133,45.4077 C8.0028,45.3825 7.9771,45.3344 7.9619,45.3117 C7.9468,45.289 7.9121,45.2468 7.8928,45.2275 C7.8735,45.2082 7.8313,45.1735 7.8087,45.1584 C7.786,45.1432 7.7378,45.1175 7.7126,45.107 C7.6874,45.0966 7.6352,45.0807 7.6084,45.0754 C7.5816,45.0701 7.5273,45.0647 7.5,45.0647 L6.9444,45.0647" style="stroke:#000000;stroke-width:0.05;"/>
            </g>
            <path d="M5,44.4397 L2.5,44.0235 L2.5,44.856 Z" style="stroke:#000000;stroke-width:0.05;fill:#000000;fill-rule:evenodd;"/>
            <path d="M10,44.4397 L12.5,44.856 L12.5,44.0235 Z" style="stroke:#000000;stroke-width:0.05;fill:#000000;fill-rule:evenodd;"/>
        </g>
        <path d="M0,44.4397 L15,44.4397 M5,40.625 L5,45.6897 M10,40.625 L10,45.6897 " style="stroke:#000000;stroke-width:0.05;"/>
        <!-- Rotated Dimension -->
        <g>
            <g>
                <path d="M13.75,37.5694 L14.3056,38.125 L14.3056,35.625 M15.4402,37.9869 C15.401,37.9345 15.3332,37.8224 15.305,37.7634 C15.2767,37.7043 15.2321,37.5812 15.2159,37.5178 C15.2105,37.4963 15.201,37.453 15.1969,37.4312 C15.17,37.3059 15.1411,37.0512 15.1392,36.9231 C15.139,36.9112 15.1389,36.8874 15.1389,36.8755 C15.1384,36.7473 15.1625,36.492 15.187,36.3661 C15.1893,36.3545 15.1941,36.3311 15.1965,36.3195 C15.2085,36.2551 15.2448,36.1293 15.2691,36.0685 C15.2934,36.0076 15.3536,35.8913 15.3893,35.8364 C15.4013,35.8178 15.4267,35.7815 15.44,35.7637 C15.448,35.7512 15.4664,35.7279 15.4768,35.7172 C15.4871,35.7065 15.5097,35.6873 15.5219,35.6788 C15.5341,35.6703 15.5601,35.6558 15.5737,35.6499 C15.5874,35.644 15.6156,35.6348 15.6302,35.6317 C15.6447,35.6285 15.6742,35.6251 15.6891,35.6248 C15.7039,35.6245 15.7336,35.6269 15.7482,35.6296 C15.7628,35.6322 15.7914,35.6403 15.8053,35.6458 C15.8191,35.6512 15.8456,35.6647 15.8581,35.6728 C15.8706,35.6808 15.8939,35.6993 15.9046,35.7096 C15.9153,35.7199 15.9345,35.7425 15.943,35.7548 C15.9444,35.7568 15.9472,35.761 15.9486,35.7631 C15.9878,35.8155 16.0556,35.9275 16.0839,35.9866 C16.1121,36.0457 16.1568,36.1688 16.173,36.2322 C16.1784,36.2537 16.1879,36.297 16.192,36.3187 C16.2189,36.4441 16.2478,36.6987 16.2497,36.8269 C16.2499,36.8388 16.25,36.8626 16.25,36.8745 C16.2505,37.0028 16.2263,37.2582 16.2018,37.384 C16.1995,37.3957 16.1947,37.4191 16.1922,37.4307 C16.1803,37.4952 16.1438,37.6211 16.1195,37.682 C16.0952,37.7428 16.0349,37.8592 15.9992,37.9142 C15.9873,37.9326 15.9622,37.9685 15.9491,37.986 C15.941,37.9986 15.9226,38.0219 15.9123,38.0326 C15.902,38.0433 15.8793,38.0626 15.8671,38.0711 C15.8549,38.0796 15.829,38.0941 15.8153,38.1 C15.8017,38.106 15.7734,38.1151 15.7589,38.1183 C15.7444,38.1215 15.7148,38.1249 15.7,38.1252 C15.6851,38.1255 15.6555,38.1231 15.6408,38.1205 C15.6262,38.1178 15.5976,38.1097 15.5838,38.1043 C15.5699,38.0989 15.5434,38.0853 15.5309,38.0773 C15.5184,38.0693 15.4951,38.0509 15.4844,38.0405 C15.4737,38.0302 15.4544,38.0076 15.4459,37.9954 C15.4444,37.9933 15.4416,37.9891 15.4402,37.9869" style="stroke:#000000;stroke-width:0.05;"/>
            </g>
            <path d="M10,35 L12.5,35.4163 L12.5,34.5837 Z" style="stroke:#000000;stroke-width:0.05;fill:#000000;fill-rule:evenodd;"/>
            <path d="M20,35 L17.5,34.5837 L17.5,35.4163 Z" style="stroke:#000000;stroke-width:0.05;fill:#000000;fill-rule:evenodd;"/>
        </g>
        <path d="M10,35 L20,35 M10,36.375 L10,33.75 M20,36.375 L20,33.75 " style="stroke:#000000;stroke-width:0.05;"/>
        <!-- Rotated Dimension -->
        <g>
            <g>
                <path d="M23.0556,48.125 L21.9444,48.125 L21.9444,47.0139 L22.5,47.0139 C22.5273,47.0139 22.5816,47.0085 22.6084,47.0032 C22.6351,46.9979 22.6874,46.982 22.7126,46.9716 C22.7378,46.9612 22.7859,46.9354 22.8086,46.9203 C22.8313,46.9051 22.8735,46.8705 22.8928,46.8512 C22.9121,46.8319 22.9468,46.7897 22.9619,46.767 C22.9771,46.7443 23.0028,46.6962 23.0133,46.6709 C23.0237,46.6457 23.0396,46.5935 23.0449,46.5667 C23.0502,46.54 23.0556,46.4856 23.0556,46.4583 L23.0556,46.1806 C23.0556,46.1533 23.0502,46.099 23.0449,46.0722 C23.0396,46.0454 23.0237,45.9932 23.0133,45.968 C23.0028,45.9428 22.9771,45.8946 22.9619,45.8719 C22.9468,45.8492 22.9121,45.807 22.8928,45.7877 C22.8735,45.7684 22.8313,45.7338 22.8087,45.7186 C22.786,45.7035 22.7378,45.6777 22.7126,45.6673 C22.6874,45.6568 22.6352,45.641 22.6084,45.6357 C22.5816,45.6304 22.5273,45.625 22.5,45.625 L21.9444,45.625" style="stroke:#000000;stroke-width:0.05;"/>
            </g>
            <path d="M20,45 L17.5,44.5837 L17.5,45.4163 Z" style="stroke:#000000;stroke-width:0.05;fill:#000000;fill-rule:evenodd;"/>
            <path d="M25,45 L27.5,45.4163 L27.5,44.5837 Z" style="stroke:#000000;stroke-width:0.05;fill:#000000;fill-rule:evenodd;"/>
        </g>
        <path d="M15,45 L30,45 M20,40.625 L20,46.25 M25,40.625 L25,46.25 " style="stroke:#000000;stroke-width:0.05;"/>
        <!-- Circle -->
        <circle cx="7.585303753804057" cy="-5" r="2.3082460874005624" style="stroke:#000000;stroke-width:0.25;"/>
        <!-- Circle -->
        <circle cx="22.476084360799945" cy="-5.023232406421863" r="2.5240225629947872" style="stroke:#000000;stroke-width:0.25;"/>
        <!-- Circle -->
        <circle cx="15" cy="-5" r="2" style="stroke:#000000;stroke-width:0.25;"/>
        <!-- Radial Dimension -->
        <g>
            <g>
                <path d="M11.3308,1.1451 L10.6723,0.2501 L9.8214,2.2091 C9.8159,2.2216 9.8027,2.2454 9.7949,2.2566 C9.7871,2.2678 9.7695,2.2886 9.7596,2.2981 C9.7498,2.3075 9.7285,2.3245 9.717,2.3318 C9.7055,2.3392 9.6813,2.3516 9.6686,2.3566 C9.6621,2.3592 9.649,2.3636 9.6423,2.3655 C9.617,2.3756 9.5646,2.3909 9.5378,2.3959 C9.511,2.401 9.4566,2.4057 9.4293,2.4054 C9.402,2.4051 9.3477,2.3992 9.321,2.3936 C9.2943,2.3879 9.2423,2.3715 9.2172,2.3608 C9.1921,2.3501 9.1442,2.3238 9.1217,2.3084 C9.0992,2.293 9.0573,2.2579 9.0383,2.2384 C9.0192,2.2189 8.985,2.1763 8.9701,2.1534 C8.9552,2.1306 8.93,2.0822 8.9198,2.0568 C8.9097,2.0315 8.8944,1.9791 8.8894,1.9523 C8.8843,1.9255 8.8796,1.8711 8.8799,1.8438 C8.8802,1.8165 8.8861,1.7622 8.8917,1.7355 C8.8974,1.7088 8.9138,1.6568 8.9245,1.6317 C8.9352,1.6066 8.9615,1.5587 8.9769,1.5362 C8.9834,1.5266 8.9973,1.5081 9.0045,1.4992 M11.8247,1.8163 L11.7128,1.8986 M10.3049,3.9691 L10.6341,4.4166 C10.6503,4.4386 10.6868,4.4792 10.7069,4.4976 C10.7271,4.516 10.7708,4.5486 10.7942,4.5628 C10.8175,4.5769 10.8668,4.6004 10.8925,4.6097 C10.9181,4.619 10.971,4.6325 10.998,4.6366 C11.025,4.6407 11.0795,4.6436 11.1067,4.6423 C11.134,4.6411 11.188,4.6333 11.2145,4.6268 C11.241,4.6202 11.2925,4.602 11.3172,4.5905 C11.3419,4.5789 11.3889,4.551 11.4108,4.5348 C11.4328,4.5186 11.4734,4.4821 11.4918,4.462 C11.5102,4.4418 11.5429,4.3981 11.557,4.3748 C11.5711,4.3514 11.5947,4.3021 11.604,4.2765 C11.6133,4.2508 11.6267,4.1979 11.6308,4.1709 C11.6349,4.144 11.6378,4.0894 11.6366,4.0622 C11.6353,4.0349 11.6275,3.9809 11.621,3.9544 C11.6145,3.9279 11.5963,3.8764 11.5847,3.8517 C11.5731,3.827 11.5453,3.7801 11.5291,3.7581 C11.5452,3.7801 11.5817,3.8206 11.6019,3.839 C11.622,3.8575 11.6658,3.8901 11.6891,3.9043 C11.7125,3.9184 11.7617,3.9419 11.7874,3.9512 C11.8131,3.9605 11.866,3.974 11.8929,3.9781 C11.9199,3.9822 11.9744,3.9851 12.0017,3.9838 C12.029,3.9826 12.083,3.9748 12.1095,3.9683 C12.136,3.9617 12.1875,3.9435 12.2122,3.932 C12.2369,3.9204 12.2838,3.8925 12.3058,3.8763 L12.5295,3.7117 C12.5515,3.6955 12.5921,3.659 12.6105,3.6389 C12.6289,3.6187 12.6616,3.575 12.6757,3.5517 C12.6898,3.5283 12.7134,3.479 12.7227,3.4534 C12.7319,3.4277 12.7454,3.3748 12.7495,3.3478 C12.7536,3.3209 12.7565,3.2663 12.7553,3.2391 C12.754,3.2118 12.7462,3.1578 12.7397,3.1313 C12.7332,3.1048 12.715,3.0533 12.7034,3.0286 C12.6918,3.0039 12.6639,2.957 12.6478,2.935 L12.3185,2.4875 M11.5291,3.7581 L11.3645,3.5344 M11.747,5.6961 C11.766,5.6335 11.8161,5.5125 11.8469,5.4547 C11.8778,5.397 11.9505,5.2881 11.992,5.2375 C12.006,5.2203 12.0353,5.187 12.0504,5.1709 C12.1354,5.075 12.3234,4.9007 12.4255,4.8232 C12.435,4.816 12.4541,4.8018 12.4637,4.7948 C12.5666,4.7184 12.7865,4.5865 12.9024,4.5317 C12.9132,4.5266 12.9348,4.5166 12.9457,4.5117 C13.0046,4.4831 13.1275,4.4379 13.1909,4.4214 C13.2542,4.4049 13.3836,4.3844 13.449,4.3806 C13.4711,4.3793 13.5154,4.3782 13.5376,4.3784 C13.5524,4.3775 13.5821,4.3785 13.5968,4.3805 C13.6116,4.3824 13.6405,4.3893 13.6546,4.3941 C13.6686,4.3989 13.6957,4.4112 13.7085,4.4187 C13.7214,4.4261 13.7455,4.4435 13.7567,4.4533 C13.7678,4.4632 13.7881,4.4849 13.7971,4.4967 C13.8061,4.5085 13.8218,4.5338 13.8283,4.5472 C13.8349,4.5605 13.8453,4.5883 13.8491,4.6027 C13.8529,4.6171 13.8577,4.6464 13.8586,4.6613 C13.8595,4.6761 13.8585,4.7058 13.8565,4.7205 C13.8546,4.7353 13.8477,4.7642 13.8429,4.7783 C13.8421,4.7806 13.8404,4.7853 13.8395,4.7877 C13.8206,4.8504 13.7705,4.9714 13.7397,5.0291 C13.7088,5.0869 13.6361,5.1958 13.5946,5.2464 C13.5806,5.2636 13.5514,5.2969 13.5362,5.313 C13.4512,5.409 13.2632,5.5832 13.1611,5.6607 C13.1516,5.6679 13.1326,5.6821 13.1229,5.6891 C13.0199,5.7655 12.7999,5.8974 12.6839,5.9523 C12.6732,5.9574 12.6516,5.9674 12.6407,5.9722 C12.5817,6.0008 12.4587,6.0461 12.3952,6.0626 C12.3318,6.0791 12.2023,6.0995 12.1369,6.1033 C12.115,6.1046 12.0712,6.1057 12.0493,6.1055 C12.0345,6.1064 12.0047,6.1054 11.99,6.1035 C11.9753,6.1015 11.9463,6.0947 11.9322,6.0899 C11.9182,6.0851 11.8911,6.0728 11.8782,6.0653 C11.8654,6.0579 11.8412,6.0405 11.8301,6.0307 C11.8189,6.0209 11.7986,5.9991 11.7896,5.9873 C11.7806,5.9755 11.7649,5.9502 11.7583,5.9369 C11.7518,5.9236 11.7414,5.8957 11.7375,5.8813 C11.7337,5.867 11.7289,5.8376 11.728,5.8228 C11.727,5.808 11.728,5.7782 11.73,5.7635 C11.732,5.7488 11.7388,5.7198 11.7436,5.7057 C11.7444,5.7033 11.7461,5.6985 11.747,5.6961 M14.1758,5.9491 C14.1977,5.9329 14.2447,5.905 14.2694,5.8934 C14.2941,5.8819 14.3456,5.8637 14.3721,5.8571 C14.3986,5.8506 14.4526,5.8428 14.4799,5.8416 C14.5071,5.8403 14.5616,5.8432 14.5886,5.8473 C14.6156,5.8514 14.6685,5.8649 14.6942,5.8742 C14.7198,5.8835 14.7691,5.907 14.7924,5.9211 C14.8158,5.9352 14.8595,5.9679 14.8797,5.9863 C14.8998,6.0047 14.9363,6.0453 14.9525,6.0673 C14.9687,6.0893 14.9965,6.1362 15.0081,6.1609 C15.0197,6.1856 15.0379,6.2371 15.0444,6.2636 C15.051,6.2901 15.0588,6.3441 15.06,6.3714 C15.0612,6.3987 15.0583,6.4532 15.0542,6.4801 C15.0501,6.5071 15.0367,6.56 15.0274,6.5857 C15.0181,6.6114 14.9946,6.6606 14.9804,6.684 C14.9663,6.7073 14.9336,6.751 14.9152,6.7712 C14.8968,6.7913 14.8562,6.8278 14.8343,6.844 L14.6105,7.0086 C14.5885,7.0248 14.5416,7.0527 14.5169,7.0643 C14.4922,7.0759 14.4407,7.0941 14.4142,7.1006 C14.3877,7.1071 14.3337,7.1149 14.3064,7.1162 C14.2792,7.1174 14.2246,7.1145 14.1977,7.1104 C14.1707,7.1063 14.1178,7.0928 14.0921,7.0835 C14.0665,7.0742 14.0172,7.0507 13.9938,7.0366 C13.9705,7.0225 13.9268,6.9898 13.9066,6.9714 C13.8865,6.953 13.85,6.9124 13.8338,6.8904 C13.8176,6.8684 13.7897,6.8215 13.7782,6.7968 C13.7666,6.7721 13.7484,6.7206 13.7419,6.6941 C13.7353,6.6676 13.7275,6.6136 13.7263,6.5863 C13.725,6.5591 13.7279,6.5045 13.732,6.4776 C13.7361,6.4506 13.7496,6.3977 13.7589,6.372 C13.7682,6.3464 13.7917,6.2971 13.8058,6.2737 C13.82,6.2504 13.8526,6.2067 13.871,6.1865 C13.8895,6.1664 13.93,6.1299 13.952,6.1137 Z M13.1541,6.787 C13.1734,6.7728 13.2144,6.7484 13.2361,6.7383 C13.2577,6.7282 13.3027,6.7122 13.3259,6.7065 C13.3491,6.7008 13.3964,6.694 13.4202,6.6929 C13.4441,6.6918 13.4918,6.6943 13.5154,6.6979 C13.539,6.7015 13.5853,6.7133 13.6077,6.7214 C13.6302,6.7296 13.6733,6.7502 13.6937,6.7625 C13.7142,6.7749 13.7524,6.8035 13.7701,6.8196 C13.7877,6.8357 13.8196,6.8712 13.8338,6.8904 C13.8479,6.9097 13.8723,6.9507 13.8825,6.9723 C13.8926,6.994 13.9085,7.039 13.9142,7.0622 C13.9199,7.0854 13.9268,7.1326 13.9279,7.1565 C13.9289,7.1804 13.9264,7.228 13.9228,7.2517 C13.9192,7.2753 13.9074,7.3216 13.8993,7.344 C13.8912,7.3665 13.8706,7.4096 13.8582,7.43 C13.8459,7.4504 13.8173,7.4887 13.8012,7.5063 C13.7851,7.524 13.7496,7.5559 13.7303,7.5701 L13.6185,7.6524 C13.5992,7.6665 13.5582,7.6909 13.5365,7.701 C13.5149,7.7112 13.4699,7.7271 13.4467,7.7328 C13.4235,7.7385 13.3762,7.7454 13.3524,7.7464 C13.3285,7.7475 13.2808,7.745 13.2572,7.7414 C13.2336,7.7378 13.1873,7.726 13.1649,7.7179 C13.1424,7.7098 13.0993,7.6892 13.0789,7.6768 C13.0584,7.6645 13.0202,7.6359 13.0026,7.6198 C12.9849,7.6037 12.953,7.5681 12.9388,7.5489 C12.9247,7.5297 12.9003,7.4886 12.8901,7.467 C12.88,7.4454 12.8641,7.4003 12.8584,7.3771 C12.8527,7.354 12.8458,7.3067 12.8448,7.2828 C12.8437,7.259 12.8462,7.2113 12.8498,7.1877 C12.8534,7.1641 12.8652,7.1178 12.8733,7.0953 C12.8814,7.0729 12.902,7.0298 12.9144,7.0093 C12.9267,6.9889 12.9553,6.9506 12.9714,6.933 C12.9875,6.9154 13.023,6.8834 13.0423,6.8693 Z M16.4341,8.081 L15.7756,7.186 L14.9247,9.145 C14.9192,9.1575 14.906,9.1813 14.8982,9.1925 C14.8904,9.2037 14.8728,9.2245 14.863,9.234 C14.8532,9.2434 14.8318,9.2604 14.8203,9.2677 C14.8089,9.2751 14.7846,9.2875 14.7719,9.2925 C14.7655,9.2951 14.7523,9.2995 14.7457,9.3014 C14.7203,9.3115 14.6679,9.3268 14.6411,9.3318 C14.6143,9.3369 14.5599,9.3416 14.5326,9.3413 C14.5053,9.341 14.4511,9.3351 14.4243,9.3295 C14.3976,9.3238 14.3456,9.3074 14.3205,9.2967 C14.2954,9.286 14.2475,9.2597 14.225,9.2443 C14.2025,9.2289 14.1607,9.1938 14.1416,9.1743 C14.1225,9.1548 14.0883,9.1122 14.0734,9.0893 C14.0585,9.0665 14.0333,9.0181 14.0231,8.9927 C14.013,8.9674 13.9977,8.915 13.9927,8.8882 C13.9876,8.8614 13.9829,8.807 13.9832,8.7797 C13.9835,8.7524 13.9894,8.6981 13.9951,8.6714 C14.0007,8.6447 14.0171,8.5927 14.0278,8.5676 C14.0385,8.5425 14.0648,8.4946 14.0802,8.4721 C14.0867,8.4625 14.1006,8.444 14.1079,8.4351" style="stroke:#000000;stroke-width:0.05;"/>
            </g>
            <path d="M8.9533,-3.1408 L10.0996,-0.8804 L10.7702,-1.3738 Z" style="stroke:#000000;stroke-width:0.05;fill:#000000;fill-rule:evenodd;"/>
        </g>
        <path d="M7.5853,-5 L17.6783,8.7174 " style="stroke:#000000;stroke-width:0.05;"/>
        <!-- Radial Dimension -->
        <g>
            <g>
                <path d="M19.1253,0.5179 L18.382,-0.308 L17.7278,1.7252 C17.7236,1.7382 17.7127,1.7632 17.7061,1.7751 C17.6995,1.787 17.6839,1.8094 17.6751,1.8198 C17.6663,1.8302 17.6467,1.8491 17.636,1.8576 C17.6253,1.8661 17.6024,1.8808 17.5903,1.887 C17.5841,1.8902 17.5715,1.8959 17.565,1.8984 C17.5408,1.911 17.4902,1.9314 17.464,1.939 C17.4378,1.9467 17.3841,1.9568 17.3569,1.9591 C17.3297,1.9615 17.2751,1.9609 17.248,1.958 C17.2209,1.955 17.1675,1.9438 17.1414,1.9356 C17.1154,1.9274 17.0652,1.906 17.0413,1.8928 C17.0173,1.8797 16.9723,1.8489 16.9514,1.8314 C16.9304,1.8138 16.8923,1.7748 16.8752,1.7535 C16.8581,1.7322 16.8283,1.6865 16.8156,1.6623 C16.803,1.6381 16.7827,1.5875 16.775,1.5613 C16.7674,1.5351 16.7573,1.4814 16.7549,1.4542 C16.7526,1.427 16.7531,1.3725 16.7561,1.3453 C16.7591,1.3182 16.7703,1.2648 16.7785,1.2387 C16.7867,1.2127 16.8081,1.1625 16.8212,1.1386 C16.8268,1.1284 16.8388,1.1087 16.8451,1.099" style="stroke:#000000;stroke-width:0.05;"/>
            </g>
            <path d="M16.3379,-3.5134 L17.7009,-1.3767 L18.3198,-1.9337 Z" style="stroke:#000000;stroke-width:0.05;fill:#000000;fill-rule:evenodd;"/>
        </g>
        <path d="M15,-5 L20.426,1.0289 " style="stroke:#000000;stroke-width:0.05;"/>
        <!-- Radial Dimension -->
        <g>
            <g>
                <path d="M26.7256,1.049 L26.014,0.1957 L25.2835,2.2027 C25.2788,2.2155 25.267,2.2401 25.26,2.2517 C25.2529,2.2634 25.2365,2.2852 25.2273,2.2952 C25.2181,2.3053 25.1978,2.3235 25.1868,2.3315 C25.1758,2.3396 25.1523,2.3534 25.14,2.3592 C25.1337,2.3621 25.1208,2.3673 25.1143,2.3696 C25.0896,2.3813 25.0383,2.3997 25.0118,2.4064 C24.9853,2.413 24.9313,2.4211 24.9041,2.4224 C24.8768,2.4238 24.8223,2.4211 24.7953,2.4171 C24.7683,2.4132 24.7153,2.3999 24.6896,2.3907 C24.6639,2.3816 24.6146,2.3583 24.5911,2.3442 C24.5677,2.3302 24.5239,2.2977 24.5036,2.2794 C24.4834,2.2611 24.4467,2.2207 24.4304,2.1988 C24.4142,2.1769 24.3861,2.1301 24.3744,2.1054 C24.3627,2.0807 24.3443,2.0293 24.3376,2.0029 C24.331,1.9764 24.3229,1.9224 24.3216,1.8951 C24.3202,1.8679 24.3229,1.8134 24.3269,1.7864 C24.3309,1.7594 24.3441,1.7064 24.3533,1.6807 C24.3624,1.655 24.3858,1.6056 24.3998,1.5822 C24.4057,1.5723 24.4184,1.553 24.4251,1.5436 M27.2593,1.6891 L27.1526,1.778 M26.5845,4.7835 L25.8729,3.9301 L26.7262,3.2185 L27.082,3.6452 C27.0995,3.6662 27.1384,3.7045 27.1596,3.7216 C27.1809,3.7388 27.2265,3.7687 27.2507,3.7814 C27.2748,3.7941 27.3254,3.8146 27.3516,3.8223 C27.3778,3.83 27.4314,3.8403 27.4586,3.8427 C27.4858,3.8452 27.5403,3.8448 27.5675,3.8419 C27.5946,3.839 27.6481,3.8279 27.6741,3.8198 C27.7002,3.8117 27.7505,3.7904 27.7744,3.7773 C27.7984,3.7643 27.8435,3.7336 27.8645,3.7161 L28.0778,3.5382 C28.0988,3.5208 28.1371,3.4819 28.1542,3.4606 C28.1714,3.4394 28.2014,3.3938 28.214,3.3696 C28.2267,3.3455 28.2472,3.2949 28.2549,3.2687 C28.2626,3.2425 28.2729,3.1889 28.2753,3.1617 C28.2778,3.1345 28.2774,3.0799 28.2745,3.0528 C28.2716,3.0257 28.2605,2.9722 28.2524,2.9461 C28.2443,2.9201 28.223,2.8698 28.21,2.8459 C28.1969,2.8219 28.1662,2.7767 28.1487,2.7558 L27.793,2.3291 M29.7498,4.6758 L29.0382,3.8225 L28.3077,5.8295 C28.303,5.8423 28.2912,5.8669 28.2841,5.8785 C28.2771,5.8902 28.2607,5.912 28.2515,5.922 C28.2423,5.9321 28.222,5.9503 28.211,5.9583 C28.2,5.9664 28.1765,5.9803 28.1641,5.986 C28.1579,5.9889 28.145,5.9942 28.1385,5.9964 C28.1138,6.0081 28.0624,6.0265 28.036,6.0332 C28.0095,6.0398 27.9555,6.0479 27.9282,6.0492 C27.901,6.0506 27.8465,6.0479 27.8195,6.044 C27.7925,6.04 27.7395,6.0267 27.7138,6.0176 C27.6881,6.0084 27.6387,5.9851 27.6153,5.9711 C27.5919,5.957 27.548,5.9245 27.5278,5.9062 C27.5076,5.8879 27.4709,5.8475 27.4546,5.8256 C27.4383,5.8037 27.4102,5.7569 27.3986,5.7322 C27.3869,5.7075 27.3685,5.6561 27.3618,5.6297 C27.3552,5.6032 27.3471,5.5492 27.3458,5.522 C27.3444,5.4947 27.3471,5.4402 27.351,5.4132 C27.355,5.3862 27.3683,5.3332 27.3774,5.3075 C27.3866,5.2818 27.4099,5.2324 27.4239,5.209 C27.4299,5.1991 27.4426,5.1798 27.4493,5.1704 M30.9061,6.0626 L30.0527,6.7741 M30.7462,6.7384 L29.8568,5.6717 L28.7192,7.3436" style="stroke:#000000;stroke-width:0.05;"/>
            </g>
            <path d="M24.0925,-3.0847 L25.3738,-0.898 L26.0133,-1.4312 Z" style="stroke:#000000;stroke-width:0.05;fill:#000000;fill-rule:evenodd;"/>
        </g>
        <path d="M22.4761,-5.0232 L32.4535,6.9424 " style="stroke:#000000;stroke-width:0.05;"/>
        <!-- Text: QCAD.org
Trial Version
Random lines added -->
        <g>
            <path d="M22.7613,13.7742 C22.779,13.762 22.7954,13.7531 22.8104,13.7474 L22.7991,13.7208 C22.7784,13.7283 22.7577,13.7401 22.737,13.7563 C22.7156,13.7443 22.6919,13.7383 22.666,13.7383 C22.6399,13.7383 22.6162,13.7447 22.5949,13.7573 C22.5736,13.7699 22.5572,13.7876 22.5457,13.8105 C22.5342,13.8334 22.5284,13.8592 22.5284,13.8878 C22.5284,13.9163 22.5342,13.9423 22.5458,13.9657 C22.5573,13.9891 22.5738,14.0069 22.5952,14.0191 C22.6165,14.0314 22.6404,14.0375 22.6668,14.0375 C22.6935,14.0375 22.7176,14.0311 22.739,14.0184 C22.7604,14.0058 22.7768,13.988 22.788,13.9652 C22.7992,13.9424 22.8049,13.9167 22.8049,13.888 C22.8049,13.8642 22.8012,13.8428 22.794,13.8238 C22.7868,13.8048 22.7759,13.7883 22.7613,13.7742 M22.6771,13.8231 C22.6992,13.817 22.7174,13.8078 22.7317,13.7955 C22.7542,13.816 22.7654,13.8469 22.7654,13.888 C22.7654,13.9114 22.7614,13.9318 22.7535,13.9493 C22.7455,13.9668 22.7339,13.9804 22.7186,13.99 C22.7033,13.9997 22.6861,14.0045 22.667,14.0045 C22.6385,14.0045 22.6148,13.9948 22.596,13.9753 C22.5772,13.9557 22.5678,13.9266 22.5678,13.8878 C22.5678,13.8502 22.5771,13.8214 22.5957,13.8012 C22.6143,13.7811 22.6381,13.7711 22.667,13.7711 C22.6807,13.7711 22.6936,13.7736 22.7057,13.7788 C22.6937,13.7865 22.6811,13.792 22.6678,13.7953 Z M23.0626,13.8446 L23.1008,13.835 C23.0928,13.8035 23.0784,13.7796 23.0575,13.7631 C23.0367,13.7466 23.0112,13.7383 22.9811,13.7383 C22.95,13.7383 22.9246,13.7447 22.9051,13.7574 C22.8856,13.7701 22.8707,13.7884 22.8605,13.8125 C22.8504,13.8365 22.8453,13.8624 22.8453,13.89 C22.8453,13.9201 22.851,13.9463 22.8625,13.9687 C22.874,13.9912 22.8904,14.0082 22.9116,14.0198 C22.9328,14.0315 22.9562,14.0373 22.9817,14.0373 C23.0106,14.0373 23.035,14.0299 23.0547,14.0152 C23.0744,14.0005 23.0881,13.9798 23.0959,13.9531 L23.0582,13.9442 C23.0515,13.9652 23.0418,13.9805 23.029,13.9901 C23.0163,13.9997 23.0002,14.0045 22.9809,14.0045 C22.9587,14.0045 22.9401,13.9992 22.9252,13.9886 C22.9103,13.9779 22.8998,13.9636 22.8938,13.9457 C22.8877,13.9277 22.8847,13.9092 22.8847,13.8902 C22.8847,13.8656 22.8883,13.8441 22.8954,13.8258 C22.9026,13.8075 22.9138,13.7938 22.9289,13.7847 C22.944,13.7756 22.9604,13.7711 22.978,13.7711 C22.9994,13.7711 23.0175,13.7773 23.0324,13.7896 C23.0472,13.802 23.0573,13.8203 23.0626,13.8446 M23.1161,13.7433 L23.2271,14.0323 L23.2684,14.0323 L23.3867,13.7433 L23.3431,13.7433 L23.3094,13.8308 L23.1885,13.8308 L23.1568,13.7433 Z M23.1995,13.862 L23.2975,13.862 L23.2674,13.942 C23.2582,13.9663 23.2513,13.9863 23.2469,14.002 C23.2432,13.9834 23.238,13.965 23.2313,13.9468 Z M23.4172,13.7433 L23.4172,14.0323 L23.5168,14.0323 C23.5392,14.0323 23.5564,14.031 23.5682,14.0282 C23.5848,14.0244 23.5989,14.0175 23.6106,14.0075 C23.6259,13.9946 23.6373,13.9781 23.6448,13.9581 C23.6524,13.9381 23.6562,13.9151 23.6562,13.8894 C23.6562,13.8674 23.6536,13.848 23.6485,13.831 C23.6433,13.8141 23.6368,13.8 23.6287,13.7889 C23.6207,13.7778 23.612,13.7691 23.6024,13.7627 C23.5929,13.7563 23.5814,13.7515 23.5679,13.7482 C23.5544,13.7449 23.539,13.7433 23.5215,13.7433 Z M23.4554,13.7774 L23.5171,13.7774 C23.5362,13.7774 23.5512,13.7792 23.562,13.7827 C23.5728,13.7863 23.5815,13.7913 23.5879,13.7977 C23.597,13.8068 23.6041,13.819 23.6091,13.8343 C23.6142,13.8496 23.6167,13.8682 23.6167,13.89 C23.6167,13.9202 23.6118,13.9434 23.6018,13.9597 C23.5919,13.9759 23.5798,13.9868 23.5657,13.9923 C23.5554,13.9963 23.5389,13.9982 23.5162,13.9982 L23.4554,13.9982 Z M23.7143,13.7433 L23.7143,13.7837 L23.7547,13.7837 L23.7547,13.7433 Z M23.8032,13.848 C23.8032,13.8868 23.814,13.9155 23.8355,13.9341 C23.8535,13.9497 23.8755,13.9574 23.9014,13.9574 C23.9302,13.9574 23.9537,13.948 23.972,13.9291 C23.9902,13.9103 23.9994,13.8842 23.9994,13.8509 C23.9994,13.824 23.9953,13.8028 23.9873,13.7873 C23.9792,13.7719 23.9674,13.7599 23.952,13.7514 C23.9365,13.7428 23.9197,13.7385 23.9014,13.7385 C23.8721,13.7385 23.8484,13.7479 23.8303,13.7667 C23.8122,13.7855 23.8032,13.8126 23.8032,13.848 M23.8397,13.848 C23.8397,13.8212 23.8455,13.8011 23.8572,13.7877 C23.8689,13.7744 23.8836,13.7677 23.9014,13.7677 C23.919,13.7677 23.9337,13.7744 23.9454,13.7878 C23.9571,13.8012 23.9629,13.8217 23.9629,13.8492 C23.9629,13.8751 23.957,13.8947 23.9453,13.908 C23.9335,13.9214 23.9189,13.928 23.9014,13.928 C23.8836,13.928 23.8689,13.9214 23.8572,13.9081 C23.8455,13.8948 23.8397,13.8748 23.8397,13.848 M24.0406,13.7433 L24.0406,13.9527 L24.0725,13.9527 L24.0725,13.9209 C24.0807,13.9358 24.0882,13.9456 24.0951,13.9503 C24.102,13.955 24.1096,13.9574 24.1179,13.9574 C24.1298,13.9574 24.142,13.9536 24.1543,13.946 L24.1421,13.913 C24.1334,13.9182 24.1248,13.9207 24.1161,13.9207 C24.1083,13.9207 24.1014,13.9184 24.0952,13.9137 C24.089,13.9091 24.0846,13.9026 24.082,13.8943 C24.078,13.8817 24.0761,13.8679 24.0761,13.8529 L24.0761,13.7433 Z M24.1689,13.7259 L24.2034,13.7208 C24.2049,13.7101 24.2089,13.7024 24.2154,13.6975 C24.2243,13.691 24.2363,13.6877 24.2515,13.6877 C24.268,13.6877 24.2806,13.691 24.2896,13.6975 C24.2985,13.7041 24.3046,13.7133 24.3077,13.7251 C24.3096,13.7324 24.3104,13.7475 24.3103,13.7707 C24.2948,13.7524 24.2755,13.7433 24.2523,13.7433 C24.2235,13.7433 24.2013,13.7537 24.1855,13.7744 C24.1697,13.7952 24.1618,13.8201 24.1618,13.8492 C24.1618,13.8691 24.1654,13.8876 24.1727,13.9045 C24.1799,13.9214 24.1904,13.9344 24.2041,13.9436 C24.2178,13.9528 24.234,13.9574 24.2525,13.9574 C24.2772,13.9574 24.2976,13.9474 24.3136,13.9274 L24.3136,13.9527 L24.3464,13.9527 L24.3464,13.7717 C24.3464,13.7391 24.3431,13.716 24.3364,13.7024 C24.3298,13.6888 24.3193,13.678 24.3049,13.6701 C24.2905,13.6622 24.2728,13.6583 24.2517,13.6583 C24.2268,13.6583 24.2066,13.6639 24.1912,13.6752 C24.1758,13.6864 24.1684,13.7033 24.1689,13.7259 M24.1983,13.8517 C24.1983,13.8242 24.2037,13.8042 24.2147,13.7916 C24.2256,13.779 24.2392,13.7727 24.2557,13.7727 C24.272,13.7727 24.2856,13.7789 24.2967,13.7915 C24.3077,13.804 24.3132,13.8237 24.3132,13.8505 C24.3132,13.8762 24.3076,13.8955 24.2962,13.9085 C24.2848,13.9215 24.2711,13.928 24.2551,13.928 C24.2393,13.928 24.2259,13.9216 24.2149,13.9088 C24.2038,13.896 24.1983,13.877 24.1983,13.8517" style="fill:#dd0000;fill-rule:evenodd;"/>
            <path d="M22.4368,13.2928 L22.4368,13.5477 L22.3416,13.5477 L22.3416,13.5818 L22.5707,13.5818 L22.5707,13.5477 L22.4751,13.5477 L22.4751,13.2928 Z M22.59,13.2928 L22.59,13.5022 L22.6219,13.5022 L22.6219,13.4704 C22.63,13.4853 22.6376,13.4951 22.6445,13.4998 C22.6514,13.5045 22.659,13.5069 22.6672,13.5069 C22.6792,13.5069 22.6914,13.5031 22.7037,13.4955 L22.6915,13.4625 C22.6828,13.4677 22.6741,13.4702 22.6655,13.4702 C22.6577,13.4702 22.6507,13.4679 22.6446,13.4632 C22.6384,13.4586 22.634,13.4521 22.6314,13.4438 C22.6274,13.4312 22.6254,13.4174 22.6254,13.4024 L22.6254,13.2928 Z M22.725,13.541 L22.725,13.5818 L22.7605,13.5818 L22.7605,13.541 Z M22.725,13.2928 L22.725,13.5022 L22.7605,13.5022 L22.7605,13.2928 Z M22.9511,13.3186 C22.938,13.3074 22.9253,13.2995 22.9132,13.2949 C22.901,13.2903 22.8879,13.288 22.874,13.288 C22.851,13.288 22.8333,13.2937 22.821,13.3049 C22.8086,13.3161 22.8024,13.3305 22.8024,13.348 C22.8024,13.3582 22.8048,13.3676 22.8094,13.3761 C22.8141,13.3846 22.8202,13.3914 22.8278,13.3965 C22.8353,13.4016 22.8438,13.4055 22.8533,13.4081 C22.8603,13.41 22.8708,13.4117 22.8849,13.4134 C22.9135,13.4169 22.9346,13.4209 22.9482,13.4257 C22.9483,13.4305 22.9484,13.4336 22.9484,13.4349 C22.9484,13.4494 22.945,13.4596 22.9383,13.4655 C22.9292,13.4735 22.9158,13.4775 22.8979,13.4775 C22.8812,13.4775 22.8689,13.4746 22.8609,13.4688 C22.853,13.4629 22.8471,13.4526 22.8433,13.4377 L22.8086,13.4424 C22.8117,13.4573 22.8169,13.4693 22.8241,13.4784 C22.8314,13.4876 22.8418,13.4946 22.8555,13.4995 C22.8692,13.5044 22.885,13.5069 22.903,13.5069 C22.9209,13.5069 22.9354,13.5048 22.9466,13.5006 C22.9578,13.4964 22.966,13.4911 22.9712,13.4847 C22.9765,13.4783 22.9802,13.4703 22.9823,13.4606 C22.9834,13.4545 22.984,13.4436 22.984,13.4278 L22.984,13.3805 C22.984,13.3475 22.9848,13.3267 22.9863,13.3179 C22.9878,13.3092 22.9908,13.3008 22.9953,13.2928 L22.9582,13.2928 C22.9545,13.3001 22.9522,13.3087 22.9511,13.3186 M22.9482,13.3979 C22.9353,13.3926 22.9159,13.3881 22.8902,13.3845 C22.8756,13.3824 22.8653,13.38 22.8592,13.3774 C22.8532,13.3747 22.8485,13.3709 22.8452,13.3658 C22.8419,13.3608 22.8403,13.3551 22.8403,13.349 C22.8403,13.3395 22.8439,13.3316 22.851,13.3253 C22.8582,13.319 22.8687,13.3158 22.8825,13.3158 C22.8962,13.3158 22.9083,13.3188 22.919,13.3248 C22.9296,13.3308 22.9374,13.339 22.9424,13.3494 C22.9462,13.3574 22.9482,13.3692 22.9482,13.3849 Z M23.0382,13.2928 L23.0382,13.5818 L23.0737,13.5818 L23.0737,13.2928 Z M23.328,13.2928 L23.216,13.5818 L23.2574,13.5818 L23.3326,13.3718 C23.3386,13.355 23.3437,13.3392 23.3477,13.3245 C23.3522,13.3403 23.3574,13.3561 23.3633,13.3718 L23.4414,13.5818 L23.4804,13.5818 L23.3673,13.2928 Z M23.6312,13.3602 L23.6679,13.3557 C23.6621,13.3342 23.6514,13.3176 23.6358,13.3058 C23.6201,13.294 23.6002,13.288 23.5758,13.288 C23.5452,13.288 23.5209,13.2975 23.503,13.3163 C23.485,13.3352 23.4761,13.3617 23.4761,13.3957 C23.4761,13.4309 23.4851,13.4583 23.5033,13.4777 C23.5214,13.4972 23.545,13.5069 23.5739,13.5069 C23.6019,13.5069 23.6247,13.4974 23.6425,13.4783 C23.6602,13.4593 23.6691,13.4324 23.6691,13.3979 C23.6691,13.3958 23.669,13.3926 23.6689,13.3884 L23.5127,13.3884 C23.5141,13.3654 23.5206,13.3478 23.5323,13.3356 C23.544,13.3233 23.5586,13.3172 23.576,13.3172 C23.5891,13.3172 23.6002,13.3206 23.6094,13.3275 C23.6186,13.3343 23.6259,13.3452 23.6312,13.3602 M23.5147,13.4176 L23.6316,13.4176 C23.6301,13.4352 23.6256,13.4484 23.6182,13.4572 C23.6069,13.4709 23.5923,13.4777 23.5743,13.4777 C23.558,13.4777 23.5443,13.4723 23.5332,13.4614 C23.522,13.4504 23.5159,13.4359 23.5147,13.4176 M23.7121,13.2928 L23.7121,13.5022 L23.744,13.5022 L23.744,13.4704 C23.7522,13.4853 23.7597,13.4951 23.7666,13.4998 C23.7735,13.5045 23.7811,13.5069 23.7894,13.5069 C23.8013,13.5069 23.8135,13.5031 23.8258,13.4955 L23.8136,13.4625 C23.8049,13.4677 23.7963,13.4702 23.7876,13.4702 C23.7798,13.4702 23.7729,13.4679 23.7667,13.4632 C23.7605,13.4586 23.7561,13.4521 23.7535,13.4438 C23.7495,13.4312 23.7476,13.4174 23.7476,13.4024 L23.7476,13.2928 Z M23.8327,13.3553 L23.8678,13.3608 C23.8698,13.3467 23.8753,13.336 23.8843,13.3285 C23.8933,13.321 23.9059,13.3172 23.922,13.3172 C23.9383,13.3172 23.9504,13.3205 23.9583,13.3272 C23.9662,13.3338 23.9702,13.3416 23.9702,13.3505 C23.9702,13.3586 23.9667,13.3649 23.9597,13.3695 C23.9548,13.3726 23.9428,13.3766 23.9234,13.3815 C23.8974,13.3881 23.8794,13.3938 23.8693,13.3986 C23.8592,13.4034 23.8516,13.41 23.8464,13.4185 C23.8412,13.427 23.8386,13.4363 23.8386,13.4466 C23.8386,13.4559 23.8408,13.4645 23.845,13.4725 C23.8493,13.4805 23.8551,13.4871 23.8625,13.4923 C23.868,13.4964 23.8755,13.4998 23.8851,13.5027 C23.8946,13.5055 23.9048,13.5069 23.9157,13.5069 C23.9322,13.5069 23.9466,13.5045 23.959,13.4998 C23.9714,13.4951 23.9806,13.4887 23.9865,13.4806 C23.9924,13.4725 23.9965,13.4617 23.9987,13.4481 L23.964,13.4434 C23.9625,13.4542 23.9579,13.4626 23.9503,13.4687 C23.9428,13.4747 23.9321,13.4777 23.9183,13.4777 C23.902,13.4777 23.8904,13.475 23.8834,13.4696 C23.8764,13.4643 23.8729,13.4579 23.8729,13.4507 C23.8729,13.4461 23.8744,13.442 23.8773,13.4383 C23.8802,13.4345 23.8847,13.4313 23.8909,13.4288 C23.8944,13.4275 23.9049,13.4245 23.9222,13.4198 C23.9474,13.413 23.9649,13.4076 23.9748,13.4033 C23.9847,13.399 23.9925,13.3928 23.9982,13.3847 C24.0038,13.3765 24.0066,13.3664 24.0066,13.3543 C24.0066,13.3425 24.0032,13.3313 23.9963,13.3209 C23.9894,13.3104 23.9794,13.3023 23.9664,13.2966 C23.9534,13.2909 23.9387,13.288 23.9222,13.288 C23.895,13.288 23.8743,13.2937 23.86,13.305 C23.8458,13.3163 23.8367,13.3331 23.8327,13.3553 M24.049,13.541 L24.049,13.5818 L24.0845,13.5818 L24.0845,13.541 Z M24.049,13.2928 L24.049,13.5022 L24.0845,13.5022 L24.0845,13.2928 Z M24.1253,13.3975 C24.1253,13.4363 24.1361,13.465 24.1576,13.4836 C24.1756,13.4992 24.1976,13.5069 24.2235,13.5069 C24.2523,13.5069 24.2758,13.4975 24.2941,13.4786 C24.3123,13.4597 24.3215,13.4337 24.3215,13.4004 C24.3215,13.3735 24.3174,13.3523 24.3093,13.3368 C24.3013,13.3214 24.2895,13.3094 24.2741,13.3009 C24.2586,13.2923 24.2417,13.288 24.2235,13.288 C24.1942,13.288 24.1705,13.2974 24.1524,13.3162 C24.1343,13.335 24.1253,13.3621 24.1253,13.3975 M24.1618,13.3975 C24.1618,13.3707 24.1676,13.3506 24.1793,13.3372 C24.191,13.3239 24.2057,13.3172 24.2235,13.3172 C24.2411,13.3172 24.2557,13.3239 24.2674,13.3373 C24.2791,13.3507 24.285,13.3712 24.285,13.3987 C24.285,13.4246 24.2791,13.4442 24.2673,13.4575 C24.2556,13.4709 24.241,13.4775 24.2235,13.4775 C24.2057,13.4775 24.191,13.4709 24.1793,13.4576 C24.1676,13.4443 24.1618,13.4243 24.1618,13.3975 M24.3631,13.2928 L24.3631,13.5022 L24.395,13.5022 L24.395,13.4724 C24.4104,13.4954 24.4326,13.5069 24.4616,13.5069 C24.4743,13.5069 24.4859,13.5046 24.4964,13.5001 C24.507,13.4956 24.5149,13.4896 24.5202,13.4823 C24.5255,13.4749 24.5291,13.4662 24.5312,13.456 C24.5326,13.4495 24.5332,13.438 24.5332,13.4215 L24.5332,13.2928 L24.4977,13.2928 L24.4977,13.4201 C24.4977,13.4346 24.4963,13.4454 24.4936,13.4526 C24.4908,13.4597 24.4859,13.4655 24.4789,13.4697 C24.4719,13.474 24.4636,13.4761 24.4542,13.4761 C24.439,13.4761 24.426,13.4713 24.415,13.4618 C24.404,13.4522 24.3985,13.434 24.3985,13.4071 L24.3985,13.2928 Z" style="fill:#dd0000;fill-rule:evenodd;"/>
            <path d="M21.616,12.8423 L21.616,13.1313 L21.7441,13.1313 C21.7699,13.1313 21.7895,13.1287 21.8029,13.1235 C21.8163,13.1183 21.827,13.1092 21.835,13.096 C21.8431,13.0829 21.8471,13.0684 21.8471,13.0525 C21.8471,13.032 21.8404,13.0147 21.8272,13.0006 C21.8139,12.9865 21.7934,12.9776 21.7656,12.9738 C21.7758,12.9689 21.7835,12.9641 21.7887,12.9594 C21.7999,12.9491 21.8105,12.9363 21.8205,12.9209 L21.8707,12.8423 L21.8226,12.8423 L21.7844,12.9024 C21.7732,12.9198 21.764,12.933 21.7568,12.9422 C21.7495,12.9514 21.7431,12.9579 21.7373,12.9616 C21.7316,12.9652 21.7258,12.9678 21.7199,12.9693 C21.7156,12.9702 21.7085,12.9706 21.6986,12.9706 L21.6542,12.9706 L21.6542,12.8423 Z M21.6542,13.0038 L21.7365,13.0038 C21.7539,13.0038 21.7676,13.0056 21.7775,13.0092 C21.7873,13.0128 21.7948,13.0186 21.7999,13.0265 C21.8051,13.0345 21.8076,13.0431 21.8076,13.0525 C21.8076,13.0661 21.8027,13.0774 21.7928,13.0862 C21.7828,13.095 21.7672,13.0994 21.7457,13.0994 L21.6542,13.0994 Z M22.0391,12.8681 C22.0259,12.8569 22.0133,12.849 22.0011,12.8444 C21.989,12.8398 21.9759,12.8375 21.962,12.8375 C21.939,12.8375 21.9213,12.8432 21.9089,12.8544 C21.8966,12.8656 21.8904,12.88 21.8904,12.8975 C21.8904,12.9077 21.8927,12.9171 21.8974,12.9256 C21.9021,12.9341 21.9082,12.9409 21.9157,12.946 C21.9233,12.9511 21.9318,12.955 21.9413,12.9576 C21.9482,12.9595 21.9588,12.9612 21.9728,12.9629 C22.0015,12.9664 22.0226,12.9704 22.0361,12.9752 C22.0362,12.98 22.0363,12.9831 22.0363,12.9844 C22.0363,12.9989 22.033,13.0091 22.0263,13.015 C22.0172,13.023 22.0037,13.027 21.9858,13.027 C21.9691,13.027 21.9568,13.0241 21.9489,13.0182 C21.9409,13.0124 21.935,13.002 21.9312,12.9872 L21.8965,12.9919 C21.8997,13.0068 21.9049,13.0188 21.9121,13.0279 C21.9193,13.037 21.9298,13.0441 21.9434,13.049 C21.9571,13.0539 21.973,13.0564 21.991,13.0564 C22.0088,13.0564 22.0234,13.0543 22.0345,13.0501 C22.0457,13.0459 22.0539,13.0406 22.0592,13.0342 C22.0644,13.0278 22.0681,13.0198 22.0702,13.0101 C22.0714,13.004 22.072,12.9931 22.072,12.9773 L22.072,12.93 C22.072,12.897 22.0728,12.8761 22.0743,12.8674 C22.0758,12.8587 22.0788,12.8503 22.0832,12.8423 L22.0462,12.8423 C22.0425,12.8496 22.0401,12.8582 22.0391,12.8681 M22.0361,12.9474 C22.0232,12.9421 22.0039,12.9376 21.9781,12.934 C21.9636,12.9319 21.9532,12.9295 21.9472,12.9269 C21.9411,12.9242 21.9365,12.9204 21.9332,12.9153 C21.9299,12.9103 21.9283,12.9046 21.9283,12.8985 C21.9283,12.889 21.9318,12.8811 21.939,12.8748 C21.9462,12.8685 21.9567,12.8653 21.9705,12.8653 C21.9841,12.8653 21.9963,12.8683 22.0069,12.8743 C22.0176,12.8803 22.0254,12.8885 22.0304,12.8989 C22.0342,12.9069 22.0361,12.9187 22.0361,12.9343 Z M22.127,12.8423 L22.127,13.0517 L22.1589,13.0517 L22.1589,13.0219 C22.1743,13.0449 22.1965,13.0564 22.2256,13.0564 C22.2382,13.0564 22.2498,13.0541 22.2604,13.0496 C22.271,13.0451 22.2789,13.0391 22.2841,13.0318 C22.2894,13.0244 22.2931,13.0157 22.2952,13.0055 C22.2965,12.999 22.2972,12.9875 22.2972,12.971 L22.2972,12.8423 L22.2617,12.8423 L22.2617,12.9696 C22.2617,12.9841 22.2603,12.9949 22.2575,13.0021 C22.2548,13.0092 22.2499,13.015 22.2428,13.0192 C22.2358,13.0235 22.2275,13.0256 22.2181,13.0256 C22.203,13.0256 22.1899,13.0208 22.1789,13.0112 C22.168,13.0017 22.1625,12.9834 22.1625,12.9566 L22.1625,12.8423 Z M22.4874,12.8423 L22.4874,12.8687 C22.4741,12.8479 22.4546,12.8375 22.4288,12.8375 C22.4121,12.8375 22.3968,12.8421 22.3828,12.8513 C22.3688,12.8605 22.358,12.8734 22.3503,12.8899 C22.3426,12.9064 22.3387,12.9253 22.3387,12.9468 C22.3387,12.9677 22.3422,12.9866 22.3492,13.0037 C22.3562,13.0207 22.3666,13.0337 22.3805,13.0428 C22.3945,13.0519 22.41,13.0564 22.4273,13.0564 C22.4399,13.0564 22.4511,13.0537 22.461,13.0484 C22.4708,13.0431 22.4789,13.0362 22.485,13.0276 L22.485,13.1313 L22.5203,13.1313 L22.5203,12.8423 Z M22.3752,12.9468 C22.3752,12.92 22.3809,12.8999 22.3922,12.8866 C22.4035,12.8734 22.4168,12.8667 22.4322,12.8667 C22.4477,12.8667 22.4609,12.8731 22.4717,12.8857 C22.4826,12.8984 22.488,12.9178 22.488,12.9438 C22.488,12.9725 22.4825,12.9935 22.4714,13.0069 C22.4604,13.0203 22.4468,13.027 22.4306,13.027 C22.4148,13.027 22.4017,13.0206 22.3911,13.0077 C22.3805,12.9948 22.3752,12.9745 22.3752,12.9468 M22.5629,12.947 C22.5629,12.9857 22.5737,13.0145 22.5952,13.0331 C22.6132,13.0486 22.6352,13.0564 22.6611,13.0564 C22.6899,13.0564 22.7134,13.047 22.7317,13.0281 C22.75,13.0092 22.7591,12.9832 22.7591,12.9499 C22.7591,12.923 22.7551,12.9018 22.747,12.8863 C22.7389,12.8709 22.7271,12.8589 22.7117,12.8504 C22.6962,12.8418 22.6794,12.8375 22.6611,12.8375 C22.6318,12.8375 22.6081,12.8469 22.59,12.8657 C22.5719,12.8845 22.5629,12.9116 22.5629,12.947 M22.5994,12.947 C22.5994,12.9202 22.6052,12.9001 22.6169,12.8867 C22.6286,12.8734 22.6433,12.8667 22.6611,12.8667 C22.6787,12.8667 22.6934,12.8734 22.7051,12.8868 C22.7168,12.9002 22.7226,12.9207 22.7226,12.9482 C22.7226,12.974 22.7167,12.9937 22.705,13.007 C22.6932,13.0204 22.6786,13.027 22.6611,13.027 C22.6433,13.027 22.6286,13.0204 22.6169,13.0071 C22.6052,12.9938 22.5994,12.9738 22.5994,12.947 M22.8007,12.8423 L22.8007,13.0517 L22.8324,13.0517 L22.8324,13.0223 C22.839,13.0325 22.8477,13.0408 22.8586,13.047 C22.8696,13.0533 22.882,13.0564 22.8959,13.0564 C22.9114,13.0564 22.9241,13.0532 22.9341,13.0467 C22.944,13.0403 22.951,13.0313 22.9551,13.0197 C22.9716,13.0442 22.9932,13.0564 23.0197,13.0564 C23.0405,13.0564 23.0565,13.0507 23.0677,13.0391 C23.0788,13.0276 23.0844,13.0099 23.0844,12.986 L23.0844,12.8423 L23.0491,12.8423 L23.0491,12.9742 C23.0491,12.9884 23.048,12.9986 23.0457,13.0048 C23.0434,13.0111 23.0392,13.0161 23.0331,13.0199 C23.0271,13.0237 23.02,13.0256 23.0119,13.0256 C22.9971,13.0256 22.9849,13.0207 22.9752,13.011 C22.9654,13.0012 22.9606,12.9855 22.9606,12.9639 L22.9606,12.8423 L22.9251,12.8423 L22.9251,12.9783 C22.9251,12.9941 22.9222,13.0059 22.9164,13.0138 C22.9106,13.0217 22.9012,13.0256 22.888,13.0256 C22.878,13.0256 22.8688,13.023 22.8603,13.0178 C22.8518,13.0125 22.8457,13.0048 22.8419,12.9947 C22.8381,12.9846 22.8362,12.97 22.8362,12.9509 L22.8362,12.8423 Z M23.2484,12.8423 L23.2484,13.1313 L23.2839,13.1313 L23.2839,12.8423 Z M23.3391,13.0905 L23.3391,13.1313 L23.3746,13.1313 L23.3746,13.0905 Z M23.3391,12.8423 L23.3391,13.0517 L23.3746,13.0517 L23.3746,12.8423 Z M23.4286,12.8423 L23.4286,13.0517 L23.4605,13.0517 L23.4605,13.0219 C23.4759,13.0449 23.4981,13.0564 23.5271,13.0564 C23.5398,13.0564 23.5514,13.0541 23.5619,13.0496 C23.5725,13.0451 23.5804,13.0391 23.5857,13.0318 C23.591,13.0244 23.5946,13.0157 23.5967,13.0055 C23.5981,12.999 23.5987,12.9875 23.5987,12.971 L23.5987,12.8423 L23.5632,12.8423 L23.5632,12.9696 C23.5632,12.9841 23.5618,12.9949 23.5591,13.0021 C23.5563,13.0092 23.5514,13.015 23.5444,13.0192 C23.5374,13.0235 23.5291,13.0256 23.5196,13.0256 C23.5045,13.0256 23.4915,13.0208 23.4805,13.0112 C23.4695,13.0017 23.464,12.9834 23.464,12.9566 L23.464,12.8423 Z M23.7965,12.9097 L23.8331,12.9052 C23.8274,12.8837 23.8166,12.8671 23.801,12.8553 C23.7854,12.8435 23.7654,12.8375 23.7411,12.8375 C23.7104,12.8375 23.6861,12.847 23.6682,12.8658 C23.6503,12.8847 23.6413,12.9111 23.6413,12.9452 C23.6413,12.9804 23.6504,13.0078 23.6685,13.0272 C23.6866,13.0467 23.7102,13.0564 23.7391,13.0564 C23.7671,13.0564 23.79,13.0469 23.8077,13.0278 C23.8254,13.0088 23.8343,12.9819 23.8343,12.9474 C23.8343,12.9453 23.8343,12.9421 23.8341,12.9379 L23.678,12.9379 C23.6793,12.9149 23.6858,12.8973 23.6975,12.8851 C23.7092,12.8728 23.7238,12.8667 23.7413,12.8667 C23.7543,12.8667 23.7654,12.8701 23.7746,12.877 C23.7838,12.8838 23.7911,12.8947 23.7965,12.9097 M23.6799,12.9671 L23.7969,12.9671 C23.7953,12.9847 23.7908,12.9979 23.7834,13.0067 C23.7721,13.0204 23.7575,13.0272 23.7395,13.0272 C23.7232,13.0272 23.7095,13.0218 23.6984,13.0109 C23.6873,12.9999 23.6811,12.9854 23.6799,12.9671 M23.8635,12.9048 L23.8986,12.9103 C23.9005,12.8962 23.906,12.8854 23.915,12.878 C23.924,12.8705 23.9366,12.8667 23.9528,12.8667 C23.9691,12.8667 23.9812,12.87 23.9891,12.8767 C23.997,12.8833 24.0009,12.8911 24.0009,12.9 C24.0009,12.9081 23.9974,12.9144 23.9905,12.919 C23.9856,12.9221 23.9735,12.9261 23.9542,12.931 C23.9282,12.9376 23.9101,12.9433 23.9001,12.9481 C23.89,12.9529 23.8824,12.9595 23.8772,12.968 C23.872,12.9764 23.8694,12.9858 23.8694,12.9961 C23.8694,13.0054 23.8715,13.014 23.8758,13.022 C23.8801,13.0299 23.8859,13.0366 23.8933,13.0418 C23.8988,13.0459 23.9063,13.0493 23.9158,13.0522 C23.9254,13.055 23.9356,13.0564 23.9465,13.0564 C23.9629,13.0564 23.9773,13.054 23.9898,13.0493 C24.0022,13.0446 24.0114,13.0382 24.0173,13.0301 C24.0232,13.022 24.0273,13.0112 24.0295,12.9976 L23.9948,12.9929 C23.9932,13.0037 23.9887,13.0121 23.9811,13.0182 C23.9735,13.0242 23.9629,13.0272 23.9491,13.0272 C23.9328,13.0272 23.9211,13.0245 23.9142,13.0191 C23.9072,13.0137 23.9037,13.0074 23.9037,13.0002 C23.9037,12.9956 23.9051,12.9915 23.908,12.9878 C23.9109,12.984 23.9155,12.9808 23.9216,12.9783 C23.9252,12.977 23.9356,12.974 23.953,12.9693 C23.9781,12.9625 23.9956,12.9571 24.0055,12.9528 C24.0155,12.9485 24.0233,12.9423 24.0289,12.9342 C24.0346,12.926 24.0374,12.9159 24.0374,12.9038 C24.0374,12.892 24.0339,12.8808 24.027,12.8704 C24.0201,12.8599 24.0102,12.8518 23.9972,12.8461 C23.9841,12.8404 23.9694,12.8375 23.953,12.8375 C23.9258,12.8375 23.905,12.8432 23.8908,12.8545 C23.8765,12.8658 23.8674,12.8826 23.8635,12.9048 M24.3284,12.8681 C24.3153,12.8569 24.3026,12.849 24.2905,12.8444 C24.2783,12.8398 24.2653,12.8375 24.2513,12.8375 C24.2283,12.8375 24.2106,12.8432 24.1983,12.8544 C24.1859,12.8656 24.1797,12.88 24.1797,12.8975 C24.1797,12.9077 24.1821,12.9171 24.1867,12.9256 C24.1914,12.9341 24.1975,12.9409 24.2051,12.946 C24.2126,12.9511 24.2211,12.955 24.2306,12.9576 C24.2376,12.9595 24.2481,12.9612 24.2622,12.9629 C24.2908,12.9664 24.3119,12.9704 24.3255,12.9752 C24.3256,12.98 24.3257,12.9831 24.3257,12.9844 C24.3257,12.9989 24.3223,13.0091 24.3156,13.015 C24.3065,13.023 24.2931,13.027 24.2752,13.027 C24.2585,13.027 24.2462,13.0241 24.2382,13.0182 C24.2303,13.0124 24.2244,13.002 24.2206,12.9872 L24.1859,12.9919 C24.189,13.0068 24.1942,13.0188 24.2014,13.0279 C24.2087,13.037 24.2191,13.0441 24.2328,13.049 C24.2465,13.0539 24.2623,13.0564 24.2803,13.0564 C24.2982,13.0564 24.3127,13.0543 24.3239,13.0501 C24.3351,13.0459 24.3433,13.0406 24.3485,13.0342 C24.3538,13.0278 24.3575,13.0198 24.3596,13.0101 C24.3608,13.004 24.3613,12.9931 24.3613,12.9773 L24.3613,12.93 C24.3613,12.897 24.3621,12.8761 24.3636,12.8674 C24.3651,12.8587 24.3681,12.8503 24.3726,12.8423 L24.3355,12.8423 C24.3318,12.8496 24.3295,12.8582 24.3284,12.8681 M24.3255,12.9474 C24.3126,12.9421 24.2933,12.9376 24.2675,12.934 C24.2529,12.9319 24.2426,12.9295 24.2365,12.9269 C24.2305,12.9242 24.2258,12.9204 24.2225,12.9153 C24.2192,12.9103 24.2176,12.9046 24.2176,12.8985 C24.2176,12.889 24.2212,12.8811 24.2283,12.8748 C24.2355,12.8685 24.246,12.8653 24.2598,12.8653 C24.2735,12.8653 24.2856,12.8683 24.2963,12.8743 C24.3069,12.8803 24.3147,12.8885 24.3197,12.8989 C24.3236,12.9069 24.3255,12.9187 24.3255,12.9343 Z M24.5522,12.8423 L24.5522,12.8687 C24.5389,12.8479 24.5194,12.8375 24.4936,12.8375 C24.4769,12.8375 24.4616,12.8421 24.4476,12.8513 C24.4336,12.8605 24.4227,12.8734 24.415,12.8899 C24.4074,12.9064 24.4035,12.9253 24.4035,12.9468 C24.4035,12.9677 24.407,12.9866 24.414,13.0037 C24.4209,13.0207 24.4314,13.0337 24.4453,13.0428 C24.4593,13.0519 24.4748,13.0564 24.492,13.0564 C24.5047,13.0564 24.5159,13.0537 24.5258,13.0484 C24.5356,13.0431 24.5436,13.0362 24.5498,13.0276 L24.5498,13.1313 L24.5851,13.1313 L24.5851,12.8423 Z M24.44,12.9468 C24.44,12.92 24.4456,12.8999 24.457,12.8866 C24.4683,12.8734 24.4816,12.8667 24.497,12.8667 C24.5125,12.8667 24.5257,12.8731 24.5365,12.8857 C24.5474,12.8984 24.5528,12.9178 24.5528,12.9438 C24.5528,12.9725 24.5473,12.9935 24.5362,13.0069 C24.5252,13.0203 24.5116,13.027 24.4954,13.027 C24.4796,13.027 24.4664,13.0206 24.4559,13.0077 C24.4453,12.9948 24.44,12.9745 24.44,12.9468 M24.7767,12.8423 L24.7767,12.8687 C24.7635,12.8479 24.744,12.8375 24.7182,12.8375 C24.7015,12.8375 24.6861,12.8421 24.6721,12.8513 C24.6581,12.8605 24.6473,12.8734 24.6396,12.8899 C24.6319,12.9064 24.6281,12.9253 24.6281,12.9468 C24.6281,12.9677 24.6316,12.9866 24.6385,13.0037 C24.6455,13.0207 24.6559,13.0337 24.6699,13.0428 C24.6838,13.0519 24.6994,13.0564 24.7166,13.0564 C24.7292,13.0564 24.7405,13.0537 24.7503,13.0484 C24.7602,13.0431 24.7682,13.0362 24.7744,13.0276 L24.7744,13.1313 L24.8097,13.1313 L24.8097,12.8423 Z M24.6646,12.9468 C24.6646,12.92 24.6702,12.8999 24.6815,12.8866 C24.6928,12.8734 24.7062,12.8667 24.7215,12.8667 C24.7371,12.8667 24.7502,12.8731 24.7611,12.8857 C24.7719,12.8984 24.7773,12.9178 24.7773,12.9438 C24.7773,12.9725 24.7718,12.9935 24.7608,13.0069 C24.7497,13.0203 24.7361,13.027 24.72,13.027 C24.7042,13.027 24.691,13.0206 24.6804,13.0077 C24.6698,12.9948 24.6646,12.9745 24.6646,12.9468 M25.0088,12.9097 L25.0455,12.9052 C25.0397,12.8837 25.029,12.8671 25.0133,12.8553 C24.9977,12.8435 24.9777,12.8375 24.9534,12.8375 C24.9228,12.8375 24.8985,12.847 24.8805,12.8658 C24.8626,12.8847 24.8536,12.9111 24.8536,12.9452 C24.8536,12.9804 24.8627,13.0078 24.8808,13.0272 C24.899,13.0467 24.9225,13.0564 24.9514,13.0564 C24.9794,13.0564 25.0023,13.0469 25.02,13.0278 C25.0378,13.0088 25.0467,12.9819 25.0467,12.9474 C25.0467,12.9453 25.0466,12.9421 25.0465,12.9379 L24.8903,12.9379 C24.8916,12.9149 24.8981,12.8973 24.9098,12.8851 C24.9215,12.8728 24.9361,12.8667 24.9536,12.8667 C24.9666,12.8667 24.9777,12.8701 24.9869,12.877 C24.9961,12.8838 25.0034,12.8947 25.0088,12.9097 M24.8923,12.9671 L25.0092,12.9671 C25.0076,12.9847 25.0032,12.9979 24.9958,13.0067 C24.9845,13.0204 24.9698,13.0272 24.9518,13.0272 C24.9355,13.0272 24.9218,13.0218 24.9107,13.0109 C24.8996,12.9999 24.8935,12.9854 24.8923,12.9671 M25.2259,12.8423 L25.2259,12.8687 C25.2126,12.8479 25.1931,12.8375 25.1673,12.8375 C25.1506,12.8375 25.1353,12.8421 25.1213,12.8513 C25.1073,12.8605 25.0964,12.8734 25.0887,12.8899 C25.081,12.9064 25.0772,12.9253 25.0772,12.9468 C25.0772,12.9677 25.0807,12.9866 25.0877,13.0037 C25.0946,13.0207 25.1051,13.0337 25.119,13.0428 C25.1329,13.0519 25.1485,13.0564 25.1657,13.0564 C25.1784,13.0564 25.1896,13.0537 25.1995,13.0484 C25.2093,13.0431 25.2173,13.0362 25.2235,13.0276 L25.2235,13.1313 L25.2588,13.1313 L25.2588,12.8423 Z M25.1137,12.9468 C25.1137,12.92 25.1193,12.8999 25.1306,12.8866 C25.1419,12.8734 25.1553,12.8667 25.1707,12.8667 C25.1862,12.8667 25.1994,12.8731 25.2102,12.8857 C25.221,12.8984 25.2265,12.9178 25.2265,12.9438 C25.2265,12.9725 25.2209,12.9935 25.2099,13.0069 C25.1989,13.0203 25.1853,13.027 25.1691,13.027 C25.1533,13.027 25.1401,13.0206 25.1296,13.0077 C25.119,12.9948 25.1137,12.9745 25.1137,12.9468" style="fill:#dd0000;fill-rule:evenodd;"/>
        </g>
        <!-- Line -->
        <path d="M45.8463,7.0596 L34.5493,44.6345 " style="stroke:#000000;stroke-width:0.25;"/>
        <!-- Line -->
        <path d="M47.8004,19.5264 L31.0535,43.7302 " style="stroke:#000000;stroke-width:0.25;"/>
        <!-- Line -->
        <path d="M30.1503,43.733 L38.2255,30.9119 " style="stroke:#000000;stroke-width:0.25;"/>
        <!-- Text: QCAD.org
Trial Version
Random lines added -->
        <g>
            <path d="M22.7613,13.7742 C22.779,13.762 22.7954,13.7531 22.8104,13.7474 L22.7991,13.7208 C22.7784,13.7283 22.7577,13.7401 22.737,13.7563 C22.7156,13.7443 22.6919,13.7383 22.666,13.7383 C22.6399,13.7383 22.6162,13.7447 22.5949,13.7573 C22.5736,13.7699 22.5572,13.7876 22.5457,13.8105 C22.5342,13.8334 22.5284,13.8592 22.5284,13.8878 C22.5284,13.9163 22.5342,13.9423 22.5458,13.9657 C22.5573,13.9891 22.5738,14.0069 22.5952,14.0191 C22.6165,14.0314 22.6404,14.0375 22.6668,14.0375 C22.6935,14.0375 22.7176,14.0311 22.739,14.0184 C22.7604,14.0058 22.7768,13.988 22.788,13.9652 C22.7992,13.9424 22.8049,13.9167 22.8049,13.888 C22.8049,13.8642 22.8012,13.8428 22.794,13.8238 C22.7868,13.8048 22.7759,13.7883 22.7613,13.7742 M22.6771,13.8231 C22.6992,13.817 22.7174,13.8078 22.7317,13.7955 C22.7542,13.816 22.7654,13.8469 22.7654,13.888 C22.7654,13.9114 22.7614,13.9318 22.7535,13.9493 C22.7455,13.9668 22.7339,13.9804 22.7186,13.99 C22.7033,13.9997 22.6861,14.0045 22.667,14.0045 C22.6385,14.0045 22.6148,13.9948 22.596,13.9753 C22.5772,13.9557 22.5678,13.9266 22.5678,13.8878 C22.5678,13.8502 22.5771,13.8214 22.5957,13.8012 C22.6143,13.7811 22.6381,13.7711 22.667,13.7711 C22.6807,13.7711 22.6936,13.7736 22.7057,13.7788 C22.6937,13.7865 22.6811,13.792 22.6678,13.7953 Z M23.0626,13.8446 L23.1008,13.835 C23.0928,13.8035 23.0784,13.7796 23.0575,13.7631 C23.0367,13.7466 23.0112,13.7383 22.9811,13.7383 C22.95,13.7383 22.9246,13.7447 22.9051,13.7574 C22.8856,13.7701 22.8707,13.7884 22.8605,13.8125 C22.8504,13.8365 22.8453,13.8624 22.8453,13.89 C22.8453,13.9201 22.851,13.9463 22.8625,13.9687 C22.874,13.9912 22.8904,14.0082 22.9116,14.0198 C22.9328,14.0315 22.9562,14.0373 22.9817,14.0373 C23.0106,14.0373 23.035,14.0299 23.0547,14.0152 C23.0744,14.0005 23.0881,13.9798 23.0959,13.9531 L23.0582,13.9442 C23.0515,13.9652 23.0418,13.9805 23.029,13.9901 C23.0163,13.9997 23.0002,14.0045 22.9809,14.0045 C22.9587,14.0045 22.9401,13.9992 22.9252,13.9886 C22.9103,13.9779 22.8998,13.9636 22.8938,13.9457 C22.8877,13.9277 22.8847,13.9092 22.8847,13.8902 C22.8847,13.8656 22.8883,13.8441 22.8954,13.8258 C22.9026,13.8075 22.9138,13.7938 22.9289,13.7847 C22.944,13.7756 22.9604,13.7711 22.978,13.7711 C22.9994,13.7711 23.0175,13.7773 23.0324,13.7896 C23.0472,13.802 23.0573,13.8203 23.0626,13.8446 M23.1161,13.7433 L23.2271,14.0323 L23.2684,14.0323 L23.3867,13.7433 L23.3431,13.7433 L23.3094,13.8308 L23.1885,13.8308 L23.1568,13.7433 Z M23.1995,13.862 L23.2975,13.862 L23.2674,13.942 C23.2582,13.9663 23.2513,13.9863 23.2469,14.002 C23.2432,13.9834 23.238,13.965 23.2313,13.9468 Z M23.4172,13.7433 L23.4172,14.0323 L23.5168,14.0323 C23.5392,14.0323 23.5564,14.031 23.5682,14.0282 C23.5848,14.0244 23.5989,14.0175 23.6106,14.0075 C23.6259,13.9946 23.6373,13.9781 23.6448,13.9581 C23.6524,13.9381 23.6562,13.9151 23.6562,13.8894 C23.6562,13.8674 23.6536,13.848 23.6485,13.831 C23.6433,13.8141 23.6368,13.8 23.6287,13.7889 C23.6207,13.7778 23.612,13.7691 23.6024,13.7627 C23.5929,13.7563 23.5814,13.7515 23.5679,13.7482 C23.5544,13.7449 23.539,13.7433 23.5215,13.7433 Z M23.4554,13.7774 L23.5171,13.7774 C23.5362,13.7774 23.5512,13.7792 23.562,13.7827 C23.5728,13.7863 23.5815,13.7913 23.5879,13.7977 C23.597,13.8068 23.6041,13.819 23.6091,13.8343 C23.6142,13.8496 23.6167,13.8682 23.6167,13.89 C23.6167,13.9202 23.6118,13.9434 23.6018,13.9597 C23.5919,13.9759 23.5798,13.9868 23.5657,13.9923 C23.5554,13.9963 23.5389,13.9982 23.5162,13.9982 L23.4554,13.9982 Z M23.7143,13.7433 L23.7143,13.7837 L23.7547,13.7837 L23.7547,13.7433 Z M23.8032,13.848 C23.8032,13.8868 23.814,13.9155 23.8355,13.9341 C23.8535,13.9497 23.8755,13.9574 23.9014,13.9574 C23.9302,13.9574 23.9537,13.948 23.972,13.9291 C23.9902,13.9103 23.9994,13.8842 23.9994,13.8509 C23.9994,13.824 23.9953,13.8028 23.9873,13.7873 C23.9792,13.7719 23.9674,13.7599 23.952,13.7514 C23.9365,13.7428 23.9197,13.7385 23.9014,13.7385 C23.8721,13.7385 23.8484,13.7479 23.8303,13.7667 C23.8122,13.7855 23.8032,13.8126 23.8032,13.848 M23.8397,13.848 C23.8397,13.8212 23.8455,13.8011 23.8572,13.7877 C23.8689,13.7744 23.8836,13.7677 23.9014,13.7677 C23.919,13.7677 23.9337,13.7744 23.9454,13.7878 C23.9571,13.8012 23.9629,13.8217 23.9629,13.8492 C23.9629,13.8751 23.957,13.8947 23.9453,13.908 C23.9335,13.9214 23.9189,13.928 23.9014,13.928 C23.8836,13.928 23.8689,13.9214 23.8572,13.9081 C23.8455,13.8948 23.8397,13.8748 23.8397,13.848 M24.0406,13.7433 L24.0406,13.9527 L24.0725,13.9527 L24.0725,13.9209 C24.0807,13.9358 24.0882,13.9456 24.0951,13.9503 C24.102,13.955 24.1096,13.9574 24.1179,13.9574 C24.1298,13.9574 24.142,13.9536 24.1543,13.946 L24.1421,13.913 C24.1334,13.9182 24.1248,13.9207 24.1161,13.9207 C24.1083,13.9207 24.1014,13.9184 24.0952,13.9137 C24.089,13.9091 24.0846,13.9026 24.082,13.8943 C24.078,13.8817 24.0761,13.8679 24.0761,13.8529 L24.0761,13.7433 Z M24.1689,13.7259 L24.2034,13.7208 C24.2049,13.7101 24.2089,13.7024 24.2154,13.6975 C24.2243,13.691 24.2363,13.6877 24.2515,13.6877 C24.268,13.6877 24.2806,13.691 24.2896,13.6975 C24.2985,13.7041 24.3046,13.7133 24.3077,13.7251 C24.3096,13.7324 24.3104,13.7475 24.3103,13.7707 C24.2948,13.7524 24.2755,13.7433 24.2523,13.7433 C24.2235,13.7433 24.2013,13.7537 24.1855,13.7744 C24.1697,13.7952 24.1618,13.8201 24.1618,13.8492 C24.1618,13.8691 24.1654,13.8876 24.1727,13.9045 C24.1799,13.9214 24.1904,13.9344 24.2041,13.9436 C24.2178,13.9528 24.234,13.9574 24.2525,13.9574 C24.2772,13.9574 24.2976,13.9474 24.3136,13.9274 L24.3136,13.9527 L24.3464,13.9527 L24.3464,13.7717 C24.3464,13.7391 24.3431,13.716 24.3364,13.7024 C24.3298,13.6888 24.3193,13.678 24.3049,13.6701 C24.2905,13.6622 24.2728,13.6583 24.2517,13.6583 C24.2268,13.6583 24.2066,13.6639 24.1912,13.6752 C24.1758,13.6864 24.1684,13.7033 24.1689,13.7259 M24.1983,13.8517 C24.1983,13.8242 24.2037,13.8042 24.2147,13.7916 C24.2256,13.779 24.2392,13.7727 24.2557,13.7727 C24.272,13.7727 24.2856,13.7789 24.2967,13.7915 C24.3077,13.804 24.3132,13.8237 24.3132,13.8505 C24.3132,13.8762 24.3076,13.8955 24.2962,13.9085 C24.2848,13.9215 24.2711,13.928 24.2551,13.928 C24.2393,13.928 24.2259,13.9216 24.2149,13.9088 C24.2038,13.896 24.1983,13.877 24.1983,13.8517" style="fill:#dd0000;fill-rule:evenodd;"/>
            <path d="M22.4368,13.2928 L22.4368,13.5477 L22.3416,13.5477 L22.3416,13.5818 L22.5707,13.5818 L22.5707,13.5477 L22.4751,13.5477 L22.4751,13.2928 Z M22.59,13.2928 L22.59,13.5022 L22.6219,13.5022 L22.6219,13.4704 C22.63,13.4853 22.6376,13.4951 22.6445,13.4998 C22.6514,13.5045 22.659,13.5069 22.6672,13.5069 C22.6792,13.5069 22.6914,13.5031 22.7037,13.4955 L22.6915,13.4625 C22.6828,13.4677 22.6741,13.4702 22.6655,13.4702 C22.6577,13.4702 22.6507,13.4679 22.6446,13.4632 C22.6384,13.4586 22.634,13.4521 22.6314,13.4438 C22.6274,13.4312 22.6254,13.4174 22.6254,13.4024 L22.6254,13.2928 Z M22.725,13.541 L22.725,13.5818 L22.7605,13.5818 L22.7605,13.541 Z M22.725,13.2928 L22.725,13.5022 L22.7605,13.5022 L22.7605,13.2928 Z M22.9511,13.3186 C22.938,13.3074 22.9253,13.2995 22.9132,13.2949 C22.901,13.2903 22.8879,13.288 22.874,13.288 C22.851,13.288 22.8333,13.2937 22.821,13.3049 C22.8086,13.3161 22.8024,13.3305 22.8024,13.348 C22.8024,13.3582 22.8048,13.3676 22.8094,13.3761 C22.8141,13.3846 22.8202,13.3914 22.8278,13.3965 C22.8353,13.4016 22.8438,13.4055 22.8533,13.4081 C22.8603,13.41 22.8708,13.4117 22.8849,13.4134 C22.9135,13.4169 22.9346,13.4209 22.9482,13.4257 C22.9483,13.4305 22.9484,13.4336 22.9484,13.4349 C22.9484,13.4494 22.945,13.4596 22.9383,13.4655 C22.9292,13.4735 22.9158,13.4775 22.8979,13.4775 C22.8812,13.4775 22.8689,13.4746 22.8609,13.4688 C22.853,13.4629 22.8471,13.4526 22.8433,13.4377 L22.8086,13.4424 C22.8117,13.4573 22.8169,13.4693 22.8241,13.4784 C22.8314,13.4876 22.8418,13.4946 22.8555,13.4995 C22.8692,13.5044 22.885,13.5069 22.903,13.5069 C22.9209,13.5069 22.9354,13.5048 22.9466,13.5006 C22.9578,13.4964 22.966,13.4911 22.9712,13.4847 C22.9765,13.4783 22.9802,13.4703 22.9823,13.4606 C22.9834,13.4545 22.984,13.4436 22.984,13.4278 L22.984,13.3805 C22.984,13.3475 22.9848,13.3267 22.9863,13.3179 C22.9878,13.3092 22.9908,13.3008 22.9953,13.2928 L22.9582,13.2928 C22.9545,13.3001 22.9522,13.3087 22.9511,13.3186 M22.9482,13.3979 C22.9353,13.3926 22.9159,13.3881 22.8902,13.3845 C22.8756,13.3824 22.8653,13.38 22.8592,13.3774 C22.8532,13.3747 22.8485,13.3709 22.8452,13.3658 C22.8419,13.3608 22.8403,13.3551 22.8403,13.349 C22.8403,13.3395 22.8439,13.3316 22.851,13.3253 C22.8582,13.319 22.8687,13.3158 22.8825,13.3158 C22.8962,13.3158 22.9083,13.3188 22.919,13.3248 C22.9296,13.3308 22.9374,13.339 22.9424,13.3494 C22.9462,13.3574 22.9482,13.3692 22.9482,13.3849 Z M23.0382,13.2928 L23.0382,13.5818 L23.0737,13.5818 L23.0737,13.2928 Z M23.328,13.2928 L23.216,13.5818 L23.2574,13.5818 L23.3326,13.3718 C23.3386,13.355 23.3437,13.3392 23.3477,13.3245 C23.3522,13.3403 23.3574,13.3561 23.3633,13.3718 L23.4414,13.5818 L23.4804,13.5818 L23.3673,13.2928 Z M23.6312,13.3602 L23.6679,13.3557 C23.6621,13.3342 23.6514,13.3176 23.6358,13.3058 C23.6201,13.294 23.6002,13.288 23.5758,13.288 C23.5452,13.288 23.5209,13.2975 23.503,13.3163 C23.485,13.3352 23.4761,13.3617 23.4761,13.3957 C23.4761,13.4309 23.4851,13.4583 23.5033,13.4777 C23.5214,13.4972 23.545,13.5069 23.5739,13.5069 C23.6019,13.5069 23.6247,13.4974 23.6425,13.4783 C23.6602,13.4593 23.6691,13.4324 23.6691,13.3979 C23.6691,13.3958 23.669,13.3926 23.6689,13.3884 L23.5127,13.3884 C23.5141,13.3654 23.5206,13.3478 23.5323,13.3356 C23.544,13.3233 23.5586,13.3172 23.576,13.3172 C23.5891,13.3172 23.6002,13.3206 23.6094,13.3275 C23.6186,13.3343 23.6259,13.3452 23.6312,13.3602 M23.5147,13.4176 L23.6316,13.4176 C23.6301,13.4352 23.6256,13.4484 23.6182,13.4572 C23.6069,13.4709 23.5923,13.4777 23.5743,13.4777 C23.558,13.4777 23.5443,13.4723 23.5332,13.4614 C23.522,13.4504 23.5159,13.4359 23.5147,13.4176 M23.7121,13.2928 L23.7121,13.5022 L23.744,13.5022 L23.744,13.4704 C23.7522,13.4853 23.7597,13.4951 23.7666,13.4998 C23.7735,13.5045 23.7811,13.5069 23.7894,13.5069 C23.8013,13.5069 23.8135,13.5031 23.8258,13.4955 L23.8136,13.4625 C23.8049,13.4677 23.7963,13.4702 23.7876,13.4702 C23.7798,13.4702 23.7729,13.4679 23.7667,13.4632 C23.7605,13.4586 23.7561,13.4521 23.7535,13.4438 C23.7495,13.4312 23.7476,13.4174 23.7476,13.4024 L23.7476,13.2928 Z M23.8327,13.3553 L23.8678,13.3608 C23.8698,13.3467 23.8753,13.336 23.8843,13.3285 C23.8933,13.321 23.9059,13.3172 23.922,13.3172 C23.9383,13.3172 23.9504,13.3205 23.9583,13.3272 C23.9662,13.3338 23.9702,13.3416 23.9702,13.3505 C23.9702,13.3586 23.9667,13.3649 23.9597,13.3695 C23.9548,13.3726 23.9428,13.3766 23.9234,13.3815 C23.8974,13.3881 23.8794,13.3938 23.8693,13.3986 C23.8592,13.4034 23.8516,13.41 23.8464,13.4185 C23.8412,13.427 23.8386,13.4363 23.8386,13.4466 C23.8386,13.4559 23.8408,13.4645 23.845,13.4725 C23.8493,13.4805 23.8551,13.4871 23.8625,13.4923 C23.868,13.4964 23.8755,13.4998 23.8851,13.5027 C23.8946,13.5055 23.9048,13.5069 23.9157,13.5069 C23.9322,13.5069 23.9466,13.5045 23.959,13.4998 C23.9714,13.4951 23.9806,13.4887 23.9865,13.4806 C23.9924,13.4725 23.9965,13.4617 23.9987,13.4481 L23.964,13.4434 C23.9625,13.4542 23.9579,13.4626 23.9503,13.4687 C23.9428,13.4747 23.9321,13.4777 23.9183,13.4777 C23.902,13.4777 23.8904,13.475 23.8834,13.4696 C23.8764,13.4643 23.8729,13.4579 23.8729,13.4507 C23.8729,13.4461 23.8744,13.442 23.8773,13.4383 C23.8802,13.4345 23.8847,13.4313 23.8909,13.4288 C23.8944,13.4275 23.9049,13.4245 23.9222,13.4198 C23.9474,13.413 23.9649,13.4076 23.9748,13.4033 C23.9847,13.399 23.9925,13.3928 23.9982,13.3847 C24.0038,13.3765 24.0066,13.3664 24.0066,13.3543 C24.0066,13.3425 24.0032,13.3313 23.9963,13.3209 C23.9894,13.3104 23.9794,13.3023 23.9664,13.2966 C23.9534,13.2909 23.9387,13.288 23.9222,13.288 C23.895,13.288 23.8743,13.2937 23.86,13.305 C23.8458,13.3163 23.8367,13.3331 23.8327,13.3553 M24.049,13.541 L24.049,13.5818 L24.0845,13.5818 L24.0845,13.541 Z M24.049,13.2928 L24.049,13.5022 L24.0845,13.5022 L24.0845,13.2928 Z M24.1253,13.3975 C24.1253,13.4363 24.1361,13.465 24.1576,13.4836 C24.1756,13.4992 24.1976,13.5069 24.2235,13.5069 C24.2523,13.5069 24.2758,13.4975 24.2941,13.4786 C24.3123,13.4597 24.3215,13.4337 24.3215,13.4004 C24.3215,13.3735 24.3174,13.3523 24.3093,13.3368 C24.3013,13.3214 24.2895,13.3094 24.2741,13.3009 C24.2586,13.2923 24.2417,13.288 24.2235,13.288 C24.1942,13.288 24.1705,13.2974 24.1524,13.3162 C24.1343,13.335 24.1253,13.3621 24.1253,13.3975 M24.1618,13.3975 C24.1618,13.3707 24.1676,13.3506 24.1793,13.3372 C24.191,13.3239 24.2057,13.3172 24.2235,13.3172 C24.2411,13.3172 24.2557,13.3239 24.2674,13.3373 C24.2791,13.3507 24.285,13.3712 24.285,13.3987 C24.285,13.4246 24.2791,13.4442 24.2673,13.4575 C24.2556,13.4709 24.241,13.4775 24.2235,13.4775 C24.2057,13.4775 24.191,13.4709 24.1793,13.4576 C24.1676,13.4443 24.1618,13.4243 24.1618,13.3975 M24.3631,13.2928 L24.3631,13.5022 L24.395,13.5022 L24.395,13.4724 C24.4104,13.4954 24.4326,13.5069 24.4616,13.5069 C24.4743,13.5069 24.4859,13.5046 24.4964,13.5001 C24.507,13.4956 24.5149,13.4896 24.5202,13.4823 C24.5255,13.4749 24.5291,13.4662 24.5312,13.456 C24.5326,13.4495 24.5332,13.438 24.5332,13.4215 L24.5332,13.2928 L24.4977,13.2928 L24.4977,13.4201 C24.4977,13.4346 24.4963,13.4454 24.4936,13.4526 C24.4908,13.4597 24.4859,13.4655 24.4789,13.4697 C24.4719,13.474 24.4636,13.4761 24.4542,13.4761 C24.439,13.4761 24.426,13.4713 24.415,13.4618 C24.404,13.4522 24.3985,13.434 24.3985,13.4071 L24.3985,13.2928 Z" style="fill:#dd0000;fill-rule:evenodd;"/>
            <path d="M21.616,12.8423 L21.616,13.1313 L21.7441,13.1313 C21.7699,13.1313 21.7895,13.1287 21.8029,13.1235 C21.8163,13.1183 21.827,13.1092 21.835,13.096 C21.8431,13.0829 21.8471,13.0684 21.8471,13.0525 C21.8471,13.032 21.8404,13.0147 21.8272,13.0006 C21.8139,12.9865 21.7934,12.9776 21.7656,12.9738 C21.7758,12.9689 21.7835,12.9641 21.7887,12.9594 C21.7999,12.9491 21.8105,12.9363 21.8205,12.9209 L21.8707,12.8423 L21.8226,12.8423 L21.7844,12.9024 C21.7732,12.9198 21.764,12.933 21.7568,12.9422 C21.7495,12.9514 21.7431,12.9579 21.7373,12.9616 C21.7316,12.9652 21.7258,12.9678 21.7199,12.9693 C21.7156,12.9702 21.7085,12.9706 21.6986,12.9706 L21.6542,12.9706 L21.6542,12.8423 Z M21.6542,13.0038 L21.7365,13.0038 C21.7539,13.0038 21.7676,13.0056 21.7775,13.0092 C21.7873,13.0128 21.7948,13.0186 21.7999,13.0265 C21.8051,13.0345 21.8076,13.0431 21.8076,13.0525 C21.8076,13.0661 21.8027,13.0774 21.7928,13.0862 C21.7828,13.095 21.7672,13.0994 21.7457,13.0994 L21.6542,13.0994 Z M22.0391,12.8681 C22.0259,12.8569 22.0133,12.849 22.0011,12.8444 C21.989,12.8398 21.9759,12.8375 21.962,12.8375 C21.939,12.8375 21.9213,12.8432 21.9089,12.8544 C21.8966,12.8656 21.8904,12.88 21.8904,12.8975 C21.8904,12.9077 21.8927,12.9171 21.8974,12.9256 C21.9021,12.9341 21.9082,12.9409 21.9157,12.946 C21.9233,12.9511 21.9318,12.955 21.9413,12.9576 C21.9482,12.9595 21.9588,12.9612 21.9728,12.9629 C22.0015,12.9664 22.0226,12.9704 22.0361,12.9752 C22.0362,12.98 22.0363,12.9831 22.0363,12.9844 C22.0363,12.9989 22.033,13.0091 22.0263,13.015 C22.0172,13.023 22.0037,13.027 21.9858,13.027 C21.9691,13.027 21.9568,13.0241 21.9489,13.0182 C21.9409,13.0124 21.935,13.002 21.9312,12.9872 L21.8965,12.9919 C21.8997,13.0068 21.9049,13.0188 21.9121,13.0279 C21.9193,13.037 21.9298,13.0441 21.9434,13.049 C21.9571,13.0539 21.973,13.0564 21.991,13.0564 C22.0088,13.0564 22.0234,13.0543 22.0345,13.0501 C22.0457,13.0459 22.0539,13.0406 22.0592,13.0342 C22.0644,13.0278 22.0681,13.0198 22.0702,13.0101 C22.0714,13.004 22.072,12.9931 22.072,12.9773 L22.072,12.93 C22.072,12.897 22.0728,12.8761 22.0743,12.8674 C22.0758,12.8587 22.0788,12.8503 22.0832,12.8423 L22.0462,12.8423 C22.0425,12.8496 22.0401,12.8582 22.0391,12.8681 M22.0361,12.9474 C22.0232,12.9421 22.0039,12.9376 21.9781,12.934 C21.9636,12.9319 21.9532,12.9295 21.9472,12.9269 C21.9411,12.9242 21.9365,12.9204 21.9332,12.9153 C21.9299,12.9103 21.9283,12.9046 21.9283,12.8985 C21.9283,12.889 21.9318,12.8811 21.939,12.8748 C21.9462,12.8685 21.9567,12.8653 21.9705,12.8653 C21.9841,12.8653 21.9963,12.8683 22.0069,12.8743 C22.0176,12.8803 22.0254,12.8885 22.0304,12.8989 C22.0342,12.9069 22.0361,12.9187 22.0361,12.9343 Z M22.127,12.8423 L22.127,13.0517 L22.1589,13.0517 L22.1589,13.0219 C22.1743,13.0449 22.1965,13.0564 22.2256,13.0564 C22.2382,13.0564 22.2498,13.0541 22.2604,13.0496 C22.271,13.0451 22.2789,13.0391 22.2841,13.0318 C22.2894,13.0244 22.2931,13.0157 22.2952,13.0055 C22.2965,12.999 22.2972,12.9875 22.2972,12.971 L22.2972,12.8423 L22.2617,12.8423 L22.2617,12.9696 C22.2617,12.9841 22.2603,12.9949 22.2575,13.0021 C22.2548,13.0092 22.2499,13.015 22.2428,13.0192 C22.2358,13.0235 22.2275,13.0256 22.2181,13.0256 C22.203,13.0256 22.1899,13.0208 22.1789,13.0112 C22.168,13.0017 22.1625,12.9834 22.1625,12.9566 L22.1625,12.8423 Z M22.4874,12.8423 L22.4874,12.8687 C22.4741,12.8479 22.4546,12.8375 22.4288,12.8375 C22.4121,12.8375 22.3968,12.8421 22.3828,12.8513 C22.3688,12.8605 22.358,12.8734 22.3503,12.8899 C22.3426,12.9064 22.3387,12.9253 22.3387,12.9468 C22.3387,12.9677 22.3422,12.9866 22.3492,13.0037 C22.3562,13.0207 22.3666,13.0337 22.3805,13.0428 C22.3945,13.0519 22.41,13.0564 22.4273,13.0564 C22.4399,13.0564 22.4511,13.0537 22.461,13.0484 C22.4708,13.0431 22.4789,13.0362 22.485,13.0276 L22.485,13.1313 L22.5203,13.1313 L22.5203,12.8423 Z M22.3752,12.9468 C22.3752,12.92 22.3809,12.8999 22.3922,12.8866 C22.4035,12.8734 22.4168,12.8667 22.4322,12.8667 C22.4477,12.8667 22.4609,12.8731 22.4717,12.8857 C22.4826,12.8984 22.488,12.9178 22.488,12.9438 C22.488,12.9725 22.4825,12.9935 22.4714,13.0069 C22.4604,13.0203 22.4468,13.027 22.4306,13.027 C22.4148,13.027 22.4017,13.0206 22.3911,13.0077 C22.3805,12.9948 22.3752,12.9745 22.3752,12.9468 M22.5629,12.947 C22.5629,12.9857 22.5737,13.0145 22.5952,13.0331 C22.6132,13.0486 22.6352,13.0564 22.6611,13.0564 C22.6899,13.0564 22.7134,13.047 22.7317,13.0281 C22.75,13.0092 22.7591,12.9832 22.7591,12.9499 C22.7591,12.923 22.7551,12.9018 22.747,12.8863 C22.7389,12.8709 22.7271,12.8589 22.7117,12.8504 C22.6962,12.8418 22.6794,12.8375 22.6611,12.8375 C22.6318,12.8375 22.6081,12.8469 22.59,12.8657 C22.5719,12.8845 22.5629,12.9116 22.5629,12.947 M22.5994,12.947 C22.5994,12.9202 22.6052,12.9001 22.6169,12.8867 C22.6286,12.8734 22.6433,12.8667 22.6611,12.8667 C22.6787,12.8667 22.6934,12.8734 22.7051,12.8868 C22.7168,12.9002 22.7226,12.9207 22.7226,12.9482 C22.7226,12.974 22.7167,12.9937 22.705,13.007 C22.6932,13.0204 22.6786,13.027 22.6611,13.027 C22.6433,13.027 22.6286,13.0204 22.6169,13.0071 C22.6052,12.9938 22.5994,12.9738 22.5994,12.947 M22.8007,12.8423 L22.8007,13.0517 L22.8324,13.0517 L22.8324,13.0223 C22.839,13.0325 22.8477,13.0408 22.8586,13.047 C22.8696,13.0533 22.882,13.0564 22.8959,13.0564 C22.9114,13.0564 22.9241,13.0532 22.9341,13.0467 C22.944,13.0403 22.951,13.0313 22.9551,13.0197 C22.9716,13.0442 22.9932,13.0564 23.0197,13.0564 C23.0405,13.0564 23.0565,13.0507 23.0677,13.0391 C23.0788,13.0276 23.0844,13.0099 23.0844,12.986 L23.0844,12.8423 L23.0491,12.8423 L23.0491,12.9742 C23.0491,12.9884 23.048,12.9986 23.0457,13.0048 C23.0434,13.0111 23.0392,13.0161 23.0331,13.0199 C23.0271,13.0237 23.02,13.0256 23.0119,13.0256 C22.9971,13.0256 22.9849,13.0207 22.9752,13.011 C22.9654,13.0012 22.9606,12.9855 22.9606,12.9639 L22.9606,12.8423 L22.9251,12.8423 L22.9251,12.9783 C22.9251,12.9941 22.9222,13.0059 22.9164,13.0138 C22.9106,13.0217 22.9012,13.0256 22.888,13.0256 C22.878,13.0256 22.8688,13.023 22.8603,13.0178 C22.8518,13.0125 22.8457,13.0048 22.8419,12.9947 C22.8381,12.9846 22.8362,12.97 22.8362,12.9509 L22.8362,12.8423 Z M23.2484,12.8423 L23.2484,13.1313 L23.2839,13.1313 L23.2839,12.8423 Z M23.3391,13.0905 L23.3391,13.1313 L23.3746,13.1313 L23.3746,13.0905 Z M23.3391,12.8423 L23.3391,13.0517 L23.3746,13.0517 L23.3746,12.8423 Z M23.4286,12.8423 L23.4286,13.0517 L23.4605,13.0517 L23.4605,13.0219 C23.4759,13.0449 23.4981,13.0564 23.5271,13.0564 C23.5398,13.0564 23.5514,13.0541 23.5619,13.0496 C23.5725,13.0451 23.5804,13.0391 23.5857,13.0318 C23.591,13.0244 23.5946,13.0157 23.5967,13.0055 C23.5981,12.999 23.5987,12.9875 23.5987,12.971 L23.5987,12.8423 L23.5632,12.8423 L23.5632,12.9696 C23.5632,12.9841 23.5618,12.9949 23.5591,13.0021 C23.5563,13.0092 23.5514,13.015 23.5444,13.0192 C23.5374,13.0235 23.5291,13.0256 23.5196,13.0256 C23.5045,13.0256 23.4915,13.0208 23.4805,13.0112 C23.4695,13.0017 23.464,12.9834 23.464,12.9566 L23.464,12.8423 Z M23.7965,12.9097 L23.8331,12.9052 C23.8274,12.8837 23.8166,12.8671 23.801,12.8553 C23.7854,12.8435 23.7654,12.8375 23.7411,12.8375 C23.7104,12.8375 23.6861,12.847 23.6682,12.8658 C23.6503,12.8847 23.6413,12.9111 23.6413,12.9452 C23.6413,12.9804 23.6504,13.0078 23.6685,13.0272 C23.6866,13.0467 23.7102,13.0564 23.7391,13.0564 C23.7671,13.0564 23.79,13.0469 23.8077,13.0278 C23.8254,13.0088 23.8343,12.9819 23.8343,12.9474 C23.8343,12.9453 23.8343,12.9421 23.8341,12.9379 L23.678,12.9379 C23.6793,12.9149 23.6858,12.8973 23.6975,12.8851 C23.7092,12.8728 23.7238,12.8667 23.7413,12.8667 C23.7543,12.8667 23.7654,12.8701 23.7746,12.877 C23.7838,12.8838 23.7911,12.8947 23.7965,12.9097 M23.6799,12.9671 L23.7969,12.9671 C23.7953,12.9847 23.7908,12.9979 23.7834,13.0067 C23.7721,13.0204 23.7575,13.0272 23.7395,13.0272 C23.7232,13.0272 23.7095,13.0218 23.6984,13.0109 C23.6873,12.9999 23.6811,12.9854 23.6799,12.9671 M23.8635,12.9048 L23.8986,12.9103 C23.9005,12.8962 23.906,12.8854 23.915,12.878 C23.924,12.8705 23.9366,12.8667 23.9528,12.8667 C23.9691,12.8667 23.9812,12.87 23.9891,12.8767 C23.997,12.8833 24.0009,12.8911 24.0009,12.9 C24.0009,12.9081 23.9974,12.9144 23.9905,12.919 C23.9856,12.9221 23.9735,12.9261 23.9542,12.931 C23.9282,12.9376 23.9101,12.9433 23.9001,12.9481 C23.89,12.9529 23.8824,12.9595 23.8772,12.968 C23.872,12.9764 23.8694,12.9858 23.8694,12.9961 C23.8694,13.0054 23.8715,13.014 23.8758,13.022 C23.8801,13.0299 23.8859,13.0366 23.8933,13.0418 C23.8988,13.0459 23.9063,13.0493 23.9158,13.0522 C23.9254,13.055 23.9356,13.0564 23.9465,13.0564 C23.9629,13.0564 23.9773,13.054 23.9898,13.0493 C24.0022,13.0446 24.0114,13.0382 24.0173,13.0301 C24.0232,13.022 24.0273,13.0112 24.0295,12.9976 L23.9948,12.9929 C23.9932,13.0037 23.9887,13.0121 23.9811,13.0182 C23.9735,13.0242 23.9629,13.0272 23.9491,13.0272 C23.9328,13.0272 23.9211,13.0245 23.9142,13.0191 C23.9072,13.0137 23.9037,13.0074 23.9037,13.0002 C23.9037,12.9956 23.9051,12.9915 23.908,12.9878 C23.9109,12.984 23.9155,12.9808 23.9216,12.9783 C23.9252,12.977 23.9356,12.974 23.953,12.9693 C23.9781,12.9625 23.9956,12.9571 24.0055,12.9528 C24.0155,12.9485 24.0233,12.9423 24.0289,12.9342 C24.0346,12.926 24.0374,12.9159 24.0374,12.9038 C24.0374,12.892 24.0339,12.8808 24.027,12.8704 C24.0201,12.8599 24.0102,12.8518 23.9972,12.8461 C23.9841,12.8404 23.9694,12.8375 23.953,12.8375 C23.9258,12.8375 23.905,12.8432 23.8908,12.8545 C23.8765,12.8658 23.8674,12.8826 23.8635,12.9048 M24.3284,12.8681 C24.3153,12.8569 24.3026,12.849 24.2905,12.8444 C24.2783,12.8398 24.2653,12.8375 24.2513,12.8375 C24.2283,12.8375 24.2106,12.8432 24.1983,12.8544 C24.1859,12.8656 24.1797,12.88 24.1797,12.8975 C24.1797,12.9077 24.1821,12.9171 24.1867,12.9256 C24.1914,12.9341 24.1975,12.9409 24.2051,12.946 C24.2126,12.9511 24.2211,12.955 24.2306,12.9576 C24.2376,12.9595 24.2481,12.9612 24.2622,12.9629 C24.2908,12.9664 24.3119,12.9704 24.3255,12.9752 C24.3256,12.98 24.3257,12.9831 24.3257,12.9844 C24.3257,12.9989 24.3223,13.0091 24.3156,13.015 C24.3065,13.023 24.2931,13.027 24.2752,13.027 C24.2585,13.027 24.2462,13.0241 24.2382,13.0182 C24.2303,13.0124 24.2244,13.002 24.2206,12.9872 L24.1859,12.9919 C24.189,13.0068 24.1942,13.0188 24.2014,13.0279 C24.2087,13.037 24.2191,13.0441 24.2328,13.049 C24.2465,13.0539 24.2623,13.0564 24.2803,13.0564 C24.2982,13.0564 24.3127,13.0543 24.3239,13.0501 C24.3351,13.0459 24.3433,13.0406 24.3485,13.0342 C24.3538,13.0278 24.3575,13.0198 24.3596,13.0101 C24.3608,13.004 24.3613,12.9931 24.3613,12.9773 L24.3613,12.93 C24.3613,12.897 24.3621,12.8761 24.3636,12.8674 C24.3651,12.8587 24.3681,12.8503 24.3726,12.8423 L24.3355,12.8423 C24.3318,12.8496 24.3295,12.8582 24.3284,12.8681 M24.3255,12.9474 C24.3126,12.9421 24.2933,12.9376 24.2675,12.934 C24.2529,12.9319 24.2426,12.9295 24.2365,12.9269 C24.2305,12.9242 24.2258,12.9204 24.2225,12.9153 C24.2192,12.9103 24.2176,12.9046 24.2176,12.8985 C24.2176,12.889 24.2212,12.8811 24.2283,12.8748 C24.2355,12.8685 24.246,12.8653 24.2598,12.8653 C24.2735,12.8653 24.2856,12.8683 24.2963,12.8743 C24.3069,12.8803 24.3147,12.8885 24.3197,12.8989 C24.3236,12.9069 24.3255,12.9187 24.3255,12.9343 Z M24.5522,12.8423 L24.5522,12.8687 C24.5389,12.8479 24.5194,12.8375 24.4936,12.8375 C24.4769,12.8375 24.4616,12.8421 24.4476,12.8513 C24.4336,12.8605 24.4227,12.8734 24.415,12.8899 C24.4074,12.9064 24.4035,12.9253 24.4035,12.9468 C24.4035,12.9677 24.407,12.9866 24.414,13.0037 C24.4209,13.0207 24.4314,13.0337 24.4453,13.0428 C24.4593,13.0519 24.4748,13.0564 24.492,13.0564 C24.5047,13.0564 24.5159,13.0537 24.5258,13.0484 C24.5356,13.0431 24.5436,13.0362 24.5498,13.0276 L24.5498,13.1313 L24.5851,13.1313 L24.5851,12.8423 Z M24.44,12.9468 C24.44,12.92 24.4456,12.8999 24.457,12.8866 C24.4683,12.8734 24.4816,12.8667 24.497,12.8667 C24.5125,12.8667 24.5257,12.8731 24.5365,12.8857 C24.5474,12.8984 24.5528,12.9178 24.5528,12.9438 C24.5528,12.9725 24.5473,12.9935 24.5362,13.0069 C24.5252,13.0203 24.5116,13.027 24.4954,13.027 C24.4796,13.027 24.4664,13.0206 24.4559,13.0077 C24.4453,12.9948 24.44,12.9745 24.44,12.9468 M24.7767,12.8423 L24.7767,12.8687 C24.7635,12.8479 24.744,12.8375 24.7182,12.8375 C24.7015,12.8375 24.6861,12.8421 24.6721,12.8513 C24.6581,12.8605 24.6473,12.8734 24.6396,12.8899 C24.6319,12.9064 24.6281,12.9253 24.6281,12.9468 C24.6281,12.9677 24.6316,12.9866 24.6385,13.0037 C24.6455,13.0207 24.6559,13.0337 24.6699,13.0428 C24.6838,13.0519 24.6994,13.0564 24.7166,13.0564 C24.7292,13.0564 24.7405,13.0537 24.7503,13.0484 C24.7602,13.0431 24.7682,13.0362 24.7744,13.0276 L24.7744,13.1313 L24.8097,13.1313 L24.8097,12.8423 Z M24.6646,12.9468 C24.6646,12.92 24.6702,12.8999 24.6815,12.8866 C24.6928,12.8734 24.7062,12.8667 24.7215,12.8667 C24.7371,12.8667 24.7502,12.8731 24.7611,12.8857 C24.7719,12.8984 24.7773,12.9178 24.7773,12.9438 C24.7773,12.9725 24.7718,12.9935 24.7608,13.0069 C24.7497,13.0203 24.7361,13.027 24.72,13.027 C24.7042,13.027 24.691,13.0206 24.6804,13.0077 C24.6698,12.9948 24.6646,12.9745 24.6646,12.9468 M25.0088,12.9097 L25.0455,12.9052 C25.0397,12.8837 25.029,12.8671 25.0133,12.8553 C24.9977,12.8435 24.9777,12.8375 24.9534,12.8375 C24.9228,12.8375 24.8985,12.847 24.8805,12.8658 C24.8626,12.8847 24.8536,12.9111 24.8536,12.9452 C24.8536,12.9804 24.8627,13.0078 24.8808,13.0272 C24.899,13.0467 24.9225,13.0564 24.9514,13.0564 C24.9794,13.0564 25.0023,13.0469 25.02,13.0278 C25.0378,13.0088 25.0467,12.9819 25.0467,12.9474 C25.0467,12.9453 25.0466,12.9421 25.0465,12.9379 L24.8903,12.9379 C24.8916,12.9149 24.8981,12.8973 24.9098,12.8851 C24.9215,12.8728 24.9361,12.8667 24.9536,12.8667 C24.9666,12.8667 24.9777,12.8701 24.9869,12.877 C24.9961,12.8838 25.0034,12.8947 25.0088,12.9097 M24.8923,12.9671 L25.0092,12.9671 C25.0076,12.9847 25.0032,12.9979 24.9958,13.0067 C24.9845,13.0204 24.9698,13.0272 24.9518,13.0272 C24.9355,13.0272 24.9218,13.0218 24.9107,13.0109 C24.8996,12.9999 24.8935,12.9854 24.8923,12.9671 M25.2259,12.8423 L25.2259,12.8687 C25.2126,12.8479 25.1931,12.8375 25.1673,12.8375 C25.1506,12.8375 25.1353,12.8421 25.1213,12.8513 C25.1073,12.8605 25.0964,12.8734 25.0887,12.8899 C25.081,12.9064 25.0772,12.9253 25.0772,12.9468 C25.0772,12.9677 25.0807,12.9866 25.0877,13.0037 C25.0946,13.0207 25.1051,13.0337 25.119,13.0428 C25.1329,13.0519 25.1485,13.0564 25.1657,13.0564 C25.1784,13.0564 25.1896,13.0537 25.1995,13.0484 C25.2093,13.0431 25.2173,13.0362 25.2235,13.0276 L25.2235,13.1313 L25.2588,13.1313 L25.2588,12.8423 Z M25.1137,12.9468 C25.1137,12.92 25.1193,12.8999 25.1306,12.8866 C25.1419,12.8734 25.1553,12.8667 25.1707,12.8667 C25.1862,12.8667 25.1994,12.8731 25.2102,12.8857 C25.221,12.8984 25.2265,12.9178 25.2265,12.9438 C25.2265,12.9725 25.2209,12.9935 25.2099,13.0069 C25.1989,13.0203 25.1853,13.027 25.1691,13.027 C25.1533,13.027 25.1401,13.0206 25.1296,13.0077 C25.119,12.9948 25.1137,12.9745 25.1137,12.9468" style="fill:#dd0000;fill-rule:evenodd;"/>
        </g>
        <!-- Line -->
        <path d="M32.1585,31.033 L12.8482,25.4557 " style="stroke:#000000;stroke-width:0.25;"/>
        <!-- Line -->
        <path d="M40.9429,46.8139 L39.1547,-13.5563 " style="stroke:#000000;stroke-width:0.25;"/>
        <!-- Line -->
        <path d="M-7.5693,14.9943 L12.8337,35.0519 " style="stroke:#000000;stroke-width:0.25;"/>
    </g>
</svg>
