<svg version="1.1" xmlns="http://www.w3.org/2000/svg" viewBox="0 0 1073.3533579135888 940.9830150538837" width="1073.3533579135888" height="940.9830150538837" filter="invert(93%) hue-rotate(180deg)">
  <!-- svg-source:excalidraw -->
  
  <defs>
    <style class="style-fonts">
      @font-face {
        font-family: "Virgil";
        src: url("https://excalidraw.com/Virgil.woff2");
      }
      @font-face {
        font-family: "Cascadia";
        src: url("https://excalidraw.com/Cascadia.woff2");
      }
    </style>
    
  </defs>
  <rect x="0" y="0" width="1073.3533579135888" height="940.9830150538837" fill="transparent"/><g stroke-linecap="round"><g transform="translate(10.225339760063662 647.0633466969383) rotate(0 526.5 -12)"><path d="M-0.23 0.2 C175.29 -3.81, 877.61 -20.07, 1053.13 -24.1 M0.07 0.11 C175.57 -3.87, 877.58 -19.89, 1053.02 -23.86" stroke="#1e1e1e" stroke-width="2" fill="none"/></g></g><mask/><g stroke-linecap="round"><g transform="translate(489.22533976006366 931.0633466969383) rotate(0 -8 -460.5)"><path d="M0.18 -0.08 C-2.46 -153.56, -13.23 -767.55, -15.94 -921.06 M0.03 -0.29 C-2.61 -153.72, -13.34 -767.4, -16.06 -920.85" stroke="#1e1e1e" stroke-width="2" fill="none"/></g></g><mask/><g stroke-linecap="round"><g transform="translate(301.22533976006366 820.0633466969383) rotate(0 -8.5 -401.5)"><path d="M-0.05 -0.04 C-2.85 -133.9, -14.1 -669.35, -16.89 -803.16 M0.28 -0.22 C-2.52 -134.07, -14.13 -669.16, -16.99 -802.99" stroke="#e03131" stroke-width="2" fill="none"/></g></g><mask/><g transform="translate(223.22533976006366 585.0633466969383) rotate(0 22.5 -38)" stroke="none"><path fill="#e03131" d="M -2.22,-1.39 Q -2.22,-1.39 -1.41,-4.08 -0.60,-6.77 1.04,-11.10 2.70,-15.42 6.67,-23.48 10.64,-31.53 18.13,-43.26 25.62,-55.00 30.52,-61.53 35.43,-68.06 37.71,-70.65 39.99,-73.25 40.28,-73.56 40.57,-73.87 40.95,-74.07 41.32,-74.27 41.74,-74.34 42.16,-74.41 42.58,-74.35 43.00,-74.28 43.38,-74.08 43.75,-73.89 44.05,-73.58 44.34,-73.27 44.52,-72.89 44.70,-72.50 44.75,-72.08 44.80,-71.66 44.71,-71.24 44.62,-70.83 44.40,-70.46 44.19,-70.10 43.86,-69.82 43.54,-69.54 43.15,-69.38 42.75,-69.22 42.33,-69.20 41.91,-69.17 41.50,-69.29 41.09,-69.40 40.73,-69.63 40.38,-69.87 40.12,-70.21 39.86,-70.54 39.72,-70.95 39.59,-71.35 39.58,-71.77 39.58,-72.20 39.71,-72.60 39.85,-73.00 40.10,-73.34 40.36,-73.68 40.71,-73.92 41.06,-74.16 41.47,-74.28 41.88,-74.40 42.30,-74.38 42.73,-74.35 43.12,-74.20 43.52,-74.04 43.84,-73.77 44.17,-73.50 44.39,-73.13 44.61,-72.77 44.70,-72.36 44.80,-71.94 44.75,-71.52 44.71,-71.10 44.53,-70.71 44.36,-70.32 44.36,-70.32 44.36,-70.32 42.83,-67.22 41.30,-64.13 37.22,-57.26 33.15,-50.39 26.29,-38.72 19.42,-27.05 15.33,-19.26 11.23,-11.48 8.79,-6.95 6.35,-2.42 4.29,-0.51 2.22,1.39 2.02,1.63 1.82,1.88 1.57,2.07 1.32,2.26 1.03,2.39 0.74,2.51 0.43,2.57 0.11,2.62 -0.19,2.60 -0.51,2.57 -0.81,2.47 -1.11,2.37 -1.38,2.21 -1.65,2.04 -1.87,1.81 -2.09,1.58 -2.25,1.31 -2.41,1.04 -2.50,0.73 -2.59,0.43 -2.60,0.11 -2.61,-0.19 -2.55,-0.50 -2.49,-0.81 -2.36,-1.10 -2.22,-1.39 -2.22,-1.39 L -2.22,-1.39 Z"/></g><g transform="translate(227.22533976006366 524.0633466969383) rotate(0 13 22)" stroke="none"><path fill="#e03131" d="M 2.54,-0.66 Q 2.54,-0.66 4.95,5.75 7.37,12.17 10.52,17.99 13.68,23.81 17.62,29.00 21.57,34.20 23.34,36.59 25.10,38.97 25.33,39.33 25.55,39.69 25.65,40.11 25.74,40.52 25.70,40.95 25.66,41.37 25.49,41.76 25.31,42.14 25.03,42.46 24.74,42.77 24.36,42.97 23.99,43.18 23.57,43.25 23.15,43.32 22.73,43.26 22.31,43.20 21.94,43.00 21.56,42.81 21.26,42.50 20.97,42.20 20.78,41.82 20.60,41.43 20.55,41.01 20.50,40.59 20.58,40.17 20.67,39.76 20.88,39.39 21.10,39.02 21.42,38.74 21.74,38.46 22.13,38.30 22.52,38.14 22.95,38.11 23.37,38.08 23.78,38.19 24.19,38.30 24.55,38.53 24.90,38.77 25.17,39.10 25.43,39.44 25.57,39.84 25.71,40.24 25.71,40.67 25.72,41.09 25.59,41.49 25.46,41.90 25.20,42.24 24.95,42.58 24.60,42.82 24.25,43.07 23.85,43.19 23.44,43.31 23.01,43.29 22.59,43.27 22.19,43.12 21.80,42.97 21.47,42.69 21.14,42.42 21.14,42.42 21.14,42.42 19.02,40.35 16.90,38.27 11.70,32.97 6.50,27.67 3.01,20.97 -0.47,14.27 -1.50,7.46 -2.54,0.66 -2.58,0.34 -2.62,0.03 -2.59,-0.27 -2.55,-0.59 -2.45,-0.89 -2.34,-1.18 -2.16,-1.45 -1.98,-1.71 -1.75,-1.92 -1.52,-2.14 -1.24,-2.29 -0.96,-2.44 -0.65,-2.52 -0.35,-2.60 -0.03,-2.60 0.28,-2.61 0.58,-2.53 0.89,-2.46 1.18,-2.32 1.46,-2.18 1.70,-1.97 1.94,-1.76 2.12,-1.50 2.30,-1.25 2.42,-0.95 2.54,-0.66 2.54,-0.66 L 2.54,-0.66 Z"/></g><g transform="translate(512.2253397600637 653.0633466969383) rotate(0 3 13.5)" stroke="none"><path fill="#1e1e1e" d="M 1.85,1.85 Q 1.85,1.85 0.44,4.43 -0.96,7.02 -1.93,9.18 -2.90,11.35 -2.92,14.48 -2.93,17.61 -1.25,19.61 0.43,21.62 3.18,22.10 5.94,22.57 7.39,19.39 8.85,16.21 9.19,13.66 9.52,11.11 8.64,8.39 7.76,5.68 4.70,4.39 1.63,3.09 1.24,2.93 0.85,2.76 0.53,2.48 0.21,2.20 0.00,1.83 -0.20,1.46 -0.28,1.04 -0.37,0.63 -0.31,0.21 -0.26,-0.20 -0.07,-0.59 0.11,-0.97 0.40,-1.27 0.70,-1.57 1.08,-1.77 1.46,-1.96 1.88,-2.02 2.30,-2.08 2.72,-2.00 3.14,-1.92 3.51,-1.72 3.88,-1.51 4.17,-1.20 4.45,-0.88 4.62,-0.49 4.79,-0.10 4.83,0.31 4.87,0.73 4.77,1.15 4.67,1.56 4.44,1.92 4.22,2.28 3.89,2.55 3.56,2.82 3.16,2.97 2.76,3.12 2.34,3.13 1.91,3.14 1.50,3.02 1.10,2.90 0.75,2.65 0.40,2.41 0.15,2.07 -0.09,1.72 -0.21,1.32 -0.34,0.91 -0.33,0.49 -0.32,0.06 -0.18,-0.33 -0.04,-0.73 0.22,-1.06 0.48,-1.39 0.84,-1.63 1.19,-1.86 1.61,-1.96 2.02,-2.07 2.44,-2.04 2.87,-2.00 2.87,-2.00 2.87,-2.00 5.00,-2.85 7.13,-3.70 9.94,-3.15 12.75,-2.61 14.87,0.25 16.99,3.11 17.98,7.70 18.98,12.29 18.30,16.10 17.63,19.92 15.83,23.47 14.03,27.03 10.68,29.26 7.34,31.50 3.80,31.43 0.27,31.36 -3.25,29.38 -6.78,27.41 -9.39,23.36 -11.99,19.31 -12.29,15.96 -12.58,12.60 -11.72,9.81 -10.86,7.01 -8.97,4.02 -7.08,1.02 -4.47,-0.41 -1.85,-1.85 -1.60,-2.05 -1.35,-2.24 -1.07,-2.37 -0.78,-2.50 -0.46,-2.56 -0.15,-2.62 0.15,-2.60 0.47,-2.58 0.77,-2.48 1.07,-2.39 1.34,-2.23 1.61,-2.06 1.84,-1.84 2.06,-1.61 2.23,-1.34 2.39,-1.07 2.48,-0.77 2.58,-0.47 2.60,-0.15 2.62,0.15 2.56,0.47 2.50,0.78 2.37,1.07 2.24,1.35 2.05,1.60 1.85,1.85 1.85,1.85 L 1.85,1.85 Z"/></g><g transform="translate(395.22533976006366 625.0633466969383) rotate(0 0 13.5)" stroke="none"><path fill="#1e1e1e" d="M 2.59,0.43 Q 2.59,0.43 3.39,2.32 4.19,4.21 4.39,6.73 4.59,9.25 4.62,12.63 4.65,16.01 4.60,19.79 4.55,23.57 4.38,25.33 4.21,27.09 4.21,27.52 4.20,27.94 4.06,28.35 3.92,28.75 3.66,29.08 3.40,29.42 3.04,29.65 2.69,29.88 2.28,29.99 1.87,30.10 1.44,30.07 1.02,30.05 0.63,29.88 0.23,29.72 -0.08,29.44 -0.40,29.16 -0.61,28.80 -0.83,28.43 -0.91,28.01 -1.00,27.60 -0.95,27.18 -0.90,26.75 -0.71,26.37 -0.53,25.99 -0.23,25.68 0.05,25.38 0.43,25.18 0.81,24.99 1.23,24.92 1.65,24.86 2.07,24.94 2.48,25.01 2.86,25.21 3.23,25.42 3.52,25.73 3.81,26.04 3.98,26.43 4.15,26.82 4.20,27.24 4.24,27.66 4.14,28.08 4.04,28.49 3.82,28.85 3.60,29.21 3.27,29.48 2.94,29.75 2.54,29.91 2.15,30.06 1.72,30.08 1.30,30.10 0.89,29.98 0.48,29.86 0.13,29.62 -0.20,29.37 -0.46,29.03 -0.71,28.69 -0.84,28.29 -0.97,27.88 -0.97,27.88 -0.97,27.88 -1.65,26.25 -2.33,24.62 -3.60,20.42 -4.86,16.22 -4.97,13.00 -5.08,9.77 -5.21,6.23 -5.34,2.68 -3.96,1.12 -2.59,-0.43 -2.50,-0.73 -2.41,-1.03 -2.25,-1.31 -2.09,-1.58 -1.87,-1.81 -1.65,-2.04 -1.38,-2.20 -1.11,-2.37 -0.81,-2.47 -0.51,-2.57 -0.19,-2.59 0.11,-2.62 0.42,-2.57 0.74,-2.51 1.03,-2.39 1.32,-2.26 1.57,-2.07 1.82,-1.88 2.02,-1.64 2.22,-1.39 2.36,-1.10 2.49,-0.82 2.55,-0.51 2.61,-0.20 2.60,0.11 2.59,0.43 2.59,0.43 L 2.59,0.43 Z"/></g><g transform="translate(404.22533976006366 671.0633466969383) rotate(0 8.5 0.5)" stroke="none"><path fill="#1e1e1e" d="M 0.26,-2.61 Q 0.26,-2.61 3.20,-3.02 6.15,-3.43 8.42,-3.32 10.70,-3.20 13.29,-2.43 15.89,-1.65 16.31,-1.57 16.73,-1.49 17.10,-1.28 17.47,-1.07 17.75,-0.76 18.03,-0.44 18.20,-0.05 18.37,0.33 18.40,0.75 18.44,1.18 18.33,1.59 18.23,2.00 18.00,2.36 17.77,2.72 17.44,2.98 17.11,3.25 16.71,3.40 16.31,3.54 15.89,3.55 15.46,3.56 15.06,3.44 14.65,3.31 14.31,3.07 13.96,2.82 13.71,2.47 13.47,2.13 13.34,1.72 13.22,1.31 13.23,0.89 13.24,0.47 13.39,0.07 13.53,-0.32 13.80,-0.65 14.07,-0.98 14.43,-1.21 14.78,-1.44 15.20,-1.54 15.61,-1.65 16.03,-1.61 16.46,-1.58 16.85,-1.41 17.24,-1.24 17.55,-0.96 17.87,-0.67 18.08,-0.30 18.29,0.06 18.37,0.48 18.45,0.89 18.39,1.31 18.33,1.74 18.14,2.12 17.95,2.50 17.65,2.80 17.35,3.10 16.97,3.29 16.59,3.47 16.17,3.53 15.75,3.59 15.75,3.59 15.75,3.59 13.01,4.22 10.28,4.84 7.81,4.71 5.34,4.58 2.54,3.59 -0.26,2.61 -0.57,2.54 -0.87,2.47 -1.16,2.33 -1.44,2.19 -1.68,1.98 -1.92,1.78 -2.11,1.52 -2.29,1.26 -2.41,0.97 -2.53,0.68 -2.58,0.36 -2.62,0.05 -2.59,-0.25 -2.56,-0.57 -2.45,-0.87 -2.35,-1.17 -2.17,-1.43 -2.00,-1.69 -1.76,-1.91 -1.53,-2.12 -1.26,-2.28 -0.98,-2.43 -0.67,-2.51 -0.37,-2.60 -0.05,-2.60 0.26,-2.61 0.26,-2.61 L 0.26,-2.61 Z"/></g><g transform="translate(426.22533976006366 662.0633466969383) rotate(0 7 13)" stroke="none"><path fill="#1e1e1e" d="M -1.85,-1.85 Q -1.85,-1.85 0.33,-4.92 2.52,-7.98 5.72,-9.16 8.93,-10.34 11.90,-8.80 14.86,-7.27 15.84,-1.72 16.82,3.83 16.68,7.49 16.55,11.14 16.16,16.94 15.77,22.73 15.37,26.28 14.98,29.83 14.35,31.34 13.71,32.84 13.63,33.26 13.54,33.68 13.33,34.04 13.11,34.41 12.79,34.69 12.47,34.97 12.08,35.13 11.69,35.29 11.26,35.32 10.84,35.35 10.43,35.24 10.02,35.13 9.66,34.90 9.31,34.66 9.05,34.33 8.78,33.99 8.64,33.59 8.50,33.19 8.50,32.77 8.49,32.34 8.62,31.94 8.75,31.53 9.01,31.19 9.26,30.85 9.61,30.61 9.96,30.36 10.37,30.24 10.77,30.13 11.20,30.14 11.62,30.16 12.02,30.31 12.42,30.47 12.74,30.74 13.07,31.01 13.29,31.37 13.52,31.73 13.61,32.15 13.71,32.56 13.67,32.98 13.63,33.41 13.46,33.79 13.28,34.18 12.99,34.49 12.70,34.80 12.33,35.01 11.96,35.21 11.54,35.29 11.12,35.36 10.70,35.30 10.28,35.23 9.90,35.04 9.53,34.84 9.23,34.54 8.93,34.23 8.75,33.85 8.57,33.47 8.52,33.04 8.47,32.62 8.47,32.62 8.47,32.62 7.96,31.07 7.46,29.52 7.36,25.87 7.27,22.21 7.58,16.48 7.90,10.75 8.07,7.57 8.25,4.40 8.04,1.02 7.82,-2.36 4.84,-0.25 1.85,1.85 1.60,2.05 1.35,2.24 1.07,2.37 0.78,2.50 0.46,2.56 0.15,2.62 -0.15,2.60 -0.47,2.58 -0.77,2.48 -1.07,2.39 -1.34,2.23 -1.61,2.06 -1.84,1.84 -2.06,1.61 -2.23,1.34 -2.39,1.07 -2.48,0.77 -2.58,0.47 -2.60,0.15 -2.62,-0.15 -2.56,-0.47 -2.50,-0.78 -2.37,-1.07 -2.24,-1.35 -2.05,-1.60 -1.85,-1.85 -1.85,-1.85 L -1.85,-1.85 Z"/></g><g transform="translate(309.22533976006366 669.0633466969383) rotate(0 6.5 1)" stroke="none"><path fill="#1e1e1e" d="M 0.72,-2.52 Q 0.72,-2.52 2.96,-3.15 5.21,-3.78 8.28,-3.51 11.34,-3.24 11.77,-3.30 12.19,-3.35 12.60,-3.27 13.02,-3.19 13.39,-2.97 13.76,-2.76 14.04,-2.44 14.32,-2.13 14.49,-1.73 14.65,-1.34 14.68,-0.92 14.71,-0.50 14.61,-0.08 14.50,0.32 14.27,0.67 14.04,1.03 13.71,1.29 13.38,1.56 12.98,1.70 12.58,1.85 12.15,1.86 11.73,1.86 11.32,1.74 10.92,1.61 10.57,1.36 10.23,1.11 9.98,0.76 9.74,0.42 9.62,0.01 9.49,-0.39 9.51,-0.81 9.52,-1.24 9.67,-1.64 9.82,-2.03 10.09,-2.36 10.36,-2.69 10.72,-2.92 11.08,-3.15 11.49,-3.25 11.90,-3.35 12.33,-3.31 12.75,-3.27 13.14,-3.10 13.53,-2.93 13.84,-2.64 14.16,-2.36 14.36,-1.99 14.57,-1.62 14.65,-1.20 14.72,-0.78 14.66,-0.36 14.60,0.05 14.41,0.43 14.22,0.81 13.92,1.11 13.62,1.41 13.23,1.59 12.85,1.78 12.85,1.78 12.85,1.78 10.82,3.39 8.78,5.01 5.80,5.55 2.83,6.08 1.05,4.30 -0.72,2.52 -1.01,2.40 -1.30,2.27 -1.55,2.09 -1.81,1.90 -2.01,1.65 -2.21,1.41 -2.35,1.12 -2.48,0.84 -2.55,0.53 -2.61,0.22 -2.60,-0.09 -2.59,-0.41 -2.50,-0.71 -2.42,-1.02 -2.26,-1.29 -2.10,-1.57 -1.88,-1.79 -1.66,-2.02 -1.40,-2.19 -1.13,-2.36 -0.83,-2.47 -0.53,-2.57 -0.21,-2.59 0.09,-2.62 0.40,-2.57 0.72,-2.52 0.72,-2.52 L 0.72,-2.52 Z"/></g><g transform="translate(326.22533976006366 662.0633466969383) rotate(0 9.5 11.5)" stroke="none"><path fill="#1e1e1e" d="M 0,-2.62 Q 0,-2.62 2.96,-3.40 5.92,-4.17 8.77,-2.96 11.62,-1.75 13.18,0.62 14.74,3.01 14.94,5.94 15.13,8.88 14.50,11.71 13.87,14.54 13.41,17.34 12.96,20.14 15.17,19.39 17.38,18.64 17.80,18.63 18.23,18.61 18.63,18.73 19.04,18.85 19.39,19.10 19.74,19.34 19.99,19.68 20.24,20.03 20.37,20.43 20.50,20.84 20.49,21.26 20.48,21.69 20.34,22.09 20.20,22.49 19.93,22.82 19.67,23.15 19.31,23.39 18.96,23.62 18.55,23.73 18.14,23.83 17.71,23.80 17.29,23.77 16.90,23.61 16.50,23.44 16.19,23.16 15.87,22.88 15.65,22.51 15.44,22.15 15.36,21.73 15.27,21.31 15.33,20.89 15.38,20.47 15.56,20.09 15.75,19.71 16.05,19.40 16.34,19.10 16.72,18.91 17.10,18.71 17.52,18.65 17.94,18.59 18.36,18.67 18.78,18.74 19.15,18.95 19.52,19.15 19.81,19.47 20.10,19.78 20.27,20.17 20.44,20.56 20.48,20.98 20.52,21.40 20.42,21.82 20.32,22.23 20.09,22.59 19.87,22.95 19.54,23.22 19.21,23.49 18.81,23.64 18.42,23.79 18.42,23.79 18.42,23.79 15.89,25.02 13.36,26.24 11.12,26.03 8.87,25.81 6.86,23.39 4.84,20.97 4.81,18.58 4.77,16.19 5.76,12.57 6.75,8.96 6.16,6.56 5.57,4.17 2.78,3.40 0,2.62 -0.31,2.58 -0.62,2.55 -0.92,2.43 -1.22,2.32 -1.48,2.14 -1.74,1.96 -1.95,1.72 -2.16,1.49 -2.30,1.21 -2.45,0.93 -2.53,0.62 -2.60,0.31 -2.60,-0.00 -2.60,-0.31 -2.53,-0.62 -2.45,-0.93 -2.30,-1.21 -2.16,-1.49 -1.95,-1.72 -1.74,-1.96 -1.48,-2.14 -1.22,-2.32 -0.92,-2.43 -0.62,-2.55 -0.31,-2.58 0.00,-2.62 0.00,-2.62 L 0,-2.62 Z"/></g></svg>