<svg version="1.1" xmlns="http://www.w3.org/2000/svg" viewBox="0 0 990.3294441584497 1172" width="990.3294441584497" height="1172" filter="invert(93%) hue-rotate(180deg)">
  <!-- svg-source:excalidraw -->
  
  <defs>
    <style class="style-fonts">
      @font-face {
        font-family: "Virgil";
        src: url("https://excalidraw.com/Virgil.woff2");
      }
      @font-face {
        font-family: "Cascadia";
        src: url("https://excalidraw.com/Cascadia.woff2");
      }
    </style>
    
  </defs>
  <rect x="0" y="0" width="990.3294441584497" height="1172" fill="transparent"/><g stroke-linecap="round"><g transform="translate(138.32944415844975 870) rotate(0 290.5 -401)"><path d="M0.91 0.4 C97.88 -133.52, 485.37 -669.01, 582.1 -802.83 M-0.07 -0.44 C96.81 -134.29, 484.93 -668.22, 581.72 -801.73" stroke="#1e1e1e" stroke-width="2" fill="none"/></g></g><mask/><g transform="translate(783.3294441584497 79) rotate(0 -1 -10)" stroke="none"><path fill="#1e1e1e" d="M -1.30,2.28 Q -1.30,2.28 -3.59,1.79 -5.89,1.30 -10.32,2.16 -14.76,3.01 -18.48,6.59 -22.20,10.17 -24.25,14.66 -26.29,19.16 -26.61,24.03 -26.92,28.91 -25.56,33.03 -24.21,37.16 -23.00,39.09 -21.80,41.02 -17.30,39.28 -12.80,37.55 -8.69,31.43 -4.59,25.32 -1.72,15.63 1.14,5.93 2.49,-8.70 3.85,-23.33 4.07,-34.44 4.29,-45.54 4.00,-52.21 3.71,-58.89 3.63,-61.19 3.55,-63.50 3.60,-64.05 3.66,-64.59 3.85,-65.10 4.03,-65.61 4.33,-66.07 4.63,-66.52 5.03,-66.89 5.44,-67.26 5.91,-67.52 6.39,-67.78 6.92,-67.92 7.45,-68.06 7.99,-68.07 8.54,-68.08 9.07,-67.96 9.60,-67.84 10.09,-67.59 10.57,-67.35 10.99,-66.99 11.40,-66.64 11.72,-66.19 12.04,-65.75 12.24,-65.25 12.44,-64.74 12.51,-64.20 12.59,-63.66 12.63,-61.42 12.66,-59.17 12.66,-52.23 12.66,-45.29 14.07,-31.94 15.48,-18.59 17.93,-7.60 20.39,3.38 23.50,12.59 26.62,21.79 28.80,27.21 30.98,32.62 31.85,35.04 32.73,37.45 32.85,37.86 32.97,38.27 32.95,38.69 32.93,39.12 32.78,39.51 32.63,39.91 32.36,40.24 32.09,40.57 31.73,40.79 31.37,41.01 30.95,41.11 30.54,41.21 30.12,41.17 29.69,41.13 29.31,40.96 28.92,40.78 28.60,40.49 28.29,40.21 28.09,39.83 27.88,39.46 27.81,39.04 27.73,38.62 27.80,38.20 27.86,37.78 28.05,37.41 28.25,37.03 28.55,36.73 28.86,36.43 29.24,36.25 29.62,36.07 30.05,36.02 30.47,35.96 30.88,36.05 31.30,36.13 31.67,36.35 32.03,36.56 32.31,36.88 32.59,37.20 32.76,37.60 32.92,37.99 32.95,38.41 32.98,38.84 32.87,39.25 32.76,39.66 32.53,40.01 32.29,40.37 31.96,40.63 31.62,40.89 31.22,41.03 30.82,41.17 30.40,41.18 29.97,41.19 29.57,41.06 29.16,40.93 28.82,40.67 28.48,40.42 28.24,40.07 27.99,39.72 27.99,39.72 27.99,39.72 26.66,37.53 25.32,35.34 22.30,29.90 19.27,24.47 15.56,14.92 11.85,5.38 9.06,-6.11 6.27,-17.61 4.81,-31.45 3.35,-45.29 3.45,-54.40 3.55,-63.50 3.60,-64.05 3.66,-64.59 3.84,-65.10 4.03,-65.61 4.33,-66.07 4.63,-66.52 5.03,-66.89 5.44,-67.26 5.91,-67.52 6.39,-67.78 6.92,-67.92 7.45,-68.06 7.99,-68.07 8.54,-68.08 9.07,-67.96 9.60,-67.84 10.09,-67.59 10.57,-67.35 10.99,-66.99 11.40,-66.64 11.72,-66.19 12.04,-65.75 12.24,-65.25 12.44,-64.74 12.51,-64.20 12.59,-63.66 12.61,-61.35 12.62,-59.04 12.57,-52.14 12.52,-45.24 11.94,-33.88 11.36,-22.52 9.47,-7.30 7.59,7.91 4.19,18.40 0.80,28.90 -4.42,36.47 -9.64,44.05 -16.26,46.10 -22.89,48.15 -27.57,44.12 -32.25,40.08 -33.92,34.23 -35.59,28.38 -34.90,21.95 -34.21,15.52 -31.19,9.66 -28.17,3.80 -22.68,-0.75 -17.19,-5.31 -13.05,-6.15 -8.90,-6.99 -5.53,-6.45 -2.15,-5.90 -0.42,-4.09 1.30,-2.28 1.55,-2.09 1.81,-1.90 2.01,-1.65 2.21,-1.41 2.35,-1.12 2.48,-0.84 2.55,-0.53 2.61,-0.22 2.60,0.09 2.59,0.40 2.50,0.71 2.42,1.01 2.26,1.29 2.10,1.56 1.88,1.79 1.67,2.02 1.40,2.19 1.13,2.36 0.83,2.46 0.53,2.57 0.22,2.59 -0.09,2.62 -0.40,2.57 -0.71,2.52 -1.01,2.40 -1.30,2.28 -1.30,2.28 L -1.30,2.28 Z"/></g><g stroke-linecap="round"><g transform="translate(10.329444158449746 181) rotate(0 417.5 290.5)"><path d="M-0.33 -0.2 C139.04 96.74, 696.14 485.44, 835.2 582.19 M1.7 -1.35 C141.02 95.24, 695.23 483.58, 834.35 580.7" stroke="#1e1e1e" stroke-width="2" fill="none"/></g></g><mask/><g transform="translate(333.32944415844975 406) rotate(0 68.5 -23)" stroke="none"><path fill="#1e1e1e" d="M -2.30,-1.25 Q -2.30,-1.25 -1.35,-4.86 -0.39,-8.47 4.03,-13.28 8.46,-18.08 14.97,-23.54 21.48,-29.00 29.07,-33.73 36.66,-38.45 47.78,-42.06 58.89,-45.66 68.72,-46.90 78.55,-48.14 87.05,-47.48 95.55,-46.83 102.34,-45.65 109.13,-44.48 115.40,-42.46 121.68,-40.44 125.49,-39.15 129.31,-37.85 132.72,-35.92 136.14,-33.99 136.52,-33.80 136.91,-33.62 137.21,-33.32 137.51,-33.02 137.71,-32.64 137.90,-32.26 137.96,-31.84 138.02,-31.42 137.94,-31.01 137.87,-30.59 137.66,-30.22 137.46,-29.84 137.14,-29.56 136.83,-29.27 136.44,-29.10 136.05,-28.93 135.63,-28.89 135.20,-28.85 134.79,-28.95 134.38,-29.05 134.02,-29.27 133.66,-29.50 133.39,-29.83 133.12,-30.16 132.97,-30.56 132.82,-30.95 132.80,-31.38 132.79,-31.80 132.91,-32.21 133.03,-32.62 133.27,-32.96 133.52,-33.31 133.86,-33.56 134.21,-33.81 134.61,-33.94 135.02,-34.07 135.44,-34.06 135.87,-34.05 136.27,-33.91 136.67,-33.77 137.00,-33.51 137.33,-33.24 137.57,-32.89 137.80,-32.53 137.90,-32.12 138.01,-31.71 137.98,-31.28 137.95,-30.86 137.78,-30.47 137.62,-30.08 137.34,-29.76 137.06,-29.44 136.69,-29.23 136.32,-29.01 135.90,-28.93 135.49,-28.85 135.07,-28.90 134.64,-28.95 134.65,-28.95 134.65,-28.95 130.80,-29.18 126.95,-29.41 122.83,-30.32 118.71,-31.24 113.07,-33.07 107.44,-34.90 101.09,-36.01 94.74,-37.13 87.22,-37.80 79.69,-38.48 70.75,-37.43 61.81,-36.39 51.76,-33.27 41.72,-30.15 34.68,-25.82 27.65,-21.49 21.40,-16.46 15.16,-11.44 11.22,-7.80 7.29,-4.17 4.80,-1.45 2.30,1.25 2.12,1.51 1.93,1.77 1.69,1.97 1.45,2.18 1.17,2.32 0.89,2.47 0.58,2.54 0.27,2.61 -0.04,2.60 -0.35,2.60 -0.66,2.52 -0.97,2.44 -1.24,2.28 -1.52,2.13 -1.76,1.92 -1.99,1.70 -2.16,1.44 -2.34,1.18 -2.45,0.88 -2.56,0.58 -2.59,0.27 -2.62,-0.04 -2.58,-0.35 -2.53,-0.66 -2.42,-0.96 -2.30,-1.25 -2.30,-1.25 L -2.30,-1.25 Z"/></g><g transform="translate(408.32944415844975 411) rotate(0 2 -0.5)" stroke="none"><path fill="#1e1e1e" d="M 2.50,-0.78 Q 2.50,-0.78 2.54,-0.15 2.58,0.47 2.32,1.04 2.06,1.61 1.57,2.00 1.07,2.39 0.45,2.50 -0.15,2.62 -0.75,2.43 -1.35,2.24 -1.80,1.80 -2.24,1.35 -2.43,0.75 -2.62,0.15 -2.50,-0.46 -2.39,-1.07 -2.00,-1.57 -1.61,-2.06 -1.04,-2.32 -0.47,-2.58 0.15,-2.54 0.78,-2.50 1.31,-2.18 1.85,-1.85 2.18,-1.31 L 2.50,-0.78 Z"/></g><g stroke-linecap="round"><g transform="translate(465.32944415844975 982) rotate(0 139 -217)"><path d="M0.85 0 C47.07 -72.3, 230.84 -361.93, 277.08 -434.1 M-0.17 -1.04 C46.45 -73.12, 233 -360.32, 279.31 -432.62" stroke="#1e1e1e" stroke-width="2" fill="none"/></g></g><mask/><g stroke-linecap="round"><g transform="translate(198.32944415844975 708) rotate(0 181.5 128.5)"><path d="M-0.15 -1.14 C60.45 41.85, 302.12 214.45, 362.73 257.58 M-1.69 0.88 C58.81 43.54, 300.86 213.31, 361.65 255.76" stroke="#1e1e1e" stroke-width="2" fill="none"/></g></g><mask/><g transform="translate(559.3294441584497 925) rotate(0 10.5 -14)" stroke="none"><path fill="#1e1e1e" d="M -1.85,-1.85 Q -1.85,-1.85 0.69,-5.05 3.24,-8.25 5.85,-11.11 8.46,-13.98 10.75,-17.19 13.04,-20.40 15.40,-24.02 17.75,-27.64 18.02,-27.97 18.29,-28.30 18.65,-28.52 19.01,-28.75 19.43,-28.85 19.84,-28.94 20.26,-28.90 20.69,-28.87 21.08,-28.69 21.46,-28.52 21.78,-28.23 22.09,-27.95 22.30,-27.57 22.50,-27.20 22.58,-26.78 22.65,-26.36 22.59,-25.94 22.53,-25.52 22.33,-25.15 22.14,-24.77 21.84,-24.47 21.53,-24.17 21.15,-23.99 20.77,-23.80 20.35,-23.75 19.92,-23.70 19.51,-23.78 19.09,-23.87 18.72,-24.08 18.36,-24.30 18.08,-24.62 17.80,-24.94 17.63,-25.33 17.47,-25.72 17.44,-26.14 17.41,-26.57 17.52,-26.98 17.62,-27.39 17.86,-27.75 18.09,-28.10 18.42,-28.36 18.76,-28.63 19.16,-28.77 19.56,-28.91 19.98,-28.92 20.41,-28.92 20.81,-28.79 21.22,-28.66 21.56,-28.41 21.90,-28.16 22.15,-27.81 22.39,-27.46 22.51,-27.06 22.63,-26.65 22.61,-26.22 22.60,-25.80 22.45,-25.40 22.30,-25.00 22.30,-25.00 22.30,-25.01 20.25,-21.05 18.21,-17.09 15.94,-13.19 13.67,-9.30 10.96,-6.27 8.25,-3.24 5.05,-0.69 1.85,1.85 1.60,2.05 1.35,2.24 1.07,2.37 0.78,2.50 0.46,2.56 0.15,2.62 -0.15,2.60 -0.47,2.58 -0.77,2.48 -1.07,2.39 -1.34,2.23 -1.61,2.06 -1.84,1.84 -2.06,1.61 -2.23,1.34 -2.39,1.07 -2.48,0.77 -2.58,0.47 -2.60,0.15 -2.62,-0.15 -2.56,-0.47 -2.50,-0.78 -2.37,-1.07 -2.24,-1.35 -2.05,-1.60 -1.85,-1.85 -1.85,-1.85 L -1.85,-1.85 Z"/></g><g transform="translate(557.3294441584497 905) rotate(0 18.5 21.5)" stroke="none"><path fill="#1e1e1e" d="M 2.15,-1.50 Q 2.15,-1.50 6.70,3.87 11.26,9.25 16.05,15.00 20.85,20.75 26.08,26.48 31.31,32.20 33.36,34.90 35.41,37.60 35.65,37.95 35.89,38.30 36.01,38.71 36.13,39.11 36.12,39.54 36.10,39.96 35.95,40.36 35.80,40.76 35.53,41.08 35.25,41.41 34.89,41.64 34.53,41.86 34.12,41.96 33.71,42.05 33.28,42.01 32.86,41.97 32.47,41.80 32.08,41.63 31.77,41.34 31.46,41.05 31.25,40.68 31.05,40.31 30.97,39.89 30.90,39.47 30.96,39.05 31.03,38.63 31.22,38.25 31.41,37.87 31.72,37.58 32.02,37.28 32.41,37.10 32.79,36.91 33.21,36.86 33.63,36.81 34.05,36.90 34.46,36.98 34.83,37.20 35.20,37.41 35.48,37.73 35.76,38.05 35.92,38.44 36.08,38.83 36.11,39.26 36.14,39.68 36.03,40.09 35.93,40.50 35.69,40.86 35.46,41.21 35.12,41.48 34.79,41.74 34.39,41.88 33.99,42.02 33.56,42.03 33.14,42.03 32.73,41.90 32.33,41.77 31.99,41.52 31.64,41.27 31.64,41.27 31.64,41.27 29.00,39.15 26.35,37.03 20.54,31.42 14.73,25.81 9.78,19.78 4.83,13.74 1.34,7.62 -2.15,1.50 -2.30,1.22 -2.44,0.94 -2.52,0.64 -2.60,0.33 -2.60,0.01 -2.60,-0.29 -2.53,-0.60 -2.46,-0.91 -2.31,-1.19 -2.17,-1.47 -1.96,-1.71 -1.75,-1.95 -1.49,-2.13 -1.23,-2.31 -0.94,-2.43 -0.64,-2.54 -0.33,-2.58 -0.01,-2.62 0.29,-2.59 0.61,-2.55 0.90,-2.44 1.20,-2.33 1.46,-2.15 1.72,-1.97 1.94,-1.74 2.15,-1.50 2.15,-1.50 L 2.15,-1.50 Z"/></g><g transform="translate(707.3294441584497 701) rotate(0 3 36.5)" stroke="none"><path fill="#1e1e1e" d="M 2.54,0.63 Q 2.54,0.63 2.71,4.31 2.87,7.98 3.50,15.66 4.13,23.34 5.18,31.92 6.24,40.49 7.55,48.09 8.87,55.68 9.79,60.37 10.70,65.06 10.72,67.21 10.74,69.35 10.78,69.77 10.83,70.20 10.73,70.61 10.63,71.02 10.41,71.39 10.19,71.75 9.86,72.02 9.53,72.29 9.14,72.44 8.74,72.60 8.32,72.62 7.89,72.63 7.48,72.52 7.08,72.40 6.73,72.16 6.38,71.91 6.12,71.57 5.87,71.23 5.74,70.83 5.61,70.42 5.61,70.00 5.62,69.57 5.76,69.17 5.90,68.77 6.16,68.44 6.42,68.10 6.77,67.87 7.13,67.63 7.54,67.52 7.95,67.41 8.37,67.44 8.80,67.47 9.19,67.63 9.58,67.79 9.90,68.07 10.23,68.35 10.44,68.71 10.66,69.08 10.74,69.50 10.83,69.91 10.78,70.33 10.73,70.76 10.55,71.14 10.36,71.52 10.07,71.83 9.77,72.13 9.39,72.33 9.02,72.52 8.60,72.59 8.18,72.65 7.76,72.58 7.34,72.51 6.97,72.30 6.59,72.10 6.30,71.79 6.01,71.48 5.84,71.09 5.67,70.70 5.67,70.70 5.67,70.70 4.62,68.83 3.57,66.96 1.97,62.20 0.37,57.44 -1.52,49.56 -3.41,41.68 -4.50,32.80 -5.60,23.92 -5.96,14.86 -6.32,5.81 -4.43,2.58 -2.54,-0.63 -2.43,-0.93 -2.32,-1.22 -2.14,-1.48 -1.96,-1.74 -1.72,-1.95 -1.48,-2.16 -1.20,-2.31 -0.92,-2.45 -0.61,-2.53 -0.30,-2.60 0.00,-2.60 0.32,-2.60 0.63,-2.52 0.93,-2.45 1.21,-2.30 1.49,-2.15 1.73,-1.94 1.97,-1.73 2.15,-1.47 2.32,-1.21 2.44,-0.91 2.55,-0.61 2.58,-0.30 2.62,0.00 2.58,0.32 2.54,0.63 2.54,0.63 L 2.54,0.63 Z"/></g><g transform="translate(711.3294441584497 713) rotate(0 7 -4.5)" stroke="none"><path fill="#1e1e1e" d="M -1.70,-1.99 Q -1.70,-1.99 -0.15,-4.25 1.39,-6.51 3.90,-8.17 6.40,-9.83 9.18,-10.40 11.97,-10.98 12.38,-11.08 12.79,-11.19 13.22,-11.15 13.64,-11.12 14.03,-10.96 14.42,-10.79 14.74,-10.51 15.06,-10.23 15.27,-9.86 15.48,-9.49 15.56,-9.07 15.65,-8.66 15.59,-8.24 15.54,-7.81 15.35,-7.43 15.16,-7.05 14.87,-6.75 14.57,-6.45 14.19,-6.25 13.81,-6.06 13.39,-6.00 12.97,-5.94 12.55,-6.02 12.13,-6.10 11.76,-6.30 11.39,-6.51 11.10,-6.83 10.82,-7.14 10.65,-7.53 10.48,-7.92 10.44,-8.34 10.40,-8.77 10.50,-9.18 10.60,-9.59 10.83,-9.95 11.06,-10.31 11.39,-10.58 11.71,-10.85 12.11,-11.00 12.51,-11.15 12.94,-11.16 13.36,-11.17 13.77,-11.05 14.17,-10.93 14.52,-10.68 14.87,-10.44 15.12,-10.09 15.37,-9.75 15.49,-9.34 15.62,-8.94 15.61,-8.51 15.60,-8.09 15.46,-7.69 15.32,-7.29 15.05,-6.96 14.79,-6.62 14.43,-6.39 14.07,-6.16 14.07,-6.16 14.07,-6.16 12.44,-4.80 10.81,-3.44 8.73,-1.91 6.65,-0.38 4.18,0.80 1.70,1.99 1.44,2.16 1.18,2.34 0.88,2.45 0.58,2.56 0.27,2.59 -0.04,2.62 -0.35,2.58 -0.67,2.53 -0.96,2.42 -1.25,2.30 -1.51,2.12 -1.77,1.93 -1.97,1.69 -2.18,1.45 -2.32,1.17 -2.47,0.89 -2.54,0.58 -2.61,0.27 -2.60,-0.04 -2.60,-0.35 -2.52,-0.66 -2.44,-0.97 -2.28,-1.24 -2.13,-1.52 -1.92,-1.76 -1.70,-1.99 -1.70,-1.99 L -1.70,-1.99 Z"/></g><g transform="translate(719.3294441584497 734) rotate(0 6.5 -2)" stroke="none"><path fill="#1e1e1e" d="M -0.32,-2.60 Q -0.32,-2.60 1.81,-3.48 3.95,-4.36 7.00,-5.79 10.05,-7.22 10.44,-7.39 10.83,-7.56 11.26,-7.60 11.68,-7.63 12.09,-7.53 12.50,-7.43 12.86,-7.21 13.22,-6.98 13.49,-6.65 13.76,-6.32 13.91,-5.92 14.06,-5.52 14.07,-5.10 14.08,-4.67 13.96,-4.27 13.84,-3.86 13.59,-3.51 13.34,-3.17 13.00,-2.92 12.66,-2.67 12.25,-2.54 11.84,-2.41 11.42,-2.42 10.99,-2.43 10.60,-2.58 10.20,-2.72 9.86,-2.99 9.53,-3.25 9.30,-3.61 9.07,-3.97 8.97,-4.38 8.86,-4.79 8.89,-5.21 8.93,-5.64 9.09,-6.03 9.26,-6.42 9.54,-6.74 9.82,-7.05 10.19,-7.27 10.56,-7.48 10.98,-7.56 11.39,-7.64 11.82,-7.58 12.24,-7.53 12.62,-7.34 13.00,-7.16 13.30,-6.86 13.60,-6.56 13.79,-6.18 13.99,-5.80 14.04,-5.38 14.10,-4.96 14.03,-4.54 13.95,-4.12 13.74,-3.75 13.53,-3.38 13.22,-3.09 12.90,-2.81 12.90,-2.81 12.90,-2.81 9.07,0.19 5.24,3.21 2.78,2.90 0.32,2.60 0.00,2.60 -0.30,2.60 -0.61,2.53 -0.92,2.45 -1.20,2.31 -1.48,2.16 -1.72,1.95 -1.95,1.74 -2.14,1.48 -2.32,1.22 -2.43,0.93 -2.54,0.63 -2.58,0.32 -2.62,0.00 -2.58,-0.30 -2.55,-0.61 -2.44,-0.91 -2.32,-1.21 -2.15,-1.47 -1.97,-1.73 -1.73,-1.94 -1.49,-2.15 -1.21,-2.30 -0.93,-2.45 -0.63,-2.52 -0.32,-2.60 -0.32,-2.60 L -0.32,-2.60 Z"/></g><g transform="translate(545.3294441584497 571) rotate(0 11.5 -13.5)" stroke="none"><path fill="#1e1e1e" d="M -2.07,-1.61 Q -2.07,-1.61 -0.93,-4.87 0.21,-8.14 2.78,-11.51 5.35,-14.88 8.72,-18.54 12.09,-22.21 15.93,-24.85 19.77,-27.50 20.12,-27.75 20.47,-27.99 20.87,-28.11 21.28,-28.24 21.70,-28.22 22.13,-28.21 22.53,-28.06 22.92,-27.92 23.26,-27.65 23.59,-27.38 23.81,-27.02 24.04,-26.66 24.14,-26.25 24.24,-25.84 24.21,-25.41 24.17,-24.99 24.00,-24.60 23.83,-24.21 23.55,-23.90 23.26,-23.58 22.89,-23.37 22.52,-23.16 22.10,-23.09 21.68,-23.01 21.26,-23.07 20.84,-23.13 20.46,-23.32 20.08,-23.51 19.78,-23.81 19.48,-24.11 19.30,-24.49 19.11,-24.87 19.05,-25.29 19.00,-25.72 19.08,-26.13 19.16,-26.55 19.37,-26.92 19.58,-27.29 19.90,-27.57 20.22,-27.85 20.61,-28.02 21.00,-28.19 21.42,-28.22 21.85,-28.25 22.26,-28.15 22.67,-28.04 23.03,-27.81 23.39,-27.58 23.65,-27.25 23.91,-26.92 24.06,-26.52 24.20,-26.12 24.21,-25.69 24.22,-25.27 24.10,-24.86 23.97,-24.46 23.72,-24.11 23.47,-23.77 23.47,-23.77 23.47,-23.77 21.09,-20.24 18.71,-16.71 15.86,-12.88 13.01,-9.06 10.42,-5.63 7.83,-2.20 4.95,-0.29 2.07,1.61 1.85,1.83 1.62,2.06 1.35,2.22 1.08,2.39 0.78,2.48 0.48,2.58 0.16,2.60 -0.14,2.62 -0.46,2.56 -0.77,2.51 -1.06,2.38 -1.35,2.25 -1.60,2.05 -1.85,1.86 -2.04,1.61 -2.24,1.36 -2.37,1.07 -2.50,0.79 -2.56,0.47 -2.62,0.16 -2.60,-0.14 -2.58,-0.46 -2.49,-0.76 -2.39,-1.06 -2.23,-1.34 -2.07,-1.61 -2.07,-1.61 L -2.07,-1.61 Z"/></g><g transform="translate(473.32944415844975 562) rotate(0 20 14)" stroke="none"><path fill="#1e1e1e" d="M -2.43,0.97 Q -2.43,0.97 -4.00,-0.04 -5.56,-1.06 -5.79,-1.41 -6.03,-1.76 -6.18,-2.31 -6.33,-2.86 -6.34,-3.43 -6.35,-4.00 -6.22,-4.56 -6.09,-5.12 -5.84,-5.63 -5.58,-6.14 -5.21,-6.57 -4.84,-7.01 -4.37,-7.34 -3.91,-7.67 -3.38,-7.88 -2.85,-8.10 -2.28,-8.17 -1.72,-8.25 -1.15,-8.19 -0.58,-8.14 -0.05,-7.94 0.48,-7.75 0.96,-7.43 1.43,-7.12 1.82,-6.70 2.21,-6.28 2.48,-5.78 2.75,-5.28 4.64,-2.27 6.53,0.73 9.00,4.71 11.47,8.70 15.86,14.83 20.25,20.97 24.17,26.52 28.09,32.07 30.84,35.81 33.59,39.55 34.66,31.78 35.72,24.00 36.23,15.94 36.74,7.88 36.67,1.09 36.59,-5.68 36.33,-9.64 36.07,-13.60 36.82,-15.41 37.57,-17.22 37.61,-17.64 37.64,-18.07 37.81,-18.45 37.98,-18.84 38.27,-19.16 38.56,-19.47 38.93,-19.68 39.30,-19.89 39.72,-19.96 40.13,-20.04 40.55,-19.98 40.98,-19.92 41.36,-19.73 41.73,-19.54 42.03,-19.24 42.33,-18.93 42.52,-18.55 42.70,-18.17 42.76,-17.75 42.81,-17.33 42.73,-16.91 42.65,-16.49 42.44,-16.13 42.23,-15.76 41.91,-15.48 41.59,-15.19 41.20,-15.03 40.81,-14.86 40.38,-14.83 39.96,-14.80 39.55,-14.90 39.14,-15.01 38.78,-15.24 38.42,-15.47 38.16,-15.80 37.89,-16.14 37.75,-16.54 37.61,-16.94 37.60,-17.36 37.59,-17.79 37.72,-18.19 37.84,-18.60 38.09,-18.94 38.34,-19.29 38.69,-19.53 39.04,-19.78 39.44,-19.90 39.85,-20.02 40.28,-20.01 40.70,-19.99 41.10,-19.84 41.50,-19.69 41.83,-19.43 42.16,-19.16 42.38,-18.80 42.61,-18.44 42.71,-18.03 42.81,-17.61 42.81,-17.61 42.81,-17.61 43.82,-15.93 44.84,-14.26 45.19,-10.00 45.55,-5.75 45.57,1.36 45.60,8.48 44.99,16.90 44.39,25.33 42.65,34.88 40.92,44.43 38.90,46.60 36.89,48.77 31.49,47.00 26.08,45.24 23.20,41.40 20.33,37.55 16.41,32.03 12.50,26.51 7.93,20.11 3.36,13.72 0.99,9.88 -1.38,6.04 -3.70,2.14 -6.03,-1.76 -6.18,-2.31 -6.33,-2.86 -6.34,-3.43 -6.35,-4.00 -6.22,-4.56 -6.09,-5.12 -5.84,-5.63 -5.58,-6.14 -5.21,-6.57 -4.84,-7.01 -4.37,-7.34 -3.91,-7.67 -3.38,-7.88 -2.85,-8.09 -2.28,-8.17 -1.72,-8.25 -1.15,-8.19 -0.58,-8.14 -0.05,-7.94 0.48,-7.75 0.96,-7.43 1.43,-7.12 1.82,-6.70 2.21,-6.28 2.48,-5.78 2.75,-5.28 3.01,-4.98 3.26,-4.68 2.85,-2.83 2.43,-0.97 2.52,-0.66 2.60,-0.36 2.60,-0.04 2.61,0.26 2.54,0.57 2.47,0.88 2.33,1.17 2.18,1.45 1.98,1.69 1.77,1.93 1.51,2.11 1.26,2.30 0.96,2.42 0.67,2.53 0.36,2.58 0.04,2.62 -0.26,2.59 -0.58,2.56 -0.88,2.45 -1.17,2.34 -1.44,2.17 -1.70,1.99 -1.92,1.76 -2.13,1.53 -2.28,1.25 -2.43,0.97 -2.43,0.97 L -2.43,0.97 Z"/></g><g transform="translate(514.3294441584497 483) rotate(0 33 -9)" stroke="none"><path fill="#1e1e1e" d="M -2.37,-1.12 Q -2.37,-1.12 -0.19,-7.50 1.97,-13.87 5.18,-20.75 8.39,-27.63 11.53,-33.53 14.68,-39.43 17.65,-43.22 20.62,-47.02 21.52,-47.14 22.42,-47.27 22.79,-47.66 23.17,-48.06 23.62,-48.35 24.07,-48.64 24.59,-48.81 25.10,-48.99 25.63,-49.03 26.17,-49.08 26.71,-49.00 27.24,-48.91 27.74,-48.71 28.23,-48.50 28.67,-48.18 29.10,-47.85 29.45,-47.44 29.79,-47.02 30.02,-46.54 30.26,-46.05 30.37,-45.52 30.48,-44.99 30.46,-44.45 30.44,-43.91 30.30,-43.39 30.15,-42.88 29.88,-42.41 29.62,-41.94 30.46,-36.87 31.30,-31.80 30.59,-22.98 29.88,-14.16 28.71,-5.25 27.55,3.64 26.46,10.59 25.38,17.54 24.54,21.61 23.70,25.68 23.55,26.22 23.39,26.76 23.11,27.25 22.84,27.73 22.45,28.14 22.06,28.55 21.59,28.85 21.12,29.16 20.59,29.34 20.06,29.52 19.50,29.57 18.94,29.62 18.38,29.53 17.83,29.44 17.31,29.23 16.79,29.01 16.34,28.67 15.89,28.34 15.53,27.91 15.18,27.47 14.93,26.97 14.69,26.46 14.57,25.91 14.46,25.36 14.47,24.80 14.49,24.24 15.54,19.29 16.59,14.33 18.01,6.75 19.43,-0.81 21.41,-8.76 23.39,-16.71 26.26,-24.61 29.12,-32.50 31.72,-36.75 34.31,-40.99 36.60,-43.37 38.88,-45.75 41.95,-47.10 45.02,-48.44 49.01,-48.92 53.01,-49.39 58.40,-48.51 63.80,-47.63 64.22,-47.56 64.64,-47.49 65.01,-47.29 65.39,-47.09 65.68,-46.78 65.97,-46.47 66.14,-46.08 66.32,-45.70 66.36,-45.27 66.41,-44.85 66.31,-44.44 66.22,-44.02 66.00,-43.66 65.78,-43.30 65.45,-43.02 65.13,-42.75 64.73,-42.59 64.34,-42.44 63.91,-42.42 63.49,-42.40 63.08,-42.51 62.67,-42.63 62.32,-42.87 61.97,-43.11 61.71,-43.45 61.46,-43.79 61.33,-44.19 61.19,-44.60 61.19,-45.02 61.20,-45.45 61.33,-45.85 61.47,-46.25 61.73,-46.59 61.99,-46.92 62.34,-47.16 62.70,-47.40 63.11,-47.51 63.52,-47.62 63.94,-47.59 64.37,-47.57 64.76,-47.41 65.15,-47.25 65.48,-46.97 65.80,-46.70 66.01,-46.33 66.23,-45.97 66.32,-45.55 66.41,-45.13 66.36,-44.71 66.31,-44.29 66.13,-43.91 65.95,-43.52 65.66,-43.21 65.36,-42.91 64.99,-42.71 64.61,-42.51 64.19,-42.45 63.77,-42.38 63.77,-42.38 63.77,-42.38 59.15,-41.56 54.53,-40.73 51.45,-39.94 48.37,-39.15 45.51,-37.44 42.66,-35.73 40.50,-32.35 38.34,-28.97 35.44,-21.63 32.54,-14.29 30.42,-6.70 28.30,0.89 26.84,8.25 25.37,15.61 24.54,20.64 23.70,25.68 23.55,26.22 23.39,26.76 23.12,27.25 22.84,27.73 22.45,28.14 22.07,28.55 21.59,28.85 21.12,29.16 20.59,29.34 20.06,29.52 19.50,29.57 18.94,29.62 18.38,29.53 17.83,29.44 17.31,29.23 16.79,29.01 16.34,28.67 15.89,28.34 15.53,27.91 15.18,27.48 14.93,26.97 14.69,26.46 14.57,25.91 14.46,25.36 14.47,24.80 14.49,24.24 15.14,20.15 15.80,16.05 16.86,9.20 17.93,2.35 19.12,-6.32 20.30,-15.00 21.08,-23.20 21.86,-31.41 22.14,-39.34 22.42,-47.27 22.79,-47.66 23.17,-48.06 23.62,-48.35 24.07,-48.64 24.59,-48.81 25.10,-48.99 25.63,-49.03 26.17,-49.08 26.71,-49.00 27.24,-48.91 27.74,-48.71 28.23,-48.50 28.67,-48.18 29.10,-47.85 29.45,-47.44 29.79,-47.02 30.02,-46.54 30.26,-46.05 30.37,-45.52 30.48,-44.99 30.46,-44.45 30.44,-43.91 30.30,-43.40 30.15,-42.88 29.88,-42.41 29.62,-41.94 27.84,-41.54 26.07,-41.14 24.11,-38.28 22.15,-35.42 19.09,-29.72 16.04,-24.03 12.78,-17.15 9.52,-10.27 5.94,-4.57 2.37,1.12 2.20,1.39 2.03,1.66 1.80,1.88 1.57,2.10 1.30,2.25 1.02,2.41 0.72,2.50 0.41,2.59 0.10,2.60 -0.21,2.61 -0.52,2.55 -0.83,2.49 -1.12,2.35 -1.40,2.21 -1.65,2.01 -1.89,1.81 -2.08,1.56 -2.27,1.31 -2.40,1.01 -2.52,0.72 -2.57,0.41 -2.62,0.10 -2.59,-0.21 -2.57,-0.52 -2.47,-0.82 -2.37,-1.12 -2.37,-1.12 L -2.37,-1.12 Z"/></g><g transform="translate(549.3294441584497 1162) rotate(0 182.5 -417.5)" stroke="none"><path fill="#1e1e1e" d="M -2.51,0.75 Q -2.51,0.75 -4.86,-4.80 -7.21,-10.37 -9.50,-16.41 -11.79,-22.45 -14.56,-29.92 -17.33,-37.39 -21.19,-47.71 -25.06,-58.02 -27.60,-66.89 -30.15,-75.77 -32.37,-83.79 -34.60,-91.82 -36.70,-99.86 -38.79,-107.89 -40.86,-116.82 -42.92,-125.76 -46.09,-138.99 -49.25,-152.22 -52.04,-163.89 -54.82,-175.56 -57.43,-185.96 -60.04,-196.35 -62.04,-205.76 -64.04,-215.17 -65.77,-226.76 -67.50,-238.34 -68.52,-248.79 -69.55,-259.24 -69.70,-269.59 -69.86,-279.94 -69.92,-289.15 -69.98,-298.37 -70.04,-306.31 -70.09,-314.25 -70.41,-324.17 -70.72,-334.08 -70.27,-343.42 -69.82,-352.75 -68.76,-362.26 -67.70,-371.76 -66.08,-381.34 -64.46,-390.91 -62.93,-400.37 -61.40,-409.83 -59.59,-421.04 -57.79,-432.25 -55.56,-442.06 -53.33,-451.88 -50.35,-462.17 -47.37,-472.46 -43.51,-484.33 -39.65,-496.20 -32.49,-513.75 -25.34,-531.30 -18.25,-546.56 -11.16,-561.82 -3.21,-576.46 4.73,-591.09 14.18,-606.30 23.63,-621.52 35.49,-637.59 47.36,-653.66 66.67,-673.62 85.98,-693.58 104.31,-709.58 122.64,-725.58 141.40,-740.18 160.15,-754.78 180.01,-768.24 199.86,-781.70 225.49,-794.73 251.12,-807.76 271.95,-815.58 292.78,-823.40 310.74,-827.84 328.69,-832.28 344.53,-834.31 360.37,-836.33 376.75,-836.15 393.13,-835.97 404.08,-835.13 415.04,-834.30 419.65,-834.09 424.27,-833.89 424.69,-833.80 425.10,-833.72 425.47,-833.50 425.84,-833.29 426.12,-832.97 426.40,-832.65 426.56,-832.26 426.73,-831.87 426.75,-831.44 426.78,-831.02 426.68,-830.61 426.57,-830.20 426.34,-829.84 426.10,-829.48 425.77,-829.22 425.43,-828.96 425.03,-828.82 424.63,-828.68 424.21,-828.67 423.78,-828.66 423.38,-828.79 422.97,-828.92 422.63,-829.18 422.29,-829.43 422.04,-829.78 421.80,-830.12 421.68,-830.53 421.56,-830.94 421.58,-831.36 421.60,-831.79 421.75,-832.19 421.90,-832.58 422.17,-832.91 422.44,-833.24 422.80,-833.46 423.16,-833.69 423.57,-833.79 423.99,-833.88 424.41,-833.84 424.83,-833.80 425.22,-833.63 425.61,-833.46 425.92,-833.17 426.24,-832.88 426.44,-832.51 426.65,-832.14 426.72,-831.72 426.79,-831.30 426.73,-830.88 426.67,-830.46 426.48,-830.08 426.28,-829.70 425.98,-829.41 425.67,-829.11 425.29,-828.93 424.91,-828.74 424.49,-828.69 424.06,-828.64 424.07,-828.64 424.07,-828.64 419.45,-828.79 414.83,-828.95 404.05,-828.97 393.28,-828.98 377.46,-828.10 361.65,-827.21 346.39,-824.88 331.14,-822.55 313.80,-818.09 296.47,-813.63 276.21,-805.92 255.95,-798.21 230.90,-785.52 205.85,-772.83 186.28,-759.59 166.70,-746.35 148.16,-731.96 129.62,-717.57 111.61,-701.88 93.59,-686.19 74.74,-666.77 55.89,-647.34 44.25,-631.63 32.61,-615.92 23.29,-600.99 13.97,-586.07 6.16,-571.73 -1.64,-557.39 -8.63,-542.36 -15.62,-527.33 -22.66,-510.14 -29.70,-492.95 -33.52,-481.25 -37.34,-469.55 -40.26,-459.56 -43.18,-449.57 -45.36,-440.08 -47.53,-430.59 -49.34,-419.38 -51.15,-408.16 -52.70,-398.67 -54.25,-389.19 -55.83,-379.89 -57.41,-370.60 -58.45,-361.42 -59.49,-352.24 -59.94,-343.32 -60.39,-334.39 -60.11,-324.34 -59.82,-314.28 -59.83,-306.36 -59.83,-298.43 -59.77,-289.26 -59.71,-280.08 -59.58,-270.15 -59.46,-260.23 -58.46,-250.03 -57.46,-239.84 -55.79,-228.56 -54.11,-217.27 -52.16,-208.05 -50.20,-198.82 -47.57,-188.37 -44.94,-177.92 -42.16,-166.25 -39.38,-154.58 -36.22,-141.30 -33.06,-128.02 -31.05,-119.22 -29.05,-110.42 -26.99,-102.44 -24.92,-94.46 -22.78,-86.44 -20.63,-78.43 -18.29,-69.85 -15.95,-61.28 -12.39,-50.83 -8.84,-40.38 -6.31,-32.82 -3.78,-25.26 -1.73,-18.94 0.31,-12.62 1.41,-6.69 2.51,-0.75 2.56,-0.44 2.62,-0.13 2.60,0.18 2.57,0.50 2.48,0.80 2.38,1.10 2.21,1.37 2.05,1.64 1.82,1.86 1.59,2.08 1.32,2.24 1.05,2.40 0.74,2.49 0.44,2.58 0.12,2.60 -0.18,2.62 -0.49,2.55 -0.80,2.49 -1.09,2.36 -1.38,2.23 -1.62,2.03 -1.87,1.83 -2.06,1.58 -2.26,1.33 -2.38,1.04 -2.51,0.75 -2.51,0.75 L -2.51,0.75 Z"/></g><g transform="translate(684.3294441584497 338) rotate(0 40 -2)" stroke="none"><path fill="#1e1e1e" d="M -2.27,-1.31 Q -2.27,-1.31 0.20,-7.17 2.68,-13.03 5.78,-18.00 8.89,-22.97 11.68,-27.12 14.46,-31.27 17.28,-34.40 20.11,-37.53 23.24,-39.42 26.38,-41.32 29.24,-41.50 32.10,-41.69 34.21,-40.38 36.31,-39.07 37.55,-36.21 38.78,-33.35 39.17,-30.02 39.56,-26.69 39.33,-21.45 39.09,-16.21 38.31,-10.78 37.54,-5.35 36.87,-0.27 36.21,4.80 35.66,9.84 35.10,14.88 34.88,20.08 34.66,25.29 34.48,28.38 34.30,31.48 34.26,32.52 34.23,33.56 34.17,33.94 34.11,34.31 33.97,34.67 33.82,35.02 33.59,35.33 33.37,35.64 33.07,35.88 32.78,36.13 32.43,36.29 32.09,36.46 31.72,36.54 31.34,36.62 30.96,36.61 30.58,36.60 30.21,36.50 29.84,36.39 29.51,36.21 29.17,36.02 28.89,35.75 28.62,35.49 28.41,35.17 28.20,34.85 28.08,34.49 27.95,34.13 27.92,33.74 27.88,33.36 28.03,28.57 28.18,23.77 28.22,19.53 28.26,15.30 28.47,8.81 28.69,2.31 29.09,-3.06 29.49,-8.44 30.25,-13.44 31.01,-18.44 32.25,-22.51 33.48,-26.58 34.97,-29.90 36.46,-33.22 38.34,-35.12 40.23,-37.02 43.68,-38.57 47.13,-40.12 49.54,-39.30 51.95,-38.48 53.85,-36.67 55.74,-34.86 56.97,-32.62 58.21,-30.37 59.02,-27.52 59.83,-24.68 60.17,-21.59 60.51,-18.50 60.91,-14.14 61.31,-9.78 61.46,-6.42 61.61,-3.05 61.61,-1.08 61.60,0.89 61.57,1.33 61.54,1.78 61.41,2.21 61.27,2.64 61.03,3.02 60.80,3.40 60.48,3.72 60.16,4.03 59.77,4.26 59.39,4.49 58.96,4.62 58.53,4.75 58.08,4.77 57.63,4.80 57.19,4.71 56.75,4.63 56.34,4.44 55.94,4.25 55.58,3.97 55.23,3.69 54.96,3.34 54.68,2.98 54.50,2.57 54.32,2.16 54.25,1.72 54.17,1.28 54.77,-2.29 55.38,-5.86 55.58,-9.32 55.78,-12.78 55.82,-16.29 55.85,-19.81 56.40,-23.05 56.96,-26.29 57.80,-28.96 58.64,-31.64 61.12,-34.16 63.59,-36.68 67.47,-36.80 71.35,-36.91 73.85,-33.76 76.35,-30.61 77.71,-27.37 79.07,-24.12 80.20,-21.24 81.33,-18.35 81.58,-18.01 81.84,-17.68 81.97,-17.27 82.11,-16.87 82.11,-16.45 82.11,-16.02 81.97,-15.62 81.84,-15.22 81.58,-14.88 81.32,-14.54 80.97,-14.30 80.62,-14.06 80.21,-13.95 79.80,-13.84 79.38,-13.86 78.95,-13.88 78.56,-14.04 78.16,-14.20 77.84,-14.47 77.51,-14.75 77.30,-15.11 77.08,-15.48 76.99,-15.89 76.89,-16.31 76.94,-16.73 76.99,-17.15 77.17,-17.54 77.35,-17.92 77.64,-18.23 77.93,-18.54 78.31,-18.74 78.68,-18.94 79.10,-19.01 79.52,-19.07 79.94,-19.01 80.36,-18.94 80.73,-18.74 81.11,-18.54 81.40,-18.23 81.69,-17.92 81.87,-17.53 82.05,-17.15 82.09,-16.73 82.14,-16.30 82.05,-15.89 81.96,-15.47 81.74,-15.11 81.52,-14.75 81.19,-14.47 80.87,-14.20 80.47,-14.04 80.08,-13.88 79.66,-13.86 79.23,-13.84 78.82,-13.95 78.41,-14.07 78.06,-14.30 77.71,-14.54 77.71,-14.54 77.71,-14.54 75.40,-16.98 73.09,-19.42 71.94,-22.17 70.79,-24.93 70.03,-27.26 69.27,-29.60 67.09,-29.42 64.90,-29.25 64.08,-27.13 63.26,-25.00 62.62,-22.35 61.98,-19.70 61.90,-16.13 61.83,-12.56 61.78,-8.81 61.73,-5.06 61.66,-2.08 61.60,0.89 61.57,1.33 61.54,1.78 61.41,2.21 61.27,2.64 61.03,3.02 60.80,3.40 60.48,3.72 60.16,4.03 59.77,4.26 59.39,4.49 58.96,4.62 58.53,4.75 58.08,4.77 57.63,4.80 57.19,4.71 56.75,4.63 56.34,4.44 55.94,4.25 55.58,3.97 55.23,3.70 54.96,3.34 54.68,2.98 54.50,2.57 54.32,2.16 54.25,1.72 54.17,1.28 54.02,-0.68 53.86,-2.64 53.67,-5.85 53.47,-9.05 53.06,-13.37 52.64,-17.70 52.42,-20.17 52.19,-22.64 51.67,-24.74 51.14,-26.84 49.30,-29.68 47.47,-32.51 45.48,-31.14 43.49,-29.76 42.25,-26.99 41.01,-24.22 39.87,-20.72 38.74,-17.21 37.98,-12.51 37.22,-7.81 36.76,-2.54 36.30,2.71 35.84,9.10 35.38,15.49 35.18,19.91 34.98,24.33 34.60,28.94 34.23,33.56 34.17,33.94 34.11,34.31 33.97,34.67 33.82,35.02 33.59,35.33 33.37,35.64 33.07,35.88 32.78,36.13 32.43,36.29 32.09,36.46 31.72,36.54 31.34,36.62 30.96,36.61 30.58,36.60 30.21,36.50 29.84,36.39 29.51,36.21 29.17,36.02 28.89,35.75 28.62,35.49 28.41,35.17 28.20,34.85 28.08,34.49 27.95,34.13 27.92,33.75 27.88,33.36 27.93,32.33 27.97,31.29 27.98,28.15 27.99,25.01 28.21,19.60 28.44,14.18 28.94,9.12 29.44,4.06 29.90,-1.08 30.36,-6.23 30.86,-11.35 31.37,-16.46 31.45,-21.16 31.53,-25.86 30.81,-30.03 30.09,-34.19 28.14,-33.05 26.19,-31.91 23.80,-29.26 21.42,-26.60 18.72,-22.55 16.03,-18.51 13.00,-13.66 9.96,-8.81 6.12,-3.74 2.27,1.31 2.08,1.56 1.89,1.82 1.64,2.02 1.40,2.22 1.11,2.35 0.82,2.49 0.51,2.55 0.20,2.61 -0.10,2.60 -0.42,2.59 -0.72,2.50 -1.03,2.41 -1.30,2.25 -1.58,2.09 -1.80,1.87 -2.03,1.65 -2.20,1.39 -2.37,1.12 -2.47,0.82 -2.57,0.52 -2.59,0.20 -2.62,-0.10 -2.57,-0.42 -2.52,-0.73 -2.39,-1.02 -2.27,-1.31 -2.27,-1.31 L -2.27,-1.31 Z"/></g><g transform="translate(226.32944415844975 230) rotate(0 9 23.5)" stroke="none"><path fill="#1e1e1e" d="M -1.45,2.18 Q -1.45,2.18 -3.42,1.55 -5.39,0.93 -7.55,0.97 -9.71,1.00 -12.85,3.74 -15.98,6.47 -17.77,9.61 -19.55,12.75 -20.85,17.00 -22.15,21.25 -22.76,26.31 -23.37,31.37 -22.86,35.80 -22.36,40.23 -20.07,44.27 -17.78,48.32 -15.00,50.31 -12.21,52.31 -9.34,52.25 -6.47,52.19 -3.36,50.73 -0.24,49.27 3.39,44.70 7.04,40.13 9.80,35.12 12.55,30.10 14.25,25.27 15.96,20.43 16.05,15.89 16.15,11.36 15.14,7.47 14.13,3.58 11.05,0.46 7.97,-2.64 5.29,-4.16 2.61,-5.68 -0.10,-4.82 -2.83,-3.95 -2.49,-0.42 -2.14,3.10 -0.59,4.59 0.96,6.08 3.05,7.24 5.14,8.40 7.40,8.84 9.65,9.27 12.86,8.93 16.06,8.60 18.88,7.48 21.71,6.35 24.93,4.60 28.15,2.84 31.71,1.00 35.27,-0.83 39.29,-2.26 43.30,-3.69 43.72,-3.80 44.13,-3.90 44.55,-3.87 44.98,-3.83 45.37,-3.67 45.76,-3.50 46.07,-3.21 46.39,-2.93 46.60,-2.56 46.81,-2.19 46.89,-1.77 46.97,-1.36 46.91,-0.94 46.86,-0.52 46.67,-0.13 46.48,0.24 46.18,0.54 45.88,0.84 45.50,1.03 45.12,1.22 44.70,1.28 44.28,1.33 43.86,1.25 43.44,1.17 43.07,0.97 42.70,0.76 42.42,0.44 42.13,0.13 41.97,-0.26 41.80,-0.65 41.76,-1.07 41.73,-1.49 41.83,-1.90 41.93,-2.32 42.16,-2.68 42.39,-3.03 42.72,-3.30 43.05,-3.57 43.45,-3.71 43.85,-3.86 44.27,-3.87 44.70,-3.89 45.10,-3.76 45.51,-3.64 45.86,-3.39 46.20,-3.14 46.45,-2.80 46.70,-2.45 46.82,-2.05 46.95,-1.64 46.94,-1.22 46.93,-0.79 46.78,-0.39 46.63,0.00 46.37,0.33 46.10,0.66 45.74,0.89 45.39,1.12 45.39,1.12 45.39,1.12 41.92,2.92 38.46,4.72 35.08,6.86 31.70,9.00 28.07,11.21 24.43,13.41 20.59,14.84 16.75,16.27 12.38,16.53 8.02,16.79 4.65,15.92 1.28,15.05 -1.74,13.13 -4.77,11.22 -7.14,8.19 -9.52,5.16 -10.15,1.64 -10.78,-1.87 -9.53,-5.59 -8.27,-9.31 -4.74,-11.59 -1.21,-13.88 2.72,-13.21 6.66,-12.55 10.26,-10.18 13.86,-7.81 17.43,-3.12 21.01,1.56 22.12,6.57 23.24,11.57 22.93,17.14 22.62,22.71 20.67,28.12 18.71,33.52 15.56,39.09 12.41,44.65 7.58,50.09 2.75,55.53 -1.91,57.33 -6.57,59.13 -11.18,58.62 -15.79,58.11 -19.77,54.99 -23.76,51.87 -26.58,46.58 -29.41,41.28 -30.10,35.93 -30.79,30.57 -30.17,24.77 -29.54,18.97 -27.93,13.90 -26.33,8.82 -23.97,4.92 -21.62,1.02 -18.91,-1.56 -16.21,-4.15 -11.18,-5.36 -6.15,-6.57 -3.83,-6.05 -1.50,-5.53 -0.02,-3.85 1.45,-2.18 1.69,-1.97 1.93,-1.77 2.12,-1.51 2.30,-1.25 2.42,-0.96 2.53,-0.66 2.58,-0.35 2.62,-0.04 2.59,0.27 2.56,0.58 2.45,0.88 2.34,1.18 2.16,1.44 1.99,1.70 1.76,1.92 1.52,2.13 1.24,2.28 0.97,2.44 0.66,2.52 0.35,2.60 0.04,2.60 -0.27,2.61 -0.58,2.54 -0.89,2.47 -1.17,2.32 -1.45,2.18 -1.45,2.18 L -1.45,2.18 Z"/></g></svg>