<svg version="1.1" xmlns="http://www.w3.org/2000/svg" viewBox="0 0 1456.0941151671527 1450.9664079594822" width="1456.0941151671527" height="1450.9664079594822" filter="invert(93%) hue-rotate(180deg)">
  <!-- svg-source:excalidraw -->
  
  <defs>
    <style class="style-fonts">
      @font-face {
        font-family: "Virgil";
        src: url("https://excalidraw.com/Virgil.woff2");
      }
      @font-face {
        font-family: "Cascadia";
        src: url("https://excalidraw.com/Cascadia.woff2");
      }
    </style>
    
  </defs>
  <rect x="0" y="0" width="1456.0941151671527" height="1450.9664079594822" fill="transparent"/><g stroke-linecap="round"><g transform="translate(10.094115167152609 810) rotate(0 605.5 -5.5)"><path d="M0.08 -0.06 C201.93 -1.89, 1009.33 -9.09, 1211.13 -10.9 M-0.09 -0.24 C201.74 -2.13, 1009.17 -9.33, 1211.05 -11.16" stroke="#1e1e1e" stroke-width="2" fill="none"/></g></g><mask/><g stroke-linecap="round"><g transform="translate(597.0941151671526 1441) rotate(0 -3 -485.5)"><path d="M0.14 -0.03 C-0.83 -161.85, -4.87 -809.14, -5.88 -970.97 M0.01 -0.19 C-0.96 -162.05, -4.94 -809.45, -5.95 -971.23" stroke="#1e1e1e" stroke-width="2" fill="none"/></g></g><mask/><g transform="translate(634.0941151671526 810) rotate(0 -5.5 18)" stroke="none"><path fill="#1e1e1e" d="M 0,2.62 Q 0,2.62 -2.46,3.65 -4.93,4.68 -6.28,6.87 -7.64,9.05 -8.87,14.01 -10.11,18.96 -10.72,23.33 -11.32,27.69 -12.67,29.55 -14.01,31.41 -11.55,28.17 -9.09,24.93 -6.52,20.93 -3.95,16.93 -2.37,13.37 -0.78,9.81 -4.05,11.11 -7.32,12.41 -7.71,12.57 -8.10,12.74 -8.52,12.77 -8.95,12.81 -9.36,12.70 -9.77,12.60 -10.13,12.37 -10.49,12.14 -10.75,11.81 -11.02,11.48 -11.17,11.08 -11.31,10.68 -11.32,10.26 -11.33,9.83 -11.21,9.42 -11.08,9.02 -10.83,8.67 -10.59,8.33 -10.24,8.08 -9.89,7.83 -9.49,7.71 -9.08,7.59 -8.66,7.60 -8.23,7.61 -7.83,7.76 -7.43,7.91 -7.10,8.17 -6.77,8.44 -6.54,8.80 -6.32,9.16 -6.21,9.57 -6.11,9.98 -6.15,10.40 -6.18,10.83 -6.35,11.22 -6.52,11.61 -6.80,11.92 -7.09,12.24 -7.46,12.45 -7.83,12.66 -8.25,12.74 -8.66,12.82 -9.09,12.76 -9.51,12.70 -9.89,12.51 -10.27,12.32 -10.57,12.02 -10.87,11.72 -11.06,11.34 -11.24,10.96 -11.30,10.54 -11.36,10.11 -11.28,9.70 -11.19,9.28 -10.99,8.91 -10.78,8.54 -10.46,8.26 -10.14,7.97 -10.14,7.97 -10.14,7.97 -7.30,5.28 -4.46,2.58 -0.88,1.58 2.70,0.59 5.62,3.28 8.54,5.98 8.04,9.77 7.54,13.57 5.58,17.71 3.62,21.85 0.55,26.50 -2.52,31.15 -6.56,34.74 -10.60,38.33 -14.70,36.95 -18.80,35.57 -19.77,31.01 -20.74,26.45 -20.05,21.44 -19.36,16.44 -17.53,10.17 -15.70,3.90 -13.31,0.79 -10.93,-2.31 -8.17,-3.49 -5.41,-4.68 -2.70,-3.65 0,-2.62 0.31,-2.58 0.62,-2.55 0.92,-2.43 1.22,-2.32 1.48,-2.14 1.74,-1.96 1.95,-1.72 2.16,-1.49 2.30,-1.21 2.45,-0.93 2.53,-0.62 2.60,-0.31 2.60,0.00 2.60,0.31 2.53,0.62 2.45,0.93 2.30,1.21 2.16,1.49 1.95,1.72 1.74,1.96 1.48,2.14 1.22,2.32 0.92,2.43 0.62,2.55 0.31,2.58 -0.00,2.62 -0.00,2.62 L 0,2.62 Z"/></g><g transform="translate(712.0941151671526 797) rotate(0 1.5 25)" stroke="none"><path fill="#1e1e1e" d="M 2.62,0 Q 2.62,0 3.22,2.29 3.82,4.59 4.13,8.60 4.43,12.61 4.56,17.61 4.70,22.62 4.75,27.62 4.80,32.61 5.00,36.62 5.20,40.62 5.26,44.28 5.33,47.94 5.32,48.36 5.32,48.79 5.19,49.19 5.05,49.59 4.79,49.93 4.53,50.27 4.18,50.50 3.83,50.74 3.42,50.85 3.01,50.96 2.58,50.94 2.16,50.92 1.76,50.76 1.37,50.60 1.05,50.32 0.72,50.05 0.51,49.68 0.29,49.32 0.20,48.90 0.11,48.48 0.16,48.06 0.20,47.64 0.38,47.26 0.56,46.87 0.86,46.56 1.15,46.26 1.53,46.06 1.90,45.86 2.32,45.79 2.74,45.73 3.16,45.80 3.58,45.87 3.95,46.07 4.33,46.27 4.62,46.58 4.91,46.89 5.09,47.27 5.27,47.66 5.31,48.08 5.35,48.50 5.26,48.92 5.17,49.33 4.95,49.70 4.73,50.06 4.40,50.33 4.08,50.61 3.68,50.76 3.29,50.92 2.86,50.94 2.44,50.96 2.03,50.85 1.62,50.73 1.27,50.49 0.92,50.25 0.66,49.91 0.41,49.57 0.27,49.17 0.14,48.77 0.14,48.77 0.14,48.77 -0.99,44.97 -2.12,41.18 -2.54,36.93 -2.96,32.69 -3.01,27.75 -3.06,22.82 -3.17,17.98 -3.28,13.14 -3.55,8.87 -3.82,4.60 -3.22,2.30 -2.62,0 -2.58,-0.31 -2.55,-0.62 -2.43,-0.92 -2.32,-1.22 -2.14,-1.48 -1.96,-1.74 -1.72,-1.95 -1.49,-2.16 -1.21,-2.30 -0.93,-2.45 -0.62,-2.53 -0.31,-2.60 0.00,-2.60 0.31,-2.60 0.62,-2.53 0.93,-2.45 1.21,-2.30 1.49,-2.16 1.72,-1.95 1.96,-1.74 2.14,-1.48 2.32,-1.22 2.43,-0.92 2.55,-0.62 2.58,-0.31 2.62,0.00 2.62,0.00 L 2.62,0 Z"/></g><g transform="translate(736.0941151671526 863) rotate(0 6 5)" stroke="none"><path fill="#1e1e1e" d="M -1.97,-1.72 Q -1.97,-1.72 -0.47,-4.48 1.02,-7.23 3.77,-9.11 6.52,-10.99 9.60,-10.19 12.68,-9.38 13.79,-5.59 14.89,-1.80 14.94,0.44 14.98,2.70 15.24,5.77 15.51,8.85 15.02,12.56 14.54,16.28 14.49,16.70 14.44,17.12 14.26,17.51 14.08,17.89 13.79,18.20 13.50,18.51 13.12,18.70 12.75,18.90 12.33,18.97 11.91,19.04 11.49,18.97 11.07,18.90 10.69,18.70 10.32,18.50 10.03,18.19 9.74,17.88 9.56,17.49 9.38,17.11 9.34,16.68 9.29,16.26 9.38,15.85 9.48,15.43 9.70,15.07 9.92,14.71 10.24,14.43 10.57,14.16 10.96,14.00 11.36,13.84 11.78,13.82 12.20,13.80 12.61,13.92 13.02,14.03 13.37,14.27 13.73,14.51 13.98,14.85 14.24,15.19 14.37,15.59 14.51,15.99 14.51,16.42 14.50,16.84 14.37,17.25 14.23,17.65 13.97,17.99 13.71,18.32 13.36,18.56 13.01,18.80 12.60,18.91 12.19,19.02 11.77,19.00 11.34,18.97 10.95,18.82 10.55,18.66 10.23,18.38 9.91,18.11 9.69,17.74 9.47,17.38 9.38,16.96 9.29,16.55 9.29,16.55 9.29,16.55 8.44,13.07 7.58,9.60 7.23,6.23 6.88,2.85 6.95,0.44 7.02,-1.96 4.50,-0.11 1.97,1.72 1.74,1.94 1.50,2.15 1.22,2.30 0.94,2.45 0.63,2.52 0.33,2.60 0.01,2.60 -0.30,2.60 -0.60,2.53 -0.91,2.46 -1.19,2.31 -1.47,2.17 -1.71,1.96 -1.95,1.75 -2.13,1.49 -2.31,1.23 -2.43,0.93 -2.54,0.64 -2.58,0.33 -2.62,0.01 -2.59,-0.29 -2.55,-0.61 -2.44,-0.90 -2.33,-1.20 -2.15,-1.46 -1.97,-1.72 -1.97,-1.72 L -1.97,-1.72 Z"/></g><g transform="translate(861.0941151671526 782) rotate(0 0 24)" stroke="none"><path fill="#1e1e1e" d="M 2.62,0.17 Q 2.62,0.17 2.99,4.53 3.37,8.88 3.62,13.39 3.86,17.89 3.94,22.52 4.01,27.15 4.16,31.88 4.32,36.61 3.93,41.24 3.53,45.87 3.48,46.30 3.43,46.72 3.25,47.10 3.07,47.48 2.77,47.79 2.47,48.09 2.10,48.29 1.72,48.48 1.30,48.55 0.88,48.61 0.46,48.54 0.04,48.46 -0.32,48.26 -0.69,48.06 -0.98,47.74 -1.27,47.43 -1.45,47.04 -1.62,46.66 -1.66,46.23 -1.70,45.81 -1.60,45.40 -1.51,44.98 -1.28,44.62 -1.06,44.26 -0.73,43.99 -0.41,43.72 -0.01,43.56 0.38,43.41 0.80,43.39 1.23,43.38 1.63,43.50 2.04,43.61 2.39,43.86 2.74,44.10 2.99,44.44 3.25,44.78 3.38,45.19 3.51,45.59 3.50,46.02 3.50,46.44 3.36,46.84 3.22,47.24 2.95,47.58 2.69,47.91 2.34,48.15 1.98,48.38 1.57,48.49 1.16,48.60 0.74,48.57 0.31,48.54 -0.07,48.38 -0.46,48.22 -0.78,47.94 -1.10,47.66 -1.32,47.29 -1.53,46.93 -1.62,46.51 -1.70,46.09 -1.70,46.09 -1.70,46.09 -2.48,41.60 -3.25,37.11 -3.74,32.19 -4.22,27.28 -4.29,22.73 -4.35,18.18 -4.44,13.27 -4.52,8.36 -3.57,4.09 -2.62,-0.17 -2.56,-0.48 -2.50,-0.79 -2.37,-1.08 -2.23,-1.37 -2.04,-1.62 -1.84,-1.86 -1.59,-2.06 -1.34,-2.25 -1.05,-2.38 -0.76,-2.51 -0.45,-2.56 -0.14,-2.62 0.17,-2.60 0.48,-2.58 0.79,-2.48 1.09,-2.38 1.36,-2.22 1.63,-2.05 1.85,-1.83 2.07,-1.60 2.23,-1.33 2.40,-1.06 2.49,-0.76 2.58,-0.45 2.60,-0.14 2.62,0.17 2.62,0.17 L 2.62,0.17 Z"/></g><g transform="translate(887.0941151671526 837) rotate(0 11 12.5)" stroke="none"><path fill="#1e1e1e" d="M 0,-2.62 Q 0,-2.62 2.63,-3.08 5.26,-3.54 7.57,-1.90 9.88,-0.26 10.90,2.48 11.93,5.22 11.65,8.76 11.37,12.29 10.63,15.21 9.89,18.14 9.35,20.61 8.81,23.09 14.23,22.83 19.65,22.57 20.07,22.60 20.50,22.63 20.89,22.80 21.28,22.96 21.60,23.24 21.92,23.52 22.13,23.89 22.34,24.26 22.43,24.67 22.51,25.09 22.46,25.51 22.40,25.93 22.22,26.32 22.03,26.70 21.74,27.00 21.44,27.31 21.06,27.50 20.68,27.69 20.26,27.75 19.84,27.81 19.42,27.74 19.00,27.66 18.63,27.45 18.26,27.25 17.97,26.93 17.69,26.62 17.51,26.23 17.34,25.84 17.30,25.42 17.27,25.00 17.37,24.58 17.46,24.17 17.69,23.81 17.92,23.45 18.24,23.18 18.57,22.91 18.97,22.76 19.37,22.61 19.79,22.60 20.22,22.58 20.62,22.70 21.03,22.82 21.38,23.07 21.73,23.31 21.98,23.66 22.23,24.00 22.36,24.40 22.49,24.81 22.48,25.23 22.47,25.66 22.33,26.06 22.18,26.46 21.92,26.79 21.66,27.13 21.30,27.36 20.95,27.59 20.53,27.70 20.12,27.80 20.12,27.80 20.12,27.80 15.26,28.93 10.41,30.05 7.63,29.86 4.85,29.67 3.25,28.06 1.65,26.45 1.30,23.89 0.94,21.33 1.59,18.69 2.24,16.04 2.94,13.69 3.64,11.33 3.79,7.44 3.93,3.54 1.96,3.08 0,2.62 -0.31,2.58 -0.62,2.55 -0.92,2.43 -1.22,2.32 -1.48,2.14 -1.74,1.96 -1.95,1.72 -2.16,1.49 -2.30,1.21 -2.45,0.93 -2.53,0.62 -2.60,0.31 -2.60,-0.00 -2.60,-0.31 -2.53,-0.62 -2.45,-0.93 -2.30,-1.21 -2.16,-1.49 -1.95,-1.72 -1.74,-1.96 -1.48,-2.14 -1.22,-2.32 -0.92,-2.43 -0.62,-2.55 -0.31,-2.58 0.00,-2.62 0.00,-2.62 L 0,-2.62 Z"/></g><g transform="translate(988.0941151671526 786) rotate(0 2 23.5)" stroke="none"><path fill="#1e1e1e" d="M 2.54,-0.63 Q 2.54,-0.63 4.45,2.55 6.36,5.75 6.87,12.24 7.39,18.73 7.51,24.26 7.63,29.79 7.27,34.45 6.92,39.11 6.66,43.02 6.41,46.93 6.39,47.35 6.36,47.78 6.21,48.17 6.05,48.57 5.78,48.89 5.50,49.22 5.14,49.44 4.78,49.66 4.36,49.75 3.95,49.84 3.52,49.80 3.10,49.75 2.72,49.58 2.33,49.40 2.02,49.11 1.71,48.82 1.51,48.44 1.31,48.07 1.24,47.65 1.17,47.23 1.24,46.81 1.31,46.39 1.50,46.01 1.70,45.64 2.01,45.34 2.32,45.05 2.70,44.87 3.09,44.69 3.51,44.64 3.93,44.60 4.35,44.69 4.76,44.78 5.13,45.00 5.49,45.21 5.77,45.54 6.04,45.86 6.20,46.25 6.36,46.65 6.38,47.07 6.41,47.50 6.30,47.91 6.18,48.32 5.95,48.67 5.71,49.02 5.37,49.28 5.03,49.54 4.63,49.67 4.23,49.81 3.80,49.81 3.38,49.81 2.98,49.68 2.57,49.54 2.23,49.29 1.89,49.03 1.66,48.68 1.42,48.33 1.30,47.92 1.19,47.51 1.19,47.51 1.19,47.51 0.03,43.37 -1.12,39.23 -1.60,34.65 -2.09,30.07 -2.28,24.70 -2.48,19.33 -2.69,13.68 -2.91,8.04 -2.72,4.34 -2.54,0.63 -2.58,0.32 -2.62,0.00 -2.58,-0.30 -2.55,-0.62 -2.44,-0.91 -2.32,-1.21 -2.15,-1.47 -1.97,-1.73 -1.73,-1.94 -1.49,-2.15 -1.21,-2.30 -0.93,-2.45 -0.63,-2.52 -0.32,-2.60 -0.00,-2.60 0.30,-2.60 0.61,-2.53 0.92,-2.45 1.20,-2.31 1.48,-2.16 1.72,-1.95 1.96,-1.74 2.14,-1.48 2.32,-1.22 2.43,-0.93 2.54,-0.63 2.54,-0.63 L 2.54,-0.63 Z"/></g><g transform="translate(1034.0941151671527 846) rotate(0 13.5 20)" stroke="none"><path fill="#1e1e1e" d="M -1.52,-2.13 Q -1.52,-2.13 0.04,-4.19 1.61,-6.25 3.64,-7.33 5.67,-8.40 8.26,-8.64 10.85,-8.87 14.62,-6.81 18.40,-4.75 20.46,-1.23 22.52,2.28 22.71,6.60 22.90,10.91 21.66,14.99 20.41,19.07 19.25,21.46 18.08,23.85 19.51,22.10 20.94,20.35 24.09,20.87 27.24,21.39 27.30,26.00 27.36,30.62 25.46,33.56 23.56,36.49 21.16,39.30 18.76,42.10 16.56,43.75 14.36,45.40 12.41,46.33 10.47,47.27 10.12,47.51 9.76,47.75 9.36,47.86 8.95,47.98 8.52,47.95 8.10,47.93 7.70,47.77 7.31,47.62 6.98,47.34 6.66,47.07 6.44,46.70 6.22,46.34 6.13,45.92 6.04,45.51 6.08,45.09 6.13,44.66 6.31,44.28 6.48,43.89 6.78,43.58 7.07,43.28 7.44,43.08 7.82,42.88 8.24,42.81 8.66,42.74 9.08,42.81 9.50,42.87 9.87,43.07 10.25,43.27 10.54,43.58 10.83,43.89 11.01,44.27 11.19,44.66 11.24,45.08 11.28,45.50 11.19,45.92 11.10,46.33 10.88,46.70 10.66,47.06 10.34,47.34 10.02,47.61 9.62,47.77 9.23,47.93 8.80,47.95 8.38,47.98 7.97,47.86 7.56,47.75 7.21,47.51 6.85,47.27 6.60,46.93 6.34,46.60 6.20,46.19 6.07,45.79 6.07,45.37 6.07,44.94 6.20,44.54 6.34,44.14 6.59,43.80 6.85,43.46 6.85,43.46 6.85,43.46 7.92,41.54 8.98,39.61 10.40,37.89 11.82,36.17 13.89,33.75 15.95,31.34 19.44,29.36 22.93,27.37 18.76,27.93 14.60,28.49 12.82,24.85 11.04,21.22 11.99,18.92 12.94,16.62 13.96,13.74 14.99,10.85 14.31,6.31 13.64,1.77 10.03,1.14 6.43,0.50 3.98,1.32 1.52,2.13 1.24,2.28 0.97,2.44 0.66,2.52 0.35,2.60 0.04,2.60 -0.27,2.61 -0.58,2.54 -0.89,2.47 -1.17,2.32 -1.45,2.18 -1.69,1.97 -1.93,1.77 -2.12,1.51 -2.30,1.25 -2.42,0.96 -2.53,0.66 -2.58,0.35 -2.62,0.04 -2.59,-0.27 -2.56,-0.58 -2.45,-0.88 -2.34,-1.18 -2.16,-1.44 -1.99,-1.71 -1.76,-1.92 -1.52,-2.13 -1.52,-2.13 L -1.52,-2.13 Z"/></g><g transform="translate(933.0941151671526 784) rotate(0 -0.5 12)" stroke="none"><path fill="#1e1e1e" d="M 2.57,0.51 Q 2.57,0.51 2.81,3.54 3.05,6.57 3.11,9.36 3.18,12.15 3.19,16.78 3.21,21.41 3.21,21.84 3.22,22.26 3.09,22.67 2.96,23.07 2.70,23.41 2.45,23.75 2.10,24.00 1.75,24.24 1.34,24.36 0.93,24.48 0.51,24.46 0.09,24.44 -0.30,24.29 -0.70,24.13 -1.02,23.86 -1.35,23.59 -1.57,23.23 -1.80,22.87 -1.89,22.45 -1.99,22.04 -1.95,21.61 -1.91,21.19 -1.73,20.80 -1.56,20.42 -1.27,20.10 -0.98,19.79 -0.61,19.59 -0.23,19.39 0.18,19.31 0.59,19.24 1.01,19.30 1.43,19.37 1.81,19.56 2.19,19.76 2.48,20.06 2.78,20.37 2.96,20.75 3.15,21.14 3.20,21.56 3.25,21.98 3.16,22.40 3.07,22.81 2.86,23.18 2.64,23.55 2.32,23.82 2.00,24.10 1.61,24.26 1.21,24.43 0.79,24.45 0.37,24.48 -0.03,24.37 -0.45,24.26 -0.80,24.03 -1.15,23.79 -1.41,23.46 -1.68,23.12 -1.82,22.72 -1.96,22.32 -1.96,22.32 -1.96,22.32 -3.63,17.30 -5.30,12.28 -5.33,8.60 -5.35,4.92 -3.96,2.20 -2.57,-0.51 -2.47,-0.81 -2.37,-1.11 -2.20,-1.38 -2.04,-1.65 -1.81,-1.87 -1.58,-2.09 -1.31,-2.25 -1.03,-2.41 -0.73,-2.50 -0.43,-2.59 -0.11,-2.60 0.20,-2.61 0.51,-2.55 0.82,-2.49 1.10,-2.36 1.39,-2.22 1.64,-2.02 1.88,-1.82 2.07,-1.57 2.26,-1.32 2.39,-1.03 2.52,-0.74 2.57,-0.42 2.62,-0.11 2.59,0.19 2.57,0.51 2.57,0.51 L 2.57,0.51 Z"/></g><g transform="translate(592.0941151671526 691) rotate(0 10 -2)" stroke="none"><path fill="#1e1e1e" d="M -0.32,-2.60 Q -0.32,-2.60 1.87,-3.71 4.06,-4.82 7.28,-5.66 10.50,-6.50 14.79,-6.09 19.08,-5.67 19.50,-5.58 19.91,-5.49 20.28,-5.27 20.64,-5.06 20.92,-4.73 21.20,-4.41 21.35,-4.02 21.51,-3.62 21.54,-3.20 21.56,-2.78 21.45,-2.37 21.34,-1.96 21.10,-1.60 20.87,-1.25 20.53,-0.99 20.19,-0.73 19.79,-0.59 19.39,-0.46 18.96,-0.45 18.54,-0.45 18.14,-0.59 17.73,-0.72 17.39,-0.98 17.05,-1.23 16.81,-1.58 16.57,-1.93 16.46,-2.34 16.34,-2.75 16.36,-3.17 16.38,-3.60 16.54,-3.99 16.69,-4.39 16.97,-4.72 17.24,-5.04 17.60,-5.26 17.97,-5.48 18.38,-5.58 18.80,-5.67 19.22,-5.62 19.64,-5.58 20.03,-5.40 20.41,-5.23 20.72,-4.94 21.03,-4.65 21.24,-4.27 21.44,-3.90 21.51,-3.48 21.58,-3.06 21.51,-2.64 21.44,-2.22 21.25,-1.84 21.05,-1.47 20.74,-1.17 20.44,-0.88 20.05,-0.70 19.67,-0.52 19.24,-0.47 18.82,-0.42 18.82,-0.42 18.82,-0.42 17.19,0.02 15.56,0.48 12.62,1.70 9.68,2.92 7.41,3.30 5.13,3.67 2.72,3.14 0.32,2.60 0.00,2.60 -0.30,2.60 -0.61,2.53 -0.92,2.45 -1.20,2.31 -1.48,2.16 -1.72,1.95 -1.95,1.74 -2.14,1.48 -2.32,1.22 -2.43,0.93 -2.54,0.63 -2.58,0.32 -2.62,0.00 -2.58,-0.30 -2.55,-0.61 -2.44,-0.91 -2.32,-1.21 -2.15,-1.47 -1.97,-1.73 -1.73,-1.94 -1.49,-2.15 -1.21,-2.30 -0.93,-2.45 -0.63,-2.52 -0.32,-2.60 -0.32,-2.60 L -0.32,-2.60 Z"/></g><g transform="translate(631.0941151671526 674) rotate(0 7 9.5)" stroke="none"><path fill="#1e1e1e" d="M -1.30,-2.28 Q -1.30,-2.28 0.59,-3.95 2.49,-5.62 5.24,-5.69 7.99,-5.76 10.59,-4.14 13.18,-2.52 14.81,1.00 16.44,4.53 16.94,7.82 17.45,11.11 17.60,13.94 17.76,16.77 17.55,19.07 17.34,21.38 17.36,21.80 17.38,22.23 17.26,22.63 17.14,23.04 16.90,23.39 16.66,23.74 16.32,24.00 15.98,24.25 15.57,24.38 15.17,24.51 14.75,24.51 14.32,24.51 13.92,24.37 13.52,24.23 13.18,23.97 12.85,23.71 12.61,23.35 12.37,23.00 12.26,22.59 12.15,22.18 12.18,21.76 12.21,21.33 12.37,20.94 12.53,20.55 12.81,20.22 13.09,19.90 13.45,19.69 13.82,19.47 14.23,19.38 14.65,19.29 15.07,19.34 15.49,19.39 15.88,19.58 16.26,19.76 16.57,20.05 16.87,20.35 17.07,20.73 17.26,21.10 17.33,21.52 17.39,21.94 17.32,22.36 17.25,22.78 17.05,23.15 16.84,23.53 16.53,23.82 16.22,24.11 15.84,24.28 15.45,24.46 15.03,24.50 14.60,24.54 14.19,24.45 13.77,24.35 13.41,24.13 13.05,23.91 12.78,23.58 12.51,23.25 12.35,22.86 12.20,22.46 12.20,22.46 12.20,22.46 10.96,19.88 9.72,17.30 9.52,14.78 9.33,12.25 9.02,9.71 8.70,7.16 7.13,4.09 5.55,1.02 3.43,1.65 1.30,2.28 1.01,2.40 0.71,2.52 0.40,2.57 0.09,2.62 -0.22,2.59 -0.53,2.57 -0.83,2.46 -1.13,2.36 -1.40,2.19 -1.67,2.02 -1.88,1.79 -2.10,1.56 -2.26,1.29 -2.42,1.01 -2.50,0.71 -2.59,0.40 -2.60,0.09 -2.61,-0.22 -2.55,-0.53 -2.48,-0.84 -2.35,-1.12 -2.21,-1.41 -2.01,-1.65 -1.81,-1.90 -1.55,-2.09 -1.30,-2.28 -1.30,-2.28 L -1.30,-2.28 Z"/></g><g transform="translate(585.0941151671526 604) rotate(0 8.5 -2)" stroke="none"><path fill="#1e1e1e" d="M -0.89,-2.46 Q -0.89,-2.46 2.03,-4.27 4.95,-6.07 7.78,-6.47 10.61,-6.86 13.12,-6.67 15.64,-6.47 16.06,-6.45 16.49,-6.44 16.88,-6.29 17.28,-6.14 17.61,-5.87 17.94,-5.60 18.16,-5.24 18.39,-4.88 18.49,-4.47 18.59,-4.05 18.55,-3.63 18.51,-3.21 18.34,-2.82 18.17,-2.43 17.88,-2.12 17.59,-1.80 17.22,-1.60 16.85,-1.39 16.43,-1.31 16.01,-1.24 15.59,-1.30 15.17,-1.36 14.79,-1.55 14.42,-1.75 14.12,-2.05 13.82,-2.35 13.64,-2.73 13.45,-3.12 13.40,-3.54 13.34,-3.96 13.43,-4.38 13.51,-4.79 13.72,-5.16 13.94,-5.53 14.25,-5.81 14.57,-6.09 14.97,-6.25 15.36,-6.42 15.78,-6.45 16.21,-6.48 16.62,-6.37 17.03,-6.27 17.38,-6.04 17.74,-5.80 18.00,-5.47 18.27,-5.14 18.41,-4.74 18.55,-4.34 18.56,-3.91 18.57,-3.49 18.44,-3.08 18.31,-2.68 18.06,-2.33 17.81,-1.99 17.46,-1.75 17.11,-1.50 16.71,-1.38 16.30,-1.26 16.30,-1.26 16.30,-1.26 14.15,-0.47 12.01,0.31 9.85,0.89 7.69,1.47 4.29,1.97 0.89,2.46 0.58,2.54 0.28,2.61 -0.03,2.60 -0.35,2.60 -0.65,2.52 -0.96,2.44 -1.24,2.29 -1.52,2.14 -1.75,1.92 -1.98,1.71 -2.16,1.45 -2.34,1.18 -2.45,0.89 -2.55,0.59 -2.59,0.27 -2.62,-0.03 -2.58,-0.34 -2.54,-0.66 -2.42,-0.95 -2.30,-1.25 -2.12,-1.51 -1.94,-1.76 -1.70,-1.97 -1.46,-2.18 -1.17,-2.32 -0.89,-2.46 -0.89,-2.46 L -0.89,-2.46 Z"/></g><g transform="translate(627.0941151671526 572) rotate(0 10.5 15)" stroke="none"><path fill="#1e1e1e" d="M -0.89,-2.46 Q -0.89,-2.46 2.16,-4.05 5.22,-5.65 8.74,-4.70 12.26,-3.75 13.16,-1.54 14.07,0.66 13.40,5.27 12.73,9.87 11.24,14.91 9.75,19.94 8.86,23.48 7.98,27.01 9.52,28.63 11.07,30.26 15.28,30.39 19.49,30.52 19.92,30.54 20.34,30.56 20.74,30.72 21.13,30.87 21.46,31.15 21.78,31.42 22.01,31.78 22.23,32.15 22.32,32.56 22.41,32.97 22.37,33.40 22.33,33.82 22.15,34.21 21.98,34.59 21.69,34.90 21.39,35.21 21.02,35.42 20.65,35.62 20.23,35.69 19.81,35.76 19.39,35.69 18.97,35.63 18.59,35.43 18.22,35.23 17.92,34.93 17.63,34.62 17.45,34.24 17.27,33.85 17.22,33.43 17.17,33.01 17.26,32.59 17.35,32.18 17.56,31.81 17.78,31.45 18.10,31.17 18.42,30.89 18.82,30.73 19.21,30.57 19.64,30.55 20.06,30.52 20.47,30.63 20.88,30.74 21.23,30.98 21.59,31.22 21.85,31.55 22.11,31.89 22.24,32.29 22.38,32.69 22.38,33.12 22.39,33.54 22.25,33.95 22.12,34.35 21.87,34.69 21.61,35.03 21.26,35.27 20.91,35.51 20.50,35.63 20.09,35.74 20.09,35.74 20.09,35.74 17.11,36.42 14.13,37.09 10.92,36.86 7.71,36.63 5.21,34.81 2.72,33.00 1.70,29.41 0.68,25.82 1.59,21.80 2.51,17.78 3.90,13.17 5.30,8.55 6.36,4.80 7.42,1.05 4.16,1.75 0.89,2.46 0.58,2.54 0.28,2.61 -0.03,2.60 -0.35,2.60 -0.65,2.52 -0.96,2.44 -1.24,2.29 -1.52,2.14 -1.75,1.92 -1.98,1.71 -2.16,1.45 -2.34,1.18 -2.45,0.89 -2.55,0.59 -2.59,0.27 -2.62,-0.03 -2.58,-0.34 -2.54,-0.66 -2.42,-0.95 -2.30,-1.25 -2.12,-1.51 -1.94,-1.76 -1.70,-1.97 -1.46,-2.18 -1.17,-2.32 -0.89,-2.46 -0.89,-2.46 L -0.89,-2.46 Z"/></g><g transform="translate(584.0941151671526 513) rotate(0 10 -7)" stroke="none"><path fill="#1e1e1e" d="M -1.85,-1.85 Q -1.85,-1.85 -0.43,-4.46 0.98,-7.07 4.68,-9.81 8.38,-12.56 12.75,-14.00 17.12,-15.45 17.53,-15.58 17.93,-15.72 18.35,-15.72 18.78,-15.72 19.18,-15.58 19.58,-15.45 19.92,-15.19 20.26,-14.93 20.50,-14.58 20.74,-14.23 20.85,-13.82 20.96,-13.41 20.94,-12.98 20.92,-12.56 20.76,-12.16 20.60,-11.77 20.33,-11.45 20.05,-11.12 19.69,-10.90 19.32,-10.68 18.91,-10.59 18.49,-10.50 18.07,-10.55 17.65,-10.59 17.26,-10.77 16.88,-10.95 16.57,-11.24 16.26,-11.54 16.06,-11.91 15.86,-12.29 15.80,-12.71 15.73,-13.13 15.80,-13.55 15.86,-13.97 16.06,-14.34 16.26,-14.72 16.57,-15.01 16.88,-15.30 17.27,-15.48 17.65,-15.66 18.07,-15.70 18.50,-15.75 18.91,-15.66 19.33,-15.56 19.69,-15.35 20.05,-15.13 20.33,-14.80 20.60,-14.48 20.76,-14.08 20.92,-13.69 20.94,-13.26 20.96,-12.84 20.85,-12.43 20.74,-12.02 20.50,-11.67 20.26,-11.32 19.92,-11.06 19.58,-10.80 19.58,-10.80 19.58,-10.80 16.51,-8.30 13.43,-5.80 10.24,-3.39 7.06,-0.97 4.45,0.43 1.85,1.85 1.60,2.05 1.35,2.24 1.07,2.37 0.78,2.50 0.46,2.56 0.15,2.62 -0.15,2.60 -0.47,2.58 -0.77,2.48 -1.07,2.39 -1.34,2.23 -1.61,2.06 -1.84,1.84 -2.06,1.61 -2.23,1.34 -2.39,1.07 -2.48,0.77 -2.58,0.47 -2.60,0.15 -2.62,-0.15 -2.56,-0.47 -2.50,-0.78 -2.37,-1.07 -2.24,-1.35 -2.05,-1.60 -1.85,-1.85 -1.85,-1.85 L -1.85,-1.85 Z"/></g><g transform="translate(631.0941151671526 482) rotate(0 10.5 21)" stroke="none"><path fill="#1e1e1e" d="M -0.63,-2.54 Q -0.63,-2.54 1.57,-3.56 3.77,-4.57 6.16,-4.55 8.54,-4.54 10.99,-2.42 13.43,-0.30 13.32,2.27 13.20,4.85 12.00,7.31 10.80,9.76 12.55,11.86 14.30,13.96 17.56,17.17 20.83,20.37 21.75,22.93 22.68,25.49 23.63,28.91 24.58,32.34 24.17,34.55 23.75,36.76 21.63,38.71 19.51,40.67 17.64,41.81 15.77,42.96 13.65,44.12 11.53,45.29 11.17,45.51 10.80,45.72 10.39,45.82 9.97,45.91 9.55,45.86 9.13,45.81 8.74,45.63 8.36,45.46 8.05,45.16 7.74,44.87 7.54,44.49 7.34,44.12 7.28,43.70 7.21,43.28 7.28,42.86 7.35,42.44 7.55,42.07 7.75,41.69 8.05,41.40 8.36,41.11 8.75,40.93 9.14,40.75 9.56,40.71 9.98,40.66 10.40,40.75 10.81,40.84 11.17,41.06 11.54,41.28 11.81,41.61 12.09,41.93 12.24,42.33 12.40,42.72 12.42,43.15 12.45,43.57 12.33,43.98 12.22,44.39 11.98,44.74 11.74,45.09 11.40,45.35 11.06,45.61 10.66,45.74 10.26,45.88 9.83,45.88 9.41,45.87 9.00,45.74 8.60,45.60 8.26,45.34 7.93,45.09 7.69,44.73 7.45,44.38 7.34,43.97 7.22,43.56 7.25,43.14 7.27,42.71 7.43,42.32 7.59,41.93 7.86,41.60 8.14,41.28 8.14,41.28 8.14,41.28 9.83,39.21 11.52,37.15 13.92,34.38 16.33,31.61 15.18,27.99 14.04,24.38 12.91,22.47 11.78,20.57 8.86,19.24 5.94,17.92 4.51,16.26 3.08,14.60 2.89,12.37 2.71,10.14 4.06,6.21 5.42,2.27 3.02,2.41 0.63,2.54 0.32,2.58 0.00,2.62 -0.30,2.58 -0.62,2.55 -0.91,2.44 -1.21,2.32 -1.47,2.15 -1.73,1.97 -1.94,1.73 -2.15,1.49 -2.30,1.21 -2.45,0.93 -2.52,0.63 -2.60,0.32 -2.60,0.00 -2.60,-0.30 -2.53,-0.61 -2.45,-0.92 -2.31,-1.20 -2.16,-1.48 -1.95,-1.72 -1.74,-1.96 -1.48,-2.14 -1.22,-2.32 -0.93,-2.43 -0.63,-2.54 -0.63,-2.54 L -0.63,-2.54 Z"/></g><g transform="translate(577.0941151671526 384) rotate(0 9 -1.5)" stroke="none"><path fill="#1e1e1e" d="M -1.03,-2.41 Q -1.03,-2.41 0.65,-4.08 2.34,-5.76 5.78,-6.21 9.22,-6.65 14.03,-6.09 18.84,-5.52 19.26,-5.47 19.68,-5.42 20.07,-5.24 20.45,-5.06 20.76,-4.77 21.07,-4.47 21.26,-4.10 21.46,-3.72 21.53,-3.30 21.59,-2.88 21.52,-2.46 21.45,-2.04 21.25,-1.67 21.05,-1.29 20.74,-1.00 20.43,-0.71 20.04,-0.54 19.65,-0.36 19.23,-0.32 18.81,-0.28 18.39,-0.37 17.98,-0.46 17.62,-0.68 17.25,-0.91 16.98,-1.23 16.71,-1.56 16.55,-1.95 16.40,-2.35 16.38,-2.77 16.36,-3.20 16.47,-3.61 16.59,-4.01 16.83,-4.36 17.07,-4.72 17.41,-4.97 17.75,-5.23 18.15,-5.36 18.56,-5.49 18.98,-5.49 19.41,-5.49 19.81,-5.35 20.21,-5.21 20.55,-4.95 20.88,-4.69 21.12,-4.34 21.36,-3.99 21.47,-3.57 21.58,-3.16 21.55,-2.74 21.53,-2.32 21.37,-1.92 21.21,-1.53 20.93,-1.21 20.65,-0.88 20.29,-0.67 19.92,-0.45 19.51,-0.36 19.09,-0.27 19.09,-0.27 19.09,-0.27 14.69,0.73 10.29,1.74 8.00,2.02 5.70,2.31 3.37,2.36 1.03,2.41 0.73,2.50 0.42,2.59 0.11,2.60 -0.20,2.61 -0.51,2.55 -0.82,2.49 -1.11,2.35 -1.39,2.22 -1.64,2.02 -1.89,1.82 -2.08,1.57 -2.27,1.31 -2.39,1.02 -2.52,0.73 -2.57,0.42 -2.62,0.11 -2.59,-0.20 -2.57,-0.52 -2.47,-0.82 -2.37,-1.12 -2.20,-1.38 -2.03,-1.65 -1.81,-1.87 -1.58,-2.09 -1.30,-2.25 -1.03,-2.41 -1.03,-2.41 L -1.03,-2.41 Z"/></g><g transform="translate(651.0941151671526 361) rotate(0 0.5 11.5)" stroke="none"><path fill="#1e1e1e" d="M 2.34,1.17 Q 2.34,1.17 1.31,4.25 0.28,7.33 -1.23,9.86 -2.74,12.40 -3.87,14.49 -5.00,16.57 -1.75,17.34 1.50,18.11 5.21,17.89 8.93,17.67 9.35,17.67 9.78,17.67 10.18,17.81 10.58,17.94 10.92,18.20 11.26,18.46 11.50,18.81 11.74,19.16 11.85,19.57 11.96,19.98 11.94,20.40 11.92,20.83 11.76,21.22 11.60,21.62 11.33,21.94 11.05,22.27 10.69,22.49 10.33,22.70 9.91,22.80 9.50,22.89 9.07,22.84 8.65,22.80 8.27,22.62 7.88,22.44 7.57,22.15 7.26,21.86 7.06,21.48 6.86,21.10 6.80,20.69 6.73,20.27 6.79,19.85 6.86,19.43 7.06,19.05 7.26,18.68 7.57,18.38 7.88,18.09 8.26,17.91 8.65,17.73 9.07,17.69 9.49,17.64 9.91,17.73 10.32,17.82 10.69,18.04 11.05,18.26 11.33,18.59 11.60,18.91 11.76,19.31 11.92,19.70 11.94,20.12 11.96,20.55 11.85,20.96 11.74,21.37 11.50,21.72 11.26,22.07 10.92,22.33 10.58,22.59 10.18,22.72 9.78,22.86 9.78,22.86 9.78,22.86 6.05,23.86 2.31,24.87 -1.03,25.31 -4.37,25.76 -7.51,24.58 -10.65,23.40 -11.72,20.51 -12.79,17.63 -12.12,15.33 -11.44,13.04 -10.17,10.81 -8.90,8.58 -7.46,6.37 -6.03,4.16 -4.19,1.49 -2.34,-1.17 -2.17,-1.43 -1.99,-1.70 -1.76,-1.91 -1.53,-2.13 -1.25,-2.28 -0.97,-2.43 -0.67,-2.51 -0.36,-2.60 -0.05,-2.60 0.26,-2.61 0.57,-2.54 0.88,-2.47 1.16,-2.33 1.44,-2.19 1.69,-1.98 1.93,-1.78 2.11,-1.52 2.30,-1.26 2.41,-0.97 2.53,-0.67 2.58,-0.36 2.62,-0.05 2.59,0.26 2.56,0.57 2.45,0.87 2.34,1.17 2.34,1.17 L 2.34,1.17 Z"/></g><g transform="translate(662.0941151671526 375) rotate(0 -8.5 13.5)" stroke="none"><path fill="#1e1e1e" d="M 2.15,1.50 Q 2.15,1.50 0.46,4.60 -1.22,7.71 -3.51,10.95 -5.80,14.20 -7.96,17.46 -10.11,20.71 -12.01,23.73 -13.91,26.76 -14.17,27.10 -14.42,27.44 -14.77,27.68 -15.12,27.92 -15.53,28.04 -15.94,28.16 -16.36,28.14 -16.79,28.12 -17.18,27.97 -17.58,27.81 -17.90,27.54 -18.23,27.27 -18.45,26.91 -18.68,26.55 -18.77,26.13 -18.87,25.72 -18.83,25.29 -18.79,24.87 -18.61,24.48 -18.44,24.10 -18.15,23.79 -17.86,23.47 -17.48,23.27 -17.11,23.07 -16.69,23.00 -16.27,22.92 -15.85,22.99 -15.43,23.05 -15.06,23.25 -14.68,23.44 -14.38,23.75 -14.09,24.05 -13.91,24.44 -13.72,24.82 -13.67,25.24 -13.62,25.66 -13.71,26.08 -13.80,26.50 -14.01,26.86 -14.23,27.23 -14.55,27.51 -14.87,27.79 -15.26,27.95 -15.66,28.11 -16.08,28.14 -16.50,28.16 -16.92,28.05 -17.33,27.94 -17.68,27.71 -18.03,27.47 -18.29,27.14 -18.56,26.80 -18.70,26.40 -18.83,26.00 -18.84,25.57 -18.84,25.15 -18.71,24.75 -18.58,24.34 -18.58,24.34 -18.58,24.34 -17.09,20.81 -15.60,17.27 -13.50,13.75 -11.41,10.22 -9.12,7.00 -6.82,3.78 -4.48,1.14 -2.15,-1.50 -1.94,-1.74 -1.72,-1.97 -1.46,-2.15 -1.20,-2.33 -0.90,-2.44 -0.61,-2.55 -0.29,-2.59 0.01,-2.62 0.33,-2.58 0.64,-2.54 0.94,-2.43 1.23,-2.31 1.49,-2.13 1.75,-1.95 1.96,-1.71 2.17,-1.47 2.31,-1.19 2.46,-0.91 2.53,-0.60 2.60,-0.29 2.60,0.01 2.60,0.33 2.52,0.64 2.44,0.94 2.30,1.22 2.15,1.50 2.15,1.50 L 2.15,1.50 Z"/></g><g transform="translate(574.0941151671526 302) rotate(0 8.5 -1)" stroke="none"><path fill="#1e1e1e" d="M -0.29,-2.61 Q -0.29,-2.61 2.23,-3.49 4.75,-4.37 7.20,-4.70 9.66,-5.03 12.60,-4.76 15.54,-4.50 15.96,-4.47 16.39,-4.44 16.78,-4.28 17.17,-4.11 17.49,-3.83 17.81,-3.55 18.02,-3.18 18.23,-2.81 18.32,-2.39 18.40,-1.98 18.35,-1.56 18.29,-1.14 18.11,-0.75 17.92,-0.37 17.62,-0.07 17.33,0.23 16.95,0.42 16.57,0.61 16.15,0.67 15.73,0.73 15.31,0.65 14.89,0.58 14.52,0.37 14.15,0.16 13.86,-0.14 13.57,-0.45 13.40,-0.84 13.23,-1.23 13.19,-1.65 13.16,-2.08 13.26,-2.49 13.35,-2.90 13.58,-3.26 13.81,-3.62 14.14,-3.89 14.46,-4.16 14.86,-4.31 15.26,-4.46 15.68,-4.48 16.11,-4.49 16.52,-4.37 16.92,-4.25 17.27,-4.00 17.62,-3.76 17.87,-3.41 18.12,-3.07 18.25,-2.67 18.38,-2.26 18.37,-1.84 18.36,-1.41 18.22,-1.01 18.07,-0.61 17.81,-0.28 17.55,0.05 17.19,0.28 16.83,0.51 16.42,0.61 16.01,0.72 16.01,0.72 16.01,0.72 13.42,1.48 10.83,2.24 8.21,2.73 5.59,3.22 2.94,2.91 0.29,2.61 -0.02,2.60 -0.34,2.60 -0.64,2.52 -0.95,2.44 -1.23,2.29 -1.51,2.14 -1.74,1.93 -1.98,1.72 -2.16,1.45 -2.33,1.19 -2.44,0.89 -2.55,0.60 -2.59,0.28 -2.62,-0.02 -2.58,-0.34 -2.54,-0.65 -2.42,-0.94 -2.31,-1.24 -2.13,-1.50 -1.94,-1.76 -1.70,-1.96 -1.46,-2.17 -1.18,-2.32 -0.90,-2.46 -0.59,-2.53 -0.28,-2.61 -0.28,-2.61 L -0.29,-2.61 Z"/></g><g transform="translate(642.0941151671526 264) rotate(0 7 25)" stroke="none"><path fill="#1e1e1e" d="M 2.59,0.43 Q 2.59,0.43 2.22,5.68 1.86,10.94 1.80,14.57 1.74,18.20 2.84,20.73 3.94,23.26 7.19,22.83 10.43,22.40 12.64,23.18 14.85,23.96 16.77,26.59 18.69,29.22 19.40,33.03 20.11,36.83 18.90,40.97 17.69,45.12 17.34,46.65 16.99,48.18 16.85,48.58 16.71,48.98 16.44,49.31 16.18,49.65 15.83,49.88 15.47,50.11 15.06,50.22 14.65,50.33 14.22,50.30 13.80,50.27 13.41,50.10 13.02,49.94 12.70,49.66 12.38,49.38 12.16,49.01 11.95,48.65 11.87,48.23 11.78,47.81 11.83,47.39 11.89,46.97 12.07,46.59 12.26,46.20 12.55,45.90 12.85,45.60 13.23,45.40 13.61,45.21 14.03,45.15 14.45,45.09 14.87,45.16 15.29,45.24 15.66,45.44 16.03,45.65 16.32,45.96 16.60,46.27 16.78,46.66 16.95,47.05 16.99,47.47 17.03,47.90 16.93,48.31 16.83,48.72 16.61,49.08 16.38,49.44 16.05,49.71 15.72,49.98 15.33,50.14 14.93,50.29 14.51,50.30 14.08,50.32 13.67,50.20 13.27,50.08 12.92,49.83 12.57,49.59 12.32,49.25 12.07,48.90 11.94,48.50 11.81,48.10 11.81,47.67 11.82,47.25 11.82,47.25 11.82,47.25 12.03,45.69 12.23,44.13 12.33,41.01 12.44,37.88 11.79,34.11 11.15,30.33 8.91,29.93 6.68,29.54 3.56,29.12 0.45,28.70 -1.53,26.58 -3.52,24.46 -4.51,21.32 -5.51,18.19 -5.41,13.97 -5.31,9.75 -3.95,4.66 -2.59,-0.43 -2.50,-0.73 -2.41,-1.03 -2.25,-1.31 -2.09,-1.58 -1.87,-1.81 -1.65,-2.04 -1.38,-2.20 -1.11,-2.37 -0.81,-2.47 -0.51,-2.57 -0.19,-2.59 0.11,-2.62 0.42,-2.57 0.74,-2.51 1.03,-2.39 1.32,-2.26 1.57,-2.07 1.82,-1.88 2.02,-1.64 2.22,-1.39 2.36,-1.10 2.49,-0.82 2.55,-0.51 2.61,-0.20 2.60,0.11 2.59,0.43 2.59,0.43 L 2.59,0.43 Z"/></g><g transform="translate(643.0941151671526 282) rotate(0 9 -5)" stroke="none"><path fill="#1e1e1e" d="M -1.72,-1.97 Q -1.72,-1.97 0.34,-4.26 2.41,-6.54 5.45,-8.15 8.48,-9.75 12.04,-10.81 15.60,-11.88 16.01,-11.97 16.43,-12.06 16.85,-12.01 17.27,-11.96 17.66,-11.78 18.04,-11.60 18.35,-11.30 18.65,-11.01 18.85,-10.63 19.05,-10.25 19.11,-9.83 19.18,-9.41 19.11,-8.99 19.03,-8.57 18.83,-8.20 18.63,-7.83 18.32,-7.54 18.01,-7.25 17.62,-7.07 17.23,-6.90 16.81,-6.85 16.39,-6.81 15.97,-6.91 15.56,-7.00 15.20,-7.22 14.83,-7.44 14.56,-7.77 14.29,-8.10 14.14,-8.49 13.98,-8.89 13.96,-9.31 13.94,-9.74 14.06,-10.15 14.18,-10.55 14.42,-10.90 14.66,-11.25 15.00,-11.51 15.34,-11.76 15.74,-11.90 16.15,-12.03 16.57,-12.02 17.00,-12.02 17.40,-11.88 17.80,-11.74 18.14,-11.48 18.47,-11.22 18.71,-10.87 18.94,-10.52 19.05,-10.11 19.16,-9.70 19.14,-9.27 19.11,-8.85 18.95,-8.45 18.79,-8.06 18.51,-7.74 18.24,-7.42 17.87,-7.20 17.50,-6.98 17.50,-6.98 17.50,-6.98 14.51,-5.50 11.52,-4.01 9.15,-2.75 6.78,-1.50 4.25,0.23 1.72,1.97 1.46,2.15 1.20,2.33 0.90,2.44 0.61,2.55 0.29,2.59 -0.01,2.62 -0.33,2.58 -0.64,2.54 -0.93,2.43 -1.23,2.31 -1.49,2.13 -1.75,1.95 -1.96,1.71 -2.17,1.47 -2.31,1.19 -2.46,0.91 -2.53,0.60 -2.60,0.30 -2.60,-0.01 -2.60,-0.33 -2.52,-0.63 -2.45,-0.94 -2.30,-1.22 -2.15,-1.50 -1.94,-1.74 -1.72,-1.97 -1.72,-1.97 L -1.72,-1.97 Z"/></g><g transform="translate(918.0941151671526 254) rotate(0 3 26.5)" stroke="none"><path fill="#1e1e1e" d="M 2.60,-0.32 Q 2.60,-0.32 3.98,4.17 5.36,8.67 6.17,15.22 6.98,21.78 7.70,27.70 8.41,33.62 8.26,39.21 8.10,44.81 8.24,47.11 8.37,49.41 8.33,49.83 8.29,50.26 8.12,50.65 7.95,51.03 7.66,51.35 7.38,51.66 7.00,51.87 6.63,52.07 6.21,52.15 5.80,52.23 5.38,52.17 4.96,52.10 4.58,51.91 4.20,51.72 3.90,51.42 3.60,51.11 3.42,50.73 3.23,50.35 3.18,49.93 3.12,49.51 3.21,49.09 3.29,48.67 3.50,48.30 3.72,47.94 4.03,47.66 4.35,47.37 4.75,47.21 5.14,47.05 5.56,47.02 5.98,46.98 6.40,47.09 6.81,47.20 7.16,47.43 7.52,47.66 7.78,47.99 8.05,48.33 8.19,48.73 8.33,49.13 8.34,49.55 8.35,49.98 8.22,50.38 8.09,50.79 7.84,51.13 7.59,51.47 7.24,51.72 6.89,51.96 6.49,52.09 6.08,52.21 5.65,52.19 5.23,52.18 4.83,52.03 4.44,51.88 4.11,51.61 3.78,51.34 3.55,50.98 3.33,50.62 3.23,50.20 3.13,49.79 3.13,49.79 3.13,49.79 2.93,47.50 2.73,45.20 1.79,40.00 0.85,34.79 -0.27,28.81 -1.40,22.83 -2.23,16.28 -3.06,9.72 -2.83,5.02 -2.60,0.32 -2.60,0.00 -2.60,-0.30 -2.53,-0.61 -2.45,-0.92 -2.31,-1.20 -2.16,-1.48 -1.95,-1.72 -1.74,-1.95 -1.48,-2.14 -1.22,-2.32 -0.93,-2.43 -0.63,-2.54 -0.32,-2.58 -0.00,-2.62 0.30,-2.58 0.61,-2.55 0.91,-2.44 1.21,-2.32 1.47,-2.15 1.73,-1.97 1.94,-1.73 2.15,-1.49 2.30,-1.21 2.45,-0.93 2.52,-0.63 2.60,-0.32 2.60,-0.32 L 2.60,-0.32 Z"/></g><g transform="translate(906.0941151671526 278) rotate(0 14 -3.5)" stroke="none"><path fill="#1e1e1e" d="M -0.97,-2.43 Q -0.97,-2.43 1.56,-4.43 4.09,-6.42 7.46,-7.54 10.83,-8.66 15.79,-8.93 20.75,-9.19 22.74,-9.16 24.72,-9.12 25.15,-9.12 25.57,-9.12 25.97,-8.99 26.38,-8.85 26.72,-8.59 27.05,-8.33 27.29,-7.98 27.53,-7.63 27.64,-7.22 27.76,-6.81 27.73,-6.39 27.71,-5.96 27.55,-5.57 27.39,-5.17 27.12,-4.85 26.84,-4.53 26.48,-4.31 26.11,-4.09 25.70,-4.00 25.28,-3.91 24.86,-3.95 24.44,-4.00 24.05,-4.18 23.67,-4.36 23.36,-4.65 23.05,-4.94 22.85,-5.32 22.65,-5.69 22.59,-6.11 22.52,-6.53 22.59,-6.95 22.66,-7.37 22.86,-7.75 23.06,-8.12 23.36,-8.41 23.67,-8.71 24.06,-8.88 24.44,-9.06 24.87,-9.11 25.29,-9.15 25.70,-9.06 26.12,-8.97 26.48,-8.75 26.85,-8.53 27.12,-8.21 27.40,-7.88 27.55,-7.49 27.71,-7.09 27.73,-6.67 27.76,-6.24 27.64,-5.83 27.53,-5.42 27.29,-5.07 27.05,-4.72 26.71,-4.46 26.37,-4.21 25.97,-4.07 25.57,-3.94 25.57,-3.94 25.57,-3.94 23.70,-3.28 21.82,-2.61 17.71,-1.40 13.60,-0.18 10.50,0.82 7.40,1.82 4.18,2.13 0.97,2.43 0.66,2.52 0.36,2.60 0.04,2.60 -0.26,2.61 -0.57,2.54 -0.88,2.47 -1.17,2.33 -1.45,2.18 -1.69,1.98 -1.93,1.77 -2.11,1.51 -2.30,1.26 -2.42,0.96 -2.53,0.67 -2.58,0.36 -2.62,0.04 -2.59,-0.26 -2.56,-0.58 -2.45,-0.88 -2.34,-1.17 -2.17,-1.44 -1.99,-1.70 -1.76,-1.92 -1.53,-2.13 -1.25,-2.28 -0.97,-2.43 -0.97,-2.43 L -0.97,-2.43 Z"/></g><g transform="translate(849.0941151671526 234) rotate(0 22.5 17)" stroke="none"><path fill="#1e1e1e" d="M -2.60,-0.37 Q -2.60,-0.37 -3.16,-2.50 -3.72,-4.63 -3.58,-5.14 -3.45,-5.65 -3.19,-6.10 -2.94,-6.56 -2.59,-6.95 -2.23,-7.33 -1.79,-7.62 -1.36,-7.91 -0.86,-8.08 -0.37,-8.26 0.14,-8.31 0.66,-8.36 1.18,-8.29 1.70,-8.21 2.18,-8.02 2.67,-7.82 3.09,-7.52 3.52,-7.21 3.86,-6.81 4.20,-6.41 4.43,-5.94 4.66,-5.47 4.78,-4.96 4.89,-4.45 4.88,-3.93 4.87,-3.41 6.87,2.11 8.87,7.63 10.27,14.39 11.67,21.15 13.09,27.99 14.52,34.82 17.68,31.62 20.84,28.41 24.16,20.71 27.48,13.00 30.69,5.31 33.90,-2.37 36.38,-6.15 38.86,-9.93 40.14,-11.34 41.43,-12.75 41.68,-13.09 41.93,-13.44 42.27,-13.68 42.62,-13.93 43.03,-14.05 43.44,-14.17 43.86,-14.16 44.28,-14.15 44.68,-14.00 45.08,-13.85 45.41,-13.58 45.74,-13.31 45.97,-12.95 46.19,-12.59 46.29,-12.18 46.39,-11.77 46.36,-11.34 46.32,-10.92 46.15,-10.53 45.98,-10.14 45.69,-9.83 45.41,-9.51 45.04,-9.31 44.67,-9.10 44.25,-9.02 43.83,-8.94 43.41,-9.00 42.99,-9.06 42.61,-9.25 42.23,-9.44 41.93,-9.75 41.63,-10.05 41.45,-10.43 41.26,-10.81 41.20,-11.23 41.15,-11.66 41.23,-12.07 41.31,-12.49 41.53,-12.86 41.74,-13.23 42.06,-13.51 42.37,-13.79 42.76,-13.96 43.16,-14.12 43.58,-14.15 44.00,-14.19 44.42,-14.08 44.83,-13.98 45.18,-13.75 45.54,-13.51 45.80,-13.18 46.07,-12.85 46.21,-12.45 46.36,-12.05 46.37,-11.62 46.38,-11.20 46.25,-10.79 46.12,-10.39 46.12,-10.39 46.12,-10.39 45.76,-8.52 45.39,-6.65 43.99,-2.70 42.59,1.23 39.36,9.00 36.14,16.77 32.44,25.16 28.75,33.54 24.20,39.68 19.65,45.83 16.47,46.35 13.28,46.88 9.25,41.87 5.22,36.86 3.77,29.95 2.31,23.05 1.00,16.42 -0.30,9.79 -1.25,5.32 -2.21,0.85 -2.96,-1.89 -3.72,-4.63 -3.58,-5.14 -3.45,-5.64 -3.19,-6.10 -2.94,-6.56 -2.59,-6.95 -2.23,-7.33 -1.79,-7.62 -1.36,-7.91 -0.86,-8.08 -0.37,-8.26 0.14,-8.31 0.66,-8.36 1.18,-8.29 1.70,-8.21 2.18,-8.02 2.67,-7.82 3.09,-7.52 3.52,-7.21 3.86,-6.81 4.20,-6.41 4.43,-5.94 4.66,-5.47 4.78,-4.96 4.89,-4.45 4.88,-3.93 4.87,-3.41 3.73,-1.51 2.60,0.37 2.51,0.67 2.43,0.98 2.28,1.26 2.12,1.53 1.91,1.76 1.69,2.00 1.43,2.17 1.17,2.35 0.87,2.45 0.57,2.56 0.25,2.59 -0.05,2.62 -0.36,2.58 -0.68,2.53 -0.97,2.41 -1.26,2.29 -1.52,2.11 -1.78,1.92 -1.98,1.68 -2.19,1.44 -2.33,1.16 -2.47,0.87 -2.54,0.57 -2.61,0.26 -2.60,-0.05 -2.60,-0.37 -2.60,-0.37 L -2.60,-0.37 Z"/></g><g transform="translate(571.0941151671526 195) rotate(0 9.5 -4.5)" stroke="none"><path fill="#1e1e1e" d="M -2.01,1.68 Q -2.01,1.68 -4.16,0.54 -6.31,-0.59 -7.81,-3.20 -9.30,-5.80 -7.47,-8.77 -5.65,-11.73 -3.24,-11.85 -0.83,-11.97 1.42,-12.26 3.68,-12.55 6.40,-12.94 9.13,-13.32 11.97,-13.42 14.80,-13.52 19.10,-12.13 23.41,-10.75 23.82,-10.65 24.23,-10.55 24.59,-10.32 24.95,-10.10 25.22,-9.77 25.49,-9.44 25.64,-9.04 25.79,-8.64 25.80,-8.22 25.82,-7.79 25.69,-7.38 25.57,-6.98 25.33,-6.63 25.08,-6.28 24.74,-6.03 24.39,-5.78 23.99,-5.66 23.58,-5.53 23.16,-5.54 22.73,-5.55 22.33,-5.69 21.93,-5.83 21.60,-6.10 21.27,-6.36 21.04,-6.72 20.80,-7.07 20.70,-7.49 20.59,-7.90 20.63,-8.32 20.66,-8.75 20.82,-9.14 20.99,-9.53 21.27,-9.85 21.55,-10.17 21.92,-10.38 22.29,-10.59 22.71,-10.67 23.12,-10.75 23.54,-10.70 23.97,-10.64 24.35,-10.46 24.73,-10.27 25.03,-9.97 25.33,-9.67 25.53,-9.29 25.72,-8.92 25.78,-8.49 25.84,-8.07 25.76,-7.66 25.68,-7.24 25.47,-6.87 25.27,-6.50 24.95,-6.21 24.64,-5.92 24.25,-5.75 23.86,-5.58 23.44,-5.55 23.01,-5.51 23.01,-5.51 23.01,-5.51 19.22,-4.73 15.43,-3.95 13.01,-3.69 10.60,-3.44 7.74,-2.99 4.88,-2.55 0.80,-2.29 -3.26,-2.02 -1.35,-4.16 0.56,-6.30 1.29,-3.99 2.01,-1.68 2.18,-1.41 2.36,-1.14 2.46,-0.85 2.56,-0.55 2.59,-0.23 2.62,0.07 2.57,0.39 2.53,0.70 2.40,0.99 2.28,1.29 2.10,1.54 1.91,1.80 1.66,2.00 1.42,2.20 1.14,2.34 0.85,2.48 0.54,2.54 0.23,2.61 -0.07,2.60 -0.39,2.59 -0.70,2.51 -1.00,2.42 -1.28,2.27 -1.55,2.11 -1.78,1.89 -2.01,1.68 -2.01,1.68 L -2.01,1.68 Z"/></g><g transform="translate(628.0941151671526 161) rotate(0 -2 18)" stroke="none"><path fill="#1e1e1e" d="M 1.39,2.22 Q 1.39,2.22 -0.54,4.13 -2.47,6.05 -3.78,8.15 -5.08,10.26 -6.15,14.81 -7.21,19.36 -7.16,23.05 -7.10,26.73 -5.31,29.24 -3.51,31.74 -0.46,30.82 2.58,29.90 -0.07,27.83 -2.73,25.77 -3.12,25.60 -3.51,25.43 -3.83,25.15 -4.14,24.86 -4.35,24.49 -4.56,24.12 -4.64,23.70 -4.72,23.28 -4.66,22.86 -4.60,22.44 -4.41,22.06 -4.22,21.68 -3.92,21.38 -3.61,21.08 -3.23,20.90 -2.85,20.71 -2.43,20.65 -2.01,20.60 -1.59,20.68 -1.17,20.76 -0.81,20.97 -0.44,21.18 -0.15,21.50 0.12,21.82 0.28,22.21 0.45,22.60 0.48,23.02 0.52,23.45 0.41,23.86 0.31,24.27 0.08,24.63 -0.14,24.99 -0.48,25.25 -0.81,25.52 -1.21,25.66 -1.61,25.81 -2.03,25.82 -2.46,25.82 -2.86,25.70 -3.27,25.57 -3.61,25.32 -3.96,25.07 -4.20,24.73 -4.45,24.38 -4.57,23.97 -4.69,23.57 -4.68,23.14 -4.67,22.72 -4.52,22.32 -4.37,21.92 -4.10,21.59 -3.84,21.26 -3.48,21.03 -3.12,20.81 -2.70,20.71 -2.29,20.61 -1.87,20.64 -1.45,20.68 -1.45,20.68 -1.45,20.68 1.00,20.74 3.45,20.81 6.27,22.27 9.09,23.73 10.16,26.31 11.22,28.89 10.47,31.21 9.72,33.54 7.63,35.32 5.54,37.10 1.99,38.23 -1.56,39.36 -4.68,38.72 -7.81,38.08 -10.28,35.84 -12.76,33.61 -13.82,30.23 -14.88,26.85 -14.83,22.14 -14.77,17.43 -13.12,11.71 -11.47,5.98 -9.09,2.84 -6.72,-0.30 -4.05,-1.26 -1.39,-2.22 -1.10,-2.36 -0.81,-2.49 -0.50,-2.55 -0.19,-2.61 0.11,-2.60 0.43,-2.59 0.73,-2.50 1.04,-2.41 1.31,-2.25 1.58,-2.09 1.81,-1.87 2.04,-1.65 2.21,-1.38 2.37,-1.11 2.47,-0.81 2.57,-0.51 2.60,-0.19 2.62,0.11 2.57,0.43 2.51,0.74 2.39,1.03 2.26,1.32 2.07,1.57 1.88,1.82 1.63,2.02 1.39,2.22 1.39,2.22 L 1.39,2.22 Z"/></g><g transform="translate(572.0941151671526 130) rotate(0 5 -1.5)" stroke="none"><path fill="#1e1e1e" d="M -0.92,-2.45 Q -0.92,-2.45 1.16,-3.90 3.24,-5.35 6.28,-5.34 9.33,-5.34 9.75,-5.36 10.18,-5.37 10.58,-5.25 10.99,-5.13 11.34,-4.88 11.68,-4.64 11.93,-4.29 12.18,-3.95 12.31,-3.54 12.44,-3.14 12.43,-2.71 12.42,-2.29 12.28,-1.89 12.13,-1.49 11.87,-1.15 11.61,-0.82 11.25,-0.59 10.89,-0.36 10.48,-0.25 10.07,-0.15 9.65,-0.18 9.22,-0.21 8.83,-0.38 8.44,-0.54 8.12,-0.82 7.80,-1.10 7.59,-1.47 7.38,-1.84 7.30,-2.26 7.21,-2.68 7.27,-3.10 7.32,-3.52 7.51,-3.90 7.70,-4.28 7.99,-4.58 8.29,-4.89 8.67,-5.08 9.05,-5.27 9.47,-5.33 9.89,-5.39 10.31,-5.31 10.73,-5.24 11.10,-5.03 11.47,-4.82 11.76,-4.51 12.04,-4.19 12.21,-3.81 12.38,-3.42 12.42,-2.99 12.46,-2.57 12.36,-2.16 12.26,-1.74 12.03,-1.38 11.81,-1.02 11.48,-0.76 11.15,-0.49 10.75,-0.34 10.35,-0.19 10.35,-0.19 10.35,-0.19 8.15,0.85 5.95,1.90 3.43,2.18 0.92,2.45 0.61,2.53 0.30,2.60 -0.00,2.60 -0.32,2.60 -0.63,2.52 -0.94,2.45 -1.22,2.30 -1.50,2.15 -1.73,1.94 -1.97,1.73 -2.15,1.47 -2.33,1.21 -2.44,0.91 -2.55,0.61 -2.58,0.30 -2.62,-0.00 -2.58,-0.32 -2.54,-0.63 -2.43,-0.93 -2.32,-1.22 -2.14,-1.48 -1.95,-1.74 -1.72,-1.95 -1.48,-2.16 -1.20,-2.31 -0.92,-2.45 -0.92,-2.45 L -0.92,-2.45 Z"/></g><g stroke-linecap="round"><g transform="translate(1270.0941151671527 211) rotate(0 -450.5 3)"><path d="M-0.11 -0.1 C-150.24 0.9, -750.74 5.13, -900.9 6.12 M0.13 0.2 C-150.01 1.22, -750.76 4.94, -900.98 5.9" stroke="#1e1e1e" stroke-width="2" fill="none"/></g></g><mask/><g transform="translate(432.0941151671526 182) rotate(0 5.5 -12.5)" stroke="none"><path fill="#1e1e1e" d="M -2.05,1.64 Q -2.05,1.64 -2.96,1.40 -3.87,1.16 -5.51,4.23 -7.16,7.30 -8.88,10.81 -10.61,14.32 -11.32,17.17 -12.04,20.02 -14.21,20.55 -16.37,21.07 -14.11,17.46 -11.86,13.85 -9.42,8.63 -6.98,3.41 -4.17,-3.72 -1.36,-10.86 2.42,-21.10 6.21,-31.34 8.41,-37.17 10.61,-43.00 14.82,-46.79 19.03,-50.58 21.31,-49.65 23.59,-48.72 25.52,-43.88 27.44,-39.04 28.00,-32.33 28.55,-25.62 28.97,-18.38 29.39,-11.13 30.05,-7.34 30.71,-3.54 30.85,-1.80 30.99,-0.07 31.01,0.35 31.04,0.77 30.93,1.18 30.82,1.59 30.58,1.95 30.35,2.30 30.01,2.56 29.68,2.82 29.27,2.96 28.87,3.10 28.45,3.10 28.02,3.11 27.62,2.97 27.22,2.84 26.87,2.59 26.53,2.33 26.29,1.98 26.05,1.64 25.93,1.23 25.82,0.82 25.84,0.39 25.85,-0.02 26.01,-0.42 26.16,-0.81 26.43,-1.14 26.71,-1.47 27.07,-1.69 27.43,-1.91 27.85,-2.01 28.26,-2.10 28.68,-2.06 29.11,-2.02 29.49,-1.84 29.88,-1.67 30.19,-1.38 30.50,-1.09 30.70,-0.71 30.91,-0.34 30.98,0.07 31.05,0.49 30.99,0.91 30.92,1.33 30.73,1.71 30.53,2.08 30.22,2.38 29.92,2.67 29.53,2.85 29.15,3.04 28.73,3.09 28.31,3.14 27.89,3.05 27.47,2.96 27.11,2.74 26.74,2.53 26.46,2.21 26.19,1.88 26.03,1.49 25.86,1.10 25.86,1.10 25.86,1.10 25.23,-0.51 24.60,-2.14 23.44,-6.25 22.29,-10.36 21.15,-17.66 20.00,-24.96 19.46,-32.39 18.91,-39.82 16.73,-34.04 14.55,-28.25 10.75,-17.93 6.94,-7.61 4.06,-0.18 1.18,7.23 -1.65,13.27 -4.49,19.32 -7.89,23.27 -11.29,27.22 -15.46,26.27 -19.64,25.31 -20.53,21.59 -21.42,17.87 -20.42,13.89 -19.43,9.91 -17.12,5.47 -14.82,1.03 -10.96,-2.91 -7.11,-6.86 -3.92,-6.89 -0.72,-6.91 0.66,-4.28 2.05,-1.64 2.21,-1.37 2.38,-1.10 2.48,-0.80 2.57,-0.49 2.60,-0.18 2.62,0.13 2.56,0.44 2.51,0.75 2.38,1.04 2.26,1.33 2.06,1.58 1.87,1.83 1.62,2.03 1.38,2.23 1.09,2.36 0.80,2.49 0.49,2.55 0.18,2.62 -0.13,2.60 -0.44,2.58 -0.75,2.49 -1.05,2.40 -1.32,2.24 -1.59,2.08 -1.82,1.86 -2.05,1.64 -2.05,1.64 L -2.05,1.64 Z"/></g><g stroke-linecap="round"><g transform="translate(920.0941151671526 11) rotate(0 4 582.5)"><path d="M-0.06 -0.01 C1.28 194.15, 6.59 970.91, 7.91 1165.07 M0.21 -0.15 C1.62 193.94, 6.91 970.61, 8.23 1164.81" stroke="#1e1e1e" stroke-width="2" fill="none"/></g></g><mask/><g transform="translate(963.0941151671526 11) rotate(0 8.5 17)" stroke="none"><path fill="#1e1e1e" d="M 1.85,1.85 Q 1.85,1.85 -0.58,5.14 -3.02,8.43 -4.47,10.94 -5.92,13.45 -5.80,16.72 -5.68,20.00 -4.74,22.71 -3.80,25.42 -1.88,26.93 0.04,28.44 2.24,28.97 4.43,29.50 8.05,26.22 11.67,22.94 12.79,20.48 13.90,18.01 12.53,15.16 11.16,12.31 9.76,11.18 8.36,10.05 8.04,9.64 7.73,9.22 7.52,8.75 7.32,8.27 7.23,7.76 7.14,7.25 7.18,6.73 7.22,6.21 7.38,5.72 7.54,5.22 7.82,4.78 8.09,4.34 8.47,3.98 8.84,3.62 9.29,3.36 9.74,3.09 10.23,2.95 10.73,2.80 11.25,2.78 11.77,2.75 12.28,2.85 12.79,2.95 13.26,3.17 13.73,3.39 14.13,3.72 14.54,4.05 18.33,3.20 22.12,2.35 23.87,1.87 25.61,1.38 26.03,1.31 26.45,1.24 26.87,1.31 27.29,1.37 27.67,1.57 28.04,1.76 28.34,2.07 28.63,2.38 28.81,2.76 29.00,3.15 29.04,3.57 29.09,3.99 29.01,4.41 28.92,4.82 28.70,5.19 28.48,5.55 28.16,5.83 27.84,6.11 27.45,6.27 27.05,6.43 26.63,6.45 26.21,6.48 25.80,6.37 25.38,6.26 25.03,6.02 24.68,5.79 24.42,5.45 24.16,5.11 24.02,4.71 23.88,4.31 23.88,3.89 23.87,3.46 24.01,3.06 24.14,2.65 24.39,2.31 24.65,1.97 25.00,1.73 25.35,1.49 25.76,1.37 26.17,1.26 26.59,1.28 27.02,1.30 27.41,1.45 27.81,1.61 28.13,1.88 28.46,2.15 28.68,2.51 28.90,2.88 29.00,3.29 29.09,3.71 29.05,4.13 29.01,4.55 28.83,4.94 28.65,5.33 28.36,5.64 28.07,5.95 27.70,6.15 27.33,6.35 27.33,6.35 27.33,6.35 25.66,7.05 23.98,7.74 19.40,9.84 14.81,11.93 11.58,10.99 8.36,10.05 8.04,9.64 7.73,9.22 7.52,8.75 7.32,8.27 7.23,7.76 7.14,7.25 7.18,6.73 7.22,6.21 7.38,5.72 7.54,5.22 7.82,4.78 8.09,4.34 8.47,3.98 8.84,3.62 9.29,3.36 9.74,3.09 10.23,2.95 10.73,2.80 11.25,2.78 11.77,2.75 12.28,2.85 12.79,2.95 13.26,3.17 13.73,3.39 14.13,3.72 14.54,4.05 14.58,3.90 14.63,3.75 16.59,5.72 18.54,7.68 20.08,10.57 21.61,13.46 21.72,17.27 21.82,21.08 20.04,24.77 18.26,28.47 14.60,32.21 10.95,35.95 6.73,36.75 2.51,37.54 -1.41,36.08 -5.33,34.62 -8.34,31.45 -11.35,28.28 -12.55,24.04 -13.76,19.79 -13.25,14.81 -12.75,9.83 -10.61,6.44 -8.47,3.06 -5.16,0.60 -1.85,-1.85 -1.60,-2.05 -1.35,-2.24 -1.07,-2.37 -0.78,-2.50 -0.46,-2.56 -0.15,-2.62 0.15,-2.60 0.47,-2.58 0.77,-2.48 1.07,-2.39 1.34,-2.23 1.61,-2.06 1.84,-1.84 2.06,-1.61 2.23,-1.34 2.39,-1.07 2.48,-0.77 2.58,-0.47 2.60,-0.15 2.62,0.15 2.56,0.47 2.50,0.78 2.37,1.07 2.24,1.35 2.05,1.60 1.85,1.85 1.85,1.85 L 1.85,1.85 Z"/></g><g transform="translate(582.0941151671526 441) rotate(0 9.5 -0.5)" stroke="none"><path fill="#1e1e1e" d="M 0,-2.62 Q 0,-2.62 2.58,-3.34 5.17,-4.05 7.48,-4.29 9.80,-4.53 13.96,-4.04 18.12,-3.54 18.54,-3.49 18.96,-3.44 19.35,-3.26 19.73,-3.08 20.04,-2.78 20.34,-2.49 20.54,-2.11 20.73,-1.73 20.80,-1.31 20.86,-0.89 20.79,-0.47 20.71,-0.05 20.51,0.31 20.31,0.68 20.00,0.97 19.68,1.26 19.30,1.44 18.91,1.61 18.49,1.65 18.06,1.69 17.65,1.60 17.24,1.50 16.87,1.28 16.51,1.06 16.24,0.73 15.97,0.40 15.82,0.01 15.66,-0.38 15.64,-0.81 15.63,-1.23 15.74,-1.64 15.86,-2.05 16.10,-2.40 16.35,-2.75 16.69,-3.00 17.03,-3.25 17.43,-3.38 17.84,-3.51 18.26,-3.51 18.69,-3.51 19.09,-3.37 19.49,-3.23 19.82,-2.96 20.16,-2.70 20.39,-2.35 20.63,-2.00 20.74,-1.58 20.85,-1.17 20.82,-0.75 20.79,-0.33 20.63,0.06 20.47,0.45 20.19,0.77 19.91,1.09 19.55,1.31 19.18,1.52 18.76,1.61 18.35,1.70 18.35,1.70 18.35,1.70 14.52,2.54 10.69,3.38 7.93,3.72 5.17,4.05 2.58,3.34 0,2.62 -0.31,2.58 -0.62,2.55 -0.92,2.43 -1.22,2.32 -1.48,2.14 -1.74,1.96 -1.95,1.72 -2.16,1.49 -2.30,1.21 -2.45,0.93 -2.53,0.62 -2.60,0.31 -2.60,-0.00 -2.60,-0.31 -2.53,-0.62 -2.45,-0.93 -2.30,-1.21 -2.16,-1.49 -1.95,-1.72 -1.74,-1.96 -1.48,-2.14 -1.22,-2.32 -0.92,-2.43 -0.62,-2.55 -0.31,-2.58 0.00,-2.62 0.00,-2.62 L 0,-2.62 Z"/></g><g transform="translate(909.0941151671526 333) rotate(0 17 -3)" stroke="none"><path fill="#1e1e1e" d="M -0.92,-2.45 Q -0.92,-2.45 0.98,-4.36 2.89,-6.27 5.14,-7.01 7.40,-7.75 10.69,-8.64 13.99,-9.53 17.14,-9.85 20.29,-10.17 23.76,-9.23 27.22,-8.28 30.23,-7.07 33.24,-5.85 33.64,-5.69 34.03,-5.54 34.36,-5.26 34.68,-4.98 34.90,-4.62 35.12,-4.26 35.21,-3.84 35.30,-3.43 35.25,-3.00 35.20,-2.58 35.03,-2.20 34.85,-1.81 34.55,-1.50 34.26,-1.19 33.88,-1.00 33.51,-0.80 33.09,-0.73 32.67,-0.66 32.25,-0.73 31.83,-0.80 31.46,-1.00 31.08,-1.20 30.79,-1.51 30.50,-1.82 30.32,-2.20 30.14,-2.59 30.10,-3.01 30.05,-3.44 30.14,-3.85 30.24,-4.26 30.46,-4.63 30.68,-4.99 31.00,-5.27 31.33,-5.54 31.72,-5.70 32.12,-5.85 32.54,-5.88 32.96,-5.90 33.37,-5.78 33.78,-5.67 34.13,-5.43 34.48,-5.19 34.74,-4.85 35.00,-4.51 35.13,-4.11 35.27,-3.71 35.27,-3.28 35.27,-2.86 35.13,-2.46 34.99,-2.05 34.74,-1.72 34.48,-1.38 34.13,-1.14 33.77,-0.90 33.36,-0.79 32.95,-0.68 32.53,-0.70 32.10,-0.72 32.11,-0.72 32.11,-0.72 29.13,-0.84 26.16,-0.95 23.79,-0.85 21.42,-0.75 18.97,-0.35 16.53,0.05 11.41,1.43 6.30,2.82 3.61,2.64 0.92,2.45 0.61,2.53 0.30,2.60 -0.00,2.60 -0.32,2.60 -0.63,2.52 -0.94,2.45 -1.22,2.30 -1.50,2.15 -1.73,1.94 -1.97,1.73 -2.15,1.47 -2.33,1.21 -2.44,0.91 -2.55,0.61 -2.58,0.30 -2.62,-0.00 -2.58,-0.32 -2.54,-0.63 -2.43,-0.93 -2.32,-1.22 -2.14,-1.48 -1.95,-1.74 -1.72,-1.95 -1.48,-2.16 -1.20,-2.31 -0.92,-2.45 -0.92,-2.45 L -0.92,-2.45 Z"/></g><g transform="translate(984.0941151671526 308) rotate(0 -2 21)" stroke="none"><path fill="#1e1e1e" d="M 2.40,1.06 Q 2.40,1.06 2.03,3.96 1.66,6.87 1.33,10.53 1.00,14.18 0.77,18.72 0.54,23.25 0.80,27.54 1.05,31.82 0.77,35.93 0.48,40.04 0.45,40.46 0.41,40.88 0.24,41.27 0.07,41.66 -0.21,41.98 -0.50,42.29 -0.87,42.50 -1.24,42.70 -1.66,42.78 -2.07,42.86 -2.49,42.80 -2.92,42.74 -3.29,42.54 -3.67,42.35 -3.97,42.05 -4.27,41.75 -4.46,41.36 -4.64,40.98 -4.70,40.56 -4.75,40.14 -4.67,39.72 -4.58,39.31 -4.37,38.94 -4.16,38.57 -3.84,38.29 -3.52,38.01 -3.13,37.84 -2.74,37.68 -2.31,37.65 -1.89,37.61 -1.48,37.72 -1.07,37.83 -0.71,38.06 -0.36,38.29 -0.09,38.62 0.16,38.96 0.31,39.36 0.45,39.76 0.46,40.18 0.46,40.61 0.34,41.01 0.21,41.42 -0.03,41.76 -0.28,42.10 -0.63,42.35 -0.98,42.59 -1.38,42.71 -1.79,42.84 -2.22,42.82 -2.64,42.81 -3.04,42.66 -3.44,42.51 -3.77,42.24 -4.09,41.97 -4.32,41.61 -4.55,41.25 -4.65,40.84 -4.74,40.42 -4.74,40.42 -4.74,40.42 -5.62,36.53 -6.49,32.63 -7.21,27.76 -7.93,22.89 -7.74,18.05 -7.56,13.20 -6.91,8.34 -6.26,3.47 -4.33,1.20 -2.40,-1.06 -2.23,-1.33 -2.07,-1.61 -1.85,-1.83 -1.62,-2.06 -1.35,-2.22 -1.08,-2.39 -0.78,-2.48 -0.48,-2.58 -0.16,-2.60 0.14,-2.62 0.45,-2.56 0.76,-2.51 1.05,-2.38 1.34,-2.25 1.59,-2.05 1.84,-1.86 2.04,-1.61 2.24,-1.36 2.37,-1.08 2.50,-0.79 2.56,-0.48 2.62,-0.17 2.60,0.14 2.58,0.46 2.49,0.76 2.40,1.06 2.40,1.06 L 2.40,1.06 Z"/></g><g transform="translate(980.0941151671526 314) rotate(0 6.5 -2.5)" stroke="none"><path fill="#1e1e1e" d="M -1.08,-2.39 Q -1.08,-2.39 1.77,-4.48 4.64,-6.57 8.55,-6.60 12.45,-6.64 12.87,-6.56 13.29,-6.48 13.66,-6.27 14.03,-6.06 14.31,-5.74 14.59,-5.42 14.76,-5.03 14.93,-4.64 14.96,-4.22 15.00,-3.80 14.89,-3.38 14.79,-2.97 14.56,-2.61 14.33,-2.26 14.00,-1.99 13.67,-1.72 13.27,-1.58 12.87,-1.43 12.45,-1.42 12.02,-1.41 11.61,-1.54 11.21,-1.66 10.86,-1.91 10.52,-2.16 10.27,-2.50 10.02,-2.85 9.90,-3.26 9.78,-3.66 9.79,-4.09 9.80,-4.51 9.95,-4.91 10.09,-5.31 10.36,-5.64 10.63,-5.97 10.99,-6.20 11.34,-6.43 11.76,-6.53 12.17,-6.63 12.59,-6.60 13.02,-6.56 13.41,-6.39 13.80,-6.22 14.11,-5.94 14.43,-5.65 14.64,-5.28 14.85,-4.91 14.93,-4.50 15.00,-4.08 14.95,-3.66 14.89,-3.24 14.70,-2.86 14.51,-2.48 14.21,-2.18 13.91,-1.88 13.53,-1.69 13.15,-1.50 12.72,-1.44 12.30,-1.39 12.30,-1.39 12.30,-1.39 10.15,-0.28 8.00,0.82 4.54,1.60 1.08,2.39 0.78,2.48 0.48,2.58 0.16,2.60 -0.14,2.62 -0.46,2.56 -0.77,2.51 -1.06,2.38 -1.35,2.25 -1.60,2.05 -1.85,1.86 -2.04,1.61 -2.24,1.36 -2.37,1.07 -2.50,0.79 -2.56,0.47 -2.62,0.16 -2.60,-0.14 -2.58,-0.46 -2.49,-0.76 -2.39,-1.06 -2.23,-1.34 -2.07,-1.61 -1.85,-1.83 -1.62,-2.06 -1.35,-2.22 -1.08,-2.39 -1.08,-2.39 L -1.08,-2.39 Z"/></g><g transform="translate(980.0941151671526 339) rotate(0 10.5 -2)" stroke="none"><path fill="#1e1e1e" d="M -0.67,-2.53 Q -0.67,-2.53 3.47,-4.31 7.63,-6.09 11.59,-5.98 15.56,-5.87 17.08,-5.68 18.61,-5.49 19.03,-5.45 19.46,-5.40 19.84,-5.22 20.23,-5.05 20.54,-4.75 20.85,-4.46 21.05,-4.09 21.25,-3.71 21.32,-3.29 21.39,-2.87 21.32,-2.46 21.25,-2.04 21.05,-1.66 20.85,-1.28 20.55,-0.99 20.24,-0.70 19.85,-0.52 19.47,-0.34 19.05,-0.29 18.62,-0.25 18.21,-0.34 17.79,-0.43 17.43,-0.64 17.06,-0.86 16.79,-1.19 16.51,-1.51 16.35,-1.90 16.20,-2.30 16.17,-2.72 16.15,-3.15 16.26,-3.56 16.37,-3.97 16.61,-4.32 16.85,-4.67 17.19,-4.93 17.52,-5.19 17.93,-5.32 18.33,-5.46 18.75,-5.46 19.18,-5.46 19.58,-5.33 19.99,-5.19 20.32,-4.94 20.66,-4.68 20.90,-4.33 21.14,-3.98 21.26,-3.57 21.37,-3.16 21.35,-2.73 21.33,-2.31 21.17,-1.91 21.01,-1.52 20.74,-1.19 20.46,-0.87 20.10,-0.65 19.74,-0.43 19.32,-0.34 18.91,-0.25 18.91,-0.25 18.91,-0.25 17.41,0.10 15.92,0.47 12.76,0.98 9.61,1.49 5.14,2.01 0.67,2.53 0.36,2.58 0.04,2.62 -0.26,2.59 -0.58,2.56 -0.87,2.45 -1.17,2.34 -1.44,2.17 -1.70,1.99 -1.91,1.76 -2.13,1.53 -2.28,1.25 -2.43,0.97 -2.51,0.67 -2.60,0.36 -2.60,0.04 -2.61,-0.26 -2.54,-0.57 -2.47,-0.88 -2.33,-1.16 -2.18,-1.45 -1.98,-1.69 -1.77,-1.93 -1.52,-2.11 -1.26,-2.30 -0.97,-2.42 -0.67,-2.53 -0.67,-2.53 L -0.67,-2.53 Z"/></g><g transform="translate(332.0941151671526 1051) rotate(0 539 -383)" stroke="none"><path fill="#1e1e1e" d="M -1.62,2.06 Q -1.62,2.06 -6.00,-0.71 -10.38,-3.48 -15.71,-11.87 -21.04,-20.25 -25.36,-30.48 -29.67,-40.71 -32.76,-53.29 -35.84,-65.86 -37.25,-81.45 -38.65,-97.04 -37.57,-116.23 -36.50,-135.43 -29.98,-164.81 -23.46,-194.20 -14.32,-222.85 -5.18,-251.49 7.34,-280.50 19.87,-309.51 35.30,-338.60 50.73,-367.69 74.35,-402.93 97.96,-438.16 120.14,-466.14 142.31,-494.11 164.46,-518.16 186.61,-542.20 208.44,-563.38 230.26,-584.56 251.09,-602.82 271.92,-621.07 297.54,-640.68 323.15,-660.30 345.90,-675.58 368.65,-690.87 388.76,-702.59 408.86,-714.31 425.83,-722.79 442.80,-731.26 458.27,-736.96 473.73,-742.65 498.95,-748.00 524.17,-753.35 539.94,-756.45 555.72,-759.55 572.26,-762.32 588.79,-765.08 604.56,-766.87 620.32,-768.66 639.63,-768.57 658.94,-768.48 675.34,-766.69 691.75,-764.90 706.76,-760.90 721.77,-756.91 735.58,-750.81 749.38,-744.72 762.07,-736.53 774.76,-728.34 788.48,-715.16 802.19,-701.98 812.99,-688.19 823.79,-674.39 833.59,-659.25 843.39,-644.10 853.29,-627.92 863.18,-611.74 875.19,-592.58 887.19,-573.43 897.23,-557.87 907.27,-542.31 916.48,-527.95 925.70,-513.58 934.59,-498.49 943.48,-483.39 953.14,-463.60 962.81,-443.80 969.81,-427.28 976.81,-410.75 982.67,-396.28 988.53,-381.80 993.93,-367.87 999.34,-353.94 1004.77,-340.63 1010.20,-327.31 1017.39,-310.78 1024.58,-294.25 1030.53,-280.59 1036.49,-266.93 1041.64,-255.09 1046.79,-243.25 1051.06,-231.72 1055.33,-220.19 1060.28,-207.05 1065.23,-193.91 1069.32,-183.80 1073.40,-173.68 1077.13,-165.13 1080.86,-156.57 1084.47,-148.30 1088.09,-140.03 1091.38,-132.15 1094.67,-124.27 1098.06,-116.72 1101.44,-109.17 1104.27,-103.46 1107.09,-97.76 1109.46,-92.99 1111.83,-88.21 1113.44,-84.63 1115.06,-81.05 1116.12,-78.87 1117.18,-76.70 1116.66,-73.65 1116.14,-70.60 1116.26,-70.19 1116.38,-69.78 1116.37,-69.36 1116.35,-68.93 1116.21,-68.54 1116.06,-68.14 1115.79,-67.81 1115.52,-67.48 1115.16,-67.25 1114.80,-67.02 1114.39,-66.92 1113.98,-66.82 1113.55,-66.86 1113.13,-66.89 1112.74,-67.06 1112.35,-67.23 1112.04,-67.52 1111.72,-67.81 1111.51,-68.18 1111.31,-68.55 1111.23,-68.96 1111.15,-69.38 1111.21,-69.80 1111.27,-70.22 1111.46,-70.60 1111.65,-70.98 1111.95,-71.28 1112.25,-71.58 1112.64,-71.77 1113.02,-71.96 1113.44,-72.01 1113.86,-72.07 1114.28,-71.98 1114.69,-71.90 1115.06,-71.69 1115.43,-71.48 1115.71,-71.16 1116.00,-70.84 1116.16,-70.45 1116.33,-70.06 1116.36,-69.64 1116.39,-69.21 1116.29,-68.80 1116.18,-68.39 1115.95,-68.03 1115.72,-67.68 1115.39,-67.41 1115.06,-67.15 1114.66,-67.00 1114.26,-66.86 1113.83,-66.85 1113.41,-66.84 1113.00,-66.97 1112.60,-67.09 1112.25,-67.34 1111.91,-67.59 1111.66,-67.94 1111.42,-68.29 1111.42,-68.29 1111.42,-68.29 1108.27,-69.24 1105.12,-70.20 1103.69,-72.70 1102.25,-75.20 1100.70,-78.55 1099.14,-81.91 1096.76,-86.69 1094.38,-91.48 1091.44,-97.44 1088.50,-103.41 1085.09,-111.14 1081.68,-118.86 1078.45,-126.64 1075.23,-134.42 1071.62,-142.70 1068.01,-150.98 1064.22,-159.72 1060.43,-168.45 1056.29,-178.73 1052.15,-189.00 1047.22,-202.20 1042.29,-215.39 1038.19,-226.58 1034.09,-237.77 1029.02,-249.63 1023.96,-261.49 1018.05,-275.17 1012.13,-288.86 1004.93,-305.55 997.72,-322.24 992.29,-335.69 986.86,-349.14 981.57,-363.01 976.28,-376.88 970.53,-391.28 964.77,-405.68 957.97,-421.93 951.17,-438.18 941.88,-457.62 932.60,-477.05 923.96,-492.03 915.32,-507.01 906.29,-521.47 897.26,-535.93 887.36,-551.65 877.47,-567.38 865.58,-586.66 853.68,-605.94 843.87,-622.01 834.07,-638.08 824.56,-652.84 815.06,-667.60 804.80,-680.85 794.53,-694.11 781.69,-706.71 768.84,-719.31 756.92,-727.13 745.00,-734.94 732.00,-740.80 719.00,-746.66 704.79,-750.50 690.57,-754.34 674.72,-756.11 658.87,-757.87 640.18,-758.02 621.48,-758.18 606.00,-756.47 590.52,-754.77 574.13,-752.03 557.73,-749.30 542.03,-746.21 526.32,-743.13 501.82,-737.98 477.32,-732.84 462.39,-727.38 447.46,-721.92 430.78,-713.60 414.11,-705.29 394.29,-693.75 374.46,-682.21 351.97,-667.12 329.49,-652.02 304.13,-632.63 278.78,-613.24 258.14,-595.17 237.50,-577.10 215.88,-556.13 194.26,-535.15 172.35,-511.40 150.45,-487.66 128.51,-460.01 106.57,-432.37 83.19,-397.62 59.80,-362.86 44.49,-334.16 29.18,-305.46 16.71,-276.96 4.25,-248.46 -4.82,-220.25 -13.89,-192.04 -20.47,-163.42 -27.05,-134.80 -28.38,-116.27 -29.71,-97.75 -28.67,-82.76 -27.62,-67.77 -24.93,-55.75 -22.24,-43.73 -18.39,-33.97 -14.54,-24.21 -10.13,-16.69 -5.71,-9.16 -2.04,-5.61 1.62,-2.06 1.84,-1.84 2.06,-1.61 2.23,-1.34 2.39,-1.07 2.49,-0.77 2.58,-0.46 2.60,-0.15 2.62,0.16 2.56,0.47 2.50,0.78 2.37,1.07 2.24,1.36 2.05,1.61 1.85,1.86 1.60,2.05 1.35,2.24 1.06,2.37 0.77,2.50 0.46,2.56 0.15,2.62 -0.16,2.60 -0.47,2.58 -0.77,2.48 -1.08,2.39 -1.35,2.22 -1.62,2.06 -1.62,2.06 L -1.62,2.06 Z"/></g></svg>