<svg version="1.1" xmlns="http://www.w3.org/2000/svg" viewBox="0 0 600 601" width="600" height="601" filter="invert(93%) hue-rotate(180deg)">
  <!-- svg-source:excalidraw -->
  
  <defs>
    <style class="style-fonts">
      @font-face {
        font-family: "Virgil";
        src: url("https://excalidraw.com/Virgil.woff2");
      }
      @font-face {
        font-family: "Cascadia";
        src: url("https://excalidraw.com/Cascadia.woff2");
      }
    </style>
    
  </defs>
  <rect x="0" y="0" width="600" height="601" fill="transparent"/><g stroke-linecap="round" transform="translate(10 10) rotate(0 290 204.5)"><path d="M32 0 C207.88 -0.49, 382.82 -0.53, 548 0 M32 0 C195.59 -1.78, 360.03 -1.54, 548 0 M548 0 C569.99 1.67, 578.12 12.2, 580 32 M548 0 C571.36 0.56, 582.17 8.84, 580 32 M580 32 C578.64 105.16, 579.76 176.43, 580 377 M580 32 C578.64 146.08, 578.42 258.31, 580 377 M580 377 C581.24 396.86, 570.52 410.94, 548 409 M580 377 C582.24 400.29, 569.28 407.5, 548 409 M548 409 C372.96 406.96, 197.19 408.25, 32 409 M548 409 C384.87 407.69, 220.87 407.66, 32 409 M32 409 C10.18 407.25, -1.01 397.29, 0 377 M32 409 C10.23 411.24, 1.43 398.15, 0 377 M0 377 C-0.68 263.06, -1.42 151.28, 0 32 M0 377 C1.31 250.37, 1.56 122.6, 0 32 M0 32 C-0.58 8.98, 9.72 0.62, 32 0 M0 32 C-0.39 8.42, 12.61 1.96, 32 0" stroke="#1e1e1e" stroke-width="2" fill="none"/></g><g stroke-linecap="round" transform="translate(113 416) rotate(0 181.5 87.5)"><path d="M32 0 C93.3 -1.24, 156.08 -1.97, 331 0 M32 0 C113.99 1.03, 195.2 0.71, 331 0 M331 0 C351.71 -1.63, 362.81 11.68, 363 32 M331 0 C353.12 0.14, 362.52 9.47, 363 32 M363 32 C362.83 61.99, 364.16 92.68, 363 143 M363 32 C364.62 60.89, 364.76 91.32, 363 143 M363 143 C363.89 164.09, 353.27 173.9, 331 175 M363 143 C362.89 164.1, 353.37 173.96, 331 175 M331 175 C231.29 174.49, 130.39 172.82, 32 175 M331 175 C258.22 173.85, 186.49 173.51, 32 175 M32 175 C10.94 174.02, -1.26 163.94, 0 143 M32 175 C11.6 175.79, 2.07 166.12, 0 143 M0 143 C0.14 116.89, -1.27 85.77, 0 32 M0 143 C-0.15 103.14, -0.54 62.41, 0 32 M0 32 C1.36 11.75, 10.79 0.88, 32 0 M0 32 C-0.49 9.66, 8.39 -1.17, 32 0" stroke="#1e1e1e" stroke-width="2" fill="none"/></g><g stroke-linecap="round" transform="translate(330 386) rotate(0 48 33)"><path d="M16.5 0 C36.74 -3.4, 48.17 0.18, 79.5 0 C89.31 -3.34, 93.27 5.99, 96 16.5 C99.12 21.56, 98.18 30.71, 96 49.5 C92.84 62.1, 92.06 62.59, 79.5 66 C56.69 66.83, 32.26 63, 16.5 66 C7.34 65.65, 3.03 59.46, 0 49.5 C0.08 40.44, -3.63 26.57, 0 16.5 C3.01 8.25, 5.54 3.03, 16.5 0" stroke="none" stroke-width="0" fill="#ffc9c9"/><path d="M16.5 0 C35.62 0.36, 56.66 -0.05, 79.5 0 M16.5 0 C30.49 0.19, 42.87 -0.9, 79.5 0 M79.5 0 C91.05 -1.24, 95.05 7.2, 96 16.5 M79.5 0 C90.42 -1.03, 95.15 6.71, 96 16.5 M96 16.5 C94.15 27.94, 94.77 38.23, 96 49.5 M96 16.5 C95.36 28.69, 96.48 40.32, 96 49.5 M96 49.5 C96.03 60.75, 88.55 66.09, 79.5 66 M96 49.5 C94.21 60.44, 89.65 64.6, 79.5 66 M79.5 66 C54.45 67.2, 29.65 65.84, 16.5 66 M79.5 66 C61.31 66.31, 42.25 66.76, 16.5 66 M16.5 66 C6.16 66.1, 0.86 61.7, 0 49.5 M16.5 66 C4.44 65.82, -2.17 61.76, 0 49.5 M0 49.5 C0.85 39.76, 0.11 28.37, 0 16.5 M0 49.5 C0.74 43.57, -0.72 36.55, 0 16.5 M0 16.5 C-1.12 3.89, 4.96 1.44, 16.5 0 M0 16.5 C-0.42 6.93, 7.41 -1.99, 16.5 0" stroke="#1e1e1e" stroke-width="2" fill="none"/></g><g stroke-linecap="round" transform="translate(175 389) rotate(0 48 33)"><path d="M16.5 0 C35.94 -1.21, 57.85 2.26, 79.5 0 C94.09 -0.78, 98.68 5.44, 96 16.5 C94.27 24.65, 94.54 39.47, 96 49.5 C99.49 59.38, 87.82 69.45, 79.5 66 C68.87 64.15, 49.82 68.18, 16.5 66 C2.39 65.73, -1.84 62.23, 0 49.5 C3.66 39.51, -2.81 32.92, 0 16.5 C-1.18 3.77, 6.84 2.82, 16.5 0" stroke="none" stroke-width="0" fill="#ffc9c9"/><path d="M16.5 0 C42.33 -1.83, 65.49 1.56, 79.5 0 M16.5 0 C39.76 -0.77, 64.71 -1.5, 79.5 0 M79.5 0 C90.33 -0.8, 96.89 4.53, 96 16.5 M79.5 0 C89.18 -1.14, 95.81 6.92, 96 16.5 M96 16.5 C95.63 25.71, 96.54 33.47, 96 49.5 M96 16.5 C97.08 26.43, 95.55 34.91, 96 49.5 M96 49.5 C96.84 62.38, 90.19 65.24, 79.5 66 M96 49.5 C94.23 58.95, 91.06 65.83, 79.5 66 M79.5 66 C66.59 65.42, 55.37 64.91, 16.5 66 M79.5 66 C55.6 66.22, 31.93 65.51, 16.5 66 M16.5 66 C3.96 66.94, 1.77 61.81, 0 49.5 M16.5 66 C4.81 68.12, -1.47 61.84, 0 49.5 M0 49.5 C-1.29 38.31, 0.4 27.26, 0 16.5 M0 49.5 C-0.9 43.02, 0.36 35.97, 0 16.5 M0 16.5 C-0.53 3.98, 4.18 -1.59, 16.5 0 M0 16.5 C0.37 3.86, 3.74 2, 16.5 0" stroke="#1e1e1e" stroke-width="2" fill="none"/></g><g stroke-linecap="round" transform="translate(196 405) rotate(0 48 33)"><path d="M16.5 0 C33.66 2.36, 44.67 -1.44, 79.5 0 C93.88 -0.08, 93.23 4.16, 96 16.5 C92.42 29.81, 97 42.9, 96 49.5 C98.38 59.71, 90.2 68.12, 79.5 66 C64.04 68.74, 51.76 66.16, 16.5 66 C8.18 64.3, -2.61 59.33, 0 49.5 C-2.46 35.55, -2.12 23.09, 0 16.5 C-0.08 2.53, 4.75 0, 16.5 0" stroke="none" stroke-width="0" fill="#ffc9c9"/><path d="M16.5 0 C36.61 -0.15, 56.95 1.07, 79.5 0 M16.5 0 C34.42 -0.22, 53.31 -0.5, 79.5 0 M79.5 0 C92.12 0.71, 95.88 7.25, 96 16.5 M79.5 0 C91.6 -1.69, 97.21 4.14, 96 16.5 M96 16.5 C97.44 29.84, 96.99 40.74, 96 49.5 M96 16.5 C95.37 29.47, 95.98 39.87, 96 49.5 M96 49.5 C97.57 61.1, 91.58 64.55, 79.5 66 M96 49.5 C97.26 61.31, 91.19 64.79, 79.5 66 M79.5 66 C58.7 65.76, 41.24 65.69, 16.5 66 M79.5 66 C58.55 67.56, 35.55 66.37, 16.5 66 M16.5 66 C5.72 64.73, -0.15 61.09, 0 49.5 M16.5 66 C7.37 64.64, -2.29 58.98, 0 49.5 M0 49.5 C-1.97 42.73, -0.38 31.38, 0 16.5 M0 49.5 C0.1 38.09, -0.37 25.67, 0 16.5 M0 16.5 C-1.59 3.87, 4.87 0.71, 16.5 0 M0 16.5 C-1.99 6.7, 5.27 -0.86, 16.5 0" stroke="#1e1e1e" stroke-width="2" fill="none"/></g></svg>