<svg version="1.1" xmlns="http://www.w3.org/2000/svg" viewBox="0 0 944.5556640625 919.141357421875" width="944.5556640625" height="919.141357421875" filter="invert(93%) hue-rotate(180deg)">
  <!-- svg-source:excalidraw -->
  
  <defs>
    <style class="style-fonts">
      @font-face {
        font-family: "Virgil";
        src: url("https://excalidraw.com/Virgil.woff2");
      }
      @font-face {
        font-family: "Cascadia";
        src: url("https://excalidraw.com/Cascadia.woff2");
      }
    </style>
    
  </defs>
  <rect x="0" y="0" width="944.5556640625" height="919.141357421875" fill="transparent"/><g stroke-linecap="round"><g transform="translate(71.34490966796875 468.33416748046875) rotate(0 387.3493957519531 -3.067230224609375)"><path d="M0 -0.13 C129.07 -1.13, 645.4 -5.13, 774.54 -6.14 M-0.2 0.15 C128.91 -0.81, 645.65 -4.9, 774.82 -5.93" stroke="#1e1e1e" stroke-width="2" fill="none"/></g></g><mask/><g stroke-linecap="round"><g transform="translate(428.0218505859375 797.8441162109375) rotate(0 5.25811767578125 -335.6443634033203)"><path d="M-0.05 -0.12 C1.75 -111.99, 8.89 -559.34, 10.66 -671.21 M0.24 0.2 C2.04 -111.73, 8.9 -559.59, 10.6 -671.47" stroke="#1e1e1e" stroke-width="2" fill="none"/></g></g><mask/><g stroke-linecap="round"><g transform="translate(408.7420654296875 158.10418701171875) rotate(0 15.33624267578125 -0.4382171630859375)"><path d="M-0.02 -0.04 C-0.01 0.12, -5.16 1.29, -0.03 0.98 C5.09 0.67, 25.61 -1.43, 30.73 -1.89 M-0.22 -0.18 C-0.22 -0.08, -5.32 1.03, -0.17 0.76 C4.98 0.49, 25.52 -1.39, 30.67 -1.79" stroke="#1e1e1e" stroke-width="2" fill="none"/></g></g><mask/><g transform="translate(479.726806640625 465.70513916015625) rotate(0 -14.02166748046875 26.728912353515625)" stroke="none"><path fill="#1e1e1e" d="M -1.79,2.51 Q -1.79,2.51 -4.18,2.12 -6.57,1.74 -8.84,0.92 -11.11,0.11 -13.78,0.10 -16.45,0.08 -18.72,1.43 -20.98,2.79 -21.45,4.94 -21.91,7.10 -20.51,9.31 -19.10,11.52 -17.44,12.92 -15.78,14.32 -14.04,15.66 -12.30,16.99 -10.78,18.63 -9.26,20.26 -8.11,22.81 -6.97,25.36 -6.79,28.50 -6.61,31.64 -6.92,34.57 -7.24,37.50 -8.26,40.84 -9.29,44.18 -10.49,46.04 -11.70,47.90 -13.85,50.71 -16.01,53.53 -18.46,55.70 -20.92,57.87 -23.88,59.16 -26.83,60.46 -27.21,60.64 -27.60,60.83 -28.02,60.88 -28.44,60.93 -28.86,60.85 -29.27,60.77 -29.64,60.56 -30.01,60.34 -30.29,60.03 -30.57,59.71 -30.74,59.31 -30.90,58.92 -30.93,58.50 -30.96,58.08 -30.86,57.66 -30.75,57.25 -30.52,56.90 -30.29,56.54 -29.95,56.28 -29.62,56.01 -29.22,55.87 -28.82,55.73 -28.40,55.72 -27.97,55.71 -27.57,55.84 -27.16,55.97 -26.82,56.22 -26.47,56.47 -26.23,56.81 -25.98,57.16 -25.86,57.57 -25.74,57.98 -25.76,58.40 -25.77,58.83 -25.92,59.22 -26.07,59.62 -26.34,59.95 -26.61,60.28 -26.97,60.50 -27.33,60.73 -27.74,60.83 -28.15,60.93 -28.58,60.89 -29.00,60.85 -29.39,60.68 -29.78,60.51 -30.09,60.22 -30.41,59.94 -30.61,59.57 -30.82,59.20 -30.90,58.78 -30.97,58.36 -30.91,57.94 -30.85,57.52 -30.66,57.14 -30.47,56.76 -30.16,56.46 -29.86,56.16 -29.86,56.16 -29.86,56.16 -29.22,54.86 -28.59,53.56 -26.64,51.48 -24.69,49.40 -22.68,47.45 -20.66,45.49 -18.99,43.35 -17.31,41.20 -16.27,39.02 -15.22,36.84 -14.84,34.26 -14.45,31.69 -14.47,29.51 -14.49,27.32 -15.54,25.33 -16.59,23.34 -18.39,21.97 -20.19,20.60 -22.23,18.93 -24.27,17.26 -26.56,14.48 -28.85,11.71 -29.65,8.96 -30.45,6.21 -29.74,2.53 -29.03,-1.13 -27.01,-3.57 -25.00,-6.00 -21.68,-7.78 -18.37,-9.56 -15.29,-9.92 -12.21,-10.29 -9.36,-10.01 -6.51,-9.74 -3.50,-8.26 -0.48,-6.78 0.65,-4.64 1.79,-2.51 2.07,-2.26 2.34,-2.01 2.55,-1.70 2.75,-1.39 2.88,-1.04 3.01,-0.69 3.05,-0.32 3.09,0.04 3.03,0.41 2.98,0.78 2.85,1.13 2.71,1.48 2.49,1.78 2.28,2.08 1.99,2.32 1.71,2.57 1.38,2.73 1.04,2.90 0.68,2.99 0.32,3.07 -0.04,3.06 -0.42,3.06 -0.78,2.96 -1.14,2.87 -1.46,2.69 -1.79,2.51 -1.79,2.51 L -1.79,2.51 Z"/></g><g transform="translate(449.054443359375 727.735595703125) rotate(0 -1.75274658203125 38.5596923828125)" stroke="none"><path fill="#1e1e1e" d="M 3.24,0.34 Q 3.24,0.34 3.25,7.48 3.26,14.62 2.75,19.65 2.24,24.69 2.09,28.95 1.93,33.21 1.88,37.27 1.82,41.33 1.80,45.07 1.78,48.81 1.77,52.16 1.75,55.51 1.75,58.45 1.74,61.39 1.67,63.89 1.60,66.39 1.37,69.65 1.14,72.90 1.13,74.07 1.12,75.25 1.25,75.65 1.37,76.06 1.36,76.48 1.36,76.91 1.21,77.31 1.07,77.71 0.80,78.04 0.54,78.37 0.18,78.60 -0.17,78.84 -0.58,78.94 -0.99,79.04 -1.41,79.01 -1.84,78.98 -2.23,78.81 -2.62,78.65 -2.94,78.37 -3.26,78.08 -3.47,77.72 -3.68,77.35 -3.76,76.93 -3.84,76.51 -3.79,76.09 -3.73,75.67 -3.54,75.29 -3.36,74.91 -3.06,74.60 -2.76,74.30 -2.38,74.11 -2.00,73.92 -1.58,73.86 -1.16,73.80 -0.74,73.88 -0.32,73.96 0.04,74.16 0.41,74.37 0.69,74.69 0.98,75.00 1.15,75.39 1.32,75.78 1.36,76.20 1.39,76.63 1.29,77.04 1.19,77.45 0.96,77.81 0.74,78.17 0.41,78.44 0.08,78.71 -0.31,78.86 -0.71,79.00 -1.13,79.02 -1.56,79.03 -1.96,78.91 -2.37,78.79 -2.72,78.54 -3.06,78.29 -3.31,77.95 -3.56,77.61 -3.56,77.61 -3.56,77.61 -5.62,74.36 -7.67,71.11 -8.13,68.75 -8.60,66.39 -8.66,63.87 -8.73,61.36 -8.72,58.41 -8.71,55.46 -8.69,52.07 -8.66,48.69 -8.59,44.88 -8.53,41.07 -8.37,36.86 -8.22,32.65 -7.89,28.11 -7.56,23.57 -6.92,18.58 -6.28,13.59 -4.76,6.62 -3.24,-0.34 -3.15,-0.73 -3.06,-1.11 -2.89,-1.46 -2.71,-1.81 -2.45,-2.11 -2.19,-2.41 -1.87,-2.64 -1.55,-2.86 -1.19,-3.01 -0.82,-3.15 -0.43,-3.21 -0.04,-3.26 0.34,-3.22 0.73,-3.18 1.10,-3.04 1.47,-2.91 1.80,-2.69 2.13,-2.47 2.39,-2.18 2.66,-1.89 2.84,-1.54 3.03,-1.20 3.13,-0.81 3.23,-0.43 3.24,-0.04 3.24,0.34 3.24,0.34 L 3.24,0.34 Z"/></g><g transform="translate(441.167236328125 740.8809204101562) rotate(0 10.95440673828125 1.752716064453125)" stroke="none"><path fill="#1e1e1e" d="M -0.36,-3.32 Q -0.36,-3.32 1.84,-4.14 4.05,-4.95 6.20,-4.81 8.35,-4.67 11.80,-4.23 15.25,-3.78 18.81,-1.08 22.36,1.61 22.69,1.88 23.02,2.15 23.25,2.51 23.47,2.87 23.58,3.28 23.68,3.69 23.64,4.11 23.60,4.54 23.43,4.93 23.27,5.32 22.98,5.63 22.70,5.95 22.32,6.16 21.95,6.36 21.54,6.44 21.12,6.52 20.70,6.46 20.28,6.40 19.90,6.21 19.52,6.02 19.22,5.72 18.92,5.42 18.73,5.04 18.54,4.66 18.49,4.23 18.43,3.81 18.51,3.40 18.60,2.98 18.81,2.61 19.02,2.24 19.33,1.96 19.65,1.68 20.04,1.51 20.43,1.34 20.86,1.31 21.28,1.28 21.69,1.38 22.10,1.49 22.46,1.72 22.82,1.95 23.08,2.28 23.35,2.61 23.49,3.01 23.64,3.41 23.65,3.83 23.66,4.26 23.53,4.66 23.41,5.07 23.16,5.41 22.91,5.76 22.56,6.01 22.22,6.25 21.81,6.37 21.40,6.50 20.98,6.48 20.55,6.47 20.15,6.32 19.76,6.18 19.76,6.18 19.76,6.18 17.67,5.77 15.58,5.37 13.43,4.87 11.28,4.37 8.14,4.16 5.01,3.95 2.69,3.63 0.36,3.32 -0.03,3.31 -0.43,3.31 -0.82,3.21 -1.21,3.11 -1.57,2.92 -1.92,2.73 -2.22,2.46 -2.52,2.19 -2.75,1.85 -2.97,1.52 -3.11,1.14 -3.25,0.76 -3.29,0.36 -3.34,-0.03 -3.29,-0.43 -3.23,-0.83 -3.09,-1.20 -2.94,-1.58 -2.71,-1.91 -2.48,-2.24 -2.17,-2.50 -1.87,-2.77 -1.51,-2.95 -1.15,-3.13 -0.76,-3.23 -0.36,-3.32 -0.36,-3.32 L -0.36,-3.32 Z"/></g><g transform="translate(451.6834716796875 763.666259765625) rotate(0 9.639892578125 -0.87640380859375)" stroke="none"><path fill="#1e1e1e" d="M -0.87,-3.50 Q -0.87,-3.50 1.03,-4.44 2.94,-5.37 6.02,-5.73 9.11,-6.08 11.82,-6.03 14.53,-5.98 16.70,-4.79 18.88,-3.61 19.28,-3.47 19.68,-3.33 20.02,-3.07 20.35,-2.81 20.59,-2.45 20.82,-2.10 20.93,-1.69 21.04,-1.28 21.01,-0.85 20.99,-0.43 20.82,-0.04 20.66,0.35 20.39,0.67 20.11,0.99 19.74,1.21 19.37,1.42 18.96,1.51 18.54,1.59 18.12,1.54 17.70,1.49 17.31,1.31 16.93,1.13 16.62,0.83 16.32,0.54 16.12,0.16 15.93,-0.21 15.86,-0.63 15.80,-1.05 15.87,-1.47 15.95,-1.88 16.15,-2.26 16.35,-2.63 16.66,-2.92 16.98,-3.21 17.36,-3.38 17.75,-3.56 18.17,-3.60 18.60,-3.64 19.01,-3.54 19.42,-3.45 19.79,-3.23 20.15,-3.00 20.42,-2.68 20.69,-2.35 20.84,-1.95 21.00,-1.56 21.02,-1.13 21.04,-0.71 20.92,-0.30 20.80,0.10 20.56,0.45 20.31,0.80 19.97,1.05 19.63,1.30 19.23,1.44 18.82,1.57 18.40,1.56 17.97,1.56 17.97,1.56 17.98,1.56 16.30,2.07 14.63,2.58 12.18,2.72 9.72,2.85 7.42,3.10 5.12,3.35 2.99,3.43 0.87,3.50 0.44,3.56 0.01,3.61 -0.42,3.56 -0.85,3.51 -1.26,3.35 -1.66,3.20 -2.02,2.96 -2.38,2.71 -2.67,2.38 -2.96,2.06 -3.17,1.67 -3.37,1.29 -3.48,0.87 -3.58,0.44 -3.58,0.01 -3.59,-0.42 -3.48,-0.84 -3.38,-1.27 -3.18,-1.65 -2.98,-2.04 -2.69,-2.37 -2.40,-2.69 -2.04,-2.94 -1.69,-3.19 -1.28,-3.35 -0.87,-3.50 -0.87,-3.50 L -0.87,-3.50 Z"/></g><g transform="translate(470.0869140625 132.68984985351562) rotate(0 1.3145751953125 15.7744140625)" stroke="none"><path fill="#1e1e1e" d="M -2.55,-1.70 Q -2.55,-1.70 -2.21,-3.65 -1.87,-5.60 0.97,-7.72 3.82,-9.84 6.25,-7.27 8.69,-4.71 8.61,-1.05 8.52,2.60 8.13,7.13 7.75,11.66 7.35,14.36 6.95,17.07 6.41,19.93 5.86,22.78 5.19,25.30 4.52,27.82 3.74,30.10 2.95,32.39 1.96,34.62 0.97,36.86 0.86,37.27 0.75,37.68 0.51,38.03 0.27,38.39 -0.06,38.64 -0.40,38.90 -0.80,39.04 -1.20,39.18 -1.62,39.18 -2.05,39.18 -2.45,39.04 -2.86,38.91 -3.19,38.65 -3.53,38.40 -3.77,38.05 -4.01,37.69 -4.13,37.29 -4.24,36.88 -4.22,36.45 -4.20,36.03 -4.04,35.63 -3.89,35.24 -3.61,34.91 -3.34,34.59 -2.97,34.37 -2.61,34.15 -2.20,34.06 -1.78,33.96 -1.36,34.01 -0.94,34.05 -0.55,34.23 -0.16,34.41 0.14,34.70 0.45,34.99 0.65,35.37 0.85,35.74 0.91,36.16 0.98,36.58 0.92,37.00 0.85,37.42 0.65,37.79 0.45,38.17 0.15,38.46 -0.15,38.76 -0.54,38.93 -0.92,39.11 -1.35,39.16 -1.77,39.21 -2.18,39.12 -2.60,39.03 -2.96,38.81 -3.33,38.59 -3.60,38.27 -3.88,37.94 -4.04,37.55 -4.20,37.16 -4.22,36.73 -4.24,36.31 -4.24,36.31 -4.24,36.31 -4.71,33.59 -5.17,30.87 -5.09,28.52 -5.01,26.17 -4.83,23.72 -4.64,21.27 -4.35,18.37 -4.07,15.47 -3.71,12.92 -3.34,10.38 -3.06,7.91 -2.77,5.44 -2.60,3.16 -2.42,0.87 -1.45,-2.59 -0.47,-6.07 2.71,-3.25 5.90,-0.43 4.22,0.63 2.55,1.70 2.31,1.98 2.07,2.26 1.77,2.47 1.46,2.69 1.12,2.83 0.78,2.96 0.41,3.01 0.04,3.06 -0.31,3.02 -0.68,2.99 -1.03,2.86 -1.38,2.73 -1.69,2.53 -1.99,2.32 -2.24,2.05 -2.49,1.78 -2.67,1.45 -2.85,1.13 -2.94,0.77 -3.04,0.41 -3.04,0.04 -3.05,-0.32 -2.96,-0.68 -2.88,-1.04 -2.71,-1.37 -2.55,-1.70 -2.55,-1.70 L -2.55,-1.70 Z"/></g><g transform="translate(474.46875 138.8243408203125) rotate(0 7.01080322265625 0)" stroke="none"><path fill="#1e1e1e" d="M -0.37,-3.38 Q -0.37,-3.38 1.86,-3.95 4.10,-4.53 7.37,-4.25 10.65,-3.97 12.35,-2.90 14.06,-1.83 14.44,-1.65 14.83,-1.48 15.14,-1.19 15.45,-0.90 15.65,-0.52 15.85,-0.15 15.93,0.26 16.00,0.68 15.93,1.10 15.87,1.52 15.67,1.90 15.47,2.27 15.17,2.57 14.86,2.86 14.47,3.04 14.09,3.22 13.67,3.27 13.25,3.32 12.83,3.23 12.41,3.14 12.05,2.93 11.68,2.71 11.41,2.39 11.13,2.07 10.97,1.67 10.81,1.28 10.78,0.85 10.76,0.43 10.87,0.02 10.98,-0.38 11.22,-0.73 11.45,-1.09 11.79,-1.35 12.12,-1.61 12.53,-1.74 12.93,-1.88 13.35,-1.89 13.78,-1.89 14.18,-1.76 14.59,-1.62 14.93,-1.37 15.27,-1.11 15.51,-0.76 15.75,-0.41 15.86,-0.00 15.98,0.40 15.96,0.82 15.94,1.24 15.78,1.64 15.63,2.04 15.36,2.36 15.08,2.69 14.72,2.91 14.36,3.13 13.94,3.22 13.53,3.32 13.11,3.28 12.68,3.23 12.68,3.23 12.68,3.23 11.46,3.51 10.23,3.79 7.59,3.65 4.96,3.52 2.67,3.45 0.37,3.38 -0.03,3.37 -0.44,3.37 -0.84,3.27 -1.23,3.16 -1.59,2.97 -1.96,2.77 -2.26,2.50 -2.56,2.22 -2.79,1.88 -3.02,1.54 -3.16,1.16 -3.31,0.78 -3.35,0.37 -3.40,-0.03 -3.34,-0.44 -3.29,-0.84 -3.14,-1.22 -2.99,-1.61 -2.75,-1.94 -2.52,-2.28 -2.21,-2.55 -1.90,-2.81 -1.53,-3.00 -1.17,-3.19 -0.77,-3.28 -0.37,-3.38 -0.37,-3.38 L -0.37,-3.38 Z"/></g><g transform="translate(475.3450927734375 152.8460693359375) rotate(0 3.943603515625 -3.0672607421875)" stroke="none"><path fill="#1e1e1e" d="M -2.47,-2.47 Q -2.47,-2.47 -1.11,-4.13 0.23,-5.80 3.26,-7.05 6.29,-8.30 6.70,-8.41 7.11,-8.51 7.54,-8.47 7.96,-8.44 8.35,-8.27 8.74,-8.10 9.06,-7.82 9.37,-7.54 9.58,-7.17 9.79,-6.80 9.87,-6.38 9.95,-5.96 9.90,-5.54 9.84,-5.12 9.65,-4.74 9.46,-4.36 9.16,-4.06 8.86,-3.76 8.48,-3.57 8.10,-3.38 7.68,-3.32 7.25,-3.27 6.84,-3.35 6.42,-3.43 6.05,-3.63 5.68,-3.84 5.40,-4.16 5.11,-4.48 4.95,-4.87 4.78,-5.26 4.74,-5.68 4.71,-6.10 4.81,-6.52 4.91,-6.93 5.14,-7.29 5.37,-7.65 5.70,-7.91 6.03,-8.18 6.43,-8.32 6.83,-8.47 7.26,-8.48 7.68,-8.49 8.09,-8.37 8.49,-8.24 8.84,-8.00 9.18,-7.75 9.43,-7.40 9.68,-7.06 9.80,-6.65 9.93,-6.24 9.92,-5.82 9.91,-5.39 9.76,-5.00 9.61,-4.60 9.35,-4.27 9.08,-3.93 8.72,-3.71 8.36,-3.48 8.36,-3.48 8.36,-3.48 7.08,-1.86 5.80,-0.23 4.13,1.11 2.47,2.47 2.13,2.73 1.80,2.99 1.42,3.16 1.03,3.33 0.62,3.41 0.21,3.48 -0.20,3.46 -0.62,3.43 -1.03,3.31 -1.43,3.18 -1.79,2.96 -2.15,2.75 -2.45,2.45 -2.75,2.15 -2.96,1.79 -3.18,1.43 -3.31,1.03 -3.43,0.62 -3.46,0.20 -3.48,-0.21 -3.41,-0.62 -3.33,-1.03 -3.16,-1.42 -2.99,-1.80 -2.73,-2.13 -2.47,-2.47 -2.47,-2.47 L -2.47,-2.47 Z"/></g><g transform="translate(467.4578857421875 173.87857055664062) rotate(0 5.25811767578125 -0.43817138671875)" stroke="none"><path fill="#1e1e1e" d="M -0.41,-3.32 Q -0.41,-3.32 1.54,-4.01 3.50,-4.71 6.35,-4.07 9.19,-3.43 9.61,-3.38 10.03,-3.34 10.42,-3.16 10.81,-2.98 11.12,-2.69 11.43,-2.40 11.63,-2.03 11.83,-1.65 11.90,-1.23 11.97,-0.81 11.90,-0.39 11.83,0.02 11.63,0.39 11.44,0.77 11.13,1.06 10.82,1.36 10.44,1.53 10.05,1.71 9.63,1.76 9.21,1.81 8.79,1.72 8.38,1.63 8.01,1.41 7.65,1.19 7.37,0.87 7.09,0.55 6.93,0.15 6.78,-0.23 6.75,-0.66 6.73,-1.08 6.84,-1.49 6.95,-1.90 7.19,-2.25 7.43,-2.60 7.77,-2.86 8.10,-3.12 8.50,-3.26 8.91,-3.39 9.33,-3.40 9.76,-3.40 10.16,-3.26 10.56,-3.13 10.90,-2.87 11.24,-2.62 11.48,-2.27 11.72,-1.91 11.84,-1.50 11.95,-1.10 11.93,-0.67 11.91,-0.25 11.75,0.14 11.59,0.53 11.32,0.86 11.05,1.18 10.68,1.40 10.32,1.62 9.90,1.72 9.49,1.81 9.49,1.81 9.49,1.81 7.02,2.75 4.55,3.70 2.48,3.51 0.41,3.32 0.01,3.32 -0.39,3.32 -0.78,3.23 -1.17,3.13 -1.53,2.95 -1.89,2.76 -2.19,2.49 -2.50,2.23 -2.73,1.89 -2.96,1.56 -3.10,1.19 -3.25,0.81 -3.30,0.41 -3.35,0.01 -3.30,-0.38 -3.25,-0.79 -3.11,-1.16 -2.97,-1.54 -2.74,-1.88 -2.51,-2.21 -2.21,-2.48 -1.91,-2.75 -1.55,-2.94 -1.19,-3.12 -0.80,-3.22 -0.41,-3.32 -0.41,-3.32 L -0.41,-3.32 Z"/></g><g transform="translate(35.414306640625 19.639923095703125) rotate(0 423.27996826171875 95.52279663085938)" stroke="none"><path fill="#1e1e1e" d="M 2.32,-1.93 Q 2.32,-1.93 3.95,-0.71 5.58,0.51 6.73,2.51 7.89,4.51 8.93,7.16 9.98,9.82 10.96,12.97 11.93,16.13 13.09,19.30 14.25,22.48 15.74,26.01 17.23,29.53 19.30,33.05 21.36,36.58 23.72,40.03 26.08,43.48 28.98,46.77 31.87,50.06 35.15,53.46 38.42,56.86 42.01,60.26 45.60,63.65 49.61,67.03 53.61,70.42 57.65,73.91 61.70,77.41 65.87,80.85 70.05,84.30 74.36,87.76 78.68,91.22 83.24,94.63 87.80,98.05 92.54,101.47 97.29,104.90 102.27,108.32 107.26,111.74 112.61,115.16 117.95,118.58 123.50,122.05 129.05,125.53 134.90,128.97 140.75,132.41 146.89,135.56 153.03,138.71 159.42,141.80 165.81,144.90 172.32,147.97 178.82,151.03 185.37,154.09 191.92,157.15 198.60,159.89 205.29,162.64 212.38,165.30 219.47,167.95 226.69,170.30 233.90,172.65 241.47,174.90 249.04,177.14 256.71,179.06 264.37,180.99 272.30,182.53 280.23,184.07 288.39,185.48 296.55,186.89 304.47,187.96 312.40,189.04 320.54,189.98 328.68,190.93 336.83,191.57 344.98,192.20 353.13,192.47 361.28,192.73 374.86,193.07 388.45,193.41 398.98,193.55 409.50,193.70 418.76,193.76 428.01,193.82 436.48,193.84 444.94,193.85 453.33,193.86 461.71,193.87 469.81,193.87 477.91,193.86 485.78,193.61 493.65,193.36 501.78,193.00 509.92,192.63 517.90,192.22 525.89,191.82 533.97,191.14 542.06,190.47 549.91,189.44 557.77,188.41 569.89,186.46 582.02,184.51 591.30,182.46 600.58,180.41 608.50,178.30 616.41,176.18 623.79,174.03 631.17,171.87 637.65,169.51 644.13,167.14 650.11,164.65 656.08,162.16 661.59,159.61 667.09,157.07 671.82,154.54 676.56,152.01 680.95,149.25 685.35,146.49 691.26,141.72 697.16,136.94 701.94,132.67 706.72,128.40 710.68,124.40 714.63,120.41 718.58,116.21 722.52,112.00 725.81,107.87 729.10,103.74 732.66,99.55 736.22,95.36 739.35,91.24 742.48,87.12 745.30,83.13 748.12,79.15 751.24,75.24 754.35,71.33 757.44,67.66 760.53,63.98 763.61,60.40 766.69,56.82 770.20,53.34 773.70,49.86 777.21,46.63 780.72,43.39 784.23,40.25 787.74,37.11 791.24,34.01 794.75,30.92 797.91,27.92 801.07,24.93 804.63,21.96 808.20,18.99 811.15,16.54 814.10,14.08 816.87,11.78 819.63,9.47 821.94,7.34 824.24,5.21 826.23,3.31 828.22,1.40 829.82,-0.15 831.41,-1.71 833.38,-4.35 835.35,-7.00 836.76,-8.71 838.18,-10.41 840.88,-10.38 843.58,-10.35 843.79,-10.59 844.00,-10.82 844.26,-11.00 844.53,-11.18 844.82,-11.30 845.12,-11.41 845.43,-11.45 845.75,-11.48 846.06,-11.45 846.38,-11.41 846.67,-11.29 846.97,-11.18 847.23,-11.00 847.49,-10.82 847.70,-10.58 847.91,-10.35 848.05,-10.07 848.20,-9.79 848.28,-9.48 848.35,-9.17 848.35,-8.85 848.35,-8.54 848.28,-8.23 848.20,-7.92 848.05,-7.64 847.90,-7.36 847.63,-7.07 847.35,-6.78 846.98,-6.58 846.60,-6.37 846.18,-6.30 845.76,-6.23 845.34,-6.30 844.92,-6.36 844.55,-6.56 844.17,-6.75 843.88,-7.06 843.58,-7.37 843.40,-7.75 843.22,-8.14 843.17,-8.56 843.12,-8.98 843.21,-9.39 843.30,-9.81 843.51,-10.18 843.73,-10.54 844.05,-10.82 844.37,-11.10 844.77,-11.26 845.16,-11.42 845.58,-11.44 846.01,-11.47 846.42,-11.36 846.83,-11.25 847.18,-11.01 847.54,-10.78 847.80,-10.44 848.06,-10.10 848.19,-9.70 848.33,-9.30 848.34,-8.88 848.34,-8.45 848.21,-8.05 848.07,-7.64 847.82,-7.30 847.56,-6.96 847.21,-6.72 846.86,-6.48 846.46,-6.36 846.05,-6.25 845.62,-6.27 845.20,-6.29 844.80,-6.44 844.41,-6.60 844.08,-6.87 843.75,-7.14 843.53,-7.50 843.31,-7.87 843.22,-8.28 843.12,-8.70 843.17,-9.12 843.21,-9.54 843.38,-9.93 843.56,-10.31 843.57,-10.33 843.58,-10.35 843.79,-10.59 844.00,-10.82 844.26,-11.00 844.53,-11.18 844.82,-11.30 845.12,-11.41 845.43,-11.45 845.75,-11.48 846.06,-11.45 846.37,-11.41 846.67,-11.29 846.97,-11.18 847.23,-11.00 847.49,-10.82 847.70,-10.58 847.91,-10.35 848.05,-10.07 848.20,-9.79 848.28,-9.48 848.35,-9.17 848.35,-8.85 848.35,-8.54 848.28,-8.23 848.20,-7.92 848.05,-7.64 847.90,-7.36 847.79,-3.66 847.67,0.04 845.99,1.95 844.30,3.86 842.71,6.01 841.12,8.16 839.47,9.78 837.81,11.40 835.72,13.41 833.62,15.42 831.06,17.77 828.49,20.11 825.72,22.42 822.95,24.72 819.99,27.18 817.03,29.64 813.81,32.31 810.58,34.98 807.25,38.13 803.91,41.29 800.44,44.36 796.96,47.42 793.53,50.49 790.09,53.56 786.75,56.63 783.42,59.70 780.30,62.77 777.17,65.84 774.14,69.36 771.12,72.88 768.14,76.42 765.16,79.96 762.29,83.55 759.41,87.15 756.45,91.32 753.49,95.50 750.13,99.91 746.77,104.32 743.34,108.35 739.92,112.39 736.27,116.93 732.62,121.47 728.54,125.82 724.46,130.17 720.20,134.45 715.95,138.72 710.89,143.24 705.82,147.75 699.25,152.98 692.67,158.20 687.86,161.20 683.04,164.19 677.95,166.89 672.87,169.58 667.12,172.23 661.38,174.87 655.11,177.47 648.84,180.08 641.93,182.58 635.02,185.08 627.48,187.27 619.95,189.47 611.75,191.65 603.54,193.83 593.87,195.96 584.19,198.09 571.86,200.05 559.54,202.01 551.36,203.07 543.18,204.12 534.88,204.80 526.58,205.48 518.55,205.88 510.51,206.28 502.29,206.64 494.07,206.99 485.99,207.23 477.90,207.48 469.79,207.47 461.69,207.45 453.29,207.44 444.90,207.42 436.40,207.38 427.91,207.34 418.61,207.27 409.30,207.19 398.69,207.02 388.08,206.85 374.45,206.44 360.82,206.04 352.37,205.73 343.91,205.43 335.51,204.74 327.12,204.04 318.86,203.03 310.60,202.02 302.46,200.87 294.32,199.71 286.02,198.25 277.72,196.80 269.46,195.14 261.19,193.49 253.28,191.46 245.38,189.42 237.64,187.10 229.91,184.77 222.45,182.30 214.99,179.82 207.73,177.06 200.46,174.29 193.52,171.40 186.57,168.50 180.02,165.40 173.47,162.29 166.93,159.15 160.39,156.02 153.88,152.82 147.37,149.63 140.94,146.27 134.51,142.91 128.56,139.34 122.61,135.77 117.01,132.23 111.41,128.69 105.93,125.10 100.45,121.52 95.37,117.93 90.29,114.34 85.57,110.75 80.86,107.16 76.21,103.56 71.56,99.97 67.25,96.42 62.94,92.86 58.67,89.30 54.41,85.73 50.45,82.21 46.49,78.69 42.33,75.06 38.17,71.42 34.41,67.78 30.65,64.14 27.31,60.48 23.96,56.82 20.77,52.98 17.57,49.15 15.09,45.31 12.60,41.48 10.38,37.34 8.16,33.20 6.68,29.37 5.21,25.54 4.12,22.08 3.04,18.63 2.30,15.65 1.56,12.68 0.50,9.11 -0.54,5.53 -1.43,3.73 -2.32,1.93 -2.52,1.63 -2.71,1.32 -2.83,0.97 -2.95,0.63 -2.99,0.27 -3.02,-0.09 -2.96,-0.45 -2.91,-0.81 -2.77,-1.14 -2.63,-1.48 -2.41,-1.77 -2.20,-2.07 -1.92,-2.30 -1.64,-2.54 -1.31,-2.70 -0.98,-2.85 -0.62,-2.93 -0.27,-3.01 0.09,-3.00 0.45,-2.99 0.80,-2.89 1.15,-2.79 1.47,-2.61 1.79,-2.43 2.05,-2.18 2.32,-1.93 2.32,-1.93 L 2.32,-1.93 Z"/></g><g transform="translate(10 909.141357421875) rotate(0 462.27783203125 -90.26470947265625)" stroke="none"><path fill="#1e1e1e" d="M -2.98,-1.98 Q -2.98,-1.98 -1.59,-4.33 -0.20,-6.68 1.11,-8.89 2.42,-11.11 4.01,-13.61 5.61,-16.12 7.83,-19.26 10.06,-22.41 13.11,-25.92 16.17,-29.43 19.71,-33.19 23.25,-36.96 27.29,-40.90 31.33,-44.84 35.81,-48.89 40.29,-52.94 45.55,-57.02 50.80,-61.10 56.27,-65.28 61.73,-69.47 67.91,-73.82 74.10,-78.18 80.79,-82.57 87.48,-86.96 94.93,-91.38 102.37,-95.79 110.35,-100.20 118.33,-104.61 127.11,-108.79 135.90,-112.97 145.20,-117.01 154.49,-121.06 164.53,-125.06 174.57,-129.06 185.14,-133.04 195.72,-137.01 206.57,-140.72 217.41,-144.44 228.31,-148.04 239.22,-151.63 250.20,-154.93 261.18,-158.23 272.20,-161.16 283.21,-164.09 293.93,-166.84 304.64,-169.59 314.82,-171.79 325.00,-173.98 334.87,-175.92 344.75,-177.86 354.34,-179.21 363.94,-180.55 373.31,-181.62 382.68,-182.69 392.02,-183.41 401.36,-184.12 410.68,-184.43 420.01,-184.73 429.01,-184.86 438.01,-184.99 446.62,-185.06 455.23,-185.12 464.00,-184.90 472.77,-184.68 481.04,-184.34 489.31,-184.00 497.43,-183.34 505.55,-182.69 513.22,-182.17 520.89,-181.65 528.27,-180.92 535.64,-180.19 542.65,-179.11 549.66,-178.04 556.19,-176.83 562.72,-175.63 568.57,-174.36 574.41,-173.09 580.02,-171.52 585.64,-169.94 590.83,-168.26 596.03,-166.59 601.02,-164.88 606.01,-163.17 611.00,-161.15 616.00,-159.12 620.80,-157.30 625.59,-155.48 630.62,-153.74 635.65,-151.99 643.70,-149.04 651.75,-146.08 658.03,-144.11 664.30,-142.14 670.07,-140.27 675.84,-138.41 681.32,-136.62 686.80,-134.83 691.94,-133.06 697.08,-131.30 702.05,-129.56 707.02,-127.82 711.69,-126.06 716.37,-124.30 720.88,-122.55 725.39,-120.80 729.63,-119.02 733.87,-117.24 738.07,-115.17 742.27,-113.10 746.33,-110.96 750.38,-108.82 754.38,-106.67 758.37,-104.51 762.34,-102.33 766.30,-100.14 770.45,-98.00 774.59,-95.85 778.56,-93.96 782.52,-92.07 786.61,-89.95 790.69,-87.83 794.76,-86.02 798.83,-84.21 802.70,-82.39 806.57,-80.57 810.43,-78.83 814.28,-77.08 818.01,-75.32 821.74,-73.56 825.53,-71.84 829.32,-70.12 833.16,-68.04 837.00,-65.95 840.51,-64.13 844.02,-62.31 847.53,-60.53 851.03,-58.75 854.54,-56.99 858.05,-55.23 861.55,-53.47 865.06,-51.72 868.56,-49.96 872.07,-48.21 875.40,-46.41 878.74,-44.62 881.92,-42.84 885.10,-41.07 888.05,-39.65 891.00,-38.23 894.19,-36.52 897.37,-34.82 900.00,-33.33 902.64,-31.83 905.15,-30.48 907.67,-29.14 910.10,-27.73 912.53,-26.32 914.46,-25.26 916.40,-24.19 919.22,-22.50 922.05,-20.81 923.49,-19.36 924.93,-17.91 925.20,-17.74 925.46,-17.57 925.68,-17.34 925.90,-17.11 926.06,-16.84 926.22,-16.56 926.30,-16.26 926.39,-15.95 926.40,-15.64 926.42,-15.32 926.35,-15.01 926.29,-14.70 926.15,-14.42 926.01,-14.13 925.81,-13.89 925.61,-13.64 925.36,-13.45 925.11,-13.26 924.81,-13.14 924.52,-13.01 924.21,-12.96 923.90,-12.91 923.58,-12.94 923.27,-12.97 922.97,-13.07 922.67,-13.17 921.94,-14.14 921.21,-15.11 921.21,-15.53 921.20,-15.96 921.34,-16.36 921.47,-16.76 921.73,-17.10 921.99,-17.44 922.34,-17.68 922.69,-17.92 923.10,-18.03 923.51,-18.15 923.93,-18.13 924.36,-18.10 924.75,-17.95 925.15,-17.79 925.47,-17.52 925.80,-17.24 926.02,-16.88 926.24,-16.52 926.33,-16.10 926.42,-15.69 926.38,-15.26 926.33,-14.84 926.15,-14.46 925.98,-14.07 925.68,-13.76 925.39,-13.45 925.02,-13.25 924.64,-13.05 924.22,-12.98 923.80,-12.91 923.38,-12.98 922.96,-13.05 922.59,-13.25 922.21,-13.44 921.92,-13.75 921.63,-14.06 921.45,-14.44 921.27,-14.83 921.22,-15.25 921.17,-15.67 921.26,-16.09 921.36,-16.50 921.57,-16.87 921.79,-17.23 922.12,-17.51 922.44,-17.79 922.83,-17.94 923.23,-18.10 923.65,-18.13 924.08,-18.15 924.49,-18.04 924.90,-17.92 925.25,-17.69 925.60,-17.45 925.86,-17.11 926.12,-16.77 925.52,-17.34 924.93,-17.91 925.20,-17.74 925.46,-17.57 925.68,-17.34 925.90,-17.11 926.06,-16.84 926.22,-16.56 926.30,-16.26 926.39,-15.95 926.40,-15.64 926.42,-15.32 926.35,-15.01 926.29,-14.70 926.15,-14.42 926.01,-14.13 925.81,-13.89 925.61,-13.64 925.36,-13.45 925.11,-13.26 924.81,-13.14 924.52,-13.01 924.21,-12.96 923.90,-12.91 923.58,-12.94 923.27,-12.97 922.97,-13.07 922.67,-13.17 920.10,-12.05 917.53,-10.93 914.25,-12.48 910.98,-14.03 908.88,-15.11 906.79,-16.19 904.49,-17.46 902.18,-18.73 899.49,-20.14 896.80,-21.54 894.30,-22.95 891.79,-24.37 888.81,-25.96 885.83,-27.55 882.58,-29.13 879.33,-30.71 876.22,-32.44 873.11,-34.17 869.93,-35.89 866.76,-37.60 863.25,-39.36 859.74,-41.11 856.23,-42.88 852.71,-44.65 849.19,-46.43 845.66,-48.21 842.11,-50.03 838.56,-51.85 834.94,-53.75 831.32,-55.65 827.88,-57.58 824.44,-59.51 820.57,-61.30 816.71,-63.10 813.10,-64.86 809.50,-66.63 805.58,-68.44 801.67,-70.26 797.92,-72.06 794.18,-73.86 789.82,-75.84 785.46,-77.82 781.57,-79.86 777.67,-81.91 773.53,-83.89 769.40,-85.87 765.14,-88.09 760.89,-90.32 756.95,-92.49 753.01,-94.66 749.09,-96.82 745.16,-98.97 741.24,-101.06 737.33,-103.14 733.45,-105.08 729.57,-107.02 725.46,-108.75 721.35,-110.48 716.90,-112.24 712.45,-113.99 707.89,-115.75 703.33,-117.50 698.43,-119.29 693.52,-121.07 688.48,-122.86 683.43,-124.64 677.98,-126.46 672.53,-128.29 666.81,-130.17 661.08,-132.06 654.55,-134.17 648.02,-136.29 640.16,-139.40 632.30,-142.50 627.17,-144.35 622.04,-146.19 617.15,-148.08 612.26,-149.97 607.52,-151.92 602.78,-153.87 597.89,-155.60 593.00,-157.32 588.00,-158.97 583.00,-160.63 577.67,-162.15 572.33,-163.67 566.65,-164.94 560.96,-166.21 554.58,-167.42 548.21,-168.64 541.45,-169.69 534.70,-170.75 527.47,-171.47 520.24,-172.20 512.51,-172.74 504.79,-173.27 496.85,-173.93 488.91,-174.58 480.72,-174.94 472.52,-175.30 463.91,-175.53 455.29,-175.77 446.72,-175.72 438.14,-175.68 429.23,-175.55 420.31,-175.43 411.19,-175.14 402.07,-174.84 392.91,-174.15 383.74,-173.45 374.49,-172.39 365.23,-171.32 355.89,-170.01 346.54,-168.71 336.76,-166.78 326.97,-164.86 316.97,-162.71 306.97,-160.55 296.29,-157.80 285.61,-155.06 274.75,-152.17 263.88,-149.27 253.02,-146.00 242.16,-142.72 231.30,-139.14 220.45,-135.57 209.74,-131.89 199.03,-128.21 188.54,-124.27 178.05,-120.32 168.16,-116.37 158.26,-112.42 149.12,-108.42 139.97,-104.43 131.45,-100.35 122.93,-96.28 115.09,-91.94 107.24,-87.59 99.98,-83.27 92.73,-78.96 86.17,-74.66 79.60,-70.35 73.57,-66.11 67.54,-61.87 62.05,-57.68 56.56,-53.49 51.47,-49.72 46.37,-45.95 41.89,-42.21 37.41,-38.47 33.42,-34.75 29.43,-31.04 25.93,-27.45 22.43,-23.86 19.59,-20.73 16.75,-17.61 14.59,-14.64 12.43,-11.66 10.82,-9.25 9.21,-6.84 7.72,-4.61 6.24,-2.38 4.61,-0.19 2.98,1.98 2.70,2.31 2.42,2.64 2.06,2.89 1.71,3.14 1.31,3.30 0.91,3.46 0.48,3.52 0.05,3.58 -0.37,3.54 -0.80,3.49 -1.20,3.34 -1.61,3.20 -1.97,2.96 -2.33,2.72 -2.62,2.40 -2.91,2.08 -3.12,1.70 -3.33,1.32 -3.44,0.90 -3.55,0.48 -3.56,0.05 -3.56,-0.37 -3.47,-0.79 -3.37,-1.21 -3.17,-1.60 -2.98,-1.99 -2.98,-1.98 L -2.98,-1.98 Z"/></g><g stroke-linecap="round"><g transform="translate(116.0390625 195.7874755859375) rotate(0 -4.8199462890625 269.91766357421875)"><path d="M0.14 0.15 C-1.48 90.13, -8.16 449.88, -9.8 539.84 M0 0.08 C-1.56 90.09, -7.86 450.13, -9.5 540.05" stroke="#1e1e1e" stroke-width="2" fill="none"/></g></g><mask/><g stroke-linecap="round"><g transform="translate(102.89373779296875 733.8701171875) rotate(0 347.9132995605469 -6.134490966796875)"><path d="M0.06 0.12 C116.05 -1.87, 579.87 -10.02, 695.81 -12.09 M-0.12 0.02 C115.84 -2, 579.63 -10.29, 695.66 -12.32" stroke="#1e1e1e" stroke-width="2" fill="none"/></g></g><mask/><g stroke-linecap="round"><g transform="translate(794.338623046875 725.98291015625) rotate(0 -2.6290283203125 -261.59228515625)"><path d="M-0.01 0.13 C-0.87 -87.07, -4.42 -436, -5.28 -523.22 M-0.21 0.06 C-1.08 -87.12, -4.57 -435.86, -5.42 -523.04" stroke="#1e1e1e" stroke-width="2" fill="none"/></g></g><mask/><g stroke-linecap="round"><g transform="translate(787.327880859375 207.18011474609375) rotate(0 -336.520751953125 1.752716064453125)"><path d="M0.09 -0.12 C-112.07 0.47, -560.94 2.96, -673.11 3.57 M-0.04 0.15 C-112.23 0.69, -561.11 2.73, -673.26 3.33" stroke="#f08c00" stroke-width="2" fill="none"/></g></g><mask/><g transform="translate(455.1888427734375 280.79400634765625) rotate(0 10.07806396484375 -21.470733642578125)" stroke="none"><path fill="#1e1e1e" d="M -2.75,-1.37 Q -2.75,-1.37 -2.16,-2.97 -1.58,-4.57 -0.46,-7.45 0.66,-10.32 1.41,-12.99 2.16,-15.66 2.57,-17.87 2.97,-20.09 3.88,-22.35 4.79,-24.62 5.75,-26.70 6.71,-28.78 8.16,-31.33 9.62,-33.87 10.92,-36.06 12.21,-38.25 13.62,-40.18 15.03,-42.12 16.82,-43.60 18.61,-45.07 19.00,-45.23 19.40,-45.39 19.82,-45.41 20.25,-45.43 20.66,-45.32 21.06,-45.20 21.42,-44.96 21.77,-44.72 22.02,-44.38 22.28,-44.05 22.41,-43.64 22.55,-43.24 22.55,-42.81 22.55,-42.39 22.41,-41.99 22.27,-41.58 22.02,-41.25 21.76,-40.91 21.41,-40.67 21.05,-40.43 20.64,-40.32 20.23,-40.21 19.81,-40.23 19.39,-40.26 18.99,-40.41 18.60,-40.57 18.27,-40.85 17.95,-41.12 17.73,-41.49 17.51,-41.85 17.42,-42.27 17.33,-42.68 17.38,-43.11 17.43,-43.53 17.61,-43.91 17.79,-44.30 18.08,-44.61 18.37,-44.91 18.75,-45.11 19.12,-45.31 19.54,-45.38 19.96,-45.45 20.38,-45.38 20.80,-45.31 21.18,-45.11 21.55,-44.91 21.84,-44.60 22.13,-44.29 22.31,-43.90 22.49,-43.52 22.53,-43.09 22.58,-42.67 22.49,-42.26 22.39,-41.84 22.17,-41.48 21.95,-41.11 21.63,-40.84 21.31,-40.57 21.31,-40.57 21.31,-40.57 21.47,-39.88 21.63,-39.19 20.18,-37.29 18.73,-35.39 17.70,-33.35 16.68,-31.31 15.33,-29.09 13.97,-26.86 12.73,-24.26 11.50,-21.66 10.55,-18.96 9.60,-16.26 9.11,-14.11 8.63,-11.95 7.61,-9.19 6.58,-6.42 5.59,-3.94 4.61,-1.47 3.68,-0.04 2.75,1.37 2.54,1.68 2.34,1.99 2.06,2.24 1.79,2.49 1.47,2.67 1.14,2.85 0.78,2.95 0.43,3.04 0.05,3.05 -0.31,3.06 -0.67,2.97 -1.03,2.89 -1.36,2.73 -1.69,2.56 -1.97,2.32 -2.26,2.08 -2.47,1.78 -2.69,1.48 -2.83,1.13 -2.97,0.79 -3.02,0.42 -3.07,0.06 -3.03,-0.30 -3.00,-0.67 -2.87,-1.02 -2.75,-1.37 -2.75,-1.37 L -2.75,-1.37 Z"/></g><g transform="translate(473.59228515625 242.23431396484375) rotate(0 11.39263916015625 17.088958740234375)" stroke="none"><path fill="#1e1e1e" d="M 2.39,-1.91 Q 2.39,-1.91 3.50,-0.73 4.62,0.43 5.88,2.15 7.15,3.87 8.56,5.59 9.97,7.31 11.10,9.60 12.23,11.89 13.26,13.81 14.29,15.73 15.37,17.74 16.44,19.75 17.73,21.84 19.01,23.92 20.52,25.69 22.04,27.45 23.25,29.77 24.47,32.09 24.68,32.46 24.89,32.83 24.98,33.24 25.06,33.66 25.00,34.08 24.95,34.50 24.76,34.88 24.58,35.27 24.28,35.57 23.98,35.87 23.60,36.06 23.22,36.25 22.80,36.31 22.38,36.37 21.96,36.30 21.54,36.22 21.17,36.01 20.80,35.80 20.51,35.49 20.23,35.17 20.06,34.79 19.89,34.40 19.85,33.97 19.81,33.55 19.91,33.14 20.01,32.72 20.24,32.36 20.47,32.00 20.80,31.74 21.13,31.47 21.52,31.32 21.92,31.17 22.35,31.16 22.77,31.14 23.18,31.26 23.59,31.39 23.93,31.63 24.28,31.88 24.53,32.22 24.78,32.57 24.91,32.97 25.03,33.38 25.02,33.80 25.02,34.23 24.87,34.63 24.73,35.03 24.46,35.36 24.20,35.69 23.84,35.92 23.49,36.15 23.07,36.26 22.66,36.36 22.24,36.33 21.81,36.30 21.42,36.13 21.03,35.97 20.71,35.69 20.40,35.40 20.40,35.40 20.40,35.40 17.44,32.49 14.48,29.57 13.20,27.48 11.93,25.39 10.06,22.37 8.18,19.35 6.93,16.97 5.67,14.58 4.52,12.25 3.37,9.91 1.39,7.26 -0.59,4.60 -1.49,3.25 -2.39,1.91 -2.58,1.59 -2.77,1.28 -2.89,0.93 -3.00,0.58 -3.03,0.21 -3.05,-0.15 -2.99,-0.51 -2.93,-0.88 -2.78,-1.21 -2.63,-1.55 -2.41,-1.85 -2.18,-2.14 -1.89,-2.37 -1.61,-2.60 -1.27,-2.75 -0.94,-2.91 -0.57,-2.98 -0.21,-3.05 0.15,-3.03 0.52,-3.01 0.87,-2.91 1.22,-2.80 1.54,-2.61 1.86,-2.42 2.12,-2.17 2.39,-1.91 2.39,-1.91 L 2.39,-1.91 Z"/></g><g transform="translate(463.952392578125 265.01959228515625) rotate(0 11.39263916015625 -2.629058837890625)" stroke="none"><path fill="#1e1e1e" d="M -1.18,-2.77 Q -1.18,-2.77 0.47,-3.75 2.14,-4.74 4.85,-5.57 7.56,-6.41 9.74,-7.08 11.93,-7.74 15.03,-7.97 18.13,-8.20 20.74,-6.72 23.35,-5.25 23.70,-5.01 24.06,-4.78 24.32,-4.44 24.58,-4.11 24.71,-3.70 24.85,-3.30 24.86,-2.88 24.86,-2.45 24.73,-2.05 24.59,-1.64 24.34,-1.30 24.08,-0.96 23.73,-0.72 23.38,-0.48 22.97,-0.37 22.57,-0.25 22.14,-0.27 21.72,-0.29 21.32,-0.44 20.92,-0.60 20.60,-0.87 20.27,-1.14 20.05,-1.51 19.83,-1.87 19.74,-2.28 19.64,-2.70 19.68,-3.12 19.73,-3.54 19.90,-3.93 20.08,-4.32 20.37,-4.63 20.66,-4.94 21.03,-5.14 21.41,-5.34 21.83,-5.41 22.25,-5.49 22.67,-5.42 23.08,-5.35 23.46,-5.16 23.84,-4.96 24.13,-4.65 24.43,-4.35 24.61,-3.96 24.79,-3.58 24.84,-3.16 24.89,-2.73 24.80,-2.32 24.71,-1.90 24.49,-1.54 24.28,-1.17 23.95,-0.89 23.63,-0.62 23.24,-0.46 22.85,-0.30 22.42,-0.27 22.00,-0.25 21.59,-0.36 21.18,-0.47 21.18,-0.47 21.18,-0.47 18.43,-0.88 15.68,-1.29 12.67,-0.37 9.66,0.55 7.28,1.13 4.90,1.72 3.04,2.24 1.18,2.77 0.83,2.87 0.49,2.97 0.12,2.99 -0.23,3.00 -0.59,2.93 -0.94,2.86 -1.27,2.70 -1.60,2.55 -1.88,2.32 -2.17,2.09 -2.39,1.80 -2.61,1.51 -2.75,1.17 -2.89,0.84 -2.95,0.48 -3.01,0.12 -2.98,-0.23 -2.95,-0.59 -2.84,-0.94 -2.72,-1.28 -2.53,-1.59 -2.34,-1.90 -2.07,-2.15 -1.81,-2.40 -1.50,-2.59 -1.18,-2.77 -1.18,-2.77 L -1.18,-2.77 Z"/></g><g transform="translate(454.3125 666.3906860351562) rotate(0 -2.6290283203125 13.145355224609375)" stroke="none"><path fill="#1e1e1e" d="M 2.97,0.74 Q 2.97,0.74 2.91,2.86 2.85,4.99 2.65,7.69 2.45,10.40 1.73,13.53 1.00,16.66 0.11,19.36 -0.78,22.07 -1.68,23.98 -2.59,25.90 -2.69,26.31 -2.79,26.72 -3.02,27.08 -3.25,27.44 -3.58,27.70 -3.91,27.97 -4.31,28.12 -4.71,28.26 -5.13,28.28 -5.56,28.29 -5.96,28.16 -6.37,28.04 -6.72,27.79 -7.06,27.54 -7.31,27.20 -7.56,26.85 -7.68,26.45 -7.81,26.04 -7.80,25.62 -7.78,25.19 -7.64,24.79 -7.49,24.39 -7.23,24.06 -6.96,23.73 -6.60,23.50 -6.24,23.27 -5.83,23.17 -5.42,23.07 -5.00,23.10 -4.57,23.14 -4.18,23.30 -3.79,23.47 -3.47,23.75 -3.16,24.04 -2.95,24.41 -2.74,24.78 -2.66,25.19 -2.58,25.61 -2.64,26.03 -2.69,26.45 -2.88,26.84 -3.07,27.22 -3.37,27.52 -3.67,27.82 -4.05,28.01 -4.43,28.20 -4.85,28.25 -5.27,28.31 -5.69,28.23 -6.11,28.15 -6.48,27.94 -6.85,27.73 -7.13,27.42 -7.42,27.10 -7.59,26.71 -7.75,26.32 -7.79,25.90 -7.82,25.47 -7.82,25.47 -7.82,25.47 -8.15,22.53 -8.47,19.59 -7.69,17.01 -6.90,14.43 -6.29,12.15 -5.69,9.87 -5.28,6.47 -4.86,3.06 -3.91,1.16 -2.97,-0.74 -2.83,-1.08 -2.70,-1.43 -2.49,-1.73 -2.28,-2.03 -2.00,-2.28 -1.73,-2.52 -1.40,-2.69 -1.07,-2.86 -0.71,-2.95 -0.35,-3.04 0.01,-3.03 0.37,-3.03 0.73,-2.94 1.09,-2.85 1.42,-2.68 1.74,-2.51 2.02,-2.26 2.29,-2.02 2.50,-1.71 2.71,-1.41 2.84,-1.06 2.97,-0.72 3.01,-0.35 3.06,0.01 3.01,0.37 2.97,0.74 2.97,0.74 L 2.97,0.74 Z"/></g><g transform="translate(457.8179931640625 657.6271362304688) rotate(0 9.63983154296875 18.4034423828125)" stroke="none"><path fill="#1e1e1e" d="M -0.85,-2.97 Q -0.85,-2.97 0.84,-3.73 2.53,-4.49 5.44,-4.91 8.34,-5.33 11.08,-5.40 13.81,-5.48 17.20,-4.05 20.58,-2.62 22.35,-0.44 24.12,1.74 24.12,4.45 24.11,7.16 22.33,9.25 20.54,11.35 18.46,12.71 16.38,14.08 17.85,16.51 19.31,18.95 19.87,21.10 20.43,23.25 19.83,25.83 19.22,28.40 17.46,30.90 15.70,33.40 13.99,35.14 12.28,36.88 10.25,38.62 8.21,40.35 3.65,40.73 -0.90,41.11 -1.33,41.08 -1.75,41.06 -2.15,40.90 -2.54,40.74 -2.86,40.46 -3.18,40.18 -3.40,39.82 -3.62,39.45 -3.70,39.03 -3.79,38.62 -3.74,38.20 -3.69,37.77 -3.51,37.39 -3.33,37.01 -3.04,36.70 -2.74,36.39 -2.37,36.20 -1.99,36.00 -1.57,35.93 -1.15,35.87 -0.73,35.94 -0.31,36.01 0.05,36.21 0.43,36.42 0.72,36.73 1.01,37.04 1.18,37.43 1.36,37.81 1.40,38.24 1.44,38.66 1.35,39.07 1.25,39.49 1.03,39.85 0.81,40.21 0.48,40.48 0.16,40.76 -0.23,40.91 -0.62,41.07 -1.05,41.09 -1.47,41.10 -1.88,40.99 -2.29,40.87 -2.64,40.63 -2.99,40.39 -3.24,40.05 -3.50,39.71 -3.63,39.30 -3.76,38.90 -3.76,38.48 -3.76,38.05 -3.62,37.65 -3.48,37.25 -3.22,36.91 -2.96,36.58 -2.61,36.34 -2.25,36.10 -1.84,35.99 -1.43,35.88 -1.43,35.88 -1.43,35.88 0.09,34.87 1.63,33.85 3.87,32.24 6.10,30.63 8.47,28.64 10.84,26.65 11.41,23.84 11.97,21.04 10.57,19.17 9.17,17.29 8.65,14.59 8.12,11.90 10.27,9.57 12.42,7.24 14.88,5.88 17.35,4.53 15.60,3.27 13.85,2.02 11.36,2.06 8.87,2.10 6.69,2.29 4.52,2.48 2.68,2.73 0.85,2.97 0.48,3.03 0.11,3.09 -0.25,3.06 -0.63,3.03 -0.98,2.91 -1.33,2.79 -1.65,2.59 -1.96,2.39 -2.22,2.12 -2.48,1.85 -2.66,1.52 -2.85,1.20 -2.95,0.84 -3.05,0.48 -3.07,0.11 -3.08,-0.26 -3.01,-0.62 -2.93,-0.99 -2.77,-1.32 -2.61,-1.66 -2.37,-1.95 -2.13,-2.24 -1.83,-2.46 -1.53,-2.68 -1.19,-2.83 -0.85,-2.97 -0.85,-2.97 L -0.85,-2.97 Z"/></g><g transform="translate(63.45770263671875 489.36669921875) rotate(0 -7.887176513671875 13.145355224609375)" stroke="none"><path fill="#1e1e1e" d="M 0.48,3.40 Q 0.48,3.40 -1.14,4.01 -2.78,4.61 -5.03,6.59 -7.28,8.56 -9.35,10.96 -11.42,13.37 -12.08,15.67 -12.75,17.96 -10.64,19.69 -8.54,21.43 -4.01,22.51 0.51,23.60 0.93,23.69 1.34,23.77 1.71,23.99 2.07,24.21 2.35,24.53 2.63,24.85 2.79,25.25 2.95,25.64 2.97,26.06 3.00,26.49 2.89,26.90 2.78,27.31 2.54,27.66 2.30,28.01 1.97,28.27 1.63,28.53 1.23,28.67 0.83,28.81 0.40,28.81 -0.01,28.82 -0.42,28.68 -0.82,28.55 -1.16,28.29 -1.50,28.04 -1.74,27.69 -1.98,27.34 -2.10,26.93 -2.21,26.52 -2.19,26.10 -2.17,25.67 -2.02,25.28 -1.86,24.88 -1.59,24.55 -1.32,24.23 -0.95,24.01 -0.59,23.79 -0.18,23.69 0.23,23.60 0.65,23.64 1.07,23.69 1.46,23.86 1.85,24.04 2.16,24.33 2.47,24.62 2.67,24.99 2.87,25.37 2.94,25.79 3.01,26.20 2.95,26.62 2.88,27.04 2.68,27.42 2.49,27.80 2.18,28.09 1.87,28.39 1.49,28.57 1.10,28.75 0.68,28.80 0.26,28.84 0.26,28.84 0.26,28.84 -2.99,29.40 -6.25,29.96 -8.92,29.70 -11.59,29.44 -15.19,27.38 -18.79,25.31 -19.96,23.15 -21.12,20.98 -20.82,16.72 -20.51,12.45 -19.57,10.39 -18.63,8.32 -15.71,5.07 -12.80,1.82 -11.07,0.46 -9.34,-0.89 -6.80,-2.25 -4.26,-3.61 -2.37,-3.50 -0.48,-3.40 -0.07,-3.41 0.34,-3.42 0.74,-3.32 1.15,-3.23 1.52,-3.05 1.89,-2.86 2.20,-2.60 2.52,-2.33 2.76,-1.99 3.00,-1.66 3.16,-1.27 3.31,-0.89 3.37,-0.48 3.43,-0.07 3.39,0.33 3.35,0.75 3.21,1.14 3.07,1.53 2.84,1.87 2.62,2.22 2.31,2.50 2.01,2.78 1.64,2.98 1.28,3.18 0.88,3.29 0.48,3.40 0.48,3.40 L 0.48,3.40 Z"/></g><g transform="translate(820.629150390625 482.35595703125) rotate(0 -5.2581787109375 16.21258544921875)" stroke="none"><path fill="#1e1e1e" d="M 3.09,0.88 Q 3.09,0.88 2.88,2.73 2.67,4.58 1.85,7.58 1.03,10.58 0.21,12.99 -0.61,15.40 -1.43,17.95 -2.25,20.50 -3.21,22.72 -4.17,24.94 -6.00,28.59 -7.83,32.23 -7.96,32.64 -8.09,33.04 -8.34,33.38 -8.59,33.73 -8.94,33.97 -9.29,34.21 -9.70,34.33 -10.11,34.45 -10.53,34.43 -10.96,34.41 -11.35,34.26 -11.75,34.11 -12.08,33.83 -12.41,33.56 -12.63,33.20 -12.85,32.84 -12.95,32.43 -13.04,32.01 -13.00,31.59 -12.96,31.17 -12.79,30.78 -12.61,30.39 -12.32,30.08 -12.04,29.77 -11.66,29.56 -11.29,29.36 -10.87,29.29 -10.45,29.21 -10.03,29.28 -9.61,29.34 -9.23,29.54 -8.86,29.73 -8.56,30.04 -8.27,30.34 -8.08,30.72 -7.90,31.11 -7.85,31.53 -7.80,31.95 -7.89,32.37 -7.97,32.78 -8.19,33.15 -8.40,33.52 -8.72,33.80 -9.04,34.07 -9.44,34.24 -9.83,34.40 -10.25,34.43 -10.68,34.45 -11.09,34.34 -11.50,34.24 -11.85,34.00 -12.21,33.77 -12.47,33.43 -12.73,33.10 -12.87,32.69 -13.01,32.29 -13.01,31.87 -13.02,31.44 -13.02,31.44 -13.02,31.44 -12.95,27.28 -12.89,23.12 -11.68,20.42 -10.46,17.72 -9.53,15.12 -8.60,12.52 -7.66,10.30 -6.71,8.07 -5.70,5.27 -4.69,2.47 -3.89,0.79 -3.09,-0.88 -2.93,-1.24 -2.78,-1.59 -2.55,-1.90 -2.32,-2.21 -2.02,-2.46 -1.72,-2.71 -1.37,-2.87 -1.02,-3.04 -0.64,-3.12 -0.27,-3.20 0.11,-3.18 0.50,-3.17 0.87,-3.06 1.24,-2.96 1.58,-2.76 1.92,-2.57 2.20,-2.30 2.48,-2.04 2.69,-1.71 2.89,-1.38 3.02,-1.02 3.14,-0.65 3.17,-0.26 3.21,0.11 3.15,0.50 3.09,0.88 3.09,0.88 L 3.09,0.88 Z"/></g><g transform="translate(825.88720703125 484.98504638671875) rotate(0 -6.134521484375 15.336212158203125)" stroke="none"><path fill="#1e1e1e" d="M 3.07,-0.55 Q 3.07,-0.55 3.77,2.17 4.48,4.91 4.77,7.24 5.07,9.56 5.00,11.83 4.94,14.10 4.70,17.38 4.45,20.66 2.73,23.64 1.01,26.63 -0.80,28.61 -2.62,30.59 -4.84,32.08 -7.06,33.56 -10.26,33.41 -13.47,33.26 -13.90,33.22 -14.32,33.18 -14.71,33.01 -15.09,32.84 -15.41,32.55 -15.72,32.26 -15.93,31.89 -16.13,31.52 -16.20,31.10 -16.28,30.68 -16.22,30.26 -16.15,29.84 -15.96,29.46 -15.77,29.08 -15.46,28.79 -15.16,28.49 -14.78,28.31 -14.39,28.12 -13.97,28.07 -13.55,28.02 -13.13,28.10 -12.72,28.19 -12.35,28.40 -11.98,28.62 -11.70,28.94 -11.42,29.26 -11.26,29.65 -11.10,30.04 -11.07,30.46 -11.04,30.89 -11.15,31.30 -11.25,31.71 -11.49,32.07 -11.72,32.42 -12.05,32.68 -12.39,32.94 -12.79,33.09 -13.19,33.23 -13.62,33.23 -14.04,33.24 -14.44,33.11 -14.85,32.98 -15.19,32.73 -15.53,32.48 -15.78,32.13 -16.02,31.78 -16.14,31.37 -16.26,30.96 -16.24,30.54 -16.23,30.11 -16.07,29.72 -15.92,29.32 -15.65,28.99 -15.38,28.67 -15.02,28.44 -14.66,28.22 -14.25,28.12 -13.83,28.02 -13.83,28.02 -13.83,28.02 -12.61,27.13 -11.38,26.24 -9.31,24.57 -7.23,22.90 -5.43,20.92 -3.62,18.93 -3.17,16.20 -2.71,13.46 -2.58,9.82 -2.46,6.17 -2.77,3.36 -3.07,0.55 -3.09,0.18 -3.12,-0.19 -3.05,-0.56 -2.98,-0.93 -2.82,-1.27 -2.67,-1.62 -2.44,-1.91 -2.20,-2.21 -1.91,-2.44 -1.61,-2.67 -1.26,-2.83 -0.92,-2.98 -0.55,-3.05 -0.18,-3.12 0.19,-3.09 0.56,-3.07 0.92,-2.96 1.28,-2.84 1.60,-2.65 1.93,-2.45 2.19,-2.19 2.46,-1.92 2.65,-1.60 2.85,-1.27 2.96,-0.91 3.07,-0.55 3.07,-0.55 L 3.07,-0.55 Z"/></g><g transform="translate(79.232177734375 327.24090576171875) rotate(0 -10.5162353515625 12.26898193359375)" stroke="none"><path fill="#2f9e44" d="M 0,3.17 Q 0,3.17 -2.26,3.63 -4.53,4.08 -6.85,4.14 -9.17,4.20 -11.28,5.41 -13.38,6.62 -15.04,8.59 -16.70,10.56 -18.18,12.63 -19.66,14.70 -20.54,17.14 -21.41,19.58 -19.96,17.80 -18.51,16.02 -15.58,13.59 -12.64,11.17 -10.87,9.48 -9.09,7.79 -7.22,6.53 -5.35,5.27 -2.58,6.65 0.17,8.03 0.34,11.08 0.51,14.14 0.97,16.60 1.43,19.05 3.57,20.42 5.70,21.78 6.10,21.93 6.50,22.07 6.83,22.33 7.17,22.60 7.40,22.96 7.63,23.31 7.73,23.72 7.84,24.14 7.80,24.56 7.77,24.98 7.61,25.38 7.44,25.77 7.16,26.08 6.88,26.40 6.51,26.61 6.14,26.82 5.72,26.91 5.30,26.99 4.88,26.93 4.46,26.88 4.08,26.69 3.70,26.50 3.40,26.21 3.09,25.91 2.90,25.53 2.71,25.15 2.65,24.73 2.59,24.31 2.67,23.89 2.75,23.47 2.96,23.10 3.16,22.73 3.48,22.44 3.79,22.16 4.18,21.99 4.57,21.82 5.00,21.78 5.42,21.74 5.83,21.84 6.25,21.95 6.61,22.17 6.96,22.40 7.23,22.73 7.50,23.06 7.65,23.46 7.80,23.86 7.81,24.28 7.82,24.71 7.70,25.11 7.58,25.52 7.33,25.87 7.09,26.21 6.74,26.46 6.40,26.71 5.99,26.84 5.59,26.96 5.16,26.95 4.74,26.95 4.74,26.95 4.74,26.95 1.97,26.90 -0.80,26.86 -3.40,24.42 -6.00,21.98 -6.77,19.31 -7.53,16.64 -7.49,13.54 -7.45,10.44 -5.50,11.99 -3.55,13.54 -5.43,15.33 -7.31,17.11 -10.31,19.66 -13.32,22.21 -16.21,24.31 -19.11,26.40 -22.59,27.38 -26.07,28.36 -28.23,26.66 -30.40,24.96 -30.44,21.77 -30.47,18.58 -29.51,16.10 -28.55,13.61 -27.69,11.66 -26.84,9.70 -24.87,7.08 -22.91,4.47 -21.38,2.93 -19.85,1.39 -17.09,-0.53 -14.34,-2.47 -11.80,-3.33 -9.26,-4.20 -6.90,-4.14 -4.53,-4.08 -2.26,-3.63 0,-3.17 0.38,-3.13 0.76,-3.08 1.11,-2.94 1.47,-2.81 1.79,-2.59 2.10,-2.37 2.36,-2.09 2.61,-1.80 2.79,-1.46 2.97,-1.12 3.06,-0.75 3.15,-0.38 3.15,0.00 3.15,0.38 3.06,0.75 2.97,1.12 2.79,1.46 2.61,1.80 2.36,2.09 2.10,2.37 1.79,2.59 1.47,2.81 1.11,2.94 0.76,3.08 0.37,3.13 -0.00,3.17 -0.00,3.17 L 0,3.17 Z"/></g><g transform="translate(679.5360107421875 250.9979248046875) rotate(0 14.021728515625 -26.728866577148438)" stroke="none"><path fill="#f08c00" d="M -1.51,-2.64 Q -1.51,-2.64 0.08,-3.94 1.67,-5.24 3.87,-6.84 6.06,-8.43 8.59,-10.54 11.12,-12.64 13.08,-14.52 15.05,-16.39 16.76,-18.44 18.47,-20.49 19.67,-22.48 20.87,-24.48 21.77,-26.85 22.66,-29.23 23.12,-31.82 23.59,-34.42 23.40,-37.09 23.22,-39.77 22.99,-42.17 22.76,-44.58 22.20,-46.65 21.65,-48.71 19.98,-46.38 18.30,-44.05 16.71,-41.49 15.12,-38.93 13.45,-35.48 11.78,-32.03 11.24,-29.97 10.70,-27.91 10.16,-25.74 9.63,-23.56 9.67,-19.81 9.71,-16.06 10.42,-13.73 11.12,-11.40 12.37,-9.08 13.62,-6.76 15.27,-5.01 16.91,-3.27 18.37,-2.96 19.82,-2.64 20.24,-2.55 20.65,-2.46 21.02,-2.24 21.38,-2.02 21.66,-1.70 21.93,-1.37 22.09,-0.98 22.25,-0.58 22.27,-0.16 22.29,0.25 22.18,0.66 22.06,1.07 21.83,1.43 21.59,1.78 21.25,2.03 20.91,2.29 20.51,2.43 20.10,2.56 19.68,2.56 19.25,2.56 18.85,2.43 18.45,2.29 18.11,2.03 17.77,1.77 17.53,1.42 17.30,1.07 17.18,0.66 17.07,0.25 17.09,-0.16 17.12,-0.59 17.27,-0.98 17.43,-1.38 17.71,-1.70 17.98,-2.02 18.35,-2.24 18.71,-2.46 19.13,-2.55 19.54,-2.64 19.96,-2.60 20.39,-2.55 20.77,-2.37 21.16,-2.19 21.47,-1.90 21.77,-1.61 21.97,-1.23 22.17,-0.86 22.24,-0.44 22.31,-0.02 22.24,0.39 22.17,0.81 21.97,1.19 21.77,1.56 21.46,1.85 21.15,2.14 20.77,2.32 20.38,2.50 19.96,2.55 19.54,2.59 19.54,2.59 19.54,2.59 16.19,2.14 12.85,1.69 11.11,0.30 9.38,-1.08 7.84,-3.31 6.30,-5.54 4.69,-8.90 3.09,-12.25 2.76,-16.06 2.43,-19.87 2.42,-22.52 2.40,-25.17 2.90,-27.51 3.41,-29.85 4.11,-32.48 4.81,-35.11 6.64,-38.91 8.46,-42.70 10.30,-45.65 12.13,-48.59 13.65,-50.49 15.17,-52.39 16.89,-53.94 18.60,-55.50 21.40,-56.07 24.20,-56.64 26.37,-54.47 28.54,-52.31 29.46,-50.12 30.39,-47.94 30.79,-45.33 31.20,-42.72 31.27,-39.97 31.35,-37.22 31.42,-35.01 31.49,-32.80 30.88,-29.65 30.27,-26.50 29.18,-23.69 28.09,-20.87 26.27,-18.00 24.45,-15.12 22.55,-12.88 20.64,-10.63 18.50,-8.62 16.37,-6.61 13.26,-4.26 10.14,-1.91 7.76,-0.35 5.37,1.21 3.44,1.92 1.51,2.64 1.17,2.78 0.83,2.93 0.47,2.98 0.10,3.04 -0.25,3.01 -0.62,2.98 -0.97,2.86 -1.31,2.74 -1.62,2.54 -1.93,2.35 -2.19,2.08 -2.44,1.81 -2.62,1.50 -2.80,1.18 -2.90,0.82 -3.00,0.47 -3.02,0.10 -3.03,-0.25 -2.96,-0.61 -2.88,-0.97 -2.72,-1.30 -2.56,-1.64 -2.33,-1.92 -2.10,-2.20 -1.80,-2.42 -1.51,-2.64 -1.51,-2.64 L -1.51,-2.64 Z"/></g><g transform="translate(704.0740966796875 251.87420654296875) rotate(0 3.0672607421875 -10.516265869140625)" stroke="none"><path fill="#f08c00" d="M -2.71,-1.35 Q -2.71,-1.35 -1.77,-3.40 -0.84,-5.45 -0.12,-8.84 0.59,-12.23 0.28,-14.48 -0.02,-16.73 0.70,-14.44 1.44,-12.15 3.06,-10.50 4.68,-8.85 6.10,-8.71 7.52,-8.57 7.94,-8.58 8.37,-8.59 8.77,-8.46 9.18,-8.33 9.52,-8.08 9.86,-7.83 10.11,-7.48 10.35,-7.13 10.47,-6.73 10.59,-6.32 10.58,-5.89 10.56,-5.47 10.41,-5.07 10.26,-4.67 9.99,-4.35 9.72,-4.02 9.36,-3.79 9.00,-3.57 8.59,-3.47 8.18,-3.37 7.75,-3.41 7.33,-3.45 6.94,-3.62 6.55,-3.79 6.24,-4.08 5.93,-4.36 5.72,-4.74 5.51,-5.11 5.44,-5.53 5.36,-5.94 5.42,-6.36 5.48,-6.78 5.68,-7.16 5.87,-7.54 6.17,-7.84 6.48,-8.14 6.86,-8.32 7.24,-8.51 7.66,-8.56 8.08,-8.61 8.50,-8.53 8.92,-8.45 9.29,-8.23 9.65,-8.02 9.93,-7.70 10.21,-7.38 10.38,-6.99 10.54,-6.60 10.57,-6.17 10.60,-5.75 10.50,-5.34 10.39,-4.93 10.16,-4.57 9.93,-4.22 9.59,-3.95 9.26,-3.69 8.86,-3.55 8.46,-3.40 8.46,-3.40 8.46,-3.41 5.02,-2.63 1.58,-1.85 -1.10,-3.06 -3.80,-4.27 -5.02,-7.31 -6.24,-10.34 -5.82,-12.78 -5.40,-15.22 -4.44,-17.43 -3.49,-19.63 -1.76,-21.66 -0.04,-23.70 3.13,-22.74 6.31,-21.79 6.79,-19.59 7.27,-17.40 7.44,-15.19 7.60,-12.98 7.06,-10.67 6.52,-8.36 5.70,-5.48 4.87,-2.60 3.79,-0.62 2.71,1.35 2.51,1.66 2.30,1.96 2.04,2.21 1.77,2.46 1.45,2.63 1.13,2.81 0.77,2.90 0.42,3.00 0.05,3.00 -0.30,3.01 -0.66,2.93 -1.01,2.85 -1.34,2.69 -1.67,2.52 -1.95,2.29 -2.22,2.05 -2.44,1.75 -2.65,1.46 -2.79,1.12 -2.92,0.78 -2.98,0.42 -3.03,0.05 -2.99,-0.30 -2.95,-0.66 -2.83,-1.01 -2.71,-1.35 -2.71,-1.35 L -2.71,-1.35 Z"/></g><g stroke-linecap="round"><g transform="translate(99.3883056640625 732.1173706054688) rotate(0 343.53155517578125 -264.2213439941406)"><path d="M0.04 0.68 C114.83 -87.27, 573.05 -440.54, 687.59 -528.74 M-1.4 -0.01 C113.37 -87.69, 572.24 -439.49, 686.92 -527.36" stroke="#1e1e1e" stroke-width="2" fill="none"/></g></g><mask/><g stroke-linecap="round"><g transform="translate(416.7218200898959 792.0844135990283) rotate(0 15.33624267578125 -0.4382171630859375)"><path d="M0.13 0.03 C0.14 0.18, -5.07 1.24, 0.02 0.95 C5.11 0.65, 25.55 -1.3, 30.68 -1.72 M0.01 -0.08 C0 0.02, -5.19 0.96, -0.09 0.72 C5.01 0.47, 25.43 -1.11, 30.59 -1.54" stroke="#1e1e1e" stroke-width="2" fill="none"/></g></g><mask/><g transform="translate(372.8115234375 663.7616577148438) rotate(0 15.77435302734375 -23.66162109375)" stroke="none"><path fill="#1e1e1e" d="M -1.74,-3.05 Q -1.74,-3.05 -0.18,-4.42 1.36,-5.78 3.70,-7.54 6.05,-9.30 7.98,-11.42 9.91,-13.54 12.36,-16.25 14.81,-18.96 17.11,-21.78 19.42,-24.60 21.18,-27.35 22.94,-30.10 23.99,-33.50 25.04,-36.89 24.46,-39.72 23.89,-42.55 21.87,-40.25 19.85,-37.95 18.73,-35.39 17.62,-32.82 16.73,-30.61 15.84,-28.39 15.27,-25.28 14.71,-22.17 14.89,-19.58 15.07,-16.99 15.76,-14.45 16.44,-11.92 17.39,-9.62 18.34,-7.31 20.96,-6.54 23.58,-5.76 26.66,-6.56 29.74,-7.35 30.16,-7.45 30.57,-7.55 31.00,-7.50 31.42,-7.46 31.81,-7.29 32.19,-7.11 32.50,-6.82 32.82,-6.53 33.02,-6.16 33.22,-5.79 33.29,-5.37 33.37,-4.95 33.30,-4.53 33.24,-4.11 33.04,-3.73 32.85,-3.35 32.54,-3.06 32.23,-2.76 31.85,-2.58 31.47,-2.40 31.04,-2.35 30.62,-2.30 30.21,-2.39 29.79,-2.47 29.42,-2.69 29.06,-2.91 28.78,-3.23 28.50,-3.55 28.34,-3.94 28.18,-4.34 28.15,-4.76 28.13,-5.18 28.24,-5.59 28.35,-6.00 28.58,-6.36 28.82,-6.71 29.15,-6.97 29.49,-7.23 29.89,-7.37 30.29,-7.51 30.72,-7.52 31.14,-7.52 31.54,-7.39 31.95,-7.26 32.29,-7.00 32.63,-6.75 32.87,-6.40 33.11,-6.05 33.23,-5.64 33.35,-5.23 33.33,-4.81 33.31,-4.38 33.16,-3.99 33.00,-3.59 32.73,-3.26 32.46,-2.94 32.10,-2.72 31.73,-2.49 31.73,-2.49 31.73,-2.49 28.70,-0.52 25.67,1.45 22.75,2.04 19.83,2.63 17.32,1.54 14.80,0.45 12.99,-1.58 11.18,-3.61 9.92,-6.62 8.66,-9.63 7.83,-12.71 7.00,-15.78 6.77,-19.19 6.55,-22.60 6.99,-25.99 7.42,-29.37 8.31,-31.59 9.21,-33.80 10.11,-36.06 11.01,-38.31 12.38,-40.79 13.74,-43.26 15.54,-45.37 17.34,-47.49 19.60,-48.96 21.85,-50.43 25.04,-49.96 28.23,-49.49 29.91,-47.69 31.59,-45.89 32.49,-43.56 33.38,-41.23 33.42,-37.89 33.45,-34.56 32.70,-31.55 31.94,-28.54 30.23,-25.48 28.53,-22.42 27.31,-20.56 26.09,-18.70 23.88,-15.97 21.67,-13.24 19.00,-10.28 16.32,-7.32 13.74,-4.68 11.17,-2.05 8.42,-0.14 5.68,1.75 3.71,2.40 1.74,3.05 1.35,3.21 0.96,3.38 0.54,3.44 0.12,3.51 -0.29,3.47 -0.71,3.44 -1.12,3.30 -1.52,3.16 -1.87,2.94 -2.23,2.71 -2.52,2.40 -2.82,2.09 -3.03,1.73 -3.24,1.36 -3.35,0.95 -3.47,0.54 -3.48,0.12 -3.50,-0.29 -3.41,-0.71 -3.32,-1.12 -3.14,-1.51 -2.96,-1.89 -2.69,-2.21 -2.42,-2.54 -2.08,-2.79 -1.74,-3.05 -1.74,-3.05 L -1.74,-3.05 Z"/></g><g stroke-linecap="round"><g transform="translate(427.1455078125 462.19970703125) rotate(0 -1.3145751953125 165.193115234375)"><path d="M0.14 -0.04 C-0.29 55.01, -2.22 275.38, -2.69 330.42 M0.03 -0.19 C-0.42 54.87, -2.36 275.09, -2.84 330.18" stroke="#e03131" stroke-width="2" fill="none"/></g></g><mask/><g stroke-linecap="round"><g transform="translate(111.65728759765625 209.80917358398438) rotate(0 -0.43817138671875 130.57704162597656)"><path d="M0.1 0.12 C-0.03 43.63, -0.74 217.6, -0.88 261.11 M-0.03 0.05 C-0.17 43.57, -0.87 217.72, -1 261.27" stroke="#2f9e44" stroke-width="2" fill="none"/></g></g><mask/></svg>