<svg version="1.1" xmlns="http://www.w3.org/2000/svg" viewBox="0 0 939.0148845332307 758.3902626127252" width="939.0148845332307" height="758.3902626127252" filter="invert(93%) hue-rotate(180deg)">
  <!-- svg-source:excalidraw -->
  
  <defs>
    <style class="style-fonts">
      @font-face {
        font-family: "Virgil";
        src: url("https://excalidraw.com/Virgil.woff2");
      }
      @font-face {
        font-family: "Cascadia";
        src: url("https://excalidraw.com/Cascadia.woff2");
      }
    </style>
    
  </defs>
  <rect x="0" y="0" width="939.0148845332307" height="758.3902626127252" fill="transparent"/><g stroke-linecap="round"><g transform="translate(26.641395848310918 707.7226458891262) rotate(0 255.49726893526605 -1.5771634341855563)"><path d="M0.04 0.08 C85.22 -0.42, 425.79 -2.54, 510.96 -3.06 M-0.12 -0.01 C85.04 -0.56, 425.63 -2.74, 510.82 -3.28" stroke="#1e1e1e" stroke-width="2" fill="none"/></g></g><mask/><g stroke-linecap="round"><g transform="translate(547.0987385758581 714.0312996258684) rotate(0 1.5771634341855645 -206.60586153088244)"><path d="M-0.07 0.1 C0.46 -68.75, 2.68 -344.23, 3.24 -413.13 M0.17 0.03 C0.68 -68.87, 2.65 -344.49, 3.17 -413.36" stroke="#1e1e1e" stroke-width="2" fill="none"/></g></g><mask/><g stroke-linecap="round"><g transform="translate(10.869937254553662 726.6484313512545) rotate(0 3.154282931346536 -241.30297377569434)"><path d="M-0.02 0.04 C1.03 -80.43, 5.17 -402.25, 6.22 -482.71 M-0.23 -0.08 C0.89 -80.53, 5.47 -402.13, 6.53 -482.56" stroke="#1e1e1e" stroke-width="2" fill="none"/></g></g><mask/><g stroke-linecap="round"><g transform="translate(17.178503117246734 275.5853131133312) rotate(0 266.53728116349123 9.462848794039616)"><path d="M0.16 -0.11 C89.01 3.05, 444.37 15.96, 533.18 19.13 M0 0.28 C88.82 3.47, 444.27 15.74, 533.08 18.87" stroke="#1e1e1e" stroke-width="2" fill="none"/></g></g><mask/><g stroke-linecap="round"><g transform="translate(528.173128861828 291.3567717070885) rotate(0 143.52002715585343 -115.13148077373458)"><path d="M-0.81 0.34 C46.94 -37.94, 238.64 -190.79, 286.44 -229.4 M0.96 -0.52 C49.13 -39.16, 240.95 -192.73, 288.83 -231.07" stroke="#1e1e1e" stroke-width="2" fill="none"/></g></g><mask/><g stroke-linecap="round"><g transform="translate(543.9444117074869 732.9569093398985) rotate(0 187.6800760687541 -170.33145404081125)"><path d="M0.95 0.33 C63.22 -56.51, 311.83 -284.96, 374.3 -341.67 M0 -0.54 C62.56 -57.21, 313.91 -283.77, 376.46 -340.66" stroke="#1e1e1e" stroke-width="2" fill="none"/></g></g><mask/><g stroke-linecap="round"><g transform="translate(14.024264122924777 281.8938789760243) rotate(0 198.72008829697924 -135.63434179599938)"><path d="M0.3 -0.49 C66.54 -45.93, 331.21 -226.82, 397.6 -271.89 M-1.01 -1.8 C65.08 -47.15, 330.15 -226.07, 396.74 -270.68" stroke="#1e1e1e" stroke-width="2" fill="none"/></g></g><mask/><g stroke-linecap="round"><g transform="translate(10.869937254553662 748.7283679336557) rotate(0 168.75433454365032 -159.29148574961067)"><path d="M0.39 -0.34 C56.41 -53.46, 280.73 -265.2, 336.83 -318.43 M-0.87 -1.56 C55.49 -54.49, 283.04 -263.91, 339.18 -316.81" stroke="#1e1e1e" stroke-width="2" fill="none"/></g></g><mask/><g stroke-linecap="round"><g transform="translate(332.60732349619525 449.07118189656273) rotate(0 298.0801104769566 -33.12008062170008)"><path d="M0.86 -0.3 C100.35 -11.64, 497.19 -55.77, 596.41 -66.89 M-0.14 -1.5 C99.25 -12.18, 496.33 -54.92, 595.59 -65.69" stroke="#1e1e1e" stroke-width="2" fill="none"/></g></g><mask/><g stroke-linecap="round"><g transform="translate(906.6874321196088 401.756806115291) rotate(0 -37.851395176158405 -187.68007606875406)"><path d="M-1.01 0.96 C-13.59 -61.47, -63.81 -312.45, -76.13 -375.09 M0.66 0.42 C-12.05 -62.36, -64.65 -314.17, -77.31 -377.08" stroke="#1e1e1e" stroke-width="2" fill="none"/></g></g><mask/><g stroke-linecap="round"><g transform="translate(862.5273832067082 70.5566150166344) rotate(0 -238.14860297029864 -15.771414656732702)"><path d="M-0.21 0.03 C-79.63 -5.23, -397.05 -26.12, -476.44 -31.36 M0.18 -0.19 C-79.15 -5.55, -396.53 -26.47, -475.89 -31.75" stroke="#1e1e1e" stroke-width="2" fill="none"/></g></g><mask/><g stroke-linecap="round"><g transform="translate(335.76147461646804 452.2253330168356) rotate(0 23.657187890635896 -214.49150295371194)"><path d="M-0.39 -0.11 C7.58 -71.46, 39.44 -357.07, 47.35 -428.53 M0.29 -0.58 C8.23 -72.02, 39.03 -357.85, 46.99 -429.14" stroke="#1e1e1e" stroke-width="2" fill="none"/></g></g><mask/><g transform="translate(465.0872944867989 168.33951769945065) rotate(0 -9.462892731064187 14.194295159571709)" stroke="none"><path fill="#2f9e44" d="M 2.18,1.45 Q 2.18,1.45 0.66,4.35 -0.86,7.26 -2.55,11.50 -4.25,15.74 -6.14,17.00 -8.02,18.26 -8.78,19.74 -9.54,21.21 -10.06,21.42 -10.58,21.62 -11.14,21.69 -11.70,21.76 -12.25,21.69 -12.81,21.62 -13.33,21.43 -13.86,21.23 -14.32,20.91 -14.78,20.60 -15.16,20.18 -15.53,19.76 -15.79,19.26 -16.06,18.77 -16.19,18.23 -16.33,17.68 -16.33,17.12 -16.33,16.56 -16.20,16.02 -16.07,15.47 -15.81,14.97 -15.55,14.48 -15.18,14.05 -14.81,13.63 -14.35,13.31 -13.89,12.99 -11.89,16.86 -9.90,20.74 -10.46,20.95 -11.02,21.17 -11.62,21.24 -12.21,21.31 -12.81,21.24 -13.40,21.17 -13.97,20.96 -14.53,20.75 -15.02,20.41 -15.52,20.07 -15.92,19.63 -16.32,19.18 -16.60,18.65 -16.88,18.12 -17.03,17.54 -17.17,16.95 -17.17,16.35 -17.18,15.75 -17.03,15.17 -16.89,14.59 -16.62,14.05 -16.34,13.52 -15.94,13.07 -15.55,12.62 -15.05,12.28 -14.56,11.93 -11.54,15.96 -8.52,19.99 -9.03,20.19 -9.54,20.38 -10.08,20.45 -10.62,20.52 -11.16,20.46 -11.70,20.39 -12.21,20.20 -12.72,20.01 -13.17,19.70 -13.62,19.40 -13.98,18.99 -14.34,18.58 -14.59,18.10 -14.85,17.62 -14.98,17.10 -15.11,16.57 -15.11,16.02 -15.12,15.48 -14.99,14.95 -14.86,14.42 -14.61,13.94 -14.36,13.46 -14.00,13.05 -13.64,12.64 -13.19,12.33 -12.75,12.02 -10.35,16.06 -7.95,20.10 -9.20,22.88 -10.46,25.66 -15.47,27.99 -20.49,30.31 -21.89,27.45 -23.29,24.59 -22.49,21.43 -21.70,18.27 -21.66,17.71 -21.63,17.15 -21.46,16.61 -21.29,16.08 -21.00,15.60 -20.71,15.12 -20.32,14.72 -19.92,14.33 -19.44,14.04 -18.96,13.75 -18.42,13.58 -17.89,13.41 -17.33,13.38 -16.77,13.35 -16.22,13.45 -15.67,13.55 -15.15,13.78 -14.64,14.01 -14.20,14.36 -13.76,14.71 -13.42,15.15 -13.07,15.59 -12.84,16.10 -12.61,16.61 -12.51,17.16 -12.41,17.72 -16.66,18.26 -20.91,18.80 -20.88,18.24 -20.84,17.69 -20.68,17.16 -20.51,16.63 -20.22,16.16 -19.94,15.68 -19.54,15.29 -19.15,14.90 -18.67,14.61 -18.20,14.32 -17.67,14.16 -17.14,14.00 -16.58,13.96 -16.03,13.93 -15.48,14.03 -14.94,14.13 -14.43,14.36 -13.93,14.59 -13.49,14.93 -13.05,15.27 -12.71,15.71 -12.37,16.15 -12.14,16.65 -11.92,17.16 -11.82,17.71 -11.72,18.25 -16.10,16.95 -20.47,15.66 -14.59,10.52 -8.71,5.39 -8.37,5.13 -8.03,4.88 -7.63,4.74 -7.23,4.60 -6.80,4.60 -6.38,4.60 -5.97,4.74 -5.57,4.87 -5.23,5.13 -4.89,5.39 -4.65,5.74 -4.41,6.09 -4.30,6.50 -4.19,6.91 -4.21,7.33 -4.23,7.76 -4.39,8.15 -4.54,8.55 -4.82,8.87 -5.09,9.20 -5.46,9.42 -5.82,9.64 -6.24,9.73 -6.65,9.82 -7.07,9.77 -7.50,9.73 -7.88,9.55 -8.27,9.37 -8.58,9.08 -8.89,8.79 -9.09,8.41 -9.28,8.04 -9.35,7.62 -9.42,7.20 -9.36,6.78 -9.29,6.36 -9.09,5.98 -8.89,5.61 -8.58,5.32 -8.27,5.02 -7.89,4.85 -7.50,4.67 -7.08,4.62 -6.66,4.57 -6.24,4.66 -5.83,4.75 -5.46,4.97 -5.10,5.19 -4.82,5.52 -4.55,5.84 -4.39,6.23 -4.23,6.63 -4.21,7.05 -4.19,7.48 -4.30,7.89 -4.41,8.30 -4.65,8.65 -4.89,9.00 -4.89,9.00 -4.89,9.00 -8.21,13.61 -11.52,18.22 -16.22,18.51 -20.91,18.80 -20.88,18.25 -20.84,17.69 -20.68,17.16 -20.51,16.63 -20.22,16.16 -19.94,15.68 -19.54,15.29 -19.15,14.90 -18.67,14.61 -18.20,14.32 -17.67,14.16 -17.14,14.00 -16.59,13.96 -16.03,13.93 -15.49,14.03 -14.94,14.13 -14.43,14.36 -13.93,14.59 -13.49,14.93 -13.05,15.27 -12.71,15.71 -12.37,16.15 -12.14,16.65 -11.92,17.16 -11.82,17.71 -11.72,18.25 -16.71,18.26 -21.70,18.27 -21.66,17.71 -21.63,17.15 -21.46,16.61 -21.29,16.08 -21.00,15.60 -20.71,15.12 -20.32,14.72 -19.92,14.33 -19.44,14.04 -18.96,13.75 -18.42,13.58 -17.89,13.41 -17.33,13.38 -16.77,13.35 -16.22,13.45 -15.67,13.55 -15.16,13.78 -14.64,14.01 -14.20,14.36 -13.76,14.71 -13.42,15.15 -13.07,15.59 -12.84,16.10 -12.61,16.61 -12.51,17.16 -12.41,17.71 -13.27,21.13 -14.14,24.55 -16.11,22.54 -18.09,20.53 -16.84,17.90 -15.59,15.27 -12.06,17.63 -8.52,19.99 -9.03,20.19 -9.54,20.38 -10.08,20.45 -10.62,20.52 -11.16,20.46 -11.70,20.39 -12.21,20.20 -12.72,20.01 -13.17,19.70 -13.61,19.40 -13.98,18.99 -14.34,18.58 -14.59,18.10 -14.85,17.62 -14.98,17.10 -15.11,16.57 -15.11,16.02 -15.12,15.48 -14.99,14.95 -14.86,14.42 -14.61,13.94 -14.36,13.46 -14.00,13.05 -13.64,12.64 -13.19,12.33 -12.75,12.02 -11.32,16.38 -9.90,20.74 -10.46,20.95 -11.02,21.17 -11.62,21.24 -12.21,21.31 -12.81,21.24 -13.40,21.17 -13.97,20.96 -14.53,20.75 -15.02,20.41 -15.52,20.07 -15.92,19.63 -16.32,19.18 -16.60,18.65 -16.88,18.12 -17.03,17.54 -17.17,16.95 -17.17,16.35 -17.18,15.75 -17.03,15.17 -16.89,14.59 -16.62,14.05 -16.34,13.52 -15.94,13.07 -15.55,12.62 -15.05,12.28 -14.56,11.93 -12.05,16.57 -9.54,21.21 -10.06,21.41 -10.58,21.62 -11.14,21.69 -11.70,21.76 -12.25,21.69 -12.81,21.62 -13.33,21.43 -13.86,21.23 -14.32,20.91 -14.78,20.60 -15.16,20.18 -15.53,19.76 -15.79,19.26 -16.06,18.77 -16.19,18.23 -16.33,17.68 -16.33,17.12 -16.33,16.56 -16.20,16.02 -16.07,15.47 -15.81,14.97 -15.55,14.48 -15.18,14.05 -14.81,13.63 -14.35,13.31 -13.89,12.99 -13.43,12.01 -12.97,11.04 -10.92,9.59 -8.88,8.14 -7.63,5.88 -6.39,3.62 -4.28,1.08 -2.18,-1.45 -1.97,-1.69 -1.77,-1.93 -1.51,-2.12 -1.25,-2.30 -0.96,-2.42 -0.66,-2.53 -0.35,-2.58 -0.04,-2.62 0.27,-2.59 0.58,-2.56 0.88,-2.45 1.18,-2.34 1.44,-2.16 1.70,-1.99 1.92,-1.76 2.13,-1.52 2.28,-1.24 2.44,-0.97 2.52,-0.66 2.60,-0.35 2.60,-0.04 2.61,0.27 2.54,0.58 2.47,0.89 2.32,1.17 2.18,1.45 2.18,1.45 L 2.18,1.45 Z"/></g><g transform="translate(244.28722567039395 548.0950491913622) rotate(0 -1.5771634341855645 -9.462892731064187)" stroke="none"><path fill="#2f9e44" d="M -2.54,0.63 Q -2.54,0.63 -4.06,-2.83 -5.58,-6.31 -6.03,-9.05 -6.48,-11.80 -5.84,-13.60 -5.19,-15.40 -5.21,-15.90 -5.23,-16.40 -5.13,-16.89 -5.02,-17.38 -4.81,-17.83 -4.59,-18.28 -4.27,-18.66 -3.95,-19.05 -3.55,-19.35 -3.15,-19.65 -2.69,-19.84 -2.23,-20.03 -1.73,-20.11 -1.24,-20.19 -0.74,-20.15 -0.24,-20.10 0.22,-19.94 0.69,-19.78 1.12,-19.51 1.54,-19.24 1.88,-18.88 2.23,-18.52 2.48,-18.08 2.72,-17.65 2.86,-17.17 3.00,-16.69 2.19,-14.72 1.39,-12.75 0.05,-10.77 -1.29,-8.80 -1.75,-7.29 -2.21,-5.78 -2.58,-5.41 -2.95,-5.03 -3.40,-4.75 -3.85,-4.48 -4.35,-4.32 -4.86,-4.16 -5.38,-4.13 -5.91,-4.09 -6.43,-4.18 -6.95,-4.28 -7.43,-4.49 -7.92,-4.71 -8.33,-5.03 -8.75,-5.35 -9.08,-5.77 -9.40,-6.18 -9.62,-6.66 -9.84,-7.14 -9.94,-7.66 -10.04,-8.18 -10.01,-8.71 -9.98,-9.23 -9.82,-9.74 -9.67,-10.24 -9.40,-10.70 -9.13,-11.15 -7.97,-13.36 -6.81,-15.56 -6.28,-15.45 -5.75,-15.34 -5.63,-15.86 -5.52,-16.37 -5.29,-16.84 -5.06,-17.31 -4.72,-17.71 -4.38,-18.11 -3.95,-18.42 -3.53,-18.72 -3.04,-18.92 -2.56,-19.12 -2.04,-19.19 -1.52,-19.27 -1.00,-19.22 -0.48,-19.17 0.01,-18.99 0.50,-18.82 0.94,-18.53 1.38,-18.25 1.74,-17.86 2.09,-17.48 2.35,-17.02 2.60,-16.56 2.74,-16.05 2.88,-15.55 2.89,-15.02 2.90,-14.50 -1.90,-15.16 -6.71,-15.83 -6.60,-16.33 -6.49,-16.84 -6.26,-17.31 -6.03,-17.78 -5.69,-18.17 -5.35,-18.57 -4.93,-18.88 -4.51,-19.18 -4.03,-19.38 -3.55,-19.58 -3.03,-19.65 -2.52,-19.73 -2.00,-19.67 -1.48,-19.62 -0.99,-19.45 -0.50,-19.28 -0.06,-18.99 0.36,-18.71 0.72,-18.33 1.07,-17.94 1.32,-17.49 1.58,-17.03 1.71,-16.53 1.85,-16.03 1.86,-15.51 1.88,-14.99 -2.62,-14.60 -7.14,-14.22 -7.02,-14.73 -6.91,-15.24 -6.68,-15.70 -6.45,-16.17 -6.11,-16.57 -5.78,-16.96 -5.36,-17.27 -4.93,-17.58 -4.45,-17.77 -3.97,-17.97 -3.45,-18.04 -2.94,-18.12 -2.42,-18.07 -1.90,-18.02 -1.41,-17.84 -0.92,-17.67 -0.49,-17.39 -0.05,-17.10 0.29,-16.72 0.65,-16.34 0.90,-15.88 1.15,-15.43 1.29,-14.92 1.43,-14.42 1.44,-13.90 1.45,-13.38 -1.53,-15.97 -4.52,-18.56 -2.61,-20.05 -0.71,-21.55 0.09,-22.97 0.90,-24.40 1.39,-24.53 1.88,-24.66 2.39,-24.67 2.90,-24.68 3.40,-24.57 3.90,-24.46 4.36,-24.23 4.82,-24.00 5.21,-23.67 5.60,-23.34 5.90,-22.93 6.19,-22.51 6.39,-22.04 6.58,-21.56 6.65,-21.06 6.72,-20.55 6.67,-20.04 6.62,-19.54 6.45,-19.05 6.28,-18.57 5.99,-18.15 5.71,-17.72 5.34,-17.37 4.96,-17.03 4.51,-16.78 4.07,-16.53 3.05,-13.22 2.03,-9.91 0.74,-6.79 -0.54,-3.66 -1.44,-1.41 -2.34,0.84 -2.53,1.20 -2.72,1.55 -2.99,1.85 -3.26,2.15 -3.59,2.38 -3.93,2.61 -4.30,2.75 -4.68,2.89 -5.08,2.93 -5.48,2.98 -5.88,2.92 -6.28,2.87 -6.66,2.73 -7.04,2.58 -7.37,2.35 -7.70,2.12 -7.96,1.81 -8.23,1.51 -8.41,1.15 -8.60,0.79 -8.69,0.40 -8.78,0.01 -8.78,-0.39 -8.78,-0.79 -8.68,-1.18 -8.58,-1.57 -5.36,-2.17 -2.14,-2.77 -1.73,-2.67 -1.31,-2.58 -0.95,-2.35 -0.59,-2.13 -0.32,-1.80 -0.05,-1.48 0.09,-1.08 0.25,-0.68 0.26,-0.26 0.28,0.16 0.16,0.56 0.04,0.97 -0.19,1.32 -0.43,1.67 -0.77,1.92 -1.12,2.18 -1.52,2.31 -1.92,2.44 -2.35,2.43 -2.77,2.43 -3.18,2.29 -3.58,2.14 -3.91,1.88 -4.25,1.62 -4.48,1.27 -4.71,0.91 -4.82,0.50 -4.93,0.09 -4.90,-0.32 -4.87,-0.75 -4.71,-1.14 -4.55,-1.53 -4.27,-1.85 -3.99,-2.17 -3.62,-2.39 -3.26,-2.60 -2.84,-2.69 -2.43,-2.77 -2.00,-2.72 -1.58,-2.67 -1.20,-2.49 -0.81,-2.31 -0.51,-2.01 -0.21,-1.71 -0.01,-1.33 0.17,-0.96 0.24,-0.54 0.30,-0.12 0.23,0.29 0.15,0.71 -0.04,1.08 -0.25,1.46 -0.56,1.74 -0.87,2.03 -1.26,2.21 -1.65,2.38 -2.07,2.42 -2.49,2.46 -2.49,2.46 -2.49,2.46 -2.41,1.65 -2.34,0.84 -2.53,1.20 -2.72,1.55 -2.99,1.85 -3.26,2.15 -3.59,2.38 -3.93,2.61 -4.30,2.75 -4.68,2.89 -5.08,2.93 -5.48,2.98 -5.88,2.92 -6.28,2.87 -6.66,2.73 -7.04,2.58 -7.37,2.35 -7.70,2.12 -7.96,1.81 -8.23,1.51 -8.41,1.15 -8.60,0.79 -8.69,0.40 -8.78,0.01 -8.78,-0.39 -8.78,-0.79 -8.68,-1.18 -8.58,-1.57 -8.33,-4.08 -8.08,-6.58 -5.89,-11.45 -3.70,-16.32 -1.40,-20.36 0.90,-24.40 1.39,-24.53 1.88,-24.66 2.39,-24.67 2.90,-24.68 3.40,-24.57 3.90,-24.46 4.36,-24.23 4.82,-24.00 5.21,-23.67 5.60,-23.34 5.89,-22.93 6.19,-22.51 6.39,-22.04 6.58,-21.57 6.65,-21.06 6.72,-20.55 6.67,-20.04 6.62,-19.54 6.45,-19.05 6.28,-18.57 5.99,-18.15 5.71,-17.72 5.34,-17.37 4.96,-17.03 4.51,-16.78 4.07,-16.53 3.36,-15.84 2.66,-15.14 0.57,-13.22 -1.51,-11.30 -4.32,-12.76 -7.14,-14.22 -7.02,-14.73 -6.91,-15.23 -6.68,-15.70 -6.45,-16.17 -6.11,-16.57 -5.78,-16.96 -5.36,-17.27 -4.93,-17.58 -4.45,-17.77 -3.97,-17.97 -3.45,-18.04 -2.94,-18.12 -2.42,-18.07 -1.90,-18.02 -1.41,-17.84 -0.92,-17.67 -0.49,-17.39 -0.05,-17.10 0.29,-16.72 0.65,-16.34 0.90,-15.88 1.15,-15.43 1.29,-14.93 1.43,-14.42 1.44,-13.90 1.45,-13.38 -2.62,-14.60 -6.71,-15.83 -6.60,-16.33 -6.49,-16.84 -6.26,-17.31 -6.03,-17.78 -5.69,-18.17 -5.35,-18.57 -4.93,-18.88 -4.51,-19.18 -4.03,-19.38 -3.55,-19.58 -3.03,-19.65 -2.52,-19.73 -2.00,-19.67 -1.48,-19.62 -0.99,-19.45 -0.50,-19.28 -0.06,-18.99 0.36,-18.71 0.72,-18.33 1.07,-17.95 1.32,-17.49 1.58,-17.04 1.71,-16.53 1.85,-16.03 1.86,-15.51 1.88,-14.99 -1.93,-15.17 -5.75,-15.34 -5.63,-15.85 -5.52,-16.37 -5.29,-16.84 -5.06,-17.31 -4.72,-17.71 -4.38,-18.11 -3.95,-18.42 -3.53,-18.72 -3.04,-18.92 -2.56,-19.12 -2.04,-19.19 -1.52,-19.27 -1.00,-19.22 -0.48,-19.17 0.01,-18.99 0.50,-18.82 0.94,-18.53 1.38,-18.25 1.73,-17.86 2.09,-17.48 2.35,-17.02 2.60,-16.56 2.74,-16.06 2.88,-15.55 2.89,-15.03 2.90,-14.50 1.73,-12.18 0.56,-9.86 -0.82,-7.82 -2.21,-5.78 -2.58,-5.41 -2.95,-5.03 -3.40,-4.76 -3.85,-4.48 -4.35,-4.32 -4.86,-4.16 -5.38,-4.13 -5.91,-4.09 -6.43,-4.18 -6.95,-4.28 -7.43,-4.49 -7.91,-4.71 -8.33,-5.03 -8.75,-5.35 -9.08,-5.77 -9.40,-6.18 -9.62,-6.66 -9.84,-7.14 -9.94,-7.66 -10.04,-8.18 -10.01,-8.71 -9.98,-9.23 -9.82,-9.74 -9.67,-10.24 -9.40,-10.70 -9.13,-11.15 -7.16,-13.27 -5.19,-15.40 -5.21,-15.90 -5.23,-16.40 -5.13,-16.89 -5.02,-17.38 -4.81,-17.83 -4.59,-18.28 -4.27,-18.66 -3.95,-19.05 -3.55,-19.35 -3.15,-19.65 -2.69,-19.84 -2.23,-20.03 -1.73,-20.11 -1.24,-20.19 -0.74,-20.15 -0.24,-20.10 0.22,-19.94 0.69,-19.78 1.12,-19.51 1.54,-19.24 1.88,-18.88 2.23,-18.52 2.48,-18.08 2.72,-17.65 2.86,-17.17 3.00,-16.69 2.16,-14.59 1.31,-12.50 1.63,-10.34 1.95,-8.19 2.25,-4.41 2.54,-0.63 2.58,-0.32 2.62,-0.00 2.58,0.30 2.55,0.62 2.44,0.91 2.32,1.21 2.15,1.47 1.97,1.73 1.73,1.94 1.49,2.15 1.21,2.30 0.93,2.45 0.63,2.52 0.32,2.60 0.00,2.60 -0.30,2.60 -0.61,2.53 -0.92,2.45 -1.20,2.31 -1.48,2.16 -1.72,1.95 -1.96,1.74 -2.14,1.48 -2.32,1.22 -2.43,0.93 -2.54,0.63 -2.54,0.63 L -2.54,0.63 Z"/></g><g stroke-linecap="round"><g transform="translate(247.44155253876505 535.4779174659761) rotate(0 83.58860752324463 3.1542389943219575)"><path d="M-0.03 -0.15 C27.81 0.93, 139.21 5.27, 167.09 6.32 M-0.24 0.13 C27.65 1.24, 139.5 5.51, 167.41 6.54" stroke="#2f9e44" stroke-width="2" fill="none"/></g></g><mask/><g stroke-linecap="round"><g transform="translate(235.3972321864453 530.4882442528092) rotate(0 3.1542389943219575 -126.17149300195975)"><path d="M0.1 0.16 C1.16 -41.92, 5.14 -210.32, 6.2 -252.4 M-0.04 0.1 C1.08 -41.96, 5.43 -210.18, 6.5 -252.22" stroke="#2f9e44" stroke-width="2" fill="none"/></g></g><mask/><g stroke-linecap="round"><g transform="translate(452.4701627614128 175.88913604817606) rotate(0 -58.35434407247237 58.35430013544777)"><path d="M0.89 0.94 C-18.44 20.63, -96.44 98.24, -116.05 117.43 M-0.11 0.39 C-19.53 19.8, -97.08 96.24, -116.65 115.68" stroke="#2f9e44" stroke-width="2" fill="none"/></g></g><mask/></svg>